G04 #@! TF.GenerationSoftware,KiCad,Pcbnew,(5.1.2)-2*
G04 #@! TF.CreationDate,2019-08-30T16:50:20-04:00*
G04 #@! TF.ProjectId,Buck Converter SubBoard 0-2,4275636b-2043-46f6-9e76-657274657220,rev?*
G04 #@! TF.SameCoordinates,Original*
G04 #@! TF.FileFunction,Paste,Top*
G04 #@! TF.FilePolarity,Positive*
%FSLAX46Y46*%
G04 Gerber Fmt 4.6, Leading zero omitted, Abs format (unit mm)*
G04 Created by KiCad (PCBNEW (5.1.2)-2) date 2019-08-30 16:50:20*
%MOMM*%
%LPD*%
G04 APERTURE LIST*
%ADD10C,0.100000*%
%ADD11C,1.150000*%
%ADD12C,0.950000*%
%ADD13R,1.200000X0.900000*%
%ADD14R,2.200000X3.900000*%
%ADD15R,0.650000X1.560000*%
%ADD16R,2.200000X1.200000*%
%ADD17R,3.050000X2.750000*%
%ADD18R,0.900000X1.200000*%
G04 APERTURE END LIST*
D10*
G04 #@! TO.C,C1*
G36*
X98264505Y-106351204D02*
G01*
X98288773Y-106354804D01*
X98312572Y-106360765D01*
X98335671Y-106369030D01*
X98357850Y-106379520D01*
X98378893Y-106392132D01*
X98398599Y-106406747D01*
X98416777Y-106423223D01*
X98433253Y-106441401D01*
X98447868Y-106461107D01*
X98460480Y-106482150D01*
X98470970Y-106504329D01*
X98479235Y-106527428D01*
X98485196Y-106551227D01*
X98488796Y-106575495D01*
X98490000Y-106599999D01*
X98490000Y-107250001D01*
X98488796Y-107274505D01*
X98485196Y-107298773D01*
X98479235Y-107322572D01*
X98470970Y-107345671D01*
X98460480Y-107367850D01*
X98447868Y-107388893D01*
X98433253Y-107408599D01*
X98416777Y-107426777D01*
X98398599Y-107443253D01*
X98378893Y-107457868D01*
X98357850Y-107470480D01*
X98335671Y-107480970D01*
X98312572Y-107489235D01*
X98288773Y-107495196D01*
X98264505Y-107498796D01*
X98240001Y-107500000D01*
X97339999Y-107500000D01*
X97315495Y-107498796D01*
X97291227Y-107495196D01*
X97267428Y-107489235D01*
X97244329Y-107480970D01*
X97222150Y-107470480D01*
X97201107Y-107457868D01*
X97181401Y-107443253D01*
X97163223Y-107426777D01*
X97146747Y-107408599D01*
X97132132Y-107388893D01*
X97119520Y-107367850D01*
X97109030Y-107345671D01*
X97100765Y-107322572D01*
X97094804Y-107298773D01*
X97091204Y-107274505D01*
X97090000Y-107250001D01*
X97090000Y-106599999D01*
X97091204Y-106575495D01*
X97094804Y-106551227D01*
X97100765Y-106527428D01*
X97109030Y-106504329D01*
X97119520Y-106482150D01*
X97132132Y-106461107D01*
X97146747Y-106441401D01*
X97163223Y-106423223D01*
X97181401Y-106406747D01*
X97201107Y-106392132D01*
X97222150Y-106379520D01*
X97244329Y-106369030D01*
X97267428Y-106360765D01*
X97291227Y-106354804D01*
X97315495Y-106351204D01*
X97339999Y-106350000D01*
X98240001Y-106350000D01*
X98264505Y-106351204D01*
X98264505Y-106351204D01*
G37*
D11*
X97790000Y-106925000D03*
D10*
G36*
X98264505Y-108401204D02*
G01*
X98288773Y-108404804D01*
X98312572Y-108410765D01*
X98335671Y-108419030D01*
X98357850Y-108429520D01*
X98378893Y-108442132D01*
X98398599Y-108456747D01*
X98416777Y-108473223D01*
X98433253Y-108491401D01*
X98447868Y-108511107D01*
X98460480Y-108532150D01*
X98470970Y-108554329D01*
X98479235Y-108577428D01*
X98485196Y-108601227D01*
X98488796Y-108625495D01*
X98490000Y-108649999D01*
X98490000Y-109300001D01*
X98488796Y-109324505D01*
X98485196Y-109348773D01*
X98479235Y-109372572D01*
X98470970Y-109395671D01*
X98460480Y-109417850D01*
X98447868Y-109438893D01*
X98433253Y-109458599D01*
X98416777Y-109476777D01*
X98398599Y-109493253D01*
X98378893Y-109507868D01*
X98357850Y-109520480D01*
X98335671Y-109530970D01*
X98312572Y-109539235D01*
X98288773Y-109545196D01*
X98264505Y-109548796D01*
X98240001Y-109550000D01*
X97339999Y-109550000D01*
X97315495Y-109548796D01*
X97291227Y-109545196D01*
X97267428Y-109539235D01*
X97244329Y-109530970D01*
X97222150Y-109520480D01*
X97201107Y-109507868D01*
X97181401Y-109493253D01*
X97163223Y-109476777D01*
X97146747Y-109458599D01*
X97132132Y-109438893D01*
X97119520Y-109417850D01*
X97109030Y-109395671D01*
X97100765Y-109372572D01*
X97094804Y-109348773D01*
X97091204Y-109324505D01*
X97090000Y-109300001D01*
X97090000Y-108649999D01*
X97091204Y-108625495D01*
X97094804Y-108601227D01*
X97100765Y-108577428D01*
X97109030Y-108554329D01*
X97119520Y-108532150D01*
X97132132Y-108511107D01*
X97146747Y-108491401D01*
X97163223Y-108473223D01*
X97181401Y-108456747D01*
X97201107Y-108442132D01*
X97222150Y-108429520D01*
X97244329Y-108419030D01*
X97267428Y-108410765D01*
X97291227Y-108404804D01*
X97315495Y-108401204D01*
X97339999Y-108400000D01*
X98240001Y-108400000D01*
X98264505Y-108401204D01*
X98264505Y-108401204D01*
G37*
D11*
X97790000Y-108975000D03*
G04 #@! TD*
D10*
G04 #@! TO.C,C2*
G36*
X95724505Y-106351204D02*
G01*
X95748773Y-106354804D01*
X95772572Y-106360765D01*
X95795671Y-106369030D01*
X95817850Y-106379520D01*
X95838893Y-106392132D01*
X95858599Y-106406747D01*
X95876777Y-106423223D01*
X95893253Y-106441401D01*
X95907868Y-106461107D01*
X95920480Y-106482150D01*
X95930970Y-106504329D01*
X95939235Y-106527428D01*
X95945196Y-106551227D01*
X95948796Y-106575495D01*
X95950000Y-106599999D01*
X95950000Y-107250001D01*
X95948796Y-107274505D01*
X95945196Y-107298773D01*
X95939235Y-107322572D01*
X95930970Y-107345671D01*
X95920480Y-107367850D01*
X95907868Y-107388893D01*
X95893253Y-107408599D01*
X95876777Y-107426777D01*
X95858599Y-107443253D01*
X95838893Y-107457868D01*
X95817850Y-107470480D01*
X95795671Y-107480970D01*
X95772572Y-107489235D01*
X95748773Y-107495196D01*
X95724505Y-107498796D01*
X95700001Y-107500000D01*
X94799999Y-107500000D01*
X94775495Y-107498796D01*
X94751227Y-107495196D01*
X94727428Y-107489235D01*
X94704329Y-107480970D01*
X94682150Y-107470480D01*
X94661107Y-107457868D01*
X94641401Y-107443253D01*
X94623223Y-107426777D01*
X94606747Y-107408599D01*
X94592132Y-107388893D01*
X94579520Y-107367850D01*
X94569030Y-107345671D01*
X94560765Y-107322572D01*
X94554804Y-107298773D01*
X94551204Y-107274505D01*
X94550000Y-107250001D01*
X94550000Y-106599999D01*
X94551204Y-106575495D01*
X94554804Y-106551227D01*
X94560765Y-106527428D01*
X94569030Y-106504329D01*
X94579520Y-106482150D01*
X94592132Y-106461107D01*
X94606747Y-106441401D01*
X94623223Y-106423223D01*
X94641401Y-106406747D01*
X94661107Y-106392132D01*
X94682150Y-106379520D01*
X94704329Y-106369030D01*
X94727428Y-106360765D01*
X94751227Y-106354804D01*
X94775495Y-106351204D01*
X94799999Y-106350000D01*
X95700001Y-106350000D01*
X95724505Y-106351204D01*
X95724505Y-106351204D01*
G37*
D11*
X95250000Y-106925000D03*
D10*
G36*
X95724505Y-108401204D02*
G01*
X95748773Y-108404804D01*
X95772572Y-108410765D01*
X95795671Y-108419030D01*
X95817850Y-108429520D01*
X95838893Y-108442132D01*
X95858599Y-108456747D01*
X95876777Y-108473223D01*
X95893253Y-108491401D01*
X95907868Y-108511107D01*
X95920480Y-108532150D01*
X95930970Y-108554329D01*
X95939235Y-108577428D01*
X95945196Y-108601227D01*
X95948796Y-108625495D01*
X95950000Y-108649999D01*
X95950000Y-109300001D01*
X95948796Y-109324505D01*
X95945196Y-109348773D01*
X95939235Y-109372572D01*
X95930970Y-109395671D01*
X95920480Y-109417850D01*
X95907868Y-109438893D01*
X95893253Y-109458599D01*
X95876777Y-109476777D01*
X95858599Y-109493253D01*
X95838893Y-109507868D01*
X95817850Y-109520480D01*
X95795671Y-109530970D01*
X95772572Y-109539235D01*
X95748773Y-109545196D01*
X95724505Y-109548796D01*
X95700001Y-109550000D01*
X94799999Y-109550000D01*
X94775495Y-109548796D01*
X94751227Y-109545196D01*
X94727428Y-109539235D01*
X94704329Y-109530970D01*
X94682150Y-109520480D01*
X94661107Y-109507868D01*
X94641401Y-109493253D01*
X94623223Y-109476777D01*
X94606747Y-109458599D01*
X94592132Y-109438893D01*
X94579520Y-109417850D01*
X94569030Y-109395671D01*
X94560765Y-109372572D01*
X94554804Y-109348773D01*
X94551204Y-109324505D01*
X94550000Y-109300001D01*
X94550000Y-108649999D01*
X94551204Y-108625495D01*
X94554804Y-108601227D01*
X94560765Y-108577428D01*
X94569030Y-108554329D01*
X94579520Y-108532150D01*
X94592132Y-108511107D01*
X94606747Y-108491401D01*
X94623223Y-108473223D01*
X94641401Y-108456747D01*
X94661107Y-108442132D01*
X94682150Y-108429520D01*
X94704329Y-108419030D01*
X94727428Y-108410765D01*
X94751227Y-108404804D01*
X94775495Y-108401204D01*
X94799999Y-108400000D01*
X95700001Y-108400000D01*
X95724505Y-108401204D01*
X95724505Y-108401204D01*
G37*
D11*
X95250000Y-108975000D03*
G04 #@! TD*
D10*
G04 #@! TO.C,C3*
G36*
X98495779Y-98586144D02*
G01*
X98518834Y-98589563D01*
X98541443Y-98595227D01*
X98563387Y-98603079D01*
X98584457Y-98613044D01*
X98604448Y-98625026D01*
X98623168Y-98638910D01*
X98640438Y-98654562D01*
X98656090Y-98671832D01*
X98669974Y-98690552D01*
X98681956Y-98710543D01*
X98691921Y-98731613D01*
X98699773Y-98753557D01*
X98705437Y-98776166D01*
X98708856Y-98799221D01*
X98710000Y-98822500D01*
X98710000Y-99297500D01*
X98708856Y-99320779D01*
X98705437Y-99343834D01*
X98699773Y-99366443D01*
X98691921Y-99388387D01*
X98681956Y-99409457D01*
X98669974Y-99429448D01*
X98656090Y-99448168D01*
X98640438Y-99465438D01*
X98623168Y-99481090D01*
X98604448Y-99494974D01*
X98584457Y-99506956D01*
X98563387Y-99516921D01*
X98541443Y-99524773D01*
X98518834Y-99530437D01*
X98495779Y-99533856D01*
X98472500Y-99535000D01*
X97897500Y-99535000D01*
X97874221Y-99533856D01*
X97851166Y-99530437D01*
X97828557Y-99524773D01*
X97806613Y-99516921D01*
X97785543Y-99506956D01*
X97765552Y-99494974D01*
X97746832Y-99481090D01*
X97729562Y-99465438D01*
X97713910Y-99448168D01*
X97700026Y-99429448D01*
X97688044Y-99409457D01*
X97678079Y-99388387D01*
X97670227Y-99366443D01*
X97664563Y-99343834D01*
X97661144Y-99320779D01*
X97660000Y-99297500D01*
X97660000Y-98822500D01*
X97661144Y-98799221D01*
X97664563Y-98776166D01*
X97670227Y-98753557D01*
X97678079Y-98731613D01*
X97688044Y-98710543D01*
X97700026Y-98690552D01*
X97713910Y-98671832D01*
X97729562Y-98654562D01*
X97746832Y-98638910D01*
X97765552Y-98625026D01*
X97785543Y-98613044D01*
X97806613Y-98603079D01*
X97828557Y-98595227D01*
X97851166Y-98589563D01*
X97874221Y-98586144D01*
X97897500Y-98585000D01*
X98472500Y-98585000D01*
X98495779Y-98586144D01*
X98495779Y-98586144D01*
G37*
D12*
X98185000Y-99060000D03*
D10*
G36*
X100245779Y-98586144D02*
G01*
X100268834Y-98589563D01*
X100291443Y-98595227D01*
X100313387Y-98603079D01*
X100334457Y-98613044D01*
X100354448Y-98625026D01*
X100373168Y-98638910D01*
X100390438Y-98654562D01*
X100406090Y-98671832D01*
X100419974Y-98690552D01*
X100431956Y-98710543D01*
X100441921Y-98731613D01*
X100449773Y-98753557D01*
X100455437Y-98776166D01*
X100458856Y-98799221D01*
X100460000Y-98822500D01*
X100460000Y-99297500D01*
X100458856Y-99320779D01*
X100455437Y-99343834D01*
X100449773Y-99366443D01*
X100441921Y-99388387D01*
X100431956Y-99409457D01*
X100419974Y-99429448D01*
X100406090Y-99448168D01*
X100390438Y-99465438D01*
X100373168Y-99481090D01*
X100354448Y-99494974D01*
X100334457Y-99506956D01*
X100313387Y-99516921D01*
X100291443Y-99524773D01*
X100268834Y-99530437D01*
X100245779Y-99533856D01*
X100222500Y-99535000D01*
X99647500Y-99535000D01*
X99624221Y-99533856D01*
X99601166Y-99530437D01*
X99578557Y-99524773D01*
X99556613Y-99516921D01*
X99535543Y-99506956D01*
X99515552Y-99494974D01*
X99496832Y-99481090D01*
X99479562Y-99465438D01*
X99463910Y-99448168D01*
X99450026Y-99429448D01*
X99438044Y-99409457D01*
X99428079Y-99388387D01*
X99420227Y-99366443D01*
X99414563Y-99343834D01*
X99411144Y-99320779D01*
X99410000Y-99297500D01*
X99410000Y-98822500D01*
X99411144Y-98799221D01*
X99414563Y-98776166D01*
X99420227Y-98753557D01*
X99428079Y-98731613D01*
X99438044Y-98710543D01*
X99450026Y-98690552D01*
X99463910Y-98671832D01*
X99479562Y-98654562D01*
X99496832Y-98638910D01*
X99515552Y-98625026D01*
X99535543Y-98613044D01*
X99556613Y-98603079D01*
X99578557Y-98595227D01*
X99601166Y-98589563D01*
X99624221Y-98586144D01*
X99647500Y-98585000D01*
X100222500Y-98585000D01*
X100245779Y-98586144D01*
X100245779Y-98586144D01*
G37*
D12*
X99935000Y-99060000D03*
G04 #@! TD*
D10*
G04 #@! TO.C,C4*
G36*
X104244505Y-96456204D02*
G01*
X104268773Y-96459804D01*
X104292572Y-96465765D01*
X104315671Y-96474030D01*
X104337850Y-96484520D01*
X104358893Y-96497132D01*
X104378599Y-96511747D01*
X104396777Y-96528223D01*
X104413253Y-96546401D01*
X104427868Y-96566107D01*
X104440480Y-96587150D01*
X104450970Y-96609329D01*
X104459235Y-96632428D01*
X104465196Y-96656227D01*
X104468796Y-96680495D01*
X104470000Y-96704999D01*
X104470000Y-97605001D01*
X104468796Y-97629505D01*
X104465196Y-97653773D01*
X104459235Y-97677572D01*
X104450970Y-97700671D01*
X104440480Y-97722850D01*
X104427868Y-97743893D01*
X104413253Y-97763599D01*
X104396777Y-97781777D01*
X104378599Y-97798253D01*
X104358893Y-97812868D01*
X104337850Y-97825480D01*
X104315671Y-97835970D01*
X104292572Y-97844235D01*
X104268773Y-97850196D01*
X104244505Y-97853796D01*
X104220001Y-97855000D01*
X103569999Y-97855000D01*
X103545495Y-97853796D01*
X103521227Y-97850196D01*
X103497428Y-97844235D01*
X103474329Y-97835970D01*
X103452150Y-97825480D01*
X103431107Y-97812868D01*
X103411401Y-97798253D01*
X103393223Y-97781777D01*
X103376747Y-97763599D01*
X103362132Y-97743893D01*
X103349520Y-97722850D01*
X103339030Y-97700671D01*
X103330765Y-97677572D01*
X103324804Y-97653773D01*
X103321204Y-97629505D01*
X103320000Y-97605001D01*
X103320000Y-96704999D01*
X103321204Y-96680495D01*
X103324804Y-96656227D01*
X103330765Y-96632428D01*
X103339030Y-96609329D01*
X103349520Y-96587150D01*
X103362132Y-96566107D01*
X103376747Y-96546401D01*
X103393223Y-96528223D01*
X103411401Y-96511747D01*
X103431107Y-96497132D01*
X103452150Y-96484520D01*
X103474329Y-96474030D01*
X103497428Y-96465765D01*
X103521227Y-96459804D01*
X103545495Y-96456204D01*
X103569999Y-96455000D01*
X104220001Y-96455000D01*
X104244505Y-96456204D01*
X104244505Y-96456204D01*
G37*
D11*
X103895000Y-97155000D03*
D10*
G36*
X102194505Y-96456204D02*
G01*
X102218773Y-96459804D01*
X102242572Y-96465765D01*
X102265671Y-96474030D01*
X102287850Y-96484520D01*
X102308893Y-96497132D01*
X102328599Y-96511747D01*
X102346777Y-96528223D01*
X102363253Y-96546401D01*
X102377868Y-96566107D01*
X102390480Y-96587150D01*
X102400970Y-96609329D01*
X102409235Y-96632428D01*
X102415196Y-96656227D01*
X102418796Y-96680495D01*
X102420000Y-96704999D01*
X102420000Y-97605001D01*
X102418796Y-97629505D01*
X102415196Y-97653773D01*
X102409235Y-97677572D01*
X102400970Y-97700671D01*
X102390480Y-97722850D01*
X102377868Y-97743893D01*
X102363253Y-97763599D01*
X102346777Y-97781777D01*
X102328599Y-97798253D01*
X102308893Y-97812868D01*
X102287850Y-97825480D01*
X102265671Y-97835970D01*
X102242572Y-97844235D01*
X102218773Y-97850196D01*
X102194505Y-97853796D01*
X102170001Y-97855000D01*
X101519999Y-97855000D01*
X101495495Y-97853796D01*
X101471227Y-97850196D01*
X101447428Y-97844235D01*
X101424329Y-97835970D01*
X101402150Y-97825480D01*
X101381107Y-97812868D01*
X101361401Y-97798253D01*
X101343223Y-97781777D01*
X101326747Y-97763599D01*
X101312132Y-97743893D01*
X101299520Y-97722850D01*
X101289030Y-97700671D01*
X101280765Y-97677572D01*
X101274804Y-97653773D01*
X101271204Y-97629505D01*
X101270000Y-97605001D01*
X101270000Y-96704999D01*
X101271204Y-96680495D01*
X101274804Y-96656227D01*
X101280765Y-96632428D01*
X101289030Y-96609329D01*
X101299520Y-96587150D01*
X101312132Y-96566107D01*
X101326747Y-96546401D01*
X101343223Y-96528223D01*
X101361401Y-96511747D01*
X101381107Y-96497132D01*
X101402150Y-96484520D01*
X101424329Y-96474030D01*
X101447428Y-96465765D01*
X101471227Y-96459804D01*
X101495495Y-96456204D01*
X101519999Y-96455000D01*
X102170001Y-96455000D01*
X102194505Y-96456204D01*
X102194505Y-96456204D01*
G37*
D11*
X101845000Y-97155000D03*
G04 #@! TD*
D10*
G04 #@! TO.C,C5*
G36*
X102194505Y-98361204D02*
G01*
X102218773Y-98364804D01*
X102242572Y-98370765D01*
X102265671Y-98379030D01*
X102287850Y-98389520D01*
X102308893Y-98402132D01*
X102328599Y-98416747D01*
X102346777Y-98433223D01*
X102363253Y-98451401D01*
X102377868Y-98471107D01*
X102390480Y-98492150D01*
X102400970Y-98514329D01*
X102409235Y-98537428D01*
X102415196Y-98561227D01*
X102418796Y-98585495D01*
X102420000Y-98609999D01*
X102420000Y-99510001D01*
X102418796Y-99534505D01*
X102415196Y-99558773D01*
X102409235Y-99582572D01*
X102400970Y-99605671D01*
X102390480Y-99627850D01*
X102377868Y-99648893D01*
X102363253Y-99668599D01*
X102346777Y-99686777D01*
X102328599Y-99703253D01*
X102308893Y-99717868D01*
X102287850Y-99730480D01*
X102265671Y-99740970D01*
X102242572Y-99749235D01*
X102218773Y-99755196D01*
X102194505Y-99758796D01*
X102170001Y-99760000D01*
X101519999Y-99760000D01*
X101495495Y-99758796D01*
X101471227Y-99755196D01*
X101447428Y-99749235D01*
X101424329Y-99740970D01*
X101402150Y-99730480D01*
X101381107Y-99717868D01*
X101361401Y-99703253D01*
X101343223Y-99686777D01*
X101326747Y-99668599D01*
X101312132Y-99648893D01*
X101299520Y-99627850D01*
X101289030Y-99605671D01*
X101280765Y-99582572D01*
X101274804Y-99558773D01*
X101271204Y-99534505D01*
X101270000Y-99510001D01*
X101270000Y-98609999D01*
X101271204Y-98585495D01*
X101274804Y-98561227D01*
X101280765Y-98537428D01*
X101289030Y-98514329D01*
X101299520Y-98492150D01*
X101312132Y-98471107D01*
X101326747Y-98451401D01*
X101343223Y-98433223D01*
X101361401Y-98416747D01*
X101381107Y-98402132D01*
X101402150Y-98389520D01*
X101424329Y-98379030D01*
X101447428Y-98370765D01*
X101471227Y-98364804D01*
X101495495Y-98361204D01*
X101519999Y-98360000D01*
X102170001Y-98360000D01*
X102194505Y-98361204D01*
X102194505Y-98361204D01*
G37*
D11*
X101845000Y-99060000D03*
D10*
G36*
X104244505Y-98361204D02*
G01*
X104268773Y-98364804D01*
X104292572Y-98370765D01*
X104315671Y-98379030D01*
X104337850Y-98389520D01*
X104358893Y-98402132D01*
X104378599Y-98416747D01*
X104396777Y-98433223D01*
X104413253Y-98451401D01*
X104427868Y-98471107D01*
X104440480Y-98492150D01*
X104450970Y-98514329D01*
X104459235Y-98537428D01*
X104465196Y-98561227D01*
X104468796Y-98585495D01*
X104470000Y-98609999D01*
X104470000Y-99510001D01*
X104468796Y-99534505D01*
X104465196Y-99558773D01*
X104459235Y-99582572D01*
X104450970Y-99605671D01*
X104440480Y-99627850D01*
X104427868Y-99648893D01*
X104413253Y-99668599D01*
X104396777Y-99686777D01*
X104378599Y-99703253D01*
X104358893Y-99717868D01*
X104337850Y-99730480D01*
X104315671Y-99740970D01*
X104292572Y-99749235D01*
X104268773Y-99755196D01*
X104244505Y-99758796D01*
X104220001Y-99760000D01*
X103569999Y-99760000D01*
X103545495Y-99758796D01*
X103521227Y-99755196D01*
X103497428Y-99749235D01*
X103474329Y-99740970D01*
X103452150Y-99730480D01*
X103431107Y-99717868D01*
X103411401Y-99703253D01*
X103393223Y-99686777D01*
X103376747Y-99668599D01*
X103362132Y-99648893D01*
X103349520Y-99627850D01*
X103339030Y-99605671D01*
X103330765Y-99582572D01*
X103324804Y-99558773D01*
X103321204Y-99534505D01*
X103320000Y-99510001D01*
X103320000Y-98609999D01*
X103321204Y-98585495D01*
X103324804Y-98561227D01*
X103330765Y-98537428D01*
X103339030Y-98514329D01*
X103349520Y-98492150D01*
X103362132Y-98471107D01*
X103376747Y-98451401D01*
X103393223Y-98433223D01*
X103411401Y-98416747D01*
X103431107Y-98402132D01*
X103452150Y-98389520D01*
X103474329Y-98379030D01*
X103497428Y-98370765D01*
X103521227Y-98364804D01*
X103545495Y-98361204D01*
X103569999Y-98360000D01*
X104220001Y-98360000D01*
X104244505Y-98361204D01*
X104244505Y-98361204D01*
G37*
D11*
X103895000Y-99060000D03*
G04 #@! TD*
D10*
G04 #@! TO.C,C6*
G36*
X111675779Y-107476144D02*
G01*
X111698834Y-107479563D01*
X111721443Y-107485227D01*
X111743387Y-107493079D01*
X111764457Y-107503044D01*
X111784448Y-107515026D01*
X111803168Y-107528910D01*
X111820438Y-107544562D01*
X111836090Y-107561832D01*
X111849974Y-107580552D01*
X111861956Y-107600543D01*
X111871921Y-107621613D01*
X111879773Y-107643557D01*
X111885437Y-107666166D01*
X111888856Y-107689221D01*
X111890000Y-107712500D01*
X111890000Y-108187500D01*
X111888856Y-108210779D01*
X111885437Y-108233834D01*
X111879773Y-108256443D01*
X111871921Y-108278387D01*
X111861956Y-108299457D01*
X111849974Y-108319448D01*
X111836090Y-108338168D01*
X111820438Y-108355438D01*
X111803168Y-108371090D01*
X111784448Y-108384974D01*
X111764457Y-108396956D01*
X111743387Y-108406921D01*
X111721443Y-108414773D01*
X111698834Y-108420437D01*
X111675779Y-108423856D01*
X111652500Y-108425000D01*
X111077500Y-108425000D01*
X111054221Y-108423856D01*
X111031166Y-108420437D01*
X111008557Y-108414773D01*
X110986613Y-108406921D01*
X110965543Y-108396956D01*
X110945552Y-108384974D01*
X110926832Y-108371090D01*
X110909562Y-108355438D01*
X110893910Y-108338168D01*
X110880026Y-108319448D01*
X110868044Y-108299457D01*
X110858079Y-108278387D01*
X110850227Y-108256443D01*
X110844563Y-108233834D01*
X110841144Y-108210779D01*
X110840000Y-108187500D01*
X110840000Y-107712500D01*
X110841144Y-107689221D01*
X110844563Y-107666166D01*
X110850227Y-107643557D01*
X110858079Y-107621613D01*
X110868044Y-107600543D01*
X110880026Y-107580552D01*
X110893910Y-107561832D01*
X110909562Y-107544562D01*
X110926832Y-107528910D01*
X110945552Y-107515026D01*
X110965543Y-107503044D01*
X110986613Y-107493079D01*
X111008557Y-107485227D01*
X111031166Y-107479563D01*
X111054221Y-107476144D01*
X111077500Y-107475000D01*
X111652500Y-107475000D01*
X111675779Y-107476144D01*
X111675779Y-107476144D01*
G37*
D12*
X111365000Y-107950000D03*
D10*
G36*
X109925779Y-107476144D02*
G01*
X109948834Y-107479563D01*
X109971443Y-107485227D01*
X109993387Y-107493079D01*
X110014457Y-107503044D01*
X110034448Y-107515026D01*
X110053168Y-107528910D01*
X110070438Y-107544562D01*
X110086090Y-107561832D01*
X110099974Y-107580552D01*
X110111956Y-107600543D01*
X110121921Y-107621613D01*
X110129773Y-107643557D01*
X110135437Y-107666166D01*
X110138856Y-107689221D01*
X110140000Y-107712500D01*
X110140000Y-108187500D01*
X110138856Y-108210779D01*
X110135437Y-108233834D01*
X110129773Y-108256443D01*
X110121921Y-108278387D01*
X110111956Y-108299457D01*
X110099974Y-108319448D01*
X110086090Y-108338168D01*
X110070438Y-108355438D01*
X110053168Y-108371090D01*
X110034448Y-108384974D01*
X110014457Y-108396956D01*
X109993387Y-108406921D01*
X109971443Y-108414773D01*
X109948834Y-108420437D01*
X109925779Y-108423856D01*
X109902500Y-108425000D01*
X109327500Y-108425000D01*
X109304221Y-108423856D01*
X109281166Y-108420437D01*
X109258557Y-108414773D01*
X109236613Y-108406921D01*
X109215543Y-108396956D01*
X109195552Y-108384974D01*
X109176832Y-108371090D01*
X109159562Y-108355438D01*
X109143910Y-108338168D01*
X109130026Y-108319448D01*
X109118044Y-108299457D01*
X109108079Y-108278387D01*
X109100227Y-108256443D01*
X109094563Y-108233834D01*
X109091144Y-108210779D01*
X109090000Y-108187500D01*
X109090000Y-107712500D01*
X109091144Y-107689221D01*
X109094563Y-107666166D01*
X109100227Y-107643557D01*
X109108079Y-107621613D01*
X109118044Y-107600543D01*
X109130026Y-107580552D01*
X109143910Y-107561832D01*
X109159562Y-107544562D01*
X109176832Y-107528910D01*
X109195552Y-107515026D01*
X109215543Y-107503044D01*
X109236613Y-107493079D01*
X109258557Y-107485227D01*
X109281166Y-107479563D01*
X109304221Y-107476144D01*
X109327500Y-107475000D01*
X109902500Y-107475000D01*
X109925779Y-107476144D01*
X109925779Y-107476144D01*
G37*
D12*
X109615000Y-107950000D03*
G04 #@! TD*
D10*
G04 #@! TO.C,C7*
G36*
X109814505Y-94551204D02*
G01*
X109838773Y-94554804D01*
X109862572Y-94560765D01*
X109885671Y-94569030D01*
X109907850Y-94579520D01*
X109928893Y-94592132D01*
X109948599Y-94606747D01*
X109966777Y-94623223D01*
X109983253Y-94641401D01*
X109997868Y-94661107D01*
X110010480Y-94682150D01*
X110020970Y-94704329D01*
X110029235Y-94727428D01*
X110035196Y-94751227D01*
X110038796Y-94775495D01*
X110040000Y-94799999D01*
X110040000Y-95700001D01*
X110038796Y-95724505D01*
X110035196Y-95748773D01*
X110029235Y-95772572D01*
X110020970Y-95795671D01*
X110010480Y-95817850D01*
X109997868Y-95838893D01*
X109983253Y-95858599D01*
X109966777Y-95876777D01*
X109948599Y-95893253D01*
X109928893Y-95907868D01*
X109907850Y-95920480D01*
X109885671Y-95930970D01*
X109862572Y-95939235D01*
X109838773Y-95945196D01*
X109814505Y-95948796D01*
X109790001Y-95950000D01*
X109139999Y-95950000D01*
X109115495Y-95948796D01*
X109091227Y-95945196D01*
X109067428Y-95939235D01*
X109044329Y-95930970D01*
X109022150Y-95920480D01*
X109001107Y-95907868D01*
X108981401Y-95893253D01*
X108963223Y-95876777D01*
X108946747Y-95858599D01*
X108932132Y-95838893D01*
X108919520Y-95817850D01*
X108909030Y-95795671D01*
X108900765Y-95772572D01*
X108894804Y-95748773D01*
X108891204Y-95724505D01*
X108890000Y-95700001D01*
X108890000Y-94799999D01*
X108891204Y-94775495D01*
X108894804Y-94751227D01*
X108900765Y-94727428D01*
X108909030Y-94704329D01*
X108919520Y-94682150D01*
X108932132Y-94661107D01*
X108946747Y-94641401D01*
X108963223Y-94623223D01*
X108981401Y-94606747D01*
X109001107Y-94592132D01*
X109022150Y-94579520D01*
X109044329Y-94569030D01*
X109067428Y-94560765D01*
X109091227Y-94554804D01*
X109115495Y-94551204D01*
X109139999Y-94550000D01*
X109790001Y-94550000D01*
X109814505Y-94551204D01*
X109814505Y-94551204D01*
G37*
D11*
X109465000Y-95250000D03*
D10*
G36*
X111864505Y-94551204D02*
G01*
X111888773Y-94554804D01*
X111912572Y-94560765D01*
X111935671Y-94569030D01*
X111957850Y-94579520D01*
X111978893Y-94592132D01*
X111998599Y-94606747D01*
X112016777Y-94623223D01*
X112033253Y-94641401D01*
X112047868Y-94661107D01*
X112060480Y-94682150D01*
X112070970Y-94704329D01*
X112079235Y-94727428D01*
X112085196Y-94751227D01*
X112088796Y-94775495D01*
X112090000Y-94799999D01*
X112090000Y-95700001D01*
X112088796Y-95724505D01*
X112085196Y-95748773D01*
X112079235Y-95772572D01*
X112070970Y-95795671D01*
X112060480Y-95817850D01*
X112047868Y-95838893D01*
X112033253Y-95858599D01*
X112016777Y-95876777D01*
X111998599Y-95893253D01*
X111978893Y-95907868D01*
X111957850Y-95920480D01*
X111935671Y-95930970D01*
X111912572Y-95939235D01*
X111888773Y-95945196D01*
X111864505Y-95948796D01*
X111840001Y-95950000D01*
X111189999Y-95950000D01*
X111165495Y-95948796D01*
X111141227Y-95945196D01*
X111117428Y-95939235D01*
X111094329Y-95930970D01*
X111072150Y-95920480D01*
X111051107Y-95907868D01*
X111031401Y-95893253D01*
X111013223Y-95876777D01*
X110996747Y-95858599D01*
X110982132Y-95838893D01*
X110969520Y-95817850D01*
X110959030Y-95795671D01*
X110950765Y-95772572D01*
X110944804Y-95748773D01*
X110941204Y-95724505D01*
X110940000Y-95700001D01*
X110940000Y-94799999D01*
X110941204Y-94775495D01*
X110944804Y-94751227D01*
X110950765Y-94727428D01*
X110959030Y-94704329D01*
X110969520Y-94682150D01*
X110982132Y-94661107D01*
X110996747Y-94641401D01*
X111013223Y-94623223D01*
X111031401Y-94606747D01*
X111051107Y-94592132D01*
X111072150Y-94579520D01*
X111094329Y-94569030D01*
X111117428Y-94560765D01*
X111141227Y-94554804D01*
X111165495Y-94551204D01*
X111189999Y-94550000D01*
X111840001Y-94550000D01*
X111864505Y-94551204D01*
X111864505Y-94551204D01*
G37*
D11*
X111515000Y-95250000D03*
G04 #@! TD*
D10*
G04 #@! TO.C,C8*
G36*
X111675779Y-96681144D02*
G01*
X111698834Y-96684563D01*
X111721443Y-96690227D01*
X111743387Y-96698079D01*
X111764457Y-96708044D01*
X111784448Y-96720026D01*
X111803168Y-96733910D01*
X111820438Y-96749562D01*
X111836090Y-96766832D01*
X111849974Y-96785552D01*
X111861956Y-96805543D01*
X111871921Y-96826613D01*
X111879773Y-96848557D01*
X111885437Y-96871166D01*
X111888856Y-96894221D01*
X111890000Y-96917500D01*
X111890000Y-97392500D01*
X111888856Y-97415779D01*
X111885437Y-97438834D01*
X111879773Y-97461443D01*
X111871921Y-97483387D01*
X111861956Y-97504457D01*
X111849974Y-97524448D01*
X111836090Y-97543168D01*
X111820438Y-97560438D01*
X111803168Y-97576090D01*
X111784448Y-97589974D01*
X111764457Y-97601956D01*
X111743387Y-97611921D01*
X111721443Y-97619773D01*
X111698834Y-97625437D01*
X111675779Y-97628856D01*
X111652500Y-97630000D01*
X111077500Y-97630000D01*
X111054221Y-97628856D01*
X111031166Y-97625437D01*
X111008557Y-97619773D01*
X110986613Y-97611921D01*
X110965543Y-97601956D01*
X110945552Y-97589974D01*
X110926832Y-97576090D01*
X110909562Y-97560438D01*
X110893910Y-97543168D01*
X110880026Y-97524448D01*
X110868044Y-97504457D01*
X110858079Y-97483387D01*
X110850227Y-97461443D01*
X110844563Y-97438834D01*
X110841144Y-97415779D01*
X110840000Y-97392500D01*
X110840000Y-96917500D01*
X110841144Y-96894221D01*
X110844563Y-96871166D01*
X110850227Y-96848557D01*
X110858079Y-96826613D01*
X110868044Y-96805543D01*
X110880026Y-96785552D01*
X110893910Y-96766832D01*
X110909562Y-96749562D01*
X110926832Y-96733910D01*
X110945552Y-96720026D01*
X110965543Y-96708044D01*
X110986613Y-96698079D01*
X111008557Y-96690227D01*
X111031166Y-96684563D01*
X111054221Y-96681144D01*
X111077500Y-96680000D01*
X111652500Y-96680000D01*
X111675779Y-96681144D01*
X111675779Y-96681144D01*
G37*
D12*
X111365000Y-97155000D03*
D10*
G36*
X109925779Y-96681144D02*
G01*
X109948834Y-96684563D01*
X109971443Y-96690227D01*
X109993387Y-96698079D01*
X110014457Y-96708044D01*
X110034448Y-96720026D01*
X110053168Y-96733910D01*
X110070438Y-96749562D01*
X110086090Y-96766832D01*
X110099974Y-96785552D01*
X110111956Y-96805543D01*
X110121921Y-96826613D01*
X110129773Y-96848557D01*
X110135437Y-96871166D01*
X110138856Y-96894221D01*
X110140000Y-96917500D01*
X110140000Y-97392500D01*
X110138856Y-97415779D01*
X110135437Y-97438834D01*
X110129773Y-97461443D01*
X110121921Y-97483387D01*
X110111956Y-97504457D01*
X110099974Y-97524448D01*
X110086090Y-97543168D01*
X110070438Y-97560438D01*
X110053168Y-97576090D01*
X110034448Y-97589974D01*
X110014457Y-97601956D01*
X109993387Y-97611921D01*
X109971443Y-97619773D01*
X109948834Y-97625437D01*
X109925779Y-97628856D01*
X109902500Y-97630000D01*
X109327500Y-97630000D01*
X109304221Y-97628856D01*
X109281166Y-97625437D01*
X109258557Y-97619773D01*
X109236613Y-97611921D01*
X109215543Y-97601956D01*
X109195552Y-97589974D01*
X109176832Y-97576090D01*
X109159562Y-97560438D01*
X109143910Y-97543168D01*
X109130026Y-97524448D01*
X109118044Y-97504457D01*
X109108079Y-97483387D01*
X109100227Y-97461443D01*
X109094563Y-97438834D01*
X109091144Y-97415779D01*
X109090000Y-97392500D01*
X109090000Y-96917500D01*
X109091144Y-96894221D01*
X109094563Y-96871166D01*
X109100227Y-96848557D01*
X109108079Y-96826613D01*
X109118044Y-96805543D01*
X109130026Y-96785552D01*
X109143910Y-96766832D01*
X109159562Y-96749562D01*
X109176832Y-96733910D01*
X109195552Y-96720026D01*
X109215543Y-96708044D01*
X109236613Y-96698079D01*
X109258557Y-96690227D01*
X109281166Y-96684563D01*
X109304221Y-96681144D01*
X109327500Y-96680000D01*
X109902500Y-96680000D01*
X109925779Y-96681144D01*
X109925779Y-96681144D01*
G37*
D12*
X109615000Y-97155000D03*
G04 #@! TD*
D13*
G04 #@! TO.C,D1*
X100330000Y-106300000D03*
X100330000Y-109600000D03*
G04 #@! TD*
D10*
G04 #@! TO.C,D2*
G36*
X109925779Y-111286144D02*
G01*
X109948834Y-111289563D01*
X109971443Y-111295227D01*
X109993387Y-111303079D01*
X110014457Y-111313044D01*
X110034448Y-111325026D01*
X110053168Y-111338910D01*
X110070438Y-111354562D01*
X110086090Y-111371832D01*
X110099974Y-111390552D01*
X110111956Y-111410543D01*
X110121921Y-111431613D01*
X110129773Y-111453557D01*
X110135437Y-111476166D01*
X110138856Y-111499221D01*
X110140000Y-111522500D01*
X110140000Y-111997500D01*
X110138856Y-112020779D01*
X110135437Y-112043834D01*
X110129773Y-112066443D01*
X110121921Y-112088387D01*
X110111956Y-112109457D01*
X110099974Y-112129448D01*
X110086090Y-112148168D01*
X110070438Y-112165438D01*
X110053168Y-112181090D01*
X110034448Y-112194974D01*
X110014457Y-112206956D01*
X109993387Y-112216921D01*
X109971443Y-112224773D01*
X109948834Y-112230437D01*
X109925779Y-112233856D01*
X109902500Y-112235000D01*
X109327500Y-112235000D01*
X109304221Y-112233856D01*
X109281166Y-112230437D01*
X109258557Y-112224773D01*
X109236613Y-112216921D01*
X109215543Y-112206956D01*
X109195552Y-112194974D01*
X109176832Y-112181090D01*
X109159562Y-112165438D01*
X109143910Y-112148168D01*
X109130026Y-112129448D01*
X109118044Y-112109457D01*
X109108079Y-112088387D01*
X109100227Y-112066443D01*
X109094563Y-112043834D01*
X109091144Y-112020779D01*
X109090000Y-111997500D01*
X109090000Y-111522500D01*
X109091144Y-111499221D01*
X109094563Y-111476166D01*
X109100227Y-111453557D01*
X109108079Y-111431613D01*
X109118044Y-111410543D01*
X109130026Y-111390552D01*
X109143910Y-111371832D01*
X109159562Y-111354562D01*
X109176832Y-111338910D01*
X109195552Y-111325026D01*
X109215543Y-111313044D01*
X109236613Y-111303079D01*
X109258557Y-111295227D01*
X109281166Y-111289563D01*
X109304221Y-111286144D01*
X109327500Y-111285000D01*
X109902500Y-111285000D01*
X109925779Y-111286144D01*
X109925779Y-111286144D01*
G37*
D12*
X109615000Y-111760000D03*
D10*
G36*
X111675779Y-111286144D02*
G01*
X111698834Y-111289563D01*
X111721443Y-111295227D01*
X111743387Y-111303079D01*
X111764457Y-111313044D01*
X111784448Y-111325026D01*
X111803168Y-111338910D01*
X111820438Y-111354562D01*
X111836090Y-111371832D01*
X111849974Y-111390552D01*
X111861956Y-111410543D01*
X111871921Y-111431613D01*
X111879773Y-111453557D01*
X111885437Y-111476166D01*
X111888856Y-111499221D01*
X111890000Y-111522500D01*
X111890000Y-111997500D01*
X111888856Y-112020779D01*
X111885437Y-112043834D01*
X111879773Y-112066443D01*
X111871921Y-112088387D01*
X111861956Y-112109457D01*
X111849974Y-112129448D01*
X111836090Y-112148168D01*
X111820438Y-112165438D01*
X111803168Y-112181090D01*
X111784448Y-112194974D01*
X111764457Y-112206956D01*
X111743387Y-112216921D01*
X111721443Y-112224773D01*
X111698834Y-112230437D01*
X111675779Y-112233856D01*
X111652500Y-112235000D01*
X111077500Y-112235000D01*
X111054221Y-112233856D01*
X111031166Y-112230437D01*
X111008557Y-112224773D01*
X110986613Y-112216921D01*
X110965543Y-112206956D01*
X110945552Y-112194974D01*
X110926832Y-112181090D01*
X110909562Y-112165438D01*
X110893910Y-112148168D01*
X110880026Y-112129448D01*
X110868044Y-112109457D01*
X110858079Y-112088387D01*
X110850227Y-112066443D01*
X110844563Y-112043834D01*
X110841144Y-112020779D01*
X110840000Y-111997500D01*
X110840000Y-111522500D01*
X110841144Y-111499221D01*
X110844563Y-111476166D01*
X110850227Y-111453557D01*
X110858079Y-111431613D01*
X110868044Y-111410543D01*
X110880026Y-111390552D01*
X110893910Y-111371832D01*
X110909562Y-111354562D01*
X110926832Y-111338910D01*
X110945552Y-111325026D01*
X110965543Y-111313044D01*
X110986613Y-111303079D01*
X111008557Y-111295227D01*
X111031166Y-111289563D01*
X111054221Y-111286144D01*
X111077500Y-111285000D01*
X111652500Y-111285000D01*
X111675779Y-111286144D01*
X111675779Y-111286144D01*
G37*
D12*
X111365000Y-111760000D03*
G04 #@! TD*
D10*
G04 #@! TO.C,D3*
G36*
X111675779Y-90966144D02*
G01*
X111698834Y-90969563D01*
X111721443Y-90975227D01*
X111743387Y-90983079D01*
X111764457Y-90993044D01*
X111784448Y-91005026D01*
X111803168Y-91018910D01*
X111820438Y-91034562D01*
X111836090Y-91051832D01*
X111849974Y-91070552D01*
X111861956Y-91090543D01*
X111871921Y-91111613D01*
X111879773Y-91133557D01*
X111885437Y-91156166D01*
X111888856Y-91179221D01*
X111890000Y-91202500D01*
X111890000Y-91677500D01*
X111888856Y-91700779D01*
X111885437Y-91723834D01*
X111879773Y-91746443D01*
X111871921Y-91768387D01*
X111861956Y-91789457D01*
X111849974Y-91809448D01*
X111836090Y-91828168D01*
X111820438Y-91845438D01*
X111803168Y-91861090D01*
X111784448Y-91874974D01*
X111764457Y-91886956D01*
X111743387Y-91896921D01*
X111721443Y-91904773D01*
X111698834Y-91910437D01*
X111675779Y-91913856D01*
X111652500Y-91915000D01*
X111077500Y-91915000D01*
X111054221Y-91913856D01*
X111031166Y-91910437D01*
X111008557Y-91904773D01*
X110986613Y-91896921D01*
X110965543Y-91886956D01*
X110945552Y-91874974D01*
X110926832Y-91861090D01*
X110909562Y-91845438D01*
X110893910Y-91828168D01*
X110880026Y-91809448D01*
X110868044Y-91789457D01*
X110858079Y-91768387D01*
X110850227Y-91746443D01*
X110844563Y-91723834D01*
X110841144Y-91700779D01*
X110840000Y-91677500D01*
X110840000Y-91202500D01*
X110841144Y-91179221D01*
X110844563Y-91156166D01*
X110850227Y-91133557D01*
X110858079Y-91111613D01*
X110868044Y-91090543D01*
X110880026Y-91070552D01*
X110893910Y-91051832D01*
X110909562Y-91034562D01*
X110926832Y-91018910D01*
X110945552Y-91005026D01*
X110965543Y-90993044D01*
X110986613Y-90983079D01*
X111008557Y-90975227D01*
X111031166Y-90969563D01*
X111054221Y-90966144D01*
X111077500Y-90965000D01*
X111652500Y-90965000D01*
X111675779Y-90966144D01*
X111675779Y-90966144D01*
G37*
D12*
X111365000Y-91440000D03*
D10*
G36*
X109925779Y-90966144D02*
G01*
X109948834Y-90969563D01*
X109971443Y-90975227D01*
X109993387Y-90983079D01*
X110014457Y-90993044D01*
X110034448Y-91005026D01*
X110053168Y-91018910D01*
X110070438Y-91034562D01*
X110086090Y-91051832D01*
X110099974Y-91070552D01*
X110111956Y-91090543D01*
X110121921Y-91111613D01*
X110129773Y-91133557D01*
X110135437Y-91156166D01*
X110138856Y-91179221D01*
X110140000Y-91202500D01*
X110140000Y-91677500D01*
X110138856Y-91700779D01*
X110135437Y-91723834D01*
X110129773Y-91746443D01*
X110121921Y-91768387D01*
X110111956Y-91789457D01*
X110099974Y-91809448D01*
X110086090Y-91828168D01*
X110070438Y-91845438D01*
X110053168Y-91861090D01*
X110034448Y-91874974D01*
X110014457Y-91886956D01*
X109993387Y-91896921D01*
X109971443Y-91904773D01*
X109948834Y-91910437D01*
X109925779Y-91913856D01*
X109902500Y-91915000D01*
X109327500Y-91915000D01*
X109304221Y-91913856D01*
X109281166Y-91910437D01*
X109258557Y-91904773D01*
X109236613Y-91896921D01*
X109215543Y-91886956D01*
X109195552Y-91874974D01*
X109176832Y-91861090D01*
X109159562Y-91845438D01*
X109143910Y-91828168D01*
X109130026Y-91809448D01*
X109118044Y-91789457D01*
X109108079Y-91768387D01*
X109100227Y-91746443D01*
X109094563Y-91723834D01*
X109091144Y-91700779D01*
X109090000Y-91677500D01*
X109090000Y-91202500D01*
X109091144Y-91179221D01*
X109094563Y-91156166D01*
X109100227Y-91133557D01*
X109108079Y-91111613D01*
X109118044Y-91090543D01*
X109130026Y-91070552D01*
X109143910Y-91051832D01*
X109159562Y-91034562D01*
X109176832Y-91018910D01*
X109195552Y-91005026D01*
X109215543Y-90993044D01*
X109236613Y-90983079D01*
X109258557Y-90975227D01*
X109281166Y-90969563D01*
X109304221Y-90966144D01*
X109327500Y-90965000D01*
X109902500Y-90965000D01*
X109925779Y-90966144D01*
X109925779Y-90966144D01*
G37*
D12*
X109615000Y-91440000D03*
G04 #@! TD*
D14*
G04 #@! TO.C,L1*
X100335000Y-102870000D03*
X104135000Y-102870000D03*
G04 #@! TD*
D10*
G04 #@! TO.C,R1*
G36*
X94240779Y-103221144D02*
G01*
X94263834Y-103224563D01*
X94286443Y-103230227D01*
X94308387Y-103238079D01*
X94329457Y-103248044D01*
X94349448Y-103260026D01*
X94368168Y-103273910D01*
X94385438Y-103289562D01*
X94401090Y-103306832D01*
X94414974Y-103325552D01*
X94426956Y-103345543D01*
X94436921Y-103366613D01*
X94444773Y-103388557D01*
X94450437Y-103411166D01*
X94453856Y-103434221D01*
X94455000Y-103457500D01*
X94455000Y-104032500D01*
X94453856Y-104055779D01*
X94450437Y-104078834D01*
X94444773Y-104101443D01*
X94436921Y-104123387D01*
X94426956Y-104144457D01*
X94414974Y-104164448D01*
X94401090Y-104183168D01*
X94385438Y-104200438D01*
X94368168Y-104216090D01*
X94349448Y-104229974D01*
X94329457Y-104241956D01*
X94308387Y-104251921D01*
X94286443Y-104259773D01*
X94263834Y-104265437D01*
X94240779Y-104268856D01*
X94217500Y-104270000D01*
X93742500Y-104270000D01*
X93719221Y-104268856D01*
X93696166Y-104265437D01*
X93673557Y-104259773D01*
X93651613Y-104251921D01*
X93630543Y-104241956D01*
X93610552Y-104229974D01*
X93591832Y-104216090D01*
X93574562Y-104200438D01*
X93558910Y-104183168D01*
X93545026Y-104164448D01*
X93533044Y-104144457D01*
X93523079Y-104123387D01*
X93515227Y-104101443D01*
X93509563Y-104078834D01*
X93506144Y-104055779D01*
X93505000Y-104032500D01*
X93505000Y-103457500D01*
X93506144Y-103434221D01*
X93509563Y-103411166D01*
X93515227Y-103388557D01*
X93523079Y-103366613D01*
X93533044Y-103345543D01*
X93545026Y-103325552D01*
X93558910Y-103306832D01*
X93574562Y-103289562D01*
X93591832Y-103273910D01*
X93610552Y-103260026D01*
X93630543Y-103248044D01*
X93651613Y-103238079D01*
X93673557Y-103230227D01*
X93696166Y-103224563D01*
X93719221Y-103221144D01*
X93742500Y-103220000D01*
X94217500Y-103220000D01*
X94240779Y-103221144D01*
X94240779Y-103221144D01*
G37*
D12*
X93980000Y-103745000D03*
D10*
G36*
X94240779Y-101471144D02*
G01*
X94263834Y-101474563D01*
X94286443Y-101480227D01*
X94308387Y-101488079D01*
X94329457Y-101498044D01*
X94349448Y-101510026D01*
X94368168Y-101523910D01*
X94385438Y-101539562D01*
X94401090Y-101556832D01*
X94414974Y-101575552D01*
X94426956Y-101595543D01*
X94436921Y-101616613D01*
X94444773Y-101638557D01*
X94450437Y-101661166D01*
X94453856Y-101684221D01*
X94455000Y-101707500D01*
X94455000Y-102282500D01*
X94453856Y-102305779D01*
X94450437Y-102328834D01*
X94444773Y-102351443D01*
X94436921Y-102373387D01*
X94426956Y-102394457D01*
X94414974Y-102414448D01*
X94401090Y-102433168D01*
X94385438Y-102450438D01*
X94368168Y-102466090D01*
X94349448Y-102479974D01*
X94329457Y-102491956D01*
X94308387Y-102501921D01*
X94286443Y-102509773D01*
X94263834Y-102515437D01*
X94240779Y-102518856D01*
X94217500Y-102520000D01*
X93742500Y-102520000D01*
X93719221Y-102518856D01*
X93696166Y-102515437D01*
X93673557Y-102509773D01*
X93651613Y-102501921D01*
X93630543Y-102491956D01*
X93610552Y-102479974D01*
X93591832Y-102466090D01*
X93574562Y-102450438D01*
X93558910Y-102433168D01*
X93545026Y-102414448D01*
X93533044Y-102394457D01*
X93523079Y-102373387D01*
X93515227Y-102351443D01*
X93509563Y-102328834D01*
X93506144Y-102305779D01*
X93505000Y-102282500D01*
X93505000Y-101707500D01*
X93506144Y-101684221D01*
X93509563Y-101661166D01*
X93515227Y-101638557D01*
X93523079Y-101616613D01*
X93533044Y-101595543D01*
X93545026Y-101575552D01*
X93558910Y-101556832D01*
X93574562Y-101539562D01*
X93591832Y-101523910D01*
X93610552Y-101510026D01*
X93630543Y-101498044D01*
X93651613Y-101488079D01*
X93673557Y-101480227D01*
X93696166Y-101474563D01*
X93719221Y-101471144D01*
X93742500Y-101470000D01*
X94217500Y-101470000D01*
X94240779Y-101471144D01*
X94240779Y-101471144D01*
G37*
D12*
X93980000Y-101995000D03*
G04 #@! TD*
D10*
G04 #@! TO.C,R2*
G36*
X94685779Y-96681144D02*
G01*
X94708834Y-96684563D01*
X94731443Y-96690227D01*
X94753387Y-96698079D01*
X94774457Y-96708044D01*
X94794448Y-96720026D01*
X94813168Y-96733910D01*
X94830438Y-96749562D01*
X94846090Y-96766832D01*
X94859974Y-96785552D01*
X94871956Y-96805543D01*
X94881921Y-96826613D01*
X94889773Y-96848557D01*
X94895437Y-96871166D01*
X94898856Y-96894221D01*
X94900000Y-96917500D01*
X94900000Y-97392500D01*
X94898856Y-97415779D01*
X94895437Y-97438834D01*
X94889773Y-97461443D01*
X94881921Y-97483387D01*
X94871956Y-97504457D01*
X94859974Y-97524448D01*
X94846090Y-97543168D01*
X94830438Y-97560438D01*
X94813168Y-97576090D01*
X94794448Y-97589974D01*
X94774457Y-97601956D01*
X94753387Y-97611921D01*
X94731443Y-97619773D01*
X94708834Y-97625437D01*
X94685779Y-97628856D01*
X94662500Y-97630000D01*
X94087500Y-97630000D01*
X94064221Y-97628856D01*
X94041166Y-97625437D01*
X94018557Y-97619773D01*
X93996613Y-97611921D01*
X93975543Y-97601956D01*
X93955552Y-97589974D01*
X93936832Y-97576090D01*
X93919562Y-97560438D01*
X93903910Y-97543168D01*
X93890026Y-97524448D01*
X93878044Y-97504457D01*
X93868079Y-97483387D01*
X93860227Y-97461443D01*
X93854563Y-97438834D01*
X93851144Y-97415779D01*
X93850000Y-97392500D01*
X93850000Y-96917500D01*
X93851144Y-96894221D01*
X93854563Y-96871166D01*
X93860227Y-96848557D01*
X93868079Y-96826613D01*
X93878044Y-96805543D01*
X93890026Y-96785552D01*
X93903910Y-96766832D01*
X93919562Y-96749562D01*
X93936832Y-96733910D01*
X93955552Y-96720026D01*
X93975543Y-96708044D01*
X93996613Y-96698079D01*
X94018557Y-96690227D01*
X94041166Y-96684563D01*
X94064221Y-96681144D01*
X94087500Y-96680000D01*
X94662500Y-96680000D01*
X94685779Y-96681144D01*
X94685779Y-96681144D01*
G37*
D12*
X94375000Y-97155000D03*
D10*
G36*
X96435779Y-96681144D02*
G01*
X96458834Y-96684563D01*
X96481443Y-96690227D01*
X96503387Y-96698079D01*
X96524457Y-96708044D01*
X96544448Y-96720026D01*
X96563168Y-96733910D01*
X96580438Y-96749562D01*
X96596090Y-96766832D01*
X96609974Y-96785552D01*
X96621956Y-96805543D01*
X96631921Y-96826613D01*
X96639773Y-96848557D01*
X96645437Y-96871166D01*
X96648856Y-96894221D01*
X96650000Y-96917500D01*
X96650000Y-97392500D01*
X96648856Y-97415779D01*
X96645437Y-97438834D01*
X96639773Y-97461443D01*
X96631921Y-97483387D01*
X96621956Y-97504457D01*
X96609974Y-97524448D01*
X96596090Y-97543168D01*
X96580438Y-97560438D01*
X96563168Y-97576090D01*
X96544448Y-97589974D01*
X96524457Y-97601956D01*
X96503387Y-97611921D01*
X96481443Y-97619773D01*
X96458834Y-97625437D01*
X96435779Y-97628856D01*
X96412500Y-97630000D01*
X95837500Y-97630000D01*
X95814221Y-97628856D01*
X95791166Y-97625437D01*
X95768557Y-97619773D01*
X95746613Y-97611921D01*
X95725543Y-97601956D01*
X95705552Y-97589974D01*
X95686832Y-97576090D01*
X95669562Y-97560438D01*
X95653910Y-97543168D01*
X95640026Y-97524448D01*
X95628044Y-97504457D01*
X95618079Y-97483387D01*
X95610227Y-97461443D01*
X95604563Y-97438834D01*
X95601144Y-97415779D01*
X95600000Y-97392500D01*
X95600000Y-96917500D01*
X95601144Y-96894221D01*
X95604563Y-96871166D01*
X95610227Y-96848557D01*
X95618079Y-96826613D01*
X95628044Y-96805543D01*
X95640026Y-96785552D01*
X95653910Y-96766832D01*
X95669562Y-96749562D01*
X95686832Y-96733910D01*
X95705552Y-96720026D01*
X95725543Y-96708044D01*
X95746613Y-96698079D01*
X95768557Y-96690227D01*
X95791166Y-96684563D01*
X95814221Y-96681144D01*
X95837500Y-96680000D01*
X96412500Y-96680000D01*
X96435779Y-96681144D01*
X96435779Y-96681144D01*
G37*
D12*
X96125000Y-97155000D03*
G04 #@! TD*
D10*
G04 #@! TO.C,R3*
G36*
X98495779Y-96681144D02*
G01*
X98518834Y-96684563D01*
X98541443Y-96690227D01*
X98563387Y-96698079D01*
X98584457Y-96708044D01*
X98604448Y-96720026D01*
X98623168Y-96733910D01*
X98640438Y-96749562D01*
X98656090Y-96766832D01*
X98669974Y-96785552D01*
X98681956Y-96805543D01*
X98691921Y-96826613D01*
X98699773Y-96848557D01*
X98705437Y-96871166D01*
X98708856Y-96894221D01*
X98710000Y-96917500D01*
X98710000Y-97392500D01*
X98708856Y-97415779D01*
X98705437Y-97438834D01*
X98699773Y-97461443D01*
X98691921Y-97483387D01*
X98681956Y-97504457D01*
X98669974Y-97524448D01*
X98656090Y-97543168D01*
X98640438Y-97560438D01*
X98623168Y-97576090D01*
X98604448Y-97589974D01*
X98584457Y-97601956D01*
X98563387Y-97611921D01*
X98541443Y-97619773D01*
X98518834Y-97625437D01*
X98495779Y-97628856D01*
X98472500Y-97630000D01*
X97897500Y-97630000D01*
X97874221Y-97628856D01*
X97851166Y-97625437D01*
X97828557Y-97619773D01*
X97806613Y-97611921D01*
X97785543Y-97601956D01*
X97765552Y-97589974D01*
X97746832Y-97576090D01*
X97729562Y-97560438D01*
X97713910Y-97543168D01*
X97700026Y-97524448D01*
X97688044Y-97504457D01*
X97678079Y-97483387D01*
X97670227Y-97461443D01*
X97664563Y-97438834D01*
X97661144Y-97415779D01*
X97660000Y-97392500D01*
X97660000Y-96917500D01*
X97661144Y-96894221D01*
X97664563Y-96871166D01*
X97670227Y-96848557D01*
X97678079Y-96826613D01*
X97688044Y-96805543D01*
X97700026Y-96785552D01*
X97713910Y-96766832D01*
X97729562Y-96749562D01*
X97746832Y-96733910D01*
X97765552Y-96720026D01*
X97785543Y-96708044D01*
X97806613Y-96698079D01*
X97828557Y-96690227D01*
X97851166Y-96684563D01*
X97874221Y-96681144D01*
X97897500Y-96680000D01*
X98472500Y-96680000D01*
X98495779Y-96681144D01*
X98495779Y-96681144D01*
G37*
D12*
X98185000Y-97155000D03*
D10*
G36*
X100245779Y-96681144D02*
G01*
X100268834Y-96684563D01*
X100291443Y-96690227D01*
X100313387Y-96698079D01*
X100334457Y-96708044D01*
X100354448Y-96720026D01*
X100373168Y-96733910D01*
X100390438Y-96749562D01*
X100406090Y-96766832D01*
X100419974Y-96785552D01*
X100431956Y-96805543D01*
X100441921Y-96826613D01*
X100449773Y-96848557D01*
X100455437Y-96871166D01*
X100458856Y-96894221D01*
X100460000Y-96917500D01*
X100460000Y-97392500D01*
X100458856Y-97415779D01*
X100455437Y-97438834D01*
X100449773Y-97461443D01*
X100441921Y-97483387D01*
X100431956Y-97504457D01*
X100419974Y-97524448D01*
X100406090Y-97543168D01*
X100390438Y-97560438D01*
X100373168Y-97576090D01*
X100354448Y-97589974D01*
X100334457Y-97601956D01*
X100313387Y-97611921D01*
X100291443Y-97619773D01*
X100268834Y-97625437D01*
X100245779Y-97628856D01*
X100222500Y-97630000D01*
X99647500Y-97630000D01*
X99624221Y-97628856D01*
X99601166Y-97625437D01*
X99578557Y-97619773D01*
X99556613Y-97611921D01*
X99535543Y-97601956D01*
X99515552Y-97589974D01*
X99496832Y-97576090D01*
X99479562Y-97560438D01*
X99463910Y-97543168D01*
X99450026Y-97524448D01*
X99438044Y-97504457D01*
X99428079Y-97483387D01*
X99420227Y-97461443D01*
X99414563Y-97438834D01*
X99411144Y-97415779D01*
X99410000Y-97392500D01*
X99410000Y-96917500D01*
X99411144Y-96894221D01*
X99414563Y-96871166D01*
X99420227Y-96848557D01*
X99428079Y-96826613D01*
X99438044Y-96805543D01*
X99450026Y-96785552D01*
X99463910Y-96766832D01*
X99479562Y-96749562D01*
X99496832Y-96733910D01*
X99515552Y-96720026D01*
X99535543Y-96708044D01*
X99556613Y-96698079D01*
X99578557Y-96690227D01*
X99601166Y-96684563D01*
X99624221Y-96681144D01*
X99647500Y-96680000D01*
X100222500Y-96680000D01*
X100245779Y-96681144D01*
X100245779Y-96681144D01*
G37*
D12*
X99935000Y-97155000D03*
G04 #@! TD*
D10*
G04 #@! TO.C,R4*
G36*
X94685779Y-94776144D02*
G01*
X94708834Y-94779563D01*
X94731443Y-94785227D01*
X94753387Y-94793079D01*
X94774457Y-94803044D01*
X94794448Y-94815026D01*
X94813168Y-94828910D01*
X94830438Y-94844562D01*
X94846090Y-94861832D01*
X94859974Y-94880552D01*
X94871956Y-94900543D01*
X94881921Y-94921613D01*
X94889773Y-94943557D01*
X94895437Y-94966166D01*
X94898856Y-94989221D01*
X94900000Y-95012500D01*
X94900000Y-95487500D01*
X94898856Y-95510779D01*
X94895437Y-95533834D01*
X94889773Y-95556443D01*
X94881921Y-95578387D01*
X94871956Y-95599457D01*
X94859974Y-95619448D01*
X94846090Y-95638168D01*
X94830438Y-95655438D01*
X94813168Y-95671090D01*
X94794448Y-95684974D01*
X94774457Y-95696956D01*
X94753387Y-95706921D01*
X94731443Y-95714773D01*
X94708834Y-95720437D01*
X94685779Y-95723856D01*
X94662500Y-95725000D01*
X94087500Y-95725000D01*
X94064221Y-95723856D01*
X94041166Y-95720437D01*
X94018557Y-95714773D01*
X93996613Y-95706921D01*
X93975543Y-95696956D01*
X93955552Y-95684974D01*
X93936832Y-95671090D01*
X93919562Y-95655438D01*
X93903910Y-95638168D01*
X93890026Y-95619448D01*
X93878044Y-95599457D01*
X93868079Y-95578387D01*
X93860227Y-95556443D01*
X93854563Y-95533834D01*
X93851144Y-95510779D01*
X93850000Y-95487500D01*
X93850000Y-95012500D01*
X93851144Y-94989221D01*
X93854563Y-94966166D01*
X93860227Y-94943557D01*
X93868079Y-94921613D01*
X93878044Y-94900543D01*
X93890026Y-94880552D01*
X93903910Y-94861832D01*
X93919562Y-94844562D01*
X93936832Y-94828910D01*
X93955552Y-94815026D01*
X93975543Y-94803044D01*
X93996613Y-94793079D01*
X94018557Y-94785227D01*
X94041166Y-94779563D01*
X94064221Y-94776144D01*
X94087500Y-94775000D01*
X94662500Y-94775000D01*
X94685779Y-94776144D01*
X94685779Y-94776144D01*
G37*
D12*
X94375000Y-95250000D03*
D10*
G36*
X96435779Y-94776144D02*
G01*
X96458834Y-94779563D01*
X96481443Y-94785227D01*
X96503387Y-94793079D01*
X96524457Y-94803044D01*
X96544448Y-94815026D01*
X96563168Y-94828910D01*
X96580438Y-94844562D01*
X96596090Y-94861832D01*
X96609974Y-94880552D01*
X96621956Y-94900543D01*
X96631921Y-94921613D01*
X96639773Y-94943557D01*
X96645437Y-94966166D01*
X96648856Y-94989221D01*
X96650000Y-95012500D01*
X96650000Y-95487500D01*
X96648856Y-95510779D01*
X96645437Y-95533834D01*
X96639773Y-95556443D01*
X96631921Y-95578387D01*
X96621956Y-95599457D01*
X96609974Y-95619448D01*
X96596090Y-95638168D01*
X96580438Y-95655438D01*
X96563168Y-95671090D01*
X96544448Y-95684974D01*
X96524457Y-95696956D01*
X96503387Y-95706921D01*
X96481443Y-95714773D01*
X96458834Y-95720437D01*
X96435779Y-95723856D01*
X96412500Y-95725000D01*
X95837500Y-95725000D01*
X95814221Y-95723856D01*
X95791166Y-95720437D01*
X95768557Y-95714773D01*
X95746613Y-95706921D01*
X95725543Y-95696956D01*
X95705552Y-95684974D01*
X95686832Y-95671090D01*
X95669562Y-95655438D01*
X95653910Y-95638168D01*
X95640026Y-95619448D01*
X95628044Y-95599457D01*
X95618079Y-95578387D01*
X95610227Y-95556443D01*
X95604563Y-95533834D01*
X95601144Y-95510779D01*
X95600000Y-95487500D01*
X95600000Y-95012500D01*
X95601144Y-94989221D01*
X95604563Y-94966166D01*
X95610227Y-94943557D01*
X95618079Y-94921613D01*
X95628044Y-94900543D01*
X95640026Y-94880552D01*
X95653910Y-94861832D01*
X95669562Y-94844562D01*
X95686832Y-94828910D01*
X95705552Y-94815026D01*
X95725543Y-94803044D01*
X95746613Y-94793079D01*
X95768557Y-94785227D01*
X95791166Y-94779563D01*
X95814221Y-94776144D01*
X95837500Y-94775000D01*
X96412500Y-94775000D01*
X96435779Y-94776144D01*
X96435779Y-94776144D01*
G37*
D12*
X96125000Y-95250000D03*
G04 #@! TD*
D10*
G04 #@! TO.C,R5*
G36*
X94685779Y-98586144D02*
G01*
X94708834Y-98589563D01*
X94731443Y-98595227D01*
X94753387Y-98603079D01*
X94774457Y-98613044D01*
X94794448Y-98625026D01*
X94813168Y-98638910D01*
X94830438Y-98654562D01*
X94846090Y-98671832D01*
X94859974Y-98690552D01*
X94871956Y-98710543D01*
X94881921Y-98731613D01*
X94889773Y-98753557D01*
X94895437Y-98776166D01*
X94898856Y-98799221D01*
X94900000Y-98822500D01*
X94900000Y-99297500D01*
X94898856Y-99320779D01*
X94895437Y-99343834D01*
X94889773Y-99366443D01*
X94881921Y-99388387D01*
X94871956Y-99409457D01*
X94859974Y-99429448D01*
X94846090Y-99448168D01*
X94830438Y-99465438D01*
X94813168Y-99481090D01*
X94794448Y-99494974D01*
X94774457Y-99506956D01*
X94753387Y-99516921D01*
X94731443Y-99524773D01*
X94708834Y-99530437D01*
X94685779Y-99533856D01*
X94662500Y-99535000D01*
X94087500Y-99535000D01*
X94064221Y-99533856D01*
X94041166Y-99530437D01*
X94018557Y-99524773D01*
X93996613Y-99516921D01*
X93975543Y-99506956D01*
X93955552Y-99494974D01*
X93936832Y-99481090D01*
X93919562Y-99465438D01*
X93903910Y-99448168D01*
X93890026Y-99429448D01*
X93878044Y-99409457D01*
X93868079Y-99388387D01*
X93860227Y-99366443D01*
X93854563Y-99343834D01*
X93851144Y-99320779D01*
X93850000Y-99297500D01*
X93850000Y-98822500D01*
X93851144Y-98799221D01*
X93854563Y-98776166D01*
X93860227Y-98753557D01*
X93868079Y-98731613D01*
X93878044Y-98710543D01*
X93890026Y-98690552D01*
X93903910Y-98671832D01*
X93919562Y-98654562D01*
X93936832Y-98638910D01*
X93955552Y-98625026D01*
X93975543Y-98613044D01*
X93996613Y-98603079D01*
X94018557Y-98595227D01*
X94041166Y-98589563D01*
X94064221Y-98586144D01*
X94087500Y-98585000D01*
X94662500Y-98585000D01*
X94685779Y-98586144D01*
X94685779Y-98586144D01*
G37*
D12*
X94375000Y-99060000D03*
D10*
G36*
X96435779Y-98586144D02*
G01*
X96458834Y-98589563D01*
X96481443Y-98595227D01*
X96503387Y-98603079D01*
X96524457Y-98613044D01*
X96544448Y-98625026D01*
X96563168Y-98638910D01*
X96580438Y-98654562D01*
X96596090Y-98671832D01*
X96609974Y-98690552D01*
X96621956Y-98710543D01*
X96631921Y-98731613D01*
X96639773Y-98753557D01*
X96645437Y-98776166D01*
X96648856Y-98799221D01*
X96650000Y-98822500D01*
X96650000Y-99297500D01*
X96648856Y-99320779D01*
X96645437Y-99343834D01*
X96639773Y-99366443D01*
X96631921Y-99388387D01*
X96621956Y-99409457D01*
X96609974Y-99429448D01*
X96596090Y-99448168D01*
X96580438Y-99465438D01*
X96563168Y-99481090D01*
X96544448Y-99494974D01*
X96524457Y-99506956D01*
X96503387Y-99516921D01*
X96481443Y-99524773D01*
X96458834Y-99530437D01*
X96435779Y-99533856D01*
X96412500Y-99535000D01*
X95837500Y-99535000D01*
X95814221Y-99533856D01*
X95791166Y-99530437D01*
X95768557Y-99524773D01*
X95746613Y-99516921D01*
X95725543Y-99506956D01*
X95705552Y-99494974D01*
X95686832Y-99481090D01*
X95669562Y-99465438D01*
X95653910Y-99448168D01*
X95640026Y-99429448D01*
X95628044Y-99409457D01*
X95618079Y-99388387D01*
X95610227Y-99366443D01*
X95604563Y-99343834D01*
X95601144Y-99320779D01*
X95600000Y-99297500D01*
X95600000Y-98822500D01*
X95601144Y-98799221D01*
X95604563Y-98776166D01*
X95610227Y-98753557D01*
X95618079Y-98731613D01*
X95628044Y-98710543D01*
X95640026Y-98690552D01*
X95653910Y-98671832D01*
X95669562Y-98654562D01*
X95686832Y-98638910D01*
X95705552Y-98625026D01*
X95725543Y-98613044D01*
X95746613Y-98603079D01*
X95768557Y-98595227D01*
X95791166Y-98589563D01*
X95814221Y-98586144D01*
X95837500Y-98585000D01*
X96412500Y-98585000D01*
X96435779Y-98586144D01*
X96435779Y-98586144D01*
G37*
D12*
X96125000Y-99060000D03*
G04 #@! TD*
D10*
G04 #@! TO.C,R6*
G36*
X111675779Y-109381144D02*
G01*
X111698834Y-109384563D01*
X111721443Y-109390227D01*
X111743387Y-109398079D01*
X111764457Y-109408044D01*
X111784448Y-109420026D01*
X111803168Y-109433910D01*
X111820438Y-109449562D01*
X111836090Y-109466832D01*
X111849974Y-109485552D01*
X111861956Y-109505543D01*
X111871921Y-109526613D01*
X111879773Y-109548557D01*
X111885437Y-109571166D01*
X111888856Y-109594221D01*
X111890000Y-109617500D01*
X111890000Y-110092500D01*
X111888856Y-110115779D01*
X111885437Y-110138834D01*
X111879773Y-110161443D01*
X111871921Y-110183387D01*
X111861956Y-110204457D01*
X111849974Y-110224448D01*
X111836090Y-110243168D01*
X111820438Y-110260438D01*
X111803168Y-110276090D01*
X111784448Y-110289974D01*
X111764457Y-110301956D01*
X111743387Y-110311921D01*
X111721443Y-110319773D01*
X111698834Y-110325437D01*
X111675779Y-110328856D01*
X111652500Y-110330000D01*
X111077500Y-110330000D01*
X111054221Y-110328856D01*
X111031166Y-110325437D01*
X111008557Y-110319773D01*
X110986613Y-110311921D01*
X110965543Y-110301956D01*
X110945552Y-110289974D01*
X110926832Y-110276090D01*
X110909562Y-110260438D01*
X110893910Y-110243168D01*
X110880026Y-110224448D01*
X110868044Y-110204457D01*
X110858079Y-110183387D01*
X110850227Y-110161443D01*
X110844563Y-110138834D01*
X110841144Y-110115779D01*
X110840000Y-110092500D01*
X110840000Y-109617500D01*
X110841144Y-109594221D01*
X110844563Y-109571166D01*
X110850227Y-109548557D01*
X110858079Y-109526613D01*
X110868044Y-109505543D01*
X110880026Y-109485552D01*
X110893910Y-109466832D01*
X110909562Y-109449562D01*
X110926832Y-109433910D01*
X110945552Y-109420026D01*
X110965543Y-109408044D01*
X110986613Y-109398079D01*
X111008557Y-109390227D01*
X111031166Y-109384563D01*
X111054221Y-109381144D01*
X111077500Y-109380000D01*
X111652500Y-109380000D01*
X111675779Y-109381144D01*
X111675779Y-109381144D01*
G37*
D12*
X111365000Y-109855000D03*
D10*
G36*
X109925779Y-109381144D02*
G01*
X109948834Y-109384563D01*
X109971443Y-109390227D01*
X109993387Y-109398079D01*
X110014457Y-109408044D01*
X110034448Y-109420026D01*
X110053168Y-109433910D01*
X110070438Y-109449562D01*
X110086090Y-109466832D01*
X110099974Y-109485552D01*
X110111956Y-109505543D01*
X110121921Y-109526613D01*
X110129773Y-109548557D01*
X110135437Y-109571166D01*
X110138856Y-109594221D01*
X110140000Y-109617500D01*
X110140000Y-110092500D01*
X110138856Y-110115779D01*
X110135437Y-110138834D01*
X110129773Y-110161443D01*
X110121921Y-110183387D01*
X110111956Y-110204457D01*
X110099974Y-110224448D01*
X110086090Y-110243168D01*
X110070438Y-110260438D01*
X110053168Y-110276090D01*
X110034448Y-110289974D01*
X110014457Y-110301956D01*
X109993387Y-110311921D01*
X109971443Y-110319773D01*
X109948834Y-110325437D01*
X109925779Y-110328856D01*
X109902500Y-110330000D01*
X109327500Y-110330000D01*
X109304221Y-110328856D01*
X109281166Y-110325437D01*
X109258557Y-110319773D01*
X109236613Y-110311921D01*
X109215543Y-110301956D01*
X109195552Y-110289974D01*
X109176832Y-110276090D01*
X109159562Y-110260438D01*
X109143910Y-110243168D01*
X109130026Y-110224448D01*
X109118044Y-110204457D01*
X109108079Y-110183387D01*
X109100227Y-110161443D01*
X109094563Y-110138834D01*
X109091144Y-110115779D01*
X109090000Y-110092500D01*
X109090000Y-109617500D01*
X109091144Y-109594221D01*
X109094563Y-109571166D01*
X109100227Y-109548557D01*
X109108079Y-109526613D01*
X109118044Y-109505543D01*
X109130026Y-109485552D01*
X109143910Y-109466832D01*
X109159562Y-109449562D01*
X109176832Y-109433910D01*
X109195552Y-109420026D01*
X109215543Y-109408044D01*
X109236613Y-109398079D01*
X109258557Y-109390227D01*
X109281166Y-109384563D01*
X109304221Y-109381144D01*
X109327500Y-109380000D01*
X109902500Y-109380000D01*
X109925779Y-109381144D01*
X109925779Y-109381144D01*
G37*
D12*
X109615000Y-109855000D03*
G04 #@! TD*
D10*
G04 #@! TO.C,R7*
G36*
X109925779Y-92871144D02*
G01*
X109948834Y-92874563D01*
X109971443Y-92880227D01*
X109993387Y-92888079D01*
X110014457Y-92898044D01*
X110034448Y-92910026D01*
X110053168Y-92923910D01*
X110070438Y-92939562D01*
X110086090Y-92956832D01*
X110099974Y-92975552D01*
X110111956Y-92995543D01*
X110121921Y-93016613D01*
X110129773Y-93038557D01*
X110135437Y-93061166D01*
X110138856Y-93084221D01*
X110140000Y-93107500D01*
X110140000Y-93582500D01*
X110138856Y-93605779D01*
X110135437Y-93628834D01*
X110129773Y-93651443D01*
X110121921Y-93673387D01*
X110111956Y-93694457D01*
X110099974Y-93714448D01*
X110086090Y-93733168D01*
X110070438Y-93750438D01*
X110053168Y-93766090D01*
X110034448Y-93779974D01*
X110014457Y-93791956D01*
X109993387Y-93801921D01*
X109971443Y-93809773D01*
X109948834Y-93815437D01*
X109925779Y-93818856D01*
X109902500Y-93820000D01*
X109327500Y-93820000D01*
X109304221Y-93818856D01*
X109281166Y-93815437D01*
X109258557Y-93809773D01*
X109236613Y-93801921D01*
X109215543Y-93791956D01*
X109195552Y-93779974D01*
X109176832Y-93766090D01*
X109159562Y-93750438D01*
X109143910Y-93733168D01*
X109130026Y-93714448D01*
X109118044Y-93694457D01*
X109108079Y-93673387D01*
X109100227Y-93651443D01*
X109094563Y-93628834D01*
X109091144Y-93605779D01*
X109090000Y-93582500D01*
X109090000Y-93107500D01*
X109091144Y-93084221D01*
X109094563Y-93061166D01*
X109100227Y-93038557D01*
X109108079Y-93016613D01*
X109118044Y-92995543D01*
X109130026Y-92975552D01*
X109143910Y-92956832D01*
X109159562Y-92939562D01*
X109176832Y-92923910D01*
X109195552Y-92910026D01*
X109215543Y-92898044D01*
X109236613Y-92888079D01*
X109258557Y-92880227D01*
X109281166Y-92874563D01*
X109304221Y-92871144D01*
X109327500Y-92870000D01*
X109902500Y-92870000D01*
X109925779Y-92871144D01*
X109925779Y-92871144D01*
G37*
D12*
X109615000Y-93345000D03*
D10*
G36*
X111675779Y-92871144D02*
G01*
X111698834Y-92874563D01*
X111721443Y-92880227D01*
X111743387Y-92888079D01*
X111764457Y-92898044D01*
X111784448Y-92910026D01*
X111803168Y-92923910D01*
X111820438Y-92939562D01*
X111836090Y-92956832D01*
X111849974Y-92975552D01*
X111861956Y-92995543D01*
X111871921Y-93016613D01*
X111879773Y-93038557D01*
X111885437Y-93061166D01*
X111888856Y-93084221D01*
X111890000Y-93107500D01*
X111890000Y-93582500D01*
X111888856Y-93605779D01*
X111885437Y-93628834D01*
X111879773Y-93651443D01*
X111871921Y-93673387D01*
X111861956Y-93694457D01*
X111849974Y-93714448D01*
X111836090Y-93733168D01*
X111820438Y-93750438D01*
X111803168Y-93766090D01*
X111784448Y-93779974D01*
X111764457Y-93791956D01*
X111743387Y-93801921D01*
X111721443Y-93809773D01*
X111698834Y-93815437D01*
X111675779Y-93818856D01*
X111652500Y-93820000D01*
X111077500Y-93820000D01*
X111054221Y-93818856D01*
X111031166Y-93815437D01*
X111008557Y-93809773D01*
X110986613Y-93801921D01*
X110965543Y-93791956D01*
X110945552Y-93779974D01*
X110926832Y-93766090D01*
X110909562Y-93750438D01*
X110893910Y-93733168D01*
X110880026Y-93714448D01*
X110868044Y-93694457D01*
X110858079Y-93673387D01*
X110850227Y-93651443D01*
X110844563Y-93628834D01*
X110841144Y-93605779D01*
X110840000Y-93582500D01*
X110840000Y-93107500D01*
X110841144Y-93084221D01*
X110844563Y-93061166D01*
X110850227Y-93038557D01*
X110858079Y-93016613D01*
X110868044Y-92995543D01*
X110880026Y-92975552D01*
X110893910Y-92956832D01*
X110909562Y-92939562D01*
X110926832Y-92923910D01*
X110945552Y-92910026D01*
X110965543Y-92898044D01*
X110986613Y-92888079D01*
X111008557Y-92880227D01*
X111031166Y-92874563D01*
X111054221Y-92871144D01*
X111077500Y-92870000D01*
X111652500Y-92870000D01*
X111675779Y-92871144D01*
X111675779Y-92871144D01*
G37*
D12*
X111365000Y-93345000D03*
G04 #@! TD*
D15*
G04 #@! TO.C,U1*
X97470000Y-101520000D03*
X96520000Y-101520000D03*
X95570000Y-101520000D03*
X95570000Y-104220000D03*
X97470000Y-104220000D03*
X96520000Y-104220000D03*
G04 #@! TD*
D16*
G04 #@! TO.C,U2*
X107560000Y-99320000D03*
X107560000Y-103880000D03*
D17*
X115535000Y-103125000D03*
X112185000Y-100075000D03*
X115535000Y-100075000D03*
X112185000Y-103125000D03*
G04 #@! TD*
D18*
G04 #@! TO.C,D4*
X108840000Y-106045000D03*
X112140000Y-106045000D03*
G04 #@! TD*
M02*
