M48
; DRILL file {KiCad (5.1.2)-2} date 8/30/2019 4:42:17 PM
; FORMAT={-:-/ absolute / inch / decimal}
; #@! TF.CreationDate,2019-08-30T16:42:17-04:00
; #@! TF.GenerationSoftware,Kicad,Pcbnew,(5.1.2)-2
; #@! TF.FileFunction,Plated,1,2,PTH
FMAT,2
INCH
T1C0.0150
T2C0.0374
T3C0.0394
%
G90
G05
T1
X5.675Y-1.785
X5.675Y-2.01
X5.73Y-3.06
X5.73Y-3.14
X5.85Y-1.46
X5.88Y-1.49
X5.91Y-1.52
X6.015Y-2.26
X6.045Y-2.01
X6.045Y-2.15
X6.065Y-0.785
X6.1Y-1.935
X6.125Y-0.785
X6.125Y-1.08
X6.13Y-2.1
X6.2Y-1.765
X6.21Y-2.1
X6.23Y-1.54
X6.235Y-1.935
X6.245Y-2.35
X6.255Y-2.2
X6.255Y-2.25
X6.28Y-1.6
X6.285Y-2.225
X6.285Y-2.295
X6.32Y-1.46
X6.35Y-1.08
X6.36Y-1.765
X6.535Y-1.615
T2
X4.875Y-1.3329
X4.875Y-1.4313
X4.875Y-1.5297
X4.875Y-1.6281
X4.875Y-1.7266
X4.875Y-1.825
X4.875Y-1.9234
X4.875Y-2.0219
X4.875Y-2.1203
X4.875Y-2.2187
X4.875Y-2.3171
T3
X6.45Y-0.775
X6.45Y-0.875
X6.45Y-0.975
X6.45Y-1.075
X6.45Y-1.775
X6.45Y-1.875
X6.45Y-1.975
X6.45Y-2.075
X6.45Y-2.175
X6.45Y-2.275
X6.45Y-2.55
X6.45Y-2.65
X6.45Y-2.75
X6.45Y-2.85
T0
M30
