M48
;DRILL file {KiCad (5.0.0)} date 04/02/19 12:13:00
;FORMAT={-:-/ absolute / inch / decimal}
FMAT,2
INCH,TZ
T1C0.0157
T2C0.0177
T3C0.0394
%
G90
G05
M72
T1
X4.1791Y-5.1657
X4.5441Y-5.1657
X4.9091Y-5.1657
X5.2691Y-5.1657
X5.6391Y-5.1657
X5.7891Y-4.6557
X5.8091Y-4.8707
X6.2291Y-4.8757
X6.2691Y-4.7907
X6.2691Y-4.8757
X6.3041Y-4.9607
X6.3191Y-4.6107
X6.3191Y-4.6557
X6.3491Y-4.5807
X6.3541Y-4.8757
X6.3791Y-4.5507
X6.3791Y-4.6107
X6.4091Y-4.5207
X6.4091Y-4.5807
X6.4391Y-4.4907
X6.4391Y-4.5507
X6.4391Y-4.6107
X6.5041Y-4.7607
X6.5491Y-4.8957
X6.5891Y-4.8557
X6.5891Y-4.8957
X6.6341Y-4.8557
X6.6841Y-4.8057
X6.7041Y-4.8557
X6.7191Y-4.9457
X6.7691Y-4.9957
X6.8291Y-4.8357
X6.8341Y-4.9957
X6.8591Y-4.7257
X6.8841Y-4.9957
X6.8891Y-4.8357
X6.9491Y-5.0457
X6.9741Y-5.0107
X6.9991Y-4.9757
X6.9991Y-5.0457
X7.0441Y-4.9757
T3
X6.1839Y-4.3107
X6.1839Y-4.4107
X6.2839Y-4.3107
X6.2839Y-4.4107
X6.3839Y-4.3107
X6.3839Y-4.4107
X6.4839Y-4.3107
X6.4839Y-4.4107
X6.5839Y-4.3107
X6.5839Y-4.4107
T2
X6.685Y-4.8937G85X6.685Y-4.9331
G05
X6.685Y-5.0157G85X6.685Y-5.063
G05
X7.0354Y-4.8937G85X7.0354Y-4.9331
G05
X7.0354Y-5.0157G85X7.0354Y-5.063
G05
T0
M30
