%TF.GenerationSoftware,KiCad,Pcbnew,(5.0.0)*%
%TF.CreationDate,2019-04-02T12:12:56-04:00*%
%TF.ProjectId,Fusion USB Daughter Board,467573696F6E20555342204461756768,rev?*%
%TF.SameCoordinates,Original*%
%TF.FileFunction,Copper,L2,Bot,Signal*%
%TF.FilePolarity,Positive*%
%FSLAX46Y46*%
G04 Gerber Fmt 4.6, Leading zero omitted, Abs format (unit mm)*
G04 Created by KiCad (PCBNEW (5.0.0)) date 04/02/19 12:12:56*
%MOMM*%
%LPD*%
G01*
G04 APERTURE LIST*
%ADD10C,0.200000*%
%ADD11O,0.850000X2.050000*%
%ADD12O,0.850000X1.850000*%
%ADD13O,1.700000X1.700000*%
%ADD14R,1.700000X1.700000*%
%ADD15C,0.800000*%
%ADD16C,0.254000*%
%ADD17C,0.381000*%
%ADD18C,0.152400*%
G04 APERTURE END LIST*
D10*
X176900000Y-117250000D02*
G75*
G02X176000000Y-118150000I-900000J0D01*
G01*
X176900000Y-110000000D02*
X176900000Y-117250000D01*
X140544594Y-133887594D02*
X140544594Y-132824523D01*
X149969740Y-132824523D02*
G75*
G02X150469740Y-132324523I500000J0D01*
G01*
X144118853Y-134387594D02*
X149469740Y-134387594D01*
X144118853Y-134387594D02*
G75*
G02X143618853Y-133887594I0J500000D01*
G01*
X141044594Y-132324523D02*
X143118853Y-132324523D01*
X149969740Y-133887594D02*
X149969740Y-132824523D01*
X149969740Y-133887594D02*
G75*
G02X149469740Y-134387594I-500000J0D01*
G01*
X143618853Y-132824523D02*
X143618853Y-133887594D01*
X150469740Y-132324523D02*
X151469740Y-132324523D01*
X140544594Y-132824523D02*
G75*
G02X141044594Y-132324523I500000J0D01*
G01*
X143118853Y-132324523D02*
G75*
G02X143618853Y-132824523I0J-500000D01*
G01*
X152469740Y-127732704D02*
G75*
G02X153469740Y-126732704I1000000J0D01*
G01*
X168725000Y-127732704D02*
X168725000Y-128387594D01*
X167725000Y-126732704D02*
G75*
G02X168725000Y-127732704I0J-1000000D01*
G01*
X152469740Y-131324523D02*
G75*
G02X151469740Y-132324523I-1000000J0D01*
G01*
X179262500Y-118976457D02*
G75*
G02X179775000Y-120313373I-1487500J-1336916D01*
G01*
X179775000Y-128387594D02*
G75*
G02X178775000Y-129387594I-1000000J0D01*
G01*
X152469740Y-131324523D02*
X152469740Y-127732704D01*
X169725000Y-129387594D02*
X178775000Y-129387594D01*
X169725000Y-129387594D02*
G75*
G02X168725000Y-128387594I0J1000000D01*
G01*
X179775000Y-128387594D02*
X179775000Y-120313373D01*
X153469740Y-126732704D02*
X167725000Y-126732704D01*
X106030260Y-132324523D02*
G75*
G02X106530260Y-132824523I0J-500000D01*
G01*
X107030260Y-134387594D02*
G75*
G02X106530260Y-133887594I0J500000D01*
G01*
X106530260Y-132824523D02*
X106530260Y-133887594D01*
X105030260Y-132324523D02*
G75*
G02X104030260Y-131324523I0J1000000D01*
G01*
X104030260Y-118324523D02*
X104030260Y-131324523D01*
X104030260Y-118324523D02*
G75*
G02X105030260Y-117324523I1000000J0D01*
G01*
X112881146Y-132824523D02*
G75*
G02X113381146Y-132324523I500000J0D01*
G01*
X112881146Y-133887594D02*
X112881146Y-132824523D01*
X112881146Y-133887594D02*
G75*
G02X112381146Y-134387594I-500000J0D01*
G01*
X107030260Y-134387594D02*
X112381146Y-134387594D01*
X105030260Y-132324523D02*
X106030260Y-132324523D01*
X134329698Y-132824523D02*
X134329698Y-133887594D01*
X131252713Y-133887594D02*
G75*
G02X130752713Y-134387594I-500000J0D01*
G01*
X125747287Y-134387594D02*
X130752713Y-134387594D01*
X125747287Y-134387594D02*
G75*
G02X125247287Y-133887594I0J500000D01*
G01*
X140544594Y-133887594D02*
G75*
G02X140044594Y-134387594I-500000J0D01*
G01*
X133829698Y-132324523D02*
G75*
G02X134329698Y-132824523I0J-500000D01*
G01*
X134829698Y-134387594D02*
X140044594Y-134387594D01*
X134829698Y-134387594D02*
G75*
G02X134329698Y-133887594I0J500000D01*
G01*
X131252713Y-133887594D02*
X131252713Y-132824523D01*
X131752713Y-132324523D02*
X133829698Y-132324523D01*
X131252713Y-132824523D02*
G75*
G02X131752713Y-132324523I500000J0D01*
G01*
X168750000Y-105250000D02*
X168750000Y-99635787D01*
X177750000Y-106250000D02*
X169750000Y-106250000D01*
X178750000Y-117639541D02*
X178750000Y-107250000D01*
X177750000Y-106250000D02*
G75*
G02X178750000Y-107250000I0J-1000000D01*
G01*
X179262500Y-118976457D02*
G75*
G02X178750000Y-117639541I1487500J1336916D01*
G01*
X169750000Y-106250000D02*
G75*
G02X168750000Y-105250000I0J1000000D01*
G01*
X134329698Y-118324523D02*
G75*
G02X135329698Y-117324523I1000000J0D01*
G01*
X146750000Y-116324523D02*
G75*
G02X145750000Y-117324523I-1000000J0D01*
G01*
X146750000Y-107250000D02*
X146750000Y-116324523D01*
X155550000Y-105250000D02*
G75*
G02X154550000Y-106250000I-1000000J0D01*
G01*
X168500000Y-99385787D02*
X155800000Y-99385787D01*
X171600000Y-117250000D02*
X171600000Y-110000000D01*
X155550000Y-99635787D02*
X155550000Y-105250000D01*
X155550000Y-99635787D02*
G75*
G02X155800000Y-99385787I250000J0D01*
G01*
X172500000Y-109100000D02*
X176000000Y-109100000D01*
X171600000Y-110000000D02*
G75*
G02X172500000Y-109100000I900000J0D01*
G01*
X172500000Y-118150000D02*
G75*
G02X171600000Y-117250000I0J900000D01*
G01*
X146750000Y-107250000D02*
G75*
G02X147750000Y-106250000I1000000J0D01*
G01*
X134329698Y-119120333D02*
G75*
G02X133829698Y-119620333I-500000J0D01*
G01*
X122170301Y-119120333D02*
X122170301Y-118324523D01*
X145750000Y-117324523D02*
X135329698Y-117324523D01*
X134329698Y-118324523D02*
X134329698Y-119120333D01*
X168500000Y-99385787D02*
G75*
G02X168750000Y-99635787I0J-250000D01*
G01*
X176000000Y-118150000D02*
X172500000Y-118150000D01*
X154550000Y-106250000D02*
X147750000Y-106250000D01*
X121170301Y-117324523D02*
X105030260Y-117324523D01*
X121170301Y-117324523D02*
G75*
G02X122170301Y-118324523I0J-1000000D01*
G01*
X122670301Y-119620333D02*
G75*
G02X122170301Y-119120333I0J500000D01*
G01*
X133829698Y-119620333D02*
X122670301Y-119620333D01*
X113381146Y-132324523D02*
X115455406Y-132324523D01*
X124747287Y-132324523D02*
G75*
G02X125247287Y-132824523I0J-500000D01*
G01*
X122670301Y-132324523D02*
X124747287Y-132324523D01*
X122170301Y-133887594D02*
G75*
G02X121670301Y-134387594I-500000J0D01*
G01*
X115955406Y-132824523D02*
X115955406Y-133887594D01*
X116455406Y-134387594D02*
X121670301Y-134387594D01*
X125247287Y-132824523D02*
X125247287Y-133887594D01*
X122170301Y-132824523D02*
G75*
G02X122670301Y-132324523I500000J0D01*
G01*
X122170301Y-133887594D02*
X122170301Y-132824523D01*
X116455406Y-134387594D02*
G75*
G02X115955406Y-133887594I0J500000D01*
G01*
X115455406Y-132324523D02*
G75*
G02X115955406Y-132824523I0J-500000D01*
G01*
X176000000Y-109100000D02*
G75*
G02X176900000Y-110000000I0J-900000D01*
G01*
D11*
X169800000Y-128000000D03*
X178700000Y-128000000D03*
D12*
X169800000Y-124800000D03*
X178700000Y-124800000D03*
D13*
X157070000Y-109493000D03*
X157070000Y-112033000D03*
X159610000Y-109493000D03*
X159610000Y-112033000D03*
X162150000Y-109493000D03*
X162150000Y-112033000D03*
X164690000Y-109493000D03*
X164690000Y-112033000D03*
X167230000Y-109493000D03*
D14*
X167230000Y-112033000D03*
D15*
X170285000Y-123335000D03*
X177778000Y-126383000D03*
X178921000Y-126383000D03*
X177143000Y-127272000D03*
X177778000Y-128161000D03*
X176508000Y-128161000D03*
X160506000Y-117112000D03*
X161268000Y-116350000D03*
X162030000Y-115588000D03*
X163554000Y-114064000D03*
X162030000Y-117112000D03*
X162792000Y-114826000D03*
X162792000Y-116350000D03*
X163554000Y-115588000D03*
X163554000Y-117112000D03*
X174222000Y-120033000D03*
X167364000Y-124351000D03*
X166348000Y-124351000D03*
X171936000Y-126891000D03*
X170666000Y-125621000D03*
X165205000Y-120922000D03*
X167364000Y-123335000D03*
X143234010Y-131209000D03*
X133836000Y-131209000D03*
X124692000Y-131209000D03*
X115421000Y-131209000D03*
X106150000Y-131209000D03*
X158220000Y-123843008D03*
X159236000Y-121684000D03*
X173460000Y-122827000D03*
X174857000Y-126891000D03*
X174984000Y-122827000D03*
X173587000Y-126891000D03*
X168507000Y-123335000D03*
X169777000Y-122065006D03*
X161395000Y-123843000D03*
X160506000Y-118255000D03*
X160125000Y-126002000D03*
X159236000Y-123843000D03*
X147044000Y-118255000D03*
X147552004Y-123716000D03*
D16*
X106531000Y-131209000D02*
X106150000Y-131209000D01*
D17*
X106150000Y-131209000D02*
X115421000Y-131209000D01*
X115421000Y-131209000D02*
X124692000Y-131209000D01*
X124692000Y-131209000D02*
X133836000Y-131209000D01*
X133836000Y-131209000D02*
X143234010Y-131209000D01*
X157654315Y-123843008D02*
X158220000Y-123843008D01*
X154917992Y-123843008D02*
X157654315Y-123843008D01*
X143234010Y-131209000D02*
X147552000Y-131209000D01*
X147552000Y-131209000D02*
X154917992Y-123843008D01*
X158347000Y-120795000D02*
X159236000Y-121684000D01*
X158347000Y-117112000D02*
X158347000Y-120795000D01*
X162150000Y-112033000D02*
X162150000Y-113309000D01*
X162150000Y-113309000D02*
X158347000Y-117112000D01*
D16*
X173094001Y-127668001D02*
X172809999Y-127383999D01*
X174857000Y-126891000D02*
X174079999Y-127668001D01*
X174079999Y-127668001D02*
X173094001Y-127668001D01*
X172809999Y-126518039D02*
X174349000Y-124979038D01*
X172809999Y-127383999D02*
X172809999Y-126518039D01*
X174349000Y-123716000D02*
X173460000Y-122827000D01*
X174349000Y-124979038D02*
X174349000Y-123716000D01*
X166380001Y-110342999D02*
X167230000Y-109493000D01*
X166002999Y-110720001D02*
X166380001Y-110342999D01*
X166002999Y-114607999D02*
X166002999Y-110720001D01*
X173460000Y-122065000D02*
X166002999Y-114607999D01*
X173460000Y-122827000D02*
X173460000Y-122065000D01*
X174990368Y-123518520D02*
X174984000Y-123462000D01*
X175009153Y-123572206D02*
X174990368Y-123518520D01*
X175039414Y-123620366D02*
X175009153Y-123572206D01*
X175127793Y-123690846D02*
X175079633Y-123660585D01*
X175181479Y-123709631D02*
X175127793Y-123690846D01*
X175238000Y-123716000D02*
X175181479Y-123709631D01*
X176697368Y-123722368D02*
X176640848Y-123716000D01*
X176799214Y-123771414D02*
X176751054Y-123741153D01*
X176839433Y-123811633D02*
X176799214Y-123771414D01*
X176869694Y-123859793D02*
X176839433Y-123811633D01*
X176751054Y-123741153D02*
X176697368Y-123722368D01*
X176888479Y-123913479D02*
X176869694Y-123859793D01*
X176894848Y-123970000D02*
X176888479Y-123913479D01*
X176888479Y-124026520D02*
X176894848Y-123970000D01*
X174984000Y-123462000D02*
X174984000Y-122861153D01*
X175039414Y-124319633D02*
X175079633Y-124279414D01*
X176640848Y-123716000D02*
X175238000Y-123716000D01*
X175181479Y-124230368D02*
X175238000Y-124224000D01*
X174984000Y-124478000D02*
X174990368Y-124421479D01*
X175009153Y-124367793D02*
X175039414Y-124319633D01*
X173587000Y-126891000D02*
X174984000Y-125494000D01*
X175127793Y-124249153D02*
X175181479Y-124230368D01*
X174984000Y-125494000D02*
X174984000Y-124478000D01*
X175079633Y-124279414D02*
X175127793Y-124249153D01*
X175238000Y-124224000D02*
X176640848Y-124224000D01*
X174984000Y-122861153D02*
X174984000Y-122827000D01*
X176640848Y-124224000D02*
X176697368Y-124217631D01*
X175079633Y-123660585D02*
X175039414Y-123620366D01*
X176799214Y-124168585D02*
X176839433Y-124128366D01*
X176697368Y-124217631D02*
X176751054Y-124198846D01*
X176751054Y-124198846D02*
X176799214Y-124168585D01*
X176839433Y-124128366D02*
X176869694Y-124080206D01*
X174990368Y-124421479D02*
X175009153Y-124367793D01*
X176869694Y-124080206D02*
X176888479Y-124026520D01*
X167230000Y-113048000D02*
X167230000Y-112518536D01*
X167255153Y-113158206D02*
X167236368Y-113104520D01*
X167285414Y-113206366D02*
X167255153Y-113158206D01*
X167325633Y-113246585D02*
X167285414Y-113206366D01*
X167373793Y-113276846D02*
X167325633Y-113246585D01*
X167427479Y-113295631D02*
X167373793Y-113276846D01*
X167484000Y-113302000D02*
X167427479Y-113295631D01*
X168658629Y-113302000D02*
X167484000Y-113302000D01*
X168715149Y-113308368D02*
X168658629Y-113302000D01*
X168857214Y-113397633D02*
X168816995Y-113357414D01*
X168887475Y-113445793D02*
X168857214Y-113397633D01*
X168816995Y-113357414D02*
X168768835Y-113327153D01*
X168912629Y-113556000D02*
X168906260Y-113499479D01*
X167285414Y-113905633D02*
X167325633Y-113865414D01*
X167427479Y-113816368D02*
X167484000Y-113810000D01*
X167255153Y-113953793D02*
X167285414Y-113905633D01*
X167236368Y-113104520D02*
X167230000Y-113048000D01*
X167236368Y-114007479D02*
X167255153Y-113953793D01*
X168768835Y-113327153D02*
X168715149Y-113308368D01*
X167230000Y-115073000D02*
X167230000Y-114064000D01*
X167484000Y-113810000D02*
X168658629Y-113810000D01*
X167230000Y-112518536D02*
X167230000Y-112033000D01*
X167230000Y-114064000D02*
X167236368Y-114007479D01*
X168906260Y-113612520D02*
X168912629Y-113556000D01*
X174984000Y-122827000D02*
X167230000Y-115073000D01*
X167325633Y-113865414D02*
X167373793Y-113835153D01*
X167373793Y-113835153D02*
X167427479Y-113816368D01*
X168768835Y-113784846D02*
X168816995Y-113754585D01*
X168658629Y-113810000D02*
X168715149Y-113803631D01*
X168715149Y-113803631D02*
X168768835Y-113784846D01*
X168816995Y-113754585D02*
X168857214Y-113714366D01*
X168906260Y-113499479D02*
X168887475Y-113445793D01*
X168857214Y-113714366D02*
X168887475Y-113666206D01*
X168887475Y-113666206D02*
X168906260Y-113612520D01*
D18*
X168507000Y-123335000D02*
X169776994Y-122065006D01*
X169776994Y-122065006D02*
X169777000Y-122065006D01*
D16*
X159490000Y-119271000D02*
X160506000Y-118255000D01*
X159490000Y-119906000D02*
X159490000Y-119271000D01*
X160760000Y-121176000D02*
X159490000Y-119906000D01*
X161395000Y-123843000D02*
X160760000Y-123208000D01*
X160760000Y-123208000D02*
X160760000Y-121176000D01*
X163427000Y-110756000D02*
X164690000Y-109493000D01*
X163427000Y-112794000D02*
X163427000Y-110756000D01*
X158855000Y-117366000D02*
X163427000Y-112794000D01*
X158855000Y-120160000D02*
X158855000Y-117366000D01*
X160125000Y-126002000D02*
X160125000Y-121430000D01*
X160125000Y-121430000D02*
X158855000Y-120160000D01*
X159236000Y-122827000D02*
X159236000Y-123843000D01*
X157839000Y-121430000D02*
X159236000Y-122827000D01*
X157839000Y-116858000D02*
X157839000Y-121430000D01*
X160887000Y-113810000D02*
X157839000Y-116858000D01*
X160887000Y-110756000D02*
X162150000Y-109493000D01*
X160887000Y-113810000D02*
X160887000Y-110756000D01*
X147044000Y-118255000D02*
X147044000Y-123207996D01*
X147044000Y-123207996D02*
X147152005Y-123316001D01*
X147152005Y-123316001D02*
X147552004Y-123716000D01*
D18*
G36*
X168370600Y-105287362D02*
X168377890Y-105324011D01*
X168377890Y-105324017D01*
X168454010Y-105706700D01*
X168510660Y-105843466D01*
X168727433Y-106167890D01*
X168832110Y-106272567D01*
X169156531Y-106489337D01*
X169156534Y-106489340D01*
X169253242Y-106529397D01*
X169293299Y-106545990D01*
X169293300Y-106545990D01*
X169675983Y-106622110D01*
X169675988Y-106622110D01*
X169712637Y-106629400D01*
X177712632Y-106629400D01*
X177984649Y-106683507D01*
X178183574Y-106816424D01*
X178316493Y-107015352D01*
X178370601Y-107287373D01*
X178370600Y-117676903D01*
X178373638Y-117692174D01*
X178398423Y-117995324D01*
X178407320Y-118034410D01*
X178413350Y-118074055D01*
X178414717Y-118078484D01*
X178585218Y-118619304D01*
X178607501Y-118665711D01*
X178629225Y-118712409D01*
X178631778Y-118716273D01*
X178631780Y-118716277D01*
X178631783Y-118716280D01*
X178947218Y-119187505D01*
X179232430Y-119613580D01*
X179373776Y-120061919D01*
X179395601Y-120328866D01*
X179395600Y-128350226D01*
X179391700Y-128369833D01*
X179391700Y-128050800D01*
X178750800Y-128050800D01*
X178750800Y-128070800D01*
X178649200Y-128070800D01*
X178649200Y-128050800D01*
X178008300Y-128050800D01*
X178008300Y-128650800D01*
X178080393Y-128911635D01*
X178155698Y-129008194D01*
X170344302Y-129008194D01*
X170419607Y-128911635D01*
X170491700Y-128650800D01*
X170491700Y-128050800D01*
X169850800Y-128050800D01*
X169850800Y-128070800D01*
X169749200Y-128070800D01*
X169749200Y-128050800D01*
X169108300Y-128050800D01*
X169108300Y-128369833D01*
X169104400Y-128350226D01*
X169104400Y-127695341D01*
X169097110Y-127658692D01*
X169097110Y-127658687D01*
X169035550Y-127349200D01*
X169108300Y-127349200D01*
X169108300Y-127949200D01*
X169749200Y-127949200D01*
X169749200Y-126777043D01*
X169850800Y-126777043D01*
X169850800Y-127949200D01*
X170491700Y-127949200D01*
X170491700Y-127349200D01*
X170419607Y-127088365D01*
X170253185Y-126874973D01*
X170017769Y-126741512D01*
X169958088Y-126726608D01*
X169850800Y-126777043D01*
X169749200Y-126777043D01*
X169641912Y-126726608D01*
X169582231Y-126741512D01*
X169346815Y-126874973D01*
X169180393Y-127088365D01*
X169108300Y-127349200D01*
X169035550Y-127349200D01*
X169020990Y-127276004D01*
X168964340Y-127139238D01*
X168964337Y-127139235D01*
X168747567Y-126814814D01*
X168642890Y-126710137D01*
X168318466Y-126493364D01*
X168181700Y-126436714D01*
X167799017Y-126360594D01*
X167799012Y-126360594D01*
X167762363Y-126353304D01*
X160714862Y-126353304D01*
X160804400Y-126137141D01*
X160804400Y-125866859D01*
X160700967Y-125617151D01*
X160531400Y-125447584D01*
X160531400Y-124850800D01*
X169108300Y-124850800D01*
X169108300Y-125350800D01*
X169180393Y-125611635D01*
X169346815Y-125825027D01*
X169582231Y-125958488D01*
X169641912Y-125973392D01*
X169749200Y-125922957D01*
X169749200Y-124850800D01*
X169850800Y-124850800D01*
X169850800Y-125922957D01*
X169958088Y-125973392D01*
X170017769Y-125958488D01*
X170253185Y-125825027D01*
X170419607Y-125611635D01*
X170491700Y-125350800D01*
X170491700Y-124850800D01*
X169850800Y-124850800D01*
X169749200Y-124850800D01*
X169108300Y-124850800D01*
X160531400Y-124850800D01*
X160531400Y-123554135D01*
X160715600Y-123738336D01*
X160715600Y-123978141D01*
X160819033Y-124227849D01*
X161010151Y-124418967D01*
X161259859Y-124522400D01*
X161530141Y-124522400D01*
X161779849Y-124418967D01*
X161949616Y-124249200D01*
X169108300Y-124249200D01*
X169108300Y-124749200D01*
X169749200Y-124749200D01*
X169749200Y-123677043D01*
X169850800Y-123677043D01*
X169850800Y-124749200D01*
X170491700Y-124749200D01*
X170491700Y-124249200D01*
X170419607Y-123988365D01*
X170253185Y-123774973D01*
X170017769Y-123641512D01*
X169958088Y-123626608D01*
X169850800Y-123677043D01*
X169749200Y-123677043D01*
X169641912Y-123626608D01*
X169582231Y-123641512D01*
X169346815Y-123774973D01*
X169180393Y-123988365D01*
X169108300Y-124249200D01*
X161949616Y-124249200D01*
X161970967Y-124227849D01*
X162074400Y-123978141D01*
X162074400Y-123707859D01*
X161970967Y-123458151D01*
X161779849Y-123267033D01*
X161617678Y-123199859D01*
X167827600Y-123199859D01*
X167827600Y-123470141D01*
X167931033Y-123719849D01*
X168122151Y-123910967D01*
X168371859Y-124014400D01*
X168642141Y-124014400D01*
X168891849Y-123910967D01*
X169082967Y-123719849D01*
X169186400Y-123470141D01*
X169186400Y-123199859D01*
X169174285Y-123170610D01*
X169612606Y-122732289D01*
X169641859Y-122744406D01*
X169912141Y-122744406D01*
X170161849Y-122640973D01*
X170352967Y-122449855D01*
X170456400Y-122200147D01*
X170456400Y-121929865D01*
X170352967Y-121680157D01*
X170161849Y-121489039D01*
X169912141Y-121385606D01*
X169641859Y-121385606D01*
X169392151Y-121489039D01*
X169201033Y-121680157D01*
X169097600Y-121929865D01*
X169097600Y-122200147D01*
X169109714Y-122229392D01*
X168671390Y-122667715D01*
X168642141Y-122655600D01*
X168371859Y-122655600D01*
X168122151Y-122759033D01*
X167931033Y-122950151D01*
X167827600Y-123199859D01*
X161617678Y-123199859D01*
X161530141Y-123163600D01*
X161290336Y-123163600D01*
X161166400Y-123039665D01*
X161166400Y-121216017D01*
X161174360Y-121175999D01*
X161166400Y-121135981D01*
X161166400Y-121135977D01*
X161142820Y-121017431D01*
X161052997Y-120883003D01*
X161019068Y-120860332D01*
X159896400Y-119737665D01*
X159896400Y-119439335D01*
X160401336Y-118934400D01*
X160641141Y-118934400D01*
X160890849Y-118830967D01*
X161081967Y-118639849D01*
X161185400Y-118390141D01*
X161185400Y-118119859D01*
X161081967Y-117870151D01*
X160890849Y-117679033D01*
X160641141Y-117575600D01*
X160370859Y-117575600D01*
X160121151Y-117679033D01*
X159930033Y-117870151D01*
X159826600Y-118119859D01*
X159826600Y-118359664D01*
X159261400Y-118924865D01*
X159261400Y-117534335D01*
X163686069Y-113109667D01*
X163719997Y-113086997D01*
X163809820Y-112952569D01*
X163833400Y-112834023D01*
X163833400Y-112834019D01*
X163841086Y-112795377D01*
X163875748Y-112847252D01*
X164249330Y-113096871D01*
X164578765Y-113162400D01*
X164801235Y-113162400D01*
X165130670Y-113096871D01*
X165504252Y-112847252D01*
X165596599Y-112709044D01*
X165596599Y-114567981D01*
X165588639Y-114607999D01*
X165596599Y-114648017D01*
X165596599Y-114648021D01*
X165620179Y-114766567D01*
X165710002Y-114900996D01*
X165743934Y-114923669D01*
X173053601Y-122233337D01*
X173053601Y-122272583D01*
X172884033Y-122442151D01*
X172780600Y-122691859D01*
X172780600Y-122962141D01*
X172884033Y-123211849D01*
X173075151Y-123402967D01*
X173324859Y-123506400D01*
X173564665Y-123506400D01*
X173942601Y-123884337D01*
X173942600Y-124810702D01*
X172550932Y-126202371D01*
X172517003Y-126225042D01*
X172494332Y-126258971D01*
X172494331Y-126258972D01*
X172427180Y-126359470D01*
X172395639Y-126518039D01*
X172403600Y-126558062D01*
X172403599Y-127343981D01*
X172395639Y-127383999D01*
X172403599Y-127424017D01*
X172403599Y-127424021D01*
X172427179Y-127542567D01*
X172517002Y-127676996D01*
X172550933Y-127699668D01*
X172778335Y-127927071D01*
X172801004Y-127960998D01*
X172834930Y-127983667D01*
X172834932Y-127983669D01*
X172882547Y-128015484D01*
X172935432Y-128050821D01*
X173053978Y-128074401D01*
X173053986Y-128074401D01*
X173094000Y-128082360D01*
X173134015Y-128074401D01*
X174039981Y-128074401D01*
X174079999Y-128082361D01*
X174120017Y-128074401D01*
X174120022Y-128074401D01*
X174238568Y-128050821D01*
X174372996Y-127960998D01*
X174395669Y-127927066D01*
X174752335Y-127570400D01*
X174992141Y-127570400D01*
X175241849Y-127466967D01*
X175359616Y-127349200D01*
X178008300Y-127349200D01*
X178008300Y-127949200D01*
X178649200Y-127949200D01*
X178649200Y-126777043D01*
X178750800Y-126777043D01*
X178750800Y-127949200D01*
X179391700Y-127949200D01*
X179391700Y-127349200D01*
X179319607Y-127088365D01*
X179153185Y-126874973D01*
X178917769Y-126741512D01*
X178858088Y-126726608D01*
X178750800Y-126777043D01*
X178649200Y-126777043D01*
X178541912Y-126726608D01*
X178482231Y-126741512D01*
X178246815Y-126874973D01*
X178080393Y-127088365D01*
X178008300Y-127349200D01*
X175359616Y-127349200D01*
X175432967Y-127275849D01*
X175536400Y-127026141D01*
X175536400Y-126755859D01*
X175432967Y-126506151D01*
X175241849Y-126315033D01*
X174992141Y-126211600D01*
X174841136Y-126211600D01*
X175243069Y-125809667D01*
X175276997Y-125786997D01*
X175366820Y-125652569D01*
X175390400Y-125534023D01*
X175390400Y-125534019D01*
X175398360Y-125494001D01*
X175390400Y-125453983D01*
X175390400Y-124850800D01*
X178008300Y-124850800D01*
X178008300Y-125350800D01*
X178080393Y-125611635D01*
X178246815Y-125825027D01*
X178482231Y-125958488D01*
X178541912Y-125973392D01*
X178649200Y-125922957D01*
X178649200Y-124850800D01*
X178750800Y-124850800D01*
X178750800Y-125922957D01*
X178858088Y-125973392D01*
X178917769Y-125958488D01*
X179153185Y-125825027D01*
X179319607Y-125611635D01*
X179391700Y-125350800D01*
X179391700Y-124850800D01*
X178750800Y-124850800D01*
X178649200Y-124850800D01*
X178008300Y-124850800D01*
X175390400Y-124850800D01*
X175390400Y-124630400D01*
X176623758Y-124630400D01*
X176646584Y-124632325D01*
X176663667Y-124630400D01*
X176670488Y-124630400D01*
X176674132Y-124631340D01*
X176680790Y-124630400D01*
X176680871Y-124630400D01*
X176681068Y-124630361D01*
X176748507Y-124620840D01*
X176782647Y-124616993D01*
X176788125Y-124615247D01*
X176793812Y-124614444D01*
X176814554Y-124607186D01*
X176820462Y-124607352D01*
X176858762Y-124592732D01*
X176897807Y-124580287D01*
X176902319Y-124576477D01*
X176923053Y-124569222D01*
X176928005Y-124566301D01*
X176933383Y-124564248D01*
X176951990Y-124552556D01*
X176957783Y-124551404D01*
X176991854Y-124528638D01*
X177027159Y-124507813D01*
X177030713Y-124503091D01*
X177049320Y-124491399D01*
X177053498Y-124487449D01*
X177058281Y-124484253D01*
X177073819Y-124468715D01*
X177079211Y-124466302D01*
X177107368Y-124436520D01*
X177137150Y-124408363D01*
X177139563Y-124402971D01*
X177155101Y-124387433D01*
X177158297Y-124382650D01*
X177162247Y-124378472D01*
X177173939Y-124359865D01*
X177178661Y-124356311D01*
X177199486Y-124321006D01*
X177222252Y-124286935D01*
X177223404Y-124281142D01*
X177235096Y-124262535D01*
X177237149Y-124257157D01*
X177240070Y-124252205D01*
X177241121Y-124249200D01*
X178008300Y-124249200D01*
X178008300Y-124749200D01*
X178649200Y-124749200D01*
X178649200Y-123677043D01*
X178750800Y-123677043D01*
X178750800Y-124749200D01*
X179391700Y-124749200D01*
X179391700Y-124249200D01*
X179319607Y-123988365D01*
X179153185Y-123774973D01*
X178917769Y-123641512D01*
X178858088Y-123626608D01*
X178750800Y-123677043D01*
X178649200Y-123677043D01*
X178541912Y-123626608D01*
X178482231Y-123641512D01*
X178246815Y-123774973D01*
X178080393Y-123988365D01*
X178008300Y-124249200D01*
X177241121Y-124249200D01*
X177247326Y-124231469D01*
X177251135Y-124226958D01*
X177263578Y-124187919D01*
X177278200Y-124149614D01*
X177278034Y-124143706D01*
X177285292Y-124122964D01*
X177286095Y-124117276D01*
X177287841Y-124111798D01*
X177290302Y-124089959D01*
X177293016Y-124084705D01*
X177296462Y-124043842D01*
X177302188Y-124003283D01*
X177300713Y-123997566D01*
X177303173Y-123975736D01*
X177302689Y-123970000D01*
X177303173Y-123964264D01*
X177300713Y-123942434D01*
X177302188Y-123936716D01*
X177296462Y-123896154D01*
X177293016Y-123855296D01*
X177290302Y-123850043D01*
X177287841Y-123828202D01*
X177286095Y-123822725D01*
X177285292Y-123817035D01*
X177278034Y-123796293D01*
X177278200Y-123790385D01*
X177263577Y-123752078D01*
X177251135Y-123713041D01*
X177247326Y-123708530D01*
X177240070Y-123687794D01*
X177237149Y-123682842D01*
X177235096Y-123677464D01*
X177223404Y-123658857D01*
X177222252Y-123653064D01*
X177199486Y-123618993D01*
X177178661Y-123583688D01*
X177173939Y-123580134D01*
X177162247Y-123561527D01*
X177158297Y-123557349D01*
X177155101Y-123552566D01*
X177139563Y-123537028D01*
X177137150Y-123531636D01*
X177107368Y-123503479D01*
X177079211Y-123473697D01*
X177073819Y-123471284D01*
X177058281Y-123455746D01*
X177053498Y-123452550D01*
X177049320Y-123448600D01*
X177030713Y-123436908D01*
X177027159Y-123432186D01*
X176991854Y-123411361D01*
X176957783Y-123388595D01*
X176951990Y-123387443D01*
X176933383Y-123375751D01*
X176928005Y-123373698D01*
X176923053Y-123370777D01*
X176902313Y-123363520D01*
X176897800Y-123359709D01*
X176858761Y-123347266D01*
X176820462Y-123332647D01*
X176814554Y-123332813D01*
X176793812Y-123325555D01*
X176788119Y-123324751D01*
X176782640Y-123323005D01*
X176748517Y-123319160D01*
X176681051Y-123309636D01*
X176680871Y-123309600D01*
X176680797Y-123309600D01*
X176674132Y-123308659D01*
X176670484Y-123309600D01*
X176663663Y-123309600D01*
X176646577Y-123307675D01*
X176623755Y-123309600D01*
X175462216Y-123309600D01*
X175559967Y-123211849D01*
X175663400Y-122962141D01*
X175663400Y-122691859D01*
X175559967Y-122442151D01*
X175368849Y-122251033D01*
X175119141Y-122147600D01*
X174879336Y-122147600D01*
X170019098Y-117287362D01*
X171220600Y-117287362D01*
X171227890Y-117324011D01*
X171227890Y-117324017D01*
X171296398Y-117668431D01*
X171296398Y-117668433D01*
X171316144Y-117716103D01*
X171353048Y-117805198D01*
X171353049Y-117805199D01*
X171548143Y-118097178D01*
X171652820Y-118201855D01*
X171944801Y-118396951D01*
X171944802Y-118396952D01*
X171984922Y-118413570D01*
X172081567Y-118453602D01*
X172081568Y-118453602D01*
X172425983Y-118522110D01*
X172425988Y-118522110D01*
X172462637Y-118529400D01*
X176037363Y-118529400D01*
X176074012Y-118522110D01*
X176074017Y-118522110D01*
X176418431Y-118453602D01*
X176418433Y-118453602D01*
X176515078Y-118413570D01*
X176555198Y-118396952D01*
X176555199Y-118396951D01*
X176847180Y-118201855D01*
X176951857Y-118097178D01*
X177146951Y-117805199D01*
X177146952Y-117805198D01*
X177191921Y-117696633D01*
X177203602Y-117668433D01*
X177203602Y-117668431D01*
X177272110Y-117324017D01*
X177272110Y-117324012D01*
X177279400Y-117287363D01*
X177279400Y-109962637D01*
X177272110Y-109925988D01*
X177272110Y-109925983D01*
X177203602Y-109581568D01*
X177146952Y-109444802D01*
X177146951Y-109444801D01*
X176951855Y-109152820D01*
X176847178Y-109048143D01*
X176555199Y-108853049D01*
X176555198Y-108853048D01*
X176498548Y-108829583D01*
X176418433Y-108796398D01*
X176418431Y-108796398D01*
X176074017Y-108727890D01*
X176074012Y-108727890D01*
X176037363Y-108720600D01*
X172462637Y-108720600D01*
X172425988Y-108727890D01*
X172425983Y-108727890D01*
X172081568Y-108796398D01*
X172081567Y-108796398D01*
X172024917Y-108819863D01*
X171944802Y-108853048D01*
X171944801Y-108853049D01*
X171652822Y-109048143D01*
X171548145Y-109152820D01*
X171353049Y-109444801D01*
X171353048Y-109444802D01*
X171347836Y-109457386D01*
X171296398Y-109581567D01*
X171296398Y-109581569D01*
X171227890Y-109925983D01*
X171227890Y-109925993D01*
X171220601Y-109962637D01*
X171220600Y-117287362D01*
X170019098Y-117287362D01*
X167636400Y-114904665D01*
X167636400Y-114216400D01*
X168641539Y-114216400D01*
X168664365Y-114218325D01*
X168681448Y-114216400D01*
X168688269Y-114216400D01*
X168691913Y-114217340D01*
X168698571Y-114216400D01*
X168698652Y-114216400D01*
X168698849Y-114216361D01*
X168766288Y-114206840D01*
X168800428Y-114202993D01*
X168805906Y-114201247D01*
X168811593Y-114200444D01*
X168832335Y-114193186D01*
X168838243Y-114193352D01*
X168876543Y-114178732D01*
X168915588Y-114166287D01*
X168920100Y-114162477D01*
X168940834Y-114155222D01*
X168945786Y-114152301D01*
X168951164Y-114150248D01*
X168969771Y-114138556D01*
X168975564Y-114137404D01*
X169009635Y-114114638D01*
X169044940Y-114093813D01*
X169048494Y-114089091D01*
X169067101Y-114077399D01*
X169071279Y-114073449D01*
X169076062Y-114070253D01*
X169091600Y-114054715D01*
X169096992Y-114052302D01*
X169125149Y-114022520D01*
X169154931Y-113994363D01*
X169157344Y-113988971D01*
X169172882Y-113973433D01*
X169176078Y-113968650D01*
X169180028Y-113964472D01*
X169191720Y-113945865D01*
X169196442Y-113942311D01*
X169217267Y-113907006D01*
X169240033Y-113872935D01*
X169241185Y-113867142D01*
X169252877Y-113848535D01*
X169254930Y-113843157D01*
X169257851Y-113838205D01*
X169265107Y-113817469D01*
X169268916Y-113812958D01*
X169281359Y-113773919D01*
X169295981Y-113735614D01*
X169295815Y-113729706D01*
X169303073Y-113708964D01*
X169303876Y-113703276D01*
X169305622Y-113697798D01*
X169308083Y-113675959D01*
X169310797Y-113670705D01*
X169314243Y-113629842D01*
X169319969Y-113589283D01*
X169318494Y-113583566D01*
X169320954Y-113561736D01*
X169320470Y-113556000D01*
X169320954Y-113550264D01*
X169318494Y-113528434D01*
X169319969Y-113522716D01*
X169314243Y-113482154D01*
X169310797Y-113441296D01*
X169308083Y-113436043D01*
X169305622Y-113414202D01*
X169303876Y-113408725D01*
X169303073Y-113403035D01*
X169295815Y-113382293D01*
X169295981Y-113376385D01*
X169281358Y-113338078D01*
X169268916Y-113299041D01*
X169265107Y-113294530D01*
X169257851Y-113273794D01*
X169254930Y-113268842D01*
X169252877Y-113263464D01*
X169241185Y-113244857D01*
X169240033Y-113239064D01*
X169217267Y-113204993D01*
X169196442Y-113169688D01*
X169191720Y-113166134D01*
X169180028Y-113147527D01*
X169176078Y-113143349D01*
X169172882Y-113138566D01*
X169157344Y-113123028D01*
X169154931Y-113117636D01*
X169125149Y-113089479D01*
X169096992Y-113059697D01*
X169091600Y-113057284D01*
X169076062Y-113041746D01*
X169071279Y-113038550D01*
X169067101Y-113034600D01*
X169048494Y-113022908D01*
X169044940Y-113018186D01*
X169009635Y-112997361D01*
X168975564Y-112974595D01*
X168969771Y-112973443D01*
X168951164Y-112961751D01*
X168945786Y-112959698D01*
X168940834Y-112956777D01*
X168920094Y-112949520D01*
X168915581Y-112945709D01*
X168876542Y-112933266D01*
X168838243Y-112918647D01*
X168832335Y-112918813D01*
X168811593Y-112911555D01*
X168805900Y-112910751D01*
X168800421Y-112909005D01*
X168766298Y-112905160D01*
X168698832Y-112895636D01*
X168698652Y-112895600D01*
X168698578Y-112895600D01*
X168691913Y-112894659D01*
X168688265Y-112895600D01*
X168681444Y-112895600D01*
X168664358Y-112893675D01*
X168641536Y-112895600D01*
X168362367Y-112895600D01*
X168364873Y-112883000D01*
X168364873Y-111183000D01*
X168343188Y-111073984D01*
X168281436Y-110981564D01*
X168189016Y-110919812D01*
X168080000Y-110898127D01*
X166409399Y-110898127D01*
X166409399Y-110888336D01*
X166695669Y-110602067D01*
X166695671Y-110602064D01*
X166760277Y-110537458D01*
X166789330Y-110556871D01*
X167118765Y-110622400D01*
X167341235Y-110622400D01*
X167670670Y-110556871D01*
X168044252Y-110307252D01*
X168293871Y-109933670D01*
X168381526Y-109493000D01*
X168293871Y-109052330D01*
X168044252Y-108678748D01*
X167670670Y-108429129D01*
X167341235Y-108363600D01*
X167118765Y-108363600D01*
X166789330Y-108429129D01*
X166415748Y-108678748D01*
X166166129Y-109052330D01*
X166078474Y-109493000D01*
X166166129Y-109933670D01*
X166185542Y-109962723D01*
X166120936Y-110027329D01*
X166120933Y-110027331D01*
X165743931Y-110404334D01*
X165710003Y-110427004D01*
X165687332Y-110460933D01*
X165687331Y-110460934D01*
X165620180Y-110561432D01*
X165588639Y-110720001D01*
X165596600Y-110760024D01*
X165596600Y-111356957D01*
X165504252Y-111218748D01*
X165130670Y-110969129D01*
X164801235Y-110903600D01*
X164578765Y-110903600D01*
X164249330Y-110969129D01*
X163875748Y-111218748D01*
X163833400Y-111282126D01*
X163833400Y-110924335D01*
X164220277Y-110537458D01*
X164249330Y-110556871D01*
X164578765Y-110622400D01*
X164801235Y-110622400D01*
X165130670Y-110556871D01*
X165504252Y-110307252D01*
X165753871Y-109933670D01*
X165841526Y-109493000D01*
X165753871Y-109052330D01*
X165504252Y-108678748D01*
X165130670Y-108429129D01*
X164801235Y-108363600D01*
X164578765Y-108363600D01*
X164249330Y-108429129D01*
X163875748Y-108678748D01*
X163626129Y-109052330D01*
X163538474Y-109493000D01*
X163626129Y-109933670D01*
X163645542Y-109962723D01*
X163167933Y-110440332D01*
X163134004Y-110463003D01*
X163111333Y-110496932D01*
X163111332Y-110496933D01*
X163044181Y-110597431D01*
X163012640Y-110756000D01*
X163020601Y-110796023D01*
X163020601Y-111303080D01*
X162964252Y-111218748D01*
X162590670Y-110969129D01*
X162261235Y-110903600D01*
X162038765Y-110903600D01*
X161709330Y-110969129D01*
X161335748Y-111218748D01*
X161293400Y-111282126D01*
X161293400Y-110924335D01*
X161680277Y-110537458D01*
X161709330Y-110556871D01*
X162038765Y-110622400D01*
X162261235Y-110622400D01*
X162590670Y-110556871D01*
X162964252Y-110307252D01*
X163213871Y-109933670D01*
X163301526Y-109493000D01*
X163213871Y-109052330D01*
X162964252Y-108678748D01*
X162590670Y-108429129D01*
X162261235Y-108363600D01*
X162038765Y-108363600D01*
X161709330Y-108429129D01*
X161335748Y-108678748D01*
X161086129Y-109052330D01*
X160998474Y-109493000D01*
X161086129Y-109933670D01*
X161105542Y-109962723D01*
X160627933Y-110440332D01*
X160594004Y-110463003D01*
X160571333Y-110496932D01*
X160571332Y-110496933D01*
X160504181Y-110597431D01*
X160472640Y-110756000D01*
X160480601Y-110796023D01*
X160480601Y-111353464D01*
X160224605Y-111100642D01*
X159834684Y-110939137D01*
X159660800Y-110984205D01*
X159660800Y-111982200D01*
X159680800Y-111982200D01*
X159680800Y-112083800D01*
X159660800Y-112083800D01*
X159660800Y-113081795D01*
X159834684Y-113126863D01*
X160224605Y-112965358D01*
X160480600Y-112712536D01*
X160480600Y-113641664D01*
X157579935Y-116542330D01*
X157546003Y-116565003D01*
X157456180Y-116699432D01*
X157432600Y-116817978D01*
X157432600Y-116817982D01*
X157424640Y-116858000D01*
X157432600Y-116898018D01*
X157432601Y-121389977D01*
X157424640Y-121430000D01*
X157456181Y-121588569D01*
X157519947Y-121684000D01*
X157546004Y-121722997D01*
X157579933Y-121745668D01*
X158829600Y-122995336D01*
X158829600Y-123288584D01*
X158727996Y-123390188D01*
X158604849Y-123267041D01*
X158355141Y-123163608D01*
X158084859Y-123163608D01*
X157835151Y-123267041D01*
X157729084Y-123373108D01*
X154964264Y-123373108D01*
X154917992Y-123363904D01*
X154871720Y-123373108D01*
X154871716Y-123373108D01*
X154734646Y-123400373D01*
X154675143Y-123440132D01*
X154624910Y-123473697D01*
X154579214Y-123504230D01*
X154553002Y-123543459D01*
X147357362Y-130739100D01*
X143724926Y-130739100D01*
X143618859Y-130633033D01*
X143369151Y-130529600D01*
X143098869Y-130529600D01*
X142849161Y-130633033D01*
X142743094Y-130739100D01*
X134326916Y-130739100D01*
X134220849Y-130633033D01*
X133971141Y-130529600D01*
X133700859Y-130529600D01*
X133451151Y-130633033D01*
X133345084Y-130739100D01*
X125182916Y-130739100D01*
X125076849Y-130633033D01*
X124827141Y-130529600D01*
X124556859Y-130529600D01*
X124307151Y-130633033D01*
X124201084Y-130739100D01*
X115911916Y-130739100D01*
X115805849Y-130633033D01*
X115556141Y-130529600D01*
X115285859Y-130529600D01*
X115036151Y-130633033D01*
X114930084Y-130739100D01*
X106640916Y-130739100D01*
X106534849Y-130633033D01*
X106285141Y-130529600D01*
X106014859Y-130529600D01*
X105765151Y-130633033D01*
X105574033Y-130824151D01*
X105470600Y-131073859D01*
X105470600Y-131344141D01*
X105574033Y-131593849D01*
X105765151Y-131784967D01*
X106014859Y-131888400D01*
X106285141Y-131888400D01*
X106534849Y-131784967D01*
X106640916Y-131678900D01*
X114930084Y-131678900D01*
X115036151Y-131784967D01*
X115285859Y-131888400D01*
X115556141Y-131888400D01*
X115805849Y-131784967D01*
X115911916Y-131678900D01*
X124201084Y-131678900D01*
X124307151Y-131784967D01*
X124556859Y-131888400D01*
X124827141Y-131888400D01*
X125076849Y-131784967D01*
X125182916Y-131678900D01*
X133345084Y-131678900D01*
X133451151Y-131784967D01*
X133700859Y-131888400D01*
X133971141Y-131888400D01*
X134220849Y-131784967D01*
X134326916Y-131678900D01*
X142743094Y-131678900D01*
X142849161Y-131784967D01*
X143098869Y-131888400D01*
X143369151Y-131888400D01*
X143618859Y-131784967D01*
X143724926Y-131678900D01*
X147505728Y-131678900D01*
X147552000Y-131688104D01*
X147598272Y-131678900D01*
X147598276Y-131678900D01*
X147735346Y-131651635D01*
X147890778Y-131547778D01*
X147916992Y-131508546D01*
X152190873Y-127234666D01*
X152173750Y-127276004D01*
X152097630Y-127658687D01*
X152097630Y-127658697D01*
X152090341Y-127695341D01*
X152090340Y-131287155D01*
X152036233Y-131559171D01*
X151903314Y-131758099D01*
X151704389Y-131891016D01*
X151432372Y-131945123D01*
X150432377Y-131945123D01*
X150395728Y-131952413D01*
X150395724Y-131952413D01*
X150204381Y-131990473D01*
X150204379Y-131990473D01*
X150091079Y-132037404D01*
X150067618Y-132047122D01*
X150067613Y-132047124D01*
X149905402Y-132155511D01*
X149835620Y-132225294D01*
X149800728Y-132260185D01*
X149692341Y-132422396D01*
X149692341Y-132422397D01*
X149692340Y-132422398D01*
X149682621Y-132445862D01*
X149635690Y-132559162D01*
X149635690Y-132559164D01*
X149597630Y-132750506D01*
X149597630Y-132750516D01*
X149590341Y-132787160D01*
X149590340Y-133850226D01*
X149574293Y-133930900D01*
X149549761Y-133967615D01*
X149513045Y-133992147D01*
X149432373Y-134008194D01*
X144156220Y-134008194D01*
X144075547Y-133992147D01*
X144038832Y-133967615D01*
X144014300Y-133930899D01*
X143998253Y-133850227D01*
X143998253Y-132787160D01*
X143990963Y-132750511D01*
X143990963Y-132750507D01*
X143952903Y-132559164D01*
X143952903Y-132559162D01*
X143905972Y-132445862D01*
X143896253Y-132422398D01*
X143896252Y-132422397D01*
X143896252Y-132422396D01*
X143787865Y-132260185D01*
X143718082Y-132190403D01*
X143683191Y-132155511D01*
X143520980Y-132047124D01*
X143520976Y-132047122D01*
X143497514Y-132037404D01*
X143384214Y-131990473D01*
X143384212Y-131990473D01*
X143192870Y-131952413D01*
X143192865Y-131952413D01*
X143156216Y-131945123D01*
X141007231Y-131945123D01*
X140970582Y-131952413D01*
X140970578Y-131952413D01*
X140779235Y-131990473D01*
X140779233Y-131990473D01*
X140665933Y-132037404D01*
X140642472Y-132047122D01*
X140642467Y-132047124D01*
X140480256Y-132155511D01*
X140410474Y-132225294D01*
X140375582Y-132260185D01*
X140267195Y-132422396D01*
X140267195Y-132422397D01*
X140267194Y-132422398D01*
X140257475Y-132445862D01*
X140210544Y-132559162D01*
X140210544Y-132559164D01*
X140172484Y-132750506D01*
X140172484Y-132750516D01*
X140165195Y-132787160D01*
X140165194Y-133850226D01*
X140149147Y-133930900D01*
X140124615Y-133967615D01*
X140087899Y-133992147D01*
X140007227Y-134008194D01*
X134867065Y-134008194D01*
X134786392Y-133992147D01*
X134749677Y-133967615D01*
X134725145Y-133930899D01*
X134709098Y-133850227D01*
X134709098Y-132787160D01*
X134701808Y-132750511D01*
X134701808Y-132750507D01*
X134663748Y-132559164D01*
X134663748Y-132559162D01*
X134616817Y-132445862D01*
X134607098Y-132422398D01*
X134607097Y-132422397D01*
X134607097Y-132422396D01*
X134498710Y-132260185D01*
X134428927Y-132190403D01*
X134394036Y-132155511D01*
X134231825Y-132047124D01*
X134231821Y-132047122D01*
X134208359Y-132037404D01*
X134095059Y-131990473D01*
X134095057Y-131990473D01*
X133903715Y-131952413D01*
X133903710Y-131952413D01*
X133867061Y-131945123D01*
X131715350Y-131945123D01*
X131678701Y-131952413D01*
X131678697Y-131952413D01*
X131487354Y-131990473D01*
X131487352Y-131990473D01*
X131374052Y-132037404D01*
X131350591Y-132047122D01*
X131350586Y-132047124D01*
X131188375Y-132155511D01*
X131118593Y-132225294D01*
X131083701Y-132260185D01*
X130975314Y-132422396D01*
X130975314Y-132422397D01*
X130975313Y-132422398D01*
X130965594Y-132445862D01*
X130918663Y-132559162D01*
X130918663Y-132559164D01*
X130880603Y-132750506D01*
X130880603Y-132750516D01*
X130873314Y-132787160D01*
X130873313Y-133850226D01*
X130857266Y-133930900D01*
X130832734Y-133967615D01*
X130796018Y-133992147D01*
X130715346Y-134008194D01*
X125784654Y-134008194D01*
X125703981Y-133992147D01*
X125667266Y-133967615D01*
X125642734Y-133930899D01*
X125626687Y-133850227D01*
X125626687Y-132787160D01*
X125619397Y-132750511D01*
X125619397Y-132750507D01*
X125581337Y-132559164D01*
X125581337Y-132559162D01*
X125534406Y-132445862D01*
X125524687Y-132422398D01*
X125524686Y-132422397D01*
X125524686Y-132422396D01*
X125416299Y-132260185D01*
X125346516Y-132190403D01*
X125311625Y-132155511D01*
X125149414Y-132047124D01*
X125149410Y-132047122D01*
X125125948Y-132037404D01*
X125012648Y-131990473D01*
X125012646Y-131990473D01*
X124821304Y-131952413D01*
X124821299Y-131952413D01*
X124784650Y-131945123D01*
X122632938Y-131945123D01*
X122596289Y-131952413D01*
X122596285Y-131952413D01*
X122404942Y-131990473D01*
X122404940Y-131990473D01*
X122291640Y-132037404D01*
X122268179Y-132047122D01*
X122268174Y-132047124D01*
X122105963Y-132155511D01*
X122036181Y-132225294D01*
X122001289Y-132260185D01*
X121892902Y-132422396D01*
X121892902Y-132422397D01*
X121892901Y-132422398D01*
X121883182Y-132445862D01*
X121836251Y-132559162D01*
X121836251Y-132559164D01*
X121798191Y-132750506D01*
X121798191Y-132750516D01*
X121790902Y-132787160D01*
X121790901Y-133850226D01*
X121774854Y-133930900D01*
X121750322Y-133967615D01*
X121713606Y-133992147D01*
X121632934Y-134008194D01*
X116492773Y-134008194D01*
X116412100Y-133992147D01*
X116375385Y-133967615D01*
X116350853Y-133930899D01*
X116334806Y-133850227D01*
X116334806Y-132787160D01*
X116327516Y-132750511D01*
X116327516Y-132750507D01*
X116289456Y-132559164D01*
X116289456Y-132559162D01*
X116242525Y-132445862D01*
X116232806Y-132422398D01*
X116232805Y-132422397D01*
X116232805Y-132422396D01*
X116124418Y-132260185D01*
X116054635Y-132190403D01*
X116019744Y-132155511D01*
X115857533Y-132047124D01*
X115857529Y-132047122D01*
X115834067Y-132037404D01*
X115720767Y-131990473D01*
X115720765Y-131990473D01*
X115529423Y-131952413D01*
X115529418Y-131952413D01*
X115492769Y-131945123D01*
X113343783Y-131945123D01*
X113307134Y-131952413D01*
X113307130Y-131952413D01*
X113115787Y-131990473D01*
X113115785Y-131990473D01*
X113002485Y-132037404D01*
X112979024Y-132047122D01*
X112979019Y-132047124D01*
X112816808Y-132155511D01*
X112747026Y-132225294D01*
X112712134Y-132260185D01*
X112603747Y-132422396D01*
X112603747Y-132422397D01*
X112603746Y-132422398D01*
X112594027Y-132445862D01*
X112547096Y-132559162D01*
X112547096Y-132559164D01*
X112509036Y-132750506D01*
X112509036Y-132750516D01*
X112501747Y-132787160D01*
X112501746Y-133850226D01*
X112485699Y-133930900D01*
X112461167Y-133967615D01*
X112424451Y-133992147D01*
X112343779Y-134008194D01*
X107067627Y-134008194D01*
X106986954Y-133992147D01*
X106950239Y-133967615D01*
X106925707Y-133930899D01*
X106909660Y-133850227D01*
X106909660Y-132787160D01*
X106902370Y-132750511D01*
X106902370Y-132750507D01*
X106864310Y-132559164D01*
X106864310Y-132559162D01*
X106817379Y-132445862D01*
X106807660Y-132422398D01*
X106807659Y-132422397D01*
X106807659Y-132422396D01*
X106699272Y-132260185D01*
X106629489Y-132190403D01*
X106594598Y-132155511D01*
X106432387Y-132047124D01*
X106432383Y-132047122D01*
X106408921Y-132037404D01*
X106295621Y-131990473D01*
X106295619Y-131990473D01*
X106104277Y-131952413D01*
X106104272Y-131952413D01*
X106067623Y-131945123D01*
X105067628Y-131945123D01*
X104795612Y-131891016D01*
X104596684Y-131758097D01*
X104463767Y-131559172D01*
X104409660Y-131287155D01*
X104409660Y-118361891D01*
X104463767Y-118089874D01*
X104596684Y-117890949D01*
X104795612Y-117758030D01*
X105067628Y-117703923D01*
X121132933Y-117703923D01*
X121404950Y-117758030D01*
X121603875Y-117890947D01*
X121736794Y-118089875D01*
X121790902Y-118361895D01*
X121790901Y-119157695D01*
X121798191Y-119194344D01*
X121798191Y-119194350D01*
X121836251Y-119385692D01*
X121836251Y-119385694D01*
X121880136Y-119491640D01*
X121886567Y-119507165D01*
X121892902Y-119522460D01*
X122001289Y-119684671D01*
X122036181Y-119719562D01*
X122105963Y-119789345D01*
X122268174Y-119897732D01*
X122268176Y-119897733D01*
X122288134Y-119906000D01*
X122404940Y-119954383D01*
X122404942Y-119954383D01*
X122596285Y-119992443D01*
X122596289Y-119992443D01*
X122632938Y-119999733D01*
X133867061Y-119999733D01*
X133903710Y-119992443D01*
X133903715Y-119992443D01*
X134095057Y-119954383D01*
X134095059Y-119954383D01*
X134211865Y-119906000D01*
X134231823Y-119897733D01*
X134231825Y-119897732D01*
X134394036Y-119789345D01*
X134444639Y-119738741D01*
X134498710Y-119684671D01*
X134607097Y-119522460D01*
X134613433Y-119507165D01*
X134619863Y-119491640D01*
X134663748Y-119385694D01*
X134663748Y-119385692D01*
X134701808Y-119194349D01*
X134701808Y-119194345D01*
X134709098Y-119157696D01*
X134709098Y-118361891D01*
X134757240Y-118119859D01*
X146364600Y-118119859D01*
X146364600Y-118390141D01*
X146468033Y-118639849D01*
X146637600Y-118809416D01*
X146637601Y-123167973D01*
X146629640Y-123207996D01*
X146661181Y-123366565D01*
X146726298Y-123464018D01*
X146751004Y-123500993D01*
X146784933Y-123523664D01*
X146872604Y-123611335D01*
X146872604Y-123851141D01*
X146976037Y-124100849D01*
X147167155Y-124291967D01*
X147416863Y-124395400D01*
X147687145Y-124395400D01*
X147936853Y-124291967D01*
X148127971Y-124100849D01*
X148231404Y-123851141D01*
X148231404Y-123580859D01*
X148127971Y-123331151D01*
X147936853Y-123140033D01*
X147687145Y-123036600D01*
X147450400Y-123036600D01*
X147450400Y-118809416D01*
X147619967Y-118639849D01*
X147723400Y-118390141D01*
X147723400Y-118119859D01*
X147619967Y-117870151D01*
X147428849Y-117679033D01*
X147179141Y-117575600D01*
X146908859Y-117575600D01*
X146659151Y-117679033D01*
X146468033Y-117870151D01*
X146364600Y-118119859D01*
X134757240Y-118119859D01*
X134763205Y-118089874D01*
X134896122Y-117890949D01*
X135095050Y-117758030D01*
X135367066Y-117703923D01*
X145787363Y-117703923D01*
X145824012Y-117696633D01*
X145824017Y-117696633D01*
X146206700Y-117620513D01*
X146343466Y-117563863D01*
X146667890Y-117347090D01*
X146772567Y-117242413D01*
X146989337Y-116917992D01*
X146989340Y-116917989D01*
X147045990Y-116781223D01*
X147122110Y-116398540D01*
X147122110Y-116398535D01*
X147129400Y-116361886D01*
X147129400Y-112033000D01*
X155918474Y-112033000D01*
X156006129Y-112473670D01*
X156255748Y-112847252D01*
X156629330Y-113096871D01*
X156958765Y-113162400D01*
X157181235Y-113162400D01*
X157510670Y-113096871D01*
X157884252Y-112847252D01*
X158133871Y-112473670D01*
X158176833Y-112257685D01*
X158516132Y-112257685D01*
X158685381Y-112659187D01*
X158995395Y-112965358D01*
X159385316Y-113126863D01*
X159559200Y-113081795D01*
X159559200Y-112083800D01*
X158561126Y-112083800D01*
X158516132Y-112257685D01*
X158176833Y-112257685D01*
X158221526Y-112033000D01*
X158176834Y-111808315D01*
X158516132Y-111808315D01*
X158561126Y-111982200D01*
X159559200Y-111982200D01*
X159559200Y-110984205D01*
X159385316Y-110939137D01*
X158995395Y-111100642D01*
X158685381Y-111406813D01*
X158516132Y-111808315D01*
X158176834Y-111808315D01*
X158133871Y-111592330D01*
X157884252Y-111218748D01*
X157510670Y-110969129D01*
X157181235Y-110903600D01*
X156958765Y-110903600D01*
X156629330Y-110969129D01*
X156255748Y-111218748D01*
X156006129Y-111592330D01*
X155918474Y-112033000D01*
X147129400Y-112033000D01*
X147129400Y-109493000D01*
X155918474Y-109493000D01*
X156006129Y-109933670D01*
X156255748Y-110307252D01*
X156629330Y-110556871D01*
X156958765Y-110622400D01*
X157181235Y-110622400D01*
X157510670Y-110556871D01*
X157884252Y-110307252D01*
X158133871Y-109933670D01*
X158176833Y-109717685D01*
X158516132Y-109717685D01*
X158685381Y-110119187D01*
X158995395Y-110425358D01*
X159385316Y-110586863D01*
X159559200Y-110541795D01*
X159559200Y-109543800D01*
X159660800Y-109543800D01*
X159660800Y-110541795D01*
X159834684Y-110586863D01*
X160224605Y-110425358D01*
X160534619Y-110119187D01*
X160703868Y-109717685D01*
X160658874Y-109543800D01*
X159660800Y-109543800D01*
X159559200Y-109543800D01*
X158561126Y-109543800D01*
X158516132Y-109717685D01*
X158176833Y-109717685D01*
X158221526Y-109493000D01*
X158176834Y-109268315D01*
X158516132Y-109268315D01*
X158561126Y-109442200D01*
X159559200Y-109442200D01*
X159559200Y-108444205D01*
X159660800Y-108444205D01*
X159660800Y-109442200D01*
X160658874Y-109442200D01*
X160703868Y-109268315D01*
X160534619Y-108866813D01*
X160224605Y-108560642D01*
X159834684Y-108399137D01*
X159660800Y-108444205D01*
X159559200Y-108444205D01*
X159385316Y-108399137D01*
X158995395Y-108560642D01*
X158685381Y-108866813D01*
X158516132Y-109268315D01*
X158176834Y-109268315D01*
X158133871Y-109052330D01*
X157884252Y-108678748D01*
X157510670Y-108429129D01*
X157181235Y-108363600D01*
X156958765Y-108363600D01*
X156629330Y-108429129D01*
X156255748Y-108678748D01*
X156006129Y-109052330D01*
X155918474Y-109493000D01*
X147129400Y-109493000D01*
X147129400Y-107287368D01*
X147183507Y-107015351D01*
X147316424Y-106816426D01*
X147515352Y-106683507D01*
X147787368Y-106629400D01*
X154587363Y-106629400D01*
X154624012Y-106622110D01*
X154624017Y-106622110D01*
X155006700Y-106545990D01*
X155143466Y-106489340D01*
X155467890Y-106272567D01*
X155572567Y-106167890D01*
X155789337Y-105843469D01*
X155789340Y-105843466D01*
X155845990Y-105706700D01*
X155922110Y-105324017D01*
X155922110Y-105324012D01*
X155929400Y-105287363D01*
X155929400Y-99765187D01*
X168370601Y-99765187D01*
X168370600Y-105287362D01*
X168370600Y-105287362D01*
G37*
X168370600Y-105287362D02*
X168377890Y-105324011D01*
X168377890Y-105324017D01*
X168454010Y-105706700D01*
X168510660Y-105843466D01*
X168727433Y-106167890D01*
X168832110Y-106272567D01*
X169156531Y-106489337D01*
X169156534Y-106489340D01*
X169253242Y-106529397D01*
X169293299Y-106545990D01*
X169293300Y-106545990D01*
X169675983Y-106622110D01*
X169675988Y-106622110D01*
X169712637Y-106629400D01*
X177712632Y-106629400D01*
X177984649Y-106683507D01*
X178183574Y-106816424D01*
X178316493Y-107015352D01*
X178370601Y-107287373D01*
X178370600Y-117676903D01*
X178373638Y-117692174D01*
X178398423Y-117995324D01*
X178407320Y-118034410D01*
X178413350Y-118074055D01*
X178414717Y-118078484D01*
X178585218Y-118619304D01*
X178607501Y-118665711D01*
X178629225Y-118712409D01*
X178631778Y-118716273D01*
X178631780Y-118716277D01*
X178631783Y-118716280D01*
X178947218Y-119187505D01*
X179232430Y-119613580D01*
X179373776Y-120061919D01*
X179395601Y-120328866D01*
X179395600Y-128350226D01*
X179391700Y-128369833D01*
X179391700Y-128050800D01*
X178750800Y-128050800D01*
X178750800Y-128070800D01*
X178649200Y-128070800D01*
X178649200Y-128050800D01*
X178008300Y-128050800D01*
X178008300Y-128650800D01*
X178080393Y-128911635D01*
X178155698Y-129008194D01*
X170344302Y-129008194D01*
X170419607Y-128911635D01*
X170491700Y-128650800D01*
X170491700Y-128050800D01*
X169850800Y-128050800D01*
X169850800Y-128070800D01*
X169749200Y-128070800D01*
X169749200Y-128050800D01*
X169108300Y-128050800D01*
X169108300Y-128369833D01*
X169104400Y-128350226D01*
X169104400Y-127695341D01*
X169097110Y-127658692D01*
X169097110Y-127658687D01*
X169035550Y-127349200D01*
X169108300Y-127349200D01*
X169108300Y-127949200D01*
X169749200Y-127949200D01*
X169749200Y-126777043D01*
X169850800Y-126777043D01*
X169850800Y-127949200D01*
X170491700Y-127949200D01*
X170491700Y-127349200D01*
X170419607Y-127088365D01*
X170253185Y-126874973D01*
X170017769Y-126741512D01*
X169958088Y-126726608D01*
X169850800Y-126777043D01*
X169749200Y-126777043D01*
X169641912Y-126726608D01*
X169582231Y-126741512D01*
X169346815Y-126874973D01*
X169180393Y-127088365D01*
X169108300Y-127349200D01*
X169035550Y-127349200D01*
X169020990Y-127276004D01*
X168964340Y-127139238D01*
X168964337Y-127139235D01*
X168747567Y-126814814D01*
X168642890Y-126710137D01*
X168318466Y-126493364D01*
X168181700Y-126436714D01*
X167799017Y-126360594D01*
X167799012Y-126360594D01*
X167762363Y-126353304D01*
X160714862Y-126353304D01*
X160804400Y-126137141D01*
X160804400Y-125866859D01*
X160700967Y-125617151D01*
X160531400Y-125447584D01*
X160531400Y-124850800D01*
X169108300Y-124850800D01*
X169108300Y-125350800D01*
X169180393Y-125611635D01*
X169346815Y-125825027D01*
X169582231Y-125958488D01*
X169641912Y-125973392D01*
X169749200Y-125922957D01*
X169749200Y-124850800D01*
X169850800Y-124850800D01*
X169850800Y-125922957D01*
X169958088Y-125973392D01*
X170017769Y-125958488D01*
X170253185Y-125825027D01*
X170419607Y-125611635D01*
X170491700Y-125350800D01*
X170491700Y-124850800D01*
X169850800Y-124850800D01*
X169749200Y-124850800D01*
X169108300Y-124850800D01*
X160531400Y-124850800D01*
X160531400Y-123554135D01*
X160715600Y-123738336D01*
X160715600Y-123978141D01*
X160819033Y-124227849D01*
X161010151Y-124418967D01*
X161259859Y-124522400D01*
X161530141Y-124522400D01*
X161779849Y-124418967D01*
X161949616Y-124249200D01*
X169108300Y-124249200D01*
X169108300Y-124749200D01*
X169749200Y-124749200D01*
X169749200Y-123677043D01*
X169850800Y-123677043D01*
X169850800Y-124749200D01*
X170491700Y-124749200D01*
X170491700Y-124249200D01*
X170419607Y-123988365D01*
X170253185Y-123774973D01*
X170017769Y-123641512D01*
X169958088Y-123626608D01*
X169850800Y-123677043D01*
X169749200Y-123677043D01*
X169641912Y-123626608D01*
X169582231Y-123641512D01*
X169346815Y-123774973D01*
X169180393Y-123988365D01*
X169108300Y-124249200D01*
X161949616Y-124249200D01*
X161970967Y-124227849D01*
X162074400Y-123978141D01*
X162074400Y-123707859D01*
X161970967Y-123458151D01*
X161779849Y-123267033D01*
X161617678Y-123199859D01*
X167827600Y-123199859D01*
X167827600Y-123470141D01*
X167931033Y-123719849D01*
X168122151Y-123910967D01*
X168371859Y-124014400D01*
X168642141Y-124014400D01*
X168891849Y-123910967D01*
X169082967Y-123719849D01*
X169186400Y-123470141D01*
X169186400Y-123199859D01*
X169174285Y-123170610D01*
X169612606Y-122732289D01*
X169641859Y-122744406D01*
X169912141Y-122744406D01*
X170161849Y-122640973D01*
X170352967Y-122449855D01*
X170456400Y-122200147D01*
X170456400Y-121929865D01*
X170352967Y-121680157D01*
X170161849Y-121489039D01*
X169912141Y-121385606D01*
X169641859Y-121385606D01*
X169392151Y-121489039D01*
X169201033Y-121680157D01*
X169097600Y-121929865D01*
X169097600Y-122200147D01*
X169109714Y-122229392D01*
X168671390Y-122667715D01*
X168642141Y-122655600D01*
X168371859Y-122655600D01*
X168122151Y-122759033D01*
X167931033Y-122950151D01*
X167827600Y-123199859D01*
X161617678Y-123199859D01*
X161530141Y-123163600D01*
X161290336Y-123163600D01*
X161166400Y-123039665D01*
X161166400Y-121216017D01*
X161174360Y-121175999D01*
X161166400Y-121135981D01*
X161166400Y-121135977D01*
X161142820Y-121017431D01*
X161052997Y-120883003D01*
X161019068Y-120860332D01*
X159896400Y-119737665D01*
X159896400Y-119439335D01*
X160401336Y-118934400D01*
X160641141Y-118934400D01*
X160890849Y-118830967D01*
X161081967Y-118639849D01*
X161185400Y-118390141D01*
X161185400Y-118119859D01*
X161081967Y-117870151D01*
X160890849Y-117679033D01*
X160641141Y-117575600D01*
X160370859Y-117575600D01*
X160121151Y-117679033D01*
X159930033Y-117870151D01*
X159826600Y-118119859D01*
X159826600Y-118359664D01*
X159261400Y-118924865D01*
X159261400Y-117534335D01*
X163686069Y-113109667D01*
X163719997Y-113086997D01*
X163809820Y-112952569D01*
X163833400Y-112834023D01*
X163833400Y-112834019D01*
X163841086Y-112795377D01*
X163875748Y-112847252D01*
X164249330Y-113096871D01*
X164578765Y-113162400D01*
X164801235Y-113162400D01*
X165130670Y-113096871D01*
X165504252Y-112847252D01*
X165596599Y-112709044D01*
X165596599Y-114567981D01*
X165588639Y-114607999D01*
X165596599Y-114648017D01*
X165596599Y-114648021D01*
X165620179Y-114766567D01*
X165710002Y-114900996D01*
X165743934Y-114923669D01*
X173053601Y-122233337D01*
X173053601Y-122272583D01*
X172884033Y-122442151D01*
X172780600Y-122691859D01*
X172780600Y-122962141D01*
X172884033Y-123211849D01*
X173075151Y-123402967D01*
X173324859Y-123506400D01*
X173564665Y-123506400D01*
X173942601Y-123884337D01*
X173942600Y-124810702D01*
X172550932Y-126202371D01*
X172517003Y-126225042D01*
X172494332Y-126258971D01*
X172494331Y-126258972D01*
X172427180Y-126359470D01*
X172395639Y-126518039D01*
X172403600Y-126558062D01*
X172403599Y-127343981D01*
X172395639Y-127383999D01*
X172403599Y-127424017D01*
X172403599Y-127424021D01*
X172427179Y-127542567D01*
X172517002Y-127676996D01*
X172550933Y-127699668D01*
X172778335Y-127927071D01*
X172801004Y-127960998D01*
X172834930Y-127983667D01*
X172834932Y-127983669D01*
X172882547Y-128015484D01*
X172935432Y-128050821D01*
X173053978Y-128074401D01*
X173053986Y-128074401D01*
X173094000Y-128082360D01*
X173134015Y-128074401D01*
X174039981Y-128074401D01*
X174079999Y-128082361D01*
X174120017Y-128074401D01*
X174120022Y-128074401D01*
X174238568Y-128050821D01*
X174372996Y-127960998D01*
X174395669Y-127927066D01*
X174752335Y-127570400D01*
X174992141Y-127570400D01*
X175241849Y-127466967D01*
X175359616Y-127349200D01*
X178008300Y-127349200D01*
X178008300Y-127949200D01*
X178649200Y-127949200D01*
X178649200Y-126777043D01*
X178750800Y-126777043D01*
X178750800Y-127949200D01*
X179391700Y-127949200D01*
X179391700Y-127349200D01*
X179319607Y-127088365D01*
X179153185Y-126874973D01*
X178917769Y-126741512D01*
X178858088Y-126726608D01*
X178750800Y-126777043D01*
X178649200Y-126777043D01*
X178541912Y-126726608D01*
X178482231Y-126741512D01*
X178246815Y-126874973D01*
X178080393Y-127088365D01*
X178008300Y-127349200D01*
X175359616Y-127349200D01*
X175432967Y-127275849D01*
X175536400Y-127026141D01*
X175536400Y-126755859D01*
X175432967Y-126506151D01*
X175241849Y-126315033D01*
X174992141Y-126211600D01*
X174841136Y-126211600D01*
X175243069Y-125809667D01*
X175276997Y-125786997D01*
X175366820Y-125652569D01*
X175390400Y-125534023D01*
X175390400Y-125534019D01*
X175398360Y-125494001D01*
X175390400Y-125453983D01*
X175390400Y-124850800D01*
X178008300Y-124850800D01*
X178008300Y-125350800D01*
X178080393Y-125611635D01*
X178246815Y-125825027D01*
X178482231Y-125958488D01*
X178541912Y-125973392D01*
X178649200Y-125922957D01*
X178649200Y-124850800D01*
X178750800Y-124850800D01*
X178750800Y-125922957D01*
X178858088Y-125973392D01*
X178917769Y-125958488D01*
X179153185Y-125825027D01*
X179319607Y-125611635D01*
X179391700Y-125350800D01*
X179391700Y-124850800D01*
X178750800Y-124850800D01*
X178649200Y-124850800D01*
X178008300Y-124850800D01*
X175390400Y-124850800D01*
X175390400Y-124630400D01*
X176623758Y-124630400D01*
X176646584Y-124632325D01*
X176663667Y-124630400D01*
X176670488Y-124630400D01*
X176674132Y-124631340D01*
X176680790Y-124630400D01*
X176680871Y-124630400D01*
X176681068Y-124630361D01*
X176748507Y-124620840D01*
X176782647Y-124616993D01*
X176788125Y-124615247D01*
X176793812Y-124614444D01*
X176814554Y-124607186D01*
X176820462Y-124607352D01*
X176858762Y-124592732D01*
X176897807Y-124580287D01*
X176902319Y-124576477D01*
X176923053Y-124569222D01*
X176928005Y-124566301D01*
X176933383Y-124564248D01*
X176951990Y-124552556D01*
X176957783Y-124551404D01*
X176991854Y-124528638D01*
X177027159Y-124507813D01*
X177030713Y-124503091D01*
X177049320Y-124491399D01*
X177053498Y-124487449D01*
X177058281Y-124484253D01*
X177073819Y-124468715D01*
X177079211Y-124466302D01*
X177107368Y-124436520D01*
X177137150Y-124408363D01*
X177139563Y-124402971D01*
X177155101Y-124387433D01*
X177158297Y-124382650D01*
X177162247Y-124378472D01*
X177173939Y-124359865D01*
X177178661Y-124356311D01*
X177199486Y-124321006D01*
X177222252Y-124286935D01*
X177223404Y-124281142D01*
X177235096Y-124262535D01*
X177237149Y-124257157D01*
X177240070Y-124252205D01*
X177241121Y-124249200D01*
X178008300Y-124249200D01*
X178008300Y-124749200D01*
X178649200Y-124749200D01*
X178649200Y-123677043D01*
X178750800Y-123677043D01*
X178750800Y-124749200D01*
X179391700Y-124749200D01*
X179391700Y-124249200D01*
X179319607Y-123988365D01*
X179153185Y-123774973D01*
X178917769Y-123641512D01*
X178858088Y-123626608D01*
X178750800Y-123677043D01*
X178649200Y-123677043D01*
X178541912Y-123626608D01*
X178482231Y-123641512D01*
X178246815Y-123774973D01*
X178080393Y-123988365D01*
X178008300Y-124249200D01*
X177241121Y-124249200D01*
X177247326Y-124231469D01*
X177251135Y-124226958D01*
X177263578Y-124187919D01*
X177278200Y-124149614D01*
X177278034Y-124143706D01*
X177285292Y-124122964D01*
X177286095Y-124117276D01*
X177287841Y-124111798D01*
X177290302Y-124089959D01*
X177293016Y-124084705D01*
X177296462Y-124043842D01*
X177302188Y-124003283D01*
X177300713Y-123997566D01*
X177303173Y-123975736D01*
X177302689Y-123970000D01*
X177303173Y-123964264D01*
X177300713Y-123942434D01*
X177302188Y-123936716D01*
X177296462Y-123896154D01*
X177293016Y-123855296D01*
X177290302Y-123850043D01*
X177287841Y-123828202D01*
X177286095Y-123822725D01*
X177285292Y-123817035D01*
X177278034Y-123796293D01*
X177278200Y-123790385D01*
X177263577Y-123752078D01*
X177251135Y-123713041D01*
X177247326Y-123708530D01*
X177240070Y-123687794D01*
X177237149Y-123682842D01*
X177235096Y-123677464D01*
X177223404Y-123658857D01*
X177222252Y-123653064D01*
X177199486Y-123618993D01*
X177178661Y-123583688D01*
X177173939Y-123580134D01*
X177162247Y-123561527D01*
X177158297Y-123557349D01*
X177155101Y-123552566D01*
X177139563Y-123537028D01*
X177137150Y-123531636D01*
X177107368Y-123503479D01*
X177079211Y-123473697D01*
X177073819Y-123471284D01*
X177058281Y-123455746D01*
X177053498Y-123452550D01*
X177049320Y-123448600D01*
X177030713Y-123436908D01*
X177027159Y-123432186D01*
X176991854Y-123411361D01*
X176957783Y-123388595D01*
X176951990Y-123387443D01*
X176933383Y-123375751D01*
X176928005Y-123373698D01*
X176923053Y-123370777D01*
X176902313Y-123363520D01*
X176897800Y-123359709D01*
X176858761Y-123347266D01*
X176820462Y-123332647D01*
X176814554Y-123332813D01*
X176793812Y-123325555D01*
X176788119Y-123324751D01*
X176782640Y-123323005D01*
X176748517Y-123319160D01*
X176681051Y-123309636D01*
X176680871Y-123309600D01*
X176680797Y-123309600D01*
X176674132Y-123308659D01*
X176670484Y-123309600D01*
X176663663Y-123309600D01*
X176646577Y-123307675D01*
X176623755Y-123309600D01*
X175462216Y-123309600D01*
X175559967Y-123211849D01*
X175663400Y-122962141D01*
X175663400Y-122691859D01*
X175559967Y-122442151D01*
X175368849Y-122251033D01*
X175119141Y-122147600D01*
X174879336Y-122147600D01*
X170019098Y-117287362D01*
X171220600Y-117287362D01*
X171227890Y-117324011D01*
X171227890Y-117324017D01*
X171296398Y-117668431D01*
X171296398Y-117668433D01*
X171316144Y-117716103D01*
X171353048Y-117805198D01*
X171353049Y-117805199D01*
X171548143Y-118097178D01*
X171652820Y-118201855D01*
X171944801Y-118396951D01*
X171944802Y-118396952D01*
X171984922Y-118413570D01*
X172081567Y-118453602D01*
X172081568Y-118453602D01*
X172425983Y-118522110D01*
X172425988Y-118522110D01*
X172462637Y-118529400D01*
X176037363Y-118529400D01*
X176074012Y-118522110D01*
X176074017Y-118522110D01*
X176418431Y-118453602D01*
X176418433Y-118453602D01*
X176515078Y-118413570D01*
X176555198Y-118396952D01*
X176555199Y-118396951D01*
X176847180Y-118201855D01*
X176951857Y-118097178D01*
X177146951Y-117805199D01*
X177146952Y-117805198D01*
X177191921Y-117696633D01*
X177203602Y-117668433D01*
X177203602Y-117668431D01*
X177272110Y-117324017D01*
X177272110Y-117324012D01*
X177279400Y-117287363D01*
X177279400Y-109962637D01*
X177272110Y-109925988D01*
X177272110Y-109925983D01*
X177203602Y-109581568D01*
X177146952Y-109444802D01*
X177146951Y-109444801D01*
X176951855Y-109152820D01*
X176847178Y-109048143D01*
X176555199Y-108853049D01*
X176555198Y-108853048D01*
X176498548Y-108829583D01*
X176418433Y-108796398D01*
X176418431Y-108796398D01*
X176074017Y-108727890D01*
X176074012Y-108727890D01*
X176037363Y-108720600D01*
X172462637Y-108720600D01*
X172425988Y-108727890D01*
X172425983Y-108727890D01*
X172081568Y-108796398D01*
X172081567Y-108796398D01*
X172024917Y-108819863D01*
X171944802Y-108853048D01*
X171944801Y-108853049D01*
X171652822Y-109048143D01*
X171548145Y-109152820D01*
X171353049Y-109444801D01*
X171353048Y-109444802D01*
X171347836Y-109457386D01*
X171296398Y-109581567D01*
X171296398Y-109581569D01*
X171227890Y-109925983D01*
X171227890Y-109925993D01*
X171220601Y-109962637D01*
X171220600Y-117287362D01*
X170019098Y-117287362D01*
X167636400Y-114904665D01*
X167636400Y-114216400D01*
X168641539Y-114216400D01*
X168664365Y-114218325D01*
X168681448Y-114216400D01*
X168688269Y-114216400D01*
X168691913Y-114217340D01*
X168698571Y-114216400D01*
X168698652Y-114216400D01*
X168698849Y-114216361D01*
X168766288Y-114206840D01*
X168800428Y-114202993D01*
X168805906Y-114201247D01*
X168811593Y-114200444D01*
X168832335Y-114193186D01*
X168838243Y-114193352D01*
X168876543Y-114178732D01*
X168915588Y-114166287D01*
X168920100Y-114162477D01*
X168940834Y-114155222D01*
X168945786Y-114152301D01*
X168951164Y-114150248D01*
X168969771Y-114138556D01*
X168975564Y-114137404D01*
X169009635Y-114114638D01*
X169044940Y-114093813D01*
X169048494Y-114089091D01*
X169067101Y-114077399D01*
X169071279Y-114073449D01*
X169076062Y-114070253D01*
X169091600Y-114054715D01*
X169096992Y-114052302D01*
X169125149Y-114022520D01*
X169154931Y-113994363D01*
X169157344Y-113988971D01*
X169172882Y-113973433D01*
X169176078Y-113968650D01*
X169180028Y-113964472D01*
X169191720Y-113945865D01*
X169196442Y-113942311D01*
X169217267Y-113907006D01*
X169240033Y-113872935D01*
X169241185Y-113867142D01*
X169252877Y-113848535D01*
X169254930Y-113843157D01*
X169257851Y-113838205D01*
X169265107Y-113817469D01*
X169268916Y-113812958D01*
X169281359Y-113773919D01*
X169295981Y-113735614D01*
X169295815Y-113729706D01*
X169303073Y-113708964D01*
X169303876Y-113703276D01*
X169305622Y-113697798D01*
X169308083Y-113675959D01*
X169310797Y-113670705D01*
X169314243Y-113629842D01*
X169319969Y-113589283D01*
X169318494Y-113583566D01*
X169320954Y-113561736D01*
X169320470Y-113556000D01*
X169320954Y-113550264D01*
X169318494Y-113528434D01*
X169319969Y-113522716D01*
X169314243Y-113482154D01*
X169310797Y-113441296D01*
X169308083Y-113436043D01*
X169305622Y-113414202D01*
X169303876Y-113408725D01*
X169303073Y-113403035D01*
X169295815Y-113382293D01*
X169295981Y-113376385D01*
X169281358Y-113338078D01*
X169268916Y-113299041D01*
X169265107Y-113294530D01*
X169257851Y-113273794D01*
X169254930Y-113268842D01*
X169252877Y-113263464D01*
X169241185Y-113244857D01*
X169240033Y-113239064D01*
X169217267Y-113204993D01*
X169196442Y-113169688D01*
X169191720Y-113166134D01*
X169180028Y-113147527D01*
X169176078Y-113143349D01*
X169172882Y-113138566D01*
X169157344Y-113123028D01*
X169154931Y-113117636D01*
X169125149Y-113089479D01*
X169096992Y-113059697D01*
X169091600Y-113057284D01*
X169076062Y-113041746D01*
X169071279Y-113038550D01*
X169067101Y-113034600D01*
X169048494Y-113022908D01*
X169044940Y-113018186D01*
X169009635Y-112997361D01*
X168975564Y-112974595D01*
X168969771Y-112973443D01*
X168951164Y-112961751D01*
X168945786Y-112959698D01*
X168940834Y-112956777D01*
X168920094Y-112949520D01*
X168915581Y-112945709D01*
X168876542Y-112933266D01*
X168838243Y-112918647D01*
X168832335Y-112918813D01*
X168811593Y-112911555D01*
X168805900Y-112910751D01*
X168800421Y-112909005D01*
X168766298Y-112905160D01*
X168698832Y-112895636D01*
X168698652Y-112895600D01*
X168698578Y-112895600D01*
X168691913Y-112894659D01*
X168688265Y-112895600D01*
X168681444Y-112895600D01*
X168664358Y-112893675D01*
X168641536Y-112895600D01*
X168362367Y-112895600D01*
X168364873Y-112883000D01*
X168364873Y-111183000D01*
X168343188Y-111073984D01*
X168281436Y-110981564D01*
X168189016Y-110919812D01*
X168080000Y-110898127D01*
X166409399Y-110898127D01*
X166409399Y-110888336D01*
X166695669Y-110602067D01*
X166695671Y-110602064D01*
X166760277Y-110537458D01*
X166789330Y-110556871D01*
X167118765Y-110622400D01*
X167341235Y-110622400D01*
X167670670Y-110556871D01*
X168044252Y-110307252D01*
X168293871Y-109933670D01*
X168381526Y-109493000D01*
X168293871Y-109052330D01*
X168044252Y-108678748D01*
X167670670Y-108429129D01*
X167341235Y-108363600D01*
X167118765Y-108363600D01*
X166789330Y-108429129D01*
X166415748Y-108678748D01*
X166166129Y-109052330D01*
X166078474Y-109493000D01*
X166166129Y-109933670D01*
X166185542Y-109962723D01*
X166120936Y-110027329D01*
X166120933Y-110027331D01*
X165743931Y-110404334D01*
X165710003Y-110427004D01*
X165687332Y-110460933D01*
X165687331Y-110460934D01*
X165620180Y-110561432D01*
X165588639Y-110720001D01*
X165596600Y-110760024D01*
X165596600Y-111356957D01*
X165504252Y-111218748D01*
X165130670Y-110969129D01*
X164801235Y-110903600D01*
X164578765Y-110903600D01*
X164249330Y-110969129D01*
X163875748Y-111218748D01*
X163833400Y-111282126D01*
X163833400Y-110924335D01*
X164220277Y-110537458D01*
X164249330Y-110556871D01*
X164578765Y-110622400D01*
X164801235Y-110622400D01*
X165130670Y-110556871D01*
X165504252Y-110307252D01*
X165753871Y-109933670D01*
X165841526Y-109493000D01*
X165753871Y-109052330D01*
X165504252Y-108678748D01*
X165130670Y-108429129D01*
X164801235Y-108363600D01*
X164578765Y-108363600D01*
X164249330Y-108429129D01*
X163875748Y-108678748D01*
X163626129Y-109052330D01*
X163538474Y-109493000D01*
X163626129Y-109933670D01*
X163645542Y-109962723D01*
X163167933Y-110440332D01*
X163134004Y-110463003D01*
X163111333Y-110496932D01*
X163111332Y-110496933D01*
X163044181Y-110597431D01*
X163012640Y-110756000D01*
X163020601Y-110796023D01*
X163020601Y-111303080D01*
X162964252Y-111218748D01*
X162590670Y-110969129D01*
X162261235Y-110903600D01*
X162038765Y-110903600D01*
X161709330Y-110969129D01*
X161335748Y-111218748D01*
X161293400Y-111282126D01*
X161293400Y-110924335D01*
X161680277Y-110537458D01*
X161709330Y-110556871D01*
X162038765Y-110622400D01*
X162261235Y-110622400D01*
X162590670Y-110556871D01*
X162964252Y-110307252D01*
X163213871Y-109933670D01*
X163301526Y-109493000D01*
X163213871Y-109052330D01*
X162964252Y-108678748D01*
X162590670Y-108429129D01*
X162261235Y-108363600D01*
X162038765Y-108363600D01*
X161709330Y-108429129D01*
X161335748Y-108678748D01*
X161086129Y-109052330D01*
X160998474Y-109493000D01*
X161086129Y-109933670D01*
X161105542Y-109962723D01*
X160627933Y-110440332D01*
X160594004Y-110463003D01*
X160571333Y-110496932D01*
X160571332Y-110496933D01*
X160504181Y-110597431D01*
X160472640Y-110756000D01*
X160480601Y-110796023D01*
X160480601Y-111353464D01*
X160224605Y-111100642D01*
X159834684Y-110939137D01*
X159660800Y-110984205D01*
X159660800Y-111982200D01*
X159680800Y-111982200D01*
X159680800Y-112083800D01*
X159660800Y-112083800D01*
X159660800Y-113081795D01*
X159834684Y-113126863D01*
X160224605Y-112965358D01*
X160480600Y-112712536D01*
X160480600Y-113641664D01*
X157579935Y-116542330D01*
X157546003Y-116565003D01*
X157456180Y-116699432D01*
X157432600Y-116817978D01*
X157432600Y-116817982D01*
X157424640Y-116858000D01*
X157432600Y-116898018D01*
X157432601Y-121389977D01*
X157424640Y-121430000D01*
X157456181Y-121588569D01*
X157519947Y-121684000D01*
X157546004Y-121722997D01*
X157579933Y-121745668D01*
X158829600Y-122995336D01*
X158829600Y-123288584D01*
X158727996Y-123390188D01*
X158604849Y-123267041D01*
X158355141Y-123163608D01*
X158084859Y-123163608D01*
X157835151Y-123267041D01*
X157729084Y-123373108D01*
X154964264Y-123373108D01*
X154917992Y-123363904D01*
X154871720Y-123373108D01*
X154871716Y-123373108D01*
X154734646Y-123400373D01*
X154675143Y-123440132D01*
X154624910Y-123473697D01*
X154579214Y-123504230D01*
X154553002Y-123543459D01*
X147357362Y-130739100D01*
X143724926Y-130739100D01*
X143618859Y-130633033D01*
X143369151Y-130529600D01*
X143098869Y-130529600D01*
X142849161Y-130633033D01*
X142743094Y-130739100D01*
X134326916Y-130739100D01*
X134220849Y-130633033D01*
X133971141Y-130529600D01*
X133700859Y-130529600D01*
X133451151Y-130633033D01*
X133345084Y-130739100D01*
X125182916Y-130739100D01*
X125076849Y-130633033D01*
X124827141Y-130529600D01*
X124556859Y-130529600D01*
X124307151Y-130633033D01*
X124201084Y-130739100D01*
X115911916Y-130739100D01*
X115805849Y-130633033D01*
X115556141Y-130529600D01*
X115285859Y-130529600D01*
X115036151Y-130633033D01*
X114930084Y-130739100D01*
X106640916Y-130739100D01*
X106534849Y-130633033D01*
X106285141Y-130529600D01*
X106014859Y-130529600D01*
X105765151Y-130633033D01*
X105574033Y-130824151D01*
X105470600Y-131073859D01*
X105470600Y-131344141D01*
X105574033Y-131593849D01*
X105765151Y-131784967D01*
X106014859Y-131888400D01*
X106285141Y-131888400D01*
X106534849Y-131784967D01*
X106640916Y-131678900D01*
X114930084Y-131678900D01*
X115036151Y-131784967D01*
X115285859Y-131888400D01*
X115556141Y-131888400D01*
X115805849Y-131784967D01*
X115911916Y-131678900D01*
X124201084Y-131678900D01*
X124307151Y-131784967D01*
X124556859Y-131888400D01*
X124827141Y-131888400D01*
X125076849Y-131784967D01*
X125182916Y-131678900D01*
X133345084Y-131678900D01*
X133451151Y-131784967D01*
X133700859Y-131888400D01*
X133971141Y-131888400D01*
X134220849Y-131784967D01*
X134326916Y-131678900D01*
X142743094Y-131678900D01*
X142849161Y-131784967D01*
X143098869Y-131888400D01*
X143369151Y-131888400D01*
X143618859Y-131784967D01*
X143724926Y-131678900D01*
X147505728Y-131678900D01*
X147552000Y-131688104D01*
X147598272Y-131678900D01*
X147598276Y-131678900D01*
X147735346Y-131651635D01*
X147890778Y-131547778D01*
X147916992Y-131508546D01*
X152190873Y-127234666D01*
X152173750Y-127276004D01*
X152097630Y-127658687D01*
X152097630Y-127658697D01*
X152090341Y-127695341D01*
X152090340Y-131287155D01*
X152036233Y-131559171D01*
X151903314Y-131758099D01*
X151704389Y-131891016D01*
X151432372Y-131945123D01*
X150432377Y-131945123D01*
X150395728Y-131952413D01*
X150395724Y-131952413D01*
X150204381Y-131990473D01*
X150204379Y-131990473D01*
X150091079Y-132037404D01*
X150067618Y-132047122D01*
X150067613Y-132047124D01*
X149905402Y-132155511D01*
X149835620Y-132225294D01*
X149800728Y-132260185D01*
X149692341Y-132422396D01*
X149692341Y-132422397D01*
X149692340Y-132422398D01*
X149682621Y-132445862D01*
X149635690Y-132559162D01*
X149635690Y-132559164D01*
X149597630Y-132750506D01*
X149597630Y-132750516D01*
X149590341Y-132787160D01*
X149590340Y-133850226D01*
X149574293Y-133930900D01*
X149549761Y-133967615D01*
X149513045Y-133992147D01*
X149432373Y-134008194D01*
X144156220Y-134008194D01*
X144075547Y-133992147D01*
X144038832Y-133967615D01*
X144014300Y-133930899D01*
X143998253Y-133850227D01*
X143998253Y-132787160D01*
X143990963Y-132750511D01*
X143990963Y-132750507D01*
X143952903Y-132559164D01*
X143952903Y-132559162D01*
X143905972Y-132445862D01*
X143896253Y-132422398D01*
X143896252Y-132422397D01*
X143896252Y-132422396D01*
X143787865Y-132260185D01*
X143718082Y-132190403D01*
X143683191Y-132155511D01*
X143520980Y-132047124D01*
X143520976Y-132047122D01*
X143497514Y-132037404D01*
X143384214Y-131990473D01*
X143384212Y-131990473D01*
X143192870Y-131952413D01*
X143192865Y-131952413D01*
X143156216Y-131945123D01*
X141007231Y-131945123D01*
X140970582Y-131952413D01*
X140970578Y-131952413D01*
X140779235Y-131990473D01*
X140779233Y-131990473D01*
X140665933Y-132037404D01*
X140642472Y-132047122D01*
X140642467Y-132047124D01*
X140480256Y-132155511D01*
X140410474Y-132225294D01*
X140375582Y-132260185D01*
X140267195Y-132422396D01*
X140267195Y-132422397D01*
X140267194Y-132422398D01*
X140257475Y-132445862D01*
X140210544Y-132559162D01*
X140210544Y-132559164D01*
X140172484Y-132750506D01*
X140172484Y-132750516D01*
X140165195Y-132787160D01*
X140165194Y-133850226D01*
X140149147Y-133930900D01*
X140124615Y-133967615D01*
X140087899Y-133992147D01*
X140007227Y-134008194D01*
X134867065Y-134008194D01*
X134786392Y-133992147D01*
X134749677Y-133967615D01*
X134725145Y-133930899D01*
X134709098Y-133850227D01*
X134709098Y-132787160D01*
X134701808Y-132750511D01*
X134701808Y-132750507D01*
X134663748Y-132559164D01*
X134663748Y-132559162D01*
X134616817Y-132445862D01*
X134607098Y-132422398D01*
X134607097Y-132422397D01*
X134607097Y-132422396D01*
X134498710Y-132260185D01*
X134428927Y-132190403D01*
X134394036Y-132155511D01*
X134231825Y-132047124D01*
X134231821Y-132047122D01*
X134208359Y-132037404D01*
X134095059Y-131990473D01*
X134095057Y-131990473D01*
X133903715Y-131952413D01*
X133903710Y-131952413D01*
X133867061Y-131945123D01*
X131715350Y-131945123D01*
X131678701Y-131952413D01*
X131678697Y-131952413D01*
X131487354Y-131990473D01*
X131487352Y-131990473D01*
X131374052Y-132037404D01*
X131350591Y-132047122D01*
X131350586Y-132047124D01*
X131188375Y-132155511D01*
X131118593Y-132225294D01*
X131083701Y-132260185D01*
X130975314Y-132422396D01*
X130975314Y-132422397D01*
X130975313Y-132422398D01*
X130965594Y-132445862D01*
X130918663Y-132559162D01*
X130918663Y-132559164D01*
X130880603Y-132750506D01*
X130880603Y-132750516D01*
X130873314Y-132787160D01*
X130873313Y-133850226D01*
X130857266Y-133930900D01*
X130832734Y-133967615D01*
X130796018Y-133992147D01*
X130715346Y-134008194D01*
X125784654Y-134008194D01*
X125703981Y-133992147D01*
X125667266Y-133967615D01*
X125642734Y-133930899D01*
X125626687Y-133850227D01*
X125626687Y-132787160D01*
X125619397Y-132750511D01*
X125619397Y-132750507D01*
X125581337Y-132559164D01*
X125581337Y-132559162D01*
X125534406Y-132445862D01*
X125524687Y-132422398D01*
X125524686Y-132422397D01*
X125524686Y-132422396D01*
X125416299Y-132260185D01*
X125346516Y-132190403D01*
X125311625Y-132155511D01*
X125149414Y-132047124D01*
X125149410Y-132047122D01*
X125125948Y-132037404D01*
X125012648Y-131990473D01*
X125012646Y-131990473D01*
X124821304Y-131952413D01*
X124821299Y-131952413D01*
X124784650Y-131945123D01*
X122632938Y-131945123D01*
X122596289Y-131952413D01*
X122596285Y-131952413D01*
X122404942Y-131990473D01*
X122404940Y-131990473D01*
X122291640Y-132037404D01*
X122268179Y-132047122D01*
X122268174Y-132047124D01*
X122105963Y-132155511D01*
X122036181Y-132225294D01*
X122001289Y-132260185D01*
X121892902Y-132422396D01*
X121892902Y-132422397D01*
X121892901Y-132422398D01*
X121883182Y-132445862D01*
X121836251Y-132559162D01*
X121836251Y-132559164D01*
X121798191Y-132750506D01*
X121798191Y-132750516D01*
X121790902Y-132787160D01*
X121790901Y-133850226D01*
X121774854Y-133930900D01*
X121750322Y-133967615D01*
X121713606Y-133992147D01*
X121632934Y-134008194D01*
X116492773Y-134008194D01*
X116412100Y-133992147D01*
X116375385Y-133967615D01*
X116350853Y-133930899D01*
X116334806Y-133850227D01*
X116334806Y-132787160D01*
X116327516Y-132750511D01*
X116327516Y-132750507D01*
X116289456Y-132559164D01*
X116289456Y-132559162D01*
X116242525Y-132445862D01*
X116232806Y-132422398D01*
X116232805Y-132422397D01*
X116232805Y-132422396D01*
X116124418Y-132260185D01*
X116054635Y-132190403D01*
X116019744Y-132155511D01*
X115857533Y-132047124D01*
X115857529Y-132047122D01*
X115834067Y-132037404D01*
X115720767Y-131990473D01*
X115720765Y-131990473D01*
X115529423Y-131952413D01*
X115529418Y-131952413D01*
X115492769Y-131945123D01*
X113343783Y-131945123D01*
X113307134Y-131952413D01*
X113307130Y-131952413D01*
X113115787Y-131990473D01*
X113115785Y-131990473D01*
X113002485Y-132037404D01*
X112979024Y-132047122D01*
X112979019Y-132047124D01*
X112816808Y-132155511D01*
X112747026Y-132225294D01*
X112712134Y-132260185D01*
X112603747Y-132422396D01*
X112603747Y-132422397D01*
X112603746Y-132422398D01*
X112594027Y-132445862D01*
X112547096Y-132559162D01*
X112547096Y-132559164D01*
X112509036Y-132750506D01*
X112509036Y-132750516D01*
X112501747Y-132787160D01*
X112501746Y-133850226D01*
X112485699Y-133930900D01*
X112461167Y-133967615D01*
X112424451Y-133992147D01*
X112343779Y-134008194D01*
X107067627Y-134008194D01*
X106986954Y-133992147D01*
X106950239Y-133967615D01*
X106925707Y-133930899D01*
X106909660Y-133850227D01*
X106909660Y-132787160D01*
X106902370Y-132750511D01*
X106902370Y-132750507D01*
X106864310Y-132559164D01*
X106864310Y-132559162D01*
X106817379Y-132445862D01*
X106807660Y-132422398D01*
X106807659Y-132422397D01*
X106807659Y-132422396D01*
X106699272Y-132260185D01*
X106629489Y-132190403D01*
X106594598Y-132155511D01*
X106432387Y-132047124D01*
X106432383Y-132047122D01*
X106408921Y-132037404D01*
X106295621Y-131990473D01*
X106295619Y-131990473D01*
X106104277Y-131952413D01*
X106104272Y-131952413D01*
X106067623Y-131945123D01*
X105067628Y-131945123D01*
X104795612Y-131891016D01*
X104596684Y-131758097D01*
X104463767Y-131559172D01*
X104409660Y-131287155D01*
X104409660Y-118361891D01*
X104463767Y-118089874D01*
X104596684Y-117890949D01*
X104795612Y-117758030D01*
X105067628Y-117703923D01*
X121132933Y-117703923D01*
X121404950Y-117758030D01*
X121603875Y-117890947D01*
X121736794Y-118089875D01*
X121790902Y-118361895D01*
X121790901Y-119157695D01*
X121798191Y-119194344D01*
X121798191Y-119194350D01*
X121836251Y-119385692D01*
X121836251Y-119385694D01*
X121880136Y-119491640D01*
X121886567Y-119507165D01*
X121892902Y-119522460D01*
X122001289Y-119684671D01*
X122036181Y-119719562D01*
X122105963Y-119789345D01*
X122268174Y-119897732D01*
X122268176Y-119897733D01*
X122288134Y-119906000D01*
X122404940Y-119954383D01*
X122404942Y-119954383D01*
X122596285Y-119992443D01*
X122596289Y-119992443D01*
X122632938Y-119999733D01*
X133867061Y-119999733D01*
X133903710Y-119992443D01*
X133903715Y-119992443D01*
X134095057Y-119954383D01*
X134095059Y-119954383D01*
X134211865Y-119906000D01*
X134231823Y-119897733D01*
X134231825Y-119897732D01*
X134394036Y-119789345D01*
X134444639Y-119738741D01*
X134498710Y-119684671D01*
X134607097Y-119522460D01*
X134613433Y-119507165D01*
X134619863Y-119491640D01*
X134663748Y-119385694D01*
X134663748Y-119385692D01*
X134701808Y-119194349D01*
X134701808Y-119194345D01*
X134709098Y-119157696D01*
X134709098Y-118361891D01*
X134757240Y-118119859D01*
X146364600Y-118119859D01*
X146364600Y-118390141D01*
X146468033Y-118639849D01*
X146637600Y-118809416D01*
X146637601Y-123167973D01*
X146629640Y-123207996D01*
X146661181Y-123366565D01*
X146726298Y-123464018D01*
X146751004Y-123500993D01*
X146784933Y-123523664D01*
X146872604Y-123611335D01*
X146872604Y-123851141D01*
X146976037Y-124100849D01*
X147167155Y-124291967D01*
X147416863Y-124395400D01*
X147687145Y-124395400D01*
X147936853Y-124291967D01*
X148127971Y-124100849D01*
X148231404Y-123851141D01*
X148231404Y-123580859D01*
X148127971Y-123331151D01*
X147936853Y-123140033D01*
X147687145Y-123036600D01*
X147450400Y-123036600D01*
X147450400Y-118809416D01*
X147619967Y-118639849D01*
X147723400Y-118390141D01*
X147723400Y-118119859D01*
X147619967Y-117870151D01*
X147428849Y-117679033D01*
X147179141Y-117575600D01*
X146908859Y-117575600D01*
X146659151Y-117679033D01*
X146468033Y-117870151D01*
X146364600Y-118119859D01*
X134757240Y-118119859D01*
X134763205Y-118089874D01*
X134896122Y-117890949D01*
X135095050Y-117758030D01*
X135367066Y-117703923D01*
X145787363Y-117703923D01*
X145824012Y-117696633D01*
X145824017Y-117696633D01*
X146206700Y-117620513D01*
X146343466Y-117563863D01*
X146667890Y-117347090D01*
X146772567Y-117242413D01*
X146989337Y-116917992D01*
X146989340Y-116917989D01*
X147045990Y-116781223D01*
X147122110Y-116398540D01*
X147122110Y-116398535D01*
X147129400Y-116361886D01*
X147129400Y-112033000D01*
X155918474Y-112033000D01*
X156006129Y-112473670D01*
X156255748Y-112847252D01*
X156629330Y-113096871D01*
X156958765Y-113162400D01*
X157181235Y-113162400D01*
X157510670Y-113096871D01*
X157884252Y-112847252D01*
X158133871Y-112473670D01*
X158176833Y-112257685D01*
X158516132Y-112257685D01*
X158685381Y-112659187D01*
X158995395Y-112965358D01*
X159385316Y-113126863D01*
X159559200Y-113081795D01*
X159559200Y-112083800D01*
X158561126Y-112083800D01*
X158516132Y-112257685D01*
X158176833Y-112257685D01*
X158221526Y-112033000D01*
X158176834Y-111808315D01*
X158516132Y-111808315D01*
X158561126Y-111982200D01*
X159559200Y-111982200D01*
X159559200Y-110984205D01*
X159385316Y-110939137D01*
X158995395Y-111100642D01*
X158685381Y-111406813D01*
X158516132Y-111808315D01*
X158176834Y-111808315D01*
X158133871Y-111592330D01*
X157884252Y-111218748D01*
X157510670Y-110969129D01*
X157181235Y-110903600D01*
X156958765Y-110903600D01*
X156629330Y-110969129D01*
X156255748Y-111218748D01*
X156006129Y-111592330D01*
X155918474Y-112033000D01*
X147129400Y-112033000D01*
X147129400Y-109493000D01*
X155918474Y-109493000D01*
X156006129Y-109933670D01*
X156255748Y-110307252D01*
X156629330Y-110556871D01*
X156958765Y-110622400D01*
X157181235Y-110622400D01*
X157510670Y-110556871D01*
X157884252Y-110307252D01*
X158133871Y-109933670D01*
X158176833Y-109717685D01*
X158516132Y-109717685D01*
X158685381Y-110119187D01*
X158995395Y-110425358D01*
X159385316Y-110586863D01*
X159559200Y-110541795D01*
X159559200Y-109543800D01*
X159660800Y-109543800D01*
X159660800Y-110541795D01*
X159834684Y-110586863D01*
X160224605Y-110425358D01*
X160534619Y-110119187D01*
X160703868Y-109717685D01*
X160658874Y-109543800D01*
X159660800Y-109543800D01*
X159559200Y-109543800D01*
X158561126Y-109543800D01*
X158516132Y-109717685D01*
X158176833Y-109717685D01*
X158221526Y-109493000D01*
X158176834Y-109268315D01*
X158516132Y-109268315D01*
X158561126Y-109442200D01*
X159559200Y-109442200D01*
X159559200Y-108444205D01*
X159660800Y-108444205D01*
X159660800Y-109442200D01*
X160658874Y-109442200D01*
X160703868Y-109268315D01*
X160534619Y-108866813D01*
X160224605Y-108560642D01*
X159834684Y-108399137D01*
X159660800Y-108444205D01*
X159559200Y-108444205D01*
X159385316Y-108399137D01*
X158995395Y-108560642D01*
X158685381Y-108866813D01*
X158516132Y-109268315D01*
X158176834Y-109268315D01*
X158133871Y-109052330D01*
X157884252Y-108678748D01*
X157510670Y-108429129D01*
X157181235Y-108363600D01*
X156958765Y-108363600D01*
X156629330Y-108429129D01*
X156255748Y-108678748D01*
X156006129Y-109052330D01*
X155918474Y-109493000D01*
X147129400Y-109493000D01*
X147129400Y-107287368D01*
X147183507Y-107015351D01*
X147316424Y-106816426D01*
X147515352Y-106683507D01*
X147787368Y-106629400D01*
X154587363Y-106629400D01*
X154624012Y-106622110D01*
X154624017Y-106622110D01*
X155006700Y-106545990D01*
X155143466Y-106489340D01*
X155467890Y-106272567D01*
X155572567Y-106167890D01*
X155789337Y-105843469D01*
X155789340Y-105843466D01*
X155845990Y-105706700D01*
X155922110Y-105324017D01*
X155922110Y-105324012D01*
X155929400Y-105287363D01*
X155929400Y-99765187D01*
X168370601Y-99765187D01*
X168370600Y-105287362D01*
M02*
