%TF.GenerationSoftware,KiCad,Pcbnew,(5.0.0)*%
%TF.CreationDate,2019-04-02T12:12:57-04:00*%
%TF.ProjectId,Fusion USB Daughter Board,467573696F6E20555342204461756768,rev?*%
%TF.SameCoordinates,Original*%
%TF.FileFunction,Soldermask,Bot*%
%TF.FilePolarity,Negative*%
%FSLAX46Y46*%
G04 Gerber Fmt 4.6, Leading zero omitted, Abs format (unit mm)*
G04 Created by KiCad (PCBNEW (5.0.0)) date 04/02/19 12:12:57*
%MOMM*%
%LPD*%
G01*
G04 APERTURE LIST*
%ADD10C,0.200000*%
%ADD11O,0.951600X2.151600*%
%ADD12O,0.951600X1.951600*%
%ADD13O,1.801600X1.801600*%
%ADD14R,1.801600X1.801600*%
G04 APERTURE END LIST*
D10*
X176900000Y-117250000D02*
G75*
G02X176000000Y-118150000I-900000J0D01*
G01*
X176900000Y-110000000D02*
X176900000Y-117250000D01*
X140544594Y-133887594D02*
X140544594Y-132824523D01*
X149969740Y-132824523D02*
G75*
G02X150469740Y-132324523I500000J0D01*
G01*
X144118853Y-134387594D02*
X149469740Y-134387594D01*
X144118853Y-134387594D02*
G75*
G02X143618853Y-133887594I0J500000D01*
G01*
X141044594Y-132324523D02*
X143118853Y-132324523D01*
X149969740Y-133887594D02*
X149969740Y-132824523D01*
X149969740Y-133887594D02*
G75*
G02X149469740Y-134387594I-500000J0D01*
G01*
X143618853Y-132824523D02*
X143618853Y-133887594D01*
X150469740Y-132324523D02*
X151469740Y-132324523D01*
X140544594Y-132824523D02*
G75*
G02X141044594Y-132324523I500000J0D01*
G01*
X143118853Y-132324523D02*
G75*
G02X143618853Y-132824523I0J-500000D01*
G01*
X152469740Y-127732704D02*
G75*
G02X153469740Y-126732704I1000000J0D01*
G01*
X168725000Y-127732704D02*
X168725000Y-128387594D01*
X167725000Y-126732704D02*
G75*
G02X168725000Y-127732704I0J-1000000D01*
G01*
X152469740Y-131324523D02*
G75*
G02X151469740Y-132324523I-1000000J0D01*
G01*
X179262500Y-118976457D02*
G75*
G02X179775000Y-120313373I-1487500J-1336916D01*
G01*
X179775000Y-128387594D02*
G75*
G02X178775000Y-129387594I-1000000J0D01*
G01*
X152469740Y-131324523D02*
X152469740Y-127732704D01*
X169725000Y-129387594D02*
X178775000Y-129387594D01*
X169725000Y-129387594D02*
G75*
G02X168725000Y-128387594I0J1000000D01*
G01*
X179775000Y-128387594D02*
X179775000Y-120313373D01*
X153469740Y-126732704D02*
X167725000Y-126732704D01*
X106030260Y-132324523D02*
G75*
G02X106530260Y-132824523I0J-500000D01*
G01*
X107030260Y-134387594D02*
G75*
G02X106530260Y-133887594I0J500000D01*
G01*
X106530260Y-132824523D02*
X106530260Y-133887594D01*
X105030260Y-132324523D02*
G75*
G02X104030260Y-131324523I0J1000000D01*
G01*
X104030260Y-118324523D02*
X104030260Y-131324523D01*
X104030260Y-118324523D02*
G75*
G02X105030260Y-117324523I1000000J0D01*
G01*
X112881146Y-132824523D02*
G75*
G02X113381146Y-132324523I500000J0D01*
G01*
X112881146Y-133887594D02*
X112881146Y-132824523D01*
X112881146Y-133887594D02*
G75*
G02X112381146Y-134387594I-500000J0D01*
G01*
X107030260Y-134387594D02*
X112381146Y-134387594D01*
X105030260Y-132324523D02*
X106030260Y-132324523D01*
X134329698Y-132824523D02*
X134329698Y-133887594D01*
X131252713Y-133887594D02*
G75*
G02X130752713Y-134387594I-500000J0D01*
G01*
X125747287Y-134387594D02*
X130752713Y-134387594D01*
X125747287Y-134387594D02*
G75*
G02X125247287Y-133887594I0J500000D01*
G01*
X140544594Y-133887594D02*
G75*
G02X140044594Y-134387594I-500000J0D01*
G01*
X133829698Y-132324523D02*
G75*
G02X134329698Y-132824523I0J-500000D01*
G01*
X134829698Y-134387594D02*
X140044594Y-134387594D01*
X134829698Y-134387594D02*
G75*
G02X134329698Y-133887594I0J500000D01*
G01*
X131252713Y-133887594D02*
X131252713Y-132824523D01*
X131752713Y-132324523D02*
X133829698Y-132324523D01*
X131252713Y-132824523D02*
G75*
G02X131752713Y-132324523I500000J0D01*
G01*
X168750000Y-105250000D02*
X168750000Y-99635787D01*
X177750000Y-106250000D02*
X169750000Y-106250000D01*
X178750000Y-117639541D02*
X178750000Y-107250000D01*
X177750000Y-106250000D02*
G75*
G02X178750000Y-107250000I0J-1000000D01*
G01*
X179262500Y-118976457D02*
G75*
G02X178750000Y-117639541I1487500J1336916D01*
G01*
X169750000Y-106250000D02*
G75*
G02X168750000Y-105250000I0J1000000D01*
G01*
X134329698Y-118324523D02*
G75*
G02X135329698Y-117324523I1000000J0D01*
G01*
X146750000Y-116324523D02*
G75*
G02X145750000Y-117324523I-1000000J0D01*
G01*
X146750000Y-107250000D02*
X146750000Y-116324523D01*
X155550000Y-105250000D02*
G75*
G02X154550000Y-106250000I-1000000J0D01*
G01*
X168500000Y-99385787D02*
X155800000Y-99385787D01*
X171600000Y-117250000D02*
X171600000Y-110000000D01*
X155550000Y-99635787D02*
X155550000Y-105250000D01*
X155550000Y-99635787D02*
G75*
G02X155800000Y-99385787I250000J0D01*
G01*
X172500000Y-109100000D02*
X176000000Y-109100000D01*
X171600000Y-110000000D02*
G75*
G02X172500000Y-109100000I900000J0D01*
G01*
X172500000Y-118150000D02*
G75*
G02X171600000Y-117250000I0J900000D01*
G01*
X146750000Y-107250000D02*
G75*
G02X147750000Y-106250000I1000000J0D01*
G01*
X134329698Y-119120333D02*
G75*
G02X133829698Y-119620333I-500000J0D01*
G01*
X122170301Y-119120333D02*
X122170301Y-118324523D01*
X145750000Y-117324523D02*
X135329698Y-117324523D01*
X134329698Y-118324523D02*
X134329698Y-119120333D01*
X168500000Y-99385787D02*
G75*
G02X168750000Y-99635787I0J-250000D01*
G01*
X176000000Y-118150000D02*
X172500000Y-118150000D01*
X154550000Y-106250000D02*
X147750000Y-106250000D01*
X121170301Y-117324523D02*
X105030260Y-117324523D01*
X121170301Y-117324523D02*
G75*
G02X122170301Y-118324523I0J-1000000D01*
G01*
X122670301Y-119620333D02*
G75*
G02X122170301Y-119120333I0J500000D01*
G01*
X133829698Y-119620333D02*
X122670301Y-119620333D01*
X113381146Y-132324523D02*
X115455406Y-132324523D01*
X124747287Y-132324523D02*
G75*
G02X125247287Y-132824523I0J-500000D01*
G01*
X122670301Y-132324523D02*
X124747287Y-132324523D01*
X122170301Y-133887594D02*
G75*
G02X121670301Y-134387594I-500000J0D01*
G01*
X115955406Y-132824523D02*
X115955406Y-133887594D01*
X116455406Y-134387594D02*
X121670301Y-134387594D01*
X125247287Y-132824523D02*
X125247287Y-133887594D01*
X122170301Y-132824523D02*
G75*
G02X122670301Y-132324523I500000J0D01*
G01*
X122170301Y-133887594D02*
X122170301Y-132824523D01*
X116455406Y-134387594D02*
G75*
G02X115955406Y-133887594I0J500000D01*
G01*
X115455406Y-132324523D02*
G75*
G02X115955406Y-132824523I0J-500000D01*
G01*
X176000000Y-109100000D02*
G75*
G02X176900000Y-110000000I0J-900000D01*
G01*
D11*
X169800000Y-128000000D03*
X178700000Y-128000000D03*
D12*
X169800000Y-124800000D03*
X178700000Y-124800000D03*
D13*
X157070000Y-109493000D03*
X157070000Y-112033000D03*
X159610000Y-109493000D03*
X159610000Y-112033000D03*
X162150000Y-109493000D03*
X162150000Y-112033000D03*
X164690000Y-109493000D03*
X164690000Y-112033000D03*
X167230000Y-109493000D03*
D14*
X167230000Y-112033000D03*
M02*
