G04 #@! TF.GenerationSoftware,KiCad,Pcbnew,(5.0.0)*
G04 #@! TF.CreationDate,2019-02-19T22:24:29-05:00*
G04 #@! TF.ProjectId,FusIon Pack,467573496F6E205061636B2E6B696361,rev?*
G04 #@! TF.SameCoordinates,Original*
G04 #@! TF.FileFunction,Soldermask,Bot*
G04 #@! TF.FilePolarity,Negative*
%FSLAX46Y46*%
G04 Gerber Fmt 4.6, Leading zero omitted, Abs format (unit mm)*
G04 Created by KiCad (PCBNEW (5.0.0)) date 02/19/19 22:24:29*
%MOMM*%
%LPD*%
G01*
G04 APERTURE LIST*
%ADD10C,0.100000*%
%ADD11C,1.601600*%
%ADD12C,1.701600*%
%ADD13R,1.701600X1.701600*%
%ADD14C,3.901600*%
%ADD15O,1.801600X1.801600*%
%ADD16R,1.801600X1.801600*%
%ADD17C,6.601600*%
%ADD18O,1.701600X1.701600*%
%ADD19O,1.801600X2.051600*%
%ADD20R,1.801600X2.051600*%
%ADD21C,1.801600*%
%ADD22C,1.801600*%
%ADD23C,3.101600*%
G04 APERTURE END LIST*
D10*
G04 #@! TO.C,BT1*
G36*
X44189646Y-137451128D02*
X44228514Y-137456894D01*
X44266630Y-137466441D01*
X44303626Y-137479679D01*
X44339147Y-137496479D01*
X44372850Y-137516680D01*
X44404411Y-137540087D01*
X44433526Y-137566474D01*
X44459913Y-137595589D01*
X44483320Y-137627150D01*
X44503521Y-137660853D01*
X44520321Y-137696374D01*
X44533559Y-137733370D01*
X44543106Y-137771486D01*
X44548872Y-137810354D01*
X44550800Y-137849600D01*
X44550800Y-152150400D01*
X44548872Y-152189646D01*
X44543106Y-152228514D01*
X44533559Y-152266630D01*
X44520321Y-152303626D01*
X44503521Y-152339147D01*
X44483320Y-152372850D01*
X44459913Y-152404411D01*
X44433526Y-152433526D01*
X44404411Y-152459913D01*
X44372850Y-152483320D01*
X44339147Y-152503521D01*
X44303626Y-152520321D01*
X44266630Y-152533559D01*
X44228514Y-152543106D01*
X44189646Y-152548872D01*
X44150400Y-152550800D01*
X43349600Y-152550800D01*
X43310354Y-152548872D01*
X43271486Y-152543106D01*
X43233370Y-152533559D01*
X43196374Y-152520321D01*
X43160853Y-152503521D01*
X43127150Y-152483320D01*
X43095589Y-152459913D01*
X43066474Y-152433526D01*
X43040087Y-152404411D01*
X43016680Y-152372850D01*
X42996479Y-152339147D01*
X42979679Y-152303626D01*
X42966441Y-152266630D01*
X42956894Y-152228514D01*
X42951128Y-152189646D01*
X42949200Y-152150400D01*
X42949200Y-137849600D01*
X42951128Y-137810354D01*
X42956894Y-137771486D01*
X42966441Y-137733370D01*
X42979679Y-137696374D01*
X42996479Y-137660853D01*
X43016680Y-137627150D01*
X43040087Y-137595589D01*
X43066474Y-137566474D01*
X43095589Y-137540087D01*
X43127150Y-137516680D01*
X43160853Y-137496479D01*
X43196374Y-137479679D01*
X43233370Y-137466441D01*
X43271486Y-137456894D01*
X43310354Y-137451128D01*
X43349600Y-137449200D01*
X44150400Y-137449200D01*
X44189646Y-137451128D01*
X44189646Y-137451128D01*
G37*
D11*
X43750000Y-145000000D03*
D10*
G36*
X109189646Y-137451128D02*
X109228514Y-137456894D01*
X109266630Y-137466441D01*
X109303626Y-137479679D01*
X109339147Y-137496479D01*
X109372850Y-137516680D01*
X109404411Y-137540087D01*
X109433526Y-137566474D01*
X109459913Y-137595589D01*
X109483320Y-137627150D01*
X109503521Y-137660853D01*
X109520321Y-137696374D01*
X109533559Y-137733370D01*
X109543106Y-137771486D01*
X109548872Y-137810354D01*
X109550800Y-137849600D01*
X109550800Y-152150400D01*
X109548872Y-152189646D01*
X109543106Y-152228514D01*
X109533559Y-152266630D01*
X109520321Y-152303626D01*
X109503521Y-152339147D01*
X109483320Y-152372850D01*
X109459913Y-152404411D01*
X109433526Y-152433526D01*
X109404411Y-152459913D01*
X109372850Y-152483320D01*
X109339147Y-152503521D01*
X109303626Y-152520321D01*
X109266630Y-152533559D01*
X109228514Y-152543106D01*
X109189646Y-152548872D01*
X109150400Y-152550800D01*
X108349600Y-152550800D01*
X108310354Y-152548872D01*
X108271486Y-152543106D01*
X108233370Y-152533559D01*
X108196374Y-152520321D01*
X108160853Y-152503521D01*
X108127150Y-152483320D01*
X108095589Y-152459913D01*
X108066474Y-152433526D01*
X108040087Y-152404411D01*
X108016680Y-152372850D01*
X107996479Y-152339147D01*
X107979679Y-152303626D01*
X107966441Y-152266630D01*
X107956894Y-152228514D01*
X107951128Y-152189646D01*
X107949200Y-152150400D01*
X107949200Y-137849600D01*
X107951128Y-137810354D01*
X107956894Y-137771486D01*
X107966441Y-137733370D01*
X107979679Y-137696374D01*
X107996479Y-137660853D01*
X108016680Y-137627150D01*
X108040087Y-137595589D01*
X108066474Y-137566474D01*
X108095589Y-137540087D01*
X108127150Y-137516680D01*
X108160853Y-137496479D01*
X108196374Y-137479679D01*
X108233370Y-137466441D01*
X108271486Y-137456894D01*
X108310354Y-137451128D01*
X108349600Y-137449200D01*
X109150400Y-137449200D01*
X109189646Y-137451128D01*
X109189646Y-137451128D01*
G37*
D11*
X108750000Y-145000000D03*
G04 #@! TD*
D10*
G04 #@! TO.C,BT2*
G36*
X109189646Y-115451128D02*
X109228514Y-115456894D01*
X109266630Y-115466441D01*
X109303626Y-115479679D01*
X109339147Y-115496479D01*
X109372850Y-115516680D01*
X109404411Y-115540087D01*
X109433526Y-115566474D01*
X109459913Y-115595589D01*
X109483320Y-115627150D01*
X109503521Y-115660853D01*
X109520321Y-115696374D01*
X109533559Y-115733370D01*
X109543106Y-115771486D01*
X109548872Y-115810354D01*
X109550800Y-115849600D01*
X109550800Y-130150400D01*
X109548872Y-130189646D01*
X109543106Y-130228514D01*
X109533559Y-130266630D01*
X109520321Y-130303626D01*
X109503521Y-130339147D01*
X109483320Y-130372850D01*
X109459913Y-130404411D01*
X109433526Y-130433526D01*
X109404411Y-130459913D01*
X109372850Y-130483320D01*
X109339147Y-130503521D01*
X109303626Y-130520321D01*
X109266630Y-130533559D01*
X109228514Y-130543106D01*
X109189646Y-130548872D01*
X109150400Y-130550800D01*
X108349600Y-130550800D01*
X108310354Y-130548872D01*
X108271486Y-130543106D01*
X108233370Y-130533559D01*
X108196374Y-130520321D01*
X108160853Y-130503521D01*
X108127150Y-130483320D01*
X108095589Y-130459913D01*
X108066474Y-130433526D01*
X108040087Y-130404411D01*
X108016680Y-130372850D01*
X107996479Y-130339147D01*
X107979679Y-130303626D01*
X107966441Y-130266630D01*
X107956894Y-130228514D01*
X107951128Y-130189646D01*
X107949200Y-130150400D01*
X107949200Y-115849600D01*
X107951128Y-115810354D01*
X107956894Y-115771486D01*
X107966441Y-115733370D01*
X107979679Y-115696374D01*
X107996479Y-115660853D01*
X108016680Y-115627150D01*
X108040087Y-115595589D01*
X108066474Y-115566474D01*
X108095589Y-115540087D01*
X108127150Y-115516680D01*
X108160853Y-115496479D01*
X108196374Y-115479679D01*
X108233370Y-115466441D01*
X108271486Y-115456894D01*
X108310354Y-115451128D01*
X108349600Y-115449200D01*
X109150400Y-115449200D01*
X109189646Y-115451128D01*
X109189646Y-115451128D01*
G37*
D11*
X108750000Y-123000000D03*
D10*
G36*
X44189646Y-115451128D02*
X44228514Y-115456894D01*
X44266630Y-115466441D01*
X44303626Y-115479679D01*
X44339147Y-115496479D01*
X44372850Y-115516680D01*
X44404411Y-115540087D01*
X44433526Y-115566474D01*
X44459913Y-115595589D01*
X44483320Y-115627150D01*
X44503521Y-115660853D01*
X44520321Y-115696374D01*
X44533559Y-115733370D01*
X44543106Y-115771486D01*
X44548872Y-115810354D01*
X44550800Y-115849600D01*
X44550800Y-130150400D01*
X44548872Y-130189646D01*
X44543106Y-130228514D01*
X44533559Y-130266630D01*
X44520321Y-130303626D01*
X44503521Y-130339147D01*
X44483320Y-130372850D01*
X44459913Y-130404411D01*
X44433526Y-130433526D01*
X44404411Y-130459913D01*
X44372850Y-130483320D01*
X44339147Y-130503521D01*
X44303626Y-130520321D01*
X44266630Y-130533559D01*
X44228514Y-130543106D01*
X44189646Y-130548872D01*
X44150400Y-130550800D01*
X43349600Y-130550800D01*
X43310354Y-130548872D01*
X43271486Y-130543106D01*
X43233370Y-130533559D01*
X43196374Y-130520321D01*
X43160853Y-130503521D01*
X43127150Y-130483320D01*
X43095589Y-130459913D01*
X43066474Y-130433526D01*
X43040087Y-130404411D01*
X43016680Y-130372850D01*
X42996479Y-130339147D01*
X42979679Y-130303626D01*
X42966441Y-130266630D01*
X42956894Y-130228514D01*
X42951128Y-130189646D01*
X42949200Y-130150400D01*
X42949200Y-115849600D01*
X42951128Y-115810354D01*
X42956894Y-115771486D01*
X42966441Y-115733370D01*
X42979679Y-115696374D01*
X42996479Y-115660853D01*
X43016680Y-115627150D01*
X43040087Y-115595589D01*
X43066474Y-115566474D01*
X43095589Y-115540087D01*
X43127150Y-115516680D01*
X43160853Y-115496479D01*
X43196374Y-115479679D01*
X43233370Y-115466441D01*
X43271486Y-115456894D01*
X43310354Y-115451128D01*
X43349600Y-115449200D01*
X44150400Y-115449200D01*
X44189646Y-115451128D01*
X44189646Y-115451128D01*
G37*
D11*
X43750000Y-123000000D03*
G04 #@! TD*
D10*
G04 #@! TO.C,BT3*
G36*
X44189646Y-93451128D02*
X44228514Y-93456894D01*
X44266630Y-93466441D01*
X44303626Y-93479679D01*
X44339147Y-93496479D01*
X44372850Y-93516680D01*
X44404411Y-93540087D01*
X44433526Y-93566474D01*
X44459913Y-93595589D01*
X44483320Y-93627150D01*
X44503521Y-93660853D01*
X44520321Y-93696374D01*
X44533559Y-93733370D01*
X44543106Y-93771486D01*
X44548872Y-93810354D01*
X44550800Y-93849600D01*
X44550800Y-108150400D01*
X44548872Y-108189646D01*
X44543106Y-108228514D01*
X44533559Y-108266630D01*
X44520321Y-108303626D01*
X44503521Y-108339147D01*
X44483320Y-108372850D01*
X44459913Y-108404411D01*
X44433526Y-108433526D01*
X44404411Y-108459913D01*
X44372850Y-108483320D01*
X44339147Y-108503521D01*
X44303626Y-108520321D01*
X44266630Y-108533559D01*
X44228514Y-108543106D01*
X44189646Y-108548872D01*
X44150400Y-108550800D01*
X43349600Y-108550800D01*
X43310354Y-108548872D01*
X43271486Y-108543106D01*
X43233370Y-108533559D01*
X43196374Y-108520321D01*
X43160853Y-108503521D01*
X43127150Y-108483320D01*
X43095589Y-108459913D01*
X43066474Y-108433526D01*
X43040087Y-108404411D01*
X43016680Y-108372850D01*
X42996479Y-108339147D01*
X42979679Y-108303626D01*
X42966441Y-108266630D01*
X42956894Y-108228514D01*
X42951128Y-108189646D01*
X42949200Y-108150400D01*
X42949200Y-93849600D01*
X42951128Y-93810354D01*
X42956894Y-93771486D01*
X42966441Y-93733370D01*
X42979679Y-93696374D01*
X42996479Y-93660853D01*
X43016680Y-93627150D01*
X43040087Y-93595589D01*
X43066474Y-93566474D01*
X43095589Y-93540087D01*
X43127150Y-93516680D01*
X43160853Y-93496479D01*
X43196374Y-93479679D01*
X43233370Y-93466441D01*
X43271486Y-93456894D01*
X43310354Y-93451128D01*
X43349600Y-93449200D01*
X44150400Y-93449200D01*
X44189646Y-93451128D01*
X44189646Y-93451128D01*
G37*
D11*
X43750000Y-101000000D03*
D10*
G36*
X109189646Y-93451128D02*
X109228514Y-93456894D01*
X109266630Y-93466441D01*
X109303626Y-93479679D01*
X109339147Y-93496479D01*
X109372850Y-93516680D01*
X109404411Y-93540087D01*
X109433526Y-93566474D01*
X109459913Y-93595589D01*
X109483320Y-93627150D01*
X109503521Y-93660853D01*
X109520321Y-93696374D01*
X109533559Y-93733370D01*
X109543106Y-93771486D01*
X109548872Y-93810354D01*
X109550800Y-93849600D01*
X109550800Y-108150400D01*
X109548872Y-108189646D01*
X109543106Y-108228514D01*
X109533559Y-108266630D01*
X109520321Y-108303626D01*
X109503521Y-108339147D01*
X109483320Y-108372850D01*
X109459913Y-108404411D01*
X109433526Y-108433526D01*
X109404411Y-108459913D01*
X109372850Y-108483320D01*
X109339147Y-108503521D01*
X109303626Y-108520321D01*
X109266630Y-108533559D01*
X109228514Y-108543106D01*
X109189646Y-108548872D01*
X109150400Y-108550800D01*
X108349600Y-108550800D01*
X108310354Y-108548872D01*
X108271486Y-108543106D01*
X108233370Y-108533559D01*
X108196374Y-108520321D01*
X108160853Y-108503521D01*
X108127150Y-108483320D01*
X108095589Y-108459913D01*
X108066474Y-108433526D01*
X108040087Y-108404411D01*
X108016680Y-108372850D01*
X107996479Y-108339147D01*
X107979679Y-108303626D01*
X107966441Y-108266630D01*
X107956894Y-108228514D01*
X107951128Y-108189646D01*
X107949200Y-108150400D01*
X107949200Y-93849600D01*
X107951128Y-93810354D01*
X107956894Y-93771486D01*
X107966441Y-93733370D01*
X107979679Y-93696374D01*
X107996479Y-93660853D01*
X108016680Y-93627150D01*
X108040087Y-93595589D01*
X108066474Y-93566474D01*
X108095589Y-93540087D01*
X108127150Y-93516680D01*
X108160853Y-93496479D01*
X108196374Y-93479679D01*
X108233370Y-93466441D01*
X108271486Y-93456894D01*
X108310354Y-93451128D01*
X108349600Y-93449200D01*
X109150400Y-93449200D01*
X109189646Y-93451128D01*
X109189646Y-93451128D01*
G37*
D11*
X108750000Y-101000000D03*
G04 #@! TD*
D10*
G04 #@! TO.C,BT4*
G36*
X109189646Y-71451128D02*
X109228514Y-71456894D01*
X109266630Y-71466441D01*
X109303626Y-71479679D01*
X109339147Y-71496479D01*
X109372850Y-71516680D01*
X109404411Y-71540087D01*
X109433526Y-71566474D01*
X109459913Y-71595589D01*
X109483320Y-71627150D01*
X109503521Y-71660853D01*
X109520321Y-71696374D01*
X109533559Y-71733370D01*
X109543106Y-71771486D01*
X109548872Y-71810354D01*
X109550800Y-71849600D01*
X109550800Y-86150400D01*
X109548872Y-86189646D01*
X109543106Y-86228514D01*
X109533559Y-86266630D01*
X109520321Y-86303626D01*
X109503521Y-86339147D01*
X109483320Y-86372850D01*
X109459913Y-86404411D01*
X109433526Y-86433526D01*
X109404411Y-86459913D01*
X109372850Y-86483320D01*
X109339147Y-86503521D01*
X109303626Y-86520321D01*
X109266630Y-86533559D01*
X109228514Y-86543106D01*
X109189646Y-86548872D01*
X109150400Y-86550800D01*
X108349600Y-86550800D01*
X108310354Y-86548872D01*
X108271486Y-86543106D01*
X108233370Y-86533559D01*
X108196374Y-86520321D01*
X108160853Y-86503521D01*
X108127150Y-86483320D01*
X108095589Y-86459913D01*
X108066474Y-86433526D01*
X108040087Y-86404411D01*
X108016680Y-86372850D01*
X107996479Y-86339147D01*
X107979679Y-86303626D01*
X107966441Y-86266630D01*
X107956894Y-86228514D01*
X107951128Y-86189646D01*
X107949200Y-86150400D01*
X107949200Y-71849600D01*
X107951128Y-71810354D01*
X107956894Y-71771486D01*
X107966441Y-71733370D01*
X107979679Y-71696374D01*
X107996479Y-71660853D01*
X108016680Y-71627150D01*
X108040087Y-71595589D01*
X108066474Y-71566474D01*
X108095589Y-71540087D01*
X108127150Y-71516680D01*
X108160853Y-71496479D01*
X108196374Y-71479679D01*
X108233370Y-71466441D01*
X108271486Y-71456894D01*
X108310354Y-71451128D01*
X108349600Y-71449200D01*
X109150400Y-71449200D01*
X109189646Y-71451128D01*
X109189646Y-71451128D01*
G37*
D11*
X108750000Y-79000000D03*
D10*
G36*
X44189646Y-71451128D02*
X44228514Y-71456894D01*
X44266630Y-71466441D01*
X44303626Y-71479679D01*
X44339147Y-71496479D01*
X44372850Y-71516680D01*
X44404411Y-71540087D01*
X44433526Y-71566474D01*
X44459913Y-71595589D01*
X44483320Y-71627150D01*
X44503521Y-71660853D01*
X44520321Y-71696374D01*
X44533559Y-71733370D01*
X44543106Y-71771486D01*
X44548872Y-71810354D01*
X44550800Y-71849600D01*
X44550800Y-86150400D01*
X44548872Y-86189646D01*
X44543106Y-86228514D01*
X44533559Y-86266630D01*
X44520321Y-86303626D01*
X44503521Y-86339147D01*
X44483320Y-86372850D01*
X44459913Y-86404411D01*
X44433526Y-86433526D01*
X44404411Y-86459913D01*
X44372850Y-86483320D01*
X44339147Y-86503521D01*
X44303626Y-86520321D01*
X44266630Y-86533559D01*
X44228514Y-86543106D01*
X44189646Y-86548872D01*
X44150400Y-86550800D01*
X43349600Y-86550800D01*
X43310354Y-86548872D01*
X43271486Y-86543106D01*
X43233370Y-86533559D01*
X43196374Y-86520321D01*
X43160853Y-86503521D01*
X43127150Y-86483320D01*
X43095589Y-86459913D01*
X43066474Y-86433526D01*
X43040087Y-86404411D01*
X43016680Y-86372850D01*
X42996479Y-86339147D01*
X42979679Y-86303626D01*
X42966441Y-86266630D01*
X42956894Y-86228514D01*
X42951128Y-86189646D01*
X42949200Y-86150400D01*
X42949200Y-71849600D01*
X42951128Y-71810354D01*
X42956894Y-71771486D01*
X42966441Y-71733370D01*
X42979679Y-71696374D01*
X42996479Y-71660853D01*
X43016680Y-71627150D01*
X43040087Y-71595589D01*
X43066474Y-71566474D01*
X43095589Y-71540087D01*
X43127150Y-71516680D01*
X43160853Y-71496479D01*
X43196374Y-71479679D01*
X43233370Y-71466441D01*
X43271486Y-71456894D01*
X43310354Y-71451128D01*
X43349600Y-71449200D01*
X44150400Y-71449200D01*
X44189646Y-71451128D01*
X44189646Y-71451128D01*
G37*
D11*
X43750000Y-79000000D03*
G04 #@! TD*
D10*
G04 #@! TO.C,BT5*
G36*
X44189646Y-49451128D02*
X44228514Y-49456894D01*
X44266630Y-49466441D01*
X44303626Y-49479679D01*
X44339147Y-49496479D01*
X44372850Y-49516680D01*
X44404411Y-49540087D01*
X44433526Y-49566474D01*
X44459913Y-49595589D01*
X44483320Y-49627150D01*
X44503521Y-49660853D01*
X44520321Y-49696374D01*
X44533559Y-49733370D01*
X44543106Y-49771486D01*
X44548872Y-49810354D01*
X44550800Y-49849600D01*
X44550800Y-64150400D01*
X44548872Y-64189646D01*
X44543106Y-64228514D01*
X44533559Y-64266630D01*
X44520321Y-64303626D01*
X44503521Y-64339147D01*
X44483320Y-64372850D01*
X44459913Y-64404411D01*
X44433526Y-64433526D01*
X44404411Y-64459913D01*
X44372850Y-64483320D01*
X44339147Y-64503521D01*
X44303626Y-64520321D01*
X44266630Y-64533559D01*
X44228514Y-64543106D01*
X44189646Y-64548872D01*
X44150400Y-64550800D01*
X43349600Y-64550800D01*
X43310354Y-64548872D01*
X43271486Y-64543106D01*
X43233370Y-64533559D01*
X43196374Y-64520321D01*
X43160853Y-64503521D01*
X43127150Y-64483320D01*
X43095589Y-64459913D01*
X43066474Y-64433526D01*
X43040087Y-64404411D01*
X43016680Y-64372850D01*
X42996479Y-64339147D01*
X42979679Y-64303626D01*
X42966441Y-64266630D01*
X42956894Y-64228514D01*
X42951128Y-64189646D01*
X42949200Y-64150400D01*
X42949200Y-49849600D01*
X42951128Y-49810354D01*
X42956894Y-49771486D01*
X42966441Y-49733370D01*
X42979679Y-49696374D01*
X42996479Y-49660853D01*
X43016680Y-49627150D01*
X43040087Y-49595589D01*
X43066474Y-49566474D01*
X43095589Y-49540087D01*
X43127150Y-49516680D01*
X43160853Y-49496479D01*
X43196374Y-49479679D01*
X43233370Y-49466441D01*
X43271486Y-49456894D01*
X43310354Y-49451128D01*
X43349600Y-49449200D01*
X44150400Y-49449200D01*
X44189646Y-49451128D01*
X44189646Y-49451128D01*
G37*
D11*
X43750000Y-57000000D03*
D10*
G36*
X109189646Y-49451128D02*
X109228514Y-49456894D01*
X109266630Y-49466441D01*
X109303626Y-49479679D01*
X109339147Y-49496479D01*
X109372850Y-49516680D01*
X109404411Y-49540087D01*
X109433526Y-49566474D01*
X109459913Y-49595589D01*
X109483320Y-49627150D01*
X109503521Y-49660853D01*
X109520321Y-49696374D01*
X109533559Y-49733370D01*
X109543106Y-49771486D01*
X109548872Y-49810354D01*
X109550800Y-49849600D01*
X109550800Y-64150400D01*
X109548872Y-64189646D01*
X109543106Y-64228514D01*
X109533559Y-64266630D01*
X109520321Y-64303626D01*
X109503521Y-64339147D01*
X109483320Y-64372850D01*
X109459913Y-64404411D01*
X109433526Y-64433526D01*
X109404411Y-64459913D01*
X109372850Y-64483320D01*
X109339147Y-64503521D01*
X109303626Y-64520321D01*
X109266630Y-64533559D01*
X109228514Y-64543106D01*
X109189646Y-64548872D01*
X109150400Y-64550800D01*
X108349600Y-64550800D01*
X108310354Y-64548872D01*
X108271486Y-64543106D01*
X108233370Y-64533559D01*
X108196374Y-64520321D01*
X108160853Y-64503521D01*
X108127150Y-64483320D01*
X108095589Y-64459913D01*
X108066474Y-64433526D01*
X108040087Y-64404411D01*
X108016680Y-64372850D01*
X107996479Y-64339147D01*
X107979679Y-64303626D01*
X107966441Y-64266630D01*
X107956894Y-64228514D01*
X107951128Y-64189646D01*
X107949200Y-64150400D01*
X107949200Y-49849600D01*
X107951128Y-49810354D01*
X107956894Y-49771486D01*
X107966441Y-49733370D01*
X107979679Y-49696374D01*
X107996479Y-49660853D01*
X108016680Y-49627150D01*
X108040087Y-49595589D01*
X108066474Y-49566474D01*
X108095589Y-49540087D01*
X108127150Y-49516680D01*
X108160853Y-49496479D01*
X108196374Y-49479679D01*
X108233370Y-49466441D01*
X108271486Y-49456894D01*
X108310354Y-49451128D01*
X108349600Y-49449200D01*
X109150400Y-49449200D01*
X109189646Y-49451128D01*
X109189646Y-49451128D01*
G37*
D11*
X108750000Y-57000000D03*
G04 #@! TD*
D10*
G04 #@! TO.C,BT6*
G36*
X119689646Y-49451128D02*
X119728514Y-49456894D01*
X119766630Y-49466441D01*
X119803626Y-49479679D01*
X119839147Y-49496479D01*
X119872850Y-49516680D01*
X119904411Y-49540087D01*
X119933526Y-49566474D01*
X119959913Y-49595589D01*
X119983320Y-49627150D01*
X120003521Y-49660853D01*
X120020321Y-49696374D01*
X120033559Y-49733370D01*
X120043106Y-49771486D01*
X120048872Y-49810354D01*
X120050800Y-49849600D01*
X120050800Y-64150400D01*
X120048872Y-64189646D01*
X120043106Y-64228514D01*
X120033559Y-64266630D01*
X120020321Y-64303626D01*
X120003521Y-64339147D01*
X119983320Y-64372850D01*
X119959913Y-64404411D01*
X119933526Y-64433526D01*
X119904411Y-64459913D01*
X119872850Y-64483320D01*
X119839147Y-64503521D01*
X119803626Y-64520321D01*
X119766630Y-64533559D01*
X119728514Y-64543106D01*
X119689646Y-64548872D01*
X119650400Y-64550800D01*
X118849600Y-64550800D01*
X118810354Y-64548872D01*
X118771486Y-64543106D01*
X118733370Y-64533559D01*
X118696374Y-64520321D01*
X118660853Y-64503521D01*
X118627150Y-64483320D01*
X118595589Y-64459913D01*
X118566474Y-64433526D01*
X118540087Y-64404411D01*
X118516680Y-64372850D01*
X118496479Y-64339147D01*
X118479679Y-64303626D01*
X118466441Y-64266630D01*
X118456894Y-64228514D01*
X118451128Y-64189646D01*
X118449200Y-64150400D01*
X118449200Y-49849600D01*
X118451128Y-49810354D01*
X118456894Y-49771486D01*
X118466441Y-49733370D01*
X118479679Y-49696374D01*
X118496479Y-49660853D01*
X118516680Y-49627150D01*
X118540087Y-49595589D01*
X118566474Y-49566474D01*
X118595589Y-49540087D01*
X118627150Y-49516680D01*
X118660853Y-49496479D01*
X118696374Y-49479679D01*
X118733370Y-49466441D01*
X118771486Y-49456894D01*
X118810354Y-49451128D01*
X118849600Y-49449200D01*
X119650400Y-49449200D01*
X119689646Y-49451128D01*
X119689646Y-49451128D01*
G37*
D11*
X119250000Y-57000000D03*
D10*
G36*
X184689646Y-49451128D02*
X184728514Y-49456894D01*
X184766630Y-49466441D01*
X184803626Y-49479679D01*
X184839147Y-49496479D01*
X184872850Y-49516680D01*
X184904411Y-49540087D01*
X184933526Y-49566474D01*
X184959913Y-49595589D01*
X184983320Y-49627150D01*
X185003521Y-49660853D01*
X185020321Y-49696374D01*
X185033559Y-49733370D01*
X185043106Y-49771486D01*
X185048872Y-49810354D01*
X185050800Y-49849600D01*
X185050800Y-64150400D01*
X185048872Y-64189646D01*
X185043106Y-64228514D01*
X185033559Y-64266630D01*
X185020321Y-64303626D01*
X185003521Y-64339147D01*
X184983320Y-64372850D01*
X184959913Y-64404411D01*
X184933526Y-64433526D01*
X184904411Y-64459913D01*
X184872850Y-64483320D01*
X184839147Y-64503521D01*
X184803626Y-64520321D01*
X184766630Y-64533559D01*
X184728514Y-64543106D01*
X184689646Y-64548872D01*
X184650400Y-64550800D01*
X183849600Y-64550800D01*
X183810354Y-64548872D01*
X183771486Y-64543106D01*
X183733370Y-64533559D01*
X183696374Y-64520321D01*
X183660853Y-64503521D01*
X183627150Y-64483320D01*
X183595589Y-64459913D01*
X183566474Y-64433526D01*
X183540087Y-64404411D01*
X183516680Y-64372850D01*
X183496479Y-64339147D01*
X183479679Y-64303626D01*
X183466441Y-64266630D01*
X183456894Y-64228514D01*
X183451128Y-64189646D01*
X183449200Y-64150400D01*
X183449200Y-49849600D01*
X183451128Y-49810354D01*
X183456894Y-49771486D01*
X183466441Y-49733370D01*
X183479679Y-49696374D01*
X183496479Y-49660853D01*
X183516680Y-49627150D01*
X183540087Y-49595589D01*
X183566474Y-49566474D01*
X183595589Y-49540087D01*
X183627150Y-49516680D01*
X183660853Y-49496479D01*
X183696374Y-49479679D01*
X183733370Y-49466441D01*
X183771486Y-49456894D01*
X183810354Y-49451128D01*
X183849600Y-49449200D01*
X184650400Y-49449200D01*
X184689646Y-49451128D01*
X184689646Y-49451128D01*
G37*
D11*
X184250000Y-57000000D03*
G04 #@! TD*
D10*
G04 #@! TO.C,BT7*
G36*
X184689646Y-71451128D02*
X184728514Y-71456894D01*
X184766630Y-71466441D01*
X184803626Y-71479679D01*
X184839147Y-71496479D01*
X184872850Y-71516680D01*
X184904411Y-71540087D01*
X184933526Y-71566474D01*
X184959913Y-71595589D01*
X184983320Y-71627150D01*
X185003521Y-71660853D01*
X185020321Y-71696374D01*
X185033559Y-71733370D01*
X185043106Y-71771486D01*
X185048872Y-71810354D01*
X185050800Y-71849600D01*
X185050800Y-86150400D01*
X185048872Y-86189646D01*
X185043106Y-86228514D01*
X185033559Y-86266630D01*
X185020321Y-86303626D01*
X185003521Y-86339147D01*
X184983320Y-86372850D01*
X184959913Y-86404411D01*
X184933526Y-86433526D01*
X184904411Y-86459913D01*
X184872850Y-86483320D01*
X184839147Y-86503521D01*
X184803626Y-86520321D01*
X184766630Y-86533559D01*
X184728514Y-86543106D01*
X184689646Y-86548872D01*
X184650400Y-86550800D01*
X183849600Y-86550800D01*
X183810354Y-86548872D01*
X183771486Y-86543106D01*
X183733370Y-86533559D01*
X183696374Y-86520321D01*
X183660853Y-86503521D01*
X183627150Y-86483320D01*
X183595589Y-86459913D01*
X183566474Y-86433526D01*
X183540087Y-86404411D01*
X183516680Y-86372850D01*
X183496479Y-86339147D01*
X183479679Y-86303626D01*
X183466441Y-86266630D01*
X183456894Y-86228514D01*
X183451128Y-86189646D01*
X183449200Y-86150400D01*
X183449200Y-71849600D01*
X183451128Y-71810354D01*
X183456894Y-71771486D01*
X183466441Y-71733370D01*
X183479679Y-71696374D01*
X183496479Y-71660853D01*
X183516680Y-71627150D01*
X183540087Y-71595589D01*
X183566474Y-71566474D01*
X183595589Y-71540087D01*
X183627150Y-71516680D01*
X183660853Y-71496479D01*
X183696374Y-71479679D01*
X183733370Y-71466441D01*
X183771486Y-71456894D01*
X183810354Y-71451128D01*
X183849600Y-71449200D01*
X184650400Y-71449200D01*
X184689646Y-71451128D01*
X184689646Y-71451128D01*
G37*
D11*
X184250000Y-79000000D03*
D10*
G36*
X119689646Y-71451128D02*
X119728514Y-71456894D01*
X119766630Y-71466441D01*
X119803626Y-71479679D01*
X119839147Y-71496479D01*
X119872850Y-71516680D01*
X119904411Y-71540087D01*
X119933526Y-71566474D01*
X119959913Y-71595589D01*
X119983320Y-71627150D01*
X120003521Y-71660853D01*
X120020321Y-71696374D01*
X120033559Y-71733370D01*
X120043106Y-71771486D01*
X120048872Y-71810354D01*
X120050800Y-71849600D01*
X120050800Y-86150400D01*
X120048872Y-86189646D01*
X120043106Y-86228514D01*
X120033559Y-86266630D01*
X120020321Y-86303626D01*
X120003521Y-86339147D01*
X119983320Y-86372850D01*
X119959913Y-86404411D01*
X119933526Y-86433526D01*
X119904411Y-86459913D01*
X119872850Y-86483320D01*
X119839147Y-86503521D01*
X119803626Y-86520321D01*
X119766630Y-86533559D01*
X119728514Y-86543106D01*
X119689646Y-86548872D01*
X119650400Y-86550800D01*
X118849600Y-86550800D01*
X118810354Y-86548872D01*
X118771486Y-86543106D01*
X118733370Y-86533559D01*
X118696374Y-86520321D01*
X118660853Y-86503521D01*
X118627150Y-86483320D01*
X118595589Y-86459913D01*
X118566474Y-86433526D01*
X118540087Y-86404411D01*
X118516680Y-86372850D01*
X118496479Y-86339147D01*
X118479679Y-86303626D01*
X118466441Y-86266630D01*
X118456894Y-86228514D01*
X118451128Y-86189646D01*
X118449200Y-86150400D01*
X118449200Y-71849600D01*
X118451128Y-71810354D01*
X118456894Y-71771486D01*
X118466441Y-71733370D01*
X118479679Y-71696374D01*
X118496479Y-71660853D01*
X118516680Y-71627150D01*
X118540087Y-71595589D01*
X118566474Y-71566474D01*
X118595589Y-71540087D01*
X118627150Y-71516680D01*
X118660853Y-71496479D01*
X118696374Y-71479679D01*
X118733370Y-71466441D01*
X118771486Y-71456894D01*
X118810354Y-71451128D01*
X118849600Y-71449200D01*
X119650400Y-71449200D01*
X119689646Y-71451128D01*
X119689646Y-71451128D01*
G37*
D11*
X119250000Y-79000000D03*
G04 #@! TD*
D10*
G04 #@! TO.C,BT8*
G36*
X119689646Y-93451128D02*
X119728514Y-93456894D01*
X119766630Y-93466441D01*
X119803626Y-93479679D01*
X119839147Y-93496479D01*
X119872850Y-93516680D01*
X119904411Y-93540087D01*
X119933526Y-93566474D01*
X119959913Y-93595589D01*
X119983320Y-93627150D01*
X120003521Y-93660853D01*
X120020321Y-93696374D01*
X120033559Y-93733370D01*
X120043106Y-93771486D01*
X120048872Y-93810354D01*
X120050800Y-93849600D01*
X120050800Y-108150400D01*
X120048872Y-108189646D01*
X120043106Y-108228514D01*
X120033559Y-108266630D01*
X120020321Y-108303626D01*
X120003521Y-108339147D01*
X119983320Y-108372850D01*
X119959913Y-108404411D01*
X119933526Y-108433526D01*
X119904411Y-108459913D01*
X119872850Y-108483320D01*
X119839147Y-108503521D01*
X119803626Y-108520321D01*
X119766630Y-108533559D01*
X119728514Y-108543106D01*
X119689646Y-108548872D01*
X119650400Y-108550800D01*
X118849600Y-108550800D01*
X118810354Y-108548872D01*
X118771486Y-108543106D01*
X118733370Y-108533559D01*
X118696374Y-108520321D01*
X118660853Y-108503521D01*
X118627150Y-108483320D01*
X118595589Y-108459913D01*
X118566474Y-108433526D01*
X118540087Y-108404411D01*
X118516680Y-108372850D01*
X118496479Y-108339147D01*
X118479679Y-108303626D01*
X118466441Y-108266630D01*
X118456894Y-108228514D01*
X118451128Y-108189646D01*
X118449200Y-108150400D01*
X118449200Y-93849600D01*
X118451128Y-93810354D01*
X118456894Y-93771486D01*
X118466441Y-93733370D01*
X118479679Y-93696374D01*
X118496479Y-93660853D01*
X118516680Y-93627150D01*
X118540087Y-93595589D01*
X118566474Y-93566474D01*
X118595589Y-93540087D01*
X118627150Y-93516680D01*
X118660853Y-93496479D01*
X118696374Y-93479679D01*
X118733370Y-93466441D01*
X118771486Y-93456894D01*
X118810354Y-93451128D01*
X118849600Y-93449200D01*
X119650400Y-93449200D01*
X119689646Y-93451128D01*
X119689646Y-93451128D01*
G37*
D11*
X119250000Y-101000000D03*
D10*
G36*
X184689646Y-93451128D02*
X184728514Y-93456894D01*
X184766630Y-93466441D01*
X184803626Y-93479679D01*
X184839147Y-93496479D01*
X184872850Y-93516680D01*
X184904411Y-93540087D01*
X184933526Y-93566474D01*
X184959913Y-93595589D01*
X184983320Y-93627150D01*
X185003521Y-93660853D01*
X185020321Y-93696374D01*
X185033559Y-93733370D01*
X185043106Y-93771486D01*
X185048872Y-93810354D01*
X185050800Y-93849600D01*
X185050800Y-108150400D01*
X185048872Y-108189646D01*
X185043106Y-108228514D01*
X185033559Y-108266630D01*
X185020321Y-108303626D01*
X185003521Y-108339147D01*
X184983320Y-108372850D01*
X184959913Y-108404411D01*
X184933526Y-108433526D01*
X184904411Y-108459913D01*
X184872850Y-108483320D01*
X184839147Y-108503521D01*
X184803626Y-108520321D01*
X184766630Y-108533559D01*
X184728514Y-108543106D01*
X184689646Y-108548872D01*
X184650400Y-108550800D01*
X183849600Y-108550800D01*
X183810354Y-108548872D01*
X183771486Y-108543106D01*
X183733370Y-108533559D01*
X183696374Y-108520321D01*
X183660853Y-108503521D01*
X183627150Y-108483320D01*
X183595589Y-108459913D01*
X183566474Y-108433526D01*
X183540087Y-108404411D01*
X183516680Y-108372850D01*
X183496479Y-108339147D01*
X183479679Y-108303626D01*
X183466441Y-108266630D01*
X183456894Y-108228514D01*
X183451128Y-108189646D01*
X183449200Y-108150400D01*
X183449200Y-93849600D01*
X183451128Y-93810354D01*
X183456894Y-93771486D01*
X183466441Y-93733370D01*
X183479679Y-93696374D01*
X183496479Y-93660853D01*
X183516680Y-93627150D01*
X183540087Y-93595589D01*
X183566474Y-93566474D01*
X183595589Y-93540087D01*
X183627150Y-93516680D01*
X183660853Y-93496479D01*
X183696374Y-93479679D01*
X183733370Y-93466441D01*
X183771486Y-93456894D01*
X183810354Y-93451128D01*
X183849600Y-93449200D01*
X184650400Y-93449200D01*
X184689646Y-93451128D01*
X184689646Y-93451128D01*
G37*
D11*
X184250000Y-101000000D03*
G04 #@! TD*
D10*
G04 #@! TO.C,BT9*
G36*
X184689646Y-115451128D02*
X184728514Y-115456894D01*
X184766630Y-115466441D01*
X184803626Y-115479679D01*
X184839147Y-115496479D01*
X184872850Y-115516680D01*
X184904411Y-115540087D01*
X184933526Y-115566474D01*
X184959913Y-115595589D01*
X184983320Y-115627150D01*
X185003521Y-115660853D01*
X185020321Y-115696374D01*
X185033559Y-115733370D01*
X185043106Y-115771486D01*
X185048872Y-115810354D01*
X185050800Y-115849600D01*
X185050800Y-130150400D01*
X185048872Y-130189646D01*
X185043106Y-130228514D01*
X185033559Y-130266630D01*
X185020321Y-130303626D01*
X185003521Y-130339147D01*
X184983320Y-130372850D01*
X184959913Y-130404411D01*
X184933526Y-130433526D01*
X184904411Y-130459913D01*
X184872850Y-130483320D01*
X184839147Y-130503521D01*
X184803626Y-130520321D01*
X184766630Y-130533559D01*
X184728514Y-130543106D01*
X184689646Y-130548872D01*
X184650400Y-130550800D01*
X183849600Y-130550800D01*
X183810354Y-130548872D01*
X183771486Y-130543106D01*
X183733370Y-130533559D01*
X183696374Y-130520321D01*
X183660853Y-130503521D01*
X183627150Y-130483320D01*
X183595589Y-130459913D01*
X183566474Y-130433526D01*
X183540087Y-130404411D01*
X183516680Y-130372850D01*
X183496479Y-130339147D01*
X183479679Y-130303626D01*
X183466441Y-130266630D01*
X183456894Y-130228514D01*
X183451128Y-130189646D01*
X183449200Y-130150400D01*
X183449200Y-115849600D01*
X183451128Y-115810354D01*
X183456894Y-115771486D01*
X183466441Y-115733370D01*
X183479679Y-115696374D01*
X183496479Y-115660853D01*
X183516680Y-115627150D01*
X183540087Y-115595589D01*
X183566474Y-115566474D01*
X183595589Y-115540087D01*
X183627150Y-115516680D01*
X183660853Y-115496479D01*
X183696374Y-115479679D01*
X183733370Y-115466441D01*
X183771486Y-115456894D01*
X183810354Y-115451128D01*
X183849600Y-115449200D01*
X184650400Y-115449200D01*
X184689646Y-115451128D01*
X184689646Y-115451128D01*
G37*
D11*
X184250000Y-123000000D03*
D10*
G36*
X119689646Y-115451128D02*
X119728514Y-115456894D01*
X119766630Y-115466441D01*
X119803626Y-115479679D01*
X119839147Y-115496479D01*
X119872850Y-115516680D01*
X119904411Y-115540087D01*
X119933526Y-115566474D01*
X119959913Y-115595589D01*
X119983320Y-115627150D01*
X120003521Y-115660853D01*
X120020321Y-115696374D01*
X120033559Y-115733370D01*
X120043106Y-115771486D01*
X120048872Y-115810354D01*
X120050800Y-115849600D01*
X120050800Y-130150400D01*
X120048872Y-130189646D01*
X120043106Y-130228514D01*
X120033559Y-130266630D01*
X120020321Y-130303626D01*
X120003521Y-130339147D01*
X119983320Y-130372850D01*
X119959913Y-130404411D01*
X119933526Y-130433526D01*
X119904411Y-130459913D01*
X119872850Y-130483320D01*
X119839147Y-130503521D01*
X119803626Y-130520321D01*
X119766630Y-130533559D01*
X119728514Y-130543106D01*
X119689646Y-130548872D01*
X119650400Y-130550800D01*
X118849600Y-130550800D01*
X118810354Y-130548872D01*
X118771486Y-130543106D01*
X118733370Y-130533559D01*
X118696374Y-130520321D01*
X118660853Y-130503521D01*
X118627150Y-130483320D01*
X118595589Y-130459913D01*
X118566474Y-130433526D01*
X118540087Y-130404411D01*
X118516680Y-130372850D01*
X118496479Y-130339147D01*
X118479679Y-130303626D01*
X118466441Y-130266630D01*
X118456894Y-130228514D01*
X118451128Y-130189646D01*
X118449200Y-130150400D01*
X118449200Y-115849600D01*
X118451128Y-115810354D01*
X118456894Y-115771486D01*
X118466441Y-115733370D01*
X118479679Y-115696374D01*
X118496479Y-115660853D01*
X118516680Y-115627150D01*
X118540087Y-115595589D01*
X118566474Y-115566474D01*
X118595589Y-115540087D01*
X118627150Y-115516680D01*
X118660853Y-115496479D01*
X118696374Y-115479679D01*
X118733370Y-115466441D01*
X118771486Y-115456894D01*
X118810354Y-115451128D01*
X118849600Y-115449200D01*
X119650400Y-115449200D01*
X119689646Y-115451128D01*
X119689646Y-115451128D01*
G37*
D11*
X119250000Y-123000000D03*
G04 #@! TD*
D10*
G04 #@! TO.C,BT10*
G36*
X119689646Y-137451128D02*
X119728514Y-137456894D01*
X119766630Y-137466441D01*
X119803626Y-137479679D01*
X119839147Y-137496479D01*
X119872850Y-137516680D01*
X119904411Y-137540087D01*
X119933526Y-137566474D01*
X119959913Y-137595589D01*
X119983320Y-137627150D01*
X120003521Y-137660853D01*
X120020321Y-137696374D01*
X120033559Y-137733370D01*
X120043106Y-137771486D01*
X120048872Y-137810354D01*
X120050800Y-137849600D01*
X120050800Y-152150400D01*
X120048872Y-152189646D01*
X120043106Y-152228514D01*
X120033559Y-152266630D01*
X120020321Y-152303626D01*
X120003521Y-152339147D01*
X119983320Y-152372850D01*
X119959913Y-152404411D01*
X119933526Y-152433526D01*
X119904411Y-152459913D01*
X119872850Y-152483320D01*
X119839147Y-152503521D01*
X119803626Y-152520321D01*
X119766630Y-152533559D01*
X119728514Y-152543106D01*
X119689646Y-152548872D01*
X119650400Y-152550800D01*
X118849600Y-152550800D01*
X118810354Y-152548872D01*
X118771486Y-152543106D01*
X118733370Y-152533559D01*
X118696374Y-152520321D01*
X118660853Y-152503521D01*
X118627150Y-152483320D01*
X118595589Y-152459913D01*
X118566474Y-152433526D01*
X118540087Y-152404411D01*
X118516680Y-152372850D01*
X118496479Y-152339147D01*
X118479679Y-152303626D01*
X118466441Y-152266630D01*
X118456894Y-152228514D01*
X118451128Y-152189646D01*
X118449200Y-152150400D01*
X118449200Y-137849600D01*
X118451128Y-137810354D01*
X118456894Y-137771486D01*
X118466441Y-137733370D01*
X118479679Y-137696374D01*
X118496479Y-137660853D01*
X118516680Y-137627150D01*
X118540087Y-137595589D01*
X118566474Y-137566474D01*
X118595589Y-137540087D01*
X118627150Y-137516680D01*
X118660853Y-137496479D01*
X118696374Y-137479679D01*
X118733370Y-137466441D01*
X118771486Y-137456894D01*
X118810354Y-137451128D01*
X118849600Y-137449200D01*
X119650400Y-137449200D01*
X119689646Y-137451128D01*
X119689646Y-137451128D01*
G37*
D11*
X119250000Y-145000000D03*
D10*
G36*
X184689646Y-137451128D02*
X184728514Y-137456894D01*
X184766630Y-137466441D01*
X184803626Y-137479679D01*
X184839147Y-137496479D01*
X184872850Y-137516680D01*
X184904411Y-137540087D01*
X184933526Y-137566474D01*
X184959913Y-137595589D01*
X184983320Y-137627150D01*
X185003521Y-137660853D01*
X185020321Y-137696374D01*
X185033559Y-137733370D01*
X185043106Y-137771486D01*
X185048872Y-137810354D01*
X185050800Y-137849600D01*
X185050800Y-152150400D01*
X185048872Y-152189646D01*
X185043106Y-152228514D01*
X185033559Y-152266630D01*
X185020321Y-152303626D01*
X185003521Y-152339147D01*
X184983320Y-152372850D01*
X184959913Y-152404411D01*
X184933526Y-152433526D01*
X184904411Y-152459913D01*
X184872850Y-152483320D01*
X184839147Y-152503521D01*
X184803626Y-152520321D01*
X184766630Y-152533559D01*
X184728514Y-152543106D01*
X184689646Y-152548872D01*
X184650400Y-152550800D01*
X183849600Y-152550800D01*
X183810354Y-152548872D01*
X183771486Y-152543106D01*
X183733370Y-152533559D01*
X183696374Y-152520321D01*
X183660853Y-152503521D01*
X183627150Y-152483320D01*
X183595589Y-152459913D01*
X183566474Y-152433526D01*
X183540087Y-152404411D01*
X183516680Y-152372850D01*
X183496479Y-152339147D01*
X183479679Y-152303626D01*
X183466441Y-152266630D01*
X183456894Y-152228514D01*
X183451128Y-152189646D01*
X183449200Y-152150400D01*
X183449200Y-137849600D01*
X183451128Y-137810354D01*
X183456894Y-137771486D01*
X183466441Y-137733370D01*
X183479679Y-137696374D01*
X183496479Y-137660853D01*
X183516680Y-137627150D01*
X183540087Y-137595589D01*
X183566474Y-137566474D01*
X183595589Y-137540087D01*
X183627150Y-137516680D01*
X183660853Y-137496479D01*
X183696374Y-137479679D01*
X183733370Y-137466441D01*
X183771486Y-137456894D01*
X183810354Y-137451128D01*
X183849600Y-137449200D01*
X184650400Y-137449200D01*
X184689646Y-137451128D01*
X184689646Y-137451128D01*
G37*
D11*
X184250000Y-145000000D03*
G04 #@! TD*
D12*
G04 #@! TO.C,C52*
X90180000Y-39405000D03*
D13*
X93680000Y-39405000D03*
G04 #@! TD*
D12*
G04 #@! TO.C,C57*
X137820000Y-39405000D03*
D13*
X134320000Y-39405000D03*
G04 #@! TD*
D10*
G04 #@! TO.C,F1*
G36*
X71755903Y-157126548D02*
X71803246Y-157133571D01*
X71849672Y-157145200D01*
X71894735Y-157161324D01*
X71938000Y-157181787D01*
X71979052Y-157206392D01*
X72017494Y-157234903D01*
X72052956Y-157267044D01*
X72085097Y-157302506D01*
X72113608Y-157340948D01*
X72138213Y-157382000D01*
X72158676Y-157425265D01*
X72174800Y-157470328D01*
X72186429Y-157516754D01*
X72193452Y-157564097D01*
X72195800Y-157611900D01*
X72195800Y-162388100D01*
X72193452Y-162435903D01*
X72186429Y-162483246D01*
X72174800Y-162529672D01*
X72158676Y-162574735D01*
X72138213Y-162618000D01*
X72113608Y-162659052D01*
X72085097Y-162697494D01*
X72052956Y-162732956D01*
X72017494Y-162765097D01*
X71979052Y-162793608D01*
X71938000Y-162818213D01*
X71894735Y-162838676D01*
X71849672Y-162854800D01*
X71803246Y-162866429D01*
X71755903Y-162873452D01*
X71708100Y-162875800D01*
X68781900Y-162875800D01*
X68734097Y-162873452D01*
X68686754Y-162866429D01*
X68640328Y-162854800D01*
X68595265Y-162838676D01*
X68552000Y-162818213D01*
X68510948Y-162793608D01*
X68472506Y-162765097D01*
X68437044Y-162732956D01*
X68404903Y-162697494D01*
X68376392Y-162659052D01*
X68351787Y-162618000D01*
X68331324Y-162574735D01*
X68315200Y-162529672D01*
X68303571Y-162483246D01*
X68296548Y-162435903D01*
X68294200Y-162388100D01*
X68294200Y-157611900D01*
X68296548Y-157564097D01*
X68303571Y-157516754D01*
X68315200Y-157470328D01*
X68331324Y-157425265D01*
X68351787Y-157382000D01*
X68376392Y-157340948D01*
X68404903Y-157302506D01*
X68437044Y-157267044D01*
X68472506Y-157234903D01*
X68510948Y-157206392D01*
X68552000Y-157181787D01*
X68595265Y-157161324D01*
X68640328Y-157145200D01*
X68686754Y-157133571D01*
X68734097Y-157126548D01*
X68781900Y-157124200D01*
X71708100Y-157124200D01*
X71755903Y-157126548D01*
X71755903Y-157126548D01*
G37*
D14*
X70245000Y-160000000D03*
D10*
G36*
X81265903Y-157126548D02*
X81313246Y-157133571D01*
X81359672Y-157145200D01*
X81404735Y-157161324D01*
X81448000Y-157181787D01*
X81489052Y-157206392D01*
X81527494Y-157234903D01*
X81562956Y-157267044D01*
X81595097Y-157302506D01*
X81623608Y-157340948D01*
X81648213Y-157382000D01*
X81668676Y-157425265D01*
X81684800Y-157470328D01*
X81696429Y-157516754D01*
X81703452Y-157564097D01*
X81705800Y-157611900D01*
X81705800Y-162388100D01*
X81703452Y-162435903D01*
X81696429Y-162483246D01*
X81684800Y-162529672D01*
X81668676Y-162574735D01*
X81648213Y-162618000D01*
X81623608Y-162659052D01*
X81595097Y-162697494D01*
X81562956Y-162732956D01*
X81527494Y-162765097D01*
X81489052Y-162793608D01*
X81448000Y-162818213D01*
X81404735Y-162838676D01*
X81359672Y-162854800D01*
X81313246Y-162866429D01*
X81265903Y-162873452D01*
X81218100Y-162875800D01*
X78291900Y-162875800D01*
X78244097Y-162873452D01*
X78196754Y-162866429D01*
X78150328Y-162854800D01*
X78105265Y-162838676D01*
X78062000Y-162818213D01*
X78020948Y-162793608D01*
X77982506Y-162765097D01*
X77947044Y-162732956D01*
X77914903Y-162697494D01*
X77886392Y-162659052D01*
X77861787Y-162618000D01*
X77841324Y-162574735D01*
X77825200Y-162529672D01*
X77813571Y-162483246D01*
X77806548Y-162435903D01*
X77804200Y-162388100D01*
X77804200Y-157611900D01*
X77806548Y-157564097D01*
X77813571Y-157516754D01*
X77825200Y-157470328D01*
X77841324Y-157425265D01*
X77861787Y-157382000D01*
X77886392Y-157340948D01*
X77914903Y-157302506D01*
X77947044Y-157267044D01*
X77982506Y-157234903D01*
X78020948Y-157206392D01*
X78062000Y-157181787D01*
X78105265Y-157161324D01*
X78150328Y-157145200D01*
X78196754Y-157133571D01*
X78244097Y-157126548D01*
X78291900Y-157124200D01*
X81218100Y-157124200D01*
X81265903Y-157126548D01*
X81265903Y-157126548D01*
G37*
D14*
X79755000Y-160000000D03*
G04 #@! TD*
D15*
G04 #@! TO.C,J1*
X65105000Y-40675000D03*
X65105000Y-38135000D03*
X62565000Y-40675000D03*
X62565000Y-38135000D03*
X60025000Y-40675000D03*
X60025000Y-38135000D03*
X57485000Y-40675000D03*
X57485000Y-38135000D03*
X54945000Y-40675000D03*
D16*
X54945000Y-38135000D03*
G04 #@! TD*
D15*
G04 #@! TO.C,J2*
X61295000Y-81950000D03*
X61295000Y-79410000D03*
X61295000Y-76870000D03*
X61295000Y-74330000D03*
D16*
X61295000Y-71790000D03*
G04 #@! TD*
D17*
G04 #@! TO.C,J5*
X117600000Y-173390000D03*
X110400000Y-173390000D03*
G04 #@! TD*
D18*
G04 #@! TO.C,R78*
X69344360Y-42156664D03*
D12*
X76964360Y-42156664D03*
G04 #@! TD*
D19*
G04 #@! TO.C,J4*
X119000000Y-161925000D03*
X116500000Y-161925000D03*
X114000000Y-161925000D03*
X111500000Y-161925000D03*
D20*
X109000000Y-161925000D03*
G04 #@! TD*
D21*
G04 #@! TO.C,J3*
X142783324Y-32826404D03*
D22*
X142673681Y-32886432D02*
X142892967Y-32766376D01*
D21*
X143983883Y-35019269D03*
D22*
X143874240Y-35079297D02*
X144093526Y-34959241D01*
D21*
X145184441Y-37212135D03*
D22*
X145074798Y-37272163D02*
X145294084Y-37152107D01*
D21*
X146385000Y-39405000D03*
D10*
G36*
X147717362Y-39702520D02*
X145917809Y-40687747D01*
X145052638Y-39107480D01*
X146852191Y-38122253D01*
X147717362Y-39702520D01*
X147717362Y-39702520D01*
G37*
G04 #@! TD*
D23*
G04 #@! TO.C,L2*
X132000000Y-33690000D03*
X96000000Y-33690000D03*
G04 #@! TD*
M02*
