G04 #@! TF.GenerationSoftware,KiCad,Pcbnew,(5.0.0)*
G04 #@! TF.CreationDate,2019-02-19T22:24:29-05:00*
G04 #@! TF.ProjectId,FusIon Pack,467573496F6E205061636B2E6B696361,rev?*
G04 #@! TF.SameCoordinates,Original*
G04 #@! TF.FileFunction,Legend,Bot*
G04 #@! TF.FilePolarity,Positive*
%FSLAX46Y46*%
G04 Gerber Fmt 4.6, Leading zero omitted, Abs format (unit mm)*
G04 Created by KiCad (PCBNEW (5.0.0)) date 02/19/19 22:24:29*
%MOMM*%
%LPD*%
G01*
G04 APERTURE LIST*
%ADD10C,0.120000*%
%ADD11C,0.254000*%
%ADD12C,0.381000*%
%ADD13C,0.200000*%
%ADD14C,0.300000*%
%ADD15C,0.100000*%
%ADD16C,1.601600*%
%ADD17C,1.701600*%
%ADD18R,1.701600X1.701600*%
%ADD19C,3.901600*%
%ADD20O,1.801600X1.801600*%
%ADD21R,1.801600X1.801600*%
%ADD22C,6.601600*%
%ADD23O,1.701600X1.701600*%
%ADD24O,1.801600X2.051600*%
%ADD25R,1.801600X2.051600*%
%ADD26C,1.801600*%
%ADD27C,1.801600*%
%ADD28C,3.101600*%
G04 APERTURE END LIST*
D10*
G04 #@! TO.C,C52*
X95939698Y-36690000D02*
X95939698Y-37490000D01*
X96339698Y-37090000D02*
X95539698Y-37090000D01*
X87849000Y-38872000D02*
X87849000Y-39938000D01*
X87889000Y-38637000D02*
X87889000Y-40173000D01*
X87929000Y-38457000D02*
X87929000Y-40353000D01*
X87969000Y-38307000D02*
X87969000Y-40503000D01*
X88009000Y-38176000D02*
X88009000Y-40634000D01*
X88049000Y-38059000D02*
X88049000Y-40751000D01*
X88089000Y-37952000D02*
X88089000Y-40858000D01*
X88129000Y-37853000D02*
X88129000Y-40957000D01*
X88169000Y-37760000D02*
X88169000Y-41050000D01*
X88209000Y-37674000D02*
X88209000Y-41136000D01*
X88249000Y-37592000D02*
X88249000Y-41218000D01*
X88289000Y-37515000D02*
X88289000Y-41295000D01*
X88329000Y-37441000D02*
X88329000Y-41369000D01*
X88369000Y-37371000D02*
X88369000Y-41439000D01*
X88409000Y-37303000D02*
X88409000Y-41507000D01*
X88449000Y-37239000D02*
X88449000Y-41571000D01*
X88489000Y-37177000D02*
X88489000Y-41633000D01*
X88529000Y-37118000D02*
X88529000Y-41692000D01*
X88569000Y-37060000D02*
X88569000Y-41750000D01*
X88609000Y-37005000D02*
X88609000Y-41805000D01*
X88649000Y-36951000D02*
X88649000Y-41859000D01*
X88689000Y-36900000D02*
X88689000Y-41910000D01*
X88729000Y-36849000D02*
X88729000Y-41961000D01*
X88769000Y-36801000D02*
X88769000Y-42009000D01*
X88809000Y-36754000D02*
X88809000Y-42056000D01*
X88849000Y-36708000D02*
X88849000Y-42102000D01*
X88889000Y-36664000D02*
X88889000Y-42146000D01*
X88929000Y-36621000D02*
X88929000Y-42189000D01*
X88969000Y-36579000D02*
X88969000Y-42231000D01*
X89009000Y-36538000D02*
X89009000Y-42272000D01*
X89049000Y-36498000D02*
X89049000Y-42312000D01*
X89089000Y-36460000D02*
X89089000Y-42350000D01*
X89129000Y-36422000D02*
X89129000Y-42388000D01*
X89169000Y-40445000D02*
X89169000Y-42424000D01*
X89169000Y-36386000D02*
X89169000Y-38365000D01*
X89209000Y-40445000D02*
X89209000Y-42460000D01*
X89209000Y-36350000D02*
X89209000Y-38365000D01*
X89249000Y-40445000D02*
X89249000Y-42495000D01*
X89249000Y-36315000D02*
X89249000Y-38365000D01*
X89289000Y-40445000D02*
X89289000Y-42529000D01*
X89289000Y-36281000D02*
X89289000Y-38365000D01*
X89329000Y-40445000D02*
X89329000Y-42561000D01*
X89329000Y-36249000D02*
X89329000Y-38365000D01*
X89369000Y-40445000D02*
X89369000Y-42594000D01*
X89369000Y-36216000D02*
X89369000Y-38365000D01*
X89409000Y-40445000D02*
X89409000Y-42625000D01*
X89409000Y-36185000D02*
X89409000Y-38365000D01*
X89449000Y-40445000D02*
X89449000Y-42655000D01*
X89449000Y-36155000D02*
X89449000Y-38365000D01*
X89489000Y-40445000D02*
X89489000Y-42685000D01*
X89489000Y-36125000D02*
X89489000Y-38365000D01*
X89529000Y-40445000D02*
X89529000Y-42714000D01*
X89529000Y-36096000D02*
X89529000Y-38365000D01*
X89569000Y-40445000D02*
X89569000Y-42743000D01*
X89569000Y-36067000D02*
X89569000Y-38365000D01*
X89609000Y-40445000D02*
X89609000Y-42770000D01*
X89609000Y-36040000D02*
X89609000Y-38365000D01*
X89649000Y-40445000D02*
X89649000Y-42797000D01*
X89649000Y-36013000D02*
X89649000Y-38365000D01*
X89689000Y-40445000D02*
X89689000Y-42823000D01*
X89689000Y-35987000D02*
X89689000Y-38365000D01*
X89729000Y-40445000D02*
X89729000Y-42849000D01*
X89729000Y-35961000D02*
X89729000Y-38365000D01*
X89769000Y-40445000D02*
X89769000Y-42874000D01*
X89769000Y-35936000D02*
X89769000Y-38365000D01*
X89809000Y-40445000D02*
X89809000Y-42898000D01*
X89809000Y-35912000D02*
X89809000Y-38365000D01*
X89849000Y-40445000D02*
X89849000Y-42922000D01*
X89849000Y-35888000D02*
X89849000Y-38365000D01*
X89889000Y-40445000D02*
X89889000Y-42945000D01*
X89889000Y-35865000D02*
X89889000Y-38365000D01*
X89929000Y-40445000D02*
X89929000Y-42967000D01*
X89929000Y-35843000D02*
X89929000Y-38365000D01*
X89969000Y-40445000D02*
X89969000Y-42989000D01*
X89969000Y-35821000D02*
X89969000Y-38365000D01*
X90009000Y-40445000D02*
X90009000Y-43011000D01*
X90009000Y-35799000D02*
X90009000Y-38365000D01*
X90049000Y-40445000D02*
X90049000Y-43032000D01*
X90049000Y-35778000D02*
X90049000Y-38365000D01*
X90089000Y-40445000D02*
X90089000Y-43052000D01*
X90089000Y-35758000D02*
X90089000Y-38365000D01*
X90129000Y-40445000D02*
X90129000Y-43071000D01*
X90129000Y-35739000D02*
X90129000Y-38365000D01*
X90169000Y-40445000D02*
X90169000Y-43091000D01*
X90169000Y-35719000D02*
X90169000Y-38365000D01*
X90209000Y-40445000D02*
X90209000Y-43109000D01*
X90209000Y-35701000D02*
X90209000Y-38365000D01*
X90249000Y-40445000D02*
X90249000Y-43127000D01*
X90249000Y-35683000D02*
X90249000Y-38365000D01*
X90289000Y-40445000D02*
X90289000Y-43145000D01*
X90289000Y-35665000D02*
X90289000Y-38365000D01*
X90329000Y-40445000D02*
X90329000Y-43162000D01*
X90329000Y-35648000D02*
X90329000Y-38365000D01*
X90369000Y-40445000D02*
X90369000Y-43179000D01*
X90369000Y-35631000D02*
X90369000Y-38365000D01*
X90409000Y-40445000D02*
X90409000Y-43195000D01*
X90409000Y-35615000D02*
X90409000Y-38365000D01*
X90449000Y-40445000D02*
X90449000Y-43210000D01*
X90449000Y-35600000D02*
X90449000Y-38365000D01*
X90489000Y-40445000D02*
X90489000Y-43226000D01*
X90489000Y-35584000D02*
X90489000Y-38365000D01*
X90529000Y-40445000D02*
X90529000Y-43240000D01*
X90529000Y-35570000D02*
X90529000Y-38365000D01*
X90569000Y-40445000D02*
X90569000Y-43255000D01*
X90569000Y-35555000D02*
X90569000Y-38365000D01*
X90609000Y-40445000D02*
X90609000Y-43268000D01*
X90609000Y-35542000D02*
X90609000Y-38365000D01*
X90649000Y-40445000D02*
X90649000Y-43282000D01*
X90649000Y-35528000D02*
X90649000Y-38365000D01*
X90689000Y-40445000D02*
X90689000Y-43294000D01*
X90689000Y-35516000D02*
X90689000Y-38365000D01*
X90729000Y-40445000D02*
X90729000Y-43307000D01*
X90729000Y-35503000D02*
X90729000Y-38365000D01*
X90769000Y-40445000D02*
X90769000Y-43319000D01*
X90769000Y-35491000D02*
X90769000Y-38365000D01*
X90809000Y-40445000D02*
X90809000Y-43330000D01*
X90809000Y-35480000D02*
X90809000Y-38365000D01*
X90849000Y-40445000D02*
X90849000Y-43341000D01*
X90849000Y-35469000D02*
X90849000Y-38365000D01*
X90889000Y-40445000D02*
X90889000Y-43352000D01*
X90889000Y-35458000D02*
X90889000Y-38365000D01*
X90929000Y-40445000D02*
X90929000Y-43362000D01*
X90929000Y-35448000D02*
X90929000Y-38365000D01*
X90969000Y-40445000D02*
X90969000Y-43372000D01*
X90969000Y-35438000D02*
X90969000Y-38365000D01*
X91009000Y-40445000D02*
X91009000Y-43381000D01*
X91009000Y-35429000D02*
X91009000Y-38365000D01*
X91049000Y-40445000D02*
X91049000Y-43390000D01*
X91049000Y-35420000D02*
X91049000Y-38365000D01*
X91089000Y-40445000D02*
X91089000Y-43399000D01*
X91089000Y-35411000D02*
X91089000Y-38365000D01*
X91129000Y-40445000D02*
X91129000Y-43407000D01*
X91129000Y-35403000D02*
X91129000Y-38365000D01*
X91169000Y-40445000D02*
X91169000Y-43415000D01*
X91169000Y-35395000D02*
X91169000Y-38365000D01*
X91209000Y-40445000D02*
X91209000Y-43422000D01*
X91209000Y-35388000D02*
X91209000Y-38365000D01*
X91250000Y-35381000D02*
X91250000Y-43429000D01*
X91290000Y-35375000D02*
X91290000Y-43435000D01*
X91330000Y-35368000D02*
X91330000Y-43442000D01*
X91370000Y-35363000D02*
X91370000Y-43447000D01*
X91410000Y-35357000D02*
X91410000Y-43453000D01*
X91450000Y-35353000D02*
X91450000Y-43457000D01*
X91490000Y-35348000D02*
X91490000Y-43462000D01*
X91530000Y-35344000D02*
X91530000Y-43466000D01*
X91570000Y-35340000D02*
X91570000Y-43470000D01*
X91610000Y-35337000D02*
X91610000Y-43473000D01*
X91650000Y-35334000D02*
X91650000Y-43476000D01*
X91690000Y-35331000D02*
X91690000Y-43479000D01*
X91730000Y-35329000D02*
X91730000Y-43481000D01*
X91770000Y-35328000D02*
X91770000Y-43482000D01*
X91810000Y-35326000D02*
X91810000Y-43484000D01*
X91850000Y-35325000D02*
X91850000Y-43485000D01*
X91890000Y-35325000D02*
X91890000Y-43485000D01*
X91930000Y-35325000D02*
X91930000Y-43485000D01*
X96050000Y-39405000D02*
G75*
G03X96050000Y-39405000I-4120000J0D01*
G01*
G04 #@! TO.C,C57*
X132060302Y-42120000D02*
X132060302Y-41320000D01*
X131660302Y-41720000D02*
X132460302Y-41720000D01*
X140151000Y-39938000D02*
X140151000Y-38872000D01*
X140111000Y-40173000D02*
X140111000Y-38637000D01*
X140071000Y-40353000D02*
X140071000Y-38457000D01*
X140031000Y-40503000D02*
X140031000Y-38307000D01*
X139991000Y-40634000D02*
X139991000Y-38176000D01*
X139951000Y-40751000D02*
X139951000Y-38059000D01*
X139911000Y-40858000D02*
X139911000Y-37952000D01*
X139871000Y-40957000D02*
X139871000Y-37853000D01*
X139831000Y-41050000D02*
X139831000Y-37760000D01*
X139791000Y-41136000D02*
X139791000Y-37674000D01*
X139751000Y-41218000D02*
X139751000Y-37592000D01*
X139711000Y-41295000D02*
X139711000Y-37515000D01*
X139671000Y-41369000D02*
X139671000Y-37441000D01*
X139631000Y-41439000D02*
X139631000Y-37371000D01*
X139591000Y-41507000D02*
X139591000Y-37303000D01*
X139551000Y-41571000D02*
X139551000Y-37239000D01*
X139511000Y-41633000D02*
X139511000Y-37177000D01*
X139471000Y-41692000D02*
X139471000Y-37118000D01*
X139431000Y-41750000D02*
X139431000Y-37060000D01*
X139391000Y-41805000D02*
X139391000Y-37005000D01*
X139351000Y-41859000D02*
X139351000Y-36951000D01*
X139311000Y-41910000D02*
X139311000Y-36900000D01*
X139271000Y-41961000D02*
X139271000Y-36849000D01*
X139231000Y-42009000D02*
X139231000Y-36801000D01*
X139191000Y-42056000D02*
X139191000Y-36754000D01*
X139151000Y-42102000D02*
X139151000Y-36708000D01*
X139111000Y-42146000D02*
X139111000Y-36664000D01*
X139071000Y-42189000D02*
X139071000Y-36621000D01*
X139031000Y-42231000D02*
X139031000Y-36579000D01*
X138991000Y-42272000D02*
X138991000Y-36538000D01*
X138951000Y-42312000D02*
X138951000Y-36498000D01*
X138911000Y-42350000D02*
X138911000Y-36460000D01*
X138871000Y-42388000D02*
X138871000Y-36422000D01*
X138831000Y-38365000D02*
X138831000Y-36386000D01*
X138831000Y-42424000D02*
X138831000Y-40445000D01*
X138791000Y-38365000D02*
X138791000Y-36350000D01*
X138791000Y-42460000D02*
X138791000Y-40445000D01*
X138751000Y-38365000D02*
X138751000Y-36315000D01*
X138751000Y-42495000D02*
X138751000Y-40445000D01*
X138711000Y-38365000D02*
X138711000Y-36281000D01*
X138711000Y-42529000D02*
X138711000Y-40445000D01*
X138671000Y-38365000D02*
X138671000Y-36249000D01*
X138671000Y-42561000D02*
X138671000Y-40445000D01*
X138631000Y-38365000D02*
X138631000Y-36216000D01*
X138631000Y-42594000D02*
X138631000Y-40445000D01*
X138591000Y-38365000D02*
X138591000Y-36185000D01*
X138591000Y-42625000D02*
X138591000Y-40445000D01*
X138551000Y-38365000D02*
X138551000Y-36155000D01*
X138551000Y-42655000D02*
X138551000Y-40445000D01*
X138511000Y-38365000D02*
X138511000Y-36125000D01*
X138511000Y-42685000D02*
X138511000Y-40445000D01*
X138471000Y-38365000D02*
X138471000Y-36096000D01*
X138471000Y-42714000D02*
X138471000Y-40445000D01*
X138431000Y-38365000D02*
X138431000Y-36067000D01*
X138431000Y-42743000D02*
X138431000Y-40445000D01*
X138391000Y-38365000D02*
X138391000Y-36040000D01*
X138391000Y-42770000D02*
X138391000Y-40445000D01*
X138351000Y-38365000D02*
X138351000Y-36013000D01*
X138351000Y-42797000D02*
X138351000Y-40445000D01*
X138311000Y-38365000D02*
X138311000Y-35987000D01*
X138311000Y-42823000D02*
X138311000Y-40445000D01*
X138271000Y-38365000D02*
X138271000Y-35961000D01*
X138271000Y-42849000D02*
X138271000Y-40445000D01*
X138231000Y-38365000D02*
X138231000Y-35936000D01*
X138231000Y-42874000D02*
X138231000Y-40445000D01*
X138191000Y-38365000D02*
X138191000Y-35912000D01*
X138191000Y-42898000D02*
X138191000Y-40445000D01*
X138151000Y-38365000D02*
X138151000Y-35888000D01*
X138151000Y-42922000D02*
X138151000Y-40445000D01*
X138111000Y-38365000D02*
X138111000Y-35865000D01*
X138111000Y-42945000D02*
X138111000Y-40445000D01*
X138071000Y-38365000D02*
X138071000Y-35843000D01*
X138071000Y-42967000D02*
X138071000Y-40445000D01*
X138031000Y-38365000D02*
X138031000Y-35821000D01*
X138031000Y-42989000D02*
X138031000Y-40445000D01*
X137991000Y-38365000D02*
X137991000Y-35799000D01*
X137991000Y-43011000D02*
X137991000Y-40445000D01*
X137951000Y-38365000D02*
X137951000Y-35778000D01*
X137951000Y-43032000D02*
X137951000Y-40445000D01*
X137911000Y-38365000D02*
X137911000Y-35758000D01*
X137911000Y-43052000D02*
X137911000Y-40445000D01*
X137871000Y-38365000D02*
X137871000Y-35739000D01*
X137871000Y-43071000D02*
X137871000Y-40445000D01*
X137831000Y-38365000D02*
X137831000Y-35719000D01*
X137831000Y-43091000D02*
X137831000Y-40445000D01*
X137791000Y-38365000D02*
X137791000Y-35701000D01*
X137791000Y-43109000D02*
X137791000Y-40445000D01*
X137751000Y-38365000D02*
X137751000Y-35683000D01*
X137751000Y-43127000D02*
X137751000Y-40445000D01*
X137711000Y-38365000D02*
X137711000Y-35665000D01*
X137711000Y-43145000D02*
X137711000Y-40445000D01*
X137671000Y-38365000D02*
X137671000Y-35648000D01*
X137671000Y-43162000D02*
X137671000Y-40445000D01*
X137631000Y-38365000D02*
X137631000Y-35631000D01*
X137631000Y-43179000D02*
X137631000Y-40445000D01*
X137591000Y-38365000D02*
X137591000Y-35615000D01*
X137591000Y-43195000D02*
X137591000Y-40445000D01*
X137551000Y-38365000D02*
X137551000Y-35600000D01*
X137551000Y-43210000D02*
X137551000Y-40445000D01*
X137511000Y-38365000D02*
X137511000Y-35584000D01*
X137511000Y-43226000D02*
X137511000Y-40445000D01*
X137471000Y-38365000D02*
X137471000Y-35570000D01*
X137471000Y-43240000D02*
X137471000Y-40445000D01*
X137431000Y-38365000D02*
X137431000Y-35555000D01*
X137431000Y-43255000D02*
X137431000Y-40445000D01*
X137391000Y-38365000D02*
X137391000Y-35542000D01*
X137391000Y-43268000D02*
X137391000Y-40445000D01*
X137351000Y-38365000D02*
X137351000Y-35528000D01*
X137351000Y-43282000D02*
X137351000Y-40445000D01*
X137311000Y-38365000D02*
X137311000Y-35516000D01*
X137311000Y-43294000D02*
X137311000Y-40445000D01*
X137271000Y-38365000D02*
X137271000Y-35503000D01*
X137271000Y-43307000D02*
X137271000Y-40445000D01*
X137231000Y-38365000D02*
X137231000Y-35491000D01*
X137231000Y-43319000D02*
X137231000Y-40445000D01*
X137191000Y-38365000D02*
X137191000Y-35480000D01*
X137191000Y-43330000D02*
X137191000Y-40445000D01*
X137151000Y-38365000D02*
X137151000Y-35469000D01*
X137151000Y-43341000D02*
X137151000Y-40445000D01*
X137111000Y-38365000D02*
X137111000Y-35458000D01*
X137111000Y-43352000D02*
X137111000Y-40445000D01*
X137071000Y-38365000D02*
X137071000Y-35448000D01*
X137071000Y-43362000D02*
X137071000Y-40445000D01*
X137031000Y-38365000D02*
X137031000Y-35438000D01*
X137031000Y-43372000D02*
X137031000Y-40445000D01*
X136991000Y-38365000D02*
X136991000Y-35429000D01*
X136991000Y-43381000D02*
X136991000Y-40445000D01*
X136951000Y-38365000D02*
X136951000Y-35420000D01*
X136951000Y-43390000D02*
X136951000Y-40445000D01*
X136911000Y-38365000D02*
X136911000Y-35411000D01*
X136911000Y-43399000D02*
X136911000Y-40445000D01*
X136871000Y-38365000D02*
X136871000Y-35403000D01*
X136871000Y-43407000D02*
X136871000Y-40445000D01*
X136831000Y-38365000D02*
X136831000Y-35395000D01*
X136831000Y-43415000D02*
X136831000Y-40445000D01*
X136791000Y-38365000D02*
X136791000Y-35388000D01*
X136791000Y-43422000D02*
X136791000Y-40445000D01*
X136750000Y-43429000D02*
X136750000Y-35381000D01*
X136710000Y-43435000D02*
X136710000Y-35375000D01*
X136670000Y-43442000D02*
X136670000Y-35368000D01*
X136630000Y-43447000D02*
X136630000Y-35363000D01*
X136590000Y-43453000D02*
X136590000Y-35357000D01*
X136550000Y-43457000D02*
X136550000Y-35353000D01*
X136510000Y-43462000D02*
X136510000Y-35348000D01*
X136470000Y-43466000D02*
X136470000Y-35344000D01*
X136430000Y-43470000D02*
X136430000Y-35340000D01*
X136390000Y-43473000D02*
X136390000Y-35337000D01*
X136350000Y-43476000D02*
X136350000Y-35334000D01*
X136310000Y-43479000D02*
X136310000Y-35331000D01*
X136270000Y-43481000D02*
X136270000Y-35329000D01*
X136230000Y-43482000D02*
X136230000Y-35328000D01*
X136190000Y-43484000D02*
X136190000Y-35326000D01*
X136150000Y-43485000D02*
X136150000Y-35325000D01*
X136110000Y-43485000D02*
X136110000Y-35325000D01*
X136070000Y-43485000D02*
X136070000Y-35325000D01*
X140190000Y-39405000D02*
G75*
G03X140190000Y-39405000I-4120000J0D01*
G01*
D11*
G04 #@! TO.C,F1*
X77391210Y-160000000D02*
G75*
G03X77391210Y-160000000I-359210J0D01*
G01*
X73327210Y-160000000D02*
G75*
G03X73327210Y-160000000I-359210J0D01*
G01*
X73112619Y-160326920D02*
G75*
G03X75000000Y-160000000I871381J580920D01*
G01*
X76887381Y-159673080D02*
G75*
G03X75000000Y-160000000I-871381J-580920D01*
G01*
D12*
X72460000Y-162286000D02*
X77540000Y-162286000D01*
X77540000Y-157714000D02*
X72460000Y-157714000D01*
D10*
G04 #@! TO.C,J1*
X53615000Y-36805000D02*
X53615000Y-38135000D01*
X54945000Y-36805000D02*
X53615000Y-36805000D01*
X53615000Y-39405000D02*
X53615000Y-42005000D01*
X56215000Y-39405000D02*
X53615000Y-39405000D01*
X56215000Y-36805000D02*
X56215000Y-39405000D01*
X53615000Y-42005000D02*
X66435000Y-42005000D01*
X56215000Y-36805000D02*
X66435000Y-36805000D01*
X66435000Y-36805000D02*
X66435000Y-42005000D01*
D13*
G04 #@! TO.C,J5*
X114450000Y-169990000D02*
X118500000Y-169990000D01*
X113550000Y-170840000D02*
X113550000Y-169990000D01*
X114450000Y-170840000D02*
X114450000Y-169990000D01*
X113550000Y-170840000D02*
X114450000Y-170840000D01*
D14*
X106200000Y-177515000D02*
X118700000Y-177515000D01*
D13*
X107000000Y-176790000D02*
X118500000Y-176790000D01*
X121000000Y-174890000D02*
X121000000Y-171890000D01*
X118500000Y-176790000D02*
X121000000Y-174890000D01*
X118500000Y-169990000D02*
X121000000Y-171890000D01*
X107000000Y-169990000D02*
X113550000Y-169990000D01*
X107000000Y-176790000D02*
X107000000Y-169990000D01*
D14*
X118700000Y-169265000D02*
X121800000Y-171640000D01*
X121800000Y-175140000D02*
X121800000Y-171640000D01*
X118700000Y-177515000D02*
X121800000Y-175140000D01*
X106200000Y-177515000D02*
X106200000Y-169265000D01*
X106200000Y-169265000D02*
X118700000Y-169265000D01*
D10*
G04 #@! TO.C,J4*
X106150000Y-164675000D02*
X106150000Y-163425000D01*
X107400000Y-164675000D02*
X106150000Y-164675000D01*
X120800000Y-159175000D02*
X114000000Y-159175000D01*
X120800000Y-162125000D02*
X120800000Y-159175000D01*
X121550000Y-162125000D02*
X120800000Y-162125000D01*
X107200000Y-159175000D02*
X114000000Y-159175000D01*
X107200000Y-162125000D02*
X107200000Y-159175000D01*
X106450000Y-162125000D02*
X107200000Y-162125000D01*
X121550000Y-164375000D02*
X119750000Y-164375000D01*
X121550000Y-163625000D02*
X121550000Y-164375000D01*
X119750000Y-163625000D02*
X121550000Y-163625000D01*
X119750000Y-164375000D02*
X119750000Y-163625000D01*
X108250000Y-164375000D02*
X106450000Y-164375000D01*
X108250000Y-163625000D02*
X108250000Y-164375000D01*
X106450000Y-163625000D02*
X108250000Y-163625000D01*
X106450000Y-164375000D02*
X106450000Y-163625000D01*
X118250000Y-164375000D02*
X109750000Y-164375000D01*
X118250000Y-163625000D02*
X118250000Y-164375000D01*
X109750000Y-163625000D02*
X118250000Y-163625000D01*
X109750000Y-164375000D02*
X109750000Y-163625000D01*
X121560000Y-164385000D02*
X106440000Y-164385000D01*
X121560000Y-158415000D02*
X121560000Y-164385000D01*
X106440000Y-158415000D02*
X121560000Y-158415000D01*
X106440000Y-164385000D02*
X106440000Y-158415000D01*
G04 #@! TO.C,J3*
X150165789Y-40584252D02*
X149069356Y-41184531D01*
X149565510Y-39487819D02*
X150165789Y-40584252D01*
X139506770Y-32568155D02*
X142172010Y-37436317D01*
X142094351Y-31151496D02*
X139506770Y-32568155D01*
X141734183Y-30493636D02*
X142094351Y-31151496D01*
X144837250Y-42304478D02*
X142172010Y-37436317D01*
X147424832Y-40887818D02*
X144837250Y-42304478D01*
X147784999Y-41545678D02*
X147424832Y-40887818D01*
X143707762Y-29413133D02*
X144572164Y-30991997D01*
X143049902Y-29773301D02*
X143707762Y-29413133D01*
X143914305Y-31352164D02*
X143049902Y-29773301D01*
X144572164Y-30991997D02*
X143914305Y-31352164D01*
X148894176Y-38886312D02*
X149758578Y-40465175D01*
X148236316Y-39246480D02*
X148894176Y-38886312D01*
X149100718Y-40825343D02*
X148236316Y-39246480D01*
X149758578Y-40465175D02*
X149100718Y-40825343D01*
X145292499Y-32307716D02*
X148173840Y-37570593D01*
X144634640Y-32667883D02*
X145292499Y-32307716D01*
X147515981Y-37930760D02*
X144634640Y-32667883D01*
X148173840Y-37570593D02*
X147515981Y-37930760D01*
X143711731Y-29399560D02*
X149772152Y-40469144D01*
X138475169Y-32266494D02*
X143711731Y-29399560D01*
X144535589Y-43336079D02*
X138475169Y-32266494D01*
X149772152Y-40469144D02*
X144535589Y-43336079D01*
D12*
G04 #@! TO.C,L2*
X130000000Y-33690000D02*
X128000000Y-33690000D01*
X128000000Y-25690000D02*
X100000000Y-25690000D01*
X128000000Y-41690000D02*
X128000000Y-25690000D01*
X100000000Y-41690000D02*
X128000000Y-41690000D01*
X100000000Y-25690000D02*
X100000000Y-41690000D01*
X98000000Y-33690000D02*
X100000000Y-33690000D01*
G04 #@! TO.C,J5*
D13*
X114333333Y-176342380D02*
X114333333Y-175342380D01*
X114000000Y-176056666D01*
X113666666Y-175342380D01*
X113666666Y-176342380D01*
X108060952Y-176251428D02*
X107299047Y-176251428D01*
X107680000Y-176632380D02*
X107680000Y-175870476D01*
G04 #@! TD*
%LPC*%
D15*
G04 #@! TO.C,BT1*
G36*
X44189646Y-137451128D02*
X44228514Y-137456894D01*
X44266630Y-137466441D01*
X44303626Y-137479679D01*
X44339147Y-137496479D01*
X44372850Y-137516680D01*
X44404411Y-137540087D01*
X44433526Y-137566474D01*
X44459913Y-137595589D01*
X44483320Y-137627150D01*
X44503521Y-137660853D01*
X44520321Y-137696374D01*
X44533559Y-137733370D01*
X44543106Y-137771486D01*
X44548872Y-137810354D01*
X44550800Y-137849600D01*
X44550800Y-152150400D01*
X44548872Y-152189646D01*
X44543106Y-152228514D01*
X44533559Y-152266630D01*
X44520321Y-152303626D01*
X44503521Y-152339147D01*
X44483320Y-152372850D01*
X44459913Y-152404411D01*
X44433526Y-152433526D01*
X44404411Y-152459913D01*
X44372850Y-152483320D01*
X44339147Y-152503521D01*
X44303626Y-152520321D01*
X44266630Y-152533559D01*
X44228514Y-152543106D01*
X44189646Y-152548872D01*
X44150400Y-152550800D01*
X43349600Y-152550800D01*
X43310354Y-152548872D01*
X43271486Y-152543106D01*
X43233370Y-152533559D01*
X43196374Y-152520321D01*
X43160853Y-152503521D01*
X43127150Y-152483320D01*
X43095589Y-152459913D01*
X43066474Y-152433526D01*
X43040087Y-152404411D01*
X43016680Y-152372850D01*
X42996479Y-152339147D01*
X42979679Y-152303626D01*
X42966441Y-152266630D01*
X42956894Y-152228514D01*
X42951128Y-152189646D01*
X42949200Y-152150400D01*
X42949200Y-137849600D01*
X42951128Y-137810354D01*
X42956894Y-137771486D01*
X42966441Y-137733370D01*
X42979679Y-137696374D01*
X42996479Y-137660853D01*
X43016680Y-137627150D01*
X43040087Y-137595589D01*
X43066474Y-137566474D01*
X43095589Y-137540087D01*
X43127150Y-137516680D01*
X43160853Y-137496479D01*
X43196374Y-137479679D01*
X43233370Y-137466441D01*
X43271486Y-137456894D01*
X43310354Y-137451128D01*
X43349600Y-137449200D01*
X44150400Y-137449200D01*
X44189646Y-137451128D01*
X44189646Y-137451128D01*
G37*
D16*
X43750000Y-145000000D03*
D15*
G36*
X109189646Y-137451128D02*
X109228514Y-137456894D01*
X109266630Y-137466441D01*
X109303626Y-137479679D01*
X109339147Y-137496479D01*
X109372850Y-137516680D01*
X109404411Y-137540087D01*
X109433526Y-137566474D01*
X109459913Y-137595589D01*
X109483320Y-137627150D01*
X109503521Y-137660853D01*
X109520321Y-137696374D01*
X109533559Y-137733370D01*
X109543106Y-137771486D01*
X109548872Y-137810354D01*
X109550800Y-137849600D01*
X109550800Y-152150400D01*
X109548872Y-152189646D01*
X109543106Y-152228514D01*
X109533559Y-152266630D01*
X109520321Y-152303626D01*
X109503521Y-152339147D01*
X109483320Y-152372850D01*
X109459913Y-152404411D01*
X109433526Y-152433526D01*
X109404411Y-152459913D01*
X109372850Y-152483320D01*
X109339147Y-152503521D01*
X109303626Y-152520321D01*
X109266630Y-152533559D01*
X109228514Y-152543106D01*
X109189646Y-152548872D01*
X109150400Y-152550800D01*
X108349600Y-152550800D01*
X108310354Y-152548872D01*
X108271486Y-152543106D01*
X108233370Y-152533559D01*
X108196374Y-152520321D01*
X108160853Y-152503521D01*
X108127150Y-152483320D01*
X108095589Y-152459913D01*
X108066474Y-152433526D01*
X108040087Y-152404411D01*
X108016680Y-152372850D01*
X107996479Y-152339147D01*
X107979679Y-152303626D01*
X107966441Y-152266630D01*
X107956894Y-152228514D01*
X107951128Y-152189646D01*
X107949200Y-152150400D01*
X107949200Y-137849600D01*
X107951128Y-137810354D01*
X107956894Y-137771486D01*
X107966441Y-137733370D01*
X107979679Y-137696374D01*
X107996479Y-137660853D01*
X108016680Y-137627150D01*
X108040087Y-137595589D01*
X108066474Y-137566474D01*
X108095589Y-137540087D01*
X108127150Y-137516680D01*
X108160853Y-137496479D01*
X108196374Y-137479679D01*
X108233370Y-137466441D01*
X108271486Y-137456894D01*
X108310354Y-137451128D01*
X108349600Y-137449200D01*
X109150400Y-137449200D01*
X109189646Y-137451128D01*
X109189646Y-137451128D01*
G37*
D16*
X108750000Y-145000000D03*
G04 #@! TD*
D15*
G04 #@! TO.C,BT2*
G36*
X109189646Y-115451128D02*
X109228514Y-115456894D01*
X109266630Y-115466441D01*
X109303626Y-115479679D01*
X109339147Y-115496479D01*
X109372850Y-115516680D01*
X109404411Y-115540087D01*
X109433526Y-115566474D01*
X109459913Y-115595589D01*
X109483320Y-115627150D01*
X109503521Y-115660853D01*
X109520321Y-115696374D01*
X109533559Y-115733370D01*
X109543106Y-115771486D01*
X109548872Y-115810354D01*
X109550800Y-115849600D01*
X109550800Y-130150400D01*
X109548872Y-130189646D01*
X109543106Y-130228514D01*
X109533559Y-130266630D01*
X109520321Y-130303626D01*
X109503521Y-130339147D01*
X109483320Y-130372850D01*
X109459913Y-130404411D01*
X109433526Y-130433526D01*
X109404411Y-130459913D01*
X109372850Y-130483320D01*
X109339147Y-130503521D01*
X109303626Y-130520321D01*
X109266630Y-130533559D01*
X109228514Y-130543106D01*
X109189646Y-130548872D01*
X109150400Y-130550800D01*
X108349600Y-130550800D01*
X108310354Y-130548872D01*
X108271486Y-130543106D01*
X108233370Y-130533559D01*
X108196374Y-130520321D01*
X108160853Y-130503521D01*
X108127150Y-130483320D01*
X108095589Y-130459913D01*
X108066474Y-130433526D01*
X108040087Y-130404411D01*
X108016680Y-130372850D01*
X107996479Y-130339147D01*
X107979679Y-130303626D01*
X107966441Y-130266630D01*
X107956894Y-130228514D01*
X107951128Y-130189646D01*
X107949200Y-130150400D01*
X107949200Y-115849600D01*
X107951128Y-115810354D01*
X107956894Y-115771486D01*
X107966441Y-115733370D01*
X107979679Y-115696374D01*
X107996479Y-115660853D01*
X108016680Y-115627150D01*
X108040087Y-115595589D01*
X108066474Y-115566474D01*
X108095589Y-115540087D01*
X108127150Y-115516680D01*
X108160853Y-115496479D01*
X108196374Y-115479679D01*
X108233370Y-115466441D01*
X108271486Y-115456894D01*
X108310354Y-115451128D01*
X108349600Y-115449200D01*
X109150400Y-115449200D01*
X109189646Y-115451128D01*
X109189646Y-115451128D01*
G37*
D16*
X108750000Y-123000000D03*
D15*
G36*
X44189646Y-115451128D02*
X44228514Y-115456894D01*
X44266630Y-115466441D01*
X44303626Y-115479679D01*
X44339147Y-115496479D01*
X44372850Y-115516680D01*
X44404411Y-115540087D01*
X44433526Y-115566474D01*
X44459913Y-115595589D01*
X44483320Y-115627150D01*
X44503521Y-115660853D01*
X44520321Y-115696374D01*
X44533559Y-115733370D01*
X44543106Y-115771486D01*
X44548872Y-115810354D01*
X44550800Y-115849600D01*
X44550800Y-130150400D01*
X44548872Y-130189646D01*
X44543106Y-130228514D01*
X44533559Y-130266630D01*
X44520321Y-130303626D01*
X44503521Y-130339147D01*
X44483320Y-130372850D01*
X44459913Y-130404411D01*
X44433526Y-130433526D01*
X44404411Y-130459913D01*
X44372850Y-130483320D01*
X44339147Y-130503521D01*
X44303626Y-130520321D01*
X44266630Y-130533559D01*
X44228514Y-130543106D01*
X44189646Y-130548872D01*
X44150400Y-130550800D01*
X43349600Y-130550800D01*
X43310354Y-130548872D01*
X43271486Y-130543106D01*
X43233370Y-130533559D01*
X43196374Y-130520321D01*
X43160853Y-130503521D01*
X43127150Y-130483320D01*
X43095589Y-130459913D01*
X43066474Y-130433526D01*
X43040087Y-130404411D01*
X43016680Y-130372850D01*
X42996479Y-130339147D01*
X42979679Y-130303626D01*
X42966441Y-130266630D01*
X42956894Y-130228514D01*
X42951128Y-130189646D01*
X42949200Y-130150400D01*
X42949200Y-115849600D01*
X42951128Y-115810354D01*
X42956894Y-115771486D01*
X42966441Y-115733370D01*
X42979679Y-115696374D01*
X42996479Y-115660853D01*
X43016680Y-115627150D01*
X43040087Y-115595589D01*
X43066474Y-115566474D01*
X43095589Y-115540087D01*
X43127150Y-115516680D01*
X43160853Y-115496479D01*
X43196374Y-115479679D01*
X43233370Y-115466441D01*
X43271486Y-115456894D01*
X43310354Y-115451128D01*
X43349600Y-115449200D01*
X44150400Y-115449200D01*
X44189646Y-115451128D01*
X44189646Y-115451128D01*
G37*
D16*
X43750000Y-123000000D03*
G04 #@! TD*
D15*
G04 #@! TO.C,BT3*
G36*
X44189646Y-93451128D02*
X44228514Y-93456894D01*
X44266630Y-93466441D01*
X44303626Y-93479679D01*
X44339147Y-93496479D01*
X44372850Y-93516680D01*
X44404411Y-93540087D01*
X44433526Y-93566474D01*
X44459913Y-93595589D01*
X44483320Y-93627150D01*
X44503521Y-93660853D01*
X44520321Y-93696374D01*
X44533559Y-93733370D01*
X44543106Y-93771486D01*
X44548872Y-93810354D01*
X44550800Y-93849600D01*
X44550800Y-108150400D01*
X44548872Y-108189646D01*
X44543106Y-108228514D01*
X44533559Y-108266630D01*
X44520321Y-108303626D01*
X44503521Y-108339147D01*
X44483320Y-108372850D01*
X44459913Y-108404411D01*
X44433526Y-108433526D01*
X44404411Y-108459913D01*
X44372850Y-108483320D01*
X44339147Y-108503521D01*
X44303626Y-108520321D01*
X44266630Y-108533559D01*
X44228514Y-108543106D01*
X44189646Y-108548872D01*
X44150400Y-108550800D01*
X43349600Y-108550800D01*
X43310354Y-108548872D01*
X43271486Y-108543106D01*
X43233370Y-108533559D01*
X43196374Y-108520321D01*
X43160853Y-108503521D01*
X43127150Y-108483320D01*
X43095589Y-108459913D01*
X43066474Y-108433526D01*
X43040087Y-108404411D01*
X43016680Y-108372850D01*
X42996479Y-108339147D01*
X42979679Y-108303626D01*
X42966441Y-108266630D01*
X42956894Y-108228514D01*
X42951128Y-108189646D01*
X42949200Y-108150400D01*
X42949200Y-93849600D01*
X42951128Y-93810354D01*
X42956894Y-93771486D01*
X42966441Y-93733370D01*
X42979679Y-93696374D01*
X42996479Y-93660853D01*
X43016680Y-93627150D01*
X43040087Y-93595589D01*
X43066474Y-93566474D01*
X43095589Y-93540087D01*
X43127150Y-93516680D01*
X43160853Y-93496479D01*
X43196374Y-93479679D01*
X43233370Y-93466441D01*
X43271486Y-93456894D01*
X43310354Y-93451128D01*
X43349600Y-93449200D01*
X44150400Y-93449200D01*
X44189646Y-93451128D01*
X44189646Y-93451128D01*
G37*
D16*
X43750000Y-101000000D03*
D15*
G36*
X109189646Y-93451128D02*
X109228514Y-93456894D01*
X109266630Y-93466441D01*
X109303626Y-93479679D01*
X109339147Y-93496479D01*
X109372850Y-93516680D01*
X109404411Y-93540087D01*
X109433526Y-93566474D01*
X109459913Y-93595589D01*
X109483320Y-93627150D01*
X109503521Y-93660853D01*
X109520321Y-93696374D01*
X109533559Y-93733370D01*
X109543106Y-93771486D01*
X109548872Y-93810354D01*
X109550800Y-93849600D01*
X109550800Y-108150400D01*
X109548872Y-108189646D01*
X109543106Y-108228514D01*
X109533559Y-108266630D01*
X109520321Y-108303626D01*
X109503521Y-108339147D01*
X109483320Y-108372850D01*
X109459913Y-108404411D01*
X109433526Y-108433526D01*
X109404411Y-108459913D01*
X109372850Y-108483320D01*
X109339147Y-108503521D01*
X109303626Y-108520321D01*
X109266630Y-108533559D01*
X109228514Y-108543106D01*
X109189646Y-108548872D01*
X109150400Y-108550800D01*
X108349600Y-108550800D01*
X108310354Y-108548872D01*
X108271486Y-108543106D01*
X108233370Y-108533559D01*
X108196374Y-108520321D01*
X108160853Y-108503521D01*
X108127150Y-108483320D01*
X108095589Y-108459913D01*
X108066474Y-108433526D01*
X108040087Y-108404411D01*
X108016680Y-108372850D01*
X107996479Y-108339147D01*
X107979679Y-108303626D01*
X107966441Y-108266630D01*
X107956894Y-108228514D01*
X107951128Y-108189646D01*
X107949200Y-108150400D01*
X107949200Y-93849600D01*
X107951128Y-93810354D01*
X107956894Y-93771486D01*
X107966441Y-93733370D01*
X107979679Y-93696374D01*
X107996479Y-93660853D01*
X108016680Y-93627150D01*
X108040087Y-93595589D01*
X108066474Y-93566474D01*
X108095589Y-93540087D01*
X108127150Y-93516680D01*
X108160853Y-93496479D01*
X108196374Y-93479679D01*
X108233370Y-93466441D01*
X108271486Y-93456894D01*
X108310354Y-93451128D01*
X108349600Y-93449200D01*
X109150400Y-93449200D01*
X109189646Y-93451128D01*
X109189646Y-93451128D01*
G37*
D16*
X108750000Y-101000000D03*
G04 #@! TD*
D15*
G04 #@! TO.C,BT4*
G36*
X109189646Y-71451128D02*
X109228514Y-71456894D01*
X109266630Y-71466441D01*
X109303626Y-71479679D01*
X109339147Y-71496479D01*
X109372850Y-71516680D01*
X109404411Y-71540087D01*
X109433526Y-71566474D01*
X109459913Y-71595589D01*
X109483320Y-71627150D01*
X109503521Y-71660853D01*
X109520321Y-71696374D01*
X109533559Y-71733370D01*
X109543106Y-71771486D01*
X109548872Y-71810354D01*
X109550800Y-71849600D01*
X109550800Y-86150400D01*
X109548872Y-86189646D01*
X109543106Y-86228514D01*
X109533559Y-86266630D01*
X109520321Y-86303626D01*
X109503521Y-86339147D01*
X109483320Y-86372850D01*
X109459913Y-86404411D01*
X109433526Y-86433526D01*
X109404411Y-86459913D01*
X109372850Y-86483320D01*
X109339147Y-86503521D01*
X109303626Y-86520321D01*
X109266630Y-86533559D01*
X109228514Y-86543106D01*
X109189646Y-86548872D01*
X109150400Y-86550800D01*
X108349600Y-86550800D01*
X108310354Y-86548872D01*
X108271486Y-86543106D01*
X108233370Y-86533559D01*
X108196374Y-86520321D01*
X108160853Y-86503521D01*
X108127150Y-86483320D01*
X108095589Y-86459913D01*
X108066474Y-86433526D01*
X108040087Y-86404411D01*
X108016680Y-86372850D01*
X107996479Y-86339147D01*
X107979679Y-86303626D01*
X107966441Y-86266630D01*
X107956894Y-86228514D01*
X107951128Y-86189646D01*
X107949200Y-86150400D01*
X107949200Y-71849600D01*
X107951128Y-71810354D01*
X107956894Y-71771486D01*
X107966441Y-71733370D01*
X107979679Y-71696374D01*
X107996479Y-71660853D01*
X108016680Y-71627150D01*
X108040087Y-71595589D01*
X108066474Y-71566474D01*
X108095589Y-71540087D01*
X108127150Y-71516680D01*
X108160853Y-71496479D01*
X108196374Y-71479679D01*
X108233370Y-71466441D01*
X108271486Y-71456894D01*
X108310354Y-71451128D01*
X108349600Y-71449200D01*
X109150400Y-71449200D01*
X109189646Y-71451128D01*
X109189646Y-71451128D01*
G37*
D16*
X108750000Y-79000000D03*
D15*
G36*
X44189646Y-71451128D02*
X44228514Y-71456894D01*
X44266630Y-71466441D01*
X44303626Y-71479679D01*
X44339147Y-71496479D01*
X44372850Y-71516680D01*
X44404411Y-71540087D01*
X44433526Y-71566474D01*
X44459913Y-71595589D01*
X44483320Y-71627150D01*
X44503521Y-71660853D01*
X44520321Y-71696374D01*
X44533559Y-71733370D01*
X44543106Y-71771486D01*
X44548872Y-71810354D01*
X44550800Y-71849600D01*
X44550800Y-86150400D01*
X44548872Y-86189646D01*
X44543106Y-86228514D01*
X44533559Y-86266630D01*
X44520321Y-86303626D01*
X44503521Y-86339147D01*
X44483320Y-86372850D01*
X44459913Y-86404411D01*
X44433526Y-86433526D01*
X44404411Y-86459913D01*
X44372850Y-86483320D01*
X44339147Y-86503521D01*
X44303626Y-86520321D01*
X44266630Y-86533559D01*
X44228514Y-86543106D01*
X44189646Y-86548872D01*
X44150400Y-86550800D01*
X43349600Y-86550800D01*
X43310354Y-86548872D01*
X43271486Y-86543106D01*
X43233370Y-86533559D01*
X43196374Y-86520321D01*
X43160853Y-86503521D01*
X43127150Y-86483320D01*
X43095589Y-86459913D01*
X43066474Y-86433526D01*
X43040087Y-86404411D01*
X43016680Y-86372850D01*
X42996479Y-86339147D01*
X42979679Y-86303626D01*
X42966441Y-86266630D01*
X42956894Y-86228514D01*
X42951128Y-86189646D01*
X42949200Y-86150400D01*
X42949200Y-71849600D01*
X42951128Y-71810354D01*
X42956894Y-71771486D01*
X42966441Y-71733370D01*
X42979679Y-71696374D01*
X42996479Y-71660853D01*
X43016680Y-71627150D01*
X43040087Y-71595589D01*
X43066474Y-71566474D01*
X43095589Y-71540087D01*
X43127150Y-71516680D01*
X43160853Y-71496479D01*
X43196374Y-71479679D01*
X43233370Y-71466441D01*
X43271486Y-71456894D01*
X43310354Y-71451128D01*
X43349600Y-71449200D01*
X44150400Y-71449200D01*
X44189646Y-71451128D01*
X44189646Y-71451128D01*
G37*
D16*
X43750000Y-79000000D03*
G04 #@! TD*
D15*
G04 #@! TO.C,BT5*
G36*
X44189646Y-49451128D02*
X44228514Y-49456894D01*
X44266630Y-49466441D01*
X44303626Y-49479679D01*
X44339147Y-49496479D01*
X44372850Y-49516680D01*
X44404411Y-49540087D01*
X44433526Y-49566474D01*
X44459913Y-49595589D01*
X44483320Y-49627150D01*
X44503521Y-49660853D01*
X44520321Y-49696374D01*
X44533559Y-49733370D01*
X44543106Y-49771486D01*
X44548872Y-49810354D01*
X44550800Y-49849600D01*
X44550800Y-64150400D01*
X44548872Y-64189646D01*
X44543106Y-64228514D01*
X44533559Y-64266630D01*
X44520321Y-64303626D01*
X44503521Y-64339147D01*
X44483320Y-64372850D01*
X44459913Y-64404411D01*
X44433526Y-64433526D01*
X44404411Y-64459913D01*
X44372850Y-64483320D01*
X44339147Y-64503521D01*
X44303626Y-64520321D01*
X44266630Y-64533559D01*
X44228514Y-64543106D01*
X44189646Y-64548872D01*
X44150400Y-64550800D01*
X43349600Y-64550800D01*
X43310354Y-64548872D01*
X43271486Y-64543106D01*
X43233370Y-64533559D01*
X43196374Y-64520321D01*
X43160853Y-64503521D01*
X43127150Y-64483320D01*
X43095589Y-64459913D01*
X43066474Y-64433526D01*
X43040087Y-64404411D01*
X43016680Y-64372850D01*
X42996479Y-64339147D01*
X42979679Y-64303626D01*
X42966441Y-64266630D01*
X42956894Y-64228514D01*
X42951128Y-64189646D01*
X42949200Y-64150400D01*
X42949200Y-49849600D01*
X42951128Y-49810354D01*
X42956894Y-49771486D01*
X42966441Y-49733370D01*
X42979679Y-49696374D01*
X42996479Y-49660853D01*
X43016680Y-49627150D01*
X43040087Y-49595589D01*
X43066474Y-49566474D01*
X43095589Y-49540087D01*
X43127150Y-49516680D01*
X43160853Y-49496479D01*
X43196374Y-49479679D01*
X43233370Y-49466441D01*
X43271486Y-49456894D01*
X43310354Y-49451128D01*
X43349600Y-49449200D01*
X44150400Y-49449200D01*
X44189646Y-49451128D01*
X44189646Y-49451128D01*
G37*
D16*
X43750000Y-57000000D03*
D15*
G36*
X109189646Y-49451128D02*
X109228514Y-49456894D01*
X109266630Y-49466441D01*
X109303626Y-49479679D01*
X109339147Y-49496479D01*
X109372850Y-49516680D01*
X109404411Y-49540087D01*
X109433526Y-49566474D01*
X109459913Y-49595589D01*
X109483320Y-49627150D01*
X109503521Y-49660853D01*
X109520321Y-49696374D01*
X109533559Y-49733370D01*
X109543106Y-49771486D01*
X109548872Y-49810354D01*
X109550800Y-49849600D01*
X109550800Y-64150400D01*
X109548872Y-64189646D01*
X109543106Y-64228514D01*
X109533559Y-64266630D01*
X109520321Y-64303626D01*
X109503521Y-64339147D01*
X109483320Y-64372850D01*
X109459913Y-64404411D01*
X109433526Y-64433526D01*
X109404411Y-64459913D01*
X109372850Y-64483320D01*
X109339147Y-64503521D01*
X109303626Y-64520321D01*
X109266630Y-64533559D01*
X109228514Y-64543106D01*
X109189646Y-64548872D01*
X109150400Y-64550800D01*
X108349600Y-64550800D01*
X108310354Y-64548872D01*
X108271486Y-64543106D01*
X108233370Y-64533559D01*
X108196374Y-64520321D01*
X108160853Y-64503521D01*
X108127150Y-64483320D01*
X108095589Y-64459913D01*
X108066474Y-64433526D01*
X108040087Y-64404411D01*
X108016680Y-64372850D01*
X107996479Y-64339147D01*
X107979679Y-64303626D01*
X107966441Y-64266630D01*
X107956894Y-64228514D01*
X107951128Y-64189646D01*
X107949200Y-64150400D01*
X107949200Y-49849600D01*
X107951128Y-49810354D01*
X107956894Y-49771486D01*
X107966441Y-49733370D01*
X107979679Y-49696374D01*
X107996479Y-49660853D01*
X108016680Y-49627150D01*
X108040087Y-49595589D01*
X108066474Y-49566474D01*
X108095589Y-49540087D01*
X108127150Y-49516680D01*
X108160853Y-49496479D01*
X108196374Y-49479679D01*
X108233370Y-49466441D01*
X108271486Y-49456894D01*
X108310354Y-49451128D01*
X108349600Y-49449200D01*
X109150400Y-49449200D01*
X109189646Y-49451128D01*
X109189646Y-49451128D01*
G37*
D16*
X108750000Y-57000000D03*
G04 #@! TD*
D15*
G04 #@! TO.C,BT6*
G36*
X119689646Y-49451128D02*
X119728514Y-49456894D01*
X119766630Y-49466441D01*
X119803626Y-49479679D01*
X119839147Y-49496479D01*
X119872850Y-49516680D01*
X119904411Y-49540087D01*
X119933526Y-49566474D01*
X119959913Y-49595589D01*
X119983320Y-49627150D01*
X120003521Y-49660853D01*
X120020321Y-49696374D01*
X120033559Y-49733370D01*
X120043106Y-49771486D01*
X120048872Y-49810354D01*
X120050800Y-49849600D01*
X120050800Y-64150400D01*
X120048872Y-64189646D01*
X120043106Y-64228514D01*
X120033559Y-64266630D01*
X120020321Y-64303626D01*
X120003521Y-64339147D01*
X119983320Y-64372850D01*
X119959913Y-64404411D01*
X119933526Y-64433526D01*
X119904411Y-64459913D01*
X119872850Y-64483320D01*
X119839147Y-64503521D01*
X119803626Y-64520321D01*
X119766630Y-64533559D01*
X119728514Y-64543106D01*
X119689646Y-64548872D01*
X119650400Y-64550800D01*
X118849600Y-64550800D01*
X118810354Y-64548872D01*
X118771486Y-64543106D01*
X118733370Y-64533559D01*
X118696374Y-64520321D01*
X118660853Y-64503521D01*
X118627150Y-64483320D01*
X118595589Y-64459913D01*
X118566474Y-64433526D01*
X118540087Y-64404411D01*
X118516680Y-64372850D01*
X118496479Y-64339147D01*
X118479679Y-64303626D01*
X118466441Y-64266630D01*
X118456894Y-64228514D01*
X118451128Y-64189646D01*
X118449200Y-64150400D01*
X118449200Y-49849600D01*
X118451128Y-49810354D01*
X118456894Y-49771486D01*
X118466441Y-49733370D01*
X118479679Y-49696374D01*
X118496479Y-49660853D01*
X118516680Y-49627150D01*
X118540087Y-49595589D01*
X118566474Y-49566474D01*
X118595589Y-49540087D01*
X118627150Y-49516680D01*
X118660853Y-49496479D01*
X118696374Y-49479679D01*
X118733370Y-49466441D01*
X118771486Y-49456894D01*
X118810354Y-49451128D01*
X118849600Y-49449200D01*
X119650400Y-49449200D01*
X119689646Y-49451128D01*
X119689646Y-49451128D01*
G37*
D16*
X119250000Y-57000000D03*
D15*
G36*
X184689646Y-49451128D02*
X184728514Y-49456894D01*
X184766630Y-49466441D01*
X184803626Y-49479679D01*
X184839147Y-49496479D01*
X184872850Y-49516680D01*
X184904411Y-49540087D01*
X184933526Y-49566474D01*
X184959913Y-49595589D01*
X184983320Y-49627150D01*
X185003521Y-49660853D01*
X185020321Y-49696374D01*
X185033559Y-49733370D01*
X185043106Y-49771486D01*
X185048872Y-49810354D01*
X185050800Y-49849600D01*
X185050800Y-64150400D01*
X185048872Y-64189646D01*
X185043106Y-64228514D01*
X185033559Y-64266630D01*
X185020321Y-64303626D01*
X185003521Y-64339147D01*
X184983320Y-64372850D01*
X184959913Y-64404411D01*
X184933526Y-64433526D01*
X184904411Y-64459913D01*
X184872850Y-64483320D01*
X184839147Y-64503521D01*
X184803626Y-64520321D01*
X184766630Y-64533559D01*
X184728514Y-64543106D01*
X184689646Y-64548872D01*
X184650400Y-64550800D01*
X183849600Y-64550800D01*
X183810354Y-64548872D01*
X183771486Y-64543106D01*
X183733370Y-64533559D01*
X183696374Y-64520321D01*
X183660853Y-64503521D01*
X183627150Y-64483320D01*
X183595589Y-64459913D01*
X183566474Y-64433526D01*
X183540087Y-64404411D01*
X183516680Y-64372850D01*
X183496479Y-64339147D01*
X183479679Y-64303626D01*
X183466441Y-64266630D01*
X183456894Y-64228514D01*
X183451128Y-64189646D01*
X183449200Y-64150400D01*
X183449200Y-49849600D01*
X183451128Y-49810354D01*
X183456894Y-49771486D01*
X183466441Y-49733370D01*
X183479679Y-49696374D01*
X183496479Y-49660853D01*
X183516680Y-49627150D01*
X183540087Y-49595589D01*
X183566474Y-49566474D01*
X183595589Y-49540087D01*
X183627150Y-49516680D01*
X183660853Y-49496479D01*
X183696374Y-49479679D01*
X183733370Y-49466441D01*
X183771486Y-49456894D01*
X183810354Y-49451128D01*
X183849600Y-49449200D01*
X184650400Y-49449200D01*
X184689646Y-49451128D01*
X184689646Y-49451128D01*
G37*
D16*
X184250000Y-57000000D03*
G04 #@! TD*
D15*
G04 #@! TO.C,BT7*
G36*
X184689646Y-71451128D02*
X184728514Y-71456894D01*
X184766630Y-71466441D01*
X184803626Y-71479679D01*
X184839147Y-71496479D01*
X184872850Y-71516680D01*
X184904411Y-71540087D01*
X184933526Y-71566474D01*
X184959913Y-71595589D01*
X184983320Y-71627150D01*
X185003521Y-71660853D01*
X185020321Y-71696374D01*
X185033559Y-71733370D01*
X185043106Y-71771486D01*
X185048872Y-71810354D01*
X185050800Y-71849600D01*
X185050800Y-86150400D01*
X185048872Y-86189646D01*
X185043106Y-86228514D01*
X185033559Y-86266630D01*
X185020321Y-86303626D01*
X185003521Y-86339147D01*
X184983320Y-86372850D01*
X184959913Y-86404411D01*
X184933526Y-86433526D01*
X184904411Y-86459913D01*
X184872850Y-86483320D01*
X184839147Y-86503521D01*
X184803626Y-86520321D01*
X184766630Y-86533559D01*
X184728514Y-86543106D01*
X184689646Y-86548872D01*
X184650400Y-86550800D01*
X183849600Y-86550800D01*
X183810354Y-86548872D01*
X183771486Y-86543106D01*
X183733370Y-86533559D01*
X183696374Y-86520321D01*
X183660853Y-86503521D01*
X183627150Y-86483320D01*
X183595589Y-86459913D01*
X183566474Y-86433526D01*
X183540087Y-86404411D01*
X183516680Y-86372850D01*
X183496479Y-86339147D01*
X183479679Y-86303626D01*
X183466441Y-86266630D01*
X183456894Y-86228514D01*
X183451128Y-86189646D01*
X183449200Y-86150400D01*
X183449200Y-71849600D01*
X183451128Y-71810354D01*
X183456894Y-71771486D01*
X183466441Y-71733370D01*
X183479679Y-71696374D01*
X183496479Y-71660853D01*
X183516680Y-71627150D01*
X183540087Y-71595589D01*
X183566474Y-71566474D01*
X183595589Y-71540087D01*
X183627150Y-71516680D01*
X183660853Y-71496479D01*
X183696374Y-71479679D01*
X183733370Y-71466441D01*
X183771486Y-71456894D01*
X183810354Y-71451128D01*
X183849600Y-71449200D01*
X184650400Y-71449200D01*
X184689646Y-71451128D01*
X184689646Y-71451128D01*
G37*
D16*
X184250000Y-79000000D03*
D15*
G36*
X119689646Y-71451128D02*
X119728514Y-71456894D01*
X119766630Y-71466441D01*
X119803626Y-71479679D01*
X119839147Y-71496479D01*
X119872850Y-71516680D01*
X119904411Y-71540087D01*
X119933526Y-71566474D01*
X119959913Y-71595589D01*
X119983320Y-71627150D01*
X120003521Y-71660853D01*
X120020321Y-71696374D01*
X120033559Y-71733370D01*
X120043106Y-71771486D01*
X120048872Y-71810354D01*
X120050800Y-71849600D01*
X120050800Y-86150400D01*
X120048872Y-86189646D01*
X120043106Y-86228514D01*
X120033559Y-86266630D01*
X120020321Y-86303626D01*
X120003521Y-86339147D01*
X119983320Y-86372850D01*
X119959913Y-86404411D01*
X119933526Y-86433526D01*
X119904411Y-86459913D01*
X119872850Y-86483320D01*
X119839147Y-86503521D01*
X119803626Y-86520321D01*
X119766630Y-86533559D01*
X119728514Y-86543106D01*
X119689646Y-86548872D01*
X119650400Y-86550800D01*
X118849600Y-86550800D01*
X118810354Y-86548872D01*
X118771486Y-86543106D01*
X118733370Y-86533559D01*
X118696374Y-86520321D01*
X118660853Y-86503521D01*
X118627150Y-86483320D01*
X118595589Y-86459913D01*
X118566474Y-86433526D01*
X118540087Y-86404411D01*
X118516680Y-86372850D01*
X118496479Y-86339147D01*
X118479679Y-86303626D01*
X118466441Y-86266630D01*
X118456894Y-86228514D01*
X118451128Y-86189646D01*
X118449200Y-86150400D01*
X118449200Y-71849600D01*
X118451128Y-71810354D01*
X118456894Y-71771486D01*
X118466441Y-71733370D01*
X118479679Y-71696374D01*
X118496479Y-71660853D01*
X118516680Y-71627150D01*
X118540087Y-71595589D01*
X118566474Y-71566474D01*
X118595589Y-71540087D01*
X118627150Y-71516680D01*
X118660853Y-71496479D01*
X118696374Y-71479679D01*
X118733370Y-71466441D01*
X118771486Y-71456894D01*
X118810354Y-71451128D01*
X118849600Y-71449200D01*
X119650400Y-71449200D01*
X119689646Y-71451128D01*
X119689646Y-71451128D01*
G37*
D16*
X119250000Y-79000000D03*
G04 #@! TD*
D15*
G04 #@! TO.C,BT8*
G36*
X119689646Y-93451128D02*
X119728514Y-93456894D01*
X119766630Y-93466441D01*
X119803626Y-93479679D01*
X119839147Y-93496479D01*
X119872850Y-93516680D01*
X119904411Y-93540087D01*
X119933526Y-93566474D01*
X119959913Y-93595589D01*
X119983320Y-93627150D01*
X120003521Y-93660853D01*
X120020321Y-93696374D01*
X120033559Y-93733370D01*
X120043106Y-93771486D01*
X120048872Y-93810354D01*
X120050800Y-93849600D01*
X120050800Y-108150400D01*
X120048872Y-108189646D01*
X120043106Y-108228514D01*
X120033559Y-108266630D01*
X120020321Y-108303626D01*
X120003521Y-108339147D01*
X119983320Y-108372850D01*
X119959913Y-108404411D01*
X119933526Y-108433526D01*
X119904411Y-108459913D01*
X119872850Y-108483320D01*
X119839147Y-108503521D01*
X119803626Y-108520321D01*
X119766630Y-108533559D01*
X119728514Y-108543106D01*
X119689646Y-108548872D01*
X119650400Y-108550800D01*
X118849600Y-108550800D01*
X118810354Y-108548872D01*
X118771486Y-108543106D01*
X118733370Y-108533559D01*
X118696374Y-108520321D01*
X118660853Y-108503521D01*
X118627150Y-108483320D01*
X118595589Y-108459913D01*
X118566474Y-108433526D01*
X118540087Y-108404411D01*
X118516680Y-108372850D01*
X118496479Y-108339147D01*
X118479679Y-108303626D01*
X118466441Y-108266630D01*
X118456894Y-108228514D01*
X118451128Y-108189646D01*
X118449200Y-108150400D01*
X118449200Y-93849600D01*
X118451128Y-93810354D01*
X118456894Y-93771486D01*
X118466441Y-93733370D01*
X118479679Y-93696374D01*
X118496479Y-93660853D01*
X118516680Y-93627150D01*
X118540087Y-93595589D01*
X118566474Y-93566474D01*
X118595589Y-93540087D01*
X118627150Y-93516680D01*
X118660853Y-93496479D01*
X118696374Y-93479679D01*
X118733370Y-93466441D01*
X118771486Y-93456894D01*
X118810354Y-93451128D01*
X118849600Y-93449200D01*
X119650400Y-93449200D01*
X119689646Y-93451128D01*
X119689646Y-93451128D01*
G37*
D16*
X119250000Y-101000000D03*
D15*
G36*
X184689646Y-93451128D02*
X184728514Y-93456894D01*
X184766630Y-93466441D01*
X184803626Y-93479679D01*
X184839147Y-93496479D01*
X184872850Y-93516680D01*
X184904411Y-93540087D01*
X184933526Y-93566474D01*
X184959913Y-93595589D01*
X184983320Y-93627150D01*
X185003521Y-93660853D01*
X185020321Y-93696374D01*
X185033559Y-93733370D01*
X185043106Y-93771486D01*
X185048872Y-93810354D01*
X185050800Y-93849600D01*
X185050800Y-108150400D01*
X185048872Y-108189646D01*
X185043106Y-108228514D01*
X185033559Y-108266630D01*
X185020321Y-108303626D01*
X185003521Y-108339147D01*
X184983320Y-108372850D01*
X184959913Y-108404411D01*
X184933526Y-108433526D01*
X184904411Y-108459913D01*
X184872850Y-108483320D01*
X184839147Y-108503521D01*
X184803626Y-108520321D01*
X184766630Y-108533559D01*
X184728514Y-108543106D01*
X184689646Y-108548872D01*
X184650400Y-108550800D01*
X183849600Y-108550800D01*
X183810354Y-108548872D01*
X183771486Y-108543106D01*
X183733370Y-108533559D01*
X183696374Y-108520321D01*
X183660853Y-108503521D01*
X183627150Y-108483320D01*
X183595589Y-108459913D01*
X183566474Y-108433526D01*
X183540087Y-108404411D01*
X183516680Y-108372850D01*
X183496479Y-108339147D01*
X183479679Y-108303626D01*
X183466441Y-108266630D01*
X183456894Y-108228514D01*
X183451128Y-108189646D01*
X183449200Y-108150400D01*
X183449200Y-93849600D01*
X183451128Y-93810354D01*
X183456894Y-93771486D01*
X183466441Y-93733370D01*
X183479679Y-93696374D01*
X183496479Y-93660853D01*
X183516680Y-93627150D01*
X183540087Y-93595589D01*
X183566474Y-93566474D01*
X183595589Y-93540087D01*
X183627150Y-93516680D01*
X183660853Y-93496479D01*
X183696374Y-93479679D01*
X183733370Y-93466441D01*
X183771486Y-93456894D01*
X183810354Y-93451128D01*
X183849600Y-93449200D01*
X184650400Y-93449200D01*
X184689646Y-93451128D01*
X184689646Y-93451128D01*
G37*
D16*
X184250000Y-101000000D03*
G04 #@! TD*
D15*
G04 #@! TO.C,BT9*
G36*
X184689646Y-115451128D02*
X184728514Y-115456894D01*
X184766630Y-115466441D01*
X184803626Y-115479679D01*
X184839147Y-115496479D01*
X184872850Y-115516680D01*
X184904411Y-115540087D01*
X184933526Y-115566474D01*
X184959913Y-115595589D01*
X184983320Y-115627150D01*
X185003521Y-115660853D01*
X185020321Y-115696374D01*
X185033559Y-115733370D01*
X185043106Y-115771486D01*
X185048872Y-115810354D01*
X185050800Y-115849600D01*
X185050800Y-130150400D01*
X185048872Y-130189646D01*
X185043106Y-130228514D01*
X185033559Y-130266630D01*
X185020321Y-130303626D01*
X185003521Y-130339147D01*
X184983320Y-130372850D01*
X184959913Y-130404411D01*
X184933526Y-130433526D01*
X184904411Y-130459913D01*
X184872850Y-130483320D01*
X184839147Y-130503521D01*
X184803626Y-130520321D01*
X184766630Y-130533559D01*
X184728514Y-130543106D01*
X184689646Y-130548872D01*
X184650400Y-130550800D01*
X183849600Y-130550800D01*
X183810354Y-130548872D01*
X183771486Y-130543106D01*
X183733370Y-130533559D01*
X183696374Y-130520321D01*
X183660853Y-130503521D01*
X183627150Y-130483320D01*
X183595589Y-130459913D01*
X183566474Y-130433526D01*
X183540087Y-130404411D01*
X183516680Y-130372850D01*
X183496479Y-130339147D01*
X183479679Y-130303626D01*
X183466441Y-130266630D01*
X183456894Y-130228514D01*
X183451128Y-130189646D01*
X183449200Y-130150400D01*
X183449200Y-115849600D01*
X183451128Y-115810354D01*
X183456894Y-115771486D01*
X183466441Y-115733370D01*
X183479679Y-115696374D01*
X183496479Y-115660853D01*
X183516680Y-115627150D01*
X183540087Y-115595589D01*
X183566474Y-115566474D01*
X183595589Y-115540087D01*
X183627150Y-115516680D01*
X183660853Y-115496479D01*
X183696374Y-115479679D01*
X183733370Y-115466441D01*
X183771486Y-115456894D01*
X183810354Y-115451128D01*
X183849600Y-115449200D01*
X184650400Y-115449200D01*
X184689646Y-115451128D01*
X184689646Y-115451128D01*
G37*
D16*
X184250000Y-123000000D03*
D15*
G36*
X119689646Y-115451128D02*
X119728514Y-115456894D01*
X119766630Y-115466441D01*
X119803626Y-115479679D01*
X119839147Y-115496479D01*
X119872850Y-115516680D01*
X119904411Y-115540087D01*
X119933526Y-115566474D01*
X119959913Y-115595589D01*
X119983320Y-115627150D01*
X120003521Y-115660853D01*
X120020321Y-115696374D01*
X120033559Y-115733370D01*
X120043106Y-115771486D01*
X120048872Y-115810354D01*
X120050800Y-115849600D01*
X120050800Y-130150400D01*
X120048872Y-130189646D01*
X120043106Y-130228514D01*
X120033559Y-130266630D01*
X120020321Y-130303626D01*
X120003521Y-130339147D01*
X119983320Y-130372850D01*
X119959913Y-130404411D01*
X119933526Y-130433526D01*
X119904411Y-130459913D01*
X119872850Y-130483320D01*
X119839147Y-130503521D01*
X119803626Y-130520321D01*
X119766630Y-130533559D01*
X119728514Y-130543106D01*
X119689646Y-130548872D01*
X119650400Y-130550800D01*
X118849600Y-130550800D01*
X118810354Y-130548872D01*
X118771486Y-130543106D01*
X118733370Y-130533559D01*
X118696374Y-130520321D01*
X118660853Y-130503521D01*
X118627150Y-130483320D01*
X118595589Y-130459913D01*
X118566474Y-130433526D01*
X118540087Y-130404411D01*
X118516680Y-130372850D01*
X118496479Y-130339147D01*
X118479679Y-130303626D01*
X118466441Y-130266630D01*
X118456894Y-130228514D01*
X118451128Y-130189646D01*
X118449200Y-130150400D01*
X118449200Y-115849600D01*
X118451128Y-115810354D01*
X118456894Y-115771486D01*
X118466441Y-115733370D01*
X118479679Y-115696374D01*
X118496479Y-115660853D01*
X118516680Y-115627150D01*
X118540087Y-115595589D01*
X118566474Y-115566474D01*
X118595589Y-115540087D01*
X118627150Y-115516680D01*
X118660853Y-115496479D01*
X118696374Y-115479679D01*
X118733370Y-115466441D01*
X118771486Y-115456894D01*
X118810354Y-115451128D01*
X118849600Y-115449200D01*
X119650400Y-115449200D01*
X119689646Y-115451128D01*
X119689646Y-115451128D01*
G37*
D16*
X119250000Y-123000000D03*
G04 #@! TD*
D15*
G04 #@! TO.C,BT10*
G36*
X119689646Y-137451128D02*
X119728514Y-137456894D01*
X119766630Y-137466441D01*
X119803626Y-137479679D01*
X119839147Y-137496479D01*
X119872850Y-137516680D01*
X119904411Y-137540087D01*
X119933526Y-137566474D01*
X119959913Y-137595589D01*
X119983320Y-137627150D01*
X120003521Y-137660853D01*
X120020321Y-137696374D01*
X120033559Y-137733370D01*
X120043106Y-137771486D01*
X120048872Y-137810354D01*
X120050800Y-137849600D01*
X120050800Y-152150400D01*
X120048872Y-152189646D01*
X120043106Y-152228514D01*
X120033559Y-152266630D01*
X120020321Y-152303626D01*
X120003521Y-152339147D01*
X119983320Y-152372850D01*
X119959913Y-152404411D01*
X119933526Y-152433526D01*
X119904411Y-152459913D01*
X119872850Y-152483320D01*
X119839147Y-152503521D01*
X119803626Y-152520321D01*
X119766630Y-152533559D01*
X119728514Y-152543106D01*
X119689646Y-152548872D01*
X119650400Y-152550800D01*
X118849600Y-152550800D01*
X118810354Y-152548872D01*
X118771486Y-152543106D01*
X118733370Y-152533559D01*
X118696374Y-152520321D01*
X118660853Y-152503521D01*
X118627150Y-152483320D01*
X118595589Y-152459913D01*
X118566474Y-152433526D01*
X118540087Y-152404411D01*
X118516680Y-152372850D01*
X118496479Y-152339147D01*
X118479679Y-152303626D01*
X118466441Y-152266630D01*
X118456894Y-152228514D01*
X118451128Y-152189646D01*
X118449200Y-152150400D01*
X118449200Y-137849600D01*
X118451128Y-137810354D01*
X118456894Y-137771486D01*
X118466441Y-137733370D01*
X118479679Y-137696374D01*
X118496479Y-137660853D01*
X118516680Y-137627150D01*
X118540087Y-137595589D01*
X118566474Y-137566474D01*
X118595589Y-137540087D01*
X118627150Y-137516680D01*
X118660853Y-137496479D01*
X118696374Y-137479679D01*
X118733370Y-137466441D01*
X118771486Y-137456894D01*
X118810354Y-137451128D01*
X118849600Y-137449200D01*
X119650400Y-137449200D01*
X119689646Y-137451128D01*
X119689646Y-137451128D01*
G37*
D16*
X119250000Y-145000000D03*
D15*
G36*
X184689646Y-137451128D02*
X184728514Y-137456894D01*
X184766630Y-137466441D01*
X184803626Y-137479679D01*
X184839147Y-137496479D01*
X184872850Y-137516680D01*
X184904411Y-137540087D01*
X184933526Y-137566474D01*
X184959913Y-137595589D01*
X184983320Y-137627150D01*
X185003521Y-137660853D01*
X185020321Y-137696374D01*
X185033559Y-137733370D01*
X185043106Y-137771486D01*
X185048872Y-137810354D01*
X185050800Y-137849600D01*
X185050800Y-152150400D01*
X185048872Y-152189646D01*
X185043106Y-152228514D01*
X185033559Y-152266630D01*
X185020321Y-152303626D01*
X185003521Y-152339147D01*
X184983320Y-152372850D01*
X184959913Y-152404411D01*
X184933526Y-152433526D01*
X184904411Y-152459913D01*
X184872850Y-152483320D01*
X184839147Y-152503521D01*
X184803626Y-152520321D01*
X184766630Y-152533559D01*
X184728514Y-152543106D01*
X184689646Y-152548872D01*
X184650400Y-152550800D01*
X183849600Y-152550800D01*
X183810354Y-152548872D01*
X183771486Y-152543106D01*
X183733370Y-152533559D01*
X183696374Y-152520321D01*
X183660853Y-152503521D01*
X183627150Y-152483320D01*
X183595589Y-152459913D01*
X183566474Y-152433526D01*
X183540087Y-152404411D01*
X183516680Y-152372850D01*
X183496479Y-152339147D01*
X183479679Y-152303626D01*
X183466441Y-152266630D01*
X183456894Y-152228514D01*
X183451128Y-152189646D01*
X183449200Y-152150400D01*
X183449200Y-137849600D01*
X183451128Y-137810354D01*
X183456894Y-137771486D01*
X183466441Y-137733370D01*
X183479679Y-137696374D01*
X183496479Y-137660853D01*
X183516680Y-137627150D01*
X183540087Y-137595589D01*
X183566474Y-137566474D01*
X183595589Y-137540087D01*
X183627150Y-137516680D01*
X183660853Y-137496479D01*
X183696374Y-137479679D01*
X183733370Y-137466441D01*
X183771486Y-137456894D01*
X183810354Y-137451128D01*
X183849600Y-137449200D01*
X184650400Y-137449200D01*
X184689646Y-137451128D01*
X184689646Y-137451128D01*
G37*
D16*
X184250000Y-145000000D03*
G04 #@! TD*
D17*
G04 #@! TO.C,C52*
X90180000Y-39405000D03*
D18*
X93680000Y-39405000D03*
G04 #@! TD*
D17*
G04 #@! TO.C,C57*
X137820000Y-39405000D03*
D18*
X134320000Y-39405000D03*
G04 #@! TD*
D15*
G04 #@! TO.C,F1*
G36*
X71755903Y-157126548D02*
X71803246Y-157133571D01*
X71849672Y-157145200D01*
X71894735Y-157161324D01*
X71938000Y-157181787D01*
X71979052Y-157206392D01*
X72017494Y-157234903D01*
X72052956Y-157267044D01*
X72085097Y-157302506D01*
X72113608Y-157340948D01*
X72138213Y-157382000D01*
X72158676Y-157425265D01*
X72174800Y-157470328D01*
X72186429Y-157516754D01*
X72193452Y-157564097D01*
X72195800Y-157611900D01*
X72195800Y-162388100D01*
X72193452Y-162435903D01*
X72186429Y-162483246D01*
X72174800Y-162529672D01*
X72158676Y-162574735D01*
X72138213Y-162618000D01*
X72113608Y-162659052D01*
X72085097Y-162697494D01*
X72052956Y-162732956D01*
X72017494Y-162765097D01*
X71979052Y-162793608D01*
X71938000Y-162818213D01*
X71894735Y-162838676D01*
X71849672Y-162854800D01*
X71803246Y-162866429D01*
X71755903Y-162873452D01*
X71708100Y-162875800D01*
X68781900Y-162875800D01*
X68734097Y-162873452D01*
X68686754Y-162866429D01*
X68640328Y-162854800D01*
X68595265Y-162838676D01*
X68552000Y-162818213D01*
X68510948Y-162793608D01*
X68472506Y-162765097D01*
X68437044Y-162732956D01*
X68404903Y-162697494D01*
X68376392Y-162659052D01*
X68351787Y-162618000D01*
X68331324Y-162574735D01*
X68315200Y-162529672D01*
X68303571Y-162483246D01*
X68296548Y-162435903D01*
X68294200Y-162388100D01*
X68294200Y-157611900D01*
X68296548Y-157564097D01*
X68303571Y-157516754D01*
X68315200Y-157470328D01*
X68331324Y-157425265D01*
X68351787Y-157382000D01*
X68376392Y-157340948D01*
X68404903Y-157302506D01*
X68437044Y-157267044D01*
X68472506Y-157234903D01*
X68510948Y-157206392D01*
X68552000Y-157181787D01*
X68595265Y-157161324D01*
X68640328Y-157145200D01*
X68686754Y-157133571D01*
X68734097Y-157126548D01*
X68781900Y-157124200D01*
X71708100Y-157124200D01*
X71755903Y-157126548D01*
X71755903Y-157126548D01*
G37*
D19*
X70245000Y-160000000D03*
D15*
G36*
X81265903Y-157126548D02*
X81313246Y-157133571D01*
X81359672Y-157145200D01*
X81404735Y-157161324D01*
X81448000Y-157181787D01*
X81489052Y-157206392D01*
X81527494Y-157234903D01*
X81562956Y-157267044D01*
X81595097Y-157302506D01*
X81623608Y-157340948D01*
X81648213Y-157382000D01*
X81668676Y-157425265D01*
X81684800Y-157470328D01*
X81696429Y-157516754D01*
X81703452Y-157564097D01*
X81705800Y-157611900D01*
X81705800Y-162388100D01*
X81703452Y-162435903D01*
X81696429Y-162483246D01*
X81684800Y-162529672D01*
X81668676Y-162574735D01*
X81648213Y-162618000D01*
X81623608Y-162659052D01*
X81595097Y-162697494D01*
X81562956Y-162732956D01*
X81527494Y-162765097D01*
X81489052Y-162793608D01*
X81448000Y-162818213D01*
X81404735Y-162838676D01*
X81359672Y-162854800D01*
X81313246Y-162866429D01*
X81265903Y-162873452D01*
X81218100Y-162875800D01*
X78291900Y-162875800D01*
X78244097Y-162873452D01*
X78196754Y-162866429D01*
X78150328Y-162854800D01*
X78105265Y-162838676D01*
X78062000Y-162818213D01*
X78020948Y-162793608D01*
X77982506Y-162765097D01*
X77947044Y-162732956D01*
X77914903Y-162697494D01*
X77886392Y-162659052D01*
X77861787Y-162618000D01*
X77841324Y-162574735D01*
X77825200Y-162529672D01*
X77813571Y-162483246D01*
X77806548Y-162435903D01*
X77804200Y-162388100D01*
X77804200Y-157611900D01*
X77806548Y-157564097D01*
X77813571Y-157516754D01*
X77825200Y-157470328D01*
X77841324Y-157425265D01*
X77861787Y-157382000D01*
X77886392Y-157340948D01*
X77914903Y-157302506D01*
X77947044Y-157267044D01*
X77982506Y-157234903D01*
X78020948Y-157206392D01*
X78062000Y-157181787D01*
X78105265Y-157161324D01*
X78150328Y-157145200D01*
X78196754Y-157133571D01*
X78244097Y-157126548D01*
X78291900Y-157124200D01*
X81218100Y-157124200D01*
X81265903Y-157126548D01*
X81265903Y-157126548D01*
G37*
D19*
X79755000Y-160000000D03*
G04 #@! TD*
D20*
G04 #@! TO.C,J1*
X65105000Y-40675000D03*
X65105000Y-38135000D03*
X62565000Y-40675000D03*
X62565000Y-38135000D03*
X60025000Y-40675000D03*
X60025000Y-38135000D03*
X57485000Y-40675000D03*
X57485000Y-38135000D03*
X54945000Y-40675000D03*
D21*
X54945000Y-38135000D03*
G04 #@! TD*
D20*
G04 #@! TO.C,J2*
X61295000Y-81950000D03*
X61295000Y-79410000D03*
X61295000Y-76870000D03*
X61295000Y-74330000D03*
D21*
X61295000Y-71790000D03*
G04 #@! TD*
D22*
G04 #@! TO.C,J5*
X117600000Y-173390000D03*
X110400000Y-173390000D03*
G04 #@! TD*
D23*
G04 #@! TO.C,R78*
X69344360Y-42156664D03*
D17*
X76964360Y-42156664D03*
G04 #@! TD*
D24*
G04 #@! TO.C,J4*
X119000000Y-161925000D03*
X116500000Y-161925000D03*
X114000000Y-161925000D03*
X111500000Y-161925000D03*
D25*
X109000000Y-161925000D03*
G04 #@! TD*
D26*
G04 #@! TO.C,J3*
X142783324Y-32826404D03*
D27*
X142673681Y-32886432D02*
X142892967Y-32766376D01*
D26*
X143983883Y-35019269D03*
D27*
X143874240Y-35079297D02*
X144093526Y-34959241D01*
D26*
X145184441Y-37212135D03*
D27*
X145074798Y-37272163D02*
X145294084Y-37152107D01*
D26*
X146385000Y-39405000D03*
D15*
G36*
X147717362Y-39702520D02*
X145917809Y-40687747D01*
X145052638Y-39107480D01*
X146852191Y-38122253D01*
X147717362Y-39702520D01*
X147717362Y-39702520D01*
G37*
G04 #@! TD*
D28*
G04 #@! TO.C,L2*
X132000000Y-33690000D03*
X96000000Y-33690000D03*
G04 #@! TD*
M02*
