M48
;DRILL file {KiCad (5.0.0)} date 02/19/19 22:24:35
;FORMAT={-:-/ absolute / inch / decimal}
FMAT,2
INCH,TZ
T1C0.0157
T2C0.0295
T3C0.0315
T4C0.0374
T5C0.0394
T6C0.0472
T7C0.1693
%
G90
G05
M72
T1
X1.7882Y-1.9691
X1.7882Y-2.0191
X1.7882Y-2.0691
X1.7882Y-2.1191
X1.7882Y-2.1691
X1.7882Y-2.2191
X1.7882Y-2.2691
X1.7882Y-2.3191
X1.7882Y-2.3691
X1.7882Y-2.4191
X1.7882Y-2.4691
X1.7882Y-2.5191
X1.7882Y-2.8352
X1.7882Y-2.8852
X1.7882Y-2.9352
X1.7882Y-2.9852
X1.7882Y-3.0352
X1.7882Y-3.0852
X1.7882Y-3.1352
X1.7882Y-3.1852
X1.7882Y-3.2352
X1.7882Y-3.2852
X1.7882Y-3.3352
X1.7882Y-3.3852
X1.7882Y-3.7014
X1.7882Y-3.7514
X1.7882Y-3.8014
X1.7882Y-3.8514
X1.7882Y-3.9014
X1.7882Y-3.9514
X1.7882Y-4.0014
X1.7882Y-4.0514
X1.7882Y-4.1014
X1.7882Y-4.1514
X1.7882Y-4.2014
X1.7882Y-4.2514
X1.7882Y-4.5675
X1.7882Y-4.6175
X1.7882Y-4.6675
X1.7882Y-4.7175
X1.7882Y-4.7675
X1.7882Y-4.8175
X1.7882Y-4.8675
X1.7882Y-4.9175
X1.7882Y-4.9675
X1.7882Y-5.0175
X1.7882Y-5.0675
X1.7882Y-5.1175
X1.7882Y-5.4337
X1.7882Y-5.4837
X1.7882Y-5.5337
X1.7882Y-5.5837
X1.7882Y-5.6337
X1.7882Y-5.6837
X1.7882Y-5.7337
X1.7882Y-5.7837
X1.7882Y-5.8337
X1.7882Y-5.8837
X1.7882Y-5.9337
X1.7882Y-5.9837
X1.8382Y-1.9941
X1.8382Y-2.0441
X1.8382Y-2.0941
X1.8382Y-2.1441
X1.8382Y-2.1941
X1.8382Y-2.2441
X1.8382Y-2.2941
X1.8382Y-2.3441
X1.8382Y-2.3941
X1.8382Y-2.4441
X1.8382Y-2.4941
X1.8382Y-2.8602
X1.8382Y-2.9102
X1.8382Y-2.9602
X1.8382Y-3.0102
X1.8382Y-3.0602
X1.8382Y-3.1102
X1.8382Y-3.1602
X1.8382Y-3.2102
X1.8382Y-3.2602
X1.8382Y-3.3102
X1.8382Y-3.3602
X1.8382Y-3.7264
X1.8382Y-3.7764
X1.8382Y-3.8264
X1.8382Y-3.8764
X1.8382Y-3.9264
X1.8382Y-3.9764
X1.8382Y-4.0264
X1.8382Y-4.0764
X1.8382Y-4.1264
X1.8382Y-4.1764
X1.8382Y-4.2264
X1.8382Y-4.5925
X1.8382Y-4.6425
X1.8382Y-4.6925
X1.8382Y-4.7425
X1.8382Y-4.7925
X1.8382Y-4.8425
X1.8382Y-4.8925
X1.8382Y-4.9425
X1.8382Y-4.9925
X1.8382Y-5.0425
X1.8382Y-5.0925
X1.8382Y-5.4587
X1.8382Y-5.5087
X1.8382Y-5.5587
X1.8382Y-5.6087
X1.8382Y-5.6587
X1.8382Y-5.7087
X1.8382Y-5.7587
X1.8382Y-5.8087
X1.8382Y-5.8587
X1.8382Y-5.9087
X1.8382Y-5.9587
X1.8882Y-1.9691
X1.8882Y-2.0191
X1.8882Y-2.0691
X1.8882Y-2.1191
X1.8882Y-2.1691
X1.8882Y-2.2191
X1.8882Y-2.2691
X1.8882Y-2.3191
X1.8882Y-2.3691
X1.8882Y-2.4191
X1.8882Y-2.4691
X1.8882Y-2.5191
X1.8882Y-2.8352
X1.8882Y-2.8852
X1.8882Y-2.9352
X1.8882Y-2.9852
X1.8882Y-3.0352
X1.8882Y-3.0852
X1.8882Y-3.1352
X1.8882Y-3.1852
X1.8882Y-3.2352
X1.8882Y-3.2852
X1.8882Y-3.3352
X1.8882Y-3.3852
X1.8882Y-3.7014
X1.8882Y-3.7514
X1.8882Y-3.8014
X1.8882Y-3.8514
X1.8882Y-3.9014
X1.8882Y-3.9514
X1.8882Y-4.0014
X1.8882Y-4.0514
X1.8882Y-4.1014
X1.8882Y-4.1514
X1.8882Y-4.2014
X1.8882Y-4.2514
X1.8882Y-4.5675
X1.8882Y-4.6175
X1.8882Y-4.6675
X1.8882Y-4.7175
X1.8882Y-4.7675
X1.8882Y-4.8175
X1.8882Y-4.8675
X1.8882Y-4.9175
X1.8882Y-4.9675
X1.8882Y-5.0175
X1.8882Y-5.0675
X1.8882Y-5.1175
X1.8882Y-5.4337
X1.8882Y-5.4837
X1.8882Y-5.5337
X1.8882Y-5.5837
X1.8882Y-5.6337
X1.8882Y-5.6837
X1.8882Y-5.7337
X1.8882Y-5.7837
X1.8882Y-5.8337
X1.8882Y-5.8837
X1.8882Y-5.9337
X1.8882Y-5.9837
X1.9382Y-1.9941
X1.9382Y-2.0441
X1.9382Y-2.0941
X1.9382Y-2.1441
X1.9382Y-2.1941
X1.9382Y-2.2441
X1.9382Y-2.2941
X1.9382Y-2.3441
X1.9382Y-2.3941
X1.9382Y-2.4441
X1.9382Y-2.4941
X1.9382Y-2.8602
X1.9382Y-2.9102
X1.9382Y-2.9602
X1.9382Y-3.0102
X1.9382Y-3.0602
X1.9382Y-3.1102
X1.9382Y-3.1602
X1.9382Y-3.2102
X1.9382Y-3.2602
X1.9382Y-3.3102
X1.9382Y-3.3602
X1.9382Y-3.7264
X1.9382Y-3.7764
X1.9382Y-3.8264
X1.9382Y-3.8764
X1.9382Y-3.9264
X1.9382Y-3.9764
X1.9382Y-4.0264
X1.9382Y-4.0764
X1.9382Y-4.1264
X1.9382Y-4.1764
X1.9382Y-4.2264
X1.9382Y-4.5925
X1.9382Y-4.6425
X1.9382Y-4.6925
X1.9382Y-4.7425
X1.9382Y-4.7925
X1.9382Y-4.8425
X1.9382Y-4.8925
X1.9382Y-4.9425
X1.9382Y-4.9925
X1.9382Y-5.0425
X1.9382Y-5.0925
X1.9382Y-5.4587
X1.9382Y-5.5087
X1.9382Y-5.5587
X1.9382Y-5.6087
X1.9382Y-5.6587
X1.9382Y-5.7087
X1.9382Y-5.7587
X1.9382Y-5.8087
X1.9382Y-5.8587
X1.9382Y-5.9087
X1.9382Y-5.9587
X1.9882Y-1.9691
X1.9882Y-2.0191
X1.9882Y-2.0691
X1.9882Y-2.1191
X1.9882Y-2.1691
X1.9882Y-2.2191
X1.9882Y-2.2691
X1.9882Y-2.3191
X1.9882Y-2.3691
X1.9882Y-2.4191
X1.9882Y-2.4691
X1.9882Y-2.5191
X1.9882Y-2.8352
X1.9882Y-2.8852
X1.9882Y-2.9352
X1.9882Y-2.9852
X1.9882Y-3.0352
X1.9882Y-3.0852
X1.9882Y-3.1352
X1.9882Y-3.1852
X1.9882Y-3.2352
X1.9882Y-3.2852
X1.9882Y-3.3352
X1.9882Y-3.3852
X1.9882Y-3.7014
X1.9882Y-3.7514
X1.9882Y-3.8014
X1.9882Y-3.8514
X1.9882Y-3.9014
X1.9882Y-3.9514
X1.9882Y-4.0014
X1.9882Y-4.0514
X1.9882Y-4.1014
X1.9882Y-4.1514
X1.9882Y-4.2014
X1.9882Y-4.2514
X1.9882Y-4.5675
X1.9882Y-4.6175
X1.9882Y-4.6675
X1.9882Y-4.7175
X1.9882Y-4.7675
X1.9882Y-4.8175
X1.9882Y-4.8675
X1.9882Y-4.9175
X1.9882Y-4.9675
X1.9882Y-5.0175
X1.9882Y-5.0675
X1.9882Y-5.1175
X1.9882Y-5.4337
X1.9882Y-5.4837
X1.9882Y-5.5337
X1.9882Y-5.5837
X1.9882Y-5.6337
X1.9882Y-5.6837
X1.9882Y-5.7337
X1.9882Y-5.7837
X1.9882Y-5.8337
X1.9882Y-5.8837
X1.9882Y-5.9337
X1.9882Y-5.9837
X2.2532Y-3.5264
X2.2632Y-5.3014
X2.2782Y-3.4764
X2.3182Y-3.6514
X2.3632Y-5.1087
X2.3632Y-5.2087
X2.3632Y-5.3087
X2.3882Y-5.1587
X2.3882Y-5.2587
X2.3882Y-5.3587
X2.3882Y-5.4587
X2.3882Y-5.5587
X2.4132Y-4.8087
X2.4132Y-4.9087
X2.4132Y-5.0087
X2.4132Y-5.1087
X2.4132Y-5.2087
X2.4132Y-5.3087
X2.4132Y-5.4087
X2.4132Y-5.5087
X2.4132Y-5.6087
X2.4132Y-5.7087
X2.4132Y-5.7587
X2.4132Y-5.8087
X2.4132Y-5.8587
X2.4132Y-5.9087
X2.4132Y-5.9587
X2.4132Y-6.0087
X2.4132Y-6.0587
X2.4132Y-6.1087
X2.4132Y-6.1587
X2.4132Y-6.2087
X2.4132Y-6.2587
X2.4132Y-6.3087
X2.4182Y-3.7164
X2.4382Y-4.7661
X2.4382Y-4.8587
X2.4382Y-4.9587
X2.4382Y-5.0587
X2.4382Y-5.1587
X2.4382Y-5.2587
X2.4382Y-5.3587
X2.4382Y-5.4587
X2.4382Y-5.5587
X2.4582Y-3.9414
X2.4632Y-4.8087
X2.4632Y-4.9087
X2.4632Y-5.0087
X2.4632Y-5.1087
X2.4632Y-5.2087
X2.4632Y-5.3087
X2.4632Y-5.4087
X2.4632Y-5.5087
X2.4632Y-5.6087
X2.4632Y-5.9837
X2.4632Y-6.0337
X2.4632Y-6.0837
X2.4632Y-6.1337
X2.4632Y-6.1837
X2.4632Y-6.2337
X2.4632Y-6.2837
X2.4632Y-6.3337
X2.47Y-2.49
X2.47Y-2.565
X2.4707Y-2.6764
X2.4882Y-3.59
X2.4882Y-4.7661
X2.4882Y-4.8587
X2.4882Y-4.9587
X2.4882Y-5.0587
X2.4882Y-5.1587
X2.4882Y-5.2587
X2.4882Y-5.3587
X2.4882Y-5.4587
X2.4882Y-5.5587
X2.4882Y-5.6587
X2.4882Y-5.7587
X2.4882Y-5.8587
X2.5132Y-4.3014
X2.5132Y-4.3914
X2.5132Y-4.8087
X2.5132Y-4.9087
X2.5132Y-5.0087
X2.5132Y-5.1087
X2.5132Y-5.2087
X2.5132Y-5.3087
X2.5132Y-5.4087
X2.5132Y-5.5087
X2.5132Y-5.6087
X2.5132Y-5.7087
X2.5132Y-5.8087
X2.5132Y-5.9087
X2.5132Y-6.0587
X2.5132Y-6.1087
X2.5132Y-6.1587
X2.5132Y-6.2087
X2.5132Y-6.2587
X2.5132Y-6.3087
X2.5382Y-3.59
X2.5382Y-4.7661
X2.5382Y-4.8587
X2.5382Y-4.9587
X2.5382Y-5.0587
X2.5382Y-5.1587
X2.5382Y-5.2587
X2.5382Y-5.3587
X2.5382Y-5.4587
X2.5382Y-5.5587
X2.5382Y-5.6587
X2.5382Y-5.7587
X2.5382Y-5.8587
X2.5382Y-5.9587
X2.5482Y-1.9614
X2.5482Y-4.3914
X2.5597Y-2.8414
X2.5632Y-4.8087
X2.5632Y-5.1087
X2.5632Y-5.2087
X2.5632Y-5.4087
X2.5632Y-5.7087
X2.5632Y-6.0837
X2.5632Y-6.1337
X2.5632Y-6.1837
X2.5632Y-6.2337
X2.5632Y-6.2837
X2.5632Y-6.3337
X2.5882Y-4.1614
X2.5882Y-4.7661
X2.5882Y-5.0587
X2.5882Y-5.3587
X2.5882Y-5.6587
X2.5882Y-5.9587
X2.6132Y-4.8087
X2.6132Y-5.1087
X2.6132Y-5.4087
X2.6132Y-5.7087
X2.6132Y-6.0087
X2.6132Y-6.1587
X2.6132Y-6.2087
X2.6132Y-6.2587
X2.6132Y-6.3087
X2.6132Y-6.3587
X2.6232Y-3.6914
X2.6297Y-2.2978
X2.6382Y-6.0587
X2.6388Y-2.7814
X2.6632Y-4.8087
X2.6632Y-5.1087
X2.6632Y-5.4087
X2.6632Y-5.7087
X2.6632Y-6.0087
X2.6632Y-6.1837
X2.6632Y-6.2337
X2.6632Y-6.2837
X2.6632Y-6.3337
X2.6832Y-2.377
X2.6832Y-2.4464
X2.6832Y-2.4914
X2.6882Y-6.0587
X2.7032Y-3.0414
X2.7082Y-3.4414
X2.7082Y-3.5614
X2.7132Y-4.8087
X2.7132Y-5.1087
X2.7132Y-5.4087
X2.7132Y-5.7087
X2.7132Y-6.0087
X2.7132Y-6.1087
X2.7282Y-2.7814
X2.7382Y-4.9587
X2.7382Y-5.0587
X2.7382Y-5.2587
X2.7382Y-5.3587
X2.7382Y-5.5587
X2.7382Y-5.6587
X2.7382Y-5.8587
X2.7382Y-5.9587
X2.7382Y-6.0587
X2.7382Y-6.1587
X2.7482Y-4.3014
X2.7532Y-2.161
X2.755Y-2.685
X2.7582Y-3.1514
X2.7585Y-2.0514
X2.7632Y-6.0087
X2.7632Y-6.1087
X2.7732Y-2.4464
X2.7732Y-2.4914
X2.7732Y-4.5764
X2.7732Y-2.5314
X2.7832Y-3.3014
X2.7832Y-3.3514
X2.785Y-2.655
X2.7882Y-6.0587
X2.7882Y-6.1587
X2.7932Y-2.7364
X2.7982Y-4.6014
X2.8Y-2.91
X2.8132Y-6.1087
X2.8332Y-2.7814
X2.8364Y-2.4464
X2.8382Y-6.0587
X2.8382Y-6.1587
X2.84Y-2.91
X2.8482Y-3.3514
X2.8532Y-3.2414
X2.8632Y-3.0014
X2.8632Y-6.1087
X2.8682Y-3.3914
X2.8732Y-2.5064
X2.8832Y-1.6814
X2.8832Y-3.5814
X2.8882Y-6.0587
X2.8882Y-6.1587
X2.8882Y-6.2087
X2.8882Y-6.2587
X2.8882Y-6.3087
X2.8882Y-6.3587
X2.8932Y-2.4514
X2.8932Y-3.3014
X2.8982Y-1.7823
X2.9082Y-3.3914
X2.9182Y-3.5614
X2.936Y-3.0814
X2.9382Y-1.9714
X2.9382Y-3.0014
X2.9382Y-6.1837
X2.9382Y-6.2337
X2.9382Y-6.2837
X2.9382Y-6.3337
X2.9382Y-6.3837
X2.9482Y-3.3914
X2.9532Y-3.5814
X2.9625Y-2.56
X2.9632Y-2.7614
X2.9718Y-2.33
X2.9875Y-3.3925
X2.9882Y-3.5614
X2.9882Y-6.1587
X2.9882Y-6.2087
X2.9882Y-6.2587
X2.9882Y-6.3087
X2.9882Y-6.3587
X2.99Y-2.5325
X2.99Y-2.59
X2.99Y-2.6575
X3.0132Y-1.9714
X3.015Y-2.69
X3.0177Y-2.5602
X3.0182Y-2.5014
X3.0382Y-6.1837
X3.0382Y-6.2337
X3.0382Y-6.2837
X3.0382Y-6.3337
X3.0382Y-6.3837
X3.0532Y-4.4514
X3.0607Y-2.9049
X3.0832Y-4.5864
X3.0832Y-4.6214
X3.0832Y-4.6564
X3.0832Y-4.6914
X3.0832Y-4.7264
X3.0876Y-2.7814
X3.0882Y-3.1064
X3.0932Y-1.7214
X3.1132Y-1.4464
X3.1132Y-1.7564
X3.1207Y-4.4514
X3.1332Y-1.7214
X3.1332Y-1.7914
X3.1532Y-1.7564
X3.1532Y-3.3314
X3.1574Y-2.69
X3.1632Y-1.4464
X3.1732Y-1.7214
X3.1732Y-1.7914
X3.1732Y-2.4214
X3.1732Y-2.4814
X3.1882Y-6.1337
X3.1932Y-1.7564
X3.2132Y-1.7214
X3.2132Y-1.7914
X3.2182Y-3.0564
X3.2382Y-6.1337
X3.2582Y-2.9464
X3.2582Y-3.0564
X3.2632Y-2.6714
X3.2632Y-6.0837
X3.2632Y-6.1837
X3.2882Y-2.9164
X3.2882Y-6.1337
X3.2882Y-6.2337
X3.2982Y-3.0564
X3.3035Y-2.6714
X3.3132Y-6.0837
X3.3132Y-6.1837
X3.3182Y-4.5064
X3.3382Y-3.0564
X3.3382Y-6.1337
X3.3382Y-6.2337
X3.3432Y-3.2514
X3.3543Y-3.3202
X3.3632Y-6.0837
X3.3632Y-6.1837
X3.3732Y-3.0714
X3.3882Y-6.0337
X3.3882Y-6.1337
X3.3882Y-6.2337
X3.3932Y-3.3514
X3.4057Y-3.5764
X3.4125Y-2.9625
X3.4132Y-4.8837
X3.4132Y-5.1837
X3.4132Y-5.4837
X3.4132Y-5.7837
X3.4132Y-6.0837
X3.4132Y-6.1837
X3.4175Y-2.5225
X3.4382Y-4.8337
X3.4382Y-5.1337
X3.4382Y-5.4337
X3.4382Y-5.7337
X3.4382Y-6.0337
X3.4382Y-6.1337
X3.4382Y-6.2337
X3.4532Y-3.0564
X3.4582Y-2.2214
X3.4632Y-6.0837
X3.4632Y-6.1837
X3.4882Y-4.8337
X3.4882Y-5.1337
X3.4882Y-5.4337
X3.4882Y-5.7337
X3.4882Y-6.0337
X3.4882Y-6.1337
X3.4882Y-6.2337
X3.4982Y-2.8414
X3.5132Y-6.0837
X3.5132Y-6.0837
X3.5132Y-6.0837
X3.5132Y-6.1837
X3.515Y-2.945
X3.515Y-2.99
X3.515Y-3.035
X3.5332Y-2.6314
X3.5382Y-4.8337
X3.5382Y-5.1337
X3.5382Y-5.4337
X3.5382Y-5.7337
X3.5382Y-6.0337
X3.5382Y-6.1337
X3.5382Y-6.2337
X3.5432Y-4.5214
X3.5625Y-2.51
X3.5625Y-2.43
X3.5625Y-2.47
X3.5625Y-2.5525
X3.5632Y-4.4864
X3.5632Y-4.8837
X3.5632Y-5.0837
X3.5632Y-5.1837
X3.5632Y-5.4837
X3.5632Y-5.6837
X3.5632Y-5.7837
X3.5632Y-5.9837
X3.5632Y-6.0837
X3.5632Y-6.1837
X3.5832Y-4.4514
X3.5882Y-4.8337
X3.5882Y-5.0337
X3.5882Y-5.1337
X3.5882Y-5.3337
X3.5882Y-5.4337
X3.5882Y-5.6337
X3.5882Y-5.7337
X3.5882Y-6.0337
X3.5882Y-6.1337
X3.5882Y-6.1337
X3.5882Y-6.1337
X3.5882Y-6.2337
X3.5982Y-1.8664
X3.6032Y-4.4164
X3.6132Y-4.8837
X3.6132Y-5.0837
X3.6132Y-5.1837
X3.6132Y-5.3837
X3.6132Y-5.4837
X3.6132Y-5.6837
X3.6132Y-5.7837
X3.6132Y-5.9837
X3.6132Y-6.0837
X3.6132Y-6.1837
X3.6232Y-4.3814
X3.6357Y-1.8514
X3.6382Y-4.8337
X3.6382Y-4.9337
X3.6382Y-5.0337
X3.6382Y-5.1337
X3.6382Y-5.2337
X3.6382Y-5.3337
X3.6382Y-5.4337
X3.6382Y-5.5337
X3.6382Y-5.6337
X3.6382Y-5.7337
X3.6382Y-5.8337
X3.6382Y-5.9337
X3.6382Y-6.0337
X3.6382Y-6.1337
X3.6382Y-6.2337
X3.6632Y-6.1837
X3.6882Y-6.2337
X3.69Y-2.33
X3.695Y-1.74
X3.7132Y-6.1837
X3.72Y-2.305
X3.7382Y-6.2337
X3.75Y-2.33
X3.7814Y-1.7396
X3.7814Y-1.8514
X3.8018Y-2.4714
X3.8732Y-1.1014
X3.8782Y-1.8864
X3.9657Y-1.2114
X4.0132Y-1.7564
X4.0132Y-1.9691
X4.0132Y-2.0191
X4.0132Y-2.0691
X4.0132Y-2.1191
X4.0132Y-2.1691
X4.0132Y-2.2191
X4.0132Y-2.2691
X4.0132Y-2.3191
X4.0132Y-2.3691
X4.0132Y-2.4191
X4.0132Y-2.4691
X4.0132Y-2.5191
X4.0132Y-2.8352
X4.0132Y-2.8852
X4.0132Y-2.9352
X4.0132Y-2.9852
X4.0132Y-3.0352
X4.0132Y-3.0852
X4.0132Y-3.1352
X4.0132Y-3.1852
X4.0132Y-3.2352
X4.0132Y-3.2852
X4.0132Y-3.3352
X4.0132Y-3.3852
X4.0132Y-3.7014
X4.0132Y-3.7514
X4.0132Y-3.8014
X4.0132Y-3.8514
X4.0132Y-3.9014
X4.0132Y-3.9514
X4.0132Y-4.0014
X4.0132Y-4.0514
X4.0132Y-4.1014
X4.0132Y-4.1514
X4.0132Y-4.2014
X4.0132Y-4.2514
X4.0132Y-4.5675
X4.0132Y-4.6175
X4.0132Y-4.6675
X4.0132Y-4.7175
X4.0132Y-4.7675
X4.0132Y-4.8175
X4.0132Y-4.8675
X4.0132Y-4.9175
X4.0132Y-4.9675
X4.0132Y-5.0175
X4.0132Y-5.0675
X4.0132Y-5.1175
X4.0132Y-5.4337
X4.0132Y-5.4837
X4.0132Y-5.5337
X4.0132Y-5.5837
X4.0132Y-5.6337
X4.0132Y-5.6837
X4.0132Y-5.7337
X4.0132Y-5.7837
X4.0132Y-5.8337
X4.0132Y-5.8837
X4.0132Y-5.9337
X4.0132Y-5.9837
X4.0632Y-1.9941
X4.0632Y-2.0441
X4.0632Y-2.0941
X4.0632Y-2.1441
X4.0632Y-2.1941
X4.0632Y-2.2441
X4.0632Y-2.2941
X4.0632Y-2.3441
X4.0632Y-2.3941
X4.0632Y-2.4441
X4.0632Y-2.4941
X4.0632Y-2.8602
X4.0632Y-2.9102
X4.0632Y-2.9602
X4.0632Y-3.0102
X4.0632Y-3.0602
X4.0632Y-3.1102
X4.0632Y-3.1602
X4.0632Y-3.2102
X4.0632Y-3.2602
X4.0632Y-3.3102
X4.0632Y-3.3602
X4.0632Y-3.7264
X4.0632Y-3.7764
X4.0632Y-3.8264
X4.0632Y-3.8764
X4.0632Y-3.9264
X4.0632Y-3.9764
X4.0632Y-4.0264
X4.0632Y-4.0764
X4.0632Y-4.1264
X4.0632Y-4.1764
X4.0632Y-4.2264
X4.0632Y-4.5925
X4.0632Y-4.6425
X4.0632Y-4.6925
X4.0632Y-4.7425
X4.0632Y-4.7925
X4.0632Y-4.8425
X4.0632Y-4.8925
X4.0632Y-4.9425
X4.0632Y-4.9925
X4.0632Y-5.0425
X4.0632Y-5.0925
X4.0632Y-5.4587
X4.0632Y-5.5087
X4.0632Y-5.5587
X4.0632Y-5.6087
X4.0632Y-5.6587
X4.0632Y-5.7087
X4.0632Y-5.7587
X4.0632Y-5.8087
X4.0632Y-5.8587
X4.0632Y-5.9087
X4.0632Y-5.9587
X4.08Y-1.59
X4.0882Y-6.7087
X4.0882Y-6.7587
X4.0882Y-6.8087
X4.0882Y-6.8587
X4.0882Y-6.9087
X4.0906Y-6.1489
X4.1132Y-1.9691
X4.1132Y-2.0191
X4.1132Y-2.0691
X4.1132Y-2.1191
X4.1132Y-2.1691
X4.1132Y-2.2191
X4.1132Y-2.2691
X4.1132Y-2.3191
X4.1132Y-2.3691
X4.1132Y-2.4191
X4.1132Y-2.4691
X4.1132Y-2.5191
X4.1132Y-2.8352
X4.1132Y-2.8852
X4.1132Y-2.9352
X4.1132Y-2.9852
X4.1132Y-3.0352
X4.1132Y-3.0852
X4.1132Y-3.1352
X4.1132Y-3.1852
X4.1132Y-3.2352
X4.1132Y-3.2852
X4.1132Y-3.3352
X4.1132Y-3.3852
X4.1132Y-3.7014
X4.1132Y-3.7514
X4.1132Y-3.8014
X4.1132Y-3.8514
X4.1132Y-3.9014
X4.1132Y-3.9514
X4.1132Y-4.0014
X4.1132Y-4.0514
X4.1132Y-4.1014
X4.1132Y-4.1514
X4.1132Y-4.2014
X4.1132Y-4.2514
X4.1132Y-4.5675
X4.1132Y-4.6175
X4.1132Y-4.6675
X4.1132Y-4.7175
X4.1132Y-4.7675
X4.1132Y-4.8175
X4.1132Y-4.8675
X4.1132Y-4.9175
X4.1132Y-4.9675
X4.1132Y-5.0175
X4.1132Y-5.0675
X4.1132Y-5.1175
X4.1132Y-5.4337
X4.1132Y-5.4837
X4.1132Y-5.5337
X4.1132Y-5.5837
X4.1132Y-5.6337
X4.1132Y-5.6837
X4.1132Y-5.7337
X4.1132Y-5.7837
X4.1132Y-5.8337
X4.1132Y-5.8837
X4.1132Y-5.9337
X4.1132Y-5.9837
X4.1382Y-1.1389
X4.1382Y-1.2914
X4.1382Y-6.6837
X4.1382Y-6.7337
X4.1382Y-6.7837
X4.1382Y-6.8337
X4.1382Y-6.8837
X4.1382Y-6.9337
X4.1582Y-1.4814
X4.1582Y-1.5189
X4.1582Y-1.5564
X4.1582Y-4.4931
X4.1632Y-1.9941
X4.1632Y-2.0441
X4.1632Y-2.0941
X4.1632Y-2.1441
X4.1632Y-2.1941
X4.1632Y-2.2441
X4.1632Y-2.2941
X4.1632Y-2.3441
X4.1632Y-2.3941
X4.1632Y-2.4441
X4.1632Y-2.4941
X4.1632Y-2.8602
X4.1632Y-2.9102
X4.1632Y-2.9602
X4.1632Y-3.0102
X4.1632Y-3.0602
X4.1632Y-3.1102
X4.1632Y-3.1602
X4.1632Y-3.2102
X4.1632Y-3.2602
X4.1632Y-3.3102
X4.1632Y-3.3602
X4.1632Y-3.7264
X4.1632Y-3.7764
X4.1632Y-3.8264
X4.1632Y-3.8764
X4.1632Y-3.9264
X4.1632Y-3.9764
X4.1632Y-4.0264
X4.1632Y-4.0764
X4.1632Y-4.1264
X4.1632Y-4.1764
X4.1632Y-4.2264
X4.1632Y-4.5925
X4.1632Y-4.6425
X4.1632Y-4.6925
X4.1632Y-4.7425
X4.1632Y-4.7925
X4.1632Y-4.8425
X4.1632Y-4.8925
X4.1632Y-4.9425
X4.1632Y-4.9925
X4.1632Y-5.0425
X4.1632Y-5.0925
X4.1632Y-5.4587
X4.1632Y-5.5087
X4.1632Y-5.5587
X4.1632Y-5.6087
X4.1632Y-5.6587
X4.1632Y-5.7087
X4.1632Y-5.7587
X4.1632Y-5.8087
X4.1632Y-5.8587
X4.1632Y-5.9087
X4.1632Y-5.9587
X4.1882Y-6.6587
X4.1882Y-6.7087
X4.1882Y-6.7587
X4.1882Y-6.8087
X4.1882Y-6.8587
X4.1882Y-6.9087
X4.1882Y-6.9587
X4.1982Y-4.4931
X4.2132Y-1.9691
X4.2132Y-2.0191
X4.2132Y-2.0691
X4.2132Y-2.1191
X4.2132Y-2.1691
X4.2132Y-2.2191
X4.2132Y-2.2691
X4.2132Y-2.3191
X4.2132Y-2.3691
X4.2132Y-2.4191
X4.2132Y-2.4691
X4.2132Y-2.5191
X4.2132Y-2.8352
X4.2132Y-2.8852
X4.2132Y-2.9352
X4.2132Y-2.9852
X4.2132Y-3.0352
X4.2132Y-3.0852
X4.2132Y-3.1352
X4.2132Y-3.1852
X4.2132Y-3.2352
X4.2132Y-3.2852
X4.2132Y-3.3352
X4.2132Y-3.3852
X4.2132Y-3.7014
X4.2132Y-3.7514
X4.2132Y-3.8014
X4.2132Y-3.8514
X4.2132Y-3.9014
X4.2132Y-3.9514
X4.2132Y-4.0014
X4.2132Y-4.0514
X4.2132Y-4.1014
X4.2132Y-4.1514
X4.2132Y-4.2014
X4.2132Y-4.2514
X4.2132Y-4.5675
X4.2132Y-4.6175
X4.2132Y-4.6675
X4.2132Y-4.7175
X4.2132Y-4.7675
X4.2132Y-4.8175
X4.2132Y-4.8675
X4.2132Y-4.9175
X4.2132Y-4.9675
X4.2132Y-5.0175
X4.2132Y-5.0675
X4.2132Y-5.1175
X4.2132Y-5.4337
X4.2132Y-5.4837
X4.2132Y-5.5337
X4.2132Y-5.5837
X4.2132Y-5.6337
X4.2132Y-5.6837
X4.2132Y-5.7337
X4.2132Y-5.7837
X4.2132Y-5.8337
X4.2132Y-5.8837
X4.2132Y-5.9337
X4.2132Y-5.9837
X4.2382Y-6.6337
X4.2382Y-6.6837
X4.2382Y-6.9337
X4.2507Y-3.5914
X4.2534Y-1.2784
X4.255Y-1.24
X4.2573Y-1.0973
X4.2582Y-1.0514
X4.2582Y-1.1664
X4.2632Y-2.7016
X4.2657Y-1.4814
X4.2657Y-1.5189
X4.2657Y-1.5564
X4.2732Y-2.5864
X4.2882Y-6.5587
X4.2882Y-6.6087
X4.2882Y-6.6587
X4.2982Y-2.6481
X4.3032Y-1.4814
X4.3032Y-1.5189
X4.3032Y-1.5564
X4.3032Y-1.6764
X4.3032Y-1.7164
X4.3032Y-1.7564
X4.3032Y-1.7964
X4.3314Y-3.5264
X4.3382Y-1.6614
X4.3382Y-1.6964
X4.3382Y-1.7364
X4.3382Y-1.7764
X4.3382Y-5.2864
X4.3382Y-5.3664
X4.3382Y-6.6337
X4.3482Y-2.6214
X4.3582Y-1.8414
X4.3732Y-1.2664
X4.3782Y-4.6064
X4.38Y-1.07
X4.3882Y-6.6587
X4.3982Y-2.8164
X4.4032Y-4.4164
X4.41Y-1.0364
X4.4132Y-1.2664
X4.4282Y-4.3864
X4.4382Y-2.6914
X4.4382Y-6.5337
X4.4382Y-6.5837
X4.4382Y-6.6337
X4.4382Y-6.6837
X4.4482Y-6.0014
X4.4482Y-6.0714
X4.4532Y-1.2664
X4.4532Y-4.3564
X4.47Y-4.51
X4.4782Y-4.3281
X4.5032Y-4.2964
X4.5282Y-4.2664
X4.5282Y-6.0714
X4.5332Y-4.6064
X4.535Y-4.51
X4.5382Y-6.5337
X4.5382Y-6.5837
X4.5382Y-6.6337
X4.5382Y-6.6837
X4.5632Y-2.5639
X4.5682Y-1.2689
X4.5732Y-1.1414
X4.5732Y-1.1814
X4.5882Y-4.3414
X4.5882Y-6.6587
X4.6082Y-2.8564
X4.63Y-1.635
X4.6382Y-3.5264
X4.6382Y-4.3414
X4.6382Y-6.6337
X4.6499Y-5.2564
X4.6882Y-2.7564
X4.6882Y-6.5587
X4.6882Y-6.6087
X4.6882Y-6.6587
X4.6932Y-2.6164
X4.7282Y-2.5864
X4.7282Y-2.7764
X4.7282Y-3.5864
X4.7282Y-5.3264
X4.7382Y-6.6337
X4.7382Y-6.6837
X4.7382Y-6.9337
X4.7632Y-1.9691
X4.7632Y-2.0191
X4.7632Y-2.0691
X4.7632Y-2.1191
X4.7632Y-2.1691
X4.7632Y-2.2191
X4.7632Y-2.2691
X4.7632Y-2.3191
X4.7632Y-2.3691
X4.7632Y-2.4191
X4.7632Y-2.4691
X4.7632Y-2.5191
X4.7632Y-2.6164
X4.7632Y-2.8352
X4.7632Y-2.8852
X4.7632Y-2.9352
X4.7632Y-2.9852
X4.7632Y-3.0352
X4.7632Y-3.0852
X4.7632Y-3.1352
X4.7632Y-3.1852
X4.7632Y-3.2352
X4.7632Y-3.2852
X4.7632Y-3.3352
X4.7632Y-3.3852
X4.7632Y-3.7014
X4.7632Y-3.7514
X4.7632Y-3.8014
X4.7632Y-3.8514
X4.7632Y-3.9014
X4.7632Y-3.9514
X4.7632Y-4.0014
X4.7632Y-4.0514
X4.7632Y-4.1014
X4.7632Y-4.1514
X4.7632Y-4.2014
X4.7632Y-4.2514
X4.7632Y-4.5675
X4.7632Y-4.6175
X4.7632Y-4.6675
X4.7632Y-4.7175
X4.7632Y-4.7675
X4.7632Y-4.8175
X4.7632Y-4.8675
X4.7632Y-4.9175
X4.7632Y-4.9675
X4.7632Y-5.0175
X4.7632Y-5.0675
X4.7632Y-5.1175
X4.7632Y-5.4337
X4.7632Y-5.4837
X4.7632Y-5.5337
X4.7632Y-5.5837
X4.7632Y-5.6337
X4.7632Y-5.6837
X4.7632Y-5.7337
X4.7632Y-5.7837
X4.7632Y-5.8337
X4.7632Y-5.8837
X4.7632Y-5.9337
X4.7632Y-5.9837
X4.7682Y-2.7564
X4.7882Y-6.5587
X4.7882Y-6.6087
X4.7882Y-6.6587
X4.7882Y-6.7087
X4.7882Y-6.7587
X4.7882Y-6.8087
X4.7882Y-6.8587
X4.7882Y-6.9087
X4.7882Y-6.9587
X4.7933Y-6.0667
X4.7982Y-2.5864
X4.8082Y-2.7764
X4.8132Y-1.9941
X4.8132Y-2.0441
X4.8132Y-2.0941
X4.8132Y-2.1441
X4.8132Y-2.1941
X4.8132Y-2.2441
X4.8132Y-2.2941
X4.8132Y-2.3441
X4.8132Y-2.3941
X4.8132Y-2.4441
X4.8132Y-2.4941
X4.8132Y-2.8602
X4.8132Y-2.9102
X4.8132Y-2.9602
X4.8132Y-3.0102
X4.8132Y-3.0602
X4.8132Y-3.1102
X4.8132Y-3.1602
X4.8132Y-3.2102
X4.8132Y-3.2602
X4.8132Y-3.3102
X4.8132Y-3.3602
X4.8132Y-3.7264
X4.8132Y-3.7764
X4.8132Y-3.8264
X4.8132Y-3.8764
X4.8132Y-3.9264
X4.8132Y-3.9764
X4.8132Y-4.0264
X4.8132Y-4.0764
X4.8132Y-4.1264
X4.8132Y-4.1764
X4.8132Y-4.2264
X4.8132Y-4.5925
X4.8132Y-4.6425
X4.8132Y-4.6925
X4.8132Y-4.7425
X4.8132Y-4.7925
X4.8132Y-4.8425
X4.8132Y-4.8925
X4.8132Y-4.9425
X4.8132Y-4.9925
X4.8132Y-5.0425
X4.8132Y-5.0925
X4.8132Y-5.4587
X4.8132Y-5.5087
X4.8132Y-5.5587
X4.8132Y-5.6087
X4.8132Y-5.6587
X4.8132Y-5.7087
X4.8132Y-5.7587
X4.8132Y-5.8087
X4.8132Y-5.8587
X4.8132Y-5.9087
X4.8132Y-5.9587
X4.8332Y-2.6164
X4.8382Y-6.4837
X4.8382Y-6.4837
X4.8382Y-6.4837
X4.8382Y-6.5337
X4.8382Y-6.5837
X4.8382Y-6.6337
X4.8382Y-6.6837
X4.8382Y-6.7337
X4.8382Y-6.7837
X4.8382Y-6.8337
X4.8382Y-6.8837
X4.8382Y-6.9337
X4.8482Y-2.7564
X4.8632Y-1.9691
X4.8632Y-2.0191
X4.8632Y-2.0691
X4.8632Y-2.1191
X4.8632Y-2.1691
X4.8632Y-2.2191
X4.8632Y-2.2691
X4.8632Y-2.3191
X4.8632Y-2.3691
X4.8632Y-2.4191
X4.8632Y-2.4691
X4.8632Y-2.5191
X4.8632Y-2.8352
X4.8632Y-2.8852
X4.8632Y-2.9352
X4.8632Y-2.9852
X4.8632Y-3.0352
X4.8632Y-3.0852
X4.8632Y-3.1352
X4.8632Y-3.1852
X4.8632Y-3.2352
X4.8632Y-3.2852
X4.8632Y-3.3352
X4.8632Y-3.3852
X4.8632Y-3.7014
X4.8632Y-3.7514
X4.8632Y-3.8014
X4.8632Y-3.8514
X4.8632Y-3.9014
X4.8632Y-3.9514
X4.8632Y-4.0014
X4.8632Y-4.0514
X4.8632Y-4.1014
X4.8632Y-4.1514
X4.8632Y-4.2014
X4.8632Y-4.2514
X4.8632Y-4.5675
X4.8632Y-4.6175
X4.8632Y-4.6675
X4.8632Y-4.7175
X4.8632Y-4.7675
X4.8632Y-4.8175
X4.8632Y-4.8675
X4.8632Y-4.9175
X4.8632Y-4.9675
X4.8632Y-5.0175
X4.8632Y-5.0675
X4.8632Y-5.1175
X4.8632Y-5.4337
X4.8632Y-5.4837
X4.8632Y-5.5337
X4.8632Y-5.5837
X4.8632Y-5.6337
X4.8632Y-5.6837
X4.8632Y-5.7337
X4.8632Y-5.7837
X4.8632Y-5.8337
X4.8632Y-5.8837
X4.8632Y-5.9337
X4.8632Y-5.9837
X4.8682Y-2.5864
X4.8682Y-6.1464
X4.8882Y-2.7764
X4.8882Y-6.5087
X4.8882Y-6.5587
X4.8882Y-6.6087
X4.8882Y-6.6587
X4.8882Y-6.7087
X4.8882Y-6.7587
X4.8882Y-6.8087
X4.8882Y-6.8587
X4.8882Y-6.9087
X4.9032Y-2.6164
X4.9132Y-1.9941
X4.9132Y-2.0441
X4.9132Y-2.0941
X4.9132Y-2.1441
X4.9132Y-2.1941
X4.9132Y-2.2441
X4.9132Y-2.2941
X4.9132Y-2.3441
X4.9132Y-2.3941
X4.9132Y-2.4441
X4.9132Y-2.4941
X4.9132Y-2.8602
X4.9132Y-2.9102
X4.9132Y-2.9602
X4.9132Y-3.0102
X4.9132Y-3.0602
X4.9132Y-3.1102
X4.9132Y-3.1602
X4.9132Y-3.2102
X4.9132Y-3.2602
X4.9132Y-3.3102
X4.9132Y-3.3602
X4.9132Y-3.7264
X4.9132Y-3.7764
X4.9132Y-3.8264
X4.9132Y-3.8764
X4.9132Y-3.9264
X4.9132Y-3.9764
X4.9132Y-4.0264
X4.9132Y-4.0764
X4.9132Y-4.1264
X4.9132Y-4.1764
X4.9132Y-4.2264
X4.9132Y-4.5925
X4.9132Y-4.6425
X4.9132Y-4.6925
X4.9132Y-4.7425
X4.9132Y-4.7925
X4.9132Y-4.8425
X4.9132Y-4.8925
X4.9132Y-4.9425
X4.9132Y-4.9925
X4.9132Y-5.0425
X4.9132Y-5.0925
X4.9132Y-5.4587
X4.9132Y-5.5087
X4.9132Y-5.5587
X4.9132Y-5.6087
X4.9132Y-5.6587
X4.9132Y-5.7087
X4.9132Y-5.7587
X4.9132Y-5.8087
X4.9132Y-5.8587
X4.9132Y-5.9087
X4.9132Y-5.9587
X4.9232Y-1.1764
X4.9282Y-2.7564
X4.9382Y-2.5864
X4.9382Y-6.4837
X4.9382Y-6.5337
X4.9382Y-6.5837
X4.9382Y-6.6337
X4.9382Y-6.6837
X4.9382Y-6.7337
X4.9382Y-6.7837
X4.9382Y-6.8337
X4.9382Y-6.8837
X4.9382Y-6.9337
X4.9632Y-1.9691
X4.9632Y-2.0191
X4.9632Y-2.0691
X4.9632Y-2.1191
X4.9632Y-2.1691
X4.9632Y-2.2191
X4.9632Y-2.2691
X4.9632Y-2.3191
X4.9632Y-2.3691
X4.9632Y-2.4191
X4.9632Y-2.4691
X4.9632Y-2.5191
X4.9632Y-2.8352
X4.9632Y-2.8852
X4.9632Y-2.9352
X4.9632Y-2.9852
X4.9632Y-3.0352
X4.9632Y-3.0852
X4.9632Y-3.1352
X4.9632Y-3.1852
X4.9632Y-3.2352
X4.9632Y-3.2852
X4.9632Y-3.3352
X4.9632Y-3.3852
X4.9632Y-3.7014
X4.9632Y-3.7514
X4.9632Y-3.8014
X4.9632Y-3.8514
X4.9632Y-3.9014
X4.9632Y-3.9514
X4.9632Y-4.0014
X4.9632Y-4.0514
X4.9632Y-4.1014
X4.9632Y-4.1514
X4.9632Y-4.2014
X4.9632Y-4.2514
X4.9632Y-4.5675
X4.9632Y-4.6175
X4.9632Y-4.6675
X4.9632Y-4.7175
X4.9632Y-4.7675
X4.9632Y-4.8175
X4.9632Y-4.8675
X4.9632Y-4.9175
X4.9632Y-4.9675
X4.9632Y-5.0175
X4.9632Y-5.0675
X4.9632Y-5.1175
X4.9632Y-5.4337
X4.9632Y-5.4837
X4.9632Y-5.5337
X4.9632Y-5.5837
X4.9632Y-5.6337
X4.9632Y-5.6837
X4.9632Y-5.7337
X4.9632Y-5.7837
X4.9632Y-5.8337
X4.9632Y-5.8837
X4.9632Y-5.9337
X4.9632Y-5.9837
X4.9882Y-6.5087
X4.9882Y-6.5587
X4.9882Y-6.6087
X4.9882Y-6.6587
X4.9882Y-6.7087
X4.9882Y-6.7587
X4.9882Y-6.8087
X4.9882Y-6.8587
X4.9882Y-6.9087
X5.0432Y-1.8864
X5.0782Y-1.9064
X5.2732Y-4.5114
X5.3132Y-4.5514
X5.3557Y-1.8064
X5.3557Y-1.9514
X5.3582Y-2.2714
X5.3582Y-2.7514
X5.3632Y-4.6664
X5.37Y-4.19
X5.3882Y-6.2087
X5.3882Y-6.2587
X5.3882Y-6.3087
X5.3882Y-6.3587
X5.3882Y-6.4087
X5.3882Y-6.4587
X5.3882Y-6.5087
X5.3882Y-6.5587
X5.3882Y-6.6087
X5.3882Y-6.6587
X5.3882Y-6.7087
X5.3882Y-6.7587
X5.3882Y-6.7587
X5.3882Y-6.7587
X5.3882Y-6.8087
X5.4033Y-4.5811
X5.4082Y-3.2864
X5.4132Y-3.8914
X5.4182Y-4.1914
X5.4382Y-2.0514
X5.4382Y-4.9864
X5.4382Y-6.1837
X5.4382Y-6.2337
X5.4382Y-6.2837
X5.4382Y-6.3337
X5.4382Y-6.3837
X5.4382Y-6.4337
X5.4382Y-6.4837
X5.4382Y-6.5337
X5.4382Y-6.5837
X5.4382Y-6.6337
X5.4382Y-6.6837
X5.4382Y-6.7337
X5.4382Y-6.7837
X5.4532Y-1.1014
X5.4632Y-2.0014
X5.4732Y-4.6664
X5.4882Y-1.9514
X5.4882Y-2.0514
X5.4882Y-6.1087
X5.4882Y-6.1587
X5.4882Y-6.2087
X5.4882Y-6.2587
X5.4882Y-6.3087
X5.4882Y-6.3587
X5.4882Y-6.4087
X5.4882Y-6.4587
X5.4882Y-6.5087
X5.4882Y-6.5587
X5.4882Y-6.6087
X5.4882Y-6.6587
X5.4882Y-6.7087
X5.4882Y-6.7587
X5.4914Y-4.3214
X5.5132Y-2.0014
X5.5182Y-2.9514
X5.5182Y-3.2514
X5.5182Y-3.5514
X5.5182Y-3.8514
X5.5182Y-4.1514
X5.5368Y-1.825
X5.5382Y-1.9514
X5.5382Y-2.0514
X5.5382Y-6.0837
X5.5382Y-6.1337
X5.5382Y-6.1837
X5.5382Y-6.2337
X5.5382Y-6.2837
X5.5382Y-6.3337
X5.5382Y-6.3837
X5.5382Y-6.4337
X5.5382Y-6.4837
X5.5382Y-6.5337
X5.5382Y-6.5837
X5.5382Y-6.6337
X5.5382Y-6.6837
X5.5382Y-6.7337
X5.5582Y-5.1664
X5.5632Y-1.1364
X5.5632Y-1.9014
X5.5632Y-2.0014
X5.5832Y-2.5314
X5.5832Y-2.6864
X5.5882Y-1.9514
X5.5882Y-2.0514
X5.5882Y-6.0087
X5.5882Y-6.0587
X5.5882Y-6.1087
X5.5882Y-6.1587
X5.5882Y-6.1587
X5.5882Y-6.1587
X5.5882Y-6.2087
X5.5882Y-6.2587
X5.5882Y-6.3087
X5.5882Y-6.3587
X5.5882Y-6.4087
X5.5882Y-6.4587
X5.5882Y-6.5087
X5.5882Y-6.5587
X5.5882Y-6.6087
X5.5882Y-6.6587
X5.5882Y-6.7087
X5.6132Y-2.0014
X5.615Y-5.315
X5.6382Y-1.9514
X5.6382Y-2.0514
X5.655Y-4.925
X5.6632Y-1.8264
X5.6632Y-2.0014
X5.665Y-5.225
X5.6782Y-5.0464
X5.6882Y-1.9514
X5.6882Y-2.1514
X5.6882Y-2.2014
X5.69Y-5.315
X5.7282Y-4.1214
X5.7382Y-1.9514
X5.7382Y-2.1514
X5.7382Y-2.2014
X5.7382Y-2.2514
X5.76Y-5.315
X5.7632Y-1.8264
X5.7632Y-2.0014
X5.7882Y-1.9514
X5.7882Y-2.0514
X5.7882Y-2.3764
X5.8132Y-2.0014
X5.8382Y-1.9514
X5.8382Y-2.0514
X5.8382Y-2.3764
X5.8446Y-5.2828
X5.8632Y-2.0014
X5.8632Y-2.4264
X5.875Y-5.495
X5.8882Y-1.9514
X5.8882Y-2.0514
X5.8882Y-2.3764
X5.8882Y-2.4764
X5.8882Y-5.2814
X5.8882Y-5.5364
X5.905Y-5.3149
X5.9132Y-2.0014
X5.9132Y-2.4264
X5.9382Y-1.9514
X5.9382Y-2.0514
X5.9382Y-2.3764
X5.9482Y-5.3114
X5.9632Y-2.0014
X5.9632Y-5.5914
X5.9732Y-2.7514
X5.9732Y-4.8814
X5.9749Y-5.2814
X5.9882Y-1.9514
X5.9882Y-2.0514
X6.01Y-1.835
X6.0132Y-2.0014
X6.0228Y-4.7295
X6.0332Y-5.0831
X6.0382Y-1.9514
X6.0382Y-2.0514
X6.0432Y-5.0283
X6.0632Y-2.0014
X6.0832Y-5.0264
X6.0882Y-1.9514
X6.0982Y-5.3114
X6.1232Y-5.0264
X6.1382Y-1.9514
X6.1382Y-4.8
X6.1382Y-5.1914
X6.1582Y-5.3114
X6.1632Y-5.0264
X6.1882Y-1.9514
X6.2132Y-2.0014
X6.2382Y-2.0514
X6.2382Y-2.3764
X6.2582Y-5.3114
X6.2632Y-2.0014
X6.2882Y-2.0514
X6.3032Y-2.4264
X6.3282Y-5.3114
X6.3382Y-5.5364
X6.3404Y-5.0364
X6.37Y-2.655
X6.3832Y-5.5364
X6.3882Y-2.5764
X6.4282Y-3.6664
X6.4332Y-2.8514
X6.4332Y-3.1514
X6.4332Y-3.4514
X6.4332Y-3.7514
X6.44Y-4.09
X6.4882Y-4.2664
X6.5132Y-2.5514
X6.5382Y-2.5764
X6.5382Y-5.2096
X6.5432Y-3.0714
X6.5432Y-4.6564
X6.5482Y-2.7714
X6.5582Y-3.3814
X6.5632Y-2.6014
X6.5748Y-4.9564
X6.7232Y-3.4514
X6.7432Y-3.5664
X6.8282Y-5.3264
X6.9882Y-1.9691
X6.9882Y-2.0191
X6.9882Y-2.0691
X6.9882Y-2.1191
X6.9882Y-2.1691
X6.9882Y-2.2191
X6.9882Y-2.2691
X6.9882Y-2.3191
X6.9882Y-2.3691
X6.9882Y-2.4191
X6.9882Y-2.4691
X6.9882Y-2.5191
X6.9882Y-2.8352
X6.9882Y-2.8852
X6.9882Y-2.9352
X6.9882Y-2.9852
X6.9882Y-3.0352
X6.9882Y-3.0852
X6.9882Y-3.1352
X6.9882Y-3.1852
X6.9882Y-3.2352
X6.9882Y-3.2852
X6.9882Y-3.3352
X6.9882Y-3.3852
X6.9882Y-3.7014
X6.9882Y-3.7514
X6.9882Y-3.8014
X6.9882Y-3.8514
X6.9882Y-3.9014
X6.9882Y-3.9514
X6.9882Y-4.0014
X6.9882Y-4.0514
X6.9882Y-4.1014
X6.9882Y-4.1514
X6.9882Y-4.2014
X6.9882Y-4.2514
X6.9882Y-4.5675
X6.9882Y-4.6175
X6.9882Y-4.6675
X6.9882Y-4.7175
X6.9882Y-4.7675
X6.9882Y-4.8175
X6.9882Y-4.8675
X6.9882Y-4.9175
X6.9882Y-4.9675
X6.9882Y-5.0175
X6.9882Y-5.0675
X6.9882Y-5.1175
X6.9882Y-5.4337
X6.9882Y-5.4837
X6.9882Y-5.5337
X6.9882Y-5.5837
X6.9882Y-5.6337
X6.9882Y-5.6837
X6.9882Y-5.7337
X6.9882Y-5.7837
X6.9882Y-5.8337
X6.9882Y-5.8837
X6.9882Y-5.9337
X6.9882Y-5.9837
X7.0382Y-1.9941
X7.0382Y-2.0441
X7.0382Y-2.0941
X7.0382Y-2.1441
X7.0382Y-2.1941
X7.0382Y-2.2441
X7.0382Y-2.2941
X7.0382Y-2.3441
X7.0382Y-2.3941
X7.0382Y-2.4441
X7.0382Y-2.4941
X7.0382Y-2.8602
X7.0382Y-2.9102
X7.0382Y-2.9602
X7.0382Y-3.0102
X7.0382Y-3.0602
X7.0382Y-3.1102
X7.0382Y-3.1602
X7.0382Y-3.2102
X7.0382Y-3.2602
X7.0382Y-3.3102
X7.0382Y-3.3602
X7.0382Y-3.7264
X7.0382Y-3.7764
X7.0382Y-3.8264
X7.0382Y-3.8764
X7.0382Y-3.9264
X7.0382Y-3.9764
X7.0382Y-4.0264
X7.0382Y-4.0764
X7.0382Y-4.1264
X7.0382Y-4.1764
X7.0382Y-4.2264
X7.0382Y-4.5925
X7.0382Y-4.6425
X7.0382Y-4.6925
X7.0382Y-4.7425
X7.0382Y-4.7925
X7.0382Y-4.8425
X7.0382Y-4.8925
X7.0382Y-4.9425
X7.0382Y-4.9925
X7.0382Y-5.0425
X7.0382Y-5.0925
X7.0382Y-5.4587
X7.0382Y-5.5087
X7.0382Y-5.5587
X7.0382Y-5.6087
X7.0382Y-5.6587
X7.0382Y-5.7087
X7.0382Y-5.7587
X7.0382Y-5.8087
X7.0382Y-5.8587
X7.0382Y-5.9087
X7.0382Y-5.9587
X7.0782Y-5.3364
X7.0882Y-1.9691
X7.0882Y-2.0191
X7.0882Y-2.0691
X7.0882Y-2.1191
X7.0882Y-2.1691
X7.0882Y-2.2191
X7.0882Y-2.2691
X7.0882Y-2.3191
X7.0882Y-2.3691
X7.0882Y-2.4191
X7.0882Y-2.4691
X7.0882Y-2.5191
X7.0882Y-2.8352
X7.0882Y-2.8852
X7.0882Y-2.9352
X7.0882Y-2.9852
X7.0882Y-3.0352
X7.0882Y-3.0852
X7.0882Y-3.1352
X7.0882Y-3.1852
X7.0882Y-3.2352
X7.0882Y-3.2852
X7.0882Y-3.3352
X7.0882Y-3.3852
X7.0882Y-3.7014
X7.0882Y-3.7514
X7.0882Y-3.8014
X7.0882Y-3.8514
X7.0882Y-3.9014
X7.0882Y-3.9514
X7.0882Y-4.0014
X7.0882Y-4.0514
X7.0882Y-4.1014
X7.0882Y-4.1514
X7.0882Y-4.2014
X7.0882Y-4.2514
X7.0882Y-4.5675
X7.0882Y-4.6175
X7.0882Y-4.6675
X7.0882Y-4.7175
X7.0882Y-4.7675
X7.0882Y-4.8175
X7.0882Y-4.8675
X7.0882Y-4.9175
X7.0882Y-4.9675
X7.0882Y-5.0175
X7.0882Y-5.0675
X7.0882Y-5.1175
X7.0882Y-5.4337
X7.0882Y-5.4837
X7.0882Y-5.5337
X7.0882Y-5.5837
X7.0882Y-5.6337
X7.0882Y-5.6837
X7.0882Y-5.7337
X7.0882Y-5.7837
X7.0882Y-5.8337
X7.0882Y-5.8837
X7.0882Y-5.9337
X7.0882Y-5.9837
X7.1182Y-5.3364
X7.1382Y-1.9941
X7.1382Y-2.0441
X7.1382Y-2.0941
X7.1382Y-2.1441
X7.1382Y-2.1941
X7.1382Y-2.2441
X7.1382Y-2.2941
X7.1382Y-2.3441
X7.1382Y-2.3941
X7.1382Y-2.4441
X7.1382Y-2.4941
X7.1382Y-2.8602
X7.1382Y-2.9102
X7.1382Y-2.9602
X7.1382Y-3.0102
X7.1382Y-3.0602
X7.1382Y-3.1102
X7.1382Y-3.1602
X7.1382Y-3.2102
X7.1382Y-3.2602
X7.1382Y-3.3102
X7.1382Y-3.3602
X7.1382Y-3.7264
X7.1382Y-3.7764
X7.1382Y-3.8264
X7.1382Y-3.8764
X7.1382Y-3.9264
X7.1382Y-3.9764
X7.1382Y-4.0264
X7.1382Y-4.0764
X7.1382Y-4.1264
X7.1382Y-4.1764
X7.1382Y-4.2264
X7.1382Y-4.5925
X7.1382Y-4.6425
X7.1382Y-4.6925
X7.1382Y-4.7425
X7.1382Y-4.7925
X7.1382Y-4.8425
X7.1382Y-4.8925
X7.1382Y-4.9425
X7.1382Y-4.9925
X7.1382Y-5.0425
X7.1382Y-5.0925
X7.1382Y-5.4587
X7.1382Y-5.5087
X7.1382Y-5.5587
X7.1382Y-5.6087
X7.1382Y-5.6587
X7.1382Y-5.7087
X7.1382Y-5.7587
X7.1382Y-5.8087
X7.1382Y-5.8587
X7.1382Y-5.9087
X7.1382Y-5.9587
X7.1582Y-5.3364
X7.1882Y-1.9691
X7.1882Y-2.0191
X7.1882Y-2.0691
X7.1882Y-2.1191
X7.1882Y-2.1691
X7.1882Y-2.2191
X7.1882Y-2.2691
X7.1882Y-2.3191
X7.1882Y-2.3691
X7.1882Y-2.4191
X7.1882Y-2.4691
X7.1882Y-2.5191
X7.1882Y-2.8352
X7.1882Y-2.8852
X7.1882Y-2.9352
X7.1882Y-2.9852
X7.1882Y-3.0352
X7.1882Y-3.0852
X7.1882Y-3.1352
X7.1882Y-3.1852
X7.1882Y-3.2352
X7.1882Y-3.2852
X7.1882Y-3.3352
X7.1882Y-3.3852
X7.1882Y-3.7014
X7.1882Y-3.7514
X7.1882Y-3.8014
X7.1882Y-3.8514
X7.1882Y-3.9014
X7.1882Y-3.9514
X7.1882Y-4.0014
X7.1882Y-4.0514
X7.1882Y-4.1014
X7.1882Y-4.1514
X7.1882Y-4.2014
X7.1882Y-4.2514
X7.1882Y-4.5675
X7.1882Y-4.6175
X7.1882Y-4.6675
X7.1882Y-4.7175
X7.1882Y-4.7675
X7.1882Y-4.8175
X7.1882Y-4.8675
X7.1882Y-4.9175
X7.1882Y-4.9675
X7.1882Y-5.0175
X7.1882Y-5.0675
X7.1882Y-5.1175
X7.1882Y-5.4337
X7.1882Y-5.4837
X7.1882Y-5.5337
X7.1882Y-5.5837
X7.1882Y-5.6337
X7.1882Y-5.6837
X7.1882Y-5.7337
X7.1882Y-5.7837
X7.1882Y-5.8337
X7.1882Y-5.8837
X7.1882Y-5.9337
X7.1882Y-5.9837
X7.1982Y-5.3364
X7.2382Y-5.3364
T3
X3.5504Y-1.5514
X3.6882Y-1.5514
X2.7301Y-1.6597
X3.0301Y-1.6597
X5.2882Y-1.5514
X5.426Y-1.5514
T4
X4.2913Y-6.375
X4.3898Y-6.375
X4.4882Y-6.375
X4.5866Y-6.375
X4.685Y-6.375
X5.6214Y-1.2924
X5.6687Y-1.3787
X5.7159Y-1.465
X5.7632Y-1.5514
T5
X2.4132Y-2.8264
X2.4132Y-2.9264
X2.4132Y-3.0264
X2.4132Y-3.1264
X2.4132Y-3.2264
X2.1632Y-1.5014
X2.1632Y-1.6014
X2.2632Y-1.5014
X2.2632Y-1.6014
X2.3632Y-1.5014
X2.3632Y-1.6014
X2.4632Y-1.5014
X2.4632Y-1.6014
X2.5632Y-1.5014
X2.5632Y-1.6014
T6
X3.7795Y-1.3264
X5.1969Y-1.3264
T7
X4.3465Y-6.8264
X4.6299Y-6.8264
T2
X4.6949Y-2.0226G85X4.6949Y-2.4656
G05
X7.2539Y-2.0226G85X7.2539Y-2.4656
G05
X1.7224Y-5.064G85X1.7224Y-4.6211
G05
X4.2815Y-5.064G85X4.2815Y-4.6211
G05
X1.7224Y-3.7549G85X1.7224Y-4.1978
G05
X4.2815Y-3.7549G85X4.2815Y-4.1978
G05
X4.6949Y-5.4872G85X4.6949Y-5.9301
G05
X7.2539Y-5.4872G85X7.2539Y-5.9301
G05
X1.7224Y-3.3317G85X1.7224Y-2.8888
G05
X4.2815Y-3.3317G85X4.2815Y-2.8888
G05
X4.6949Y-3.3317G85X4.6949Y-2.8888
G05
X7.2539Y-3.3317G85X7.2539Y-2.8888
G05
X1.7224Y-5.4872G85X1.7224Y-5.9301
G05
X4.2815Y-5.4872G85X4.2815Y-5.9301
G05
X4.6949Y-5.064G85X4.6949Y-4.6211
G05
X7.2539Y-5.064G85X7.2539Y-4.6211
G05
X4.6949Y-3.7549G85X4.6949Y-4.1978
G05
X7.2539Y-3.7549G85X7.2539Y-4.1978
G05
X1.7224Y-2.0226G85X1.7224Y-2.4656
G05
X4.2815Y-2.0226G85X4.2815Y-2.4656
G05
T0
M30
