M48
; DRILL file {KiCad (5.1.2-1)-1} date Saturday, June 29, 2019 at 03:26:29 AM
; FORMAT={-:-/ absolute / inch / decimal}
; #@! TF.CreationDate,2019-06-29T03:26:29-07:00
; #@! TF.GenerationSoftware,Kicad,Pcbnew,(5.1.2-1)-1
; #@! TF.FileFunction,Plated,1,2,PTH
FMAT,2
INCH
T1C0.0157
T2C0.0394
%
G90
G05
T1
X3.985Y-2.33
X4.05Y-3.275
X4.09Y-3.185
X4.13Y-3.12
X4.13Y-3.6
X4.165Y-2.925
X4.165Y-3.5
X4.195Y-2.89
X4.195Y-2.96
X4.2Y-2.485
X4.23Y-2.85
X4.235Y-2.57
X4.31Y-3.115
X4.35Y-2.7
X4.39Y-3.675
X4.415Y-3.45
X4.49Y-2.25
X4.51Y-2.65
X4.56Y-2.325
X4.625Y-3.05
T2
X3.8Y-2.8
X3.8Y-2.9
X3.8Y-3.0
X3.8Y-3.1
X3.8Y-3.2
X4.7Y-2.5
X4.7Y-2.6
X4.7Y-2.7
X3.8Y-2.6
X3.8Y-2.7
X3.8Y-3.3
X3.8Y-3.4
X3.8Y-3.5
X3.8Y-2.2
X3.8Y-2.3
X3.8Y-2.4
X4.1Y-2.2
X4.1Y-2.3
X4.2Y-2.2
X4.2Y-2.3
X4.3Y-2.2
X4.3Y-2.3
X3.8Y-3.6
X3.8Y-3.7
X3.8Y-3.8
X3.8Y-3.9
X4.7Y-2.9
X4.7Y-3.0
X4.7Y-3.1
X4.7Y-3.2
X4.7Y-3.4
X4.7Y-3.5
T0
M30
