%TF.GenerationSoftware,KiCad,Pcbnew,(5.1.2-1)-1*%
%TF.CreationDate,2019-06-29T03:26:25-07:00*%
%TF.ProjectId,ButtonInterfaceBoard 0-2,42757474-6f6e-4496-9e74-657266616365,rev?*%
%TF.SameCoordinates,Original*%
%TF.FileFunction,Soldermask,Bot*%
%TF.FilePolarity,Negative*%
%FSLAX46Y46*%
G04 Gerber Fmt 4.6, Leading zero omitted, Abs format (unit mm)*
G04 Created by KiCad (PCBNEW (5.1.2-1)-1) date 2019-06-29 03:26:25*
%MOMM*%
%LPD*%
G04 APERTURE LIST*
%ADD10C,0.100000*%
G04 APERTURE END LIST*
D10*
G36*
X97420800Y-99960800D02*
G01*
X95619200Y-99960800D01*
X95619200Y-98159200D01*
X97420800Y-98159200D01*
X97420800Y-99960800D01*
X97420800Y-99960800D01*
G37*
G36*
X96696588Y-95632234D02*
G01*
X96696591Y-95632235D01*
X96866388Y-95683742D01*
X97022878Y-95767388D01*
X97160043Y-95879957D01*
X97272612Y-96017122D01*
X97356258Y-96173612D01*
X97401875Y-96323992D01*
X97407766Y-96343412D01*
X97425158Y-96520000D01*
X97407766Y-96696588D01*
X97407765Y-96696591D01*
X97356258Y-96866388D01*
X97272612Y-97022878D01*
X97160043Y-97160043D01*
X97022878Y-97272612D01*
X96866388Y-97356258D01*
X96716008Y-97401875D01*
X96696588Y-97407766D01*
X96564249Y-97420800D01*
X96475751Y-97420800D01*
X96343412Y-97407766D01*
X96323992Y-97401875D01*
X96173612Y-97356258D01*
X96017122Y-97272612D01*
X95879957Y-97160043D01*
X95767388Y-97022878D01*
X95683742Y-96866388D01*
X95632235Y-96696591D01*
X95632234Y-96696588D01*
X95614842Y-96520000D01*
X95632234Y-96343412D01*
X95638125Y-96323992D01*
X95683742Y-96173612D01*
X95767388Y-96017122D01*
X95879957Y-95879957D01*
X96017122Y-95767388D01*
X96173612Y-95683742D01*
X96343409Y-95632235D01*
X96343412Y-95632234D01*
X96475751Y-95619200D01*
X96564249Y-95619200D01*
X96696588Y-95632234D01*
X96696588Y-95632234D01*
G37*
G36*
X96696588Y-93092234D02*
G01*
X96696591Y-93092235D01*
X96866388Y-93143742D01*
X97022878Y-93227388D01*
X97160043Y-93339957D01*
X97272612Y-93477122D01*
X97356258Y-93633612D01*
X97401875Y-93783992D01*
X97407766Y-93803412D01*
X97425158Y-93980000D01*
X97407766Y-94156588D01*
X97407765Y-94156591D01*
X97356258Y-94326388D01*
X97272612Y-94482878D01*
X97160043Y-94620043D01*
X97022878Y-94732612D01*
X96866388Y-94816258D01*
X96716008Y-94861875D01*
X96696588Y-94867766D01*
X96564249Y-94880800D01*
X96475751Y-94880800D01*
X96343412Y-94867766D01*
X96323992Y-94861875D01*
X96173612Y-94816258D01*
X96017122Y-94732612D01*
X95879957Y-94620043D01*
X95767388Y-94482878D01*
X95683742Y-94326388D01*
X95632235Y-94156591D01*
X95632234Y-94156588D01*
X95614842Y-93980000D01*
X95632234Y-93803412D01*
X95638125Y-93783992D01*
X95683742Y-93633612D01*
X95767388Y-93477122D01*
X95879957Y-93339957D01*
X96017122Y-93227388D01*
X96173612Y-93143742D01*
X96343409Y-93092235D01*
X96343412Y-93092234D01*
X96475751Y-93079200D01*
X96564249Y-93079200D01*
X96696588Y-93092234D01*
X96696588Y-93092234D01*
G37*
G36*
X96696588Y-90552234D02*
G01*
X96696591Y-90552235D01*
X96866388Y-90603742D01*
X97022878Y-90687388D01*
X97160043Y-90799957D01*
X97272612Y-90937122D01*
X97356258Y-91093612D01*
X97401875Y-91243992D01*
X97407766Y-91263412D01*
X97425158Y-91440000D01*
X97407766Y-91616588D01*
X97407765Y-91616591D01*
X97356258Y-91786388D01*
X97272612Y-91942878D01*
X97160043Y-92080043D01*
X97022878Y-92192612D01*
X96866388Y-92276258D01*
X96716008Y-92321875D01*
X96696588Y-92327766D01*
X96564249Y-92340800D01*
X96475751Y-92340800D01*
X96343412Y-92327766D01*
X96323992Y-92321875D01*
X96173612Y-92276258D01*
X96017122Y-92192612D01*
X95879957Y-92080043D01*
X95767388Y-91942878D01*
X95683742Y-91786388D01*
X95632235Y-91616591D01*
X95632234Y-91616588D01*
X95614842Y-91440000D01*
X95632234Y-91263412D01*
X95638125Y-91243992D01*
X95683742Y-91093612D01*
X95767388Y-90937122D01*
X95879957Y-90799957D01*
X96017122Y-90687388D01*
X96173612Y-90603742D01*
X96343409Y-90552235D01*
X96343412Y-90552234D01*
X96475751Y-90539200D01*
X96564249Y-90539200D01*
X96696588Y-90552234D01*
X96696588Y-90552234D01*
G37*
G36*
X119556588Y-88012234D02*
G01*
X119556591Y-88012235D01*
X119726388Y-88063742D01*
X119882878Y-88147388D01*
X120020043Y-88259957D01*
X120132612Y-88397122D01*
X120216258Y-88553612D01*
X120261875Y-88703992D01*
X120267766Y-88723412D01*
X120285158Y-88900000D01*
X120267766Y-89076588D01*
X120267765Y-89076591D01*
X120216258Y-89246388D01*
X120132612Y-89402878D01*
X120020043Y-89540043D01*
X119882878Y-89652612D01*
X119726388Y-89736258D01*
X119576008Y-89781875D01*
X119556588Y-89787766D01*
X119424249Y-89800800D01*
X119335751Y-89800800D01*
X119203412Y-89787766D01*
X119183992Y-89781875D01*
X119033612Y-89736258D01*
X118877122Y-89652612D01*
X118739957Y-89540043D01*
X118627388Y-89402878D01*
X118543742Y-89246388D01*
X118492235Y-89076591D01*
X118492234Y-89076588D01*
X118474842Y-88900000D01*
X118492234Y-88723412D01*
X118498125Y-88703992D01*
X118543742Y-88553612D01*
X118627388Y-88397122D01*
X118739957Y-88259957D01*
X118877122Y-88147388D01*
X119033612Y-88063742D01*
X119203409Y-88012235D01*
X119203412Y-88012234D01*
X119335751Y-87999200D01*
X119424249Y-87999200D01*
X119556588Y-88012234D01*
X119556588Y-88012234D01*
G37*
G36*
X96696588Y-88012234D02*
G01*
X96696591Y-88012235D01*
X96866388Y-88063742D01*
X97022878Y-88147388D01*
X97160043Y-88259957D01*
X97272612Y-88397122D01*
X97356258Y-88553612D01*
X97401875Y-88703992D01*
X97407766Y-88723412D01*
X97425158Y-88900000D01*
X97407766Y-89076588D01*
X97407765Y-89076591D01*
X97356258Y-89246388D01*
X97272612Y-89402878D01*
X97160043Y-89540043D01*
X97022878Y-89652612D01*
X96866388Y-89736258D01*
X96716008Y-89781875D01*
X96696588Y-89787766D01*
X96564249Y-89800800D01*
X96475751Y-89800800D01*
X96343412Y-89787766D01*
X96323992Y-89781875D01*
X96173612Y-89736258D01*
X96017122Y-89652612D01*
X95879957Y-89540043D01*
X95767388Y-89402878D01*
X95683742Y-89246388D01*
X95632235Y-89076591D01*
X95632234Y-89076588D01*
X95614842Y-88900000D01*
X95632234Y-88723412D01*
X95638125Y-88703992D01*
X95683742Y-88553612D01*
X95767388Y-88397122D01*
X95879957Y-88259957D01*
X96017122Y-88147388D01*
X96173612Y-88063742D01*
X96343409Y-88012235D01*
X96343412Y-88012234D01*
X96475751Y-87999200D01*
X96564249Y-87999200D01*
X96696588Y-88012234D01*
X96696588Y-88012234D01*
G37*
G36*
X120280800Y-87260800D02*
G01*
X118479200Y-87260800D01*
X118479200Y-85459200D01*
X120280800Y-85459200D01*
X120280800Y-87260800D01*
X120280800Y-87260800D01*
G37*
G36*
X96696588Y-85472234D02*
G01*
X96696591Y-85472235D01*
X96866388Y-85523742D01*
X97022878Y-85607388D01*
X97160043Y-85719957D01*
X97272612Y-85857122D01*
X97356258Y-86013612D01*
X97401875Y-86163992D01*
X97407766Y-86183412D01*
X97425158Y-86360000D01*
X97407766Y-86536588D01*
X97407765Y-86536591D01*
X97356258Y-86706388D01*
X97272612Y-86862878D01*
X97160043Y-87000043D01*
X97022878Y-87112612D01*
X96866388Y-87196258D01*
X96716008Y-87241875D01*
X96696588Y-87247766D01*
X96564249Y-87260800D01*
X96475751Y-87260800D01*
X96343412Y-87247766D01*
X96323992Y-87241875D01*
X96173612Y-87196258D01*
X96017122Y-87112612D01*
X95879957Y-87000043D01*
X95767388Y-86862878D01*
X95683742Y-86706388D01*
X95632235Y-86536591D01*
X95632234Y-86536588D01*
X95614842Y-86360000D01*
X95632234Y-86183412D01*
X95638125Y-86163992D01*
X95683742Y-86013612D01*
X95767388Y-85857122D01*
X95879957Y-85719957D01*
X96017122Y-85607388D01*
X96173612Y-85523742D01*
X96343409Y-85472235D01*
X96343412Y-85472234D01*
X96475751Y-85459200D01*
X96564249Y-85459200D01*
X96696588Y-85472234D01*
X96696588Y-85472234D01*
G37*
G36*
X97420800Y-84720800D02*
G01*
X95619200Y-84720800D01*
X95619200Y-82919200D01*
X97420800Y-82919200D01*
X97420800Y-84720800D01*
X97420800Y-84720800D01*
G37*
G36*
X119556588Y-80392234D02*
G01*
X119556591Y-80392235D01*
X119726388Y-80443742D01*
X119882878Y-80527388D01*
X120020043Y-80639957D01*
X120132612Y-80777122D01*
X120216258Y-80933612D01*
X120261875Y-81083992D01*
X120267766Y-81103412D01*
X120285158Y-81280000D01*
X120267766Y-81456588D01*
X120267765Y-81456591D01*
X120216258Y-81626388D01*
X120132612Y-81782878D01*
X120020043Y-81920043D01*
X119882878Y-82032612D01*
X119726388Y-82116258D01*
X119576008Y-82161875D01*
X119556588Y-82167766D01*
X119424249Y-82180800D01*
X119335751Y-82180800D01*
X119203412Y-82167766D01*
X119183992Y-82161875D01*
X119033612Y-82116258D01*
X118877122Y-82032612D01*
X118739957Y-81920043D01*
X118627388Y-81782878D01*
X118543742Y-81626388D01*
X118492235Y-81456591D01*
X118492234Y-81456588D01*
X118474842Y-81280000D01*
X118492234Y-81103412D01*
X118498125Y-81083992D01*
X118543742Y-80933612D01*
X118627388Y-80777122D01*
X118739957Y-80639957D01*
X118877122Y-80527388D01*
X119033612Y-80443742D01*
X119203409Y-80392235D01*
X119203412Y-80392234D01*
X119335751Y-80379200D01*
X119424249Y-80379200D01*
X119556588Y-80392234D01*
X119556588Y-80392234D01*
G37*
G36*
X96696588Y-80392234D02*
G01*
X96696591Y-80392235D01*
X96866388Y-80443742D01*
X97022878Y-80527388D01*
X97160043Y-80639957D01*
X97272612Y-80777122D01*
X97356258Y-80933612D01*
X97401875Y-81083992D01*
X97407766Y-81103412D01*
X97425158Y-81280000D01*
X97407766Y-81456588D01*
X97407765Y-81456591D01*
X97356258Y-81626388D01*
X97272612Y-81782878D01*
X97160043Y-81920043D01*
X97022878Y-82032612D01*
X96866388Y-82116258D01*
X96716008Y-82161875D01*
X96696588Y-82167766D01*
X96564249Y-82180800D01*
X96475751Y-82180800D01*
X96343412Y-82167766D01*
X96323992Y-82161875D01*
X96173612Y-82116258D01*
X96017122Y-82032612D01*
X95879957Y-81920043D01*
X95767388Y-81782878D01*
X95683742Y-81626388D01*
X95632235Y-81456591D01*
X95632234Y-81456588D01*
X95614842Y-81280000D01*
X95632234Y-81103412D01*
X95638125Y-81083992D01*
X95683742Y-80933612D01*
X95767388Y-80777122D01*
X95879957Y-80639957D01*
X96017122Y-80527388D01*
X96173612Y-80443742D01*
X96343409Y-80392235D01*
X96343412Y-80392234D01*
X96475751Y-80379200D01*
X96564249Y-80379200D01*
X96696588Y-80392234D01*
X96696588Y-80392234D01*
G37*
G36*
X119556588Y-77852234D02*
G01*
X119556591Y-77852235D01*
X119726388Y-77903742D01*
X119882878Y-77987388D01*
X120020043Y-78099957D01*
X120132612Y-78237122D01*
X120216258Y-78393612D01*
X120261875Y-78543992D01*
X120267766Y-78563412D01*
X120285158Y-78740000D01*
X120267766Y-78916588D01*
X120267765Y-78916591D01*
X120216258Y-79086388D01*
X120132612Y-79242878D01*
X120020043Y-79380043D01*
X119882878Y-79492612D01*
X119726388Y-79576258D01*
X119576008Y-79621875D01*
X119556588Y-79627766D01*
X119424249Y-79640800D01*
X119335751Y-79640800D01*
X119203412Y-79627766D01*
X119183992Y-79621875D01*
X119033612Y-79576258D01*
X118877122Y-79492612D01*
X118739957Y-79380043D01*
X118627388Y-79242878D01*
X118543742Y-79086388D01*
X118492235Y-78916591D01*
X118492234Y-78916588D01*
X118474842Y-78740000D01*
X118492234Y-78563412D01*
X118498125Y-78543992D01*
X118543742Y-78393612D01*
X118627388Y-78237122D01*
X118739957Y-78099957D01*
X118877122Y-77987388D01*
X119033612Y-77903742D01*
X119203409Y-77852235D01*
X119203412Y-77852234D01*
X119335751Y-77839200D01*
X119424249Y-77839200D01*
X119556588Y-77852234D01*
X119556588Y-77852234D01*
G37*
G36*
X96696588Y-77852234D02*
G01*
X96696591Y-77852235D01*
X96866388Y-77903742D01*
X97022878Y-77987388D01*
X97160043Y-78099957D01*
X97272612Y-78237122D01*
X97356258Y-78393612D01*
X97401875Y-78543992D01*
X97407766Y-78563412D01*
X97425158Y-78740000D01*
X97407766Y-78916588D01*
X97407765Y-78916591D01*
X97356258Y-79086388D01*
X97272612Y-79242878D01*
X97160043Y-79380043D01*
X97022878Y-79492612D01*
X96866388Y-79576258D01*
X96716008Y-79621875D01*
X96696588Y-79627766D01*
X96564249Y-79640800D01*
X96475751Y-79640800D01*
X96343412Y-79627766D01*
X96323992Y-79621875D01*
X96173612Y-79576258D01*
X96017122Y-79492612D01*
X95879957Y-79380043D01*
X95767388Y-79242878D01*
X95683742Y-79086388D01*
X95632235Y-78916591D01*
X95632234Y-78916588D01*
X95614842Y-78740000D01*
X95632234Y-78563412D01*
X95638125Y-78543992D01*
X95683742Y-78393612D01*
X95767388Y-78237122D01*
X95879957Y-78099957D01*
X96017122Y-77987388D01*
X96173612Y-77903742D01*
X96343409Y-77852235D01*
X96343412Y-77852234D01*
X96475751Y-77839200D01*
X96564249Y-77839200D01*
X96696588Y-77852234D01*
X96696588Y-77852234D01*
G37*
G36*
X119556588Y-75312234D02*
G01*
X119556591Y-75312235D01*
X119726388Y-75363742D01*
X119882878Y-75447388D01*
X120020043Y-75559957D01*
X120132612Y-75697122D01*
X120216258Y-75853612D01*
X120261875Y-76003992D01*
X120267766Y-76023412D01*
X120285158Y-76200000D01*
X120267766Y-76376588D01*
X120267765Y-76376591D01*
X120216258Y-76546388D01*
X120132612Y-76702878D01*
X120020043Y-76840043D01*
X119882878Y-76952612D01*
X119726388Y-77036258D01*
X119576008Y-77081875D01*
X119556588Y-77087766D01*
X119424249Y-77100800D01*
X119335751Y-77100800D01*
X119203412Y-77087766D01*
X119183992Y-77081875D01*
X119033612Y-77036258D01*
X118877122Y-76952612D01*
X118739957Y-76840043D01*
X118627388Y-76702878D01*
X118543742Y-76546388D01*
X118492235Y-76376591D01*
X118492234Y-76376588D01*
X118474842Y-76200000D01*
X118492234Y-76023412D01*
X118498125Y-76003992D01*
X118543742Y-75853612D01*
X118627388Y-75697122D01*
X118739957Y-75559957D01*
X118877122Y-75447388D01*
X119033612Y-75363742D01*
X119203409Y-75312235D01*
X119203412Y-75312234D01*
X119335751Y-75299200D01*
X119424249Y-75299200D01*
X119556588Y-75312234D01*
X119556588Y-75312234D01*
G37*
G36*
X96696588Y-75312234D02*
G01*
X96696591Y-75312235D01*
X96866388Y-75363742D01*
X97022878Y-75447388D01*
X97160043Y-75559957D01*
X97272612Y-75697122D01*
X97356258Y-75853612D01*
X97401875Y-76003992D01*
X97407766Y-76023412D01*
X97425158Y-76200000D01*
X97407766Y-76376588D01*
X97407765Y-76376591D01*
X97356258Y-76546388D01*
X97272612Y-76702878D01*
X97160043Y-76840043D01*
X97022878Y-76952612D01*
X96866388Y-77036258D01*
X96716008Y-77081875D01*
X96696588Y-77087766D01*
X96564249Y-77100800D01*
X96475751Y-77100800D01*
X96343412Y-77087766D01*
X96323992Y-77081875D01*
X96173612Y-77036258D01*
X96017122Y-76952612D01*
X95879957Y-76840043D01*
X95767388Y-76702878D01*
X95683742Y-76546388D01*
X95632235Y-76376591D01*
X95632234Y-76376588D01*
X95614842Y-76200000D01*
X95632234Y-76023412D01*
X95638125Y-76003992D01*
X95683742Y-75853612D01*
X95767388Y-75697122D01*
X95879957Y-75559957D01*
X96017122Y-75447388D01*
X96173612Y-75363742D01*
X96343409Y-75312235D01*
X96343412Y-75312234D01*
X96475751Y-75299200D01*
X96564249Y-75299200D01*
X96696588Y-75312234D01*
X96696588Y-75312234D01*
G37*
G36*
X120280800Y-74560800D02*
G01*
X118479200Y-74560800D01*
X118479200Y-72759200D01*
X120280800Y-72759200D01*
X120280800Y-74560800D01*
X120280800Y-74560800D01*
G37*
G36*
X96696588Y-72772234D02*
G01*
X96696591Y-72772235D01*
X96866388Y-72823742D01*
X97022878Y-72907388D01*
X97160043Y-73019957D01*
X97272612Y-73157122D01*
X97356258Y-73313612D01*
X97401875Y-73463992D01*
X97407766Y-73483412D01*
X97425158Y-73660000D01*
X97407766Y-73836588D01*
X97407765Y-73836591D01*
X97356258Y-74006388D01*
X97272612Y-74162878D01*
X97160043Y-74300043D01*
X97022878Y-74412612D01*
X96866388Y-74496258D01*
X96716008Y-74541875D01*
X96696588Y-74547766D01*
X96564249Y-74560800D01*
X96475751Y-74560800D01*
X96343412Y-74547766D01*
X96323992Y-74541875D01*
X96173612Y-74496258D01*
X96017122Y-74412612D01*
X95879957Y-74300043D01*
X95767388Y-74162878D01*
X95683742Y-74006388D01*
X95632235Y-73836591D01*
X95632234Y-73836588D01*
X95614842Y-73660000D01*
X95632234Y-73483412D01*
X95638125Y-73463992D01*
X95683742Y-73313612D01*
X95767388Y-73157122D01*
X95879957Y-73019957D01*
X96017122Y-72907388D01*
X96173612Y-72823742D01*
X96343409Y-72772235D01*
X96343412Y-72772234D01*
X96475751Y-72759200D01*
X96564249Y-72759200D01*
X96696588Y-72772234D01*
X96696588Y-72772234D01*
G37*
G36*
X97420800Y-72020800D02*
G01*
X95619200Y-72020800D01*
X95619200Y-70219200D01*
X97420800Y-70219200D01*
X97420800Y-72020800D01*
X97420800Y-72020800D01*
G37*
G36*
X119556588Y-67692234D02*
G01*
X119556591Y-67692235D01*
X119726388Y-67743742D01*
X119882878Y-67827388D01*
X120020043Y-67939957D01*
X120132612Y-68077122D01*
X120216258Y-68233612D01*
X120261875Y-68383992D01*
X120267766Y-68403412D01*
X120285158Y-68580000D01*
X120267766Y-68756588D01*
X120267765Y-68756591D01*
X120216258Y-68926388D01*
X120132612Y-69082878D01*
X120020043Y-69220043D01*
X119882878Y-69332612D01*
X119726388Y-69416258D01*
X119576008Y-69461875D01*
X119556588Y-69467766D01*
X119424249Y-69480800D01*
X119335751Y-69480800D01*
X119203412Y-69467766D01*
X119183992Y-69461875D01*
X119033612Y-69416258D01*
X118877122Y-69332612D01*
X118739957Y-69220043D01*
X118627388Y-69082878D01*
X118543742Y-68926388D01*
X118492235Y-68756591D01*
X118492234Y-68756588D01*
X118474842Y-68580000D01*
X118492234Y-68403412D01*
X118498125Y-68383992D01*
X118543742Y-68233612D01*
X118627388Y-68077122D01*
X118739957Y-67939957D01*
X118877122Y-67827388D01*
X119033612Y-67743742D01*
X119203409Y-67692235D01*
X119203412Y-67692234D01*
X119335751Y-67679200D01*
X119424249Y-67679200D01*
X119556588Y-67692234D01*
X119556588Y-67692234D01*
G37*
G36*
X96696588Y-67692234D02*
G01*
X96696591Y-67692235D01*
X96866388Y-67743742D01*
X97022878Y-67827388D01*
X97160043Y-67939957D01*
X97272612Y-68077122D01*
X97356258Y-68233612D01*
X97401875Y-68383992D01*
X97407766Y-68403412D01*
X97425158Y-68580000D01*
X97407766Y-68756588D01*
X97407765Y-68756591D01*
X97356258Y-68926388D01*
X97272612Y-69082878D01*
X97160043Y-69220043D01*
X97022878Y-69332612D01*
X96866388Y-69416258D01*
X96716008Y-69461875D01*
X96696588Y-69467766D01*
X96564249Y-69480800D01*
X96475751Y-69480800D01*
X96343412Y-69467766D01*
X96323992Y-69461875D01*
X96173612Y-69416258D01*
X96017122Y-69332612D01*
X95879957Y-69220043D01*
X95767388Y-69082878D01*
X95683742Y-68926388D01*
X95632235Y-68756591D01*
X95632234Y-68756588D01*
X95614842Y-68580000D01*
X95632234Y-68403412D01*
X95638125Y-68383992D01*
X95683742Y-68233612D01*
X95767388Y-68077122D01*
X95879957Y-67939957D01*
X96017122Y-67827388D01*
X96173612Y-67743742D01*
X96343409Y-67692235D01*
X96343412Y-67692234D01*
X96475751Y-67679200D01*
X96564249Y-67679200D01*
X96696588Y-67692234D01*
X96696588Y-67692234D01*
G37*
G36*
X119556588Y-65152234D02*
G01*
X119556591Y-65152235D01*
X119726388Y-65203742D01*
X119882878Y-65287388D01*
X120020043Y-65399957D01*
X120132612Y-65537122D01*
X120216258Y-65693612D01*
X120261875Y-65843992D01*
X120267766Y-65863412D01*
X120285158Y-66040000D01*
X120267766Y-66216588D01*
X120267765Y-66216591D01*
X120216258Y-66386388D01*
X120132612Y-66542878D01*
X120020043Y-66680043D01*
X119882878Y-66792612D01*
X119726388Y-66876258D01*
X119576008Y-66921875D01*
X119556588Y-66927766D01*
X119424249Y-66940800D01*
X119335751Y-66940800D01*
X119203412Y-66927766D01*
X119183992Y-66921875D01*
X119033612Y-66876258D01*
X118877122Y-66792612D01*
X118739957Y-66680043D01*
X118627388Y-66542878D01*
X118543742Y-66386388D01*
X118492235Y-66216591D01*
X118492234Y-66216588D01*
X118474842Y-66040000D01*
X118492234Y-65863412D01*
X118498125Y-65843992D01*
X118543742Y-65693612D01*
X118627388Y-65537122D01*
X118739957Y-65399957D01*
X118877122Y-65287388D01*
X119033612Y-65203742D01*
X119203409Y-65152235D01*
X119203412Y-65152234D01*
X119335751Y-65139200D01*
X119424249Y-65139200D01*
X119556588Y-65152234D01*
X119556588Y-65152234D01*
G37*
G36*
X97420800Y-66940800D02*
G01*
X95619200Y-66940800D01*
X95619200Y-65139200D01*
X97420800Y-65139200D01*
X97420800Y-66940800D01*
X97420800Y-66940800D01*
G37*
G36*
X120280800Y-64400800D02*
G01*
X118479200Y-64400800D01*
X118479200Y-62599200D01*
X120280800Y-62599200D01*
X120280800Y-64400800D01*
X120280800Y-64400800D01*
G37*
G36*
X96696588Y-60072234D02*
G01*
X96696591Y-60072235D01*
X96866388Y-60123742D01*
X97022878Y-60207388D01*
X97160043Y-60319957D01*
X97272612Y-60457122D01*
X97356258Y-60613612D01*
X97401875Y-60763992D01*
X97407766Y-60783412D01*
X97425158Y-60960000D01*
X97407766Y-61136588D01*
X97407765Y-61136591D01*
X97356258Y-61306388D01*
X97272612Y-61462878D01*
X97160043Y-61600043D01*
X97022878Y-61712612D01*
X96866388Y-61796258D01*
X96716008Y-61841875D01*
X96696588Y-61847766D01*
X96564249Y-61860800D01*
X96475751Y-61860800D01*
X96343412Y-61847766D01*
X96323992Y-61841875D01*
X96173612Y-61796258D01*
X96017122Y-61712612D01*
X95879957Y-61600043D01*
X95767388Y-61462878D01*
X95683742Y-61306388D01*
X95632235Y-61136591D01*
X95632234Y-61136588D01*
X95614842Y-60960000D01*
X95632234Y-60783412D01*
X95638125Y-60763992D01*
X95683742Y-60613612D01*
X95767388Y-60457122D01*
X95879957Y-60319957D01*
X96017122Y-60207388D01*
X96173612Y-60123742D01*
X96343409Y-60072235D01*
X96343412Y-60072234D01*
X96475751Y-60059200D01*
X96564249Y-60059200D01*
X96696588Y-60072234D01*
X96696588Y-60072234D01*
G37*
G36*
X105040800Y-59320800D02*
G01*
X103239200Y-59320800D01*
X103239200Y-57519200D01*
X105040800Y-57519200D01*
X105040800Y-59320800D01*
X105040800Y-59320800D01*
G37*
G36*
X106856588Y-57532234D02*
G01*
X106856591Y-57532235D01*
X107026388Y-57583742D01*
X107182878Y-57667388D01*
X107320043Y-57779957D01*
X107432612Y-57917122D01*
X107516258Y-58073612D01*
X107561875Y-58223992D01*
X107567766Y-58243412D01*
X107585158Y-58420000D01*
X107567766Y-58596588D01*
X107567765Y-58596591D01*
X107516258Y-58766388D01*
X107432612Y-58922878D01*
X107320043Y-59060043D01*
X107182878Y-59172612D01*
X107026388Y-59256258D01*
X106876008Y-59301875D01*
X106856588Y-59307766D01*
X106724249Y-59320800D01*
X106635751Y-59320800D01*
X106503412Y-59307766D01*
X106483992Y-59301875D01*
X106333612Y-59256258D01*
X106177122Y-59172612D01*
X106039957Y-59060043D01*
X105927388Y-58922878D01*
X105843742Y-58766388D01*
X105792235Y-58596591D01*
X105792234Y-58596588D01*
X105774842Y-58420000D01*
X105792234Y-58243412D01*
X105798125Y-58223992D01*
X105843742Y-58073612D01*
X105927388Y-57917122D01*
X106039957Y-57779957D01*
X106177122Y-57667388D01*
X106333612Y-57583742D01*
X106503409Y-57532235D01*
X106503412Y-57532234D01*
X106635751Y-57519200D01*
X106724249Y-57519200D01*
X106856588Y-57532234D01*
X106856588Y-57532234D01*
G37*
G36*
X109396588Y-57532234D02*
G01*
X109396591Y-57532235D01*
X109566388Y-57583742D01*
X109722878Y-57667388D01*
X109860043Y-57779957D01*
X109972612Y-57917122D01*
X110056258Y-58073612D01*
X110101875Y-58223992D01*
X110107766Y-58243412D01*
X110125158Y-58420000D01*
X110107766Y-58596588D01*
X110107765Y-58596591D01*
X110056258Y-58766388D01*
X109972612Y-58922878D01*
X109860043Y-59060043D01*
X109722878Y-59172612D01*
X109566388Y-59256258D01*
X109416008Y-59301875D01*
X109396588Y-59307766D01*
X109264249Y-59320800D01*
X109175751Y-59320800D01*
X109043412Y-59307766D01*
X109023992Y-59301875D01*
X108873612Y-59256258D01*
X108717122Y-59172612D01*
X108579957Y-59060043D01*
X108467388Y-58922878D01*
X108383742Y-58766388D01*
X108332235Y-58596591D01*
X108332234Y-58596588D01*
X108314842Y-58420000D01*
X108332234Y-58243412D01*
X108338125Y-58223992D01*
X108383742Y-58073612D01*
X108467388Y-57917122D01*
X108579957Y-57779957D01*
X108717122Y-57667388D01*
X108873612Y-57583742D01*
X109043409Y-57532235D01*
X109043412Y-57532234D01*
X109175751Y-57519200D01*
X109264249Y-57519200D01*
X109396588Y-57532234D01*
X109396588Y-57532234D01*
G37*
G36*
X96696588Y-57532234D02*
G01*
X96696591Y-57532235D01*
X96866388Y-57583742D01*
X97022878Y-57667388D01*
X97160043Y-57779957D01*
X97272612Y-57917122D01*
X97356258Y-58073612D01*
X97401875Y-58223992D01*
X97407766Y-58243412D01*
X97425158Y-58420000D01*
X97407766Y-58596588D01*
X97407765Y-58596591D01*
X97356258Y-58766388D01*
X97272612Y-58922878D01*
X97160043Y-59060043D01*
X97022878Y-59172612D01*
X96866388Y-59256258D01*
X96716008Y-59301875D01*
X96696588Y-59307766D01*
X96564249Y-59320800D01*
X96475751Y-59320800D01*
X96343412Y-59307766D01*
X96323992Y-59301875D01*
X96173612Y-59256258D01*
X96017122Y-59172612D01*
X95879957Y-59060043D01*
X95767388Y-58922878D01*
X95683742Y-58766388D01*
X95632235Y-58596591D01*
X95632234Y-58596588D01*
X95614842Y-58420000D01*
X95632234Y-58243412D01*
X95638125Y-58223992D01*
X95683742Y-58073612D01*
X95767388Y-57917122D01*
X95879957Y-57779957D01*
X96017122Y-57667388D01*
X96173612Y-57583742D01*
X96343409Y-57532235D01*
X96343412Y-57532234D01*
X96475751Y-57519200D01*
X96564249Y-57519200D01*
X96696588Y-57532234D01*
X96696588Y-57532234D01*
G37*
G36*
X109396588Y-54992234D02*
G01*
X109396591Y-54992235D01*
X109566388Y-55043742D01*
X109722878Y-55127388D01*
X109860043Y-55239957D01*
X109972612Y-55377122D01*
X110056258Y-55533612D01*
X110101875Y-55683992D01*
X110107766Y-55703412D01*
X110125158Y-55880000D01*
X110107766Y-56056588D01*
X110107765Y-56056591D01*
X110056258Y-56226388D01*
X109972612Y-56382878D01*
X109860043Y-56520043D01*
X109722878Y-56632612D01*
X109566388Y-56716258D01*
X109416008Y-56761875D01*
X109396588Y-56767766D01*
X109264249Y-56780800D01*
X109175751Y-56780800D01*
X109043412Y-56767766D01*
X109023992Y-56761875D01*
X108873612Y-56716258D01*
X108717122Y-56632612D01*
X108579957Y-56520043D01*
X108467388Y-56382878D01*
X108383742Y-56226388D01*
X108332235Y-56056591D01*
X108332234Y-56056588D01*
X108314842Y-55880000D01*
X108332234Y-55703412D01*
X108338125Y-55683992D01*
X108383742Y-55533612D01*
X108467388Y-55377122D01*
X108579957Y-55239957D01*
X108717122Y-55127388D01*
X108873612Y-55043742D01*
X109043409Y-54992235D01*
X109043412Y-54992234D01*
X109175751Y-54979200D01*
X109264249Y-54979200D01*
X109396588Y-54992234D01*
X109396588Y-54992234D01*
G37*
G36*
X106856588Y-54992234D02*
G01*
X106856591Y-54992235D01*
X107026388Y-55043742D01*
X107182878Y-55127388D01*
X107320043Y-55239957D01*
X107432612Y-55377122D01*
X107516258Y-55533612D01*
X107561875Y-55683992D01*
X107567766Y-55703412D01*
X107585158Y-55880000D01*
X107567766Y-56056588D01*
X107567765Y-56056591D01*
X107516258Y-56226388D01*
X107432612Y-56382878D01*
X107320043Y-56520043D01*
X107182878Y-56632612D01*
X107026388Y-56716258D01*
X106876008Y-56761875D01*
X106856588Y-56767766D01*
X106724249Y-56780800D01*
X106635751Y-56780800D01*
X106503412Y-56767766D01*
X106483992Y-56761875D01*
X106333612Y-56716258D01*
X106177122Y-56632612D01*
X106039957Y-56520043D01*
X105927388Y-56382878D01*
X105843742Y-56226388D01*
X105792235Y-56056591D01*
X105792234Y-56056588D01*
X105774842Y-55880000D01*
X105792234Y-55703412D01*
X105798125Y-55683992D01*
X105843742Y-55533612D01*
X105927388Y-55377122D01*
X106039957Y-55239957D01*
X106177122Y-55127388D01*
X106333612Y-55043742D01*
X106503409Y-54992235D01*
X106503412Y-54992234D01*
X106635751Y-54979200D01*
X106724249Y-54979200D01*
X106856588Y-54992234D01*
X106856588Y-54992234D01*
G37*
G36*
X97420800Y-56780800D02*
G01*
X95619200Y-56780800D01*
X95619200Y-54979200D01*
X97420800Y-54979200D01*
X97420800Y-56780800D01*
X97420800Y-56780800D01*
G37*
G36*
X104316588Y-54992234D02*
G01*
X104316591Y-54992235D01*
X104486388Y-55043742D01*
X104642878Y-55127388D01*
X104780043Y-55239957D01*
X104892612Y-55377122D01*
X104976258Y-55533612D01*
X105021875Y-55683992D01*
X105027766Y-55703412D01*
X105045158Y-55880000D01*
X105027766Y-56056588D01*
X105027765Y-56056591D01*
X104976258Y-56226388D01*
X104892612Y-56382878D01*
X104780043Y-56520043D01*
X104642878Y-56632612D01*
X104486388Y-56716258D01*
X104336008Y-56761875D01*
X104316588Y-56767766D01*
X104184249Y-56780800D01*
X104095751Y-56780800D01*
X103963412Y-56767766D01*
X103943992Y-56761875D01*
X103793612Y-56716258D01*
X103637122Y-56632612D01*
X103499957Y-56520043D01*
X103387388Y-56382878D01*
X103303742Y-56226388D01*
X103252235Y-56056591D01*
X103252234Y-56056588D01*
X103234842Y-55880000D01*
X103252234Y-55703412D01*
X103258125Y-55683992D01*
X103303742Y-55533612D01*
X103387388Y-55377122D01*
X103499957Y-55239957D01*
X103637122Y-55127388D01*
X103793612Y-55043742D01*
X103963409Y-54992235D01*
X103963412Y-54992234D01*
X104095751Y-54979200D01*
X104184249Y-54979200D01*
X104316588Y-54992234D01*
X104316588Y-54992234D01*
G37*
M02*
