G04 #@! TF.GenerationSoftware,KiCad,Pcbnew,(5.1.4)-1*
G04 #@! TF.CreationDate,2019-10-23T20:14:33-04:00*
G04 #@! TF.ProjectId,USB LED Daughterboard 0-2,55534220-4c45-4442-9044-617567687465,rev?*
G04 #@! TF.SameCoordinates,Original*
G04 #@! TF.FileFunction,Legend,Bot*
G04 #@! TF.FilePolarity,Positive*
%FSLAX46Y46*%
G04 Gerber Fmt 4.6, Leading zero omitted, Abs format (unit mm)*
G04 Created by KiCad (PCBNEW (5.1.4)-1) date 2019-10-23 20:14:33*
%MOMM*%
%LPD*%
G04 APERTURE LIST*
%ADD10C,0.317500*%
%ADD11C,0.381000*%
%ADD12O,1.750800X1.750800*%
%ADD13R,1.750800X1.750800*%
%ADD14C,2.050800*%
%ADD15O,0.951600X2.151600*%
%ADD16O,0.951600X1.951600*%
G04 APERTURE END LIST*
D10*
X190711666Y-108397523D02*
X190711666Y-107127523D01*
X190167380Y-108337047D02*
X190046428Y-108397523D01*
X189804523Y-108397523D01*
X189683571Y-108337047D01*
X189623095Y-108216095D01*
X189623095Y-108155619D01*
X189683571Y-108034666D01*
X189804523Y-107974190D01*
X189985952Y-107974190D01*
X190106904Y-107913714D01*
X190167380Y-107792761D01*
X190167380Y-107732285D01*
X190106904Y-107611333D01*
X189985952Y-107550857D01*
X189804523Y-107550857D01*
X189683571Y-107611333D01*
X189078809Y-108397523D02*
X189078809Y-107127523D01*
X188534523Y-108397523D02*
X188534523Y-107732285D01*
X188595000Y-107611333D01*
X188715952Y-107550857D01*
X188897380Y-107550857D01*
X189018333Y-107611333D01*
X189078809Y-107671809D01*
X187385476Y-108397523D02*
X187385476Y-107732285D01*
X187445952Y-107611333D01*
X187566904Y-107550857D01*
X187808809Y-107550857D01*
X187929761Y-107611333D01*
X187385476Y-108337047D02*
X187506428Y-108397523D01*
X187808809Y-108397523D01*
X187929761Y-108337047D01*
X187990238Y-108216095D01*
X187990238Y-108095142D01*
X187929761Y-107974190D01*
X187808809Y-107913714D01*
X187506428Y-107913714D01*
X187385476Y-107853238D01*
X186236428Y-108397523D02*
X186236428Y-107732285D01*
X186296904Y-107611333D01*
X186417857Y-107550857D01*
X186659761Y-107550857D01*
X186780714Y-107611333D01*
X186236428Y-108337047D02*
X186357380Y-108397523D01*
X186659761Y-108397523D01*
X186780714Y-108337047D01*
X186841190Y-108216095D01*
X186841190Y-108095142D01*
X186780714Y-107974190D01*
X186659761Y-107913714D01*
X186357380Y-107913714D01*
X186236428Y-107853238D01*
X185631666Y-107550857D02*
X185631666Y-108397523D01*
X185631666Y-107671809D02*
X185571190Y-107611333D01*
X185450238Y-107550857D01*
X185268809Y-107550857D01*
X185147857Y-107611333D01*
X185087380Y-107732285D01*
X185087380Y-108397523D01*
X182849761Y-107188000D02*
X182970714Y-107127523D01*
X183152142Y-107127523D01*
X183333571Y-107188000D01*
X183454523Y-107308952D01*
X183515000Y-107429904D01*
X183575476Y-107671809D01*
X183575476Y-107853238D01*
X183515000Y-108095142D01*
X183454523Y-108216095D01*
X183333571Y-108337047D01*
X183152142Y-108397523D01*
X183031190Y-108397523D01*
X182849761Y-108337047D01*
X182789285Y-108276571D01*
X182789285Y-107853238D01*
X183031190Y-107853238D01*
X182063571Y-108397523D02*
X182184523Y-108337047D01*
X182245000Y-108276571D01*
X182305476Y-108155619D01*
X182305476Y-107792761D01*
X182245000Y-107671809D01*
X182184523Y-107611333D01*
X182063571Y-107550857D01*
X181882142Y-107550857D01*
X181761190Y-107611333D01*
X181700714Y-107671809D01*
X181640238Y-107792761D01*
X181640238Y-108155619D01*
X181700714Y-108276571D01*
X181761190Y-108337047D01*
X181882142Y-108397523D01*
X182063571Y-108397523D01*
X181216904Y-107550857D02*
X180914523Y-108397523D01*
X180612142Y-107550857D01*
X165372142Y-107127523D02*
X165130238Y-107127523D01*
X165009285Y-107188000D01*
X164888333Y-107308952D01*
X164827857Y-107550857D01*
X164827857Y-107974190D01*
X164888333Y-108216095D01*
X165009285Y-108337047D01*
X165130238Y-108397523D01*
X165372142Y-108397523D01*
X165493095Y-108337047D01*
X165614047Y-108216095D01*
X165674523Y-107974190D01*
X165674523Y-107550857D01*
X165614047Y-107308952D01*
X165493095Y-107188000D01*
X165372142Y-107127523D01*
X163739285Y-108337047D02*
X163860238Y-108397523D01*
X164102142Y-108397523D01*
X164223095Y-108337047D01*
X164283571Y-108276571D01*
X164344047Y-108155619D01*
X164344047Y-107792761D01*
X164283571Y-107671809D01*
X164223095Y-107611333D01*
X164102142Y-107550857D01*
X163860238Y-107550857D01*
X163739285Y-107611333D01*
X163376428Y-107550857D02*
X162892619Y-107550857D01*
X163194999Y-107127523D02*
X163194999Y-108216095D01*
X163134523Y-108337047D01*
X163013571Y-108397523D01*
X162892619Y-108397523D01*
X161562142Y-107248476D02*
X161501666Y-107188000D01*
X161380714Y-107127523D01*
X161078333Y-107127523D01*
X160957380Y-107188000D01*
X160896904Y-107248476D01*
X160836428Y-107369428D01*
X160836428Y-107490380D01*
X160896904Y-107671809D01*
X161622619Y-108397523D01*
X160836428Y-108397523D01*
X160050238Y-107127523D02*
X159929285Y-107127523D01*
X159808333Y-107188000D01*
X159747857Y-107248476D01*
X159687380Y-107369428D01*
X159626904Y-107611333D01*
X159626904Y-107913714D01*
X159687380Y-108155619D01*
X159747857Y-108276571D01*
X159808333Y-108337047D01*
X159929285Y-108397523D01*
X160050238Y-108397523D01*
X160171190Y-108337047D01*
X160231666Y-108276571D01*
X160292142Y-108155619D01*
X160352619Y-107913714D01*
X160352619Y-107611333D01*
X160292142Y-107369428D01*
X160231666Y-107248476D01*
X160171190Y-107188000D01*
X160050238Y-107127523D01*
X158417380Y-108397523D02*
X159143095Y-108397523D01*
X158780238Y-108397523D02*
X158780238Y-107127523D01*
X158901190Y-107308952D01*
X159022142Y-107429904D01*
X159143095Y-107490380D01*
X157812619Y-108397523D02*
X157570714Y-108397523D01*
X157449761Y-108337047D01*
X157389285Y-108276571D01*
X157268333Y-108095142D01*
X157207857Y-107853238D01*
X157207857Y-107369428D01*
X157268333Y-107248476D01*
X157328809Y-107188000D01*
X157449761Y-107127523D01*
X157691666Y-107127523D01*
X157812619Y-107188000D01*
X157873095Y-107248476D01*
X157933571Y-107369428D01*
X157933571Y-107671809D01*
X157873095Y-107792761D01*
X157812619Y-107853238D01*
X157691666Y-107913714D01*
X157449761Y-107913714D01*
X157328809Y-107853238D01*
X157268333Y-107792761D01*
X157207857Y-107671809D01*
D11*
X191289214Y-104366785D02*
X191289214Y-105908928D01*
X191198500Y-106090357D01*
X191107785Y-106181071D01*
X190926357Y-106271785D01*
X190563500Y-106271785D01*
X190382071Y-106181071D01*
X190291357Y-106090357D01*
X190200642Y-105908928D01*
X190200642Y-104366785D01*
X189384214Y-106181071D02*
X189112071Y-106271785D01*
X188658500Y-106271785D01*
X188477071Y-106181071D01*
X188386357Y-106090357D01*
X188295642Y-105908928D01*
X188295642Y-105727500D01*
X188386357Y-105546071D01*
X188477071Y-105455357D01*
X188658500Y-105364642D01*
X189021357Y-105273928D01*
X189202785Y-105183214D01*
X189293500Y-105092500D01*
X189384214Y-104911071D01*
X189384214Y-104729642D01*
X189293500Y-104548214D01*
X189202785Y-104457500D01*
X189021357Y-104366785D01*
X188567785Y-104366785D01*
X188295642Y-104457500D01*
X186844214Y-105273928D02*
X186572071Y-105364642D01*
X186481357Y-105455357D01*
X186390642Y-105636785D01*
X186390642Y-105908928D01*
X186481357Y-106090357D01*
X186572071Y-106181071D01*
X186753500Y-106271785D01*
X187479214Y-106271785D01*
X187479214Y-104366785D01*
X186844214Y-104366785D01*
X186662785Y-104457500D01*
X186572071Y-104548214D01*
X186481357Y-104729642D01*
X186481357Y-104911071D01*
X186572071Y-105092500D01*
X186662785Y-105183214D01*
X186844214Y-105273928D01*
X187479214Y-105273928D01*
X183215642Y-106271785D02*
X184122785Y-106271785D01*
X184122785Y-104366785D01*
X182580642Y-105273928D02*
X181945642Y-105273928D01*
X181673500Y-106271785D02*
X182580642Y-106271785D01*
X182580642Y-104366785D01*
X181673500Y-104366785D01*
X180857071Y-106271785D02*
X180857071Y-104366785D01*
X180403500Y-104366785D01*
X180131357Y-104457500D01*
X179949928Y-104638928D01*
X179859214Y-104820357D01*
X179768500Y-105183214D01*
X179768500Y-105455357D01*
X179859214Y-105818214D01*
X179949928Y-105999642D01*
X180131357Y-106181071D01*
X180403500Y-106271785D01*
X180857071Y-106271785D01*
X177591357Y-106181071D02*
X177319214Y-106271785D01*
X176865642Y-106271785D01*
X176684214Y-106181071D01*
X176593500Y-106090357D01*
X176502785Y-105908928D01*
X176502785Y-105727500D01*
X176593500Y-105546071D01*
X176684214Y-105455357D01*
X176865642Y-105364642D01*
X177228500Y-105273928D01*
X177409928Y-105183214D01*
X177500642Y-105092500D01*
X177591357Y-104911071D01*
X177591357Y-104729642D01*
X177500642Y-104548214D01*
X177409928Y-104457500D01*
X177228500Y-104366785D01*
X176774928Y-104366785D01*
X176502785Y-104457500D01*
X174869928Y-105001785D02*
X174869928Y-106271785D01*
X175686357Y-105001785D02*
X175686357Y-105999642D01*
X175595642Y-106181071D01*
X175414214Y-106271785D01*
X175142071Y-106271785D01*
X174960642Y-106181071D01*
X174869928Y-106090357D01*
X173962785Y-106271785D02*
X173962785Y-104366785D01*
X173962785Y-105092500D02*
X173781357Y-105001785D01*
X173418500Y-105001785D01*
X173237071Y-105092500D01*
X173146357Y-105183214D01*
X173055642Y-105364642D01*
X173055642Y-105908928D01*
X173146357Y-106090357D01*
X173237071Y-106181071D01*
X173418500Y-106271785D01*
X173781357Y-106271785D01*
X173962785Y-106181071D01*
X171604214Y-105273928D02*
X171332071Y-105364642D01*
X171241357Y-105455357D01*
X171150642Y-105636785D01*
X171150642Y-105908928D01*
X171241357Y-106090357D01*
X171332071Y-106181071D01*
X171513500Y-106271785D01*
X172239214Y-106271785D01*
X172239214Y-104366785D01*
X171604214Y-104366785D01*
X171422785Y-104457500D01*
X171332071Y-104548214D01*
X171241357Y-104729642D01*
X171241357Y-104911071D01*
X171332071Y-105092500D01*
X171422785Y-105183214D01*
X171604214Y-105273928D01*
X172239214Y-105273928D01*
X170062071Y-106271785D02*
X170243500Y-106181071D01*
X170334214Y-106090357D01*
X170424928Y-105908928D01*
X170424928Y-105364642D01*
X170334214Y-105183214D01*
X170243500Y-105092500D01*
X170062071Y-105001785D01*
X169789928Y-105001785D01*
X169608500Y-105092500D01*
X169517785Y-105183214D01*
X169427071Y-105364642D01*
X169427071Y-105908928D01*
X169517785Y-106090357D01*
X169608500Y-106181071D01*
X169789928Y-106271785D01*
X170062071Y-106271785D01*
X167794214Y-106271785D02*
X167794214Y-105273928D01*
X167884928Y-105092500D01*
X168066357Y-105001785D01*
X168429214Y-105001785D01*
X168610642Y-105092500D01*
X167794214Y-106181071D02*
X167975642Y-106271785D01*
X168429214Y-106271785D01*
X168610642Y-106181071D01*
X168701357Y-105999642D01*
X168701357Y-105818214D01*
X168610642Y-105636785D01*
X168429214Y-105546071D01*
X167975642Y-105546071D01*
X167794214Y-105455357D01*
X166887071Y-106271785D02*
X166887071Y-105001785D01*
X166887071Y-105364642D02*
X166796357Y-105183214D01*
X166705642Y-105092500D01*
X166524214Y-105001785D01*
X166342785Y-105001785D01*
X164891357Y-106271785D02*
X164891357Y-104366785D01*
X164891357Y-106181071D02*
X165072785Y-106271785D01*
X165435642Y-106271785D01*
X165617071Y-106181071D01*
X165707785Y-106090357D01*
X165798500Y-105908928D01*
X165798500Y-105364642D01*
X165707785Y-105183214D01*
X165617071Y-105092500D01*
X165435642Y-105001785D01*
X165072785Y-105001785D01*
X164891357Y-105092500D01*
X162169928Y-104366785D02*
X161988500Y-104366785D01*
X161807071Y-104457500D01*
X161716357Y-104548214D01*
X161625642Y-104729642D01*
X161534928Y-105092500D01*
X161534928Y-105546071D01*
X161625642Y-105908928D01*
X161716357Y-106090357D01*
X161807071Y-106181071D01*
X161988500Y-106271785D01*
X162169928Y-106271785D01*
X162351357Y-106181071D01*
X162442071Y-106090357D01*
X162532785Y-105908928D01*
X162623500Y-105546071D01*
X162623500Y-105092500D01*
X162532785Y-104729642D01*
X162442071Y-104548214D01*
X162351357Y-104457500D01*
X162169928Y-104366785D01*
X160718500Y-105546071D02*
X159267071Y-105546071D01*
X158541357Y-104366785D02*
X157362071Y-104366785D01*
X157997071Y-105092500D01*
X157724928Y-105092500D01*
X157543500Y-105183214D01*
X157452785Y-105273928D01*
X157362071Y-105455357D01*
X157362071Y-105908928D01*
X157452785Y-106090357D01*
X157543500Y-106181071D01*
X157724928Y-106271785D01*
X158269214Y-106271785D01*
X158450642Y-106181071D01*
X158541357Y-106090357D01*
%LPC*%
D12*
G04 #@! TO.C,J4*
X189230000Y-102235000D03*
X186690000Y-102235000D03*
X184150000Y-102235000D03*
X181610000Y-102235000D03*
D13*
X179070000Y-102235000D03*
G04 #@! TD*
D12*
G04 #@! TO.C,J3*
X204470000Y-102235000D03*
X207010000Y-102235000D03*
X209550000Y-102235000D03*
X212090000Y-102235000D03*
X214630000Y-102235000D03*
D13*
X217170000Y-102235000D03*
G04 #@! TD*
D12*
G04 #@! TO.C,J2*
X194310000Y-102235000D03*
X196850000Y-102235000D03*
D13*
X199390000Y-102235000D03*
G04 #@! TD*
D14*
G04 #@! TO.C,TP6*
X207010000Y-114300000D03*
G04 #@! TD*
G04 #@! TO.C,TP7*
X186055000Y-121920000D03*
G04 #@! TD*
G04 #@! TO.C,TP5*
X196850000Y-116205000D03*
G04 #@! TD*
G04 #@! TO.C,TP4*
X191135000Y-113030000D03*
G04 #@! TD*
G04 #@! TO.C,TP3*
X193040000Y-116205000D03*
G04 #@! TD*
G04 #@! TO.C,TP2*
X189230000Y-116205000D03*
G04 #@! TD*
G04 #@! TO.C,TP1*
X194945000Y-113030000D03*
G04 #@! TD*
D15*
G04 #@! TO.C,J1*
X208910000Y-123825000D03*
X217810000Y-123825000D03*
D16*
X208910000Y-120625000D03*
X217810000Y-120625000D03*
G04 #@! TD*
M02*
