M48
; DRILL file {KiCad (5.1.4)-1} date 10/23/2019 8:09:32 PM
; FORMAT={-:-/ absolute / inch / decimal}
; #@! TF.CreationDate,2019-10-23T20:09:32-04:00
; #@! TF.GenerationSoftware,Kicad,Pcbnew,(5.1.4)-1
; #@! TF.FileFunction,Plated,1,2,PTH
FMAT,2
INCH
T1C0.0120
T2C0.0157
T3C0.0177
T4C0.0394
%
G90
G05
T1
X8.365Y-4.83
X8.365Y-4.905
X8.435Y-4.845
X8.435Y-4.905
T2
X6.17Y-4.9
X6.175Y-4.725
X6.395Y-4.9
X6.62Y-4.9
X6.82Y-4.7
X6.845Y-4.9
X7.0625Y-4.5625
X7.07Y-4.9
X7.1Y-4.4875
X7.1Y-4.525
X7.1Y-4.5625
X7.1375Y-4.4875
X7.1375Y-4.525
X7.175Y-4.4875
X7.215Y-4.165
X7.215Y-4.205
X7.215Y-4.25
X7.215Y-4.295
X7.255Y-4.165
X7.255Y-4.205
X7.255Y-4.25
X7.255Y-4.295
X7.295Y-4.205
X7.295Y-4.25
X7.295Y-4.295
X7.36Y-4.45
X7.36Y-4.525
X7.375Y-4.6
X7.39Y-4.285
X7.39Y-4.32
X7.455Y-4.325
X7.455Y-4.4
X7.489Y-4.881
X7.55Y-4.695
X7.564Y-4.881
X7.625Y-4.695
X7.639Y-4.881
X7.66Y-4.165
X7.66Y-4.205
X7.66Y-4.25
X7.66Y-4.295
X7.7Y-4.25
X7.7Y-4.295
X7.7Y-4.695
X7.714Y-4.881
X7.74Y-4.165
X7.74Y-4.205
X7.74Y-4.25
X7.74Y-4.295
X7.78Y-4.165
X7.78Y-4.205
X7.78Y-4.25
X7.78Y-4.295
X7.8Y-4.62
X7.8Y-4.665
X7.8Y-4.745
X7.8Y-4.815
X7.82Y-4.165
X7.82Y-4.205
X7.82Y-4.25
X7.82Y-4.295
X7.825Y-4.375
X7.825Y-4.425
X7.86Y-4.165
X7.86Y-4.745
X7.87Y-4.425
X7.89Y-4.35
X7.9Y-4.165
X7.9Y-4.745
X7.935Y-4.885
X7.945Y-4.62
X7.945Y-4.685
X7.965Y-4.53
X7.975Y-4.65
X8.005Y-4.62
X8.005Y-4.685
X8.015Y-4.885
X8.075Y-4.33
X8.075Y-4.37
X8.11Y-4.755
X8.14Y-4.64
X8.14Y-4.71
X8.225Y-4.575
X8.225Y-4.64
X8.305Y-4.7
X8.365Y-4.675
X8.4Y-4.59
X8.435Y-4.675
T4
X7.45Y-4.575
X8.05Y-4.025
X8.15Y-4.025
X8.25Y-4.025
X8.35Y-4.025
X8.45Y-4.025
X8.55Y-4.025
X7.325Y-4.8
X7.05Y-4.025
X7.15Y-4.025
X7.25Y-4.025
X7.35Y-4.025
X7.45Y-4.025
X7.675Y-4.45
X7.75Y-4.575
X7.525Y-4.45
X7.6Y-4.575
X8.15Y-4.5
X7.65Y-4.025
X7.75Y-4.025
X7.85Y-4.025
T3
G00X8.2248Y-4.7293
M15
G01X8.2248Y-4.7687
M16
G05
G00X8.2248Y-4.8514
M15
G01X8.2248Y-4.8986
M16
G05
G00X8.5752Y-4.7293
M15
G01X8.5752Y-4.7687
M16
G05
G00X8.5752Y-4.8514
M15
G01X8.5752Y-4.8986
M16
G05
T0
M30
