G04 #@! TF.GenerationSoftware,KiCad,Pcbnew,(5.1.4)-1*
G04 #@! TF.CreationDate,2019-10-23T20:09:23-04:00*
G04 #@! TF.ProjectId,USB LED Daughterboard 0-2,55534220-4c45-4442-9044-617567687465,rev?*
G04 #@! TF.SameCoordinates,Original*
G04 #@! TF.FileFunction,Legend,Top*
G04 #@! TF.FilePolarity,Positive*
%FSLAX46Y46*%
G04 Gerber Fmt 4.6, Leading zero omitted, Abs format (unit mm)*
G04 Created by KiCad (PCBNEW (5.1.4)-1) date 2019-10-23 20:09:23*
%MOMM*%
%LPD*%
G04 APERTURE LIST*
%ADD10C,0.254000*%
%ADD11C,0.304800*%
%ADD12C,0.317500*%
%ADD13C,0.381000*%
%ADD14C,0.300000*%
%ADD15C,0.120000*%
%ADD16C,0.152400*%
%ADD17C,0.150000*%
%ADD18C,0.203200*%
G04 APERTURE END LIST*
D10*
X209471380Y-114759619D02*
X209132714Y-114275809D01*
X208890809Y-114759619D02*
X208890809Y-113743619D01*
X209277857Y-113743619D01*
X209374619Y-113792000D01*
X209423000Y-113840380D01*
X209471380Y-113937142D01*
X209471380Y-114082285D01*
X209423000Y-114179047D01*
X209374619Y-114227428D01*
X209277857Y-114275809D01*
X208890809Y-114275809D01*
X209906809Y-114227428D02*
X210245476Y-114227428D01*
X210390619Y-114759619D02*
X209906809Y-114759619D01*
X209906809Y-113743619D01*
X210390619Y-113743619D01*
X210777666Y-114711238D02*
X210922809Y-114759619D01*
X211164714Y-114759619D01*
X211261476Y-114711238D01*
X211309857Y-114662857D01*
X211358238Y-114566095D01*
X211358238Y-114469333D01*
X211309857Y-114372571D01*
X211261476Y-114324190D01*
X211164714Y-114275809D01*
X210971190Y-114227428D01*
X210874428Y-114179047D01*
X210826047Y-114130666D01*
X210777666Y-114033904D01*
X210777666Y-113937142D01*
X210826047Y-113840380D01*
X210874428Y-113792000D01*
X210971190Y-113743619D01*
X211213095Y-113743619D01*
X211358238Y-113792000D01*
X211793666Y-114227428D02*
X212132333Y-114227428D01*
X212277476Y-114759619D02*
X211793666Y-114759619D01*
X211793666Y-113743619D01*
X212277476Y-113743619D01*
X212567761Y-113743619D02*
X213148333Y-113743619D01*
X212858047Y-114759619D02*
X212858047Y-113743619D01*
D11*
X184658000Y-119380000D02*
X185420000Y-120650000D01*
X183388000Y-119380000D02*
X184658000Y-119380000D01*
D10*
X179148619Y-119742857D02*
X179100238Y-119791238D01*
X178955095Y-119839619D01*
X178858333Y-119839619D01*
X178713190Y-119791238D01*
X178616428Y-119694476D01*
X178568047Y-119597714D01*
X178519666Y-119404190D01*
X178519666Y-119259047D01*
X178568047Y-119065523D01*
X178616428Y-118968761D01*
X178713190Y-118872000D01*
X178858333Y-118823619D01*
X178955095Y-118823619D01*
X179100238Y-118872000D01*
X179148619Y-118920380D01*
X179584047Y-119839619D02*
X179584047Y-118823619D01*
X179584047Y-119307428D02*
X180164619Y-119307428D01*
X180164619Y-119839619D02*
X180164619Y-118823619D01*
X180406523Y-119936380D02*
X181180619Y-119936380D01*
X181954714Y-119839619D02*
X181374142Y-119839619D01*
X181664428Y-119839619D02*
X181664428Y-118823619D01*
X181567666Y-118968761D01*
X181470904Y-119065523D01*
X181374142Y-119113904D01*
X182873952Y-118823619D02*
X182390142Y-118823619D01*
X182341761Y-119307428D01*
X182390142Y-119259047D01*
X182486904Y-119210666D01*
X182728809Y-119210666D01*
X182825571Y-119259047D01*
X182873952Y-119307428D01*
X182922333Y-119404190D01*
X182922333Y-119646095D01*
X182873952Y-119742857D01*
X182825571Y-119791238D01*
X182728809Y-119839619D01*
X182486904Y-119839619D01*
X182390142Y-119791238D01*
X182341761Y-119742857D01*
D11*
X194945000Y-118618000D02*
X194945000Y-111630000D01*
X196850000Y-114681000D02*
X196850000Y-118618000D01*
X196850000Y-112903000D02*
X196850000Y-114681000D01*
X193040000Y-111633000D02*
X193040000Y-118618000D01*
X189230000Y-112268000D02*
X189230000Y-118618000D01*
X191135000Y-110998000D02*
X191135000Y-118618000D01*
D10*
X197019333Y-112473619D02*
X197019333Y-111989809D01*
X197309619Y-112570380D02*
X196293619Y-112231714D01*
X197309619Y-111893047D01*
X196293619Y-111699523D02*
X196293619Y-111118952D01*
X197309619Y-111409238D02*
X196293619Y-111409238D01*
X196293619Y-110925428D02*
X196293619Y-110344857D01*
X197309619Y-110635142D02*
X196293619Y-110635142D01*
X197019333Y-110054571D02*
X197019333Y-109570761D01*
X197309619Y-110151333D02*
X196293619Y-109812666D01*
X197309619Y-109474000D01*
X197212857Y-108554761D02*
X197261238Y-108603142D01*
X197309619Y-108748285D01*
X197309619Y-108845047D01*
X197261238Y-108990190D01*
X197164476Y-109086952D01*
X197067714Y-109135333D01*
X196874190Y-109183714D01*
X196729047Y-109183714D01*
X196535523Y-109135333D01*
X196438761Y-109086952D01*
X196342000Y-108990190D01*
X196293619Y-108845047D01*
X196293619Y-108748285D01*
X196342000Y-108603142D01*
X196390380Y-108554761D01*
X197309619Y-108119333D02*
X196293619Y-108119333D01*
X196777428Y-108119333D02*
X196777428Y-107538761D01*
X197309619Y-107538761D02*
X196293619Y-107538761D01*
X195531619Y-111137095D02*
X194515619Y-111137095D01*
X194515619Y-110750047D01*
X194564000Y-110653285D01*
X194612380Y-110604904D01*
X194709142Y-110556523D01*
X194854285Y-110556523D01*
X194951047Y-110604904D01*
X194999428Y-110653285D01*
X195047809Y-110750047D01*
X195047809Y-111137095D01*
X195531619Y-110121095D02*
X194515619Y-110121095D01*
X194515619Y-109879190D01*
X194564000Y-109734047D01*
X194660761Y-109637285D01*
X194757523Y-109588904D01*
X194951047Y-109540523D01*
X195096190Y-109540523D01*
X195289714Y-109588904D01*
X195386476Y-109637285D01*
X195483238Y-109734047D01*
X195531619Y-109879190D01*
X195531619Y-110121095D01*
X194515619Y-108911571D02*
X194515619Y-108718047D01*
X194564000Y-108621285D01*
X194660761Y-108524523D01*
X194854285Y-108476142D01*
X195192952Y-108476142D01*
X195386476Y-108524523D01*
X195483238Y-108621285D01*
X195531619Y-108718047D01*
X195531619Y-108911571D01*
X195483238Y-109008333D01*
X195386476Y-109105095D01*
X195192952Y-109153476D01*
X194854285Y-109153476D01*
X194660761Y-109105095D01*
X194564000Y-109008333D01*
X194515619Y-108911571D01*
X194515619Y-108137476D02*
X194515619Y-107508523D01*
X194902666Y-107847190D01*
X194902666Y-107702047D01*
X194951047Y-107605285D01*
X194999428Y-107556904D01*
X195096190Y-107508523D01*
X195338095Y-107508523D01*
X195434857Y-107556904D01*
X195483238Y-107605285D01*
X195531619Y-107702047D01*
X195531619Y-107992333D01*
X195483238Y-108089095D01*
X195434857Y-108137476D01*
X192532000Y-110617000D02*
X192483619Y-110713761D01*
X192483619Y-110858904D01*
X192532000Y-111004047D01*
X192628761Y-111100809D01*
X192725523Y-111149190D01*
X192919047Y-111197571D01*
X193064190Y-111197571D01*
X193257714Y-111149190D01*
X193354476Y-111100809D01*
X193451238Y-111004047D01*
X193499619Y-110858904D01*
X193499619Y-110762142D01*
X193451238Y-110617000D01*
X193402857Y-110568619D01*
X193064190Y-110568619D01*
X193064190Y-110762142D01*
X193499619Y-110133190D02*
X192483619Y-110133190D01*
X192483619Y-109746142D01*
X192532000Y-109649380D01*
X192580380Y-109601000D01*
X192677142Y-109552619D01*
X192822285Y-109552619D01*
X192919047Y-109601000D01*
X192967428Y-109649380D01*
X193015809Y-109746142D01*
X193015809Y-110133190D01*
X193499619Y-109117190D02*
X192483619Y-109117190D01*
X192483619Y-108439857D02*
X192483619Y-108246333D01*
X192532000Y-108149571D01*
X192628761Y-108052809D01*
X192822285Y-108004428D01*
X193160952Y-108004428D01*
X193354476Y-108052809D01*
X193451238Y-108149571D01*
X193499619Y-108246333D01*
X193499619Y-108439857D01*
X193451238Y-108536619D01*
X193354476Y-108633380D01*
X193160952Y-108681761D01*
X192822285Y-108681761D01*
X192628761Y-108633380D01*
X192532000Y-108536619D01*
X192483619Y-108439857D01*
X191304333Y-110356952D02*
X191304333Y-109873142D01*
X191594619Y-110453714D02*
X190578619Y-110115047D01*
X191594619Y-109776380D01*
X191691380Y-109679619D02*
X191691380Y-108905523D01*
X191062428Y-108324952D02*
X191110809Y-108179809D01*
X191159190Y-108131428D01*
X191255952Y-108083047D01*
X191401095Y-108083047D01*
X191497857Y-108131428D01*
X191546238Y-108179809D01*
X191594619Y-108276571D01*
X191594619Y-108663619D01*
X190578619Y-108663619D01*
X190578619Y-108324952D01*
X190627000Y-108228190D01*
X190675380Y-108179809D01*
X190772142Y-108131428D01*
X190868904Y-108131428D01*
X190965666Y-108179809D01*
X191014047Y-108228190D01*
X191062428Y-108324952D01*
X191062428Y-108663619D01*
X189689619Y-111772095D02*
X188673619Y-111772095D01*
X188673619Y-111385047D01*
X188722000Y-111288285D01*
X188770380Y-111239904D01*
X188867142Y-111191523D01*
X189012285Y-111191523D01*
X189109047Y-111239904D01*
X189157428Y-111288285D01*
X189205809Y-111385047D01*
X189205809Y-111772095D01*
X189689619Y-110756095D02*
X188673619Y-110756095D01*
X188673619Y-110514190D01*
X188722000Y-110369047D01*
X188818761Y-110272285D01*
X188915523Y-110223904D01*
X189109047Y-110175523D01*
X189254190Y-110175523D01*
X189447714Y-110223904D01*
X189544476Y-110272285D01*
X189641238Y-110369047D01*
X189689619Y-110514190D01*
X189689619Y-110756095D01*
X188673619Y-109546571D02*
X188673619Y-109353047D01*
X188722000Y-109256285D01*
X188818761Y-109159523D01*
X189012285Y-109111142D01*
X189350952Y-109111142D01*
X189544476Y-109159523D01*
X189641238Y-109256285D01*
X189689619Y-109353047D01*
X189689619Y-109546571D01*
X189641238Y-109643333D01*
X189544476Y-109740095D01*
X189350952Y-109788476D01*
X189012285Y-109788476D01*
X188818761Y-109740095D01*
X188722000Y-109643333D01*
X188673619Y-109546571D01*
X188770380Y-108724095D02*
X188722000Y-108675714D01*
X188673619Y-108578952D01*
X188673619Y-108337047D01*
X188722000Y-108240285D01*
X188770380Y-108191904D01*
X188867142Y-108143523D01*
X188963904Y-108143523D01*
X189109047Y-108191904D01*
X189689619Y-108772476D01*
X189689619Y-108143523D01*
D12*
X158502286Y-112226586D02*
X158374494Y-112500636D01*
X158151561Y-112263224D02*
X158374494Y-112500636D01*
X158699661Y-112518807D01*
X158107831Y-112643201D02*
X158374494Y-112500636D01*
X158436691Y-112796551D01*
X158678091Y-113709855D02*
X159035908Y-112942514D01*
X159214816Y-112558844D02*
X159134448Y-112588096D01*
X159163700Y-112668464D01*
X159244068Y-112639212D01*
X159214816Y-112558844D01*
X159163700Y-112668464D01*
X159584009Y-113198098D02*
X159226192Y-113965438D01*
X159532892Y-113307718D02*
X159613260Y-113278466D01*
X159748439Y-113274773D01*
X159912869Y-113351448D01*
X159996931Y-113457374D01*
X160000624Y-113592553D01*
X159719482Y-114195463D01*
X160238331Y-114370678D02*
X160322393Y-114476605D01*
X160541633Y-114578839D01*
X160676811Y-114575145D01*
X160782738Y-114491083D01*
X160808296Y-114436273D01*
X160804603Y-114301095D01*
X160720541Y-114195168D01*
X160556111Y-114118493D01*
X160472049Y-114012566D01*
X160468356Y-113877388D01*
X160493914Y-113822578D01*
X160599841Y-113738516D01*
X160735019Y-113734823D01*
X160899450Y-113811498D01*
X160983511Y-113917425D01*
X161663392Y-115035195D02*
X161528213Y-115038889D01*
X161308973Y-114936655D01*
X161224912Y-114830729D01*
X161221218Y-114695550D01*
X161425685Y-114257070D01*
X161531612Y-114173008D01*
X161666790Y-114169315D01*
X161886030Y-114271548D01*
X161970092Y-114377475D01*
X161973785Y-114512653D01*
X161922669Y-114622273D01*
X161323452Y-114476310D01*
X162185934Y-115345589D02*
X162543751Y-114578248D01*
X162441517Y-114797488D02*
X162547444Y-114713427D01*
X162627813Y-114684175D01*
X162762991Y-114680482D01*
X162872611Y-114731598D01*
X163091851Y-114833832D02*
X163530332Y-115038298D01*
X163435190Y-114526836D02*
X162975140Y-115513417D01*
X162978833Y-115648596D01*
X163062895Y-115754522D01*
X163172515Y-115805639D01*
X164433146Y-116393481D02*
X164790963Y-115626140D01*
X164739846Y-115735760D02*
X164820214Y-115706509D01*
X164955393Y-115702815D01*
X165119823Y-115779490D01*
X165203885Y-115885417D01*
X165207578Y-116020595D01*
X164926436Y-116623506D01*
X165207578Y-116020595D02*
X165313505Y-115936534D01*
X165448683Y-115932840D01*
X165613113Y-116009515D01*
X165697175Y-116115442D01*
X165700868Y-116250621D01*
X165419726Y-116853531D01*
X166431866Y-117258771D02*
X166296687Y-117262464D01*
X166077447Y-117160231D01*
X165993385Y-117054304D01*
X165989692Y-116919126D01*
X166194159Y-116480646D01*
X166300085Y-116396584D01*
X166435264Y-116392891D01*
X166654504Y-116495124D01*
X166738566Y-116601051D01*
X166742259Y-116736229D01*
X166691142Y-116845849D01*
X166091925Y-116699886D01*
X166954408Y-117569165D02*
X167312224Y-116801824D01*
X167261108Y-116911444D02*
X167341476Y-116882192D01*
X167476655Y-116878499D01*
X167641085Y-116955174D01*
X167725146Y-117061101D01*
X167728840Y-117196279D01*
X167447698Y-117799190D01*
X167728840Y-117196279D02*
X167834767Y-117112217D01*
X167969945Y-117108524D01*
X168134375Y-117185199D01*
X168218437Y-117291126D01*
X168222130Y-117426304D01*
X167940988Y-118029215D01*
X168953128Y-118434455D02*
X168817949Y-118438148D01*
X168598709Y-118335915D01*
X168514647Y-118229988D01*
X168510954Y-118094810D01*
X168715421Y-117656329D01*
X168821347Y-117572268D01*
X168956526Y-117568574D01*
X169175766Y-117670808D01*
X169259828Y-117776734D01*
X169263521Y-117911913D01*
X169212404Y-118021533D01*
X168613187Y-117875570D01*
X170176825Y-117670512D02*
X170049033Y-117944563D01*
X169826100Y-117707151D02*
X170049033Y-117944563D01*
X170374200Y-117962734D01*
X169782370Y-118087128D02*
X170049033Y-117944563D01*
X170111230Y-118240478D01*
X161274070Y-117372637D02*
X161810795Y-116221626D01*
X161767360Y-117602662D02*
X162048502Y-116999752D01*
X162044809Y-116864573D01*
X161960747Y-116758646D01*
X161796317Y-116681971D01*
X161661139Y-116685665D01*
X161580770Y-116714916D01*
X162779500Y-118007902D02*
X162644321Y-118011596D01*
X162425081Y-117909362D01*
X162341019Y-117803435D01*
X162337326Y-117668257D01*
X162541793Y-117229777D01*
X162647719Y-117145715D01*
X162782898Y-117142022D01*
X163002138Y-117244255D01*
X163086200Y-117350182D01*
X163089893Y-117485360D01*
X163038776Y-117594980D01*
X162439559Y-117449017D01*
X163302042Y-118318296D02*
X163659858Y-117550955D01*
X163557625Y-117770195D02*
X163663552Y-117686133D01*
X163743920Y-117656882D01*
X163879099Y-117653188D01*
X163988719Y-117704305D01*
X164478611Y-118800211D02*
X164343432Y-118803904D01*
X164124192Y-118701671D01*
X164040130Y-118595744D01*
X164036437Y-118460566D01*
X164240904Y-118022085D01*
X164346831Y-117938024D01*
X164482009Y-117934330D01*
X164701249Y-118036564D01*
X164785311Y-118142490D01*
X164789004Y-118277669D01*
X164737888Y-118387289D01*
X164138670Y-118241325D01*
D13*
X159784142Y-110843785D02*
X159784142Y-108938785D01*
X159784142Y-109664500D02*
X159965571Y-109573785D01*
X160328428Y-109573785D01*
X160509857Y-109664500D01*
X160600571Y-109755214D01*
X160691285Y-109936642D01*
X160691285Y-110480928D01*
X160600571Y-110662357D01*
X160509857Y-110753071D01*
X160328428Y-110843785D01*
X159965571Y-110843785D01*
X159784142Y-110753071D01*
X161779857Y-110843785D02*
X161598428Y-110753071D01*
X161507714Y-110662357D01*
X161417000Y-110480928D01*
X161417000Y-109936642D01*
X161507714Y-109755214D01*
X161598428Y-109664500D01*
X161779857Y-109573785D01*
X162052000Y-109573785D01*
X162233428Y-109664500D01*
X162324142Y-109755214D01*
X162414857Y-109936642D01*
X162414857Y-110480928D01*
X162324142Y-110662357D01*
X162233428Y-110753071D01*
X162052000Y-110843785D01*
X161779857Y-110843785D01*
X163231285Y-109573785D02*
X163231285Y-110843785D01*
X163231285Y-109755214D02*
X163322000Y-109664500D01*
X163503428Y-109573785D01*
X163775571Y-109573785D01*
X163957000Y-109664500D01*
X164047714Y-109845928D01*
X164047714Y-110843785D01*
X165771285Y-109573785D02*
X165771285Y-110843785D01*
X164954857Y-109573785D02*
X164954857Y-110571642D01*
X165045571Y-110753071D01*
X165227000Y-110843785D01*
X165499142Y-110843785D01*
X165680571Y-110753071D01*
X165771285Y-110662357D01*
X166587714Y-110753071D02*
X166769142Y-110843785D01*
X167132000Y-110843785D01*
X167313428Y-110753071D01*
X167404142Y-110571642D01*
X167404142Y-110480928D01*
X167313428Y-110299500D01*
X167132000Y-110208785D01*
X166859857Y-110208785D01*
X166678428Y-110118071D01*
X166587714Y-109936642D01*
X166587714Y-109845928D01*
X166678428Y-109664500D01*
X166859857Y-109573785D01*
X167132000Y-109573785D01*
X167313428Y-109664500D01*
X169581285Y-110753071D02*
X169762714Y-110843785D01*
X170125571Y-110843785D01*
X170307000Y-110753071D01*
X170397714Y-110571642D01*
X170397714Y-110480928D01*
X170307000Y-110299500D01*
X170125571Y-110208785D01*
X169853428Y-110208785D01*
X169672000Y-110118071D01*
X169581285Y-109936642D01*
X169581285Y-109845928D01*
X169672000Y-109664500D01*
X169853428Y-109573785D01*
X170125571Y-109573785D01*
X170307000Y-109664500D01*
X171214142Y-109573785D02*
X171214142Y-111478785D01*
X171214142Y-109664500D02*
X171395571Y-109573785D01*
X171758428Y-109573785D01*
X171939857Y-109664500D01*
X172030571Y-109755214D01*
X172121285Y-109936642D01*
X172121285Y-110480928D01*
X172030571Y-110662357D01*
X171939857Y-110753071D01*
X171758428Y-110843785D01*
X171395571Y-110843785D01*
X171214142Y-110753071D01*
X173754142Y-110843785D02*
X173754142Y-109845928D01*
X173663428Y-109664500D01*
X173482000Y-109573785D01*
X173119142Y-109573785D01*
X172937714Y-109664500D01*
X173754142Y-110753071D02*
X173572714Y-110843785D01*
X173119142Y-110843785D01*
X172937714Y-110753071D01*
X172847000Y-110571642D01*
X172847000Y-110390214D01*
X172937714Y-110208785D01*
X173119142Y-110118071D01*
X173572714Y-110118071D01*
X173754142Y-110027357D01*
X175477714Y-110753071D02*
X175296285Y-110843785D01*
X174933428Y-110843785D01*
X174752000Y-110753071D01*
X174661285Y-110662357D01*
X174570571Y-110480928D01*
X174570571Y-109936642D01*
X174661285Y-109755214D01*
X174752000Y-109664500D01*
X174933428Y-109573785D01*
X175296285Y-109573785D01*
X175477714Y-109664500D01*
X177019857Y-110753071D02*
X176838428Y-110843785D01*
X176475571Y-110843785D01*
X176294142Y-110753071D01*
X176203428Y-110571642D01*
X176203428Y-109845928D01*
X176294142Y-109664500D01*
X176475571Y-109573785D01*
X176838428Y-109573785D01*
X177019857Y-109664500D01*
X177110571Y-109845928D01*
X177110571Y-110027357D01*
X176203428Y-110208785D01*
X158583639Y-106975699D02*
X158778063Y-107033530D01*
X159135408Y-106970520D01*
X159298328Y-106849680D01*
X159356159Y-106655255D01*
X159340407Y-106565919D01*
X159219566Y-106402999D01*
X159025141Y-106345167D01*
X158757133Y-106392425D01*
X158562708Y-106334593D01*
X158441867Y-106171673D01*
X158426115Y-106082337D01*
X158483946Y-105887913D01*
X158646866Y-105767072D01*
X158914875Y-105719815D01*
X159109299Y-105777646D01*
X160023591Y-106261228D02*
X160916952Y-106103704D01*
X159939433Y-106828749D02*
X160233986Y-104842424D01*
X161190139Y-106608216D01*
X161815492Y-106497949D02*
X161594959Y-105247243D01*
X161626463Y-105425916D02*
X161700047Y-105320827D01*
X161862967Y-105199986D01*
X162130975Y-105152729D01*
X162325400Y-105210561D01*
X162446241Y-105373481D01*
X162619517Y-106356178D01*
X162446241Y-105373481D02*
X162504072Y-105179056D01*
X162666992Y-105058215D01*
X162935000Y-105010958D01*
X163129425Y-105068789D01*
X163250266Y-105231709D01*
X163423542Y-106214407D01*
X164096370Y-104806177D02*
X164427170Y-106682236D01*
X164112123Y-104895513D02*
X164275042Y-104774672D01*
X164632387Y-104711663D01*
X164826812Y-104769494D01*
X164931900Y-104843078D01*
X165052741Y-105005998D01*
X165147255Y-105542015D01*
X165089424Y-105736439D01*
X165015840Y-105841528D01*
X164852920Y-105962369D01*
X164495576Y-106025378D01*
X164301151Y-105967547D01*
X166282298Y-105710331D02*
X166087874Y-105652499D01*
X165967033Y-105489580D01*
X165683490Y-103881529D01*
X166823711Y-104601614D02*
X167449064Y-104491348D01*
X167890349Y-105426788D02*
X166996987Y-105584312D01*
X166666188Y-103708253D01*
X167559549Y-103550729D01*
X169635210Y-103829530D02*
X170349899Y-103703511D01*
X169792952Y-103156920D02*
X170076495Y-104764970D01*
X170197336Y-104927890D01*
X170391760Y-104985722D01*
X170570433Y-104954217D01*
X171022509Y-103861253D02*
X171647862Y-103750986D01*
X172089147Y-104686427D02*
X171195786Y-104843950D01*
X170864986Y-102967892D01*
X171758347Y-102810368D01*
X172383700Y-102700101D02*
X173965206Y-104355627D01*
X173634406Y-102479568D02*
X172714500Y-104576160D01*
X174191353Y-103026159D02*
X174906042Y-102900140D01*
X174349095Y-102353549D02*
X174632638Y-103961600D01*
X174753478Y-104124519D01*
X174947903Y-104182351D01*
X175126575Y-104150846D01*
D12*
X178435000Y-106885619D02*
X178374523Y-107006571D01*
X178374523Y-107188000D01*
X178435000Y-107369428D01*
X178555952Y-107490380D01*
X178676904Y-107550857D01*
X178918809Y-107611333D01*
X179100238Y-107611333D01*
X179342142Y-107550857D01*
X179463095Y-107490380D01*
X179584047Y-107369428D01*
X179644523Y-107188000D01*
X179644523Y-107067047D01*
X179584047Y-106885619D01*
X179523571Y-106825142D01*
X179100238Y-106825142D01*
X179100238Y-107067047D01*
X179644523Y-106280857D02*
X178374523Y-106280857D01*
X179644523Y-105555142D01*
X178374523Y-105555142D01*
X179644523Y-104950380D02*
X178374523Y-104950380D01*
X178374523Y-104648000D01*
X178435000Y-104466571D01*
X178555952Y-104345619D01*
X178676904Y-104285142D01*
X178918809Y-104224666D01*
X179100238Y-104224666D01*
X179342142Y-104285142D01*
X179463095Y-104345619D01*
X179584047Y-104466571D01*
X179644523Y-104648000D01*
X179644523Y-104950380D01*
X180914523Y-108046761D02*
X180914523Y-107260571D01*
X181398333Y-107683904D01*
X181398333Y-107502476D01*
X181458809Y-107381523D01*
X181519285Y-107321047D01*
X181640238Y-107260571D01*
X181942619Y-107260571D01*
X182063571Y-107321047D01*
X182124047Y-107381523D01*
X182184523Y-107502476D01*
X182184523Y-107865333D01*
X182124047Y-107986285D01*
X182063571Y-108046761D01*
X182063571Y-106716285D02*
X182124047Y-106655809D01*
X182184523Y-106716285D01*
X182124047Y-106776761D01*
X182063571Y-106716285D01*
X182184523Y-106716285D01*
X180914523Y-106232476D02*
X180914523Y-105446285D01*
X181398333Y-105869619D01*
X181398333Y-105688190D01*
X181458809Y-105567238D01*
X181519285Y-105506761D01*
X181640238Y-105446285D01*
X181942619Y-105446285D01*
X182063571Y-105506761D01*
X182124047Y-105567238D01*
X182184523Y-105688190D01*
X182184523Y-106051047D01*
X182124047Y-106172000D01*
X182063571Y-106232476D01*
X180914523Y-105083428D02*
X182184523Y-104660095D01*
X180914523Y-104236761D01*
X184664047Y-107429904D02*
X184724523Y-107248476D01*
X184724523Y-106946095D01*
X184664047Y-106825142D01*
X184603571Y-106764666D01*
X184482619Y-106704190D01*
X184361666Y-106704190D01*
X184240714Y-106764666D01*
X184180238Y-106825142D01*
X184119761Y-106946095D01*
X184059285Y-107188000D01*
X183998809Y-107308952D01*
X183938333Y-107369428D01*
X183817380Y-107429904D01*
X183696428Y-107429904D01*
X183575476Y-107369428D01*
X183515000Y-107308952D01*
X183454523Y-107188000D01*
X183454523Y-106885619D01*
X183515000Y-106704190D01*
X184603571Y-105434190D02*
X184664047Y-105494666D01*
X184724523Y-105676095D01*
X184724523Y-105797047D01*
X184664047Y-105978476D01*
X184543095Y-106099428D01*
X184422142Y-106159904D01*
X184180238Y-106220380D01*
X183998809Y-106220380D01*
X183756904Y-106159904D01*
X183635952Y-106099428D01*
X183515000Y-105978476D01*
X183454523Y-105797047D01*
X183454523Y-105676095D01*
X183515000Y-105494666D01*
X183575476Y-105434190D01*
X184724523Y-104285142D02*
X184724523Y-104889904D01*
X183454523Y-104889904D01*
X187204047Y-107460142D02*
X187264523Y-107278714D01*
X187264523Y-106976333D01*
X187204047Y-106855380D01*
X187143571Y-106794904D01*
X187022619Y-106734428D01*
X186901666Y-106734428D01*
X186780714Y-106794904D01*
X186720238Y-106855380D01*
X186659761Y-106976333D01*
X186599285Y-107218238D01*
X186538809Y-107339190D01*
X186478333Y-107399666D01*
X186357380Y-107460142D01*
X186236428Y-107460142D01*
X186115476Y-107399666D01*
X186055000Y-107339190D01*
X185994523Y-107218238D01*
X185994523Y-106915857D01*
X186055000Y-106734428D01*
X187264523Y-106190142D02*
X185994523Y-106190142D01*
X185994523Y-105887761D01*
X186055000Y-105706333D01*
X186175952Y-105585380D01*
X186296904Y-105524904D01*
X186538809Y-105464428D01*
X186720238Y-105464428D01*
X186962142Y-105524904D01*
X187083095Y-105585380D01*
X187204047Y-105706333D01*
X187264523Y-105887761D01*
X187264523Y-106190142D01*
X186901666Y-104980619D02*
X186901666Y-104375857D01*
X187264523Y-105101571D02*
X185994523Y-104678238D01*
X187264523Y-104254904D01*
X189441666Y-106964238D02*
X189441666Y-106359476D01*
X189804523Y-107085190D02*
X188534523Y-106661857D01*
X189804523Y-106238523D01*
X189804523Y-105210428D02*
X189804523Y-105815190D01*
X188534523Y-105815190D01*
X188534523Y-104968523D02*
X188534523Y-104242809D01*
X189804523Y-104605666D02*
X188534523Y-104605666D01*
D11*
X192532000Y-100965000D02*
X192532000Y-104140000D01*
X201295000Y-100965000D02*
X201295000Y-103124000D01*
X198247000Y-104267000D02*
X197612000Y-103251000D01*
D12*
X193360523Y-106909809D02*
X192090523Y-106909809D01*
X192090523Y-106607428D01*
X192151000Y-106426000D01*
X192271952Y-106305047D01*
X192392904Y-106244571D01*
X192634809Y-106184095D01*
X192816238Y-106184095D01*
X193058142Y-106244571D01*
X193179095Y-106305047D01*
X193300047Y-106426000D01*
X193360523Y-106607428D01*
X193360523Y-106909809D01*
X192876714Y-105639809D02*
X192876714Y-104672190D01*
X193360523Y-105156000D02*
X192392904Y-105156000D01*
X198948523Y-106909809D02*
X197678523Y-106909809D01*
X197678523Y-106607428D01*
X197739000Y-106426000D01*
X197859952Y-106305047D01*
X197980904Y-106244571D01*
X198222809Y-106184095D01*
X198404238Y-106184095D01*
X198646142Y-106244571D01*
X198767095Y-106305047D01*
X198888047Y-106426000D01*
X198948523Y-106607428D01*
X198948523Y-106909809D01*
X198464714Y-105639809D02*
X198464714Y-104672190D01*
X200152000Y-106377619D02*
X200091523Y-106498571D01*
X200091523Y-106680000D01*
X200152000Y-106861428D01*
X200272952Y-106982380D01*
X200393904Y-107042857D01*
X200635809Y-107103333D01*
X200817238Y-107103333D01*
X201059142Y-107042857D01*
X201180095Y-106982380D01*
X201301047Y-106861428D01*
X201361523Y-106680000D01*
X201361523Y-106559047D01*
X201301047Y-106377619D01*
X201240571Y-106317142D01*
X200817238Y-106317142D01*
X200817238Y-106559047D01*
X201361523Y-105772857D02*
X200091523Y-105772857D01*
X201361523Y-105047142D01*
X200091523Y-105047142D01*
X201361523Y-104442380D02*
X200091523Y-104442380D01*
X200091523Y-104140000D01*
X200152000Y-103958571D01*
X200272952Y-103837619D01*
X200393904Y-103777142D01*
X200635809Y-103716666D01*
X200817238Y-103716666D01*
X201059142Y-103777142D01*
X201180095Y-103837619D01*
X201301047Y-103958571D01*
X201361523Y-104140000D01*
X201361523Y-104442380D01*
D11*
X203073000Y-103886000D02*
X203073000Y-103759000D01*
X203073000Y-104648000D02*
X203073000Y-103886000D01*
X204851000Y-104648000D02*
X203073000Y-104648000D01*
X209169000Y-104648000D02*
X210820000Y-104648000D01*
X218567000Y-104648000D02*
X218567000Y-103632000D01*
X217297000Y-104648000D02*
X218567000Y-104648000D01*
X210820000Y-104648000D02*
X211963000Y-104648000D01*
X210820000Y-103759000D02*
X210820000Y-104648000D01*
D12*
X206042380Y-104013000D02*
X205921428Y-103952523D01*
X205740000Y-103952523D01*
X205558571Y-104013000D01*
X205437619Y-104133952D01*
X205377142Y-104254904D01*
X205316666Y-104496809D01*
X205316666Y-104678238D01*
X205377142Y-104920142D01*
X205437619Y-105041095D01*
X205558571Y-105162047D01*
X205740000Y-105222523D01*
X205860952Y-105222523D01*
X206042380Y-105162047D01*
X206102857Y-105101571D01*
X206102857Y-104678238D01*
X205860952Y-104678238D01*
X206647142Y-105222523D02*
X206647142Y-103952523D01*
X207372857Y-105222523D01*
X207372857Y-103952523D01*
X207977619Y-105222523D02*
X207977619Y-103952523D01*
X208280000Y-103952523D01*
X208461428Y-104013000D01*
X208582380Y-104133952D01*
X208642857Y-104254904D01*
X208703333Y-104496809D01*
X208703333Y-104678238D01*
X208642857Y-104920142D01*
X208582380Y-105041095D01*
X208461428Y-105162047D01*
X208280000Y-105222523D01*
X207977619Y-105222523D01*
D14*
X212301666Y-103952523D02*
X212725000Y-105222523D01*
X213148333Y-103952523D01*
X213995000Y-104557285D02*
X214176428Y-104617761D01*
X214236904Y-104678238D01*
X214297380Y-104799190D01*
X214297380Y-104980619D01*
X214236904Y-105101571D01*
X214176428Y-105162047D01*
X214055476Y-105222523D01*
X213571666Y-105222523D01*
X213571666Y-103952523D01*
X213995000Y-103952523D01*
X214115952Y-104013000D01*
X214176428Y-104073476D01*
X214236904Y-104194428D01*
X214236904Y-104315380D01*
X214176428Y-104436333D01*
X214115952Y-104496809D01*
X213995000Y-104557285D01*
X213571666Y-104557285D01*
X214841666Y-103952523D02*
X214841666Y-104980619D01*
X214902142Y-105101571D01*
X214962619Y-105162047D01*
X215083571Y-105222523D01*
X215325476Y-105222523D01*
X215446428Y-105162047D01*
X215506904Y-105101571D01*
X215567380Y-104980619D01*
X215567380Y-103952523D01*
X216111666Y-105162047D02*
X216293095Y-105222523D01*
X216595476Y-105222523D01*
X216716428Y-105162047D01*
X216776904Y-105101571D01*
X216837380Y-104980619D01*
X216837380Y-104859666D01*
X216776904Y-104738714D01*
X216716428Y-104678238D01*
X216595476Y-104617761D01*
X216353571Y-104557285D01*
X216232619Y-104496809D01*
X216172142Y-104436333D01*
X216111666Y-104315380D01*
X216111666Y-104194428D01*
X216172142Y-104073476D01*
X216232619Y-104013000D01*
X216353571Y-103952523D01*
X216655952Y-103952523D01*
X216837380Y-104013000D01*
D15*
G04 #@! TO.C,J4*
X177740000Y-103565000D02*
X177740000Y-102235000D01*
X179070000Y-103565000D02*
X177740000Y-103565000D01*
X180340000Y-103565000D02*
X180340000Y-100905000D01*
X180340000Y-100905000D02*
X190560000Y-100905000D01*
X180340000Y-103565000D02*
X190560000Y-103565000D01*
X190560000Y-103565000D02*
X190560000Y-100905000D01*
G04 #@! TO.C,J3*
X218500000Y-100905000D02*
X218500000Y-102235000D01*
X217170000Y-100905000D02*
X218500000Y-100905000D01*
X215900000Y-100905000D02*
X215900000Y-103565000D01*
X215900000Y-103565000D02*
X203140000Y-103565000D01*
X215900000Y-100905000D02*
X203140000Y-100905000D01*
X203140000Y-100905000D02*
X203140000Y-103565000D01*
G04 #@! TO.C,J2*
X200720000Y-100905000D02*
X200720000Y-102235000D01*
X199390000Y-100905000D02*
X200720000Y-100905000D01*
X198120000Y-100905000D02*
X198120000Y-103565000D01*
X198120000Y-103565000D02*
X192980000Y-103565000D01*
X198120000Y-100905000D02*
X192980000Y-100905000D01*
X192980000Y-100905000D02*
X192980000Y-103565000D01*
D16*
G04 #@! TO.C,D12*
X174895000Y-124260000D02*
X175045000Y-124260000D01*
X175845000Y-124260000D02*
X175945000Y-124260000D01*
X176745000Y-124260000D02*
X176895000Y-124260000D01*
X176895000Y-124660000D02*
X174895000Y-124660000D01*
X176895000Y-124660000D02*
G75*
G02X174895000Y-124660000I-1000000J0D01*
G01*
D17*
G04 #@! TO.C,TP6*
X208410000Y-114300000D02*
G75*
G03X208410000Y-114300000I-1400000J0D01*
G01*
G04 #@! TO.C,U2*
X183185000Y-112610000D02*
X183185000Y-111535000D01*
X173460000Y-112610000D02*
X173460000Y-117260000D01*
X183410000Y-112610000D02*
X183410000Y-117260000D01*
X173460000Y-112610000D02*
X173785000Y-112610000D01*
X173460000Y-117260000D02*
X173785000Y-117260000D01*
X183410000Y-117260000D02*
X183085000Y-117260000D01*
X183410000Y-112610000D02*
X183185000Y-112610000D01*
D15*
G04 #@! TO.C,U1*
X204200000Y-120220000D02*
X204675000Y-120220000D01*
X200455000Y-116000000D02*
X200455000Y-116475000D01*
X200930000Y-116000000D02*
X200455000Y-116000000D01*
X204675000Y-116000000D02*
X204675000Y-116475000D01*
X204200000Y-116000000D02*
X204675000Y-116000000D01*
X200455000Y-120220000D02*
X200455000Y-119745000D01*
X200930000Y-120220000D02*
X200455000Y-120220000D01*
D17*
G04 #@! TO.C,TP7*
X187455000Y-121920000D02*
G75*
G03X187455000Y-121920000I-1400000J0D01*
G01*
G04 #@! TO.C,TP5*
X198250000Y-116205000D02*
G75*
G03X198250000Y-116205000I-1400000J0D01*
G01*
G04 #@! TO.C,TP4*
X192535000Y-113030000D02*
G75*
G03X192535000Y-113030000I-1400000J0D01*
G01*
G04 #@! TO.C,TP3*
X194440000Y-116205000D02*
G75*
G03X194440000Y-116205000I-1400000J0D01*
G01*
G04 #@! TO.C,TP2*
X190630000Y-116205000D02*
G75*
G03X190630000Y-116205000I-1400000J0D01*
G01*
G04 #@! TO.C,TP1*
X196345000Y-113030000D02*
G75*
G03X196345000Y-113030000I-1400000J0D01*
G01*
D15*
G04 #@! TO.C,R28*
X184025000Y-122082779D02*
X184025000Y-121757221D01*
X183005000Y-122082779D02*
X183005000Y-121757221D01*
G04 #@! TO.C,R27*
X182120000Y-122082779D02*
X182120000Y-121757221D01*
X181100000Y-122082779D02*
X181100000Y-121757221D01*
G04 #@! TO.C,R26*
X180215000Y-122082779D02*
X180215000Y-121757221D01*
X179195000Y-122082779D02*
X179195000Y-121757221D01*
G04 #@! TO.C,R25*
X178310000Y-122082779D02*
X178310000Y-121757221D01*
X177290000Y-122082779D02*
X177290000Y-121757221D01*
G04 #@! TO.C,R24*
X176405000Y-122082779D02*
X176405000Y-121757221D01*
X175385000Y-122082779D02*
X175385000Y-121757221D01*
G04 #@! TO.C,R23*
X174500000Y-122082779D02*
X174500000Y-121757221D01*
X173480000Y-122082779D02*
X173480000Y-121757221D01*
G04 #@! TO.C,R22*
X157355000Y-122082779D02*
X157355000Y-121757221D01*
X156335000Y-122082779D02*
X156335000Y-121757221D01*
G04 #@! TO.C,R21*
X159260000Y-122082779D02*
X159260000Y-121757221D01*
X158240000Y-122082779D02*
X158240000Y-121757221D01*
G04 #@! TO.C,R20*
X161165000Y-122082779D02*
X161165000Y-121757221D01*
X160145000Y-122082779D02*
X160145000Y-121757221D01*
G04 #@! TO.C,R19*
X163070000Y-122082779D02*
X163070000Y-121757221D01*
X162050000Y-122082779D02*
X162050000Y-121757221D01*
G04 #@! TO.C,R18*
X164975000Y-122082779D02*
X164975000Y-121757221D01*
X163955000Y-122082779D02*
X163955000Y-121757221D01*
G04 #@! TO.C,R17*
X166880000Y-122082779D02*
X166880000Y-121757221D01*
X165860000Y-122082779D02*
X165860000Y-121757221D01*
G04 #@! TO.C,R16*
X168785000Y-122082779D02*
X168785000Y-121757221D01*
X167765000Y-122082779D02*
X167765000Y-121757221D01*
G04 #@! TO.C,R15*
X170690000Y-122082779D02*
X170690000Y-121757221D01*
X169670000Y-122082779D02*
X169670000Y-121757221D01*
G04 #@! TO.C,R14*
X172595000Y-122082779D02*
X172595000Y-121757221D01*
X171575000Y-122082779D02*
X171575000Y-121757221D01*
G04 #@! TO.C,R13*
X185582779Y-114425000D02*
X185257221Y-114425000D01*
X185582779Y-115445000D02*
X185257221Y-115445000D01*
G04 #@! TO.C,R12*
X185257221Y-113540000D02*
X185582779Y-113540000D01*
X185257221Y-112520000D02*
X185582779Y-112520000D01*
G04 #@! TO.C,R11*
X203362779Y-106170000D02*
X203037221Y-106170000D01*
X203362779Y-107190000D02*
X203037221Y-107190000D01*
G04 #@! TO.C,R10*
X206847221Y-116715000D02*
X207172779Y-116715000D01*
X206847221Y-115695000D02*
X207172779Y-115695000D01*
G04 #@! TO.C,R9*
X203037221Y-109095000D02*
X203362779Y-109095000D01*
X203037221Y-108075000D02*
X203362779Y-108075000D01*
G04 #@! TO.C,R8*
X193550000Y-123352779D02*
X193550000Y-123027221D01*
X192530000Y-123352779D02*
X192530000Y-123027221D01*
G04 #@! TO.C,R7*
X197360000Y-123352779D02*
X197360000Y-123027221D01*
X196340000Y-123352779D02*
X196340000Y-123027221D01*
G04 #@! TO.C,R6*
X191645000Y-123352779D02*
X191645000Y-123027221D01*
X190625000Y-123352779D02*
X190625000Y-123027221D01*
G04 #@! TO.C,R5*
X189740000Y-123352779D02*
X189740000Y-123027221D01*
X188720000Y-123352779D02*
X188720000Y-123027221D01*
G04 #@! TO.C,R4*
X195455000Y-123352779D02*
X195455000Y-123027221D01*
X194435000Y-123352779D02*
X194435000Y-123027221D01*
G04 #@! TO.C,R3*
X207172779Y-108075000D02*
X206847221Y-108075000D01*
X207172779Y-109095000D02*
X206847221Y-109095000D01*
G04 #@! TO.C,R2*
X203037221Y-112905000D02*
X203362779Y-112905000D01*
X203037221Y-111885000D02*
X203362779Y-111885000D01*
G04 #@! TO.C,R1*
X206847221Y-112905000D02*
X207172779Y-112905000D01*
X206847221Y-111885000D02*
X207172779Y-111885000D01*
D18*
G04 #@! TO.C,J1*
X217860000Y-125075000D02*
X208860000Y-125075000D01*
X217860000Y-122575000D02*
X217860000Y-121825000D01*
X208860000Y-122575000D02*
X208860000Y-121825000D01*
X208860000Y-119325000D02*
X212360000Y-119325000D01*
X214360000Y-119325000D02*
X217860000Y-119325000D01*
D16*
G04 #@! TO.C,D13*
X180610000Y-124260000D02*
X180760000Y-124260000D01*
X181560000Y-124260000D02*
X181660000Y-124260000D01*
X182460000Y-124260000D02*
X182610000Y-124260000D01*
X182610000Y-124660000D02*
X180610000Y-124660000D01*
X182610000Y-124660000D02*
G75*
G02X180610000Y-124660000I-1000000J0D01*
G01*
G04 #@! TO.C,D11*
X157750000Y-124260000D02*
X157900000Y-124260000D01*
X158700000Y-124260000D02*
X158800000Y-124260000D01*
X159600000Y-124260000D02*
X159750000Y-124260000D01*
X159750000Y-124660000D02*
X157750000Y-124660000D01*
X159750000Y-124660000D02*
G75*
G02X157750000Y-124660000I-1000000J0D01*
G01*
G04 #@! TO.C,D10*
X163465000Y-124260000D02*
X163615000Y-124260000D01*
X164415000Y-124260000D02*
X164515000Y-124260000D01*
X165315000Y-124260000D02*
X165465000Y-124260000D01*
X165465000Y-124660000D02*
X163465000Y-124660000D01*
X165465000Y-124660000D02*
G75*
G02X163465000Y-124660000I-1000000J0D01*
G01*
G04 #@! TO.C,D9*
X169180000Y-124260000D02*
X169330000Y-124260000D01*
X170130000Y-124260000D02*
X170230000Y-124260000D01*
X171030000Y-124260000D02*
X171180000Y-124260000D01*
X171180000Y-124660000D02*
X169180000Y-124660000D01*
X171180000Y-124660000D02*
G75*
G02X169180000Y-124660000I-1000000J0D01*
G01*
D15*
G04 #@! TO.C,D8*
X209260000Y-107680000D02*
X205360000Y-107680000D01*
X209260000Y-105680000D02*
X205360000Y-105680000D01*
X209260000Y-107680000D02*
X209260000Y-105680000D01*
G04 #@! TO.C,D7*
X192355000Y-118330000D02*
X192355000Y-120815000D01*
X193725000Y-118330000D02*
X192355000Y-118330000D01*
X193725000Y-120815000D02*
X193725000Y-118330000D01*
G04 #@! TO.C,D6*
X196165000Y-118330000D02*
X196165000Y-120815000D01*
X197535000Y-118330000D02*
X196165000Y-118330000D01*
X197535000Y-120815000D02*
X197535000Y-118330000D01*
G04 #@! TO.C,D5*
X190450000Y-118330000D02*
X190450000Y-120815000D01*
X191820000Y-118330000D02*
X190450000Y-118330000D01*
X191820000Y-120815000D02*
X191820000Y-118330000D01*
G04 #@! TO.C,D4*
X188545000Y-118330000D02*
X188545000Y-120815000D01*
X189915000Y-118330000D02*
X188545000Y-118330000D01*
X189915000Y-120815000D02*
X189915000Y-118330000D01*
G04 #@! TO.C,D3*
X194260000Y-118330000D02*
X194260000Y-120815000D01*
X195630000Y-118330000D02*
X194260000Y-118330000D01*
X195630000Y-120815000D02*
X195630000Y-118330000D01*
G04 #@! TO.C,D2*
X207770000Y-120325000D02*
X206310000Y-120325000D01*
X207770000Y-117165000D02*
X205610000Y-117165000D01*
X207770000Y-117165000D02*
X207770000Y-118095000D01*
X207770000Y-120325000D02*
X207770000Y-119395000D01*
G04 #@! TO.C,D1*
X194000000Y-106170000D02*
X194000000Y-104710000D01*
X197160000Y-106170000D02*
X197160000Y-104010000D01*
X197160000Y-106170000D02*
X196230000Y-106170000D01*
X194000000Y-106170000D02*
X194930000Y-106170000D01*
G04 #@! TO.C,C6*
X185257221Y-117350000D02*
X185582779Y-117350000D01*
X185257221Y-116330000D02*
X185582779Y-116330000D01*
G04 #@! TO.C,C5*
X203275000Y-123448578D02*
X203275000Y-122931422D01*
X201855000Y-123448578D02*
X201855000Y-122931422D01*
G04 #@! TO.C,C4*
X203458578Y-109780000D02*
X202941422Y-109780000D01*
X203458578Y-111200000D02*
X202941422Y-111200000D01*
G04 #@! TO.C,C3*
X201370000Y-123448578D02*
X201370000Y-122931422D01*
X199950000Y-123448578D02*
X199950000Y-122931422D01*
G04 #@! TO.C,C2*
X206751422Y-111200000D02*
X207268578Y-111200000D01*
X206751422Y-109780000D02*
X207268578Y-109780000D01*
G04 #@! TO.C,C1*
X205180000Y-123448578D02*
X205180000Y-122931422D01*
X203760000Y-123448578D02*
X203760000Y-122931422D01*
G04 #@! TD*
M02*
