G04 #@! TF.GenerationSoftware,KiCad,Pcbnew,(5.1.4)-1*
G04 #@! TF.CreationDate,2019-10-23T20:09:22-04:00*
G04 #@! TF.ProjectId,USB LED Daughterboard 0-2,55534220-4c45-4442-9044-617567687465,rev?*
G04 #@! TF.SameCoordinates,Original*
G04 #@! TF.FileFunction,Copper,L2,Bot*
G04 #@! TF.FilePolarity,Positive*
%FSLAX46Y46*%
G04 Gerber Fmt 4.6, Leading zero omitted, Abs format (unit mm)*
G04 Created by KiCad (PCBNEW (5.1.4)-1) date 2019-10-23 20:09:22*
%MOMM*%
%LPD*%
G04 APERTURE LIST*
G04 #@! TA.AperFunction,ComponentPad*
%ADD10O,1.700000X1.700000*%
G04 #@! TD*
G04 #@! TA.AperFunction,ComponentPad*
%ADD11R,1.700000X1.700000*%
G04 #@! TD*
G04 #@! TA.AperFunction,ComponentPad*
%ADD12C,2.000000*%
G04 #@! TD*
G04 #@! TA.AperFunction,ComponentPad*
%ADD13O,0.850000X2.050000*%
G04 #@! TD*
G04 #@! TA.AperFunction,ComponentPad*
%ADD14O,0.850000X1.850000*%
G04 #@! TD*
G04 #@! TA.AperFunction,ViaPad*
%ADD15C,0.800000*%
G04 #@! TD*
G04 #@! TA.AperFunction,ViaPad*
%ADD16C,0.635000*%
G04 #@! TD*
G04 #@! TA.AperFunction,Conductor*
%ADD17C,0.381000*%
G04 #@! TD*
G04 #@! TA.AperFunction,Conductor*
%ADD18C,0.635000*%
G04 #@! TD*
G04 #@! TA.AperFunction,Conductor*
%ADD19C,0.254000*%
G04 #@! TD*
G04 #@! TA.AperFunction,Conductor*
%ADD20C,0.250000*%
G04 #@! TD*
G04 #@! TA.AperFunction,Conductor*
%ADD21C,0.152400*%
G04 #@! TD*
G04 APERTURE END LIST*
D10*
G04 #@! TO.P,J4,5*
G04 #@! TO.N,/ALERT*
X189230000Y-102235000D03*
G04 #@! TO.P,J4,4*
G04 #@! TO.N,/SDA*
X186690000Y-102235000D03*
G04 #@! TO.P,J4,3*
G04 #@! TO.N,/SCL*
X184150000Y-102235000D03*
G04 #@! TO.P,J4,2*
G04 #@! TO.N,+3V3*
X181610000Y-102235000D03*
D11*
G04 #@! TO.P,J4,1*
G04 #@! TO.N,GND*
X179070000Y-102235000D03*
G04 #@! TD*
D10*
G04 #@! TO.P,J3,6*
G04 #@! TO.N,GND*
X204470000Y-102235000D03*
G04 #@! TO.P,J3,5*
X207010000Y-102235000D03*
G04 #@! TO.P,J3,4*
X209550000Y-102235000D03*
G04 #@! TO.P,J3,3*
G04 #@! TO.N,/VBUS_OUT*
X212090000Y-102235000D03*
G04 #@! TO.P,J3,2*
X214630000Y-102235000D03*
D11*
G04 #@! TO.P,J3,1*
X217170000Y-102235000D03*
G04 #@! TD*
D10*
G04 #@! TO.P,J2,3*
G04 #@! TO.N,/D+*
X194310000Y-102235000D03*
G04 #@! TO.P,J2,2*
G04 #@! TO.N,/D-*
X196850000Y-102235000D03*
D11*
G04 #@! TO.P,J2,1*
G04 #@! TO.N,GND*
X199390000Y-102235000D03*
G04 #@! TD*
D12*
G04 #@! TO.P,TP6,1*
G04 #@! TO.N,/RESET*
X207010000Y-114300000D03*
G04 #@! TD*
G04 #@! TO.P,TP7,1*
G04 #@! TO.N,/CH_15*
X186055000Y-121920000D03*
G04 #@! TD*
G04 #@! TO.P,TP5,1*
G04 #@! TO.N,/ATTACH*
X196850000Y-116205000D03*
G04 #@! TD*
G04 #@! TO.P,TP4,1*
G04 #@! TO.N,/A_B*
X191135000Y-113030000D03*
G04 #@! TD*
G04 #@! TO.P,TP3,1*
G04 #@! TO.N,/GPIO*
X193040000Y-116205000D03*
G04 #@! TD*
G04 #@! TO.P,TP2,1*
G04 #@! TO.N,/PDO2*
X189230000Y-116205000D03*
G04 #@! TD*
G04 #@! TO.P,TP1,1*
G04 #@! TO.N,/PDO3*
X194945000Y-113030000D03*
G04 #@! TD*
D13*
G04 #@! TO.P,J1,S1*
G04 #@! TO.N,GND*
X208910000Y-123825000D03*
X217810000Y-123825000D03*
D14*
X208910000Y-120625000D03*
X217810000Y-120625000D03*
G04 #@! TD*
D15*
G04 #@! TO.N,GND*
X205105000Y-109982000D03*
X205105000Y-110998000D03*
X201549000Y-124079000D03*
X203581000Y-124079000D03*
X201803000Y-117348000D03*
X201803000Y-118999000D03*
X203327000Y-118999000D03*
X203327000Y-117348000D03*
X202565000Y-118110000D03*
X213360000Y-116586004D03*
X187325000Y-116840000D03*
X208915000Y-117856000D03*
X208915000Y-116205000D03*
X180340000Y-114935000D03*
X180340000Y-115887500D03*
X180340000Y-113982500D03*
X181292500Y-114935000D03*
X181292500Y-113982500D03*
X182245000Y-113982500D03*
X179387500Y-115887500D03*
X198628000Y-109093000D03*
X198628000Y-107950000D03*
X198628000Y-106807000D03*
X197612000Y-106807000D03*
X197612000Y-107950000D03*
X197612000Y-109093000D03*
X196596000Y-109093000D03*
X196596000Y-107950000D03*
X196596000Y-106807000D03*
X198628000Y-105791000D03*
X197612000Y-105791000D03*
X196596000Y-105791000D03*
X199644000Y-105791000D03*
X200660000Y-105791000D03*
X195580000Y-107950000D03*
X195580000Y-109093000D03*
X194564000Y-109093000D03*
X194564000Y-107950000D03*
X194564000Y-106807000D03*
X194564000Y-105791000D03*
X185293000Y-109093000D03*
X185293000Y-107950000D03*
X185293000Y-106807000D03*
X184277000Y-109093000D03*
X184277000Y-107950000D03*
X184277000Y-106807000D03*
X184277000Y-105791000D03*
X183261000Y-105791000D03*
X183261000Y-106807000D03*
X183261000Y-107950000D03*
X183261000Y-109093000D03*
G04 #@! TO.N,+3V3*
X186944000Y-113030000D03*
X186944000Y-114935000D03*
X190220500Y-123977500D03*
X192125500Y-123977500D03*
X194030500Y-123977500D03*
X195935500Y-123977500D03*
X162433000Y-124460000D03*
X156718000Y-124460000D03*
X168148000Y-124460000D03*
X173863000Y-124460000D03*
X179578000Y-124460000D03*
X187706000Y-108839000D03*
X187706000Y-109728000D03*
D16*
G04 #@! TO.N,/D-*
X212471000Y-122682000D03*
D15*
X214249000Y-118745000D03*
G04 #@! TO.N,/D+*
X212471000Y-118745000D03*
D16*
X214249000Y-123063000D03*
D15*
G04 #@! TO.N,/PDO3*
X195580000Y-119253000D03*
X198120000Y-117348000D03*
G04 #@! TO.N,/A_B*
X198120000Y-122301000D03*
X191770000Y-119253000D03*
G04 #@! TO.N,/GPIO*
X198120000Y-118491000D03*
X193675000Y-119253000D03*
G04 #@! TO.N,/SDA*
X189357000Y-109855000D03*
X189357000Y-111760056D03*
G04 #@! TO.N,/ALERT*
X200660000Y-120523000D03*
X198755000Y-111125000D03*
G04 #@! TO.N,Net-(R2-Pad1)*
X199644000Y-120523000D03*
X199898000Y-112395000D03*
G04 #@! TO.N,Net-(R9-Pad1)*
X198120000Y-120522990D03*
X198755000Y-112395000D03*
G04 #@! TO.N,Net-(R11-Pad2)*
X202311000Y-115062000D03*
X200406000Y-110490000D03*
G04 #@! TO.N,Net-(R22-Pad2)*
X173228000Y-119380000D03*
X156845000Y-120015000D03*
D16*
G04 #@! TO.N,/CC1*
X212471000Y-124587000D03*
D15*
X206756000Y-119634000D03*
D16*
G04 #@! TO.N,/CC2*
X214249000Y-124587000D03*
D15*
X206756000Y-117856000D03*
G04 #@! TO.N,/VBUS_IN*
X205994000Y-120777000D03*
X210947000Y-119380000D03*
G04 #@! TD*
D17*
G04 #@! TO.N,+3V3*
X162915500Y-123977500D02*
X162433000Y-124460000D01*
X163169500Y-123977500D02*
X162915500Y-123977500D01*
X163169500Y-123977500D02*
X157734000Y-123977500D01*
X157734000Y-123977500D02*
X157200500Y-123977500D01*
X157200500Y-123977500D02*
X156718000Y-124460000D01*
X168630500Y-123977500D02*
X168148000Y-124460000D01*
X168884500Y-123977500D02*
X168630500Y-123977500D01*
X168884500Y-123977500D02*
X163169500Y-123977500D01*
X174345500Y-123977500D02*
X173863000Y-124460000D01*
X174523500Y-123977500D02*
X174345500Y-123977500D01*
X174523500Y-123977500D02*
X168884500Y-123977500D01*
X180060500Y-123977500D02*
X179578000Y-124460000D01*
X180187500Y-123977500D02*
X180060500Y-123977500D01*
X180187500Y-123977500D02*
X174523500Y-123977500D01*
X195935500Y-123977500D02*
X180187500Y-123977500D01*
D18*
X186944000Y-114935000D02*
X186944000Y-111506000D01*
X186944000Y-111506000D02*
X187706000Y-110744000D01*
X187706000Y-110744000D02*
X187706000Y-109728000D01*
X187706000Y-108839000D02*
X187706000Y-108839000D01*
X187706000Y-109728000D02*
X187706000Y-108839000D01*
D19*
G04 #@! TO.N,/D-*
X215881675Y-120109646D02*
X215889297Y-120042000D01*
X214421099Y-119707894D02*
X214363459Y-119671676D01*
X215717197Y-120315894D02*
X215774837Y-120279676D01*
X214553000Y-120346000D02*
X215585297Y-120346000D01*
X214421099Y-120376105D02*
X214485353Y-120353621D01*
X215652943Y-120338378D02*
X215717197Y-120315894D01*
X214485353Y-119730378D02*
X214421099Y-119707894D01*
X214315323Y-120460459D02*
X214363459Y-120412323D01*
X215822973Y-119852459D02*
X215774837Y-119804323D01*
X214363459Y-120412323D02*
X214421099Y-120376105D01*
X215822973Y-120231540D02*
X215859191Y-120173900D01*
X215859191Y-120173900D02*
X215881675Y-120109646D01*
X214279105Y-120518099D02*
X214315323Y-120460459D01*
X214249000Y-120650000D02*
X214256621Y-120582353D01*
X215881675Y-119974353D02*
X215859191Y-119910099D01*
X214279105Y-119565900D02*
X214256621Y-119501646D01*
X215774837Y-120279676D02*
X215822973Y-120231540D01*
X215652943Y-119745621D02*
X215585297Y-119738000D01*
X215585297Y-119738000D02*
X214553000Y-119738000D01*
X214553000Y-119738000D02*
X214485353Y-119730378D01*
X214256621Y-119501646D02*
X214249000Y-119434000D01*
X214249000Y-119434000D02*
X214249000Y-118745000D01*
X215889297Y-120042000D02*
X215881675Y-119974353D01*
X212471000Y-122682000D02*
X213233000Y-122682000D01*
X215585297Y-120346000D02*
X215652943Y-120338378D01*
X214249000Y-121666000D02*
X214249000Y-120650000D01*
X213233000Y-122682000D02*
X214249000Y-121666000D01*
X214363459Y-119671676D02*
X214315323Y-119623540D01*
X215717197Y-119768105D02*
X215652943Y-119745621D01*
X214315323Y-119623540D02*
X214279105Y-119565900D01*
X215774837Y-119804323D02*
X215717197Y-119768105D01*
X214256621Y-120582353D02*
X214279105Y-120518099D01*
X214485353Y-120353621D02*
X214553000Y-120346000D01*
X215859191Y-119910099D02*
X215822973Y-119852459D01*
X205994000Y-104267000D02*
X197358000Y-104267000D01*
X208469584Y-106742584D02*
X205994000Y-104267000D01*
X208560234Y-106799543D02*
X208511700Y-106776170D01*
X208612752Y-106811530D02*
X208560234Y-106799543D01*
X208719138Y-106799543D02*
X208666620Y-106811530D01*
X208851905Y-106708997D02*
X208767672Y-106776170D01*
X208900439Y-106685625D02*
X208851905Y-106708997D01*
X197358000Y-104267000D02*
X196850000Y-103759000D01*
X209006826Y-106673638D02*
X208952957Y-106673638D01*
X208767672Y-106776170D02*
X208719138Y-106799543D01*
X209059344Y-106685625D02*
X209006826Y-106673638D01*
X209107878Y-106708997D02*
X209059344Y-106685625D01*
X209149994Y-106742584D02*
X209107878Y-106708997D01*
X209169000Y-106761590D02*
X209149994Y-106742584D01*
X209112040Y-107351349D02*
X209100053Y-107298831D01*
X208666620Y-106811530D02*
X208612752Y-106811530D01*
X209225959Y-106852240D02*
X209202586Y-106803706D01*
X209169000Y-107442000D02*
X209135413Y-107399883D01*
X209202586Y-106803706D02*
X209169000Y-106761590D01*
X212090000Y-110363000D02*
X209169000Y-107442000D01*
X208952957Y-106673638D02*
X208900439Y-106685625D01*
X214249000Y-118745000D02*
X212090000Y-116586000D01*
X196850000Y-103759000D02*
X196850000Y-102235000D01*
X209100053Y-107244963D02*
X209112040Y-107192445D01*
X209135413Y-107399883D02*
X209112040Y-107351349D01*
X212090000Y-116586000D02*
X212090000Y-110363000D01*
X209112040Y-107192445D02*
X209135413Y-107143911D01*
X208511700Y-106776170D02*
X208469584Y-106742584D01*
X209135413Y-107143911D02*
X209202586Y-107059678D01*
X209237946Y-106958626D02*
X209237946Y-106904758D01*
X209202586Y-107059678D02*
X209225959Y-107011144D01*
X209225959Y-107011144D02*
X209237946Y-106958626D01*
X209100053Y-107298831D02*
X209100053Y-107244963D01*
X209237946Y-106904758D02*
X209225959Y-106852240D01*
G04 #@! TO.N,/D+*
X211709000Y-119507000D02*
X212471000Y-118745000D01*
X211709000Y-123063000D02*
X211709000Y-119507000D01*
X212090000Y-123444000D02*
X211709000Y-123063000D01*
X213302315Y-123444000D02*
X212090000Y-123444000D01*
X213683315Y-123063000D02*
X213302315Y-123444000D01*
X214249000Y-123063000D02*
X213683315Y-123063000D01*
X196850000Y-104775000D02*
X194310000Y-102235000D01*
X205867000Y-104775000D02*
X196850000Y-104775000D01*
X211582000Y-110490000D02*
X205867000Y-104775000D01*
X211582000Y-116713000D02*
X211582000Y-110490000D01*
X212471000Y-118745000D02*
X212471000Y-117602000D01*
X212471000Y-117602000D02*
X211582000Y-116713000D01*
G04 #@! TO.N,/PDO3*
X195580000Y-119253000D02*
X198405750Y-119253000D01*
X198405750Y-119253000D02*
X198882000Y-118776750D01*
X198882000Y-118110000D02*
X198882000Y-118776750D01*
X198120000Y-117348000D02*
X198882000Y-118110000D01*
G04 #@! TO.N,/A_B*
X197358000Y-121539000D02*
X198120000Y-122301000D01*
X197358000Y-120269000D02*
X197358000Y-121539000D01*
X197104000Y-120015000D02*
X197358000Y-120269000D01*
X191770000Y-119253000D02*
X192532000Y-120015000D01*
X192532000Y-120015000D02*
X197104000Y-120015000D01*
G04 #@! TO.N,/GPIO*
X193675000Y-119253000D02*
X194437000Y-118491000D01*
X194437000Y-118491000D02*
X198120000Y-118491000D01*
G04 #@! TO.N,/SDA*
X189357000Y-109855000D02*
X189357000Y-111760056D01*
G04 #@! TO.N,/ALERT*
X200660000Y-119761000D02*
X200406000Y-119507000D01*
X200406000Y-119507000D02*
X200406000Y-113411000D01*
X200660000Y-120523000D02*
X200660000Y-119761000D01*
X200406000Y-113411000D02*
X200406000Y-113284000D01*
X200406000Y-113284000D02*
X200787000Y-112903000D01*
X200787000Y-112903000D02*
X200787000Y-112014000D01*
X199595922Y-111125000D02*
X198755000Y-111125000D01*
X200787000Y-112014000D02*
X199898000Y-111125000D01*
X199898000Y-111125000D02*
X199595922Y-111125000D01*
G04 #@! TO.N,Net-(R2-Pad1)*
X199644000Y-119761000D02*
X199644000Y-120523000D01*
X199898000Y-119507000D02*
X199644000Y-119761000D01*
X199898000Y-112395000D02*
X199898000Y-119507000D01*
G04 #@! TO.N,Net-(R9-Pad1)*
X199390000Y-119252990D02*
X198120000Y-120522990D01*
X199390000Y-113595685D02*
X199390000Y-119252990D01*
X198755000Y-112960685D02*
X199390000Y-113595685D01*
X198755000Y-112395000D02*
X198755000Y-112960685D01*
G04 #@! TO.N,Net-(R11-Pad2)*
X201295000Y-111379000D02*
X200406000Y-110490000D01*
X201295000Y-114681000D02*
X201295000Y-111379000D01*
X201676000Y-115062000D02*
X201295000Y-114681000D01*
X202311000Y-115062000D02*
X201676000Y-115062000D01*
D20*
G04 #@! TO.N,Net-(R22-Pad2)*
X173228000Y-119380000D02*
X157480000Y-119380000D01*
X157480000Y-119380000D02*
X156845000Y-120015000D01*
D19*
G04 #@! TO.N,/CC1*
X209249829Y-122428000D02*
X211408829Y-124587000D01*
X207772000Y-122428000D02*
X209249829Y-122428000D01*
X211408829Y-124587000D02*
X212471000Y-124587000D01*
X207010000Y-121666000D02*
X207772000Y-122428000D01*
X207010000Y-120523000D02*
X207010000Y-121666000D01*
X206756000Y-120269000D02*
X207010000Y-120523000D01*
X206756000Y-119634000D02*
X206756000Y-120269000D01*
G04 #@! TO.N,/CC2*
X207518000Y-121412000D02*
X207518000Y-118618000D01*
X207518000Y-118618000D02*
X206756000Y-117856000D01*
X214249000Y-124177158D02*
X214023842Y-123952000D01*
X214249000Y-124587000D02*
X214249000Y-124177158D01*
X214023842Y-123952000D02*
X211455000Y-123952000D01*
X209423000Y-121920000D02*
X208026000Y-121920000D01*
X211455000Y-123952000D02*
X209423000Y-121920000D01*
X208026000Y-121920000D02*
X207518000Y-121412000D01*
G04 #@! TO.N,/VBUS_IN*
X205994000Y-120777000D02*
X205994000Y-120211315D01*
X205994000Y-120211315D02*
X205994000Y-117475000D01*
X205994000Y-117475000D02*
X206375000Y-117094000D01*
X206375000Y-117094000D02*
X207137000Y-117094000D01*
X207137000Y-117094000D02*
X208153000Y-118110000D01*
X208153000Y-118110000D02*
X209423000Y-119380000D01*
X209423000Y-119380000D02*
X210947000Y-119380000D01*
G04 #@! TD*
D21*
G04 #@! TO.N,GND*
G36*
X217977323Y-100412224D02*
G01*
X218143075Y-100462268D01*
X218295953Y-100543554D01*
X218430133Y-100652989D01*
X218540501Y-100786401D01*
X218622850Y-100938703D01*
X218674053Y-101104110D01*
X218694000Y-101293897D01*
X218694001Y-124123852D01*
X218675276Y-124314823D01*
X218625234Y-124480571D01*
X218543946Y-124633453D01*
X218434511Y-124767633D01*
X218368802Y-124821993D01*
X218368802Y-124792854D01*
X218403630Y-124740456D01*
X218453766Y-124618583D01*
X218479162Y-124489271D01*
X218423828Y-124383800D01*
X218158800Y-124383800D01*
X218158800Y-124403800D01*
X217461200Y-124403800D01*
X217461200Y-124383800D01*
X217196172Y-124383800D01*
X217140838Y-124489271D01*
X217166234Y-124618583D01*
X217216370Y-124740456D01*
X217251198Y-124792854D01*
X217251198Y-125031500D01*
X214566712Y-125031500D01*
X214597118Y-125011183D01*
X214673183Y-124935118D01*
X214732947Y-124845675D01*
X214774113Y-124746291D01*
X214795100Y-124640786D01*
X214795100Y-124533214D01*
X214774113Y-124427709D01*
X214732947Y-124328325D01*
X214673183Y-124238882D01*
X214605758Y-124171457D01*
X214604600Y-124159704D01*
X214604600Y-124159695D01*
X214599454Y-124107448D01*
X214579121Y-124040418D01*
X214546101Y-123978642D01*
X214501663Y-123924495D01*
X214488099Y-123913363D01*
X214287640Y-123712905D01*
X214276505Y-123699337D01*
X214222358Y-123654899D01*
X214160582Y-123621879D01*
X214093552Y-123601546D01*
X214041305Y-123596400D01*
X214041297Y-123596400D01*
X214023842Y-123594681D01*
X214006387Y-123596400D01*
X213652809Y-123596400D01*
X213830609Y-123418600D01*
X213832299Y-123418600D01*
X213900882Y-123487183D01*
X213990325Y-123546947D01*
X214089709Y-123588113D01*
X214195214Y-123609100D01*
X214302786Y-123609100D01*
X214408291Y-123588113D01*
X214507675Y-123546947D01*
X214597118Y-123487183D01*
X214673183Y-123411118D01*
X214732947Y-123321675D01*
X214774113Y-123222291D01*
X214786358Y-123160729D01*
X217140838Y-123160729D01*
X217196172Y-123266200D01*
X217461200Y-123266200D01*
X217461200Y-122741170D01*
X218158800Y-122741170D01*
X218158800Y-123266200D01*
X218423828Y-123266200D01*
X218479162Y-123160729D01*
X218453766Y-123031417D01*
X218403630Y-122909544D01*
X218330681Y-122799794D01*
X218240975Y-122733621D01*
X218158800Y-122741170D01*
X217461200Y-122741170D01*
X217379025Y-122733621D01*
X217289319Y-122799794D01*
X217216370Y-122909544D01*
X217166234Y-123031417D01*
X217140838Y-123160729D01*
X214786358Y-123160729D01*
X214795100Y-123116786D01*
X214795100Y-123009214D01*
X214774113Y-122903709D01*
X214732947Y-122804325D01*
X214673183Y-122714882D01*
X214597118Y-122638817D01*
X214507675Y-122579053D01*
X214408291Y-122537887D01*
X214302786Y-122516900D01*
X214195214Y-122516900D01*
X214089709Y-122537887D01*
X213990325Y-122579053D01*
X213900882Y-122638817D01*
X213832299Y-122707400D01*
X213710493Y-122707400D01*
X214488104Y-121929790D01*
X214501662Y-121918663D01*
X214512790Y-121905104D01*
X214512795Y-121905099D01*
X214528438Y-121886038D01*
X214546101Y-121864516D01*
X214579121Y-121802740D01*
X214596957Y-121743941D01*
X214599454Y-121735711D01*
X214600855Y-121721483D01*
X214604600Y-121683463D01*
X214604600Y-121683456D01*
X214606319Y-121666000D01*
X214604600Y-121648545D01*
X214604600Y-121281312D01*
X217198963Y-121281312D01*
X217241199Y-121397516D01*
X217305294Y-121503247D01*
X217379025Y-121616379D01*
X217461200Y-121608830D01*
X217461200Y-121183800D01*
X218158800Y-121183800D01*
X218158800Y-121608830D01*
X218240975Y-121616379D01*
X218314706Y-121503247D01*
X218378801Y-121397516D01*
X218421037Y-121281312D01*
X218380817Y-121183800D01*
X218158800Y-121183800D01*
X217461200Y-121183800D01*
X217239183Y-121183800D01*
X217198963Y-121281312D01*
X214604600Y-121281312D01*
X214604600Y-120701600D01*
X215552797Y-120701600D01*
X215555265Y-120702055D01*
X215587717Y-120701600D01*
X215602760Y-120701600D01*
X215605257Y-120701354D01*
X215607759Y-120701319D01*
X215622659Y-120699640D01*
X215655007Y-120696454D01*
X215657414Y-120695724D01*
X215680365Y-120693138D01*
X215702895Y-120692189D01*
X215732080Y-120685095D01*
X215761453Y-120678823D01*
X215782160Y-120669904D01*
X215822876Y-120655656D01*
X215844626Y-120649719D01*
X215871513Y-120636303D01*
X215898744Y-120623656D01*
X215916938Y-120610360D01*
X215953480Y-120587398D01*
X215973352Y-120576776D01*
X215996564Y-120557726D01*
X216020315Y-120539324D01*
X216035096Y-120522310D01*
X216065602Y-120491804D01*
X216082621Y-120477019D01*
X216101022Y-120453270D01*
X216120074Y-120430055D01*
X216130699Y-120410176D01*
X216153652Y-120373648D01*
X216166953Y-120355448D01*
X216179607Y-120328202D01*
X216193016Y-120301329D01*
X216198953Y-120279581D01*
X216213202Y-120238860D01*
X216222120Y-120218156D01*
X216228393Y-120188777D01*
X216235485Y-120159599D01*
X216236434Y-120137078D01*
X216241265Y-120094200D01*
X216245352Y-120072033D01*
X216244931Y-120042000D01*
X216245352Y-120011968D01*
X216241265Y-119989802D01*
X216238887Y-119968688D01*
X217198963Y-119968688D01*
X217239183Y-120066200D01*
X217461200Y-120066200D01*
X217461200Y-119641170D01*
X218158800Y-119641170D01*
X218158800Y-120066200D01*
X218380817Y-120066200D01*
X218421037Y-119968688D01*
X218378801Y-119852484D01*
X218314706Y-119746753D01*
X218240975Y-119633621D01*
X218158800Y-119641170D01*
X217461200Y-119641170D01*
X217379025Y-119633621D01*
X217305294Y-119746753D01*
X217241199Y-119852484D01*
X217198963Y-119968688D01*
X216238887Y-119968688D01*
X216236434Y-119946923D01*
X216235485Y-119924400D01*
X216228392Y-119895218D01*
X216222120Y-119865843D01*
X216213200Y-119845135D01*
X216198953Y-119804418D01*
X216193016Y-119782670D01*
X216179607Y-119755797D01*
X216166953Y-119728551D01*
X216153648Y-119710346D01*
X216130699Y-119673823D01*
X216120074Y-119653944D01*
X216101022Y-119630729D01*
X216082621Y-119606980D01*
X216065602Y-119592195D01*
X216035096Y-119561689D01*
X216020315Y-119544675D01*
X215996564Y-119526273D01*
X215973352Y-119507223D01*
X215953480Y-119496601D01*
X215916938Y-119473639D01*
X215898744Y-119460343D01*
X215871513Y-119447696D01*
X215844626Y-119434280D01*
X215822876Y-119428343D01*
X215782155Y-119414094D01*
X215761448Y-119405175D01*
X215732082Y-119398905D01*
X215702895Y-119391810D01*
X215680363Y-119390861D01*
X215657412Y-119388276D01*
X215655007Y-119387546D01*
X215622633Y-119384357D01*
X215607753Y-119382681D01*
X215605258Y-119382646D01*
X215602760Y-119382400D01*
X215587712Y-119382400D01*
X215555260Y-119381945D01*
X215552792Y-119382400D01*
X214604600Y-119382400D01*
X214604600Y-119263407D01*
X214649709Y-119233266D01*
X214737266Y-119145709D01*
X214806059Y-119042754D01*
X214853444Y-118928356D01*
X214877600Y-118806912D01*
X214877600Y-118683088D01*
X214853444Y-118561644D01*
X214806059Y-118447246D01*
X214737266Y-118344291D01*
X214649709Y-118256734D01*
X214546754Y-118187941D01*
X214432356Y-118140556D01*
X214310912Y-118116400D01*
X214187088Y-118116400D01*
X214133878Y-118126984D01*
X212445600Y-116438707D01*
X212445600Y-110380455D01*
X212447319Y-110363000D01*
X212445600Y-110345545D01*
X212445600Y-110345537D01*
X212440454Y-110293290D01*
X212420121Y-110226260D01*
X212387101Y-110164484D01*
X212342663Y-110110337D01*
X212329100Y-110099206D01*
X209494274Y-107264381D01*
X209503709Y-107248888D01*
X209520046Y-107223679D01*
X209528381Y-107202731D01*
X209540929Y-107176674D01*
X209552114Y-107157090D01*
X209561643Y-107128581D01*
X209571952Y-107100395D01*
X209575416Y-107078124D01*
X209581855Y-107049912D01*
X209588400Y-107028336D01*
X209591345Y-106998434D01*
X209595125Y-106968648D01*
X209593546Y-106946168D01*
X209593546Y-106917216D01*
X209595125Y-106894736D01*
X209591345Y-106864945D01*
X209588400Y-106835049D01*
X209581856Y-106813476D01*
X209575416Y-106785260D01*
X209571952Y-106762989D01*
X209561643Y-106734803D01*
X209552114Y-106706294D01*
X209540929Y-106686710D01*
X209528381Y-106660653D01*
X209520046Y-106639705D01*
X209503709Y-106614496D01*
X209488087Y-106588842D01*
X209472831Y-106572245D01*
X209467286Y-106565292D01*
X209466101Y-106563075D01*
X209445493Y-106537965D01*
X209436132Y-106526226D01*
X209434384Y-106524429D01*
X209432795Y-106522492D01*
X209424426Y-106514123D01*
X209423002Y-106512055D01*
X209411110Y-106500491D01*
X209399534Y-106488586D01*
X209397462Y-106487159D01*
X209389092Y-106478789D01*
X209387161Y-106477204D01*
X209385362Y-106475455D01*
X209373587Y-106466065D01*
X209348509Y-106445484D01*
X209346298Y-106444302D01*
X209339327Y-106438743D01*
X209322736Y-106423493D01*
X209297094Y-106407879D01*
X209271883Y-106391540D01*
X209250938Y-106383206D01*
X209224865Y-106370650D01*
X209205290Y-106359470D01*
X209176800Y-106349947D01*
X209148589Y-106339630D01*
X209126318Y-106336167D01*
X209098112Y-106329729D01*
X209076536Y-106323184D01*
X209046634Y-106320239D01*
X209016847Y-106316459D01*
X208994367Y-106318038D01*
X208965415Y-106318038D01*
X208942935Y-106316459D01*
X208913147Y-106320239D01*
X208883247Y-106323184D01*
X208861671Y-106329729D01*
X208833466Y-106336167D01*
X208811194Y-106339630D01*
X208782983Y-106349947D01*
X208754493Y-106359470D01*
X208734918Y-106370650D01*
X208708853Y-106383202D01*
X208687904Y-106391537D01*
X208662685Y-106407881D01*
X208647203Y-106417308D01*
X206257799Y-104027906D01*
X206246663Y-104014337D01*
X206192516Y-103969899D01*
X206130740Y-103936879D01*
X206063710Y-103916546D01*
X206011463Y-103911400D01*
X206011455Y-103911400D01*
X205994000Y-103909681D01*
X205976545Y-103911400D01*
X197505295Y-103911400D01*
X197205600Y-103611707D01*
X197205600Y-103254263D01*
X197264759Y-103236317D01*
X197452137Y-103136162D01*
X197514477Y-103085000D01*
X198310294Y-103085000D01*
X198314708Y-103129813D01*
X198327779Y-103172905D01*
X198349006Y-103212618D01*
X198377573Y-103247427D01*
X198412382Y-103275994D01*
X198452095Y-103297221D01*
X198495187Y-103310292D01*
X198540000Y-103314706D01*
X198774050Y-103313600D01*
X198831200Y-103256450D01*
X198831200Y-102793800D01*
X199948800Y-102793800D01*
X199948800Y-103256450D01*
X200005950Y-103313600D01*
X200240000Y-103314706D01*
X200284813Y-103310292D01*
X200327905Y-103297221D01*
X200367618Y-103275994D01*
X200402427Y-103247427D01*
X200430994Y-103212618D01*
X200452221Y-103172905D01*
X200465292Y-103129813D01*
X200469706Y-103085000D01*
X200468600Y-102850950D01*
X200411450Y-102793800D01*
X203604554Y-102793800D01*
X203646178Y-102931246D01*
X203773759Y-103058788D01*
X203911200Y-103090045D01*
X203911200Y-102793800D01*
X205028800Y-102793800D01*
X205028800Y-103090045D01*
X205166241Y-103058788D01*
X205293822Y-102931246D01*
X205335446Y-102793800D01*
X206144554Y-102793800D01*
X206186178Y-102931246D01*
X206313759Y-103058788D01*
X206451200Y-103090045D01*
X206451200Y-102793800D01*
X207568800Y-102793800D01*
X207568800Y-103090045D01*
X207706241Y-103058788D01*
X207833822Y-102931246D01*
X207875446Y-102793800D01*
X208684554Y-102793800D01*
X208726178Y-102931246D01*
X208853759Y-103058788D01*
X208991200Y-103090045D01*
X208991200Y-102793800D01*
X210108800Y-102793800D01*
X210108800Y-103090045D01*
X210246241Y-103058788D01*
X210373822Y-102931246D01*
X210415446Y-102793800D01*
X210108800Y-102793800D01*
X208991200Y-102793800D01*
X208684554Y-102793800D01*
X207875446Y-102793800D01*
X207568800Y-102793800D01*
X206451200Y-102793800D01*
X206144554Y-102793800D01*
X205335446Y-102793800D01*
X205028800Y-102793800D01*
X203911200Y-102793800D01*
X203604554Y-102793800D01*
X200411450Y-102793800D01*
X199948800Y-102793800D01*
X198831200Y-102793800D01*
X198368550Y-102793800D01*
X198311400Y-102850950D01*
X198310294Y-103085000D01*
X197514477Y-103085000D01*
X197616375Y-103001375D01*
X197751162Y-102837137D01*
X197851317Y-102649759D01*
X197912993Y-102446442D01*
X197933818Y-102235000D01*
X211006182Y-102235000D01*
X211027007Y-102446442D01*
X211088683Y-102649759D01*
X211188838Y-102837137D01*
X211323625Y-103001375D01*
X211487863Y-103136162D01*
X211675241Y-103236317D01*
X211878558Y-103297993D01*
X212037020Y-103313600D01*
X212142980Y-103313600D01*
X212301442Y-103297993D01*
X212504759Y-103236317D01*
X212692137Y-103136162D01*
X212856375Y-103001375D01*
X212991162Y-102837137D01*
X213091317Y-102649759D01*
X213152993Y-102446442D01*
X213173818Y-102235000D01*
X213546182Y-102235000D01*
X213567007Y-102446442D01*
X213628683Y-102649759D01*
X213728838Y-102837137D01*
X213863625Y-103001375D01*
X214027863Y-103136162D01*
X214215241Y-103236317D01*
X214418558Y-103297993D01*
X214577020Y-103313600D01*
X214682980Y-103313600D01*
X214841442Y-103297993D01*
X215044759Y-103236317D01*
X215232137Y-103136162D01*
X215396375Y-103001375D01*
X215531162Y-102837137D01*
X215631317Y-102649759D01*
X215692993Y-102446442D01*
X215713818Y-102235000D01*
X215692993Y-102023558D01*
X215631317Y-101820241D01*
X215531162Y-101632863D01*
X215396375Y-101468625D01*
X215294478Y-101385000D01*
X216090294Y-101385000D01*
X216090294Y-103085000D01*
X216094708Y-103129813D01*
X216107779Y-103172905D01*
X216129006Y-103212618D01*
X216157573Y-103247427D01*
X216192382Y-103275994D01*
X216232095Y-103297221D01*
X216275187Y-103310292D01*
X216320000Y-103314706D01*
X218020000Y-103314706D01*
X218064813Y-103310292D01*
X218107905Y-103297221D01*
X218147618Y-103275994D01*
X218182427Y-103247427D01*
X218210994Y-103212618D01*
X218232221Y-103172905D01*
X218245292Y-103129813D01*
X218249706Y-103085000D01*
X218249706Y-101385000D01*
X218245292Y-101340187D01*
X218232221Y-101297095D01*
X218210994Y-101257382D01*
X218182427Y-101222573D01*
X218147618Y-101194006D01*
X218107905Y-101172779D01*
X218064813Y-101159708D01*
X218020000Y-101155294D01*
X216320000Y-101155294D01*
X216275187Y-101159708D01*
X216232095Y-101172779D01*
X216192382Y-101194006D01*
X216157573Y-101222573D01*
X216129006Y-101257382D01*
X216107779Y-101297095D01*
X216094708Y-101340187D01*
X216090294Y-101385000D01*
X215294478Y-101385000D01*
X215232137Y-101333838D01*
X215044759Y-101233683D01*
X214841442Y-101172007D01*
X214682980Y-101156400D01*
X214577020Y-101156400D01*
X214418558Y-101172007D01*
X214215241Y-101233683D01*
X214027863Y-101333838D01*
X213863625Y-101468625D01*
X213728838Y-101632863D01*
X213628683Y-101820241D01*
X213567007Y-102023558D01*
X213546182Y-102235000D01*
X213173818Y-102235000D01*
X213152993Y-102023558D01*
X213091317Y-101820241D01*
X212991162Y-101632863D01*
X212856375Y-101468625D01*
X212692137Y-101333838D01*
X212504759Y-101233683D01*
X212301442Y-101172007D01*
X212142980Y-101156400D01*
X212037020Y-101156400D01*
X211878558Y-101172007D01*
X211675241Y-101233683D01*
X211487863Y-101333838D01*
X211323625Y-101468625D01*
X211188838Y-101632863D01*
X211088683Y-101820241D01*
X211027007Y-102023558D01*
X211006182Y-102235000D01*
X197933818Y-102235000D01*
X197912993Y-102023558D01*
X197851317Y-101820241D01*
X197751162Y-101632863D01*
X197616375Y-101468625D01*
X197514478Y-101385000D01*
X198310294Y-101385000D01*
X198311400Y-101619050D01*
X198368550Y-101676200D01*
X198831200Y-101676200D01*
X198831200Y-101213550D01*
X199948800Y-101213550D01*
X199948800Y-101676200D01*
X200411450Y-101676200D01*
X203604554Y-101676200D01*
X203911200Y-101676200D01*
X205028800Y-101676200D01*
X205335446Y-101676200D01*
X206144554Y-101676200D01*
X206451200Y-101676200D01*
X207568800Y-101676200D01*
X207875446Y-101676200D01*
X208684554Y-101676200D01*
X208991200Y-101676200D01*
X210108800Y-101676200D01*
X210415446Y-101676200D01*
X210373822Y-101538754D01*
X210246241Y-101411212D01*
X210108800Y-101379955D01*
X210108800Y-101676200D01*
X208991200Y-101676200D01*
X208991200Y-101379955D01*
X208853759Y-101411212D01*
X208726178Y-101538754D01*
X208684554Y-101676200D01*
X207875446Y-101676200D01*
X207833822Y-101538754D01*
X207706241Y-101411212D01*
X207568800Y-101379955D01*
X207568800Y-101676200D01*
X206451200Y-101676200D01*
X206451200Y-101379955D01*
X206313759Y-101411212D01*
X206186178Y-101538754D01*
X206144554Y-101676200D01*
X205335446Y-101676200D01*
X205293822Y-101538754D01*
X205166241Y-101411212D01*
X205028800Y-101379955D01*
X205028800Y-101676200D01*
X203911200Y-101676200D01*
X203911200Y-101379955D01*
X203773759Y-101411212D01*
X203646178Y-101538754D01*
X203604554Y-101676200D01*
X200411450Y-101676200D01*
X200468600Y-101619050D01*
X200469706Y-101385000D01*
X200465292Y-101340187D01*
X200452221Y-101297095D01*
X200430994Y-101257382D01*
X200402427Y-101222573D01*
X200367618Y-101194006D01*
X200327905Y-101172779D01*
X200284813Y-101159708D01*
X200240000Y-101155294D01*
X200005950Y-101156400D01*
X199948800Y-101213550D01*
X198831200Y-101213550D01*
X198774050Y-101156400D01*
X198540000Y-101155294D01*
X198495187Y-101159708D01*
X198452095Y-101172779D01*
X198412382Y-101194006D01*
X198377573Y-101222573D01*
X198349006Y-101257382D01*
X198327779Y-101297095D01*
X198314708Y-101340187D01*
X198310294Y-101385000D01*
X197514478Y-101385000D01*
X197452137Y-101333838D01*
X197264759Y-101233683D01*
X197061442Y-101172007D01*
X196902980Y-101156400D01*
X196797020Y-101156400D01*
X196638558Y-101172007D01*
X196435241Y-101233683D01*
X196247863Y-101333838D01*
X196083625Y-101468625D01*
X195948838Y-101632863D01*
X195848683Y-101820241D01*
X195787007Y-102023558D01*
X195766182Y-102235000D01*
X195787007Y-102446442D01*
X195848683Y-102649759D01*
X195948838Y-102837137D01*
X196083625Y-103001375D01*
X196247863Y-103136162D01*
X196435241Y-103236317D01*
X196494400Y-103254263D01*
X196494400Y-103741544D01*
X196492681Y-103759000D01*
X196494400Y-103776455D01*
X196494400Y-103776462D01*
X196499546Y-103828709D01*
X196519879Y-103895739D01*
X196552899Y-103957515D01*
X196597337Y-104011662D01*
X196610901Y-104022794D01*
X197007505Y-104419400D01*
X196997295Y-104419400D01*
X195282175Y-102704281D01*
X195311317Y-102649759D01*
X195372993Y-102446442D01*
X195393818Y-102235000D01*
X195372993Y-102023558D01*
X195311317Y-101820241D01*
X195211162Y-101632863D01*
X195076375Y-101468625D01*
X194912137Y-101333838D01*
X194724759Y-101233683D01*
X194521442Y-101172007D01*
X194362980Y-101156400D01*
X194257020Y-101156400D01*
X194098558Y-101172007D01*
X193895241Y-101233683D01*
X193707863Y-101333838D01*
X193543625Y-101468625D01*
X193408838Y-101632863D01*
X193308683Y-101820241D01*
X193247007Y-102023558D01*
X193226182Y-102235000D01*
X193247007Y-102446442D01*
X193308683Y-102649759D01*
X193408838Y-102837137D01*
X193543625Y-103001375D01*
X193707863Y-103136162D01*
X193895241Y-103236317D01*
X194098558Y-103297993D01*
X194257020Y-103313600D01*
X194362980Y-103313600D01*
X194521442Y-103297993D01*
X194724759Y-103236317D01*
X194779281Y-103207175D01*
X196586210Y-105014105D01*
X196597337Y-105027663D01*
X196610895Y-105038790D01*
X196610900Y-105038795D01*
X196645078Y-105066844D01*
X196651484Y-105072101D01*
X196713260Y-105105121D01*
X196780290Y-105125454D01*
X196832537Y-105130600D01*
X196832546Y-105130600D01*
X196849999Y-105132319D01*
X196867452Y-105130600D01*
X205719707Y-105130600D01*
X211226401Y-110637295D01*
X211226400Y-116695545D01*
X211224681Y-116713000D01*
X211226400Y-116730455D01*
X211226400Y-116730462D01*
X211230867Y-116775812D01*
X211231546Y-116782710D01*
X211234043Y-116790941D01*
X211251879Y-116849739D01*
X211284899Y-116911515D01*
X211329337Y-116965662D01*
X211342901Y-116976795D01*
X212115401Y-117749295D01*
X212115400Y-118226593D01*
X212070291Y-118256734D01*
X211982734Y-118344291D01*
X211913941Y-118447246D01*
X211866556Y-118561644D01*
X211842400Y-118683088D01*
X211842400Y-118806912D01*
X211852984Y-118860123D01*
X211541198Y-119171909D01*
X211504059Y-119082246D01*
X211435266Y-118979291D01*
X211347709Y-118891734D01*
X211244754Y-118822941D01*
X211130356Y-118775556D01*
X211008912Y-118751400D01*
X210885088Y-118751400D01*
X210763644Y-118775556D01*
X210649246Y-118822941D01*
X210546291Y-118891734D01*
X210458734Y-118979291D01*
X210428593Y-119024400D01*
X209570295Y-119024400D01*
X208416799Y-117870906D01*
X208416795Y-117870901D01*
X207400799Y-116854906D01*
X207389663Y-116841337D01*
X207335516Y-116796899D01*
X207273740Y-116763879D01*
X207206710Y-116743546D01*
X207154463Y-116738400D01*
X207154455Y-116738400D01*
X207137000Y-116736681D01*
X207119545Y-116738400D01*
X206392452Y-116738400D01*
X206374999Y-116736681D01*
X206357546Y-116738400D01*
X206357537Y-116738400D01*
X206305290Y-116743546D01*
X206238260Y-116763879D01*
X206176484Y-116796899D01*
X206176482Y-116796900D01*
X206176483Y-116796900D01*
X206135900Y-116830205D01*
X206135895Y-116830210D01*
X206122337Y-116841337D01*
X206111210Y-116854895D01*
X205754901Y-117211206D01*
X205741338Y-117222337D01*
X205696900Y-117276484D01*
X205681712Y-117304899D01*
X205663880Y-117338259D01*
X205643546Y-117405290D01*
X205636681Y-117475000D01*
X205638401Y-117492465D01*
X205638400Y-120228777D01*
X205638401Y-120228787D01*
X205638401Y-120258592D01*
X205593291Y-120288734D01*
X205505734Y-120376291D01*
X205436941Y-120479246D01*
X205389556Y-120593644D01*
X205365400Y-120715088D01*
X205365400Y-120838912D01*
X205389556Y-120960356D01*
X205436941Y-121074754D01*
X205505734Y-121177709D01*
X205593291Y-121265266D01*
X205696246Y-121334059D01*
X205810644Y-121381444D01*
X205932088Y-121405600D01*
X206055912Y-121405600D01*
X206177356Y-121381444D01*
X206291754Y-121334059D01*
X206394709Y-121265266D01*
X206482266Y-121177709D01*
X206551059Y-121074754D01*
X206598444Y-120960356D01*
X206622600Y-120838912D01*
X206622600Y-120715088D01*
X206603582Y-120619476D01*
X206654400Y-120670294D01*
X206654401Y-121648535D01*
X206652681Y-121666000D01*
X206659546Y-121735710D01*
X206679880Y-121802741D01*
X206679881Y-121802742D01*
X206712900Y-121864516D01*
X206757338Y-121918663D01*
X206770901Y-121929794D01*
X207508204Y-122667098D01*
X207519337Y-122680663D01*
X207573484Y-122725101D01*
X207635260Y-122758121D01*
X207702290Y-122778454D01*
X207754537Y-122783600D01*
X207754545Y-122783600D01*
X207772000Y-122785319D01*
X207789455Y-122783600D01*
X208351198Y-122783600D01*
X208351198Y-122857146D01*
X208316370Y-122909544D01*
X208266234Y-123031417D01*
X208240838Y-123160729D01*
X208296172Y-123266200D01*
X208561200Y-123266200D01*
X208561200Y-123246200D01*
X209258800Y-123246200D01*
X209258800Y-123266200D01*
X209523828Y-123266200D01*
X209544924Y-123225989D01*
X211145039Y-124826105D01*
X211156166Y-124839663D01*
X211169724Y-124850790D01*
X211169729Y-124850795D01*
X211196829Y-124873035D01*
X211210313Y-124884101D01*
X211272089Y-124917121D01*
X211292746Y-124923387D01*
X211339118Y-124937454D01*
X211346016Y-124938133D01*
X211391366Y-124942600D01*
X211391373Y-124942600D01*
X211408828Y-124944319D01*
X211426284Y-124942600D01*
X212054299Y-124942600D01*
X212122882Y-125011183D01*
X212153288Y-125031500D01*
X209468802Y-125031500D01*
X209468802Y-124792854D01*
X209503630Y-124740456D01*
X209553766Y-124618583D01*
X209579162Y-124489271D01*
X209523828Y-124383800D01*
X209258800Y-124383800D01*
X209258800Y-124403800D01*
X208561200Y-124403800D01*
X208561200Y-124383800D01*
X208296172Y-124383800D01*
X208240838Y-124489271D01*
X208266234Y-124618583D01*
X208316370Y-124740456D01*
X208351198Y-124792854D01*
X208351198Y-125031500D01*
X179840890Y-125031500D01*
X179875754Y-125017059D01*
X179978709Y-124948266D01*
X180066266Y-124860709D01*
X180135059Y-124757754D01*
X180182444Y-124643356D01*
X180206600Y-124521912D01*
X180206600Y-124424097D01*
X180234097Y-124396600D01*
X189750625Y-124396600D01*
X189819791Y-124465766D01*
X189922746Y-124534559D01*
X190037144Y-124581944D01*
X190158588Y-124606100D01*
X190282412Y-124606100D01*
X190403856Y-124581944D01*
X190518254Y-124534559D01*
X190621209Y-124465766D01*
X190690375Y-124396600D01*
X191655625Y-124396600D01*
X191724791Y-124465766D01*
X191827746Y-124534559D01*
X191942144Y-124581944D01*
X192063588Y-124606100D01*
X192187412Y-124606100D01*
X192308856Y-124581944D01*
X192423254Y-124534559D01*
X192526209Y-124465766D01*
X192595375Y-124396600D01*
X193560625Y-124396600D01*
X193629791Y-124465766D01*
X193732746Y-124534559D01*
X193847144Y-124581944D01*
X193968588Y-124606100D01*
X194092412Y-124606100D01*
X194213856Y-124581944D01*
X194328254Y-124534559D01*
X194431209Y-124465766D01*
X194500375Y-124396600D01*
X195465625Y-124396600D01*
X195534791Y-124465766D01*
X195637746Y-124534559D01*
X195752144Y-124581944D01*
X195873588Y-124606100D01*
X195997412Y-124606100D01*
X196118856Y-124581944D01*
X196233254Y-124534559D01*
X196336209Y-124465766D01*
X196423766Y-124378209D01*
X196492559Y-124275254D01*
X196539944Y-124160856D01*
X196564100Y-124039412D01*
X196564100Y-123915588D01*
X196539944Y-123794144D01*
X196492559Y-123679746D01*
X196423766Y-123576791D01*
X196336209Y-123489234D01*
X196233254Y-123420441D01*
X196118856Y-123373056D01*
X195997412Y-123348900D01*
X195873588Y-123348900D01*
X195752144Y-123373056D01*
X195637746Y-123420441D01*
X195534791Y-123489234D01*
X195465625Y-123558400D01*
X194500375Y-123558400D01*
X194431209Y-123489234D01*
X194328254Y-123420441D01*
X194213856Y-123373056D01*
X194092412Y-123348900D01*
X193968588Y-123348900D01*
X193847144Y-123373056D01*
X193732746Y-123420441D01*
X193629791Y-123489234D01*
X193560625Y-123558400D01*
X192595375Y-123558400D01*
X192526209Y-123489234D01*
X192423254Y-123420441D01*
X192308856Y-123373056D01*
X192187412Y-123348900D01*
X192063588Y-123348900D01*
X191942144Y-123373056D01*
X191827746Y-123420441D01*
X191724791Y-123489234D01*
X191655625Y-123558400D01*
X190690375Y-123558400D01*
X190621209Y-123489234D01*
X190518254Y-123420441D01*
X190403856Y-123373056D01*
X190282412Y-123348900D01*
X190158588Y-123348900D01*
X190037144Y-123373056D01*
X189922746Y-123420441D01*
X189819791Y-123489234D01*
X189750625Y-123558400D01*
X180081079Y-123558400D01*
X180060499Y-123556373D01*
X180039919Y-123558400D01*
X174366079Y-123558400D01*
X174345499Y-123556373D01*
X174324919Y-123558400D01*
X168651079Y-123558400D01*
X168630499Y-123556373D01*
X168609919Y-123558400D01*
X162936079Y-123558400D01*
X162915499Y-123556373D01*
X162894919Y-123558400D01*
X157221079Y-123558400D01*
X157200499Y-123556373D01*
X157118342Y-123564465D01*
X157039342Y-123588429D01*
X156966534Y-123627346D01*
X156902718Y-123679718D01*
X156889597Y-123695706D01*
X156753903Y-123831400D01*
X156656088Y-123831400D01*
X156534644Y-123855556D01*
X156420246Y-123902941D01*
X156317291Y-123971734D01*
X156229734Y-124059291D01*
X156160941Y-124162246D01*
X156113556Y-124276644D01*
X156089400Y-124398088D01*
X156089400Y-124521912D01*
X156113556Y-124643356D01*
X156113679Y-124643652D01*
X156109500Y-124638601D01*
X156027149Y-124486297D01*
X155975947Y-124320889D01*
X155956000Y-124131103D01*
X155956000Y-121798993D01*
X184826400Y-121798993D01*
X184826400Y-122041007D01*
X184873614Y-122278369D01*
X184966229Y-122501960D01*
X185100684Y-122703187D01*
X185271813Y-122874316D01*
X185473040Y-123008771D01*
X185696631Y-123101386D01*
X185933993Y-123148600D01*
X186176007Y-123148600D01*
X186413369Y-123101386D01*
X186636960Y-123008771D01*
X186838187Y-122874316D01*
X187009316Y-122703187D01*
X187143771Y-122501960D01*
X187236386Y-122278369D01*
X187283600Y-122041007D01*
X187283600Y-121798993D01*
X187236386Y-121561631D01*
X187143771Y-121338040D01*
X187009316Y-121136813D01*
X186838187Y-120965684D01*
X186636960Y-120831229D01*
X186413369Y-120738614D01*
X186176007Y-120691400D01*
X185933993Y-120691400D01*
X185696631Y-120738614D01*
X185473040Y-120831229D01*
X185271813Y-120965684D01*
X185100684Y-121136813D01*
X184966229Y-121338040D01*
X184873614Y-121561631D01*
X184826400Y-121798993D01*
X155956000Y-121798993D01*
X155956000Y-119953088D01*
X156216400Y-119953088D01*
X156216400Y-120076912D01*
X156240556Y-120198356D01*
X156287941Y-120312754D01*
X156356734Y-120415709D01*
X156444291Y-120503266D01*
X156547246Y-120572059D01*
X156661644Y-120619444D01*
X156783088Y-120643600D01*
X156906912Y-120643600D01*
X157028356Y-120619444D01*
X157142754Y-120572059D01*
X157245709Y-120503266D01*
X157333266Y-120415709D01*
X157402059Y-120312754D01*
X157449444Y-120198356D01*
X157473600Y-120076912D01*
X157473600Y-119953088D01*
X157462547Y-119897519D01*
X157626466Y-119733600D01*
X172708256Y-119733600D01*
X172739734Y-119780709D01*
X172827291Y-119868266D01*
X172930246Y-119937059D01*
X173044644Y-119984444D01*
X173166088Y-120008600D01*
X173289912Y-120008600D01*
X173411356Y-119984444D01*
X173525754Y-119937059D01*
X173628709Y-119868266D01*
X173716266Y-119780709D01*
X173785059Y-119677754D01*
X173832444Y-119563356D01*
X173856600Y-119441912D01*
X173856600Y-119318088D01*
X173832444Y-119196644D01*
X173830143Y-119191088D01*
X191141400Y-119191088D01*
X191141400Y-119314912D01*
X191165556Y-119436356D01*
X191212941Y-119550754D01*
X191281734Y-119653709D01*
X191369291Y-119741266D01*
X191472246Y-119810059D01*
X191586644Y-119857444D01*
X191708088Y-119881600D01*
X191831912Y-119881600D01*
X191885123Y-119871016D01*
X192268204Y-120254098D01*
X192279337Y-120267663D01*
X192292900Y-120278794D01*
X192292901Y-120278795D01*
X192302726Y-120286858D01*
X192333484Y-120312101D01*
X192395260Y-120345121D01*
X192462290Y-120365454D01*
X192514537Y-120370600D01*
X192514545Y-120370600D01*
X192532000Y-120372319D01*
X192549455Y-120370600D01*
X196956706Y-120370600D01*
X197002400Y-120416294D01*
X197002401Y-121521535D01*
X197000681Y-121539000D01*
X197007546Y-121608710D01*
X197027880Y-121675741D01*
X197030638Y-121680900D01*
X197060900Y-121737516D01*
X197105338Y-121791663D01*
X197118901Y-121802794D01*
X197501984Y-122185877D01*
X197491400Y-122239088D01*
X197491400Y-122362912D01*
X197515556Y-122484356D01*
X197562941Y-122598754D01*
X197631734Y-122701709D01*
X197719291Y-122789266D01*
X197822246Y-122858059D01*
X197936644Y-122905444D01*
X198058088Y-122929600D01*
X198181912Y-122929600D01*
X198303356Y-122905444D01*
X198417754Y-122858059D01*
X198520709Y-122789266D01*
X198608266Y-122701709D01*
X198677059Y-122598754D01*
X198724444Y-122484356D01*
X198748600Y-122362912D01*
X198748600Y-122239088D01*
X198724444Y-122117644D01*
X198677059Y-122003246D01*
X198608266Y-121900291D01*
X198520709Y-121812734D01*
X198417754Y-121743941D01*
X198303356Y-121696556D01*
X198181912Y-121672400D01*
X198058088Y-121672400D01*
X198004877Y-121682984D01*
X197713600Y-121391707D01*
X197713600Y-121005565D01*
X197719291Y-121011256D01*
X197822246Y-121080049D01*
X197936644Y-121127434D01*
X198058088Y-121151590D01*
X198181912Y-121151590D01*
X198303356Y-121127434D01*
X198417754Y-121080049D01*
X198520709Y-121011256D01*
X198608266Y-120923699D01*
X198677059Y-120820744D01*
X198724444Y-120706346D01*
X198748600Y-120584902D01*
X198748600Y-120461078D01*
X198738016Y-120407867D01*
X199288400Y-119857484D01*
X199288400Y-120004593D01*
X199243291Y-120034734D01*
X199155734Y-120122291D01*
X199086941Y-120225246D01*
X199039556Y-120339644D01*
X199015400Y-120461088D01*
X199015400Y-120584912D01*
X199039556Y-120706356D01*
X199086941Y-120820754D01*
X199155734Y-120923709D01*
X199243291Y-121011266D01*
X199346246Y-121080059D01*
X199460644Y-121127444D01*
X199582088Y-121151600D01*
X199705912Y-121151600D01*
X199827356Y-121127444D01*
X199941754Y-121080059D01*
X200044709Y-121011266D01*
X200132266Y-120923709D01*
X200152000Y-120894175D01*
X200171734Y-120923709D01*
X200259291Y-121011266D01*
X200362246Y-121080059D01*
X200476644Y-121127444D01*
X200598088Y-121151600D01*
X200721912Y-121151600D01*
X200843356Y-121127444D01*
X200957754Y-121080059D01*
X201060709Y-121011266D01*
X201148266Y-120923709D01*
X201217059Y-120820754D01*
X201264444Y-120706356D01*
X201288600Y-120584912D01*
X201288600Y-120461088D01*
X201264444Y-120339644D01*
X201217059Y-120225246D01*
X201148266Y-120122291D01*
X201060709Y-120034734D01*
X201015600Y-120004593D01*
X201015600Y-119778452D01*
X201017319Y-119760999D01*
X201015600Y-119743546D01*
X201015600Y-119743537D01*
X201010454Y-119691290D01*
X200990121Y-119624260D01*
X200985994Y-119616538D01*
X200982580Y-119610151D01*
X200957101Y-119562484D01*
X200947474Y-119550754D01*
X200923795Y-119521900D01*
X200923790Y-119521895D01*
X200912663Y-119508337D01*
X200899104Y-119497210D01*
X200761600Y-119359706D01*
X200761600Y-113431294D01*
X200939400Y-113253494D01*
X200939400Y-114663544D01*
X200937681Y-114681000D01*
X200939400Y-114698455D01*
X200939400Y-114698462D01*
X200943867Y-114743812D01*
X200944546Y-114750710D01*
X200948652Y-114764246D01*
X200964879Y-114817739D01*
X200997899Y-114879515D01*
X201042337Y-114933662D01*
X201055901Y-114944794D01*
X201412210Y-115301105D01*
X201423337Y-115314663D01*
X201436895Y-115325790D01*
X201436900Y-115325795D01*
X201471078Y-115353844D01*
X201477484Y-115359101D01*
X201539260Y-115392121D01*
X201606290Y-115412454D01*
X201658537Y-115417600D01*
X201658546Y-115417600D01*
X201675999Y-115419319D01*
X201693452Y-115417600D01*
X201792593Y-115417600D01*
X201822734Y-115462709D01*
X201910291Y-115550266D01*
X202013246Y-115619059D01*
X202127644Y-115666444D01*
X202249088Y-115690600D01*
X202372912Y-115690600D01*
X202494356Y-115666444D01*
X202608754Y-115619059D01*
X202711709Y-115550266D01*
X202799266Y-115462709D01*
X202868059Y-115359754D01*
X202915444Y-115245356D01*
X202939600Y-115123912D01*
X202939600Y-115000088D01*
X202915444Y-114878644D01*
X202868059Y-114764246D01*
X202799266Y-114661291D01*
X202711709Y-114573734D01*
X202608754Y-114504941D01*
X202494356Y-114457556D01*
X202372912Y-114433400D01*
X202249088Y-114433400D01*
X202127644Y-114457556D01*
X202013246Y-114504941D01*
X201910291Y-114573734D01*
X201822734Y-114661291D01*
X201804890Y-114687996D01*
X201650600Y-114533706D01*
X201650600Y-114178993D01*
X205781400Y-114178993D01*
X205781400Y-114421007D01*
X205828614Y-114658369D01*
X205921229Y-114881960D01*
X206055684Y-115083187D01*
X206226813Y-115254316D01*
X206428040Y-115388771D01*
X206651631Y-115481386D01*
X206888993Y-115528600D01*
X207131007Y-115528600D01*
X207368369Y-115481386D01*
X207591960Y-115388771D01*
X207793187Y-115254316D01*
X207964316Y-115083187D01*
X208098771Y-114881960D01*
X208191386Y-114658369D01*
X208238600Y-114421007D01*
X208238600Y-114178993D01*
X208191386Y-113941631D01*
X208098771Y-113718040D01*
X207964316Y-113516813D01*
X207793187Y-113345684D01*
X207591960Y-113211229D01*
X207368369Y-113118614D01*
X207131007Y-113071400D01*
X206888993Y-113071400D01*
X206651631Y-113118614D01*
X206428040Y-113211229D01*
X206226813Y-113345684D01*
X206055684Y-113516813D01*
X205921229Y-113718040D01*
X205828614Y-113941631D01*
X205781400Y-114178993D01*
X201650600Y-114178993D01*
X201650600Y-111396455D01*
X201652319Y-111379000D01*
X201650600Y-111361544D01*
X201650600Y-111361537D01*
X201645454Y-111309290D01*
X201641425Y-111296006D01*
X201637236Y-111282198D01*
X201625121Y-111242260D01*
X201592101Y-111180484D01*
X201547663Y-111126337D01*
X201534100Y-111115206D01*
X201024016Y-110605123D01*
X201034600Y-110551912D01*
X201034600Y-110428088D01*
X201010444Y-110306644D01*
X200963059Y-110192246D01*
X200894266Y-110089291D01*
X200806709Y-110001734D01*
X200703754Y-109932941D01*
X200589356Y-109885556D01*
X200467912Y-109861400D01*
X200344088Y-109861400D01*
X200222644Y-109885556D01*
X200108246Y-109932941D01*
X200005291Y-110001734D01*
X199917734Y-110089291D01*
X199848941Y-110192246D01*
X199801556Y-110306644D01*
X199777400Y-110428088D01*
X199777400Y-110551912D01*
X199801556Y-110673356D01*
X199841339Y-110769400D01*
X199273407Y-110769400D01*
X199243266Y-110724291D01*
X199155709Y-110636734D01*
X199052754Y-110567941D01*
X198938356Y-110520556D01*
X198816912Y-110496400D01*
X198693088Y-110496400D01*
X198571644Y-110520556D01*
X198457246Y-110567941D01*
X198354291Y-110636734D01*
X198266734Y-110724291D01*
X198197941Y-110827246D01*
X198150556Y-110941644D01*
X198126400Y-111063088D01*
X198126400Y-111186912D01*
X198150556Y-111308356D01*
X198197941Y-111422754D01*
X198266734Y-111525709D01*
X198354291Y-111613266D01*
X198457246Y-111682059D01*
X198571644Y-111729444D01*
X198693088Y-111753600D01*
X198816912Y-111753600D01*
X198938356Y-111729444D01*
X199052754Y-111682059D01*
X199155709Y-111613266D01*
X199243266Y-111525709D01*
X199273407Y-111480600D01*
X199750707Y-111480600D01*
X200055524Y-111785418D01*
X199959912Y-111766400D01*
X199836088Y-111766400D01*
X199714644Y-111790556D01*
X199600246Y-111837941D01*
X199497291Y-111906734D01*
X199409734Y-111994291D01*
X199340941Y-112097246D01*
X199326500Y-112132110D01*
X199312059Y-112097246D01*
X199243266Y-111994291D01*
X199155709Y-111906734D01*
X199052754Y-111837941D01*
X198938356Y-111790556D01*
X198816912Y-111766400D01*
X198693088Y-111766400D01*
X198571644Y-111790556D01*
X198457246Y-111837941D01*
X198354291Y-111906734D01*
X198266734Y-111994291D01*
X198197941Y-112097246D01*
X198150556Y-112211644D01*
X198126400Y-112333088D01*
X198126400Y-112456912D01*
X198150556Y-112578356D01*
X198197941Y-112692754D01*
X198266734Y-112795709D01*
X198354291Y-112883266D01*
X198399401Y-112913408D01*
X198399401Y-112943220D01*
X198397681Y-112960685D01*
X198404546Y-113030395D01*
X198424880Y-113097426D01*
X198436206Y-113118614D01*
X198457900Y-113159201D01*
X198502338Y-113213348D01*
X198515901Y-113224479D01*
X199034400Y-113742979D01*
X199034401Y-117759507D01*
X198738016Y-117463123D01*
X198748600Y-117409912D01*
X198748600Y-117286088D01*
X198724444Y-117164644D01*
X198677059Y-117050246D01*
X198608266Y-116947291D01*
X198520709Y-116859734D01*
X198417754Y-116790941D01*
X198303356Y-116743556D01*
X198181912Y-116719400D01*
X198058088Y-116719400D01*
X197958555Y-116739198D01*
X198031386Y-116563369D01*
X198078600Y-116326007D01*
X198078600Y-116083993D01*
X198031386Y-115846631D01*
X197938771Y-115623040D01*
X197804316Y-115421813D01*
X197633187Y-115250684D01*
X197431960Y-115116229D01*
X197208369Y-115023614D01*
X196971007Y-114976400D01*
X196728993Y-114976400D01*
X196491631Y-115023614D01*
X196268040Y-115116229D01*
X196066813Y-115250684D01*
X195895684Y-115421813D01*
X195761229Y-115623040D01*
X195668614Y-115846631D01*
X195621400Y-116083993D01*
X195621400Y-116326007D01*
X195668614Y-116563369D01*
X195761229Y-116786960D01*
X195895684Y-116988187D01*
X196066813Y-117159316D01*
X196268040Y-117293771D01*
X196491631Y-117386386D01*
X196728993Y-117433600D01*
X196971007Y-117433600D01*
X197208369Y-117386386D01*
X197431960Y-117293771D01*
X197498748Y-117249145D01*
X197491400Y-117286088D01*
X197491400Y-117409912D01*
X197515556Y-117531356D01*
X197562941Y-117645754D01*
X197631734Y-117748709D01*
X197719291Y-117836266D01*
X197822246Y-117905059D01*
X197857110Y-117919500D01*
X197822246Y-117933941D01*
X197719291Y-118002734D01*
X197631734Y-118090291D01*
X197601593Y-118135400D01*
X194454455Y-118135400D01*
X194437000Y-118133681D01*
X194419545Y-118135400D01*
X194419537Y-118135400D01*
X194367290Y-118140546D01*
X194300260Y-118160879D01*
X194238484Y-118193899D01*
X194184337Y-118238337D01*
X194173206Y-118251900D01*
X193790123Y-118634984D01*
X193736912Y-118624400D01*
X193613088Y-118624400D01*
X193491644Y-118648556D01*
X193377246Y-118695941D01*
X193274291Y-118764734D01*
X193186734Y-118852291D01*
X193117941Y-118955246D01*
X193070556Y-119069644D01*
X193046400Y-119191088D01*
X193046400Y-119314912D01*
X193070556Y-119436356D01*
X193117941Y-119550754D01*
X193186734Y-119653709D01*
X193192425Y-119659400D01*
X192679294Y-119659400D01*
X192388016Y-119368123D01*
X192398600Y-119314912D01*
X192398600Y-119191088D01*
X192374444Y-119069644D01*
X192327059Y-118955246D01*
X192258266Y-118852291D01*
X192170709Y-118764734D01*
X192067754Y-118695941D01*
X191953356Y-118648556D01*
X191831912Y-118624400D01*
X191708088Y-118624400D01*
X191586644Y-118648556D01*
X191472246Y-118695941D01*
X191369291Y-118764734D01*
X191281734Y-118852291D01*
X191212941Y-118955246D01*
X191165556Y-119069644D01*
X191141400Y-119191088D01*
X173830143Y-119191088D01*
X173785059Y-119082246D01*
X173716266Y-118979291D01*
X173628709Y-118891734D01*
X173525754Y-118822941D01*
X173411356Y-118775556D01*
X173289912Y-118751400D01*
X173166088Y-118751400D01*
X173044644Y-118775556D01*
X172930246Y-118822941D01*
X172827291Y-118891734D01*
X172739734Y-118979291D01*
X172708256Y-119026400D01*
X157497362Y-119026400D01*
X157480000Y-119024690D01*
X157462638Y-119026400D01*
X157410682Y-119031517D01*
X157344029Y-119051736D01*
X157324517Y-119062166D01*
X157282600Y-119084570D01*
X157243642Y-119116543D01*
X157228758Y-119128758D01*
X157217692Y-119142242D01*
X156962481Y-119397453D01*
X156906912Y-119386400D01*
X156783088Y-119386400D01*
X156661644Y-119410556D01*
X156547246Y-119457941D01*
X156444291Y-119526734D01*
X156356734Y-119614291D01*
X156287941Y-119717246D01*
X156240556Y-119831644D01*
X156216400Y-119953088D01*
X155956000Y-119953088D01*
X155956000Y-116083993D01*
X188001400Y-116083993D01*
X188001400Y-116326007D01*
X188048614Y-116563369D01*
X188141229Y-116786960D01*
X188275684Y-116988187D01*
X188446813Y-117159316D01*
X188648040Y-117293771D01*
X188871631Y-117386386D01*
X189108993Y-117433600D01*
X189351007Y-117433600D01*
X189588369Y-117386386D01*
X189811960Y-117293771D01*
X190013187Y-117159316D01*
X190184316Y-116988187D01*
X190318771Y-116786960D01*
X190411386Y-116563369D01*
X190458600Y-116326007D01*
X190458600Y-116083993D01*
X191811400Y-116083993D01*
X191811400Y-116326007D01*
X191858614Y-116563369D01*
X191951229Y-116786960D01*
X192085684Y-116988187D01*
X192256813Y-117159316D01*
X192458040Y-117293771D01*
X192681631Y-117386386D01*
X192918993Y-117433600D01*
X193161007Y-117433600D01*
X193398369Y-117386386D01*
X193621960Y-117293771D01*
X193823187Y-117159316D01*
X193994316Y-116988187D01*
X194128771Y-116786960D01*
X194221386Y-116563369D01*
X194268600Y-116326007D01*
X194268600Y-116083993D01*
X194221386Y-115846631D01*
X194128771Y-115623040D01*
X193994316Y-115421813D01*
X193823187Y-115250684D01*
X193621960Y-115116229D01*
X193398369Y-115023614D01*
X193161007Y-114976400D01*
X192918993Y-114976400D01*
X192681631Y-115023614D01*
X192458040Y-115116229D01*
X192256813Y-115250684D01*
X192085684Y-115421813D01*
X191951229Y-115623040D01*
X191858614Y-115846631D01*
X191811400Y-116083993D01*
X190458600Y-116083993D01*
X190411386Y-115846631D01*
X190318771Y-115623040D01*
X190184316Y-115421813D01*
X190013187Y-115250684D01*
X189811960Y-115116229D01*
X189588369Y-115023614D01*
X189351007Y-114976400D01*
X189108993Y-114976400D01*
X188871631Y-115023614D01*
X188648040Y-115116229D01*
X188446813Y-115250684D01*
X188275684Y-115421813D01*
X188141229Y-115623040D01*
X188048614Y-115846631D01*
X188001400Y-116083993D01*
X155956000Y-116083993D01*
X155956000Y-112968088D01*
X186315400Y-112968088D01*
X186315400Y-113091912D01*
X186339556Y-113213356D01*
X186386941Y-113327754D01*
X186397900Y-113344156D01*
X186397900Y-114620845D01*
X186386941Y-114637246D01*
X186339556Y-114751644D01*
X186315400Y-114873088D01*
X186315400Y-114996912D01*
X186339556Y-115118356D01*
X186386941Y-115232754D01*
X186455734Y-115335709D01*
X186543291Y-115423266D01*
X186646246Y-115492059D01*
X186760644Y-115539444D01*
X186882088Y-115563600D01*
X187005912Y-115563600D01*
X187127356Y-115539444D01*
X187241754Y-115492059D01*
X187344709Y-115423266D01*
X187432266Y-115335709D01*
X187501059Y-115232754D01*
X187548444Y-115118356D01*
X187572600Y-114996912D01*
X187572600Y-114873088D01*
X187548444Y-114751644D01*
X187501059Y-114637246D01*
X187490100Y-114620845D01*
X187490100Y-113344155D01*
X187501059Y-113327754D01*
X187548444Y-113213356D01*
X187572600Y-113091912D01*
X187572600Y-112968088D01*
X187560846Y-112908993D01*
X189906400Y-112908993D01*
X189906400Y-113151007D01*
X189953614Y-113388369D01*
X190046229Y-113611960D01*
X190180684Y-113813187D01*
X190351813Y-113984316D01*
X190553040Y-114118771D01*
X190776631Y-114211386D01*
X191013993Y-114258600D01*
X191256007Y-114258600D01*
X191493369Y-114211386D01*
X191716960Y-114118771D01*
X191918187Y-113984316D01*
X192089316Y-113813187D01*
X192223771Y-113611960D01*
X192316386Y-113388369D01*
X192363600Y-113151007D01*
X192363600Y-112908993D01*
X193716400Y-112908993D01*
X193716400Y-113151007D01*
X193763614Y-113388369D01*
X193856229Y-113611960D01*
X193990684Y-113813187D01*
X194161813Y-113984316D01*
X194363040Y-114118771D01*
X194586631Y-114211386D01*
X194823993Y-114258600D01*
X195066007Y-114258600D01*
X195303369Y-114211386D01*
X195526960Y-114118771D01*
X195728187Y-113984316D01*
X195899316Y-113813187D01*
X196033771Y-113611960D01*
X196126386Y-113388369D01*
X196173600Y-113151007D01*
X196173600Y-112908993D01*
X196126386Y-112671631D01*
X196033771Y-112448040D01*
X195899316Y-112246813D01*
X195728187Y-112075684D01*
X195526960Y-111941229D01*
X195303369Y-111848614D01*
X195066007Y-111801400D01*
X194823993Y-111801400D01*
X194586631Y-111848614D01*
X194363040Y-111941229D01*
X194161813Y-112075684D01*
X193990684Y-112246813D01*
X193856229Y-112448040D01*
X193763614Y-112671631D01*
X193716400Y-112908993D01*
X192363600Y-112908993D01*
X192316386Y-112671631D01*
X192223771Y-112448040D01*
X192089316Y-112246813D01*
X191918187Y-112075684D01*
X191716960Y-111941229D01*
X191493369Y-111848614D01*
X191256007Y-111801400D01*
X191013993Y-111801400D01*
X190776631Y-111848614D01*
X190553040Y-111941229D01*
X190351813Y-112075684D01*
X190180684Y-112246813D01*
X190046229Y-112448040D01*
X189953614Y-112671631D01*
X189906400Y-112908993D01*
X187560846Y-112908993D01*
X187548444Y-112846644D01*
X187501059Y-112732246D01*
X187490100Y-112715845D01*
X187490100Y-111732201D01*
X188073184Y-111149118D01*
X188094019Y-111132019D01*
X188162262Y-111048865D01*
X188212972Y-110953994D01*
X188244198Y-110851054D01*
X188252100Y-110770824D01*
X188252100Y-110770817D01*
X188254741Y-110744000D01*
X188252100Y-110717183D01*
X188252100Y-110042155D01*
X188263059Y-110025754D01*
X188310444Y-109911356D01*
X188333968Y-109793088D01*
X188728400Y-109793088D01*
X188728400Y-109916912D01*
X188752556Y-110038356D01*
X188799941Y-110152754D01*
X188868734Y-110255709D01*
X188956291Y-110343266D01*
X189001400Y-110373407D01*
X189001401Y-111241648D01*
X188956291Y-111271790D01*
X188868734Y-111359347D01*
X188799941Y-111462302D01*
X188752556Y-111576700D01*
X188728400Y-111698144D01*
X188728400Y-111821968D01*
X188752556Y-111943412D01*
X188799941Y-112057810D01*
X188868734Y-112160765D01*
X188956291Y-112248322D01*
X189059246Y-112317115D01*
X189173644Y-112364500D01*
X189295088Y-112388656D01*
X189418912Y-112388656D01*
X189540356Y-112364500D01*
X189654754Y-112317115D01*
X189757709Y-112248322D01*
X189845266Y-112160765D01*
X189914059Y-112057810D01*
X189961444Y-111943412D01*
X189985600Y-111821968D01*
X189985600Y-111698144D01*
X189961444Y-111576700D01*
X189914059Y-111462302D01*
X189845266Y-111359347D01*
X189757709Y-111271790D01*
X189712600Y-111241649D01*
X189712600Y-110373407D01*
X189757709Y-110343266D01*
X189845266Y-110255709D01*
X189914059Y-110152754D01*
X189961444Y-110038356D01*
X189985600Y-109916912D01*
X189985600Y-109793088D01*
X189961444Y-109671644D01*
X189914059Y-109557246D01*
X189845266Y-109454291D01*
X189757709Y-109366734D01*
X189654754Y-109297941D01*
X189540356Y-109250556D01*
X189418912Y-109226400D01*
X189295088Y-109226400D01*
X189173644Y-109250556D01*
X189059246Y-109297941D01*
X188956291Y-109366734D01*
X188868734Y-109454291D01*
X188799941Y-109557246D01*
X188752556Y-109671644D01*
X188728400Y-109793088D01*
X188333968Y-109793088D01*
X188334600Y-109789912D01*
X188334600Y-109666088D01*
X188310444Y-109544644D01*
X188263059Y-109430246D01*
X188252100Y-109413845D01*
X188252100Y-109153155D01*
X188263059Y-109136754D01*
X188310444Y-109022356D01*
X188334600Y-108900912D01*
X188334600Y-108777088D01*
X188310444Y-108655644D01*
X188263059Y-108541246D01*
X188194266Y-108438291D01*
X188106709Y-108350734D01*
X188003754Y-108281941D01*
X187889356Y-108234556D01*
X187767912Y-108210400D01*
X187644088Y-108210400D01*
X187522644Y-108234556D01*
X187408246Y-108281941D01*
X187305291Y-108350734D01*
X187217734Y-108438291D01*
X187148941Y-108541246D01*
X187101556Y-108655644D01*
X187077400Y-108777088D01*
X187077400Y-108900912D01*
X187101556Y-109022356D01*
X187148941Y-109136754D01*
X187159900Y-109153155D01*
X187159900Y-109413845D01*
X187148941Y-109430246D01*
X187101556Y-109544644D01*
X187077400Y-109666088D01*
X187077400Y-109789912D01*
X187101556Y-109911356D01*
X187148941Y-110025754D01*
X187159901Y-110042156D01*
X187159900Y-110517798D01*
X186576816Y-111100883D01*
X186555982Y-111117981D01*
X186538883Y-111138816D01*
X186538882Y-111138817D01*
X186487738Y-111201136D01*
X186437029Y-111296005D01*
X186405802Y-111398947D01*
X186395259Y-111506000D01*
X186397901Y-111532827D01*
X186397901Y-112715844D01*
X186386941Y-112732246D01*
X186339556Y-112846644D01*
X186315400Y-112968088D01*
X155956000Y-112968088D01*
X155956000Y-103841138D01*
X156023098Y-103156825D01*
X156044783Y-103085000D01*
X177990294Y-103085000D01*
X177994708Y-103129813D01*
X178007779Y-103172905D01*
X178029006Y-103212618D01*
X178057573Y-103247427D01*
X178092382Y-103275994D01*
X178132095Y-103297221D01*
X178175187Y-103310292D01*
X178220000Y-103314706D01*
X178454050Y-103313600D01*
X178511200Y-103256450D01*
X178511200Y-102793800D01*
X179628800Y-102793800D01*
X179628800Y-103256450D01*
X179685950Y-103313600D01*
X179920000Y-103314706D01*
X179964813Y-103310292D01*
X180007905Y-103297221D01*
X180047618Y-103275994D01*
X180082427Y-103247427D01*
X180110994Y-103212618D01*
X180132221Y-103172905D01*
X180145292Y-103129813D01*
X180149706Y-103085000D01*
X180148600Y-102850950D01*
X180091450Y-102793800D01*
X179628800Y-102793800D01*
X178511200Y-102793800D01*
X178048550Y-102793800D01*
X177991400Y-102850950D01*
X177990294Y-103085000D01*
X156044783Y-103085000D01*
X156216422Y-102516503D01*
X156366099Y-102235000D01*
X180526182Y-102235000D01*
X180547007Y-102446442D01*
X180608683Y-102649759D01*
X180708838Y-102837137D01*
X180843625Y-103001375D01*
X181007863Y-103136162D01*
X181195241Y-103236317D01*
X181398558Y-103297993D01*
X181557020Y-103313600D01*
X181662980Y-103313600D01*
X181821442Y-103297993D01*
X182024759Y-103236317D01*
X182212137Y-103136162D01*
X182376375Y-103001375D01*
X182511162Y-102837137D01*
X182611317Y-102649759D01*
X182672993Y-102446442D01*
X182693818Y-102235000D01*
X183066182Y-102235000D01*
X183087007Y-102446442D01*
X183148683Y-102649759D01*
X183248838Y-102837137D01*
X183383625Y-103001375D01*
X183547863Y-103136162D01*
X183735241Y-103236317D01*
X183938558Y-103297993D01*
X184097020Y-103313600D01*
X184202980Y-103313600D01*
X184361442Y-103297993D01*
X184564759Y-103236317D01*
X184752137Y-103136162D01*
X184916375Y-103001375D01*
X185051162Y-102837137D01*
X185151317Y-102649759D01*
X185212993Y-102446442D01*
X185233818Y-102235000D01*
X185606182Y-102235000D01*
X185627007Y-102446442D01*
X185688683Y-102649759D01*
X185788838Y-102837137D01*
X185923625Y-103001375D01*
X186087863Y-103136162D01*
X186275241Y-103236317D01*
X186478558Y-103297993D01*
X186637020Y-103313600D01*
X186742980Y-103313600D01*
X186901442Y-103297993D01*
X187104759Y-103236317D01*
X187292137Y-103136162D01*
X187456375Y-103001375D01*
X187591162Y-102837137D01*
X187691317Y-102649759D01*
X187752993Y-102446442D01*
X187773818Y-102235000D01*
X188146182Y-102235000D01*
X188167007Y-102446442D01*
X188228683Y-102649759D01*
X188328838Y-102837137D01*
X188463625Y-103001375D01*
X188627863Y-103136162D01*
X188815241Y-103236317D01*
X189018558Y-103297993D01*
X189177020Y-103313600D01*
X189282980Y-103313600D01*
X189441442Y-103297993D01*
X189644759Y-103236317D01*
X189832137Y-103136162D01*
X189996375Y-103001375D01*
X190131162Y-102837137D01*
X190231317Y-102649759D01*
X190292993Y-102446442D01*
X190313818Y-102235000D01*
X190292993Y-102023558D01*
X190231317Y-101820241D01*
X190131162Y-101632863D01*
X189996375Y-101468625D01*
X189832137Y-101333838D01*
X189644759Y-101233683D01*
X189441442Y-101172007D01*
X189282980Y-101156400D01*
X189177020Y-101156400D01*
X189018558Y-101172007D01*
X188815241Y-101233683D01*
X188627863Y-101333838D01*
X188463625Y-101468625D01*
X188328838Y-101632863D01*
X188228683Y-101820241D01*
X188167007Y-102023558D01*
X188146182Y-102235000D01*
X187773818Y-102235000D01*
X187752993Y-102023558D01*
X187691317Y-101820241D01*
X187591162Y-101632863D01*
X187456375Y-101468625D01*
X187292137Y-101333838D01*
X187104759Y-101233683D01*
X186901442Y-101172007D01*
X186742980Y-101156400D01*
X186637020Y-101156400D01*
X186478558Y-101172007D01*
X186275241Y-101233683D01*
X186087863Y-101333838D01*
X185923625Y-101468625D01*
X185788838Y-101632863D01*
X185688683Y-101820241D01*
X185627007Y-102023558D01*
X185606182Y-102235000D01*
X185233818Y-102235000D01*
X185212993Y-102023558D01*
X185151317Y-101820241D01*
X185051162Y-101632863D01*
X184916375Y-101468625D01*
X184752137Y-101333838D01*
X184564759Y-101233683D01*
X184361442Y-101172007D01*
X184202980Y-101156400D01*
X184097020Y-101156400D01*
X183938558Y-101172007D01*
X183735241Y-101233683D01*
X183547863Y-101333838D01*
X183383625Y-101468625D01*
X183248838Y-101632863D01*
X183148683Y-101820241D01*
X183087007Y-102023558D01*
X183066182Y-102235000D01*
X182693818Y-102235000D01*
X182672993Y-102023558D01*
X182611317Y-101820241D01*
X182511162Y-101632863D01*
X182376375Y-101468625D01*
X182212137Y-101333838D01*
X182024759Y-101233683D01*
X181821442Y-101172007D01*
X181662980Y-101156400D01*
X181557020Y-101156400D01*
X181398558Y-101172007D01*
X181195241Y-101233683D01*
X181007863Y-101333838D01*
X180843625Y-101468625D01*
X180708838Y-101632863D01*
X180608683Y-101820241D01*
X180547007Y-102023558D01*
X180526182Y-102235000D01*
X156366099Y-102235000D01*
X156530434Y-101925933D01*
X156953178Y-101407597D01*
X156980493Y-101385000D01*
X177990294Y-101385000D01*
X177991400Y-101619050D01*
X178048550Y-101676200D01*
X178511200Y-101676200D01*
X178511200Y-101213550D01*
X179628800Y-101213550D01*
X179628800Y-101676200D01*
X180091450Y-101676200D01*
X180148600Y-101619050D01*
X180149706Y-101385000D01*
X180145292Y-101340187D01*
X180132221Y-101297095D01*
X180110994Y-101257382D01*
X180082427Y-101222573D01*
X180047618Y-101194006D01*
X180007905Y-101172779D01*
X179964813Y-101159708D01*
X179920000Y-101155294D01*
X179685950Y-101156400D01*
X179628800Y-101213550D01*
X178511200Y-101213550D01*
X178454050Y-101156400D01*
X178220000Y-101155294D01*
X178175187Y-101159708D01*
X178132095Y-101172779D01*
X178092382Y-101194006D01*
X178057573Y-101222573D01*
X178029006Y-101257382D01*
X178007779Y-101297095D01*
X177994708Y-101340187D01*
X177990294Y-101385000D01*
X156980493Y-101385000D01*
X157468549Y-100981245D01*
X158056917Y-100663115D01*
X158695870Y-100465326D01*
X159379030Y-100393524D01*
X159385760Y-100393500D01*
X217786362Y-100393500D01*
X217977323Y-100412224D01*
X217977323Y-100412224D01*
G37*
X217977323Y-100412224D02*
X218143075Y-100462268D01*
X218295953Y-100543554D01*
X218430133Y-100652989D01*
X218540501Y-100786401D01*
X218622850Y-100938703D01*
X218674053Y-101104110D01*
X218694000Y-101293897D01*
X218694001Y-124123852D01*
X218675276Y-124314823D01*
X218625234Y-124480571D01*
X218543946Y-124633453D01*
X218434511Y-124767633D01*
X218368802Y-124821993D01*
X218368802Y-124792854D01*
X218403630Y-124740456D01*
X218453766Y-124618583D01*
X218479162Y-124489271D01*
X218423828Y-124383800D01*
X218158800Y-124383800D01*
X218158800Y-124403800D01*
X217461200Y-124403800D01*
X217461200Y-124383800D01*
X217196172Y-124383800D01*
X217140838Y-124489271D01*
X217166234Y-124618583D01*
X217216370Y-124740456D01*
X217251198Y-124792854D01*
X217251198Y-125031500D01*
X214566712Y-125031500D01*
X214597118Y-125011183D01*
X214673183Y-124935118D01*
X214732947Y-124845675D01*
X214774113Y-124746291D01*
X214795100Y-124640786D01*
X214795100Y-124533214D01*
X214774113Y-124427709D01*
X214732947Y-124328325D01*
X214673183Y-124238882D01*
X214605758Y-124171457D01*
X214604600Y-124159704D01*
X214604600Y-124159695D01*
X214599454Y-124107448D01*
X214579121Y-124040418D01*
X214546101Y-123978642D01*
X214501663Y-123924495D01*
X214488099Y-123913363D01*
X214287640Y-123712905D01*
X214276505Y-123699337D01*
X214222358Y-123654899D01*
X214160582Y-123621879D01*
X214093552Y-123601546D01*
X214041305Y-123596400D01*
X214041297Y-123596400D01*
X214023842Y-123594681D01*
X214006387Y-123596400D01*
X213652809Y-123596400D01*
X213830609Y-123418600D01*
X213832299Y-123418600D01*
X213900882Y-123487183D01*
X213990325Y-123546947D01*
X214089709Y-123588113D01*
X214195214Y-123609100D01*
X214302786Y-123609100D01*
X214408291Y-123588113D01*
X214507675Y-123546947D01*
X214597118Y-123487183D01*
X214673183Y-123411118D01*
X214732947Y-123321675D01*
X214774113Y-123222291D01*
X214786358Y-123160729D01*
X217140838Y-123160729D01*
X217196172Y-123266200D01*
X217461200Y-123266200D01*
X217461200Y-122741170D01*
X218158800Y-122741170D01*
X218158800Y-123266200D01*
X218423828Y-123266200D01*
X218479162Y-123160729D01*
X218453766Y-123031417D01*
X218403630Y-122909544D01*
X218330681Y-122799794D01*
X218240975Y-122733621D01*
X218158800Y-122741170D01*
X217461200Y-122741170D01*
X217379025Y-122733621D01*
X217289319Y-122799794D01*
X217216370Y-122909544D01*
X217166234Y-123031417D01*
X217140838Y-123160729D01*
X214786358Y-123160729D01*
X214795100Y-123116786D01*
X214795100Y-123009214D01*
X214774113Y-122903709D01*
X214732947Y-122804325D01*
X214673183Y-122714882D01*
X214597118Y-122638817D01*
X214507675Y-122579053D01*
X214408291Y-122537887D01*
X214302786Y-122516900D01*
X214195214Y-122516900D01*
X214089709Y-122537887D01*
X213990325Y-122579053D01*
X213900882Y-122638817D01*
X213832299Y-122707400D01*
X213710493Y-122707400D01*
X214488104Y-121929790D01*
X214501662Y-121918663D01*
X214512790Y-121905104D01*
X214512795Y-121905099D01*
X214528438Y-121886038D01*
X214546101Y-121864516D01*
X214579121Y-121802740D01*
X214596957Y-121743941D01*
X214599454Y-121735711D01*
X214600855Y-121721483D01*
X214604600Y-121683463D01*
X214604600Y-121683456D01*
X214606319Y-121666000D01*
X214604600Y-121648545D01*
X214604600Y-121281312D01*
X217198963Y-121281312D01*
X217241199Y-121397516D01*
X217305294Y-121503247D01*
X217379025Y-121616379D01*
X217461200Y-121608830D01*
X217461200Y-121183800D01*
X218158800Y-121183800D01*
X218158800Y-121608830D01*
X218240975Y-121616379D01*
X218314706Y-121503247D01*
X218378801Y-121397516D01*
X218421037Y-121281312D01*
X218380817Y-121183800D01*
X218158800Y-121183800D01*
X217461200Y-121183800D01*
X217239183Y-121183800D01*
X217198963Y-121281312D01*
X214604600Y-121281312D01*
X214604600Y-120701600D01*
X215552797Y-120701600D01*
X215555265Y-120702055D01*
X215587717Y-120701600D01*
X215602760Y-120701600D01*
X215605257Y-120701354D01*
X215607759Y-120701319D01*
X215622659Y-120699640D01*
X215655007Y-120696454D01*
X215657414Y-120695724D01*
X215680365Y-120693138D01*
X215702895Y-120692189D01*
X215732080Y-120685095D01*
X215761453Y-120678823D01*
X215782160Y-120669904D01*
X215822876Y-120655656D01*
X215844626Y-120649719D01*
X215871513Y-120636303D01*
X215898744Y-120623656D01*
X215916938Y-120610360D01*
X215953480Y-120587398D01*
X215973352Y-120576776D01*
X215996564Y-120557726D01*
X216020315Y-120539324D01*
X216035096Y-120522310D01*
X216065602Y-120491804D01*
X216082621Y-120477019D01*
X216101022Y-120453270D01*
X216120074Y-120430055D01*
X216130699Y-120410176D01*
X216153652Y-120373648D01*
X216166953Y-120355448D01*
X216179607Y-120328202D01*
X216193016Y-120301329D01*
X216198953Y-120279581D01*
X216213202Y-120238860D01*
X216222120Y-120218156D01*
X216228393Y-120188777D01*
X216235485Y-120159599D01*
X216236434Y-120137078D01*
X216241265Y-120094200D01*
X216245352Y-120072033D01*
X216244931Y-120042000D01*
X216245352Y-120011968D01*
X216241265Y-119989802D01*
X216238887Y-119968688D01*
X217198963Y-119968688D01*
X217239183Y-120066200D01*
X217461200Y-120066200D01*
X217461200Y-119641170D01*
X218158800Y-119641170D01*
X218158800Y-120066200D01*
X218380817Y-120066200D01*
X218421037Y-119968688D01*
X218378801Y-119852484D01*
X218314706Y-119746753D01*
X218240975Y-119633621D01*
X218158800Y-119641170D01*
X217461200Y-119641170D01*
X217379025Y-119633621D01*
X217305294Y-119746753D01*
X217241199Y-119852484D01*
X217198963Y-119968688D01*
X216238887Y-119968688D01*
X216236434Y-119946923D01*
X216235485Y-119924400D01*
X216228392Y-119895218D01*
X216222120Y-119865843D01*
X216213200Y-119845135D01*
X216198953Y-119804418D01*
X216193016Y-119782670D01*
X216179607Y-119755797D01*
X216166953Y-119728551D01*
X216153648Y-119710346D01*
X216130699Y-119673823D01*
X216120074Y-119653944D01*
X216101022Y-119630729D01*
X216082621Y-119606980D01*
X216065602Y-119592195D01*
X216035096Y-119561689D01*
X216020315Y-119544675D01*
X215996564Y-119526273D01*
X215973352Y-119507223D01*
X215953480Y-119496601D01*
X215916938Y-119473639D01*
X215898744Y-119460343D01*
X215871513Y-119447696D01*
X215844626Y-119434280D01*
X215822876Y-119428343D01*
X215782155Y-119414094D01*
X215761448Y-119405175D01*
X215732082Y-119398905D01*
X215702895Y-119391810D01*
X215680363Y-119390861D01*
X215657412Y-119388276D01*
X215655007Y-119387546D01*
X215622633Y-119384357D01*
X215607753Y-119382681D01*
X215605258Y-119382646D01*
X215602760Y-119382400D01*
X215587712Y-119382400D01*
X215555260Y-119381945D01*
X215552792Y-119382400D01*
X214604600Y-119382400D01*
X214604600Y-119263407D01*
X214649709Y-119233266D01*
X214737266Y-119145709D01*
X214806059Y-119042754D01*
X214853444Y-118928356D01*
X214877600Y-118806912D01*
X214877600Y-118683088D01*
X214853444Y-118561644D01*
X214806059Y-118447246D01*
X214737266Y-118344291D01*
X214649709Y-118256734D01*
X214546754Y-118187941D01*
X214432356Y-118140556D01*
X214310912Y-118116400D01*
X214187088Y-118116400D01*
X214133878Y-118126984D01*
X212445600Y-116438707D01*
X212445600Y-110380455D01*
X212447319Y-110363000D01*
X212445600Y-110345545D01*
X212445600Y-110345537D01*
X212440454Y-110293290D01*
X212420121Y-110226260D01*
X212387101Y-110164484D01*
X212342663Y-110110337D01*
X212329100Y-110099206D01*
X209494274Y-107264381D01*
X209503709Y-107248888D01*
X209520046Y-107223679D01*
X209528381Y-107202731D01*
X209540929Y-107176674D01*
X209552114Y-107157090D01*
X209561643Y-107128581D01*
X209571952Y-107100395D01*
X209575416Y-107078124D01*
X209581855Y-107049912D01*
X209588400Y-107028336D01*
X209591345Y-106998434D01*
X209595125Y-106968648D01*
X209593546Y-106946168D01*
X209593546Y-106917216D01*
X209595125Y-106894736D01*
X209591345Y-106864945D01*
X209588400Y-106835049D01*
X209581856Y-106813476D01*
X209575416Y-106785260D01*
X209571952Y-106762989D01*
X209561643Y-106734803D01*
X209552114Y-106706294D01*
X209540929Y-106686710D01*
X209528381Y-106660653D01*
X209520046Y-106639705D01*
X209503709Y-106614496D01*
X209488087Y-106588842D01*
X209472831Y-106572245D01*
X209467286Y-106565292D01*
X209466101Y-106563075D01*
X209445493Y-106537965D01*
X209436132Y-106526226D01*
X209434384Y-106524429D01*
X209432795Y-106522492D01*
X209424426Y-106514123D01*
X209423002Y-106512055D01*
X209411110Y-106500491D01*
X209399534Y-106488586D01*
X209397462Y-106487159D01*
X209389092Y-106478789D01*
X209387161Y-106477204D01*
X209385362Y-106475455D01*
X209373587Y-106466065D01*
X209348509Y-106445484D01*
X209346298Y-106444302D01*
X209339327Y-106438743D01*
X209322736Y-106423493D01*
X209297094Y-106407879D01*
X209271883Y-106391540D01*
X209250938Y-106383206D01*
X209224865Y-106370650D01*
X209205290Y-106359470D01*
X209176800Y-106349947D01*
X209148589Y-106339630D01*
X209126318Y-106336167D01*
X209098112Y-106329729D01*
X209076536Y-106323184D01*
X209046634Y-106320239D01*
X209016847Y-106316459D01*
X208994367Y-106318038D01*
X208965415Y-106318038D01*
X208942935Y-106316459D01*
X208913147Y-106320239D01*
X208883247Y-106323184D01*
X208861671Y-106329729D01*
X208833466Y-106336167D01*
X208811194Y-106339630D01*
X208782983Y-106349947D01*
X208754493Y-106359470D01*
X208734918Y-106370650D01*
X208708853Y-106383202D01*
X208687904Y-106391537D01*
X208662685Y-106407881D01*
X208647203Y-106417308D01*
X206257799Y-104027906D01*
X206246663Y-104014337D01*
X206192516Y-103969899D01*
X206130740Y-103936879D01*
X206063710Y-103916546D01*
X206011463Y-103911400D01*
X206011455Y-103911400D01*
X205994000Y-103909681D01*
X205976545Y-103911400D01*
X197505295Y-103911400D01*
X197205600Y-103611707D01*
X197205600Y-103254263D01*
X197264759Y-103236317D01*
X197452137Y-103136162D01*
X197514477Y-103085000D01*
X198310294Y-103085000D01*
X198314708Y-103129813D01*
X198327779Y-103172905D01*
X198349006Y-103212618D01*
X198377573Y-103247427D01*
X198412382Y-103275994D01*
X198452095Y-103297221D01*
X198495187Y-103310292D01*
X198540000Y-103314706D01*
X198774050Y-103313600D01*
X198831200Y-103256450D01*
X198831200Y-102793800D01*
X199948800Y-102793800D01*
X199948800Y-103256450D01*
X200005950Y-103313600D01*
X200240000Y-103314706D01*
X200284813Y-103310292D01*
X200327905Y-103297221D01*
X200367618Y-103275994D01*
X200402427Y-103247427D01*
X200430994Y-103212618D01*
X200452221Y-103172905D01*
X200465292Y-103129813D01*
X200469706Y-103085000D01*
X200468600Y-102850950D01*
X200411450Y-102793800D01*
X203604554Y-102793800D01*
X203646178Y-102931246D01*
X203773759Y-103058788D01*
X203911200Y-103090045D01*
X203911200Y-102793800D01*
X205028800Y-102793800D01*
X205028800Y-103090045D01*
X205166241Y-103058788D01*
X205293822Y-102931246D01*
X205335446Y-102793800D01*
X206144554Y-102793800D01*
X206186178Y-102931246D01*
X206313759Y-103058788D01*
X206451200Y-103090045D01*
X206451200Y-102793800D01*
X207568800Y-102793800D01*
X207568800Y-103090045D01*
X207706241Y-103058788D01*
X207833822Y-102931246D01*
X207875446Y-102793800D01*
X208684554Y-102793800D01*
X208726178Y-102931246D01*
X208853759Y-103058788D01*
X208991200Y-103090045D01*
X208991200Y-102793800D01*
X210108800Y-102793800D01*
X210108800Y-103090045D01*
X210246241Y-103058788D01*
X210373822Y-102931246D01*
X210415446Y-102793800D01*
X210108800Y-102793800D01*
X208991200Y-102793800D01*
X208684554Y-102793800D01*
X207875446Y-102793800D01*
X207568800Y-102793800D01*
X206451200Y-102793800D01*
X206144554Y-102793800D01*
X205335446Y-102793800D01*
X205028800Y-102793800D01*
X203911200Y-102793800D01*
X203604554Y-102793800D01*
X200411450Y-102793800D01*
X199948800Y-102793800D01*
X198831200Y-102793800D01*
X198368550Y-102793800D01*
X198311400Y-102850950D01*
X198310294Y-103085000D01*
X197514477Y-103085000D01*
X197616375Y-103001375D01*
X197751162Y-102837137D01*
X197851317Y-102649759D01*
X197912993Y-102446442D01*
X197933818Y-102235000D01*
X211006182Y-102235000D01*
X211027007Y-102446442D01*
X211088683Y-102649759D01*
X211188838Y-102837137D01*
X211323625Y-103001375D01*
X211487863Y-103136162D01*
X211675241Y-103236317D01*
X211878558Y-103297993D01*
X212037020Y-103313600D01*
X212142980Y-103313600D01*
X212301442Y-103297993D01*
X212504759Y-103236317D01*
X212692137Y-103136162D01*
X212856375Y-103001375D01*
X212991162Y-102837137D01*
X213091317Y-102649759D01*
X213152993Y-102446442D01*
X213173818Y-102235000D01*
X213546182Y-102235000D01*
X213567007Y-102446442D01*
X213628683Y-102649759D01*
X213728838Y-102837137D01*
X213863625Y-103001375D01*
X214027863Y-103136162D01*
X214215241Y-103236317D01*
X214418558Y-103297993D01*
X214577020Y-103313600D01*
X214682980Y-103313600D01*
X214841442Y-103297993D01*
X215044759Y-103236317D01*
X215232137Y-103136162D01*
X215396375Y-103001375D01*
X215531162Y-102837137D01*
X215631317Y-102649759D01*
X215692993Y-102446442D01*
X215713818Y-102235000D01*
X215692993Y-102023558D01*
X215631317Y-101820241D01*
X215531162Y-101632863D01*
X215396375Y-101468625D01*
X215294478Y-101385000D01*
X216090294Y-101385000D01*
X216090294Y-103085000D01*
X216094708Y-103129813D01*
X216107779Y-103172905D01*
X216129006Y-103212618D01*
X216157573Y-103247427D01*
X216192382Y-103275994D01*
X216232095Y-103297221D01*
X216275187Y-103310292D01*
X216320000Y-103314706D01*
X218020000Y-103314706D01*
X218064813Y-103310292D01*
X218107905Y-103297221D01*
X218147618Y-103275994D01*
X218182427Y-103247427D01*
X218210994Y-103212618D01*
X218232221Y-103172905D01*
X218245292Y-103129813D01*
X218249706Y-103085000D01*
X218249706Y-101385000D01*
X218245292Y-101340187D01*
X218232221Y-101297095D01*
X218210994Y-101257382D01*
X218182427Y-101222573D01*
X218147618Y-101194006D01*
X218107905Y-101172779D01*
X218064813Y-101159708D01*
X218020000Y-101155294D01*
X216320000Y-101155294D01*
X216275187Y-101159708D01*
X216232095Y-101172779D01*
X216192382Y-101194006D01*
X216157573Y-101222573D01*
X216129006Y-101257382D01*
X216107779Y-101297095D01*
X216094708Y-101340187D01*
X216090294Y-101385000D01*
X215294478Y-101385000D01*
X215232137Y-101333838D01*
X215044759Y-101233683D01*
X214841442Y-101172007D01*
X214682980Y-101156400D01*
X214577020Y-101156400D01*
X214418558Y-101172007D01*
X214215241Y-101233683D01*
X214027863Y-101333838D01*
X213863625Y-101468625D01*
X213728838Y-101632863D01*
X213628683Y-101820241D01*
X213567007Y-102023558D01*
X213546182Y-102235000D01*
X213173818Y-102235000D01*
X213152993Y-102023558D01*
X213091317Y-101820241D01*
X212991162Y-101632863D01*
X212856375Y-101468625D01*
X212692137Y-101333838D01*
X212504759Y-101233683D01*
X212301442Y-101172007D01*
X212142980Y-101156400D01*
X212037020Y-101156400D01*
X211878558Y-101172007D01*
X211675241Y-101233683D01*
X211487863Y-101333838D01*
X211323625Y-101468625D01*
X211188838Y-101632863D01*
X211088683Y-101820241D01*
X211027007Y-102023558D01*
X211006182Y-102235000D01*
X197933818Y-102235000D01*
X197912993Y-102023558D01*
X197851317Y-101820241D01*
X197751162Y-101632863D01*
X197616375Y-101468625D01*
X197514478Y-101385000D01*
X198310294Y-101385000D01*
X198311400Y-101619050D01*
X198368550Y-101676200D01*
X198831200Y-101676200D01*
X198831200Y-101213550D01*
X199948800Y-101213550D01*
X199948800Y-101676200D01*
X200411450Y-101676200D01*
X203604554Y-101676200D01*
X203911200Y-101676200D01*
X205028800Y-101676200D01*
X205335446Y-101676200D01*
X206144554Y-101676200D01*
X206451200Y-101676200D01*
X207568800Y-101676200D01*
X207875446Y-101676200D01*
X208684554Y-101676200D01*
X208991200Y-101676200D01*
X210108800Y-101676200D01*
X210415446Y-101676200D01*
X210373822Y-101538754D01*
X210246241Y-101411212D01*
X210108800Y-101379955D01*
X210108800Y-101676200D01*
X208991200Y-101676200D01*
X208991200Y-101379955D01*
X208853759Y-101411212D01*
X208726178Y-101538754D01*
X208684554Y-101676200D01*
X207875446Y-101676200D01*
X207833822Y-101538754D01*
X207706241Y-101411212D01*
X207568800Y-101379955D01*
X207568800Y-101676200D01*
X206451200Y-101676200D01*
X206451200Y-101379955D01*
X206313759Y-101411212D01*
X206186178Y-101538754D01*
X206144554Y-101676200D01*
X205335446Y-101676200D01*
X205293822Y-101538754D01*
X205166241Y-101411212D01*
X205028800Y-101379955D01*
X205028800Y-101676200D01*
X203911200Y-101676200D01*
X203911200Y-101379955D01*
X203773759Y-101411212D01*
X203646178Y-101538754D01*
X203604554Y-101676200D01*
X200411450Y-101676200D01*
X200468600Y-101619050D01*
X200469706Y-101385000D01*
X200465292Y-101340187D01*
X200452221Y-101297095D01*
X200430994Y-101257382D01*
X200402427Y-101222573D01*
X200367618Y-101194006D01*
X200327905Y-101172779D01*
X200284813Y-101159708D01*
X200240000Y-101155294D01*
X200005950Y-101156400D01*
X199948800Y-101213550D01*
X198831200Y-101213550D01*
X198774050Y-101156400D01*
X198540000Y-101155294D01*
X198495187Y-101159708D01*
X198452095Y-101172779D01*
X198412382Y-101194006D01*
X198377573Y-101222573D01*
X198349006Y-101257382D01*
X198327779Y-101297095D01*
X198314708Y-101340187D01*
X198310294Y-101385000D01*
X197514478Y-101385000D01*
X197452137Y-101333838D01*
X197264759Y-101233683D01*
X197061442Y-101172007D01*
X196902980Y-101156400D01*
X196797020Y-101156400D01*
X196638558Y-101172007D01*
X196435241Y-101233683D01*
X196247863Y-101333838D01*
X196083625Y-101468625D01*
X195948838Y-101632863D01*
X195848683Y-101820241D01*
X195787007Y-102023558D01*
X195766182Y-102235000D01*
X195787007Y-102446442D01*
X195848683Y-102649759D01*
X195948838Y-102837137D01*
X196083625Y-103001375D01*
X196247863Y-103136162D01*
X196435241Y-103236317D01*
X196494400Y-103254263D01*
X196494400Y-103741544D01*
X196492681Y-103759000D01*
X196494400Y-103776455D01*
X196494400Y-103776462D01*
X196499546Y-103828709D01*
X196519879Y-103895739D01*
X196552899Y-103957515D01*
X196597337Y-104011662D01*
X196610901Y-104022794D01*
X197007505Y-104419400D01*
X196997295Y-104419400D01*
X195282175Y-102704281D01*
X195311317Y-102649759D01*
X195372993Y-102446442D01*
X195393818Y-102235000D01*
X195372993Y-102023558D01*
X195311317Y-101820241D01*
X195211162Y-101632863D01*
X195076375Y-101468625D01*
X194912137Y-101333838D01*
X194724759Y-101233683D01*
X194521442Y-101172007D01*
X194362980Y-101156400D01*
X194257020Y-101156400D01*
X194098558Y-101172007D01*
X193895241Y-101233683D01*
X193707863Y-101333838D01*
X193543625Y-101468625D01*
X193408838Y-101632863D01*
X193308683Y-101820241D01*
X193247007Y-102023558D01*
X193226182Y-102235000D01*
X193247007Y-102446442D01*
X193308683Y-102649759D01*
X193408838Y-102837137D01*
X193543625Y-103001375D01*
X193707863Y-103136162D01*
X193895241Y-103236317D01*
X194098558Y-103297993D01*
X194257020Y-103313600D01*
X194362980Y-103313600D01*
X194521442Y-103297993D01*
X194724759Y-103236317D01*
X194779281Y-103207175D01*
X196586210Y-105014105D01*
X196597337Y-105027663D01*
X196610895Y-105038790D01*
X196610900Y-105038795D01*
X196645078Y-105066844D01*
X196651484Y-105072101D01*
X196713260Y-105105121D01*
X196780290Y-105125454D01*
X196832537Y-105130600D01*
X196832546Y-105130600D01*
X196849999Y-105132319D01*
X196867452Y-105130600D01*
X205719707Y-105130600D01*
X211226401Y-110637295D01*
X211226400Y-116695545D01*
X211224681Y-116713000D01*
X211226400Y-116730455D01*
X211226400Y-116730462D01*
X211230867Y-116775812D01*
X211231546Y-116782710D01*
X211234043Y-116790941D01*
X211251879Y-116849739D01*
X211284899Y-116911515D01*
X211329337Y-116965662D01*
X211342901Y-116976795D01*
X212115401Y-117749295D01*
X212115400Y-118226593D01*
X212070291Y-118256734D01*
X211982734Y-118344291D01*
X211913941Y-118447246D01*
X211866556Y-118561644D01*
X211842400Y-118683088D01*
X211842400Y-118806912D01*
X211852984Y-118860123D01*
X211541198Y-119171909D01*
X211504059Y-119082246D01*
X211435266Y-118979291D01*
X211347709Y-118891734D01*
X211244754Y-118822941D01*
X211130356Y-118775556D01*
X211008912Y-118751400D01*
X210885088Y-118751400D01*
X210763644Y-118775556D01*
X210649246Y-118822941D01*
X210546291Y-118891734D01*
X210458734Y-118979291D01*
X210428593Y-119024400D01*
X209570295Y-119024400D01*
X208416799Y-117870906D01*
X208416795Y-117870901D01*
X207400799Y-116854906D01*
X207389663Y-116841337D01*
X207335516Y-116796899D01*
X207273740Y-116763879D01*
X207206710Y-116743546D01*
X207154463Y-116738400D01*
X207154455Y-116738400D01*
X207137000Y-116736681D01*
X207119545Y-116738400D01*
X206392452Y-116738400D01*
X206374999Y-116736681D01*
X206357546Y-116738400D01*
X206357537Y-116738400D01*
X206305290Y-116743546D01*
X206238260Y-116763879D01*
X206176484Y-116796899D01*
X206176482Y-116796900D01*
X206176483Y-116796900D01*
X206135900Y-116830205D01*
X206135895Y-116830210D01*
X206122337Y-116841337D01*
X206111210Y-116854895D01*
X205754901Y-117211206D01*
X205741338Y-117222337D01*
X205696900Y-117276484D01*
X205681712Y-117304899D01*
X205663880Y-117338259D01*
X205643546Y-117405290D01*
X205636681Y-117475000D01*
X205638401Y-117492465D01*
X205638400Y-120228777D01*
X205638401Y-120228787D01*
X205638401Y-120258592D01*
X205593291Y-120288734D01*
X205505734Y-120376291D01*
X205436941Y-120479246D01*
X205389556Y-120593644D01*
X205365400Y-120715088D01*
X205365400Y-120838912D01*
X205389556Y-120960356D01*
X205436941Y-121074754D01*
X205505734Y-121177709D01*
X205593291Y-121265266D01*
X205696246Y-121334059D01*
X205810644Y-121381444D01*
X205932088Y-121405600D01*
X206055912Y-121405600D01*
X206177356Y-121381444D01*
X206291754Y-121334059D01*
X206394709Y-121265266D01*
X206482266Y-121177709D01*
X206551059Y-121074754D01*
X206598444Y-120960356D01*
X206622600Y-120838912D01*
X206622600Y-120715088D01*
X206603582Y-120619476D01*
X206654400Y-120670294D01*
X206654401Y-121648535D01*
X206652681Y-121666000D01*
X206659546Y-121735710D01*
X206679880Y-121802741D01*
X206679881Y-121802742D01*
X206712900Y-121864516D01*
X206757338Y-121918663D01*
X206770901Y-121929794D01*
X207508204Y-122667098D01*
X207519337Y-122680663D01*
X207573484Y-122725101D01*
X207635260Y-122758121D01*
X207702290Y-122778454D01*
X207754537Y-122783600D01*
X207754545Y-122783600D01*
X207772000Y-122785319D01*
X207789455Y-122783600D01*
X208351198Y-122783600D01*
X208351198Y-122857146D01*
X208316370Y-122909544D01*
X208266234Y-123031417D01*
X208240838Y-123160729D01*
X208296172Y-123266200D01*
X208561200Y-123266200D01*
X208561200Y-123246200D01*
X209258800Y-123246200D01*
X209258800Y-123266200D01*
X209523828Y-123266200D01*
X209544924Y-123225989D01*
X211145039Y-124826105D01*
X211156166Y-124839663D01*
X211169724Y-124850790D01*
X211169729Y-124850795D01*
X211196829Y-124873035D01*
X211210313Y-124884101D01*
X211272089Y-124917121D01*
X211292746Y-124923387D01*
X211339118Y-124937454D01*
X211346016Y-124938133D01*
X211391366Y-124942600D01*
X211391373Y-124942600D01*
X211408828Y-124944319D01*
X211426284Y-124942600D01*
X212054299Y-124942600D01*
X212122882Y-125011183D01*
X212153288Y-125031500D01*
X209468802Y-125031500D01*
X209468802Y-124792854D01*
X209503630Y-124740456D01*
X209553766Y-124618583D01*
X209579162Y-124489271D01*
X209523828Y-124383800D01*
X209258800Y-124383800D01*
X209258800Y-124403800D01*
X208561200Y-124403800D01*
X208561200Y-124383800D01*
X208296172Y-124383800D01*
X208240838Y-124489271D01*
X208266234Y-124618583D01*
X208316370Y-124740456D01*
X208351198Y-124792854D01*
X208351198Y-125031500D01*
X179840890Y-125031500D01*
X179875754Y-125017059D01*
X179978709Y-124948266D01*
X180066266Y-124860709D01*
X180135059Y-124757754D01*
X180182444Y-124643356D01*
X180206600Y-124521912D01*
X180206600Y-124424097D01*
X180234097Y-124396600D01*
X189750625Y-124396600D01*
X189819791Y-124465766D01*
X189922746Y-124534559D01*
X190037144Y-124581944D01*
X190158588Y-124606100D01*
X190282412Y-124606100D01*
X190403856Y-124581944D01*
X190518254Y-124534559D01*
X190621209Y-124465766D01*
X190690375Y-124396600D01*
X191655625Y-124396600D01*
X191724791Y-124465766D01*
X191827746Y-124534559D01*
X191942144Y-124581944D01*
X192063588Y-124606100D01*
X192187412Y-124606100D01*
X192308856Y-124581944D01*
X192423254Y-124534559D01*
X192526209Y-124465766D01*
X192595375Y-124396600D01*
X193560625Y-124396600D01*
X193629791Y-124465766D01*
X193732746Y-124534559D01*
X193847144Y-124581944D01*
X193968588Y-124606100D01*
X194092412Y-124606100D01*
X194213856Y-124581944D01*
X194328254Y-124534559D01*
X194431209Y-124465766D01*
X194500375Y-124396600D01*
X195465625Y-124396600D01*
X195534791Y-124465766D01*
X195637746Y-124534559D01*
X195752144Y-124581944D01*
X195873588Y-124606100D01*
X195997412Y-124606100D01*
X196118856Y-124581944D01*
X196233254Y-124534559D01*
X196336209Y-124465766D01*
X196423766Y-124378209D01*
X196492559Y-124275254D01*
X196539944Y-124160856D01*
X196564100Y-124039412D01*
X196564100Y-123915588D01*
X196539944Y-123794144D01*
X196492559Y-123679746D01*
X196423766Y-123576791D01*
X196336209Y-123489234D01*
X196233254Y-123420441D01*
X196118856Y-123373056D01*
X195997412Y-123348900D01*
X195873588Y-123348900D01*
X195752144Y-123373056D01*
X195637746Y-123420441D01*
X195534791Y-123489234D01*
X195465625Y-123558400D01*
X194500375Y-123558400D01*
X194431209Y-123489234D01*
X194328254Y-123420441D01*
X194213856Y-123373056D01*
X194092412Y-123348900D01*
X193968588Y-123348900D01*
X193847144Y-123373056D01*
X193732746Y-123420441D01*
X193629791Y-123489234D01*
X193560625Y-123558400D01*
X192595375Y-123558400D01*
X192526209Y-123489234D01*
X192423254Y-123420441D01*
X192308856Y-123373056D01*
X192187412Y-123348900D01*
X192063588Y-123348900D01*
X191942144Y-123373056D01*
X191827746Y-123420441D01*
X191724791Y-123489234D01*
X191655625Y-123558400D01*
X190690375Y-123558400D01*
X190621209Y-123489234D01*
X190518254Y-123420441D01*
X190403856Y-123373056D01*
X190282412Y-123348900D01*
X190158588Y-123348900D01*
X190037144Y-123373056D01*
X189922746Y-123420441D01*
X189819791Y-123489234D01*
X189750625Y-123558400D01*
X180081079Y-123558400D01*
X180060499Y-123556373D01*
X180039919Y-123558400D01*
X174366079Y-123558400D01*
X174345499Y-123556373D01*
X174324919Y-123558400D01*
X168651079Y-123558400D01*
X168630499Y-123556373D01*
X168609919Y-123558400D01*
X162936079Y-123558400D01*
X162915499Y-123556373D01*
X162894919Y-123558400D01*
X157221079Y-123558400D01*
X157200499Y-123556373D01*
X157118342Y-123564465D01*
X157039342Y-123588429D01*
X156966534Y-123627346D01*
X156902718Y-123679718D01*
X156889597Y-123695706D01*
X156753903Y-123831400D01*
X156656088Y-123831400D01*
X156534644Y-123855556D01*
X156420246Y-123902941D01*
X156317291Y-123971734D01*
X156229734Y-124059291D01*
X156160941Y-124162246D01*
X156113556Y-124276644D01*
X156089400Y-124398088D01*
X156089400Y-124521912D01*
X156113556Y-124643356D01*
X156113679Y-124643652D01*
X156109500Y-124638601D01*
X156027149Y-124486297D01*
X155975947Y-124320889D01*
X155956000Y-124131103D01*
X155956000Y-121798993D01*
X184826400Y-121798993D01*
X184826400Y-122041007D01*
X184873614Y-122278369D01*
X184966229Y-122501960D01*
X185100684Y-122703187D01*
X185271813Y-122874316D01*
X185473040Y-123008771D01*
X185696631Y-123101386D01*
X185933993Y-123148600D01*
X186176007Y-123148600D01*
X186413369Y-123101386D01*
X186636960Y-123008771D01*
X186838187Y-122874316D01*
X187009316Y-122703187D01*
X187143771Y-122501960D01*
X187236386Y-122278369D01*
X187283600Y-122041007D01*
X187283600Y-121798993D01*
X187236386Y-121561631D01*
X187143771Y-121338040D01*
X187009316Y-121136813D01*
X186838187Y-120965684D01*
X186636960Y-120831229D01*
X186413369Y-120738614D01*
X186176007Y-120691400D01*
X185933993Y-120691400D01*
X185696631Y-120738614D01*
X185473040Y-120831229D01*
X185271813Y-120965684D01*
X185100684Y-121136813D01*
X184966229Y-121338040D01*
X184873614Y-121561631D01*
X184826400Y-121798993D01*
X155956000Y-121798993D01*
X155956000Y-119953088D01*
X156216400Y-119953088D01*
X156216400Y-120076912D01*
X156240556Y-120198356D01*
X156287941Y-120312754D01*
X156356734Y-120415709D01*
X156444291Y-120503266D01*
X156547246Y-120572059D01*
X156661644Y-120619444D01*
X156783088Y-120643600D01*
X156906912Y-120643600D01*
X157028356Y-120619444D01*
X157142754Y-120572059D01*
X157245709Y-120503266D01*
X157333266Y-120415709D01*
X157402059Y-120312754D01*
X157449444Y-120198356D01*
X157473600Y-120076912D01*
X157473600Y-119953088D01*
X157462547Y-119897519D01*
X157626466Y-119733600D01*
X172708256Y-119733600D01*
X172739734Y-119780709D01*
X172827291Y-119868266D01*
X172930246Y-119937059D01*
X173044644Y-119984444D01*
X173166088Y-120008600D01*
X173289912Y-120008600D01*
X173411356Y-119984444D01*
X173525754Y-119937059D01*
X173628709Y-119868266D01*
X173716266Y-119780709D01*
X173785059Y-119677754D01*
X173832444Y-119563356D01*
X173856600Y-119441912D01*
X173856600Y-119318088D01*
X173832444Y-119196644D01*
X173830143Y-119191088D01*
X191141400Y-119191088D01*
X191141400Y-119314912D01*
X191165556Y-119436356D01*
X191212941Y-119550754D01*
X191281734Y-119653709D01*
X191369291Y-119741266D01*
X191472246Y-119810059D01*
X191586644Y-119857444D01*
X191708088Y-119881600D01*
X191831912Y-119881600D01*
X191885123Y-119871016D01*
X192268204Y-120254098D01*
X192279337Y-120267663D01*
X192292900Y-120278794D01*
X192292901Y-120278795D01*
X192302726Y-120286858D01*
X192333484Y-120312101D01*
X192395260Y-120345121D01*
X192462290Y-120365454D01*
X192514537Y-120370600D01*
X192514545Y-120370600D01*
X192532000Y-120372319D01*
X192549455Y-120370600D01*
X196956706Y-120370600D01*
X197002400Y-120416294D01*
X197002401Y-121521535D01*
X197000681Y-121539000D01*
X197007546Y-121608710D01*
X197027880Y-121675741D01*
X197030638Y-121680900D01*
X197060900Y-121737516D01*
X197105338Y-121791663D01*
X197118901Y-121802794D01*
X197501984Y-122185877D01*
X197491400Y-122239088D01*
X197491400Y-122362912D01*
X197515556Y-122484356D01*
X197562941Y-122598754D01*
X197631734Y-122701709D01*
X197719291Y-122789266D01*
X197822246Y-122858059D01*
X197936644Y-122905444D01*
X198058088Y-122929600D01*
X198181912Y-122929600D01*
X198303356Y-122905444D01*
X198417754Y-122858059D01*
X198520709Y-122789266D01*
X198608266Y-122701709D01*
X198677059Y-122598754D01*
X198724444Y-122484356D01*
X198748600Y-122362912D01*
X198748600Y-122239088D01*
X198724444Y-122117644D01*
X198677059Y-122003246D01*
X198608266Y-121900291D01*
X198520709Y-121812734D01*
X198417754Y-121743941D01*
X198303356Y-121696556D01*
X198181912Y-121672400D01*
X198058088Y-121672400D01*
X198004877Y-121682984D01*
X197713600Y-121391707D01*
X197713600Y-121005565D01*
X197719291Y-121011256D01*
X197822246Y-121080049D01*
X197936644Y-121127434D01*
X198058088Y-121151590D01*
X198181912Y-121151590D01*
X198303356Y-121127434D01*
X198417754Y-121080049D01*
X198520709Y-121011256D01*
X198608266Y-120923699D01*
X198677059Y-120820744D01*
X198724444Y-120706346D01*
X198748600Y-120584902D01*
X198748600Y-120461078D01*
X198738016Y-120407867D01*
X199288400Y-119857484D01*
X199288400Y-120004593D01*
X199243291Y-120034734D01*
X199155734Y-120122291D01*
X199086941Y-120225246D01*
X199039556Y-120339644D01*
X199015400Y-120461088D01*
X199015400Y-120584912D01*
X199039556Y-120706356D01*
X199086941Y-120820754D01*
X199155734Y-120923709D01*
X199243291Y-121011266D01*
X199346246Y-121080059D01*
X199460644Y-121127444D01*
X199582088Y-121151600D01*
X199705912Y-121151600D01*
X199827356Y-121127444D01*
X199941754Y-121080059D01*
X200044709Y-121011266D01*
X200132266Y-120923709D01*
X200152000Y-120894175D01*
X200171734Y-120923709D01*
X200259291Y-121011266D01*
X200362246Y-121080059D01*
X200476644Y-121127444D01*
X200598088Y-121151600D01*
X200721912Y-121151600D01*
X200843356Y-121127444D01*
X200957754Y-121080059D01*
X201060709Y-121011266D01*
X201148266Y-120923709D01*
X201217059Y-120820754D01*
X201264444Y-120706356D01*
X201288600Y-120584912D01*
X201288600Y-120461088D01*
X201264444Y-120339644D01*
X201217059Y-120225246D01*
X201148266Y-120122291D01*
X201060709Y-120034734D01*
X201015600Y-120004593D01*
X201015600Y-119778452D01*
X201017319Y-119760999D01*
X201015600Y-119743546D01*
X201015600Y-119743537D01*
X201010454Y-119691290D01*
X200990121Y-119624260D01*
X200985994Y-119616538D01*
X200982580Y-119610151D01*
X200957101Y-119562484D01*
X200947474Y-119550754D01*
X200923795Y-119521900D01*
X200923790Y-119521895D01*
X200912663Y-119508337D01*
X200899104Y-119497210D01*
X200761600Y-119359706D01*
X200761600Y-113431294D01*
X200939400Y-113253494D01*
X200939400Y-114663544D01*
X200937681Y-114681000D01*
X200939400Y-114698455D01*
X200939400Y-114698462D01*
X200943867Y-114743812D01*
X200944546Y-114750710D01*
X200948652Y-114764246D01*
X200964879Y-114817739D01*
X200997899Y-114879515D01*
X201042337Y-114933662D01*
X201055901Y-114944794D01*
X201412210Y-115301105D01*
X201423337Y-115314663D01*
X201436895Y-115325790D01*
X201436900Y-115325795D01*
X201471078Y-115353844D01*
X201477484Y-115359101D01*
X201539260Y-115392121D01*
X201606290Y-115412454D01*
X201658537Y-115417600D01*
X201658546Y-115417600D01*
X201675999Y-115419319D01*
X201693452Y-115417600D01*
X201792593Y-115417600D01*
X201822734Y-115462709D01*
X201910291Y-115550266D01*
X202013246Y-115619059D01*
X202127644Y-115666444D01*
X202249088Y-115690600D01*
X202372912Y-115690600D01*
X202494356Y-115666444D01*
X202608754Y-115619059D01*
X202711709Y-115550266D01*
X202799266Y-115462709D01*
X202868059Y-115359754D01*
X202915444Y-115245356D01*
X202939600Y-115123912D01*
X202939600Y-115000088D01*
X202915444Y-114878644D01*
X202868059Y-114764246D01*
X202799266Y-114661291D01*
X202711709Y-114573734D01*
X202608754Y-114504941D01*
X202494356Y-114457556D01*
X202372912Y-114433400D01*
X202249088Y-114433400D01*
X202127644Y-114457556D01*
X202013246Y-114504941D01*
X201910291Y-114573734D01*
X201822734Y-114661291D01*
X201804890Y-114687996D01*
X201650600Y-114533706D01*
X201650600Y-114178993D01*
X205781400Y-114178993D01*
X205781400Y-114421007D01*
X205828614Y-114658369D01*
X205921229Y-114881960D01*
X206055684Y-115083187D01*
X206226813Y-115254316D01*
X206428040Y-115388771D01*
X206651631Y-115481386D01*
X206888993Y-115528600D01*
X207131007Y-115528600D01*
X207368369Y-115481386D01*
X207591960Y-115388771D01*
X207793187Y-115254316D01*
X207964316Y-115083187D01*
X208098771Y-114881960D01*
X208191386Y-114658369D01*
X208238600Y-114421007D01*
X208238600Y-114178993D01*
X208191386Y-113941631D01*
X208098771Y-113718040D01*
X207964316Y-113516813D01*
X207793187Y-113345684D01*
X207591960Y-113211229D01*
X207368369Y-113118614D01*
X207131007Y-113071400D01*
X206888993Y-113071400D01*
X206651631Y-113118614D01*
X206428040Y-113211229D01*
X206226813Y-113345684D01*
X206055684Y-113516813D01*
X205921229Y-113718040D01*
X205828614Y-113941631D01*
X205781400Y-114178993D01*
X201650600Y-114178993D01*
X201650600Y-111396455D01*
X201652319Y-111379000D01*
X201650600Y-111361544D01*
X201650600Y-111361537D01*
X201645454Y-111309290D01*
X201641425Y-111296006D01*
X201637236Y-111282198D01*
X201625121Y-111242260D01*
X201592101Y-111180484D01*
X201547663Y-111126337D01*
X201534100Y-111115206D01*
X201024016Y-110605123D01*
X201034600Y-110551912D01*
X201034600Y-110428088D01*
X201010444Y-110306644D01*
X200963059Y-110192246D01*
X200894266Y-110089291D01*
X200806709Y-110001734D01*
X200703754Y-109932941D01*
X200589356Y-109885556D01*
X200467912Y-109861400D01*
X200344088Y-109861400D01*
X200222644Y-109885556D01*
X200108246Y-109932941D01*
X200005291Y-110001734D01*
X199917734Y-110089291D01*
X199848941Y-110192246D01*
X199801556Y-110306644D01*
X199777400Y-110428088D01*
X199777400Y-110551912D01*
X199801556Y-110673356D01*
X199841339Y-110769400D01*
X199273407Y-110769400D01*
X199243266Y-110724291D01*
X199155709Y-110636734D01*
X199052754Y-110567941D01*
X198938356Y-110520556D01*
X198816912Y-110496400D01*
X198693088Y-110496400D01*
X198571644Y-110520556D01*
X198457246Y-110567941D01*
X198354291Y-110636734D01*
X198266734Y-110724291D01*
X198197941Y-110827246D01*
X198150556Y-110941644D01*
X198126400Y-111063088D01*
X198126400Y-111186912D01*
X198150556Y-111308356D01*
X198197941Y-111422754D01*
X198266734Y-111525709D01*
X198354291Y-111613266D01*
X198457246Y-111682059D01*
X198571644Y-111729444D01*
X198693088Y-111753600D01*
X198816912Y-111753600D01*
X198938356Y-111729444D01*
X199052754Y-111682059D01*
X199155709Y-111613266D01*
X199243266Y-111525709D01*
X199273407Y-111480600D01*
X199750707Y-111480600D01*
X200055524Y-111785418D01*
X199959912Y-111766400D01*
X199836088Y-111766400D01*
X199714644Y-111790556D01*
X199600246Y-111837941D01*
X199497291Y-111906734D01*
X199409734Y-111994291D01*
X199340941Y-112097246D01*
X199326500Y-112132110D01*
X199312059Y-112097246D01*
X199243266Y-111994291D01*
X199155709Y-111906734D01*
X199052754Y-111837941D01*
X198938356Y-111790556D01*
X198816912Y-111766400D01*
X198693088Y-111766400D01*
X198571644Y-111790556D01*
X198457246Y-111837941D01*
X198354291Y-111906734D01*
X198266734Y-111994291D01*
X198197941Y-112097246D01*
X198150556Y-112211644D01*
X198126400Y-112333088D01*
X198126400Y-112456912D01*
X198150556Y-112578356D01*
X198197941Y-112692754D01*
X198266734Y-112795709D01*
X198354291Y-112883266D01*
X198399401Y-112913408D01*
X198399401Y-112943220D01*
X198397681Y-112960685D01*
X198404546Y-113030395D01*
X198424880Y-113097426D01*
X198436206Y-113118614D01*
X198457900Y-113159201D01*
X198502338Y-113213348D01*
X198515901Y-113224479D01*
X199034400Y-113742979D01*
X199034401Y-117759507D01*
X198738016Y-117463123D01*
X198748600Y-117409912D01*
X198748600Y-117286088D01*
X198724444Y-117164644D01*
X198677059Y-117050246D01*
X198608266Y-116947291D01*
X198520709Y-116859734D01*
X198417754Y-116790941D01*
X198303356Y-116743556D01*
X198181912Y-116719400D01*
X198058088Y-116719400D01*
X197958555Y-116739198D01*
X198031386Y-116563369D01*
X198078600Y-116326007D01*
X198078600Y-116083993D01*
X198031386Y-115846631D01*
X197938771Y-115623040D01*
X197804316Y-115421813D01*
X197633187Y-115250684D01*
X197431960Y-115116229D01*
X197208369Y-115023614D01*
X196971007Y-114976400D01*
X196728993Y-114976400D01*
X196491631Y-115023614D01*
X196268040Y-115116229D01*
X196066813Y-115250684D01*
X195895684Y-115421813D01*
X195761229Y-115623040D01*
X195668614Y-115846631D01*
X195621400Y-116083993D01*
X195621400Y-116326007D01*
X195668614Y-116563369D01*
X195761229Y-116786960D01*
X195895684Y-116988187D01*
X196066813Y-117159316D01*
X196268040Y-117293771D01*
X196491631Y-117386386D01*
X196728993Y-117433600D01*
X196971007Y-117433600D01*
X197208369Y-117386386D01*
X197431960Y-117293771D01*
X197498748Y-117249145D01*
X197491400Y-117286088D01*
X197491400Y-117409912D01*
X197515556Y-117531356D01*
X197562941Y-117645754D01*
X197631734Y-117748709D01*
X197719291Y-117836266D01*
X197822246Y-117905059D01*
X197857110Y-117919500D01*
X197822246Y-117933941D01*
X197719291Y-118002734D01*
X197631734Y-118090291D01*
X197601593Y-118135400D01*
X194454455Y-118135400D01*
X194437000Y-118133681D01*
X194419545Y-118135400D01*
X194419537Y-118135400D01*
X194367290Y-118140546D01*
X194300260Y-118160879D01*
X194238484Y-118193899D01*
X194184337Y-118238337D01*
X194173206Y-118251900D01*
X193790123Y-118634984D01*
X193736912Y-118624400D01*
X193613088Y-118624400D01*
X193491644Y-118648556D01*
X193377246Y-118695941D01*
X193274291Y-118764734D01*
X193186734Y-118852291D01*
X193117941Y-118955246D01*
X193070556Y-119069644D01*
X193046400Y-119191088D01*
X193046400Y-119314912D01*
X193070556Y-119436356D01*
X193117941Y-119550754D01*
X193186734Y-119653709D01*
X193192425Y-119659400D01*
X192679294Y-119659400D01*
X192388016Y-119368123D01*
X192398600Y-119314912D01*
X192398600Y-119191088D01*
X192374444Y-119069644D01*
X192327059Y-118955246D01*
X192258266Y-118852291D01*
X192170709Y-118764734D01*
X192067754Y-118695941D01*
X191953356Y-118648556D01*
X191831912Y-118624400D01*
X191708088Y-118624400D01*
X191586644Y-118648556D01*
X191472246Y-118695941D01*
X191369291Y-118764734D01*
X191281734Y-118852291D01*
X191212941Y-118955246D01*
X191165556Y-119069644D01*
X191141400Y-119191088D01*
X173830143Y-119191088D01*
X173785059Y-119082246D01*
X173716266Y-118979291D01*
X173628709Y-118891734D01*
X173525754Y-118822941D01*
X173411356Y-118775556D01*
X173289912Y-118751400D01*
X173166088Y-118751400D01*
X173044644Y-118775556D01*
X172930246Y-118822941D01*
X172827291Y-118891734D01*
X172739734Y-118979291D01*
X172708256Y-119026400D01*
X157497362Y-119026400D01*
X157480000Y-119024690D01*
X157462638Y-119026400D01*
X157410682Y-119031517D01*
X157344029Y-119051736D01*
X157324517Y-119062166D01*
X157282600Y-119084570D01*
X157243642Y-119116543D01*
X157228758Y-119128758D01*
X157217692Y-119142242D01*
X156962481Y-119397453D01*
X156906912Y-119386400D01*
X156783088Y-119386400D01*
X156661644Y-119410556D01*
X156547246Y-119457941D01*
X156444291Y-119526734D01*
X156356734Y-119614291D01*
X156287941Y-119717246D01*
X156240556Y-119831644D01*
X156216400Y-119953088D01*
X155956000Y-119953088D01*
X155956000Y-116083993D01*
X188001400Y-116083993D01*
X188001400Y-116326007D01*
X188048614Y-116563369D01*
X188141229Y-116786960D01*
X188275684Y-116988187D01*
X188446813Y-117159316D01*
X188648040Y-117293771D01*
X188871631Y-117386386D01*
X189108993Y-117433600D01*
X189351007Y-117433600D01*
X189588369Y-117386386D01*
X189811960Y-117293771D01*
X190013187Y-117159316D01*
X190184316Y-116988187D01*
X190318771Y-116786960D01*
X190411386Y-116563369D01*
X190458600Y-116326007D01*
X190458600Y-116083993D01*
X191811400Y-116083993D01*
X191811400Y-116326007D01*
X191858614Y-116563369D01*
X191951229Y-116786960D01*
X192085684Y-116988187D01*
X192256813Y-117159316D01*
X192458040Y-117293771D01*
X192681631Y-117386386D01*
X192918993Y-117433600D01*
X193161007Y-117433600D01*
X193398369Y-117386386D01*
X193621960Y-117293771D01*
X193823187Y-117159316D01*
X193994316Y-116988187D01*
X194128771Y-116786960D01*
X194221386Y-116563369D01*
X194268600Y-116326007D01*
X194268600Y-116083993D01*
X194221386Y-115846631D01*
X194128771Y-115623040D01*
X193994316Y-115421813D01*
X193823187Y-115250684D01*
X193621960Y-115116229D01*
X193398369Y-115023614D01*
X193161007Y-114976400D01*
X192918993Y-114976400D01*
X192681631Y-115023614D01*
X192458040Y-115116229D01*
X192256813Y-115250684D01*
X192085684Y-115421813D01*
X191951229Y-115623040D01*
X191858614Y-115846631D01*
X191811400Y-116083993D01*
X190458600Y-116083993D01*
X190411386Y-115846631D01*
X190318771Y-115623040D01*
X190184316Y-115421813D01*
X190013187Y-115250684D01*
X189811960Y-115116229D01*
X189588369Y-115023614D01*
X189351007Y-114976400D01*
X189108993Y-114976400D01*
X188871631Y-115023614D01*
X188648040Y-115116229D01*
X188446813Y-115250684D01*
X188275684Y-115421813D01*
X188141229Y-115623040D01*
X188048614Y-115846631D01*
X188001400Y-116083993D01*
X155956000Y-116083993D01*
X155956000Y-112968088D01*
X186315400Y-112968088D01*
X186315400Y-113091912D01*
X186339556Y-113213356D01*
X186386941Y-113327754D01*
X186397900Y-113344156D01*
X186397900Y-114620845D01*
X186386941Y-114637246D01*
X186339556Y-114751644D01*
X186315400Y-114873088D01*
X186315400Y-114996912D01*
X186339556Y-115118356D01*
X186386941Y-115232754D01*
X186455734Y-115335709D01*
X186543291Y-115423266D01*
X186646246Y-115492059D01*
X186760644Y-115539444D01*
X186882088Y-115563600D01*
X187005912Y-115563600D01*
X187127356Y-115539444D01*
X187241754Y-115492059D01*
X187344709Y-115423266D01*
X187432266Y-115335709D01*
X187501059Y-115232754D01*
X187548444Y-115118356D01*
X187572600Y-114996912D01*
X187572600Y-114873088D01*
X187548444Y-114751644D01*
X187501059Y-114637246D01*
X187490100Y-114620845D01*
X187490100Y-113344155D01*
X187501059Y-113327754D01*
X187548444Y-113213356D01*
X187572600Y-113091912D01*
X187572600Y-112968088D01*
X187560846Y-112908993D01*
X189906400Y-112908993D01*
X189906400Y-113151007D01*
X189953614Y-113388369D01*
X190046229Y-113611960D01*
X190180684Y-113813187D01*
X190351813Y-113984316D01*
X190553040Y-114118771D01*
X190776631Y-114211386D01*
X191013993Y-114258600D01*
X191256007Y-114258600D01*
X191493369Y-114211386D01*
X191716960Y-114118771D01*
X191918187Y-113984316D01*
X192089316Y-113813187D01*
X192223771Y-113611960D01*
X192316386Y-113388369D01*
X192363600Y-113151007D01*
X192363600Y-112908993D01*
X193716400Y-112908993D01*
X193716400Y-113151007D01*
X193763614Y-113388369D01*
X193856229Y-113611960D01*
X193990684Y-113813187D01*
X194161813Y-113984316D01*
X194363040Y-114118771D01*
X194586631Y-114211386D01*
X194823993Y-114258600D01*
X195066007Y-114258600D01*
X195303369Y-114211386D01*
X195526960Y-114118771D01*
X195728187Y-113984316D01*
X195899316Y-113813187D01*
X196033771Y-113611960D01*
X196126386Y-113388369D01*
X196173600Y-113151007D01*
X196173600Y-112908993D01*
X196126386Y-112671631D01*
X196033771Y-112448040D01*
X195899316Y-112246813D01*
X195728187Y-112075684D01*
X195526960Y-111941229D01*
X195303369Y-111848614D01*
X195066007Y-111801400D01*
X194823993Y-111801400D01*
X194586631Y-111848614D01*
X194363040Y-111941229D01*
X194161813Y-112075684D01*
X193990684Y-112246813D01*
X193856229Y-112448040D01*
X193763614Y-112671631D01*
X193716400Y-112908993D01*
X192363600Y-112908993D01*
X192316386Y-112671631D01*
X192223771Y-112448040D01*
X192089316Y-112246813D01*
X191918187Y-112075684D01*
X191716960Y-111941229D01*
X191493369Y-111848614D01*
X191256007Y-111801400D01*
X191013993Y-111801400D01*
X190776631Y-111848614D01*
X190553040Y-111941229D01*
X190351813Y-112075684D01*
X190180684Y-112246813D01*
X190046229Y-112448040D01*
X189953614Y-112671631D01*
X189906400Y-112908993D01*
X187560846Y-112908993D01*
X187548444Y-112846644D01*
X187501059Y-112732246D01*
X187490100Y-112715845D01*
X187490100Y-111732201D01*
X188073184Y-111149118D01*
X188094019Y-111132019D01*
X188162262Y-111048865D01*
X188212972Y-110953994D01*
X188244198Y-110851054D01*
X188252100Y-110770824D01*
X188252100Y-110770817D01*
X188254741Y-110744000D01*
X188252100Y-110717183D01*
X188252100Y-110042155D01*
X188263059Y-110025754D01*
X188310444Y-109911356D01*
X188333968Y-109793088D01*
X188728400Y-109793088D01*
X188728400Y-109916912D01*
X188752556Y-110038356D01*
X188799941Y-110152754D01*
X188868734Y-110255709D01*
X188956291Y-110343266D01*
X189001400Y-110373407D01*
X189001401Y-111241648D01*
X188956291Y-111271790D01*
X188868734Y-111359347D01*
X188799941Y-111462302D01*
X188752556Y-111576700D01*
X188728400Y-111698144D01*
X188728400Y-111821968D01*
X188752556Y-111943412D01*
X188799941Y-112057810D01*
X188868734Y-112160765D01*
X188956291Y-112248322D01*
X189059246Y-112317115D01*
X189173644Y-112364500D01*
X189295088Y-112388656D01*
X189418912Y-112388656D01*
X189540356Y-112364500D01*
X189654754Y-112317115D01*
X189757709Y-112248322D01*
X189845266Y-112160765D01*
X189914059Y-112057810D01*
X189961444Y-111943412D01*
X189985600Y-111821968D01*
X189985600Y-111698144D01*
X189961444Y-111576700D01*
X189914059Y-111462302D01*
X189845266Y-111359347D01*
X189757709Y-111271790D01*
X189712600Y-111241649D01*
X189712600Y-110373407D01*
X189757709Y-110343266D01*
X189845266Y-110255709D01*
X189914059Y-110152754D01*
X189961444Y-110038356D01*
X189985600Y-109916912D01*
X189985600Y-109793088D01*
X189961444Y-109671644D01*
X189914059Y-109557246D01*
X189845266Y-109454291D01*
X189757709Y-109366734D01*
X189654754Y-109297941D01*
X189540356Y-109250556D01*
X189418912Y-109226400D01*
X189295088Y-109226400D01*
X189173644Y-109250556D01*
X189059246Y-109297941D01*
X188956291Y-109366734D01*
X188868734Y-109454291D01*
X188799941Y-109557246D01*
X188752556Y-109671644D01*
X188728400Y-109793088D01*
X188333968Y-109793088D01*
X188334600Y-109789912D01*
X188334600Y-109666088D01*
X188310444Y-109544644D01*
X188263059Y-109430246D01*
X188252100Y-109413845D01*
X188252100Y-109153155D01*
X188263059Y-109136754D01*
X188310444Y-109022356D01*
X188334600Y-108900912D01*
X188334600Y-108777088D01*
X188310444Y-108655644D01*
X188263059Y-108541246D01*
X188194266Y-108438291D01*
X188106709Y-108350734D01*
X188003754Y-108281941D01*
X187889356Y-108234556D01*
X187767912Y-108210400D01*
X187644088Y-108210400D01*
X187522644Y-108234556D01*
X187408246Y-108281941D01*
X187305291Y-108350734D01*
X187217734Y-108438291D01*
X187148941Y-108541246D01*
X187101556Y-108655644D01*
X187077400Y-108777088D01*
X187077400Y-108900912D01*
X187101556Y-109022356D01*
X187148941Y-109136754D01*
X187159900Y-109153155D01*
X187159900Y-109413845D01*
X187148941Y-109430246D01*
X187101556Y-109544644D01*
X187077400Y-109666088D01*
X187077400Y-109789912D01*
X187101556Y-109911356D01*
X187148941Y-110025754D01*
X187159901Y-110042156D01*
X187159900Y-110517798D01*
X186576816Y-111100883D01*
X186555982Y-111117981D01*
X186538883Y-111138816D01*
X186538882Y-111138817D01*
X186487738Y-111201136D01*
X186437029Y-111296005D01*
X186405802Y-111398947D01*
X186395259Y-111506000D01*
X186397901Y-111532827D01*
X186397901Y-112715844D01*
X186386941Y-112732246D01*
X186339556Y-112846644D01*
X186315400Y-112968088D01*
X155956000Y-112968088D01*
X155956000Y-103841138D01*
X156023098Y-103156825D01*
X156044783Y-103085000D01*
X177990294Y-103085000D01*
X177994708Y-103129813D01*
X178007779Y-103172905D01*
X178029006Y-103212618D01*
X178057573Y-103247427D01*
X178092382Y-103275994D01*
X178132095Y-103297221D01*
X178175187Y-103310292D01*
X178220000Y-103314706D01*
X178454050Y-103313600D01*
X178511200Y-103256450D01*
X178511200Y-102793800D01*
X179628800Y-102793800D01*
X179628800Y-103256450D01*
X179685950Y-103313600D01*
X179920000Y-103314706D01*
X179964813Y-103310292D01*
X180007905Y-103297221D01*
X180047618Y-103275994D01*
X180082427Y-103247427D01*
X180110994Y-103212618D01*
X180132221Y-103172905D01*
X180145292Y-103129813D01*
X180149706Y-103085000D01*
X180148600Y-102850950D01*
X180091450Y-102793800D01*
X179628800Y-102793800D01*
X178511200Y-102793800D01*
X178048550Y-102793800D01*
X177991400Y-102850950D01*
X177990294Y-103085000D01*
X156044783Y-103085000D01*
X156216422Y-102516503D01*
X156366099Y-102235000D01*
X180526182Y-102235000D01*
X180547007Y-102446442D01*
X180608683Y-102649759D01*
X180708838Y-102837137D01*
X180843625Y-103001375D01*
X181007863Y-103136162D01*
X181195241Y-103236317D01*
X181398558Y-103297993D01*
X181557020Y-103313600D01*
X181662980Y-103313600D01*
X181821442Y-103297993D01*
X182024759Y-103236317D01*
X182212137Y-103136162D01*
X182376375Y-103001375D01*
X182511162Y-102837137D01*
X182611317Y-102649759D01*
X182672993Y-102446442D01*
X182693818Y-102235000D01*
X183066182Y-102235000D01*
X183087007Y-102446442D01*
X183148683Y-102649759D01*
X183248838Y-102837137D01*
X183383625Y-103001375D01*
X183547863Y-103136162D01*
X183735241Y-103236317D01*
X183938558Y-103297993D01*
X184097020Y-103313600D01*
X184202980Y-103313600D01*
X184361442Y-103297993D01*
X184564759Y-103236317D01*
X184752137Y-103136162D01*
X184916375Y-103001375D01*
X185051162Y-102837137D01*
X185151317Y-102649759D01*
X185212993Y-102446442D01*
X185233818Y-102235000D01*
X185606182Y-102235000D01*
X185627007Y-102446442D01*
X185688683Y-102649759D01*
X185788838Y-102837137D01*
X185923625Y-103001375D01*
X186087863Y-103136162D01*
X186275241Y-103236317D01*
X186478558Y-103297993D01*
X186637020Y-103313600D01*
X186742980Y-103313600D01*
X186901442Y-103297993D01*
X187104759Y-103236317D01*
X187292137Y-103136162D01*
X187456375Y-103001375D01*
X187591162Y-102837137D01*
X187691317Y-102649759D01*
X187752993Y-102446442D01*
X187773818Y-102235000D01*
X188146182Y-102235000D01*
X188167007Y-102446442D01*
X188228683Y-102649759D01*
X188328838Y-102837137D01*
X188463625Y-103001375D01*
X188627863Y-103136162D01*
X188815241Y-103236317D01*
X189018558Y-103297993D01*
X189177020Y-103313600D01*
X189282980Y-103313600D01*
X189441442Y-103297993D01*
X189644759Y-103236317D01*
X189832137Y-103136162D01*
X189996375Y-103001375D01*
X190131162Y-102837137D01*
X190231317Y-102649759D01*
X190292993Y-102446442D01*
X190313818Y-102235000D01*
X190292993Y-102023558D01*
X190231317Y-101820241D01*
X190131162Y-101632863D01*
X189996375Y-101468625D01*
X189832137Y-101333838D01*
X189644759Y-101233683D01*
X189441442Y-101172007D01*
X189282980Y-101156400D01*
X189177020Y-101156400D01*
X189018558Y-101172007D01*
X188815241Y-101233683D01*
X188627863Y-101333838D01*
X188463625Y-101468625D01*
X188328838Y-101632863D01*
X188228683Y-101820241D01*
X188167007Y-102023558D01*
X188146182Y-102235000D01*
X187773818Y-102235000D01*
X187752993Y-102023558D01*
X187691317Y-101820241D01*
X187591162Y-101632863D01*
X187456375Y-101468625D01*
X187292137Y-101333838D01*
X187104759Y-101233683D01*
X186901442Y-101172007D01*
X186742980Y-101156400D01*
X186637020Y-101156400D01*
X186478558Y-101172007D01*
X186275241Y-101233683D01*
X186087863Y-101333838D01*
X185923625Y-101468625D01*
X185788838Y-101632863D01*
X185688683Y-101820241D01*
X185627007Y-102023558D01*
X185606182Y-102235000D01*
X185233818Y-102235000D01*
X185212993Y-102023558D01*
X185151317Y-101820241D01*
X185051162Y-101632863D01*
X184916375Y-101468625D01*
X184752137Y-101333838D01*
X184564759Y-101233683D01*
X184361442Y-101172007D01*
X184202980Y-101156400D01*
X184097020Y-101156400D01*
X183938558Y-101172007D01*
X183735241Y-101233683D01*
X183547863Y-101333838D01*
X183383625Y-101468625D01*
X183248838Y-101632863D01*
X183148683Y-101820241D01*
X183087007Y-102023558D01*
X183066182Y-102235000D01*
X182693818Y-102235000D01*
X182672993Y-102023558D01*
X182611317Y-101820241D01*
X182511162Y-101632863D01*
X182376375Y-101468625D01*
X182212137Y-101333838D01*
X182024759Y-101233683D01*
X181821442Y-101172007D01*
X181662980Y-101156400D01*
X181557020Y-101156400D01*
X181398558Y-101172007D01*
X181195241Y-101233683D01*
X181007863Y-101333838D01*
X180843625Y-101468625D01*
X180708838Y-101632863D01*
X180608683Y-101820241D01*
X180547007Y-102023558D01*
X180526182Y-102235000D01*
X156366099Y-102235000D01*
X156530434Y-101925933D01*
X156953178Y-101407597D01*
X156980493Y-101385000D01*
X177990294Y-101385000D01*
X177991400Y-101619050D01*
X178048550Y-101676200D01*
X178511200Y-101676200D01*
X178511200Y-101213550D01*
X179628800Y-101213550D01*
X179628800Y-101676200D01*
X180091450Y-101676200D01*
X180148600Y-101619050D01*
X180149706Y-101385000D01*
X180145292Y-101340187D01*
X180132221Y-101297095D01*
X180110994Y-101257382D01*
X180082427Y-101222573D01*
X180047618Y-101194006D01*
X180007905Y-101172779D01*
X179964813Y-101159708D01*
X179920000Y-101155294D01*
X179685950Y-101156400D01*
X179628800Y-101213550D01*
X178511200Y-101213550D01*
X178454050Y-101156400D01*
X178220000Y-101155294D01*
X178175187Y-101159708D01*
X178132095Y-101172779D01*
X178092382Y-101194006D01*
X178057573Y-101222573D01*
X178029006Y-101257382D01*
X178007779Y-101297095D01*
X177994708Y-101340187D01*
X177990294Y-101385000D01*
X156980493Y-101385000D01*
X157468549Y-100981245D01*
X158056917Y-100663115D01*
X158695870Y-100465326D01*
X159379030Y-100393524D01*
X159385760Y-100393500D01*
X217786362Y-100393500D01*
X217977323Y-100412224D01*
G36*
X207913901Y-118373795D02*
G01*
X207913906Y-118373799D01*
X209159210Y-119619105D01*
X209170337Y-119632663D01*
X209183895Y-119643790D01*
X209183900Y-119643795D01*
X209205618Y-119661618D01*
X209224484Y-119677101D01*
X209258800Y-119695443D01*
X209258800Y-120066200D01*
X209480817Y-120066200D01*
X209521037Y-119968688D01*
X209478801Y-119852484D01*
X209414706Y-119746753D01*
X209407567Y-119735799D01*
X209422999Y-119737319D01*
X209440452Y-119735600D01*
X210428593Y-119735600D01*
X210458734Y-119780709D01*
X210546291Y-119868266D01*
X210649246Y-119937059D01*
X210763644Y-119984444D01*
X210885088Y-120008600D01*
X211008912Y-120008600D01*
X211130356Y-119984444D01*
X211244754Y-119937059D01*
X211347709Y-119868266D01*
X211353401Y-119862574D01*
X211353400Y-123045544D01*
X211351681Y-123063000D01*
X211353400Y-123080455D01*
X211353400Y-123080462D01*
X211356978Y-123116786D01*
X211358546Y-123132710D01*
X211362850Y-123146899D01*
X211378879Y-123199739D01*
X211411899Y-123261515D01*
X211456337Y-123315662D01*
X211469901Y-123326794D01*
X211739506Y-123596400D01*
X211602294Y-123596400D01*
X209686799Y-121680906D01*
X209675663Y-121667337D01*
X209621516Y-121622899D01*
X209559740Y-121589879D01*
X209492710Y-121569546D01*
X209468802Y-121567191D01*
X209468802Y-121414010D01*
X209478801Y-121397516D01*
X209521037Y-121281312D01*
X209480817Y-121183800D01*
X209258800Y-121183800D01*
X209258800Y-121203800D01*
X208561200Y-121203800D01*
X208561200Y-121183800D01*
X208339183Y-121183800D01*
X208298963Y-121281312D01*
X208341199Y-121397516D01*
X208351198Y-121414010D01*
X208351198Y-121564400D01*
X208173295Y-121564400D01*
X207873600Y-121264707D01*
X207873600Y-119968688D01*
X208298963Y-119968688D01*
X208339183Y-120066200D01*
X208561200Y-120066200D01*
X208561200Y-119641170D01*
X208479025Y-119633621D01*
X208405294Y-119746753D01*
X208341199Y-119852484D01*
X208298963Y-119968688D01*
X207873600Y-119968688D01*
X207873600Y-118635455D01*
X207875319Y-118618000D01*
X207873600Y-118600545D01*
X207873600Y-118600537D01*
X207868454Y-118548290D01*
X207848121Y-118481260D01*
X207815101Y-118419484D01*
X207770663Y-118365337D01*
X207757100Y-118354206D01*
X207374016Y-117971123D01*
X207384600Y-117917912D01*
X207384600Y-117844493D01*
X207913901Y-118373795D01*
X207913901Y-118373795D01*
G37*
X207913901Y-118373795D02*
X207913906Y-118373799D01*
X209159210Y-119619105D01*
X209170337Y-119632663D01*
X209183895Y-119643790D01*
X209183900Y-119643795D01*
X209205618Y-119661618D01*
X209224484Y-119677101D01*
X209258800Y-119695443D01*
X209258800Y-120066200D01*
X209480817Y-120066200D01*
X209521037Y-119968688D01*
X209478801Y-119852484D01*
X209414706Y-119746753D01*
X209407567Y-119735799D01*
X209422999Y-119737319D01*
X209440452Y-119735600D01*
X210428593Y-119735600D01*
X210458734Y-119780709D01*
X210546291Y-119868266D01*
X210649246Y-119937059D01*
X210763644Y-119984444D01*
X210885088Y-120008600D01*
X211008912Y-120008600D01*
X211130356Y-119984444D01*
X211244754Y-119937059D01*
X211347709Y-119868266D01*
X211353401Y-119862574D01*
X211353400Y-123045544D01*
X211351681Y-123063000D01*
X211353400Y-123080455D01*
X211353400Y-123080462D01*
X211356978Y-123116786D01*
X211358546Y-123132710D01*
X211362850Y-123146899D01*
X211378879Y-123199739D01*
X211411899Y-123261515D01*
X211456337Y-123315662D01*
X211469901Y-123326794D01*
X211739506Y-123596400D01*
X211602294Y-123596400D01*
X209686799Y-121680906D01*
X209675663Y-121667337D01*
X209621516Y-121622899D01*
X209559740Y-121589879D01*
X209492710Y-121569546D01*
X209468802Y-121567191D01*
X209468802Y-121414010D01*
X209478801Y-121397516D01*
X209521037Y-121281312D01*
X209480817Y-121183800D01*
X209258800Y-121183800D01*
X209258800Y-121203800D01*
X208561200Y-121203800D01*
X208561200Y-121183800D01*
X208339183Y-121183800D01*
X208298963Y-121281312D01*
X208341199Y-121397516D01*
X208351198Y-121414010D01*
X208351198Y-121564400D01*
X208173295Y-121564400D01*
X207873600Y-121264707D01*
X207873600Y-119968688D01*
X208298963Y-119968688D01*
X208339183Y-120066200D01*
X208561200Y-120066200D01*
X208561200Y-119641170D01*
X208479025Y-119633621D01*
X208405294Y-119746753D01*
X208341199Y-119852484D01*
X208298963Y-119968688D01*
X207873600Y-119968688D01*
X207873600Y-118635455D01*
X207875319Y-118618000D01*
X207873600Y-118600545D01*
X207873600Y-118600537D01*
X207868454Y-118548290D01*
X207848121Y-118481260D01*
X207815101Y-118419484D01*
X207770663Y-118365337D01*
X207757100Y-118354206D01*
X207374016Y-117971123D01*
X207384600Y-117917912D01*
X207384600Y-117844493D01*
X207913901Y-118373795D01*
G04 #@! TD*
M02*
