G04 #@! TF.GenerationSoftware,KiCad,Pcbnew,(5.1.2)-2*
G04 #@! TF.CreationDate,2019-08-19T00:47:59-07:00*
G04 #@! TF.ProjectId,Charger SubBoard 0-2,43686172-6765-4722-9053-7562426f6172,rev?*
G04 #@! TF.SameCoordinates,Original*
G04 #@! TF.FileFunction,Legend,Bot*
G04 #@! TF.FilePolarity,Positive*
%FSLAX46Y46*%
G04 Gerber Fmt 4.6, Leading zero omitted, Abs format (unit mm)*
G04 Created by KiCad (PCBNEW (5.1.2)-2) date 2019-08-19 00:47:59*
%MOMM*%
%LPD*%
G04 APERTURE LIST*
%ADD10C,0.254000*%
%ADD11C,0.381000*%
G04 APERTURE END LIST*
D10*
X144338523Y-58891714D02*
X143068523Y-58891714D01*
X144278047Y-59436000D02*
X144338523Y-59556952D01*
X144338523Y-59798857D01*
X144278047Y-59919809D01*
X144157095Y-59980285D01*
X144096619Y-59980285D01*
X143975666Y-59919809D01*
X143915190Y-59798857D01*
X143915190Y-59617428D01*
X143854714Y-59496476D01*
X143733761Y-59436000D01*
X143673285Y-59436000D01*
X143552333Y-59496476D01*
X143491857Y-59617428D01*
X143491857Y-59798857D01*
X143552333Y-59919809D01*
X144338523Y-60524571D02*
X143068523Y-60524571D01*
X144338523Y-61068857D02*
X143673285Y-61068857D01*
X143552333Y-61008380D01*
X143491857Y-60887428D01*
X143491857Y-60706000D01*
X143552333Y-60585047D01*
X143612809Y-60524571D01*
X144338523Y-62217904D02*
X143673285Y-62217904D01*
X143552333Y-62157428D01*
X143491857Y-62036476D01*
X143491857Y-61794571D01*
X143552333Y-61673619D01*
X144278047Y-62217904D02*
X144338523Y-62096952D01*
X144338523Y-61794571D01*
X144278047Y-61673619D01*
X144157095Y-61613142D01*
X144036142Y-61613142D01*
X143915190Y-61673619D01*
X143854714Y-61794571D01*
X143854714Y-62096952D01*
X143794238Y-62217904D01*
X144338523Y-63366952D02*
X143673285Y-63366952D01*
X143552333Y-63306476D01*
X143491857Y-63185523D01*
X143491857Y-62943619D01*
X143552333Y-62822666D01*
X144278047Y-63366952D02*
X144338523Y-63246000D01*
X144338523Y-62943619D01*
X144278047Y-62822666D01*
X144157095Y-62762190D01*
X144036142Y-62762190D01*
X143915190Y-62822666D01*
X143854714Y-62943619D01*
X143854714Y-63246000D01*
X143794238Y-63366952D01*
X143491857Y-63971714D02*
X144338523Y-63971714D01*
X143612809Y-63971714D02*
X143552333Y-64032190D01*
X143491857Y-64153142D01*
X143491857Y-64334571D01*
X143552333Y-64455523D01*
X143673285Y-64516000D01*
X144338523Y-64516000D01*
X143129000Y-66753619D02*
X143068523Y-66632666D01*
X143068523Y-66451238D01*
X143129000Y-66269809D01*
X143249952Y-66148857D01*
X143370904Y-66088380D01*
X143612809Y-66027904D01*
X143794238Y-66027904D01*
X144036142Y-66088380D01*
X144157095Y-66148857D01*
X144278047Y-66269809D01*
X144338523Y-66451238D01*
X144338523Y-66572190D01*
X144278047Y-66753619D01*
X144217571Y-66814095D01*
X143794238Y-66814095D01*
X143794238Y-66572190D01*
X144338523Y-67539809D02*
X144278047Y-67418857D01*
X144217571Y-67358380D01*
X144096619Y-67297904D01*
X143733761Y-67297904D01*
X143612809Y-67358380D01*
X143552333Y-67418857D01*
X143491857Y-67539809D01*
X143491857Y-67721238D01*
X143552333Y-67842190D01*
X143612809Y-67902666D01*
X143733761Y-67963142D01*
X144096619Y-67963142D01*
X144217571Y-67902666D01*
X144278047Y-67842190D01*
X144338523Y-67721238D01*
X144338523Y-67539809D01*
X143491857Y-68386476D02*
X144338523Y-68688857D01*
X143491857Y-68991238D01*
X143975666Y-70382190D02*
X143975666Y-70986952D01*
X144338523Y-70261238D02*
X143068523Y-70684571D01*
X144338523Y-71107904D01*
X143491857Y-72075523D02*
X144338523Y-72075523D01*
X143491857Y-71531238D02*
X144157095Y-71531238D01*
X144278047Y-71591714D01*
X144338523Y-71712666D01*
X144338523Y-71894095D01*
X144278047Y-72015047D01*
X144217571Y-72075523D01*
X143491857Y-73224571D02*
X144519952Y-73224571D01*
X144640904Y-73164095D01*
X144701380Y-73103619D01*
X144761857Y-72982666D01*
X144761857Y-72801238D01*
X144701380Y-72680285D01*
X144278047Y-73224571D02*
X144338523Y-73103619D01*
X144338523Y-72861714D01*
X144278047Y-72740761D01*
X144217571Y-72680285D01*
X144096619Y-72619809D01*
X143733761Y-72619809D01*
X143612809Y-72680285D01*
X143552333Y-72740761D01*
X143491857Y-72861714D01*
X143491857Y-73103619D01*
X143552333Y-73224571D01*
X143189476Y-74736476D02*
X143129000Y-74796952D01*
X143068523Y-74917904D01*
X143068523Y-75220285D01*
X143129000Y-75341238D01*
X143189476Y-75401714D01*
X143310428Y-75462190D01*
X143431380Y-75462190D01*
X143612809Y-75401714D01*
X144338523Y-74676000D01*
X144338523Y-75462190D01*
X143068523Y-76248380D02*
X143068523Y-76369333D01*
X143129000Y-76490285D01*
X143189476Y-76550761D01*
X143310428Y-76611238D01*
X143552333Y-76671714D01*
X143854714Y-76671714D01*
X144096619Y-76611238D01*
X144217571Y-76550761D01*
X144278047Y-76490285D01*
X144338523Y-76369333D01*
X144338523Y-76248380D01*
X144278047Y-76127428D01*
X144217571Y-76066952D01*
X144096619Y-76006476D01*
X143854714Y-75946000D01*
X143552333Y-75946000D01*
X143310428Y-76006476D01*
X143189476Y-76066952D01*
X143129000Y-76127428D01*
X143068523Y-76248380D01*
X144338523Y-77881238D02*
X144338523Y-77155523D01*
X144338523Y-77518380D02*
X143068523Y-77518380D01*
X143249952Y-77397428D01*
X143370904Y-77276476D01*
X143431380Y-77155523D01*
X144338523Y-78486000D02*
X144338523Y-78727904D01*
X144278047Y-78848857D01*
X144217571Y-78909333D01*
X144036142Y-79030285D01*
X143794238Y-79090761D01*
X143310428Y-79090761D01*
X143189476Y-79030285D01*
X143129000Y-78969809D01*
X143068523Y-78848857D01*
X143068523Y-78606952D01*
X143129000Y-78486000D01*
X143189476Y-78425523D01*
X143310428Y-78365047D01*
X143612809Y-78365047D01*
X143733761Y-78425523D01*
X143794238Y-78486000D01*
X143854714Y-78606952D01*
X143854714Y-78848857D01*
X143794238Y-78969809D01*
X143733761Y-79030285D01*
X143612809Y-79090761D01*
D11*
X141650357Y-59953071D02*
X141741071Y-59862357D01*
X141831785Y-59590214D01*
X141831785Y-59408785D01*
X141741071Y-59136642D01*
X141559642Y-58955214D01*
X141378214Y-58864500D01*
X141015357Y-58773785D01*
X140743214Y-58773785D01*
X140380357Y-58864500D01*
X140198928Y-58955214D01*
X140017500Y-59136642D01*
X139926785Y-59408785D01*
X139926785Y-59590214D01*
X140017500Y-59862357D01*
X140108214Y-59953071D01*
X141831785Y-60769500D02*
X139926785Y-60769500D01*
X141831785Y-61585928D02*
X140833928Y-61585928D01*
X140652500Y-61495214D01*
X140561785Y-61313785D01*
X140561785Y-61041642D01*
X140652500Y-60860214D01*
X140743214Y-60769500D01*
X141831785Y-63309500D02*
X140833928Y-63309500D01*
X140652500Y-63218785D01*
X140561785Y-63037357D01*
X140561785Y-62674500D01*
X140652500Y-62493071D01*
X141741071Y-63309500D02*
X141831785Y-63128071D01*
X141831785Y-62674500D01*
X141741071Y-62493071D01*
X141559642Y-62402357D01*
X141378214Y-62402357D01*
X141196785Y-62493071D01*
X141106071Y-62674500D01*
X141106071Y-63128071D01*
X141015357Y-63309500D01*
X141831785Y-64216642D02*
X140561785Y-64216642D01*
X140924642Y-64216642D02*
X140743214Y-64307357D01*
X140652500Y-64398071D01*
X140561785Y-64579500D01*
X140561785Y-64760928D01*
X140561785Y-66212357D02*
X142103928Y-66212357D01*
X142285357Y-66121642D01*
X142376071Y-66030928D01*
X142466785Y-65849500D01*
X142466785Y-65577357D01*
X142376071Y-65395928D01*
X141741071Y-66212357D02*
X141831785Y-66030928D01*
X141831785Y-65668071D01*
X141741071Y-65486642D01*
X141650357Y-65395928D01*
X141468928Y-65305214D01*
X140924642Y-65305214D01*
X140743214Y-65395928D01*
X140652500Y-65486642D01*
X140561785Y-65668071D01*
X140561785Y-66030928D01*
X140652500Y-66212357D01*
X141741071Y-67845214D02*
X141831785Y-67663785D01*
X141831785Y-67300928D01*
X141741071Y-67119500D01*
X141559642Y-67028785D01*
X140833928Y-67028785D01*
X140652500Y-67119500D01*
X140561785Y-67300928D01*
X140561785Y-67663785D01*
X140652500Y-67845214D01*
X140833928Y-67935928D01*
X141015357Y-67935928D01*
X141196785Y-67028785D01*
X141831785Y-68752357D02*
X140561785Y-68752357D01*
X140924642Y-68752357D02*
X140743214Y-68843071D01*
X140652500Y-68933785D01*
X140561785Y-69115214D01*
X140561785Y-69296642D01*
X141741071Y-71292357D02*
X141831785Y-71564500D01*
X141831785Y-72018071D01*
X141741071Y-72199500D01*
X141650357Y-72290214D01*
X141468928Y-72380928D01*
X141287500Y-72380928D01*
X141106071Y-72290214D01*
X141015357Y-72199500D01*
X140924642Y-72018071D01*
X140833928Y-71655214D01*
X140743214Y-71473785D01*
X140652500Y-71383071D01*
X140471071Y-71292357D01*
X140289642Y-71292357D01*
X140108214Y-71383071D01*
X140017500Y-71473785D01*
X139926785Y-71655214D01*
X139926785Y-72108785D01*
X140017500Y-72380928D01*
X140561785Y-74013785D02*
X141831785Y-74013785D01*
X140561785Y-73197357D02*
X141559642Y-73197357D01*
X141741071Y-73288071D01*
X141831785Y-73469500D01*
X141831785Y-73741642D01*
X141741071Y-73923071D01*
X141650357Y-74013785D01*
X141831785Y-74920928D02*
X139926785Y-74920928D01*
X140652500Y-74920928D02*
X140561785Y-75102357D01*
X140561785Y-75465214D01*
X140652500Y-75646642D01*
X140743214Y-75737357D01*
X140924642Y-75828071D01*
X141468928Y-75828071D01*
X141650357Y-75737357D01*
X141741071Y-75646642D01*
X141831785Y-75465214D01*
X141831785Y-75102357D01*
X141741071Y-74920928D01*
X140833928Y-77279500D02*
X140924642Y-77551642D01*
X141015357Y-77642357D01*
X141196785Y-77733071D01*
X141468928Y-77733071D01*
X141650357Y-77642357D01*
X141741071Y-77551642D01*
X141831785Y-77370214D01*
X141831785Y-76644500D01*
X139926785Y-76644500D01*
X139926785Y-77279500D01*
X140017500Y-77460928D01*
X140108214Y-77551642D01*
X140289642Y-77642357D01*
X140471071Y-77642357D01*
X140652500Y-77551642D01*
X140743214Y-77460928D01*
X140833928Y-77279500D01*
X140833928Y-76644500D01*
X141831785Y-78821642D02*
X141741071Y-78640214D01*
X141650357Y-78549500D01*
X141468928Y-78458785D01*
X140924642Y-78458785D01*
X140743214Y-78549500D01*
X140652500Y-78640214D01*
X140561785Y-78821642D01*
X140561785Y-79093785D01*
X140652500Y-79275214D01*
X140743214Y-79365928D01*
X140924642Y-79456642D01*
X141468928Y-79456642D01*
X141650357Y-79365928D01*
X141741071Y-79275214D01*
X141831785Y-79093785D01*
X141831785Y-78821642D01*
X141831785Y-81089500D02*
X140833928Y-81089500D01*
X140652500Y-80998785D01*
X140561785Y-80817357D01*
X140561785Y-80454500D01*
X140652500Y-80273071D01*
X141741071Y-81089500D02*
X141831785Y-80908071D01*
X141831785Y-80454500D01*
X141741071Y-80273071D01*
X141559642Y-80182357D01*
X141378214Y-80182357D01*
X141196785Y-80273071D01*
X141106071Y-80454500D01*
X141106071Y-80908071D01*
X141015357Y-81089500D01*
X141831785Y-81996642D02*
X140561785Y-81996642D01*
X140924642Y-81996642D02*
X140743214Y-82087357D01*
X140652500Y-82178071D01*
X140561785Y-82359500D01*
X140561785Y-82540928D01*
X141831785Y-83992357D02*
X139926785Y-83992357D01*
X141741071Y-83992357D02*
X141831785Y-83810928D01*
X141831785Y-83448071D01*
X141741071Y-83266642D01*
X141650357Y-83175928D01*
X141468928Y-83085214D01*
X140924642Y-83085214D01*
X140743214Y-83175928D01*
X140652500Y-83266642D01*
X140561785Y-83448071D01*
X140561785Y-83810928D01*
X140652500Y-83992357D01*
X139926785Y-86713785D02*
X139926785Y-86895214D01*
X140017500Y-87076642D01*
X140108214Y-87167357D01*
X140289642Y-87258071D01*
X140652500Y-87348785D01*
X141106071Y-87348785D01*
X141468928Y-87258071D01*
X141650357Y-87167357D01*
X141741071Y-87076642D01*
X141831785Y-86895214D01*
X141831785Y-86713785D01*
X141741071Y-86532357D01*
X141650357Y-86441642D01*
X141468928Y-86350928D01*
X141106071Y-86260214D01*
X140652500Y-86260214D01*
X140289642Y-86350928D01*
X140108214Y-86441642D01*
X140017500Y-86532357D01*
X139926785Y-86713785D01*
X141650357Y-88165214D02*
X141741071Y-88255928D01*
X141831785Y-88165214D01*
X141741071Y-88074500D01*
X141650357Y-88165214D01*
X141831785Y-88165214D01*
X140108214Y-88981642D02*
X140017500Y-89072357D01*
X139926785Y-89253785D01*
X139926785Y-89707357D01*
X140017500Y-89888785D01*
X140108214Y-89979500D01*
X140289642Y-90070214D01*
X140471071Y-90070214D01*
X140743214Y-89979500D01*
X141831785Y-88890928D01*
X141831785Y-90070214D01*
M02*
