M48
; DRILL file {KiCad (5.1.2)-2} date 8/19/2019 12:48:09 AM
; FORMAT={-:-/ absolute / inch / decimal}
; #@! TF.CreationDate,2019-08-19T00:48:09-07:00
; #@! TF.GenerationSoftware,Kicad,Pcbnew,(5.1.2)-2
; #@! TF.FileFunction,Plated,1,2,PTH
FMAT,2
INCH
T1C0.0120
T2C0.0394
%
G90
G05
T1
X5.495Y-4.125
X5.495Y-4.16
X5.495Y-4.195
X5.53Y-4.195
X5.565Y-4.195
X5.605Y-4.125
X5.605Y-4.16
X5.99Y-3.465
X5.99Y-3.57
X6.02Y-3.465
X6.02Y-3.57
X6.05Y-3.465
X6.05Y-3.57
X6.08Y-3.465
X6.08Y-3.57
X6.11Y-3.465
X6.11Y-3.57
X6.155Y-3.11
X6.205Y-2.6
X6.205Y-3.11
X6.205Y-3.14
X6.205Y-3.17
X6.215Y-3.37
X6.215Y-3.4
X6.22Y-3.24
X6.22Y-3.29
X6.23Y-3.835
X6.235Y-2.6
X6.245Y-3.37
X6.245Y-3.4
X6.245Y-3.43
X6.245Y-4.065
X6.255Y-3.03
X6.255Y-3.06
X6.31Y-4.065
X6.325Y-3.57
X6.35Y-3.225
X6.36Y-3.64
X6.36Y-3.795
X6.365Y-2.385
X6.365Y-2.6
X6.395Y-2.6
X6.395Y-3.61
X6.395Y-3.64
X6.395Y-3.675
X6.4Y-3.145
X6.41Y-3.4
X6.41Y-3.43
X6.415Y-2.71
X6.415Y-2.77
X6.4156Y-2.8094
X6.44Y-3.325
X6.44Y-3.4
X6.445Y-3.125
X6.445Y-3.085
X6.47Y-2.865
X6.48Y-2.565
T2
X6.15Y-2.675
X6.1Y-3.95
X6.35Y-4.25
X6.45Y-4.25
X5.95Y-2.2
X6.05Y-2.2
X6.15Y-2.2
X6.25Y-2.2
X6.1Y-3.65
X5.55Y-4.25
X5.65Y-4.25
X6.15Y-2.525
X6.4Y-3.95
X6.1Y-3.175
X6.35Y-2.2
X6.45Y-2.2
X5.85Y-3.7031
X5.85Y-3.9
X6.415Y-2.955
X5.675Y-3.6
X5.8Y-2.2
X6.25Y-3.95
X5.55Y-2.2
X5.65Y-2.2
T0
M30
