G04 #@! TF.GenerationSoftware,KiCad,Pcbnew,(5.1.2)-2*
G04 #@! TF.CreationDate,2019-08-19T00:47:59-07:00*
G04 #@! TF.ProjectId,Charger SubBoard 0-2,43686172-6765-4722-9053-7562426f6172,rev?*
G04 #@! TF.SameCoordinates,Original*
G04 #@! TF.FileFunction,Soldermask,Bot*
G04 #@! TF.FilePolarity,Negative*
%FSLAX46Y46*%
G04 Gerber Fmt 4.6, Leading zero omitted, Abs format (unit mm)*
G04 Created by KiCad (PCBNEW (5.1.2)-2) date 2019-08-19 00:47:59*
%MOMM*%
%LPD*%
G04 APERTURE LIST*
%ADD10C,0.100000*%
G04 APERTURE END LIST*
D10*
G36*
X164705400Y-108825400D02*
G01*
X162954600Y-108825400D01*
X162954600Y-107074600D01*
X164705400Y-107074600D01*
X164705400Y-108825400D01*
X164705400Y-108825400D01*
G37*
G36*
X161461611Y-107087267D02*
G01*
X161626619Y-107137322D01*
X161626622Y-107137323D01*
X161750392Y-107203480D01*
X161778703Y-107218612D01*
X161911996Y-107328004D01*
X162021388Y-107461297D01*
X162021390Y-107461301D01*
X162102677Y-107613378D01*
X162102678Y-107613381D01*
X162152733Y-107778389D01*
X162169635Y-107950000D01*
X162152733Y-108121611D01*
X162102678Y-108286619D01*
X162102677Y-108286622D01*
X162036520Y-108410392D01*
X162021388Y-108438703D01*
X161911996Y-108571996D01*
X161778703Y-108681388D01*
X161778699Y-108681390D01*
X161626622Y-108762677D01*
X161626619Y-108762678D01*
X161461611Y-108812733D01*
X161333003Y-108825400D01*
X161246997Y-108825400D01*
X161118389Y-108812733D01*
X160953381Y-108762678D01*
X160953378Y-108762677D01*
X160801301Y-108681390D01*
X160801297Y-108681388D01*
X160668004Y-108571996D01*
X160558612Y-108438703D01*
X160543480Y-108410392D01*
X160477323Y-108286622D01*
X160477322Y-108286619D01*
X160427267Y-108121611D01*
X160410365Y-107950000D01*
X160427267Y-107778389D01*
X160477322Y-107613381D01*
X160477323Y-107613378D01*
X160558610Y-107461301D01*
X160558612Y-107461297D01*
X160668004Y-107328004D01*
X160801297Y-107218612D01*
X160829608Y-107203480D01*
X160953378Y-107137323D01*
X160953381Y-107137322D01*
X161118389Y-107087267D01*
X161246997Y-107074600D01*
X161333003Y-107074600D01*
X161461611Y-107087267D01*
X161461611Y-107087267D01*
G37*
G36*
X141141611Y-107087267D02*
G01*
X141306619Y-107137322D01*
X141306622Y-107137323D01*
X141430392Y-107203480D01*
X141458703Y-107218612D01*
X141591996Y-107328004D01*
X141701388Y-107461297D01*
X141701390Y-107461301D01*
X141782677Y-107613378D01*
X141782678Y-107613381D01*
X141832733Y-107778389D01*
X141849635Y-107950000D01*
X141832733Y-108121611D01*
X141782678Y-108286619D01*
X141782677Y-108286622D01*
X141716520Y-108410392D01*
X141701388Y-108438703D01*
X141591996Y-108571996D01*
X141458703Y-108681388D01*
X141458699Y-108681390D01*
X141306622Y-108762677D01*
X141306619Y-108762678D01*
X141141611Y-108812733D01*
X141013003Y-108825400D01*
X140926997Y-108825400D01*
X140798389Y-108812733D01*
X140633381Y-108762678D01*
X140633378Y-108762677D01*
X140481301Y-108681390D01*
X140481297Y-108681388D01*
X140348004Y-108571996D01*
X140238612Y-108438703D01*
X140223480Y-108410392D01*
X140157323Y-108286622D01*
X140157322Y-108286619D01*
X140107267Y-108121611D01*
X140090365Y-107950000D01*
X140107267Y-107778389D01*
X140157322Y-107613381D01*
X140157323Y-107613378D01*
X140238610Y-107461301D01*
X140238612Y-107461297D01*
X140348004Y-107328004D01*
X140481297Y-107218612D01*
X140509608Y-107203480D01*
X140633378Y-107137323D01*
X140633381Y-107137322D01*
X140798389Y-107087267D01*
X140926997Y-107074600D01*
X141013003Y-107074600D01*
X141141611Y-107087267D01*
X141141611Y-107087267D01*
G37*
G36*
X144385400Y-108825400D02*
G01*
X142634600Y-108825400D01*
X142634600Y-107074600D01*
X144385400Y-107074600D01*
X144385400Y-108825400D01*
X144385400Y-108825400D01*
G37*
G36*
X159049098Y-99344005D02*
G01*
X159235708Y-99421302D01*
X159403652Y-99533518D01*
X159546482Y-99676348D01*
X159658698Y-99844292D01*
X159735995Y-100030902D01*
X159775400Y-100229006D01*
X159775400Y-100430994D01*
X159735995Y-100629098D01*
X159658698Y-100815708D01*
X159546482Y-100983652D01*
X159403652Y-101126482D01*
X159235708Y-101238698D01*
X159049098Y-101315995D01*
X158850994Y-101355400D01*
X158649006Y-101355400D01*
X158450902Y-101315995D01*
X158264292Y-101238698D01*
X158096348Y-101126482D01*
X157953518Y-100983652D01*
X157841302Y-100815708D01*
X157764005Y-100629098D01*
X157724600Y-100430994D01*
X157724600Y-100229006D01*
X157764005Y-100030902D01*
X157841302Y-99844292D01*
X157953518Y-99676348D01*
X158096348Y-99533518D01*
X158264292Y-99421302D01*
X158450902Y-99344005D01*
X158649006Y-99304600D01*
X158850994Y-99304600D01*
X159049098Y-99344005D01*
X159049098Y-99344005D01*
G37*
G36*
X155239098Y-99344005D02*
G01*
X155425708Y-99421302D01*
X155593652Y-99533518D01*
X155736482Y-99676348D01*
X155848698Y-99844292D01*
X155925995Y-100030902D01*
X155965400Y-100229006D01*
X155965400Y-100430994D01*
X155925995Y-100629098D01*
X155848698Y-100815708D01*
X155736482Y-100983652D01*
X155593652Y-101126482D01*
X155425708Y-101238698D01*
X155239098Y-101315995D01*
X155040994Y-101355400D01*
X154839006Y-101355400D01*
X154640902Y-101315995D01*
X154454292Y-101238698D01*
X154286348Y-101126482D01*
X154143518Y-100983652D01*
X154031302Y-100815708D01*
X153954005Y-100629098D01*
X153914600Y-100430994D01*
X153914600Y-100229006D01*
X153954005Y-100030902D01*
X154031302Y-99844292D01*
X154143518Y-99676348D01*
X154286348Y-99533518D01*
X154454292Y-99421302D01*
X154640902Y-99344005D01*
X154839006Y-99304600D01*
X155040994Y-99304600D01*
X155239098Y-99344005D01*
X155239098Y-99344005D01*
G37*
G36*
X162859098Y-99344005D02*
G01*
X163045708Y-99421302D01*
X163213652Y-99533518D01*
X163356482Y-99676348D01*
X163468698Y-99844292D01*
X163545995Y-100030902D01*
X163585400Y-100229006D01*
X163585400Y-100430994D01*
X163545995Y-100629098D01*
X163468698Y-100815708D01*
X163356482Y-100983652D01*
X163213652Y-101126482D01*
X163045708Y-101238698D01*
X162859098Y-101315995D01*
X162660994Y-101355400D01*
X162459006Y-101355400D01*
X162260902Y-101315995D01*
X162074292Y-101238698D01*
X161906348Y-101126482D01*
X161763518Y-100983652D01*
X161651302Y-100815708D01*
X161574005Y-100629098D01*
X161534600Y-100430994D01*
X161534600Y-100229006D01*
X161574005Y-100030902D01*
X161651302Y-99844292D01*
X161763518Y-99676348D01*
X161906348Y-99533518D01*
X162074292Y-99421302D01*
X162260902Y-99344005D01*
X162459006Y-99304600D01*
X162660994Y-99304600D01*
X162859098Y-99344005D01*
X162859098Y-99344005D01*
G37*
G36*
X149615400Y-100085400D02*
G01*
X147564600Y-100085400D01*
X147564600Y-98034600D01*
X149615400Y-98034600D01*
X149615400Y-100085400D01*
X149615400Y-100085400D01*
G37*
G36*
X148889098Y-93074005D02*
G01*
X149075708Y-93151302D01*
X149243652Y-93263518D01*
X149386482Y-93406348D01*
X149498698Y-93574292D01*
X149575995Y-93760902D01*
X149615400Y-93959006D01*
X149615400Y-94160994D01*
X149575995Y-94359098D01*
X149498698Y-94545708D01*
X149386482Y-94713652D01*
X149243652Y-94856482D01*
X149075708Y-94968698D01*
X148889098Y-95045995D01*
X148690994Y-95085400D01*
X148489006Y-95085400D01*
X148290902Y-95045995D01*
X148104292Y-94968698D01*
X147936348Y-94856482D01*
X147793518Y-94713652D01*
X147681302Y-94545708D01*
X147604005Y-94359098D01*
X147564600Y-94160994D01*
X147564600Y-93959006D01*
X147604005Y-93760902D01*
X147681302Y-93574292D01*
X147793518Y-93406348D01*
X147936348Y-93263518D01*
X148104292Y-93151302D01*
X148290902Y-93074005D01*
X148489006Y-93034600D01*
X148690994Y-93034600D01*
X148889098Y-93074005D01*
X148889098Y-93074005D01*
G37*
G36*
X155239098Y-91724005D02*
G01*
X155425708Y-91801302D01*
X155593652Y-91913518D01*
X155736482Y-92056348D01*
X155848698Y-92224292D01*
X155925995Y-92410902D01*
X155965400Y-92609006D01*
X155965400Y-92810994D01*
X155925995Y-93009098D01*
X155848698Y-93195708D01*
X155736482Y-93363652D01*
X155593652Y-93506482D01*
X155425708Y-93618698D01*
X155239098Y-93695995D01*
X155040994Y-93735400D01*
X154839006Y-93735400D01*
X154640902Y-93695995D01*
X154454292Y-93618698D01*
X154286348Y-93506482D01*
X154143518Y-93363652D01*
X154031302Y-93195708D01*
X153954005Y-93009098D01*
X153914600Y-92810994D01*
X153914600Y-92609006D01*
X153954005Y-92410902D01*
X154031302Y-92224292D01*
X154143518Y-92056348D01*
X154286348Y-91913518D01*
X154454292Y-91801302D01*
X154640902Y-91724005D01*
X154839006Y-91684600D01*
X155040994Y-91684600D01*
X155239098Y-91724005D01*
X155239098Y-91724005D01*
G37*
G36*
X144444098Y-90454005D02*
G01*
X144630708Y-90531302D01*
X144798652Y-90643518D01*
X144941482Y-90786348D01*
X145053698Y-90954292D01*
X145130995Y-91140902D01*
X145170400Y-91339006D01*
X145170400Y-91540994D01*
X145130995Y-91739098D01*
X145053698Y-91925708D01*
X144941482Y-92093652D01*
X144798652Y-92236482D01*
X144630708Y-92348698D01*
X144444098Y-92425995D01*
X144245994Y-92465400D01*
X144044006Y-92465400D01*
X143845902Y-92425995D01*
X143659292Y-92348698D01*
X143491348Y-92236482D01*
X143348518Y-92093652D01*
X143236302Y-91925708D01*
X143159005Y-91739098D01*
X143119600Y-91540994D01*
X143119600Y-91339006D01*
X143159005Y-91140902D01*
X143236302Y-90954292D01*
X143348518Y-90786348D01*
X143491348Y-90643518D01*
X143659292Y-90531302D01*
X143845902Y-90454005D01*
X144044006Y-90414600D01*
X144245994Y-90414600D01*
X144444098Y-90454005D01*
X144444098Y-90454005D01*
G37*
G36*
X155239098Y-79659005D02*
G01*
X155425708Y-79736302D01*
X155593652Y-79848518D01*
X155736482Y-79991348D01*
X155848698Y-80159292D01*
X155925995Y-80345902D01*
X155965400Y-80544006D01*
X155965400Y-80745994D01*
X155925995Y-80944098D01*
X155848698Y-81130708D01*
X155736482Y-81298652D01*
X155593652Y-81441482D01*
X155425708Y-81553698D01*
X155239098Y-81630995D01*
X155040994Y-81670400D01*
X154839006Y-81670400D01*
X154640902Y-81630995D01*
X154454292Y-81553698D01*
X154286348Y-81441482D01*
X154143518Y-81298652D01*
X154031302Y-81130708D01*
X153954005Y-80944098D01*
X153914600Y-80745994D01*
X153914600Y-80544006D01*
X153954005Y-80345902D01*
X154031302Y-80159292D01*
X154143518Y-79991348D01*
X154286348Y-79848518D01*
X154454292Y-79736302D01*
X154640902Y-79659005D01*
X154839006Y-79619600D01*
X155040994Y-79619600D01*
X155239098Y-79659005D01*
X155239098Y-79659005D01*
G37*
G36*
X163240098Y-74071005D02*
G01*
X163426708Y-74148302D01*
X163594652Y-74260518D01*
X163737482Y-74403348D01*
X163849698Y-74571292D01*
X163926995Y-74757902D01*
X163966400Y-74956006D01*
X163966400Y-75157994D01*
X163926995Y-75356098D01*
X163849698Y-75542708D01*
X163737482Y-75710652D01*
X163594652Y-75853482D01*
X163426708Y-75965698D01*
X163240098Y-76042995D01*
X163041994Y-76082400D01*
X162840006Y-76082400D01*
X162641902Y-76042995D01*
X162455292Y-75965698D01*
X162287348Y-75853482D01*
X162144518Y-75710652D01*
X162032302Y-75542708D01*
X161955005Y-75356098D01*
X161915600Y-75157994D01*
X161915600Y-74956006D01*
X161955005Y-74757902D01*
X162032302Y-74571292D01*
X162144518Y-74403348D01*
X162287348Y-74260518D01*
X162455292Y-74148302D01*
X162641902Y-74071005D01*
X162840006Y-74031600D01*
X163041994Y-74031600D01*
X163240098Y-74071005D01*
X163240098Y-74071005D01*
G37*
G36*
X156509098Y-66959005D02*
G01*
X156695708Y-67036302D01*
X156863652Y-67148518D01*
X157006482Y-67291348D01*
X157118698Y-67459292D01*
X157195995Y-67645902D01*
X157235400Y-67844006D01*
X157235400Y-68045994D01*
X157195995Y-68244098D01*
X157118698Y-68430708D01*
X157006482Y-68598652D01*
X156863652Y-68741482D01*
X156695708Y-68853698D01*
X156509098Y-68930995D01*
X156310994Y-68970400D01*
X156109006Y-68970400D01*
X155910902Y-68930995D01*
X155724292Y-68853698D01*
X155556348Y-68741482D01*
X155413518Y-68598652D01*
X155301302Y-68430708D01*
X155224005Y-68244098D01*
X155184600Y-68045994D01*
X155184600Y-67844006D01*
X155224005Y-67645902D01*
X155301302Y-67459292D01*
X155413518Y-67291348D01*
X155556348Y-67148518D01*
X155724292Y-67036302D01*
X155910902Y-66959005D01*
X156109006Y-66919600D01*
X156310994Y-66919600D01*
X156509098Y-66959005D01*
X156509098Y-66959005D01*
G37*
G36*
X156509098Y-63149005D02*
G01*
X156695708Y-63226302D01*
X156863652Y-63338518D01*
X157006482Y-63481348D01*
X157118698Y-63649292D01*
X157195995Y-63835902D01*
X157235400Y-64034006D01*
X157235400Y-64235994D01*
X157195995Y-64434098D01*
X157118698Y-64620708D01*
X157006482Y-64788652D01*
X156863652Y-64931482D01*
X156695708Y-65043698D01*
X156509098Y-65120995D01*
X156310994Y-65160400D01*
X156109006Y-65160400D01*
X155910902Y-65120995D01*
X155724292Y-65043698D01*
X155556348Y-64931482D01*
X155413518Y-64788652D01*
X155301302Y-64620708D01*
X155224005Y-64434098D01*
X155184600Y-64235994D01*
X155184600Y-64034006D01*
X155224005Y-63835902D01*
X155301302Y-63649292D01*
X155413518Y-63481348D01*
X155556348Y-63338518D01*
X155724292Y-63226302D01*
X155910902Y-63149005D01*
X156109006Y-63109600D01*
X156310994Y-63109600D01*
X156509098Y-63149005D01*
X156509098Y-63149005D01*
G37*
G36*
X147619098Y-54894005D02*
G01*
X147805708Y-54971302D01*
X147973652Y-55083518D01*
X148116482Y-55226348D01*
X148228698Y-55394292D01*
X148305995Y-55580902D01*
X148345400Y-55779006D01*
X148345400Y-55980994D01*
X148305995Y-56179098D01*
X148228698Y-56365708D01*
X148116482Y-56533652D01*
X147973652Y-56676482D01*
X147805708Y-56788698D01*
X147619098Y-56865995D01*
X147420994Y-56905400D01*
X147219006Y-56905400D01*
X147020902Y-56865995D01*
X146834292Y-56788698D01*
X146666348Y-56676482D01*
X146523518Y-56533652D01*
X146411302Y-56365708D01*
X146334005Y-56179098D01*
X146294600Y-55980994D01*
X146294600Y-55779006D01*
X146334005Y-55580902D01*
X146411302Y-55394292D01*
X146523518Y-55226348D01*
X146666348Y-55083518D01*
X146834292Y-54971302D01*
X147020902Y-54894005D01*
X147219006Y-54854600D01*
X147420994Y-54854600D01*
X147619098Y-54894005D01*
X147619098Y-54894005D01*
G37*
G36*
X164705400Y-56755400D02*
G01*
X162954600Y-56755400D01*
X162954600Y-55004600D01*
X164705400Y-55004600D01*
X164705400Y-56755400D01*
X164705400Y-56755400D01*
G37*
G36*
X153841611Y-55017267D02*
G01*
X154006619Y-55067322D01*
X154006622Y-55067323D01*
X154036924Y-55083520D01*
X154158703Y-55148612D01*
X154291996Y-55258004D01*
X154401388Y-55391297D01*
X154401390Y-55391301D01*
X154482677Y-55543378D01*
X154482678Y-55543381D01*
X154532733Y-55708389D01*
X154549635Y-55880000D01*
X154532733Y-56051611D01*
X154494060Y-56179098D01*
X154482677Y-56216622D01*
X154416520Y-56340392D01*
X154401388Y-56368703D01*
X154291996Y-56501996D01*
X154158703Y-56611388D01*
X154158699Y-56611390D01*
X154006622Y-56692677D01*
X154006619Y-56692678D01*
X153841611Y-56742733D01*
X153713003Y-56755400D01*
X153626997Y-56755400D01*
X153498389Y-56742733D01*
X153333381Y-56692678D01*
X153333378Y-56692677D01*
X153181301Y-56611390D01*
X153181297Y-56611388D01*
X153048004Y-56501996D01*
X152938612Y-56368703D01*
X152923480Y-56340392D01*
X152857323Y-56216622D01*
X152845940Y-56179098D01*
X152807267Y-56051611D01*
X152790365Y-55880000D01*
X152807267Y-55708389D01*
X152857322Y-55543381D01*
X152857323Y-55543378D01*
X152938610Y-55391301D01*
X152938612Y-55391297D01*
X153048004Y-55258004D01*
X153181297Y-55148612D01*
X153303076Y-55083520D01*
X153333378Y-55067323D01*
X153333381Y-55067322D01*
X153498389Y-55017267D01*
X153626997Y-55004600D01*
X153713003Y-55004600D01*
X153841611Y-55017267D01*
X153841611Y-55017267D01*
G37*
G36*
X156381611Y-55017267D02*
G01*
X156546619Y-55067322D01*
X156546622Y-55067323D01*
X156576924Y-55083520D01*
X156698703Y-55148612D01*
X156831996Y-55258004D01*
X156941388Y-55391297D01*
X156941390Y-55391301D01*
X157022677Y-55543378D01*
X157022678Y-55543381D01*
X157072733Y-55708389D01*
X157089635Y-55880000D01*
X157072733Y-56051611D01*
X157034060Y-56179098D01*
X157022677Y-56216622D01*
X156956520Y-56340392D01*
X156941388Y-56368703D01*
X156831996Y-56501996D01*
X156698703Y-56611388D01*
X156698699Y-56611390D01*
X156546622Y-56692677D01*
X156546619Y-56692678D01*
X156381611Y-56742733D01*
X156253003Y-56755400D01*
X156166997Y-56755400D01*
X156038389Y-56742733D01*
X155873381Y-56692678D01*
X155873378Y-56692677D01*
X155721301Y-56611390D01*
X155721297Y-56611388D01*
X155588004Y-56501996D01*
X155478612Y-56368703D01*
X155463480Y-56340392D01*
X155397323Y-56216622D01*
X155385940Y-56179098D01*
X155347267Y-56051611D01*
X155330365Y-55880000D01*
X155347267Y-55708389D01*
X155397322Y-55543381D01*
X155397323Y-55543378D01*
X155478610Y-55391301D01*
X155478612Y-55391297D01*
X155588004Y-55258004D01*
X155721297Y-55148612D01*
X155843076Y-55083520D01*
X155873378Y-55067323D01*
X155873381Y-55067322D01*
X156038389Y-55017267D01*
X156166997Y-55004600D01*
X156253003Y-55004600D01*
X156381611Y-55017267D01*
X156381611Y-55017267D01*
G37*
G36*
X159625400Y-56755400D02*
G01*
X157874600Y-56755400D01*
X157874600Y-55004600D01*
X159625400Y-55004600D01*
X159625400Y-56755400D01*
X159625400Y-56755400D01*
G37*
G36*
X141141611Y-55017267D02*
G01*
X141306619Y-55067322D01*
X141306622Y-55067323D01*
X141336924Y-55083520D01*
X141458703Y-55148612D01*
X141591996Y-55258004D01*
X141701388Y-55391297D01*
X141701390Y-55391301D01*
X141782677Y-55543378D01*
X141782678Y-55543381D01*
X141832733Y-55708389D01*
X141849635Y-55880000D01*
X141832733Y-56051611D01*
X141794060Y-56179098D01*
X141782677Y-56216622D01*
X141716520Y-56340392D01*
X141701388Y-56368703D01*
X141591996Y-56501996D01*
X141458703Y-56611388D01*
X141458699Y-56611390D01*
X141306622Y-56692677D01*
X141306619Y-56692678D01*
X141141611Y-56742733D01*
X141013003Y-56755400D01*
X140926997Y-56755400D01*
X140798389Y-56742733D01*
X140633381Y-56692678D01*
X140633378Y-56692677D01*
X140481301Y-56611390D01*
X140481297Y-56611388D01*
X140348004Y-56501996D01*
X140238612Y-56368703D01*
X140223480Y-56340392D01*
X140157323Y-56216622D01*
X140145940Y-56179098D01*
X140107267Y-56051611D01*
X140090365Y-55880000D01*
X140107267Y-55708389D01*
X140157322Y-55543381D01*
X140157323Y-55543378D01*
X140238610Y-55391301D01*
X140238612Y-55391297D01*
X140348004Y-55258004D01*
X140481297Y-55148612D01*
X140603076Y-55083520D01*
X140633378Y-55067323D01*
X140633381Y-55067322D01*
X140798389Y-55017267D01*
X140926997Y-55004600D01*
X141013003Y-55004600D01*
X141141611Y-55017267D01*
X141141611Y-55017267D01*
G37*
G36*
X144385400Y-56755400D02*
G01*
X142634600Y-56755400D01*
X142634600Y-55004600D01*
X144385400Y-55004600D01*
X144385400Y-56755400D01*
X144385400Y-56755400D01*
G37*
G36*
X161461611Y-55017267D02*
G01*
X161626619Y-55067322D01*
X161626622Y-55067323D01*
X161656924Y-55083520D01*
X161778703Y-55148612D01*
X161911996Y-55258004D01*
X162021388Y-55391297D01*
X162021390Y-55391301D01*
X162102677Y-55543378D01*
X162102678Y-55543381D01*
X162152733Y-55708389D01*
X162169635Y-55880000D01*
X162152733Y-56051611D01*
X162114060Y-56179098D01*
X162102677Y-56216622D01*
X162036520Y-56340392D01*
X162021388Y-56368703D01*
X161911996Y-56501996D01*
X161778703Y-56611388D01*
X161778699Y-56611390D01*
X161626622Y-56692677D01*
X161626619Y-56692678D01*
X161461611Y-56742733D01*
X161333003Y-56755400D01*
X161246997Y-56755400D01*
X161118389Y-56742733D01*
X160953381Y-56692678D01*
X160953378Y-56692677D01*
X160801301Y-56611390D01*
X160801297Y-56611388D01*
X160668004Y-56501996D01*
X160558612Y-56368703D01*
X160543480Y-56340392D01*
X160477323Y-56216622D01*
X160465940Y-56179098D01*
X160427267Y-56051611D01*
X160410365Y-55880000D01*
X160427267Y-55708389D01*
X160477322Y-55543381D01*
X160477323Y-55543378D01*
X160558610Y-55391301D01*
X160558612Y-55391297D01*
X160668004Y-55258004D01*
X160801297Y-55148612D01*
X160923076Y-55083520D01*
X160953378Y-55067323D01*
X160953381Y-55067322D01*
X161118389Y-55017267D01*
X161246997Y-55004600D01*
X161333003Y-55004600D01*
X161461611Y-55017267D01*
X161461611Y-55017267D01*
G37*
G36*
X151301611Y-55017267D02*
G01*
X151466619Y-55067322D01*
X151466622Y-55067323D01*
X151496924Y-55083520D01*
X151618703Y-55148612D01*
X151751996Y-55258004D01*
X151861388Y-55391297D01*
X151861390Y-55391301D01*
X151942677Y-55543378D01*
X151942678Y-55543381D01*
X151992733Y-55708389D01*
X152009635Y-55880000D01*
X151992733Y-56051611D01*
X151954060Y-56179098D01*
X151942677Y-56216622D01*
X151876520Y-56340392D01*
X151861388Y-56368703D01*
X151751996Y-56501996D01*
X151618703Y-56611388D01*
X151618699Y-56611390D01*
X151466622Y-56692677D01*
X151466619Y-56692678D01*
X151301611Y-56742733D01*
X151173003Y-56755400D01*
X151086997Y-56755400D01*
X150958389Y-56742733D01*
X150793381Y-56692678D01*
X150793378Y-56692677D01*
X150641301Y-56611390D01*
X150641297Y-56611388D01*
X150508004Y-56501996D01*
X150398612Y-56368703D01*
X150383480Y-56340392D01*
X150317323Y-56216622D01*
X150305940Y-56179098D01*
X150267267Y-56051611D01*
X150250365Y-55880000D01*
X150267267Y-55708389D01*
X150317322Y-55543381D01*
X150317323Y-55543378D01*
X150398610Y-55391301D01*
X150398612Y-55391297D01*
X150508004Y-55258004D01*
X150641297Y-55148612D01*
X150763076Y-55083520D01*
X150793378Y-55067323D01*
X150793381Y-55067322D01*
X150958389Y-55017267D01*
X151086997Y-55004600D01*
X151173003Y-55004600D01*
X151301611Y-55017267D01*
X151301611Y-55017267D01*
G37*
M02*
