G04 #@! TF.GenerationSoftware,KiCad,Pcbnew,(5.1.2)-2*
G04 #@! TF.CreationDate,2019-08-19T00:47:59-07:00*
G04 #@! TF.ProjectId,Charger SubBoard 0-2,43686172-6765-4722-9053-7562426f6172,rev?*
G04 #@! TF.SameCoordinates,Original*
G04 #@! TF.FileFunction,Legend,Top*
G04 #@! TF.FilePolarity,Positive*
%FSLAX46Y46*%
G04 Gerber Fmt 4.6, Leading zero omitted, Abs format (unit mm)*
G04 Created by KiCad (PCBNEW (5.1.2)-2) date 2019-08-19 00:47:59*
%MOMM*%
%LPD*%
G04 APERTURE LIST*
%ADD10C,0.254000*%
%ADD11C,0.120000*%
%ADD12C,0.200000*%
%ADD13C,0.150000*%
G04 APERTURE END LIST*
D10*
X164543619Y-103728761D02*
X164543619Y-103535238D01*
X164592000Y-103438476D01*
X164688761Y-103341714D01*
X164882285Y-103293333D01*
X165220952Y-103293333D01*
X165414476Y-103341714D01*
X165511238Y-103438476D01*
X165559619Y-103535238D01*
X165559619Y-103728761D01*
X165511238Y-103825523D01*
X165414476Y-103922285D01*
X165220952Y-103970666D01*
X164882285Y-103970666D01*
X164688761Y-103922285D01*
X164592000Y-103825523D01*
X164543619Y-103728761D01*
X165656380Y-103099809D02*
X165656380Y-102325714D01*
X165027428Y-102083809D02*
X165027428Y-101745142D01*
X165559619Y-101600000D02*
X165559619Y-102083809D01*
X164543619Y-102083809D01*
X164543619Y-101600000D01*
X165559619Y-101164571D02*
X164543619Y-101164571D01*
X165559619Y-100584000D01*
X164543619Y-100584000D01*
X165656380Y-100342095D02*
X165656380Y-99568000D01*
X165027428Y-98987428D02*
X165027428Y-99326095D01*
X165559619Y-99326095D02*
X164543619Y-99326095D01*
X164543619Y-98842285D01*
X165027428Y-98455238D02*
X165027428Y-98116571D01*
X165559619Y-97971428D02*
X165559619Y-98455238D01*
X164543619Y-98455238D01*
X164543619Y-97971428D01*
X164543619Y-97681142D02*
X164543619Y-97100571D01*
X165559619Y-97390857D02*
X164543619Y-97390857D01*
X158750000Y-108077000D02*
X158750000Y-101854000D01*
X157861000Y-109220000D02*
X158750000Y-108077000D01*
X154940000Y-107061000D02*
X154940000Y-101854000D01*
X156415619Y-112382904D02*
X156415619Y-112189380D01*
X156464000Y-112092619D01*
X156560761Y-111995857D01*
X156754285Y-111947476D01*
X157092952Y-111947476D01*
X157286476Y-111995857D01*
X157383238Y-112092619D01*
X157431619Y-112189380D01*
X157431619Y-112382904D01*
X157383238Y-112479666D01*
X157286476Y-112576428D01*
X157092952Y-112624809D01*
X156754285Y-112624809D01*
X156560761Y-112576428D01*
X156464000Y-112479666D01*
X156415619Y-112382904D01*
X157528380Y-111753952D02*
X157528380Y-110979857D01*
X156464000Y-110205761D02*
X156415619Y-110302523D01*
X156415619Y-110447666D01*
X156464000Y-110592809D01*
X156560761Y-110689571D01*
X156657523Y-110737952D01*
X156851047Y-110786333D01*
X156996190Y-110786333D01*
X157189714Y-110737952D01*
X157286476Y-110689571D01*
X157383238Y-110592809D01*
X157431619Y-110447666D01*
X157431619Y-110350904D01*
X157383238Y-110205761D01*
X157334857Y-110157380D01*
X156996190Y-110157380D01*
X156996190Y-110350904D01*
X157141333Y-109770333D02*
X157141333Y-109286523D01*
X157431619Y-109867095D02*
X156415619Y-109528428D01*
X157431619Y-109189761D01*
X156415619Y-108996238D02*
X156415619Y-108415666D01*
X157431619Y-108705952D02*
X156415619Y-108705952D01*
X156899428Y-108077000D02*
X156899428Y-107738333D01*
X157431619Y-107593190D02*
X157431619Y-108077000D01*
X156415619Y-108077000D01*
X156415619Y-107593190D01*
X155399619Y-113193285D02*
X154383619Y-113193285D01*
X154383619Y-112806238D01*
X154432000Y-112709476D01*
X154480380Y-112661095D01*
X154577142Y-112612714D01*
X154722285Y-112612714D01*
X154819047Y-112661095D01*
X154867428Y-112709476D01*
X154915809Y-112806238D01*
X154915809Y-113193285D01*
X155399619Y-111596714D02*
X154915809Y-111935380D01*
X155399619Y-112177285D02*
X154383619Y-112177285D01*
X154383619Y-111790238D01*
X154432000Y-111693476D01*
X154480380Y-111645095D01*
X154577142Y-111596714D01*
X154722285Y-111596714D01*
X154819047Y-111645095D01*
X154867428Y-111693476D01*
X154915809Y-111790238D01*
X154915809Y-112177285D01*
X154867428Y-111161285D02*
X154867428Y-110822619D01*
X155399619Y-110677476D02*
X155399619Y-111161285D01*
X154383619Y-111161285D01*
X154383619Y-110677476D01*
X155012571Y-110242047D02*
X155012571Y-109467952D01*
X154383619Y-109129285D02*
X155399619Y-108790619D01*
X154383619Y-108451952D01*
X154383619Y-107919761D02*
X154383619Y-107726238D01*
X154432000Y-107629476D01*
X154528761Y-107532714D01*
X154722285Y-107484333D01*
X155060952Y-107484333D01*
X155254476Y-107532714D01*
X155351238Y-107629476D01*
X155399619Y-107726238D01*
X155399619Y-107919761D01*
X155351238Y-108016523D01*
X155254476Y-108113285D01*
X155060952Y-108161666D01*
X154722285Y-108161666D01*
X154528761Y-108113285D01*
X154432000Y-108016523D01*
X154383619Y-107919761D01*
X142143238Y-91802857D02*
X142191619Y-91657714D01*
X142191619Y-91415809D01*
X142143238Y-91319047D01*
X142094857Y-91270666D01*
X141998095Y-91222285D01*
X141901333Y-91222285D01*
X141804571Y-91270666D01*
X141756190Y-91319047D01*
X141707809Y-91415809D01*
X141659428Y-91609333D01*
X141611047Y-91706095D01*
X141562666Y-91754476D01*
X141465904Y-91802857D01*
X141369142Y-91802857D01*
X141272380Y-91754476D01*
X141224000Y-91706095D01*
X141175619Y-91609333D01*
X141175619Y-91367428D01*
X141224000Y-91222285D01*
X141175619Y-90883619D02*
X142191619Y-90641714D01*
X141465904Y-90448190D01*
X142191619Y-90254666D01*
X141175619Y-90012761D01*
X157407428Y-93072857D02*
X157407428Y-93411523D01*
X157939619Y-93411523D02*
X156923619Y-93411523D01*
X156923619Y-92927714D01*
X157407428Y-92202000D02*
X157455809Y-92056857D01*
X157504190Y-92008476D01*
X157600952Y-91960095D01*
X157746095Y-91960095D01*
X157842857Y-92008476D01*
X157891238Y-92056857D01*
X157939619Y-92153619D01*
X157939619Y-92540666D01*
X156923619Y-92540666D01*
X156923619Y-92202000D01*
X156972000Y-92105238D01*
X157020380Y-92056857D01*
X157117142Y-92008476D01*
X157213904Y-92008476D01*
X157310666Y-92056857D01*
X157359047Y-92105238D01*
X157407428Y-92202000D01*
X157407428Y-92540666D01*
X157177619Y-85168619D02*
X156161619Y-85168619D01*
X157129238Y-84733190D02*
X157177619Y-84588047D01*
X157177619Y-84346142D01*
X157129238Y-84249380D01*
X157080857Y-84201000D01*
X156984095Y-84152619D01*
X156887333Y-84152619D01*
X156790571Y-84201000D01*
X156742190Y-84249380D01*
X156693809Y-84346142D01*
X156645428Y-84539666D01*
X156597047Y-84636428D01*
X156548666Y-84684809D01*
X156451904Y-84733190D01*
X156355142Y-84733190D01*
X156258380Y-84684809D01*
X156210000Y-84636428D01*
X156161619Y-84539666D01*
X156161619Y-84297761D01*
X156210000Y-84152619D01*
X156645428Y-83717190D02*
X156645428Y-83378523D01*
X157177619Y-83233380D02*
X157177619Y-83717190D01*
X156161619Y-83717190D01*
X156161619Y-83233380D01*
X157177619Y-82797952D02*
X156161619Y-82797952D01*
X157177619Y-82217380D01*
X156161619Y-82217380D01*
X165559619Y-77796571D02*
X165075809Y-78135238D01*
X165559619Y-78377142D02*
X164543619Y-78377142D01*
X164543619Y-77990095D01*
X164592000Y-77893333D01*
X164640380Y-77844952D01*
X164737142Y-77796571D01*
X164882285Y-77796571D01*
X164979047Y-77844952D01*
X165027428Y-77893333D01*
X165075809Y-77990095D01*
X165075809Y-78377142D01*
X165027428Y-77361142D02*
X165027428Y-77022476D01*
X165559619Y-76877333D02*
X165559619Y-77361142D01*
X164543619Y-77361142D01*
X164543619Y-76877333D01*
X165027428Y-76103238D02*
X165027428Y-76441904D01*
X165559619Y-76441904D02*
X164543619Y-76441904D01*
X164543619Y-75958095D01*
X158907238Y-70007238D02*
X158955619Y-69862095D01*
X158955619Y-69620190D01*
X158907238Y-69523428D01*
X158858857Y-69475047D01*
X158762095Y-69426666D01*
X158665333Y-69426666D01*
X158568571Y-69475047D01*
X158520190Y-69523428D01*
X158471809Y-69620190D01*
X158423428Y-69813714D01*
X158375047Y-69910476D01*
X158326666Y-69958857D01*
X158229904Y-70007238D01*
X158133142Y-70007238D01*
X158036380Y-69958857D01*
X157988000Y-69910476D01*
X157939619Y-69813714D01*
X157939619Y-69571809D01*
X157988000Y-69426666D01*
X158568571Y-68991238D02*
X158568571Y-68217142D01*
X159034238Y-63784238D02*
X159082619Y-63639095D01*
X159082619Y-63397190D01*
X159034238Y-63300428D01*
X158985857Y-63252047D01*
X158889095Y-63203666D01*
X158792333Y-63203666D01*
X158695571Y-63252047D01*
X158647190Y-63300428D01*
X158598809Y-63397190D01*
X158550428Y-63590714D01*
X158502047Y-63687476D01*
X158453666Y-63735857D01*
X158356904Y-63784238D01*
X158260142Y-63784238D01*
X158163380Y-63735857D01*
X158115000Y-63687476D01*
X158066619Y-63590714D01*
X158066619Y-63348809D01*
X158115000Y-63203666D01*
X158695571Y-62768238D02*
X158695571Y-61994142D01*
X159082619Y-62381190D02*
X158308523Y-62381190D01*
X147779619Y-53872190D02*
X146763619Y-53872190D01*
X146763619Y-53485142D01*
X146812000Y-53388380D01*
X146860380Y-53340000D01*
X146957142Y-53291619D01*
X147102285Y-53291619D01*
X147199047Y-53340000D01*
X147247428Y-53388380D01*
X147295809Y-53485142D01*
X147295809Y-53872190D01*
X146812000Y-52324000D02*
X146763619Y-52420761D01*
X146763619Y-52565904D01*
X146812000Y-52711047D01*
X146908761Y-52807809D01*
X147005523Y-52856190D01*
X147199047Y-52904571D01*
X147344190Y-52904571D01*
X147537714Y-52856190D01*
X147634476Y-52807809D01*
X147731238Y-52711047D01*
X147779619Y-52565904D01*
X147779619Y-52469142D01*
X147731238Y-52324000D01*
X147682857Y-52275619D01*
X147344190Y-52275619D01*
X147344190Y-52469142D01*
X147489333Y-51888571D02*
X147489333Y-51404761D01*
X147779619Y-51985333D02*
X146763619Y-51646666D01*
X147779619Y-51308000D01*
X146763619Y-51114476D02*
X146763619Y-50533904D01*
X147779619Y-50824190D02*
X146763619Y-50824190D01*
X147247428Y-50195238D02*
X147247428Y-49856571D01*
X147779619Y-49711428D02*
X147779619Y-50195238D01*
X146763619Y-50195238D01*
X146763619Y-49711428D01*
X163134523Y-113144904D02*
X163134523Y-112358714D01*
X163618333Y-112782047D01*
X163618333Y-112600619D01*
X163678809Y-112479666D01*
X163739285Y-112419190D01*
X163860238Y-112358714D01*
X164162619Y-112358714D01*
X164283571Y-112419190D01*
X164344047Y-112479666D01*
X164404523Y-112600619D01*
X164404523Y-112963476D01*
X164344047Y-113084428D01*
X164283571Y-113144904D01*
X163557857Y-111935380D02*
X164404523Y-111633000D01*
X163557857Y-111330619D01*
X163134523Y-110967761D02*
X163134523Y-110181571D01*
X163618333Y-110604904D01*
X163618333Y-110423476D01*
X163678809Y-110302523D01*
X163739285Y-110242047D01*
X163860238Y-110181571D01*
X164162619Y-110181571D01*
X164283571Y-110242047D01*
X164344047Y-110302523D01*
X164404523Y-110423476D01*
X164404523Y-110786333D01*
X164344047Y-110907285D01*
X164283571Y-110967761D01*
X160655000Y-112727619D02*
X160594523Y-112848571D01*
X160594523Y-113030000D01*
X160655000Y-113211428D01*
X160775952Y-113332380D01*
X160896904Y-113392857D01*
X161138809Y-113453333D01*
X161320238Y-113453333D01*
X161562142Y-113392857D01*
X161683095Y-113332380D01*
X161804047Y-113211428D01*
X161864523Y-113030000D01*
X161864523Y-112909047D01*
X161804047Y-112727619D01*
X161743571Y-112667142D01*
X161320238Y-112667142D01*
X161320238Y-112909047D01*
X161864523Y-112122857D02*
X160594523Y-112122857D01*
X161864523Y-111397142D01*
X160594523Y-111397142D01*
X161864523Y-110792380D02*
X160594523Y-110792380D01*
X160594523Y-110490000D01*
X160655000Y-110308571D01*
X160775952Y-110187619D01*
X160896904Y-110127142D01*
X161138809Y-110066666D01*
X161320238Y-110066666D01*
X161562142Y-110127142D01*
X161683095Y-110187619D01*
X161804047Y-110308571D01*
X161864523Y-110490000D01*
X161864523Y-110792380D01*
X142814523Y-112213571D02*
X144084523Y-111790238D01*
X142814523Y-111366904D01*
X142814523Y-110701666D02*
X142814523Y-110459761D01*
X142875000Y-110338809D01*
X142995952Y-110217857D01*
X143237857Y-110157380D01*
X143661190Y-110157380D01*
X143903095Y-110217857D01*
X144024047Y-110338809D01*
X144084523Y-110459761D01*
X144084523Y-110701666D01*
X144024047Y-110822619D01*
X143903095Y-110943571D01*
X143661190Y-111004047D01*
X143237857Y-111004047D01*
X142995952Y-110943571D01*
X142875000Y-110822619D01*
X142814523Y-110701666D01*
X140335000Y-112727619D02*
X140274523Y-112848571D01*
X140274523Y-113030000D01*
X140335000Y-113211428D01*
X140455952Y-113332380D01*
X140576904Y-113392857D01*
X140818809Y-113453333D01*
X141000238Y-113453333D01*
X141242142Y-113392857D01*
X141363095Y-113332380D01*
X141484047Y-113211428D01*
X141544523Y-113030000D01*
X141544523Y-112909047D01*
X141484047Y-112727619D01*
X141423571Y-112667142D01*
X141000238Y-112667142D01*
X141000238Y-112909047D01*
X141544523Y-112122857D02*
X140274523Y-112122857D01*
X141544523Y-111397142D01*
X140274523Y-111397142D01*
X141544523Y-110792380D02*
X140274523Y-110792380D01*
X140274523Y-110490000D01*
X140335000Y-110308571D01*
X140455952Y-110187619D01*
X140576904Y-110127142D01*
X140818809Y-110066666D01*
X141000238Y-110066666D01*
X141242142Y-110127142D01*
X141363095Y-110187619D01*
X141484047Y-110308571D01*
X141544523Y-110490000D01*
X141544523Y-110792380D01*
X160401000Y-53594000D02*
X164592000Y-53594000D01*
X163134523Y-52886428D02*
X161864523Y-52886428D01*
X163255476Y-52584047D02*
X163255476Y-51616428D01*
X163134523Y-51314047D02*
X161864523Y-51314047D01*
X163134523Y-50709285D02*
X161864523Y-50709285D01*
X163134523Y-49983571D01*
X161864523Y-49983571D01*
X159324523Y-53684714D02*
X158054523Y-53684714D01*
X158054523Y-53200904D01*
X158115000Y-53079952D01*
X158175476Y-53019476D01*
X158296428Y-52959000D01*
X158477857Y-52959000D01*
X158598809Y-53019476D01*
X158659285Y-53079952D01*
X158719761Y-53200904D01*
X158719761Y-53684714D01*
X159445476Y-52717095D02*
X159445476Y-51749476D01*
X158659285Y-51023761D02*
X158719761Y-50842333D01*
X158780238Y-50781857D01*
X158901190Y-50721380D01*
X159082619Y-50721380D01*
X159203571Y-50781857D01*
X159264047Y-50842333D01*
X159324523Y-50963285D01*
X159324523Y-51447095D01*
X158054523Y-51447095D01*
X158054523Y-51023761D01*
X158115000Y-50902809D01*
X158175476Y-50842333D01*
X158296428Y-50781857D01*
X158417380Y-50781857D01*
X158538333Y-50842333D01*
X158598809Y-50902809D01*
X158659285Y-51023761D01*
X158659285Y-51447095D01*
X158719761Y-49935190D02*
X159324523Y-49935190D01*
X158054523Y-50358523D02*
X158719761Y-49935190D01*
X158054523Y-49511857D01*
X156784523Y-53485142D02*
X155514523Y-53485142D01*
X156784523Y-52275619D02*
X156784523Y-52880380D01*
X155514523Y-52880380D01*
X156784523Y-51852285D02*
X155514523Y-51852285D01*
X156784523Y-51247523D02*
X155514523Y-51247523D01*
X156421666Y-50824190D01*
X155514523Y-50400857D01*
X156784523Y-50400857D01*
X152974523Y-53303714D02*
X152974523Y-53061809D01*
X153035000Y-52940857D01*
X153155952Y-52819904D01*
X153397857Y-52759428D01*
X153821190Y-52759428D01*
X154063095Y-52819904D01*
X154184047Y-52940857D01*
X154244523Y-53061809D01*
X154244523Y-53303714D01*
X154184047Y-53424666D01*
X154063095Y-53545619D01*
X153821190Y-53606095D01*
X153397857Y-53606095D01*
X153155952Y-53545619D01*
X153035000Y-53424666D01*
X152974523Y-53303714D01*
X153579285Y-52215142D02*
X153579285Y-51791809D01*
X154244523Y-51610380D02*
X154244523Y-52215142D01*
X152974523Y-52215142D01*
X152974523Y-51610380D01*
X154244523Y-51066095D02*
X152974523Y-51066095D01*
X154244523Y-50340380D01*
X152974523Y-50340380D01*
X151704523Y-52880380D02*
X151099761Y-53303714D01*
X151704523Y-53606095D02*
X150434523Y-53606095D01*
X150434523Y-53122285D01*
X150495000Y-53001333D01*
X150555476Y-52940857D01*
X150676428Y-52880380D01*
X150857857Y-52880380D01*
X150978809Y-52940857D01*
X151039285Y-53001333D01*
X151099761Y-53122285D01*
X151099761Y-53606095D01*
X150434523Y-52336095D02*
X151462619Y-52336095D01*
X151583571Y-52275619D01*
X151644047Y-52215142D01*
X151704523Y-52094190D01*
X151704523Y-51852285D01*
X151644047Y-51731333D01*
X151583571Y-51670857D01*
X151462619Y-51610380D01*
X150434523Y-51610380D01*
X151704523Y-51005619D02*
X150434523Y-51005619D01*
X151704523Y-50279904D01*
X150434523Y-50279904D01*
X142814523Y-53587952D02*
X144084523Y-53164619D01*
X142814523Y-52741285D01*
X144084523Y-52317952D02*
X142814523Y-52317952D01*
X144084523Y-51713190D02*
X142814523Y-51713190D01*
X144084523Y-50987476D01*
X142814523Y-50987476D01*
X140335000Y-52910619D02*
X140274523Y-53031571D01*
X140274523Y-53213000D01*
X140335000Y-53394428D01*
X140455952Y-53515380D01*
X140576904Y-53575857D01*
X140818809Y-53636333D01*
X141000238Y-53636333D01*
X141242142Y-53575857D01*
X141363095Y-53515380D01*
X141484047Y-53394428D01*
X141544523Y-53213000D01*
X141544523Y-53092047D01*
X141484047Y-52910619D01*
X141423571Y-52850142D01*
X141000238Y-52850142D01*
X141000238Y-53092047D01*
X141544523Y-52305857D02*
X140274523Y-52305857D01*
X141544523Y-51580142D01*
X140274523Y-51580142D01*
X141544523Y-50975380D02*
X140274523Y-50975380D01*
X140274523Y-50673000D01*
X140335000Y-50491571D01*
X140455952Y-50370619D01*
X140576904Y-50310142D01*
X140818809Y-50249666D01*
X141000238Y-50249666D01*
X141242142Y-50310142D01*
X141363095Y-50370619D01*
X141484047Y-50491571D01*
X141544523Y-50673000D01*
X141544523Y-50975380D01*
D11*
G04 #@! TO.C,R21*
X164340000Y-70656267D02*
X164340000Y-70313733D01*
X163320000Y-70656267D02*
X163320000Y-70313733D01*
G04 #@! TO.C,C11*
X162435000Y-70656267D02*
X162435000Y-70313733D01*
X161415000Y-70656267D02*
X161415000Y-70313733D01*
D12*
G04 #@! TO.C,L1*
X144070000Y-78699999D02*
X141570000Y-78700000D01*
X141570000Y-73700001D02*
X144070000Y-73700001D01*
X141570000Y-71950000D02*
X141570000Y-73700001D01*
X141570000Y-71950000D02*
G75*
G02X142320000Y-71200000I750000J0D01*
G01*
X152320000Y-71200000D02*
X142320000Y-71200000D01*
X152320000Y-71200000D02*
G75*
G02X153070000Y-71950000I0J-750000D01*
G01*
X153070000Y-73700000D02*
X153070000Y-71950000D01*
X150569999Y-73700001D02*
X153070000Y-73700000D01*
X153070000Y-78699999D02*
X150569999Y-78700000D01*
X153070000Y-80450000D02*
X153070000Y-78699999D01*
X153070000Y-80450000D02*
G75*
G02X152320000Y-81200000I-750000J0D01*
G01*
X142320000Y-81200000D02*
X152320000Y-81200000D01*
X142320000Y-81200000D02*
G75*
G02X141570000Y-80450000I0J750000D01*
G01*
X141570000Y-78700000D02*
X141570000Y-80450000D01*
X153070000Y-80450000D02*
X153070000Y-78699999D01*
X141570000Y-73700001D02*
X144070000Y-73700001D01*
X141570000Y-71950000D02*
X141570000Y-73700001D01*
X141570000Y-71950000D02*
G75*
G02X142320000Y-71200000I750000J0D01*
G01*
X152320000Y-71200000D02*
X142320000Y-71200000D01*
X152320000Y-71200000D02*
G75*
G02X153070000Y-71950000I0J-750000D01*
G01*
X153070000Y-73700000D02*
X153070000Y-71950000D01*
X150569999Y-73700001D02*
X153070000Y-73700000D01*
X153070000Y-78699999D02*
X150569999Y-78700000D01*
X153070000Y-80450000D02*
X153070000Y-78699999D01*
X153070000Y-80450000D02*
G75*
G02X152320000Y-81200000I-750000J0D01*
G01*
X142320000Y-81200000D02*
X152320000Y-81200000D01*
X142320000Y-81200000D02*
G75*
G02X141570000Y-80450000I0J750000D01*
G01*
X141570000Y-78700000D02*
X141570000Y-80450000D01*
X144070000Y-78699999D02*
X141570000Y-78700000D01*
D11*
G04 #@! TO.C,C7*
X145215000Y-101539646D02*
X146215000Y-101539646D01*
X145715000Y-102039646D02*
X145715000Y-101039646D01*
X147991000Y-91479000D02*
X149189000Y-91479000D01*
X147728000Y-91519000D02*
X149452000Y-91519000D01*
X147528000Y-91559000D02*
X149652000Y-91559000D01*
X147360000Y-91599000D02*
X149820000Y-91599000D01*
X147212000Y-91639000D02*
X149968000Y-91639000D01*
X147080000Y-91679000D02*
X150100000Y-91679000D01*
X146960000Y-91719000D02*
X150220000Y-91719000D01*
X146848000Y-91759000D02*
X150332000Y-91759000D01*
X146744000Y-91799000D02*
X150436000Y-91799000D01*
X146646000Y-91839000D02*
X150534000Y-91839000D01*
X146553000Y-91879000D02*
X150627000Y-91879000D01*
X146465000Y-91919000D02*
X150715000Y-91919000D01*
X146381000Y-91959000D02*
X150799000Y-91959000D01*
X146301000Y-91999000D02*
X150879000Y-91999000D01*
X146225000Y-92039000D02*
X150955000Y-92039000D01*
X146151000Y-92079000D02*
X151029000Y-92079000D01*
X146080000Y-92119000D02*
X151100000Y-92119000D01*
X146011000Y-92159000D02*
X151169000Y-92159000D01*
X145945000Y-92199000D02*
X151235000Y-92199000D01*
X145881000Y-92239000D02*
X151299000Y-92239000D01*
X145820000Y-92279000D02*
X151360000Y-92279000D01*
X145760000Y-92319000D02*
X151420000Y-92319000D01*
X145701000Y-92359000D02*
X151479000Y-92359000D01*
X145645000Y-92399000D02*
X151535000Y-92399000D01*
X145590000Y-92439000D02*
X151590000Y-92439000D01*
X145536000Y-92479000D02*
X151644000Y-92479000D01*
X145484000Y-92519000D02*
X151696000Y-92519000D01*
X145434000Y-92559000D02*
X151746000Y-92559000D01*
X145384000Y-92599000D02*
X151796000Y-92599000D01*
X145336000Y-92639000D02*
X151844000Y-92639000D01*
X145289000Y-92679000D02*
X151891000Y-92679000D01*
X145243000Y-92719000D02*
X151937000Y-92719000D01*
X145198000Y-92759000D02*
X151982000Y-92759000D01*
X145154000Y-92799000D02*
X152026000Y-92799000D01*
X149831000Y-92839000D02*
X152068000Y-92839000D01*
X145112000Y-92839000D02*
X147349000Y-92839000D01*
X149831000Y-92879000D02*
X152110000Y-92879000D01*
X145070000Y-92879000D02*
X147349000Y-92879000D01*
X149831000Y-92919000D02*
X152151000Y-92919000D01*
X145029000Y-92919000D02*
X147349000Y-92919000D01*
X149831000Y-92959000D02*
X152191000Y-92959000D01*
X144989000Y-92959000D02*
X147349000Y-92959000D01*
X149831000Y-92999000D02*
X152230000Y-92999000D01*
X144950000Y-92999000D02*
X147349000Y-92999000D01*
X149831000Y-93039000D02*
X152269000Y-93039000D01*
X144911000Y-93039000D02*
X147349000Y-93039000D01*
X149831000Y-93079000D02*
X152306000Y-93079000D01*
X144874000Y-93079000D02*
X147349000Y-93079000D01*
X149831000Y-93119000D02*
X152343000Y-93119000D01*
X144837000Y-93119000D02*
X147349000Y-93119000D01*
X149831000Y-93159000D02*
X152379000Y-93159000D01*
X144801000Y-93159000D02*
X147349000Y-93159000D01*
X149831000Y-93199000D02*
X152414000Y-93199000D01*
X144766000Y-93199000D02*
X147349000Y-93199000D01*
X149831000Y-93239000D02*
X152448000Y-93239000D01*
X144732000Y-93239000D02*
X147349000Y-93239000D01*
X149831000Y-93279000D02*
X152482000Y-93279000D01*
X144698000Y-93279000D02*
X147349000Y-93279000D01*
X149831000Y-93319000D02*
X152515000Y-93319000D01*
X144665000Y-93319000D02*
X147349000Y-93319000D01*
X149831000Y-93359000D02*
X152547000Y-93359000D01*
X144633000Y-93359000D02*
X147349000Y-93359000D01*
X149831000Y-93399000D02*
X152579000Y-93399000D01*
X144601000Y-93399000D02*
X147349000Y-93399000D01*
X149831000Y-93439000D02*
X152610000Y-93439000D01*
X144570000Y-93439000D02*
X147349000Y-93439000D01*
X149831000Y-93479000D02*
X152640000Y-93479000D01*
X144540000Y-93479000D02*
X147349000Y-93479000D01*
X149831000Y-93519000D02*
X152670000Y-93519000D01*
X144510000Y-93519000D02*
X147349000Y-93519000D01*
X149831000Y-93559000D02*
X152700000Y-93559000D01*
X144480000Y-93559000D02*
X147349000Y-93559000D01*
X149831000Y-93599000D02*
X152728000Y-93599000D01*
X144452000Y-93599000D02*
X147349000Y-93599000D01*
X149831000Y-93639000D02*
X152756000Y-93639000D01*
X144424000Y-93639000D02*
X147349000Y-93639000D01*
X149831000Y-93679000D02*
X152784000Y-93679000D01*
X144396000Y-93679000D02*
X147349000Y-93679000D01*
X149831000Y-93719000D02*
X152811000Y-93719000D01*
X144369000Y-93719000D02*
X147349000Y-93719000D01*
X149831000Y-93759000D02*
X152837000Y-93759000D01*
X144343000Y-93759000D02*
X147349000Y-93759000D01*
X149831000Y-93799000D02*
X152863000Y-93799000D01*
X144317000Y-93799000D02*
X147349000Y-93799000D01*
X149831000Y-93839000D02*
X152888000Y-93839000D01*
X144292000Y-93839000D02*
X147349000Y-93839000D01*
X149831000Y-93879000D02*
X152913000Y-93879000D01*
X144267000Y-93879000D02*
X147349000Y-93879000D01*
X149831000Y-93919000D02*
X152937000Y-93919000D01*
X144243000Y-93919000D02*
X147349000Y-93919000D01*
X149831000Y-93959000D02*
X152961000Y-93959000D01*
X144219000Y-93959000D02*
X147349000Y-93959000D01*
X149831000Y-93999000D02*
X152985000Y-93999000D01*
X144195000Y-93999000D02*
X147349000Y-93999000D01*
X149831000Y-94039000D02*
X153007000Y-94039000D01*
X144173000Y-94039000D02*
X147349000Y-94039000D01*
X149831000Y-94079000D02*
X153030000Y-94079000D01*
X144150000Y-94079000D02*
X147349000Y-94079000D01*
X149831000Y-94119000D02*
X153052000Y-94119000D01*
X144128000Y-94119000D02*
X147349000Y-94119000D01*
X149831000Y-94159000D02*
X153073000Y-94159000D01*
X144107000Y-94159000D02*
X147349000Y-94159000D01*
X149831000Y-94199000D02*
X153094000Y-94199000D01*
X144086000Y-94199000D02*
X147349000Y-94199000D01*
X149831000Y-94239000D02*
X153115000Y-94239000D01*
X144065000Y-94239000D02*
X147349000Y-94239000D01*
X149831000Y-94279000D02*
X153135000Y-94279000D01*
X144045000Y-94279000D02*
X147349000Y-94279000D01*
X149831000Y-94319000D02*
X153154000Y-94319000D01*
X144026000Y-94319000D02*
X147349000Y-94319000D01*
X149831000Y-94359000D02*
X153174000Y-94359000D01*
X144006000Y-94359000D02*
X147349000Y-94359000D01*
X149831000Y-94399000D02*
X153193000Y-94399000D01*
X143987000Y-94399000D02*
X147349000Y-94399000D01*
X149831000Y-94439000D02*
X153211000Y-94439000D01*
X143969000Y-94439000D02*
X147349000Y-94439000D01*
X149831000Y-94479000D02*
X153229000Y-94479000D01*
X143951000Y-94479000D02*
X147349000Y-94479000D01*
X149831000Y-94519000D02*
X153247000Y-94519000D01*
X143933000Y-94519000D02*
X147349000Y-94519000D01*
X149831000Y-94559000D02*
X153264000Y-94559000D01*
X143916000Y-94559000D02*
X147349000Y-94559000D01*
X149831000Y-94599000D02*
X153280000Y-94599000D01*
X143900000Y-94599000D02*
X147349000Y-94599000D01*
X149831000Y-94639000D02*
X153297000Y-94639000D01*
X143883000Y-94639000D02*
X147349000Y-94639000D01*
X149831000Y-94679000D02*
X153313000Y-94679000D01*
X143867000Y-94679000D02*
X147349000Y-94679000D01*
X149831000Y-94719000D02*
X153328000Y-94719000D01*
X143852000Y-94719000D02*
X147349000Y-94719000D01*
X149831000Y-94759000D02*
X153344000Y-94759000D01*
X143836000Y-94759000D02*
X147349000Y-94759000D01*
X149831000Y-94799000D02*
X153358000Y-94799000D01*
X143822000Y-94799000D02*
X147349000Y-94799000D01*
X149831000Y-94839000D02*
X153373000Y-94839000D01*
X143807000Y-94839000D02*
X147349000Y-94839000D01*
X149831000Y-94879000D02*
X153387000Y-94879000D01*
X143793000Y-94879000D02*
X147349000Y-94879000D01*
X149831000Y-94919000D02*
X153401000Y-94919000D01*
X143779000Y-94919000D02*
X147349000Y-94919000D01*
X149831000Y-94959000D02*
X153414000Y-94959000D01*
X143766000Y-94959000D02*
X147349000Y-94959000D01*
X149831000Y-94999000D02*
X153427000Y-94999000D01*
X143753000Y-94999000D02*
X147349000Y-94999000D01*
X149831000Y-95039000D02*
X153440000Y-95039000D01*
X143740000Y-95039000D02*
X147349000Y-95039000D01*
X149831000Y-95079000D02*
X153452000Y-95079000D01*
X143728000Y-95079000D02*
X147349000Y-95079000D01*
X149831000Y-95119000D02*
X153464000Y-95119000D01*
X143716000Y-95119000D02*
X147349000Y-95119000D01*
X149831000Y-95159000D02*
X153475000Y-95159000D01*
X143705000Y-95159000D02*
X147349000Y-95159000D01*
X149831000Y-95199000D02*
X153487000Y-95199000D01*
X143693000Y-95199000D02*
X147349000Y-95199000D01*
X149831000Y-95239000D02*
X153497000Y-95239000D01*
X143683000Y-95239000D02*
X147349000Y-95239000D01*
X149831000Y-95279000D02*
X153508000Y-95279000D01*
X143672000Y-95279000D02*
X147349000Y-95279000D01*
X143662000Y-95319000D02*
X153518000Y-95319000D01*
X143652000Y-95359000D02*
X153528000Y-95359000D01*
X143643000Y-95399000D02*
X153537000Y-95399000D01*
X143634000Y-95439000D02*
X153546000Y-95439000D01*
X143625000Y-95479000D02*
X153555000Y-95479000D01*
X143616000Y-95519000D02*
X153564000Y-95519000D01*
X143608000Y-95559000D02*
X153572000Y-95559000D01*
X143600000Y-95599000D02*
X153580000Y-95599000D01*
X143593000Y-95639000D02*
X153587000Y-95639000D01*
X143586000Y-95679000D02*
X153594000Y-95679000D01*
X143579000Y-95719000D02*
X153601000Y-95719000D01*
X143572000Y-95759000D02*
X153608000Y-95759000D01*
X143566000Y-95799000D02*
X153614000Y-95799000D01*
X143560000Y-95839000D02*
X153620000Y-95839000D01*
X143555000Y-95880000D02*
X153625000Y-95880000D01*
X143550000Y-95920000D02*
X153630000Y-95920000D01*
X143545000Y-95960000D02*
X153635000Y-95960000D01*
X143540000Y-96000000D02*
X153640000Y-96000000D01*
X143536000Y-96040000D02*
X153644000Y-96040000D01*
X143532000Y-96080000D02*
X153648000Y-96080000D01*
X143528000Y-96120000D02*
X153652000Y-96120000D01*
X143525000Y-96160000D02*
X153655000Y-96160000D01*
X143522000Y-96200000D02*
X153658000Y-96200000D01*
X143520000Y-96240000D02*
X153660000Y-96240000D01*
X143517000Y-96280000D02*
X153663000Y-96280000D01*
X143515000Y-96320000D02*
X153665000Y-96320000D01*
X143513000Y-96360000D02*
X153667000Y-96360000D01*
X143512000Y-96400000D02*
X153668000Y-96400000D01*
X143511000Y-96440000D02*
X153669000Y-96440000D01*
X143510000Y-96480000D02*
X153670000Y-96480000D01*
X143510000Y-96520000D02*
X153670000Y-96520000D01*
X143510000Y-96560000D02*
X153670000Y-96560000D01*
X153710000Y-96560000D02*
G75*
G03X153710000Y-96560000I-5120000J0D01*
G01*
D13*
G04 #@! TO.C,U2*
X163480000Y-82985000D02*
X163480000Y-88610000D01*
X157930000Y-84110000D02*
X157930000Y-88610000D01*
D11*
G04 #@! TO.C,U1*
X161555000Y-64430000D02*
X159105000Y-64430000D01*
X159755000Y-67650000D02*
X161555000Y-67650000D01*
D13*
G04 #@! TO.C,TP10*
X160150000Y-100330000D02*
G75*
G03X160150000Y-100330000I-1400000J0D01*
G01*
G04 #@! TO.C,TP9*
X164341000Y-75057000D02*
G75*
G03X164341000Y-75057000I-1400000J0D01*
G01*
G04 #@! TO.C,TP8*
X156340000Y-100330000D02*
G75*
G03X156340000Y-100330000I-1400000J0D01*
G01*
G04 #@! TO.C,TP7*
X163960000Y-100330000D02*
G75*
G03X163960000Y-100330000I-1400000J0D01*
G01*
G04 #@! TO.C,TP6*
X156340000Y-92710000D02*
G75*
G03X156340000Y-92710000I-1400000J0D01*
G01*
G04 #@! TO.C,TP5*
X156340000Y-80645000D02*
G75*
G03X156340000Y-80645000I-1400000J0D01*
G01*
G04 #@! TO.C,TP4*
X145545000Y-91440000D02*
G75*
G03X145545000Y-91440000I-1400000J0D01*
G01*
G04 #@! TO.C,TP3*
X157610000Y-67945000D02*
G75*
G03X157610000Y-67945000I-1400000J0D01*
G01*
G04 #@! TO.C,TP2*
X157610000Y-64135000D02*
G75*
G03X157610000Y-64135000I-1400000J0D01*
G01*
G04 #@! TO.C,TP1*
X148720000Y-55880000D02*
G75*
G03X148720000Y-55880000I-1400000J0D01*
G01*
D11*
G04 #@! TO.C,R20*
X160826267Y-94740000D02*
X160483733Y-94740000D01*
X160826267Y-95760000D02*
X160483733Y-95760000D01*
G04 #@! TO.C,R19*
X151005000Y-104311267D02*
X151005000Y-103968733D01*
X149985000Y-104311267D02*
X149985000Y-103968733D01*
G04 #@! TO.C,R18*
X153795000Y-103968733D02*
X153795000Y-104311267D01*
X154815000Y-103968733D02*
X154815000Y-104311267D01*
G04 #@! TO.C,R17*
X158875000Y-103968733D02*
X158875000Y-104311267D01*
X159895000Y-103968733D02*
X159895000Y-104311267D01*
G04 #@! TO.C,R16*
X161800000Y-104311267D02*
X161800000Y-103968733D01*
X160780000Y-104311267D02*
X160780000Y-103968733D01*
G04 #@! TO.C,R15*
X164975000Y-84626267D02*
X164975000Y-84283733D01*
X163955000Y-84626267D02*
X163955000Y-84283733D01*
G04 #@! TO.C,R14*
X156970000Y-96348733D02*
X156970000Y-96691267D01*
X157990000Y-96348733D02*
X157990000Y-96691267D01*
G04 #@! TO.C,R13*
X156085000Y-96691267D02*
X156085000Y-96348733D01*
X155065000Y-96691267D02*
X155065000Y-96348733D01*
G04 #@! TO.C,R12*
X155380000Y-88412064D02*
X155380000Y-84307936D01*
X151960000Y-88412064D02*
X151960000Y-84307936D01*
G04 #@! TO.C,R11*
X163955000Y-88093733D02*
X163955000Y-88436267D01*
X164975000Y-88093733D02*
X164975000Y-88436267D01*
G04 #@! TO.C,R10*
X159260000Y-80181267D02*
X159260000Y-79838733D01*
X158240000Y-80181267D02*
X158240000Y-79838733D01*
G04 #@! TO.C,R9*
X154110000Y-68092064D02*
X154110000Y-63987936D01*
X150690000Y-68092064D02*
X150690000Y-63987936D01*
G04 #@! TO.C,R8*
X161165000Y-80181267D02*
X161165000Y-79838733D01*
X160145000Y-80181267D02*
X160145000Y-79838733D01*
G04 #@! TO.C,R7*
X163070000Y-80181267D02*
X163070000Y-79838733D01*
X162050000Y-80181267D02*
X162050000Y-79838733D01*
G04 #@! TO.C,R6*
X149030000Y-68092064D02*
X149030000Y-63987936D01*
X145610000Y-68092064D02*
X145610000Y-63987936D01*
G04 #@! TO.C,R5*
X152910000Y-59861267D02*
X152910000Y-59518733D01*
X151890000Y-59861267D02*
X151890000Y-59518733D01*
G04 #@! TO.C,R4*
X140530000Y-63987936D02*
X140530000Y-68092064D01*
X143950000Y-63987936D02*
X143950000Y-68092064D01*
G04 #@! TO.C,R3*
X158240000Y-59518733D02*
X158240000Y-59861267D01*
X159260000Y-59518733D02*
X159260000Y-59861267D01*
G04 #@! TO.C,R2*
X151005000Y-59861267D02*
X151005000Y-59518733D01*
X149985000Y-59861267D02*
X149985000Y-59518733D01*
G04 #@! TO.C,R1*
X161165000Y-59861267D02*
X161165000Y-59518733D01*
X160145000Y-59861267D02*
X160145000Y-59518733D01*
G04 #@! TO.C,Q5*
X145685000Y-105775000D02*
X145685000Y-105440000D01*
X145685000Y-102840000D02*
X145685000Y-102505000D01*
X148955000Y-102840000D02*
X148955000Y-102505000D01*
X148955000Y-102505000D02*
X145685000Y-102505000D01*
X149190000Y-105775000D02*
X145685000Y-105775000D01*
G04 #@! TO.C,Q4*
X156085000Y-102560000D02*
X157545000Y-102560000D01*
X156085000Y-105720000D02*
X158245000Y-105720000D01*
X156085000Y-105720000D02*
X156085000Y-104790000D01*
X156085000Y-102560000D02*
X156085000Y-103490000D01*
G04 #@! TO.C,Q3*
X147250000Y-83180000D02*
X148350000Y-83180000D01*
X147250000Y-82910000D02*
X147250000Y-83180000D01*
X145750000Y-82910000D02*
X147250000Y-82910000D01*
X147250000Y-89540000D02*
X150080000Y-89540000D01*
X147250000Y-89810000D02*
X147250000Y-89540000D01*
X145750000Y-89810000D02*
X147250000Y-89810000D01*
G04 #@! TO.C,Q2*
X146415000Y-58055000D02*
X146415000Y-58390000D01*
X146415000Y-60990000D02*
X146415000Y-61325000D01*
X143145000Y-60990000D02*
X143145000Y-61325000D01*
X143145000Y-61325000D02*
X146415000Y-61325000D01*
X142910000Y-58055000D02*
X146415000Y-58055000D01*
G04 #@! TO.C,Q1*
X153995000Y-60450000D02*
X153995000Y-58990000D01*
X157155000Y-60450000D02*
X157155000Y-58290000D01*
X157155000Y-60450000D02*
X156225000Y-60450000D01*
X153995000Y-60450000D02*
X154925000Y-60450000D01*
G04 #@! TO.C,J5*
X165160000Y-106620000D02*
X165160000Y-107950000D01*
X163830000Y-106620000D02*
X165160000Y-106620000D01*
X162560000Y-106620000D02*
X162560000Y-109280000D01*
X162560000Y-109280000D02*
X159960000Y-109280000D01*
X162560000Y-106620000D02*
X159960000Y-106620000D01*
X159960000Y-106620000D02*
X159960000Y-109280000D01*
G04 #@! TO.C,J4*
X144840000Y-106620000D02*
X144840000Y-107950000D01*
X143510000Y-106620000D02*
X144840000Y-106620000D01*
X142240000Y-106620000D02*
X142240000Y-109280000D01*
X142240000Y-109280000D02*
X139640000Y-109280000D01*
X142240000Y-106620000D02*
X139640000Y-106620000D01*
X139640000Y-106620000D02*
X139640000Y-109280000D01*
G04 #@! TO.C,J3*
X160080000Y-54550000D02*
X160080000Y-55880000D01*
X158750000Y-54550000D02*
X160080000Y-54550000D01*
X157480000Y-54550000D02*
X157480000Y-57210000D01*
X157480000Y-57210000D02*
X149800000Y-57210000D01*
X157480000Y-54550000D02*
X149800000Y-54550000D01*
X149800000Y-54550000D02*
X149800000Y-57210000D01*
G04 #@! TO.C,J2*
X144840000Y-54550000D02*
X144840000Y-55880000D01*
X143510000Y-54550000D02*
X144840000Y-54550000D01*
X142240000Y-54550000D02*
X142240000Y-57210000D01*
X142240000Y-57210000D02*
X139640000Y-57210000D01*
X142240000Y-54550000D02*
X139640000Y-54550000D01*
X139640000Y-54550000D02*
X139640000Y-57210000D01*
G04 #@! TO.C,J1*
X165160000Y-54550000D02*
X165160000Y-55880000D01*
X163830000Y-54550000D02*
X165160000Y-54550000D01*
X162560000Y-54550000D02*
X162560000Y-57210000D01*
X162560000Y-57210000D02*
X159960000Y-57210000D01*
X162560000Y-54550000D02*
X159960000Y-54550000D01*
X159960000Y-54550000D02*
X159960000Y-57210000D01*
G04 #@! TO.C,D3*
X151550000Y-106040000D02*
X151550000Y-102890000D01*
X153250000Y-106040000D02*
X153250000Y-102890000D01*
X151550000Y-106040000D02*
X153250000Y-106040000D01*
G04 #@! TO.C,D2*
X139320000Y-100920000D02*
X139320000Y-94020000D01*
X142620000Y-100920000D02*
X142620000Y-94020000D01*
X139320000Y-100920000D02*
X142620000Y-100920000D01*
G04 #@! TO.C,D1*
X149440000Y-57790000D02*
X149440000Y-60940000D01*
X147740000Y-57790000D02*
X147740000Y-60940000D01*
X149440000Y-57790000D02*
X147740000Y-57790000D01*
G04 #@! TO.C,C10*
X160483733Y-97665000D02*
X160826267Y-97665000D01*
X160483733Y-96645000D02*
X160826267Y-96645000D01*
G04 #@! TO.C,C9*
X143000000Y-103968733D02*
X143000000Y-104311267D01*
X144020000Y-103968733D02*
X144020000Y-104311267D01*
G04 #@! TO.C,C8*
X140260000Y-103878748D02*
X140260000Y-104401252D01*
X141680000Y-103878748D02*
X141680000Y-104401252D01*
G04 #@! TO.C,C6*
X160393748Y-92150000D02*
X160916252Y-92150000D01*
X160393748Y-90730000D02*
X160916252Y-90730000D01*
G04 #@! TO.C,C5*
X159310000Y-75938748D02*
X159310000Y-76461252D01*
X160730000Y-75938748D02*
X160730000Y-76461252D01*
G04 #@! TO.C,C4*
X160483733Y-93855000D02*
X160826267Y-93855000D01*
X160483733Y-92835000D02*
X160826267Y-92835000D01*
G04 #@! TO.C,C3*
X156570000Y-75597936D02*
X156570000Y-76802064D01*
X158390000Y-75597936D02*
X158390000Y-76802064D01*
G04 #@! TO.C,C2*
X163320000Y-65868733D02*
X163320000Y-66211267D01*
X164340000Y-65868733D02*
X164340000Y-66211267D01*
G04 #@! TO.C,C1*
X162050000Y-59518733D02*
X162050000Y-59861267D01*
X163070000Y-59518733D02*
X163070000Y-59861267D01*
G04 #@! TD*
M02*
