%TF.GenerationSoftware,KiCad,Pcbnew,(5.1.2)-2*%
%TF.CreationDate,2019-08-30T16:56:42-04:00*%
%TF.ProjectId,ButtonInterfaceBoard 0-2,42757474-6f6e-4496-9e74-657266616365,rev?*%
%TF.SameCoordinates,Original*%
%TF.FileFunction,Copper,L2,Bot*%
%TF.FilePolarity,Positive*%
%FSLAX46Y46*%
G04 Gerber Fmt 4.6, Leading zero omitted, Abs format (unit mm)*
G04 Created by KiCad (PCBNEW (5.1.2)-2) date 2019-08-30 16:56:42*
%MOMM*%
%LPD*%
G04 APERTURE LIST*
%ADD10R,1.700000X1.700000*%
%ADD11O,1.700000X1.700000*%
%ADD12C,0.800000*%
%ADD13C,0.508000*%
%ADD14C,0.254000*%
%ADD15C,0.250000*%
%ADD16C,0.152400*%
G04 APERTURE END LIST*
D10*
X104140000Y-58420000D03*
D11*
X104140000Y-55880000D03*
X106680000Y-58420000D03*
X106680000Y-55880000D03*
X109220000Y-58420000D03*
X109220000Y-55880000D03*
D10*
X96520000Y-55880000D03*
D11*
X96520000Y-58420000D03*
X96520000Y-60960000D03*
X96520000Y-68580000D03*
D10*
X96520000Y-66040000D03*
X96520000Y-71120000D03*
D11*
X96520000Y-73660000D03*
X96520000Y-76200000D03*
X96520000Y-78740000D03*
X96520000Y-81280000D03*
D10*
X96520000Y-99060000D03*
D11*
X96520000Y-96520000D03*
X96520000Y-93980000D03*
X96520000Y-91440000D03*
D10*
X96520000Y-83820000D03*
D11*
X96520000Y-86360000D03*
X96520000Y-88900000D03*
X119380000Y-68580000D03*
X119380000Y-66040000D03*
D10*
X119380000Y-63500000D03*
X119380000Y-86360000D03*
D11*
X119380000Y-88900000D03*
X119380000Y-81280000D03*
X119380000Y-78740000D03*
X119380000Y-76200000D03*
D10*
X119380000Y-73660000D03*
D12*
X107569000Y-65278000D03*
X110490000Y-68580000D03*
X114554000Y-67310000D03*
X115824000Y-59055000D03*
X109474000Y-79121000D03*
X105791000Y-88900000D03*
X104902000Y-91440000D03*
X111506000Y-93345000D03*
X112141000Y-87630000D03*
X117475000Y-77470000D03*
X106680000Y-63119000D03*
X103886000Y-80899000D03*
X102870000Y-83185000D03*
X104902000Y-79248000D03*
X107442000Y-72390004D03*
X106553000Y-75184000D03*
X106553000Y-73406000D03*
X105791000Y-74295000D03*
X114046000Y-57150000D03*
X101219000Y-59182000D03*
D13*
X98298000Y-77597000D02*
X99949000Y-79248000D01*
X99949000Y-79248000D02*
X104902000Y-79248000D01*
X94869000Y-60071000D02*
X94869000Y-61595000D01*
X98298000Y-65024000D02*
X98298000Y-77597000D01*
X94869000Y-61595000D02*
X98298000Y-65024000D01*
X96520000Y-58420000D02*
X94869000Y-60071000D01*
D14*
X104140000Y-63500000D02*
X109220000Y-58420000D01*
X106807000Y-68072000D02*
X104140000Y-65405000D01*
X106807000Y-71755004D02*
X106807000Y-68072000D01*
X104140000Y-65405000D02*
X104140000Y-63500000D01*
X107442000Y-72390004D02*
X106807000Y-71755004D01*
X102489000Y-62865000D02*
X104140000Y-61214000D01*
X102489000Y-65786000D02*
X102489000Y-62865000D01*
X105283000Y-68580000D02*
X102489000Y-65786000D01*
X105283000Y-73660000D02*
X105283000Y-68580000D01*
X105029000Y-73914000D02*
X105283000Y-73660000D01*
X104140000Y-61214000D02*
X104140000Y-58420000D01*
X105029000Y-74608962D02*
X105029000Y-73914000D01*
X105604038Y-75184000D02*
X105029000Y-74608962D01*
X106553000Y-75184000D02*
X105604038Y-75184000D01*
X106680000Y-60198000D02*
X106680000Y-58420000D01*
X103505000Y-63373000D02*
X106680000Y-60198000D01*
X106553000Y-72263000D02*
X106299000Y-72009000D01*
X103505000Y-65458990D02*
X103505000Y-63373000D01*
X106299000Y-68252990D02*
X103505000Y-65458990D01*
X106299000Y-72009000D02*
X106299000Y-68252990D01*
X106553000Y-73406000D02*
X106553000Y-72263000D01*
X105410000Y-57150000D02*
X106680000Y-55880000D01*
X105791000Y-74295000D02*
X105791000Y-68387056D01*
X105791000Y-68387056D02*
X102997000Y-65593056D01*
X102997000Y-63119000D02*
X105410000Y-60706000D01*
X102997000Y-65593056D02*
X102997000Y-63119000D01*
X105410000Y-60706000D02*
X105410000Y-57150000D01*
D15*
X114046000Y-55753000D02*
X114046000Y-57150000D01*
X112903000Y-54610000D02*
X114046000Y-55753000D01*
X102489000Y-54610000D02*
X112903000Y-54610000D01*
X101219000Y-55880000D02*
X102489000Y-54610000D01*
X101219000Y-59182000D02*
X101219000Y-55880000D01*
D16*
G36*
X100949249Y-55582370D02*
G01*
X100933937Y-55594936D01*
X100916316Y-55616408D01*
X100883801Y-55656027D01*
X100846958Y-55724956D01*
X100846547Y-55725725D01*
X100838274Y-55752999D01*
X100823606Y-55801352D01*
X100815859Y-55880000D01*
X100817801Y-55899715D01*
X100817800Y-58636814D01*
X100787948Y-58656761D01*
X100693761Y-58750948D01*
X100619759Y-58861699D01*
X100568786Y-58984760D01*
X100542800Y-59115400D01*
X100542800Y-59248600D01*
X100568786Y-59379240D01*
X100619759Y-59502301D01*
X100693761Y-59613052D01*
X100787948Y-59707239D01*
X100898699Y-59781241D01*
X101021760Y-59832214D01*
X101152400Y-59858200D01*
X101285600Y-59858200D01*
X101416240Y-59832214D01*
X101539301Y-59781241D01*
X101650052Y-59707239D01*
X101744239Y-59613052D01*
X101818241Y-59502301D01*
X101869214Y-59379240D01*
X101895200Y-59248600D01*
X101895200Y-59115400D01*
X101869214Y-58984760D01*
X101818241Y-58861699D01*
X101744239Y-58750948D01*
X101650052Y-58656761D01*
X101620200Y-58636814D01*
X101620200Y-56046181D01*
X102655182Y-55011200D01*
X103423396Y-55011200D01*
X103339803Y-55079803D01*
X103199068Y-55251290D01*
X103094493Y-55446937D01*
X103030095Y-55659226D01*
X103008351Y-55880000D01*
X103030095Y-56100774D01*
X103094493Y-56313063D01*
X103199068Y-56508710D01*
X103339803Y-56680197D01*
X103511290Y-56820932D01*
X103706937Y-56925507D01*
X103919226Y-56989905D01*
X104084675Y-57006200D01*
X104195325Y-57006200D01*
X104360774Y-56989905D01*
X104573063Y-56925507D01*
X104768710Y-56820932D01*
X104940197Y-56680197D01*
X105080932Y-56508710D01*
X105185507Y-56313063D01*
X105249905Y-56100774D01*
X105271649Y-55880000D01*
X105249905Y-55659226D01*
X105185507Y-55446937D01*
X105080932Y-55251290D01*
X104940197Y-55079803D01*
X104856604Y-55011200D01*
X105963396Y-55011200D01*
X105879803Y-55079803D01*
X105739068Y-55251290D01*
X105634493Y-55446937D01*
X105570095Y-55659226D01*
X105548351Y-55880000D01*
X105570095Y-56100774D01*
X105634493Y-56313063D01*
X105649204Y-56340586D01*
X105138892Y-56850898D01*
X105123517Y-56863516D01*
X105110899Y-56878891D01*
X105110896Y-56878894D01*
X105073131Y-56924911D01*
X105035691Y-56994956D01*
X105012635Y-57070959D01*
X105004851Y-57150000D01*
X105006801Y-57169801D01*
X105006801Y-57294119D01*
X104990000Y-57292464D01*
X103290000Y-57292464D01*
X103235855Y-57297797D01*
X103183792Y-57313590D01*
X103135809Y-57339237D01*
X103093752Y-57373752D01*
X103059237Y-57415809D01*
X103033590Y-57463792D01*
X103017797Y-57515855D01*
X103012464Y-57570000D01*
X103012464Y-59270000D01*
X103017797Y-59324145D01*
X103033590Y-59376208D01*
X103059237Y-59424191D01*
X103093752Y-59466248D01*
X103135809Y-59500763D01*
X103183792Y-59526410D01*
X103235855Y-59542203D01*
X103290000Y-59547536D01*
X103736801Y-59547536D01*
X103736800Y-61046989D01*
X102217892Y-62565898D01*
X102202517Y-62578516D01*
X102189899Y-62593891D01*
X102189896Y-62593894D01*
X102152131Y-62639911D01*
X102114691Y-62709956D01*
X102091635Y-62785959D01*
X102083851Y-62865000D01*
X102085801Y-62884801D01*
X102085800Y-65766209D01*
X102083851Y-65786000D01*
X102085800Y-65805791D01*
X102085800Y-65805797D01*
X102087123Y-65819226D01*
X102091549Y-65864162D01*
X102091635Y-65865040D01*
X102114690Y-65941043D01*
X102152130Y-66011088D01*
X102202516Y-66072484D01*
X102217897Y-66085107D01*
X104879801Y-68747011D01*
X104879800Y-73492990D01*
X104757892Y-73614898D01*
X104742517Y-73627516D01*
X104729899Y-73642891D01*
X104729896Y-73642894D01*
X104692131Y-73688911D01*
X104654691Y-73758956D01*
X104631635Y-73834959D01*
X104623851Y-73914000D01*
X104625801Y-73933800D01*
X104625800Y-74589171D01*
X104623851Y-74608962D01*
X104625800Y-74628753D01*
X104625800Y-74628759D01*
X104631635Y-74688002D01*
X104654690Y-74764005D01*
X104692130Y-74834050D01*
X104742516Y-74895446D01*
X104757897Y-74908069D01*
X105304936Y-75455109D01*
X105317554Y-75470484D01*
X105332929Y-75483102D01*
X105332932Y-75483105D01*
X105378949Y-75520870D01*
X105448993Y-75558310D01*
X105524997Y-75581365D01*
X105584240Y-75587200D01*
X105584247Y-75587200D01*
X105604038Y-75589149D01*
X105623829Y-75587200D01*
X106009151Y-75587200D01*
X106027761Y-75615052D01*
X106121948Y-75709239D01*
X106232699Y-75783241D01*
X106355760Y-75834214D01*
X106486400Y-75860200D01*
X106619600Y-75860200D01*
X106750240Y-75834214D01*
X106873301Y-75783241D01*
X106984052Y-75709239D01*
X107078239Y-75615052D01*
X107152241Y-75504301D01*
X107203214Y-75381240D01*
X107229200Y-75250600D01*
X107229200Y-75117400D01*
X107203214Y-74986760D01*
X107152241Y-74863699D01*
X107078239Y-74752948D01*
X106984052Y-74658761D01*
X106873301Y-74584759D01*
X106750240Y-74533786D01*
X106619600Y-74507800D01*
X106486400Y-74507800D01*
X106430133Y-74518992D01*
X106441214Y-74492240D01*
X106467200Y-74361600D01*
X106467200Y-74228400D01*
X106441214Y-74097760D01*
X106430133Y-74071008D01*
X106486400Y-74082200D01*
X106619600Y-74082200D01*
X106750240Y-74056214D01*
X106873301Y-74005241D01*
X106984052Y-73931239D01*
X107078239Y-73837052D01*
X107152241Y-73726301D01*
X107203214Y-73603240D01*
X107229200Y-73472600D01*
X107229200Y-73339400D01*
X107203214Y-73208760D01*
X107152241Y-73085699D01*
X107078239Y-72974948D01*
X107033810Y-72930519D01*
X107121699Y-72989245D01*
X107244760Y-73040218D01*
X107375400Y-73066204D01*
X107508600Y-73066204D01*
X107639240Y-73040218D01*
X107762301Y-72989245D01*
X107873052Y-72915243D01*
X107967239Y-72821056D01*
X107974626Y-72810000D01*
X118252464Y-72810000D01*
X118252464Y-74510000D01*
X118257797Y-74564145D01*
X118273590Y-74616208D01*
X118299237Y-74664191D01*
X118333752Y-74706248D01*
X118375809Y-74740763D01*
X118423792Y-74766410D01*
X118475855Y-74782203D01*
X118530000Y-74787536D01*
X120230000Y-74787536D01*
X120284145Y-74782203D01*
X120336208Y-74766410D01*
X120384191Y-74740763D01*
X120426248Y-74706248D01*
X120460763Y-74664191D01*
X120486410Y-74616208D01*
X120502203Y-74564145D01*
X120507536Y-74510000D01*
X120507536Y-72810000D01*
X120502203Y-72755855D01*
X120486410Y-72703792D01*
X120460763Y-72655809D01*
X120426248Y-72613752D01*
X120384191Y-72579237D01*
X120336208Y-72553590D01*
X120284145Y-72537797D01*
X120230000Y-72532464D01*
X118530000Y-72532464D01*
X118475855Y-72537797D01*
X118423792Y-72553590D01*
X118375809Y-72579237D01*
X118333752Y-72613752D01*
X118299237Y-72655809D01*
X118273590Y-72703792D01*
X118257797Y-72755855D01*
X118252464Y-72810000D01*
X107974626Y-72810000D01*
X108041241Y-72710305D01*
X108092214Y-72587244D01*
X108118200Y-72456604D01*
X108118200Y-72323404D01*
X108092214Y-72192764D01*
X108041241Y-72069703D01*
X107967239Y-71958952D01*
X107873052Y-71864765D01*
X107762301Y-71790763D01*
X107639240Y-71739790D01*
X107508600Y-71713804D01*
X107375400Y-71713804D01*
X107342546Y-71720339D01*
X107210200Y-71587994D01*
X107210200Y-68580000D01*
X118248351Y-68580000D01*
X118270095Y-68800774D01*
X118334493Y-69013063D01*
X118439068Y-69208710D01*
X118579803Y-69380197D01*
X118751290Y-69520932D01*
X118946937Y-69625507D01*
X119159226Y-69689905D01*
X119324675Y-69706200D01*
X119435325Y-69706200D01*
X119600774Y-69689905D01*
X119813063Y-69625507D01*
X120008710Y-69520932D01*
X120180197Y-69380197D01*
X120320932Y-69208710D01*
X120425507Y-69013063D01*
X120489905Y-68800774D01*
X120511649Y-68580000D01*
X120489905Y-68359226D01*
X120425507Y-68146937D01*
X120320932Y-67951290D01*
X120180197Y-67779803D01*
X120008710Y-67639068D01*
X119813063Y-67534493D01*
X119600774Y-67470095D01*
X119435325Y-67453800D01*
X119324675Y-67453800D01*
X119159226Y-67470095D01*
X118946937Y-67534493D01*
X118751290Y-67639068D01*
X118579803Y-67779803D01*
X118439068Y-67951290D01*
X118334493Y-68146937D01*
X118270095Y-68359226D01*
X118248351Y-68580000D01*
X107210200Y-68580000D01*
X107210200Y-68091791D01*
X107212149Y-68072000D01*
X107210200Y-68052209D01*
X107210200Y-68052202D01*
X107204365Y-67992959D01*
X107201012Y-67981906D01*
X107181310Y-67916955D01*
X107143870Y-67846911D01*
X107106105Y-67800894D01*
X107106102Y-67800891D01*
X107093484Y-67785516D01*
X107078109Y-67772898D01*
X105345211Y-66040000D01*
X118248351Y-66040000D01*
X118270095Y-66260774D01*
X118334493Y-66473063D01*
X118439068Y-66668710D01*
X118579803Y-66840197D01*
X118751290Y-66980932D01*
X118946937Y-67085507D01*
X119159226Y-67149905D01*
X119324675Y-67166200D01*
X119435325Y-67166200D01*
X119600774Y-67149905D01*
X119813063Y-67085507D01*
X120008710Y-66980932D01*
X120180197Y-66840197D01*
X120320932Y-66668710D01*
X120425507Y-66473063D01*
X120489905Y-66260774D01*
X120511649Y-66040000D01*
X120489905Y-65819226D01*
X120425507Y-65606937D01*
X120320932Y-65411290D01*
X120180197Y-65239803D01*
X120008710Y-65099068D01*
X119813063Y-64994493D01*
X119600774Y-64930095D01*
X119435325Y-64913800D01*
X119324675Y-64913800D01*
X119159226Y-64930095D01*
X118946937Y-64994493D01*
X118751290Y-65099068D01*
X118579803Y-65239803D01*
X118439068Y-65411290D01*
X118334493Y-65606937D01*
X118270095Y-65819226D01*
X118248351Y-66040000D01*
X105345211Y-66040000D01*
X104543200Y-65237990D01*
X104543200Y-63667010D01*
X105560210Y-62650000D01*
X118252464Y-62650000D01*
X118252464Y-64350000D01*
X118257797Y-64404145D01*
X118273590Y-64456208D01*
X118299237Y-64504191D01*
X118333752Y-64546248D01*
X118375809Y-64580763D01*
X118423792Y-64606410D01*
X118475855Y-64622203D01*
X118530000Y-64627536D01*
X120230000Y-64627536D01*
X120284145Y-64622203D01*
X120336208Y-64606410D01*
X120384191Y-64580763D01*
X120426248Y-64546248D01*
X120460763Y-64504191D01*
X120486410Y-64456208D01*
X120502203Y-64404145D01*
X120507536Y-64350000D01*
X120507536Y-62650000D01*
X120502203Y-62595855D01*
X120486410Y-62543792D01*
X120460763Y-62495809D01*
X120426248Y-62453752D01*
X120384191Y-62419237D01*
X120336208Y-62393590D01*
X120284145Y-62377797D01*
X120230000Y-62372464D01*
X118530000Y-62372464D01*
X118475855Y-62377797D01*
X118423792Y-62393590D01*
X118375809Y-62419237D01*
X118333752Y-62453752D01*
X118299237Y-62495809D01*
X118273590Y-62543792D01*
X118257797Y-62595855D01*
X118252464Y-62650000D01*
X105560210Y-62650000D01*
X108759415Y-59450796D01*
X108786937Y-59465507D01*
X108999226Y-59529905D01*
X109164675Y-59546200D01*
X109275325Y-59546200D01*
X109440774Y-59529905D01*
X109653063Y-59465507D01*
X109848710Y-59360932D01*
X110020197Y-59220197D01*
X110160932Y-59048710D01*
X110265507Y-58853063D01*
X110329905Y-58640774D01*
X110351649Y-58420000D01*
X110329905Y-58199226D01*
X110265507Y-57986937D01*
X110160932Y-57791290D01*
X110020197Y-57619803D01*
X109848710Y-57479068D01*
X109653063Y-57374493D01*
X109440774Y-57310095D01*
X109275325Y-57293800D01*
X109164675Y-57293800D01*
X108999226Y-57310095D01*
X108786937Y-57374493D01*
X108591290Y-57479068D01*
X108419803Y-57619803D01*
X108279068Y-57791290D01*
X108174493Y-57986937D01*
X108110095Y-58199226D01*
X108088351Y-58420000D01*
X108110095Y-58640774D01*
X108174493Y-58853063D01*
X108189204Y-58880585D01*
X107083200Y-59986589D01*
X107083200Y-59474566D01*
X107113063Y-59465507D01*
X107308710Y-59360932D01*
X107480197Y-59220197D01*
X107620932Y-59048710D01*
X107725507Y-58853063D01*
X107789905Y-58640774D01*
X107811649Y-58420000D01*
X107789905Y-58199226D01*
X107725507Y-57986937D01*
X107620932Y-57791290D01*
X107480197Y-57619803D01*
X107308710Y-57479068D01*
X107113063Y-57374493D01*
X106900774Y-57310095D01*
X106735325Y-57293800D01*
X106624675Y-57293800D01*
X106459226Y-57310095D01*
X106246937Y-57374493D01*
X106051290Y-57479068D01*
X105879803Y-57619803D01*
X105813200Y-57700959D01*
X105813200Y-57317010D01*
X106219414Y-56910796D01*
X106246937Y-56925507D01*
X106459226Y-56989905D01*
X106624675Y-57006200D01*
X106735325Y-57006200D01*
X106900774Y-56989905D01*
X107113063Y-56925507D01*
X107308710Y-56820932D01*
X107480197Y-56680197D01*
X107620932Y-56508710D01*
X107725507Y-56313063D01*
X107748238Y-56238129D01*
X108095440Y-56238129D01*
X108186916Y-56450638D01*
X108318092Y-56641218D01*
X108483928Y-56802545D01*
X108678051Y-56928419D01*
X108861872Y-57004552D01*
X109042200Y-56963154D01*
X109042200Y-56057800D01*
X109397800Y-56057800D01*
X109397800Y-56963154D01*
X109578128Y-57004552D01*
X109761949Y-56928419D01*
X109956072Y-56802545D01*
X110121908Y-56641218D01*
X110253084Y-56450638D01*
X110344560Y-56238129D01*
X110304189Y-56057800D01*
X109397800Y-56057800D01*
X109042200Y-56057800D01*
X108135811Y-56057800D01*
X108095440Y-56238129D01*
X107748238Y-56238129D01*
X107789905Y-56100774D01*
X107811649Y-55880000D01*
X107789905Y-55659226D01*
X107725507Y-55446937D01*
X107620932Y-55251290D01*
X107480197Y-55079803D01*
X107396604Y-55011200D01*
X108428681Y-55011200D01*
X108318092Y-55118782D01*
X108186916Y-55309362D01*
X108095440Y-55521871D01*
X108135811Y-55702200D01*
X109042200Y-55702200D01*
X109042200Y-55682200D01*
X109397800Y-55682200D01*
X109397800Y-55702200D01*
X110304189Y-55702200D01*
X110344560Y-55521871D01*
X110253084Y-55309362D01*
X110121908Y-55118782D01*
X110011319Y-55011200D01*
X112736819Y-55011200D01*
X113644800Y-55919182D01*
X113644801Y-56604814D01*
X113614948Y-56624761D01*
X113520761Y-56718948D01*
X113446759Y-56829699D01*
X113395786Y-56952760D01*
X113369800Y-57083400D01*
X113369800Y-57216600D01*
X113395786Y-57347240D01*
X113446759Y-57470301D01*
X113520761Y-57581052D01*
X113614948Y-57675239D01*
X113725699Y-57749241D01*
X113848760Y-57800214D01*
X113979400Y-57826200D01*
X114112600Y-57826200D01*
X114243240Y-57800214D01*
X114366301Y-57749241D01*
X114477052Y-57675239D01*
X114571239Y-57581052D01*
X114645241Y-57470301D01*
X114696214Y-57347240D01*
X114722200Y-57216600D01*
X114722200Y-57083400D01*
X114696214Y-56952760D01*
X114645241Y-56829699D01*
X114571239Y-56718948D01*
X114477052Y-56624761D01*
X114447200Y-56604814D01*
X114447200Y-55772704D01*
X114449141Y-55752999D01*
X114447200Y-55733292D01*
X114441395Y-55674351D01*
X114418454Y-55598725D01*
X114399192Y-55562689D01*
X114381199Y-55529026D01*
X114360628Y-55503961D01*
X114331064Y-55467936D01*
X114315753Y-55455371D01*
X113254481Y-54394100D01*
X120633534Y-54394100D01*
X121577596Y-54468399D01*
X122482346Y-54685610D01*
X123341983Y-55041684D01*
X124135335Y-55527851D01*
X124842863Y-56132137D01*
X125447150Y-56839665D01*
X125933314Y-57633012D01*
X126289390Y-58492654D01*
X126506601Y-59397403D01*
X126580900Y-60341467D01*
X126580901Y-94598521D01*
X126506601Y-95542597D01*
X126289390Y-96447346D01*
X125933314Y-97306988D01*
X125447150Y-98100335D01*
X124842863Y-98807863D01*
X124135335Y-99412149D01*
X123341983Y-99898316D01*
X122482346Y-100254390D01*
X121577596Y-100471601D01*
X120633534Y-100545900D01*
X91460499Y-100545900D01*
X91275114Y-100527723D01*
X91116515Y-100479839D01*
X90970228Y-100402056D01*
X90841846Y-100297351D01*
X90736238Y-100169693D01*
X90657439Y-100023958D01*
X90608447Y-99865692D01*
X90589100Y-99681609D01*
X90589100Y-98210000D01*
X95392464Y-98210000D01*
X95392464Y-99910000D01*
X95397797Y-99964145D01*
X95413590Y-100016208D01*
X95439237Y-100064191D01*
X95473752Y-100106248D01*
X95515809Y-100140763D01*
X95563792Y-100166410D01*
X95615855Y-100182203D01*
X95670000Y-100187536D01*
X97370000Y-100187536D01*
X97424145Y-100182203D01*
X97476208Y-100166410D01*
X97524191Y-100140763D01*
X97566248Y-100106248D01*
X97600763Y-100064191D01*
X97626410Y-100016208D01*
X97642203Y-99964145D01*
X97647536Y-99910000D01*
X97647536Y-98210000D01*
X97642203Y-98155855D01*
X97626410Y-98103792D01*
X97600763Y-98055809D01*
X97566248Y-98013752D01*
X97524191Y-97979237D01*
X97476208Y-97953590D01*
X97424145Y-97937797D01*
X97370000Y-97932464D01*
X95670000Y-97932464D01*
X95615855Y-97937797D01*
X95563792Y-97953590D01*
X95515809Y-97979237D01*
X95473752Y-98013752D01*
X95439237Y-98055809D01*
X95413590Y-98103792D01*
X95397797Y-98155855D01*
X95392464Y-98210000D01*
X90589100Y-98210000D01*
X90589100Y-96520000D01*
X95388351Y-96520000D01*
X95410095Y-96740774D01*
X95474493Y-96953063D01*
X95579068Y-97148710D01*
X95719803Y-97320197D01*
X95891290Y-97460932D01*
X96086937Y-97565507D01*
X96299226Y-97629905D01*
X96464675Y-97646200D01*
X96575325Y-97646200D01*
X96740774Y-97629905D01*
X96953063Y-97565507D01*
X97148710Y-97460932D01*
X97320197Y-97320197D01*
X97460932Y-97148710D01*
X97565507Y-96953063D01*
X97629905Y-96740774D01*
X97651649Y-96520000D01*
X97629905Y-96299226D01*
X97565507Y-96086937D01*
X97460932Y-95891290D01*
X97320197Y-95719803D01*
X97148710Y-95579068D01*
X96953063Y-95474493D01*
X96740774Y-95410095D01*
X96575325Y-95393800D01*
X96464675Y-95393800D01*
X96299226Y-95410095D01*
X96086937Y-95474493D01*
X95891290Y-95579068D01*
X95719803Y-95719803D01*
X95579068Y-95891290D01*
X95474493Y-96086937D01*
X95410095Y-96299226D01*
X95388351Y-96520000D01*
X90589100Y-96520000D01*
X90589100Y-93980000D01*
X95388351Y-93980000D01*
X95410095Y-94200774D01*
X95474493Y-94413063D01*
X95579068Y-94608710D01*
X95719803Y-94780197D01*
X95891290Y-94920932D01*
X96086937Y-95025507D01*
X96299226Y-95089905D01*
X96464675Y-95106200D01*
X96575325Y-95106200D01*
X96740774Y-95089905D01*
X96953063Y-95025507D01*
X97148710Y-94920932D01*
X97320197Y-94780197D01*
X97460932Y-94608710D01*
X97565507Y-94413063D01*
X97629905Y-94200774D01*
X97651649Y-93980000D01*
X97629905Y-93759226D01*
X97565507Y-93546937D01*
X97460932Y-93351290D01*
X97320197Y-93179803D01*
X97148710Y-93039068D01*
X96953063Y-92934493D01*
X96740774Y-92870095D01*
X96575325Y-92853800D01*
X96464675Y-92853800D01*
X96299226Y-92870095D01*
X96086937Y-92934493D01*
X95891290Y-93039068D01*
X95719803Y-93179803D01*
X95579068Y-93351290D01*
X95474493Y-93546937D01*
X95410095Y-93759226D01*
X95388351Y-93980000D01*
X90589100Y-93980000D01*
X90589100Y-91440000D01*
X95388351Y-91440000D01*
X95410095Y-91660774D01*
X95474493Y-91873063D01*
X95579068Y-92068710D01*
X95719803Y-92240197D01*
X95891290Y-92380932D01*
X96086937Y-92485507D01*
X96299226Y-92549905D01*
X96464675Y-92566200D01*
X96575325Y-92566200D01*
X96740774Y-92549905D01*
X96953063Y-92485507D01*
X97148710Y-92380932D01*
X97320197Y-92240197D01*
X97460932Y-92068710D01*
X97565507Y-91873063D01*
X97629905Y-91660774D01*
X97651649Y-91440000D01*
X97629905Y-91219226D01*
X97565507Y-91006937D01*
X97460932Y-90811290D01*
X97320197Y-90639803D01*
X97148710Y-90499068D01*
X96953063Y-90394493D01*
X96740774Y-90330095D01*
X96575325Y-90313800D01*
X96464675Y-90313800D01*
X96299226Y-90330095D01*
X96086937Y-90394493D01*
X95891290Y-90499068D01*
X95719803Y-90639803D01*
X95579068Y-90811290D01*
X95474493Y-91006937D01*
X95410095Y-91219226D01*
X95388351Y-91440000D01*
X90589100Y-91440000D01*
X90589100Y-88900000D01*
X95388351Y-88900000D01*
X95410095Y-89120774D01*
X95474493Y-89333063D01*
X95579068Y-89528710D01*
X95719803Y-89700197D01*
X95891290Y-89840932D01*
X96086937Y-89945507D01*
X96299226Y-90009905D01*
X96464675Y-90026200D01*
X96575325Y-90026200D01*
X96740774Y-90009905D01*
X96953063Y-89945507D01*
X97148710Y-89840932D01*
X97320197Y-89700197D01*
X97460932Y-89528710D01*
X97565507Y-89333063D01*
X97629905Y-89120774D01*
X97651649Y-88900000D01*
X118248351Y-88900000D01*
X118270095Y-89120774D01*
X118334493Y-89333063D01*
X118439068Y-89528710D01*
X118579803Y-89700197D01*
X118751290Y-89840932D01*
X118946937Y-89945507D01*
X119159226Y-90009905D01*
X119324675Y-90026200D01*
X119435325Y-90026200D01*
X119600774Y-90009905D01*
X119813063Y-89945507D01*
X120008710Y-89840932D01*
X120180197Y-89700197D01*
X120320932Y-89528710D01*
X120425507Y-89333063D01*
X120489905Y-89120774D01*
X120511649Y-88900000D01*
X120489905Y-88679226D01*
X120425507Y-88466937D01*
X120320932Y-88271290D01*
X120180197Y-88099803D01*
X120008710Y-87959068D01*
X119813063Y-87854493D01*
X119600774Y-87790095D01*
X119435325Y-87773800D01*
X119324675Y-87773800D01*
X119159226Y-87790095D01*
X118946937Y-87854493D01*
X118751290Y-87959068D01*
X118579803Y-88099803D01*
X118439068Y-88271290D01*
X118334493Y-88466937D01*
X118270095Y-88679226D01*
X118248351Y-88900000D01*
X97651649Y-88900000D01*
X97629905Y-88679226D01*
X97565507Y-88466937D01*
X97460932Y-88271290D01*
X97320197Y-88099803D01*
X97148710Y-87959068D01*
X96953063Y-87854493D01*
X96740774Y-87790095D01*
X96575325Y-87773800D01*
X96464675Y-87773800D01*
X96299226Y-87790095D01*
X96086937Y-87854493D01*
X95891290Y-87959068D01*
X95719803Y-88099803D01*
X95579068Y-88271290D01*
X95474493Y-88466937D01*
X95410095Y-88679226D01*
X95388351Y-88900000D01*
X90589100Y-88900000D01*
X90589100Y-86360000D01*
X95388351Y-86360000D01*
X95410095Y-86580774D01*
X95474493Y-86793063D01*
X95579068Y-86988710D01*
X95719803Y-87160197D01*
X95891290Y-87300932D01*
X96086937Y-87405507D01*
X96299226Y-87469905D01*
X96464675Y-87486200D01*
X96575325Y-87486200D01*
X96740774Y-87469905D01*
X96953063Y-87405507D01*
X97148710Y-87300932D01*
X97320197Y-87160197D01*
X97460932Y-86988710D01*
X97565507Y-86793063D01*
X97629905Y-86580774D01*
X97651649Y-86360000D01*
X97629905Y-86139226D01*
X97565507Y-85926937D01*
X97460932Y-85731290D01*
X97320197Y-85559803D01*
X97259512Y-85510000D01*
X118252464Y-85510000D01*
X118252464Y-87210000D01*
X118257797Y-87264145D01*
X118273590Y-87316208D01*
X118299237Y-87364191D01*
X118333752Y-87406248D01*
X118375809Y-87440763D01*
X118423792Y-87466410D01*
X118475855Y-87482203D01*
X118530000Y-87487536D01*
X120230000Y-87487536D01*
X120284145Y-87482203D01*
X120336208Y-87466410D01*
X120384191Y-87440763D01*
X120426248Y-87406248D01*
X120460763Y-87364191D01*
X120486410Y-87316208D01*
X120502203Y-87264145D01*
X120507536Y-87210000D01*
X120507536Y-85510000D01*
X120502203Y-85455855D01*
X120486410Y-85403792D01*
X120460763Y-85355809D01*
X120426248Y-85313752D01*
X120384191Y-85279237D01*
X120336208Y-85253590D01*
X120284145Y-85237797D01*
X120230000Y-85232464D01*
X118530000Y-85232464D01*
X118475855Y-85237797D01*
X118423792Y-85253590D01*
X118375809Y-85279237D01*
X118333752Y-85313752D01*
X118299237Y-85355809D01*
X118273590Y-85403792D01*
X118257797Y-85455855D01*
X118252464Y-85510000D01*
X97259512Y-85510000D01*
X97148710Y-85419068D01*
X96953063Y-85314493D01*
X96740774Y-85250095D01*
X96575325Y-85233800D01*
X96464675Y-85233800D01*
X96299226Y-85250095D01*
X96086937Y-85314493D01*
X95891290Y-85419068D01*
X95719803Y-85559803D01*
X95579068Y-85731290D01*
X95474493Y-85926937D01*
X95410095Y-86139226D01*
X95388351Y-86360000D01*
X90589100Y-86360000D01*
X90589100Y-82970000D01*
X95392464Y-82970000D01*
X95392464Y-84670000D01*
X95397797Y-84724145D01*
X95413590Y-84776208D01*
X95439237Y-84824191D01*
X95473752Y-84866248D01*
X95515809Y-84900763D01*
X95563792Y-84926410D01*
X95615855Y-84942203D01*
X95670000Y-84947536D01*
X97370000Y-84947536D01*
X97424145Y-84942203D01*
X97476208Y-84926410D01*
X97524191Y-84900763D01*
X97566248Y-84866248D01*
X97600763Y-84824191D01*
X97626410Y-84776208D01*
X97642203Y-84724145D01*
X97647536Y-84670000D01*
X97647536Y-82970000D01*
X97642203Y-82915855D01*
X97626410Y-82863792D01*
X97600763Y-82815809D01*
X97566248Y-82773752D01*
X97524191Y-82739237D01*
X97476208Y-82713590D01*
X97424145Y-82697797D01*
X97370000Y-82692464D01*
X95670000Y-82692464D01*
X95615855Y-82697797D01*
X95563792Y-82713590D01*
X95515809Y-82739237D01*
X95473752Y-82773752D01*
X95439237Y-82815809D01*
X95413590Y-82863792D01*
X95397797Y-82915855D01*
X95392464Y-82970000D01*
X90589100Y-82970000D01*
X90589100Y-81280000D01*
X95388351Y-81280000D01*
X95410095Y-81500774D01*
X95474493Y-81713063D01*
X95579068Y-81908710D01*
X95719803Y-82080197D01*
X95891290Y-82220932D01*
X96086937Y-82325507D01*
X96299226Y-82389905D01*
X96464675Y-82406200D01*
X96575325Y-82406200D01*
X96740774Y-82389905D01*
X96953063Y-82325507D01*
X97148710Y-82220932D01*
X97320197Y-82080197D01*
X97460932Y-81908710D01*
X97565507Y-81713063D01*
X97629905Y-81500774D01*
X97651649Y-81280000D01*
X118248351Y-81280000D01*
X118270095Y-81500774D01*
X118334493Y-81713063D01*
X118439068Y-81908710D01*
X118579803Y-82080197D01*
X118751290Y-82220932D01*
X118946937Y-82325507D01*
X119159226Y-82389905D01*
X119324675Y-82406200D01*
X119435325Y-82406200D01*
X119600774Y-82389905D01*
X119813063Y-82325507D01*
X120008710Y-82220932D01*
X120180197Y-82080197D01*
X120320932Y-81908710D01*
X120425507Y-81713063D01*
X120489905Y-81500774D01*
X120511649Y-81280000D01*
X120489905Y-81059226D01*
X120425507Y-80846937D01*
X120320932Y-80651290D01*
X120180197Y-80479803D01*
X120008710Y-80339068D01*
X119813063Y-80234493D01*
X119600774Y-80170095D01*
X119435325Y-80153800D01*
X119324675Y-80153800D01*
X119159226Y-80170095D01*
X118946937Y-80234493D01*
X118751290Y-80339068D01*
X118579803Y-80479803D01*
X118439068Y-80651290D01*
X118334493Y-80846937D01*
X118270095Y-81059226D01*
X118248351Y-81280000D01*
X97651649Y-81280000D01*
X97629905Y-81059226D01*
X97565507Y-80846937D01*
X97460932Y-80651290D01*
X97320197Y-80479803D01*
X97148710Y-80339068D01*
X96953063Y-80234493D01*
X96740774Y-80170095D01*
X96575325Y-80153800D01*
X96464675Y-80153800D01*
X96299226Y-80170095D01*
X96086937Y-80234493D01*
X95891290Y-80339068D01*
X95719803Y-80479803D01*
X95579068Y-80651290D01*
X95474493Y-80846937D01*
X95410095Y-81059226D01*
X95388351Y-81280000D01*
X90589100Y-81280000D01*
X90589100Y-78740000D01*
X95388351Y-78740000D01*
X95410095Y-78960774D01*
X95474493Y-79173063D01*
X95579068Y-79368710D01*
X95719803Y-79540197D01*
X95891290Y-79680932D01*
X96086937Y-79785507D01*
X96299226Y-79849905D01*
X96464675Y-79866200D01*
X96575325Y-79866200D01*
X96740774Y-79849905D01*
X96953063Y-79785507D01*
X97148710Y-79680932D01*
X97320197Y-79540197D01*
X97460932Y-79368710D01*
X97565507Y-79173063D01*
X97629905Y-78960774D01*
X97651649Y-78740000D01*
X97629905Y-78519226D01*
X97565507Y-78306937D01*
X97460932Y-78111290D01*
X97320197Y-77939803D01*
X97148710Y-77799068D01*
X96953063Y-77694493D01*
X96740774Y-77630095D01*
X96575325Y-77613800D01*
X96464675Y-77613800D01*
X96299226Y-77630095D01*
X96086937Y-77694493D01*
X95891290Y-77799068D01*
X95719803Y-77939803D01*
X95579068Y-78111290D01*
X95474493Y-78306937D01*
X95410095Y-78519226D01*
X95388351Y-78740000D01*
X90589100Y-78740000D01*
X90589100Y-76200000D01*
X95388351Y-76200000D01*
X95410095Y-76420774D01*
X95474493Y-76633063D01*
X95579068Y-76828710D01*
X95719803Y-77000197D01*
X95891290Y-77140932D01*
X96086937Y-77245507D01*
X96299226Y-77309905D01*
X96464675Y-77326200D01*
X96575325Y-77326200D01*
X96740774Y-77309905D01*
X96953063Y-77245507D01*
X97148710Y-77140932D01*
X97320197Y-77000197D01*
X97460932Y-76828710D01*
X97565507Y-76633063D01*
X97629905Y-76420774D01*
X97651649Y-76200000D01*
X97629905Y-75979226D01*
X97565507Y-75766937D01*
X97460932Y-75571290D01*
X97320197Y-75399803D01*
X97148710Y-75259068D01*
X96953063Y-75154493D01*
X96740774Y-75090095D01*
X96575325Y-75073800D01*
X96464675Y-75073800D01*
X96299226Y-75090095D01*
X96086937Y-75154493D01*
X95891290Y-75259068D01*
X95719803Y-75399803D01*
X95579068Y-75571290D01*
X95474493Y-75766937D01*
X95410095Y-75979226D01*
X95388351Y-76200000D01*
X90589100Y-76200000D01*
X90589100Y-73660000D01*
X95388351Y-73660000D01*
X95410095Y-73880774D01*
X95474493Y-74093063D01*
X95579068Y-74288710D01*
X95719803Y-74460197D01*
X95891290Y-74600932D01*
X96086937Y-74705507D01*
X96299226Y-74769905D01*
X96464675Y-74786200D01*
X96575325Y-74786200D01*
X96740774Y-74769905D01*
X96953063Y-74705507D01*
X97148710Y-74600932D01*
X97320197Y-74460197D01*
X97460932Y-74288710D01*
X97565507Y-74093063D01*
X97629905Y-73880774D01*
X97651649Y-73660000D01*
X97629905Y-73439226D01*
X97565507Y-73226937D01*
X97460932Y-73031290D01*
X97320197Y-72859803D01*
X97148710Y-72719068D01*
X96953063Y-72614493D01*
X96740774Y-72550095D01*
X96575325Y-72533800D01*
X96464675Y-72533800D01*
X96299226Y-72550095D01*
X96086937Y-72614493D01*
X95891290Y-72719068D01*
X95719803Y-72859803D01*
X95579068Y-73031290D01*
X95474493Y-73226937D01*
X95410095Y-73439226D01*
X95388351Y-73660000D01*
X90589100Y-73660000D01*
X90589100Y-70270000D01*
X95392464Y-70270000D01*
X95392464Y-71970000D01*
X95397797Y-72024145D01*
X95413590Y-72076208D01*
X95439237Y-72124191D01*
X95473752Y-72166248D01*
X95515809Y-72200763D01*
X95563792Y-72226410D01*
X95615855Y-72242203D01*
X95670000Y-72247536D01*
X97370000Y-72247536D01*
X97424145Y-72242203D01*
X97476208Y-72226410D01*
X97524191Y-72200763D01*
X97566248Y-72166248D01*
X97600763Y-72124191D01*
X97626410Y-72076208D01*
X97642203Y-72024145D01*
X97647536Y-71970000D01*
X97647536Y-70270000D01*
X97642203Y-70215855D01*
X97626410Y-70163792D01*
X97600763Y-70115809D01*
X97566248Y-70073752D01*
X97524191Y-70039237D01*
X97476208Y-70013590D01*
X97424145Y-69997797D01*
X97370000Y-69992464D01*
X95670000Y-69992464D01*
X95615855Y-69997797D01*
X95563792Y-70013590D01*
X95515809Y-70039237D01*
X95473752Y-70073752D01*
X95439237Y-70115809D01*
X95413590Y-70163792D01*
X95397797Y-70215855D01*
X95392464Y-70270000D01*
X90589100Y-70270000D01*
X90589100Y-68580000D01*
X95388351Y-68580000D01*
X95410095Y-68800774D01*
X95474493Y-69013063D01*
X95579068Y-69208710D01*
X95719803Y-69380197D01*
X95891290Y-69520932D01*
X96086937Y-69625507D01*
X96299226Y-69689905D01*
X96464675Y-69706200D01*
X96575325Y-69706200D01*
X96740774Y-69689905D01*
X96953063Y-69625507D01*
X97148710Y-69520932D01*
X97320197Y-69380197D01*
X97460932Y-69208710D01*
X97565507Y-69013063D01*
X97629905Y-68800774D01*
X97651649Y-68580000D01*
X97629905Y-68359226D01*
X97565507Y-68146937D01*
X97460932Y-67951290D01*
X97320197Y-67779803D01*
X97148710Y-67639068D01*
X96953063Y-67534493D01*
X96740774Y-67470095D01*
X96575325Y-67453800D01*
X96464675Y-67453800D01*
X96299226Y-67470095D01*
X96086937Y-67534493D01*
X95891290Y-67639068D01*
X95719803Y-67779803D01*
X95579068Y-67951290D01*
X95474493Y-68146937D01*
X95410095Y-68359226D01*
X95388351Y-68580000D01*
X90589100Y-68580000D01*
X90589100Y-60071000D01*
X94336235Y-60071000D01*
X94338800Y-60097040D01*
X94338801Y-61568950D01*
X94336235Y-61595000D01*
X94346191Y-61696072D01*
X94346473Y-61698937D01*
X94376790Y-61798880D01*
X94426023Y-61890988D01*
X94492279Y-61971722D01*
X94512510Y-61988325D01*
X97449748Y-64925563D01*
X97424145Y-64917797D01*
X97370000Y-64912464D01*
X95670000Y-64912464D01*
X95615855Y-64917797D01*
X95563792Y-64933590D01*
X95515809Y-64959237D01*
X95473752Y-64993752D01*
X95439237Y-65035809D01*
X95413590Y-65083792D01*
X95397797Y-65135855D01*
X95392464Y-65190000D01*
X95392464Y-66890000D01*
X95397797Y-66944145D01*
X95413590Y-66996208D01*
X95439237Y-67044191D01*
X95473752Y-67086248D01*
X95515809Y-67120763D01*
X95563792Y-67146410D01*
X95615855Y-67162203D01*
X95670000Y-67167536D01*
X97370000Y-67167536D01*
X97424145Y-67162203D01*
X97476208Y-67146410D01*
X97524191Y-67120763D01*
X97566248Y-67086248D01*
X97600763Y-67044191D01*
X97626410Y-66996208D01*
X97642203Y-66944145D01*
X97647536Y-66890000D01*
X97647536Y-65190000D01*
X97642203Y-65135855D01*
X97634437Y-65110253D01*
X97767800Y-65243616D01*
X97767801Y-77570950D01*
X97765235Y-77597000D01*
X97774838Y-77694493D01*
X97775473Y-77700937D01*
X97805790Y-77800880D01*
X97855023Y-77892988D01*
X97921279Y-77973722D01*
X97941510Y-77990325D01*
X99555675Y-79604491D01*
X99572278Y-79624722D01*
X99653012Y-79690978D01*
X99745120Y-79740211D01*
X99814745Y-79761331D01*
X99845062Y-79770528D01*
X99949000Y-79780765D01*
X99975043Y-79778200D01*
X104478373Y-79778200D01*
X104581699Y-79847241D01*
X104704760Y-79898214D01*
X104835400Y-79924200D01*
X104968600Y-79924200D01*
X105099240Y-79898214D01*
X105222301Y-79847241D01*
X105333052Y-79773239D01*
X105427239Y-79679052D01*
X105501241Y-79568301D01*
X105552214Y-79445240D01*
X105578200Y-79314600D01*
X105578200Y-79181400D01*
X105552214Y-79050760D01*
X105501241Y-78927699D01*
X105427239Y-78816948D01*
X105350291Y-78740000D01*
X118248351Y-78740000D01*
X118270095Y-78960774D01*
X118334493Y-79173063D01*
X118439068Y-79368710D01*
X118579803Y-79540197D01*
X118751290Y-79680932D01*
X118946937Y-79785507D01*
X119159226Y-79849905D01*
X119324675Y-79866200D01*
X119435325Y-79866200D01*
X119600774Y-79849905D01*
X119813063Y-79785507D01*
X120008710Y-79680932D01*
X120180197Y-79540197D01*
X120320932Y-79368710D01*
X120425507Y-79173063D01*
X120489905Y-78960774D01*
X120511649Y-78740000D01*
X120489905Y-78519226D01*
X120425507Y-78306937D01*
X120320932Y-78111290D01*
X120180197Y-77939803D01*
X120008710Y-77799068D01*
X119813063Y-77694493D01*
X119600774Y-77630095D01*
X119435325Y-77613800D01*
X119324675Y-77613800D01*
X119159226Y-77630095D01*
X118946937Y-77694493D01*
X118751290Y-77799068D01*
X118579803Y-77939803D01*
X118439068Y-78111290D01*
X118334493Y-78306937D01*
X118270095Y-78519226D01*
X118248351Y-78740000D01*
X105350291Y-78740000D01*
X105333052Y-78722761D01*
X105222301Y-78648759D01*
X105099240Y-78597786D01*
X104968600Y-78571800D01*
X104835400Y-78571800D01*
X104704760Y-78597786D01*
X104581699Y-78648759D01*
X104478373Y-78717800D01*
X100168616Y-78717800D01*
X98828200Y-77377385D01*
X98828200Y-76200000D01*
X118248351Y-76200000D01*
X118270095Y-76420774D01*
X118334493Y-76633063D01*
X118439068Y-76828710D01*
X118579803Y-77000197D01*
X118751290Y-77140932D01*
X118946937Y-77245507D01*
X119159226Y-77309905D01*
X119324675Y-77326200D01*
X119435325Y-77326200D01*
X119600774Y-77309905D01*
X119813063Y-77245507D01*
X120008710Y-77140932D01*
X120180197Y-77000197D01*
X120320932Y-76828710D01*
X120425507Y-76633063D01*
X120489905Y-76420774D01*
X120511649Y-76200000D01*
X120489905Y-75979226D01*
X120425507Y-75766937D01*
X120320932Y-75571290D01*
X120180197Y-75399803D01*
X120008710Y-75259068D01*
X119813063Y-75154493D01*
X119600774Y-75090095D01*
X119435325Y-75073800D01*
X119324675Y-75073800D01*
X119159226Y-75090095D01*
X118946937Y-75154493D01*
X118751290Y-75259068D01*
X118579803Y-75399803D01*
X118439068Y-75571290D01*
X118334493Y-75766937D01*
X118270095Y-75979226D01*
X118248351Y-76200000D01*
X98828200Y-76200000D01*
X98828200Y-65050039D01*
X98830765Y-65023999D01*
X98821860Y-64933590D01*
X98820528Y-64920063D01*
X98790211Y-64820120D01*
X98740978Y-64728012D01*
X98674722Y-64647278D01*
X98654491Y-64630675D01*
X96067943Y-62044128D01*
X96161871Y-62084560D01*
X96342200Y-62044189D01*
X96342200Y-61137800D01*
X96697800Y-61137800D01*
X96697800Y-62044189D01*
X96878129Y-62084560D01*
X97090638Y-61993084D01*
X97281218Y-61861908D01*
X97442545Y-61696072D01*
X97568419Y-61501949D01*
X97644552Y-61318128D01*
X97603154Y-61137800D01*
X96697800Y-61137800D01*
X96342200Y-61137800D01*
X96322200Y-61137800D01*
X96322200Y-60782200D01*
X96342200Y-60782200D01*
X96342200Y-59875811D01*
X96697800Y-59875811D01*
X96697800Y-60782200D01*
X97603154Y-60782200D01*
X97644552Y-60601872D01*
X97568419Y-60418051D01*
X97442545Y-60223928D01*
X97281218Y-60058092D01*
X97090638Y-59926916D01*
X96878129Y-59835440D01*
X96697800Y-59875811D01*
X96342200Y-59875811D01*
X96161871Y-59835440D01*
X95949362Y-59926916D01*
X95758782Y-60058092D01*
X95597455Y-60223928D01*
X95471581Y-60418051D01*
X95399200Y-60592813D01*
X95399200Y-60290615D01*
X96192336Y-59497480D01*
X96299226Y-59529905D01*
X96464675Y-59546200D01*
X96575325Y-59546200D01*
X96740774Y-59529905D01*
X96953063Y-59465507D01*
X97148710Y-59360932D01*
X97320197Y-59220197D01*
X97460932Y-59048710D01*
X97565507Y-58853063D01*
X97629905Y-58640774D01*
X97651649Y-58420000D01*
X97629905Y-58199226D01*
X97565507Y-57986937D01*
X97460932Y-57791290D01*
X97320197Y-57619803D01*
X97148710Y-57479068D01*
X96953063Y-57374493D01*
X96740774Y-57310095D01*
X96575325Y-57293800D01*
X96464675Y-57293800D01*
X96299226Y-57310095D01*
X96086937Y-57374493D01*
X95891290Y-57479068D01*
X95719803Y-57619803D01*
X95579068Y-57791290D01*
X95474493Y-57986937D01*
X95410095Y-58199226D01*
X95388351Y-58420000D01*
X95410095Y-58640774D01*
X95442520Y-58747664D01*
X94512514Y-59677671D01*
X94492278Y-59694278D01*
X94426022Y-59775012D01*
X94376789Y-59867121D01*
X94346472Y-59967064D01*
X94338997Y-60042956D01*
X94336235Y-60071000D01*
X90589100Y-60071000D01*
X90589100Y-55265499D01*
X90607277Y-55080114D01*
X90622407Y-55030000D01*
X95392464Y-55030000D01*
X95392464Y-56730000D01*
X95397797Y-56784145D01*
X95413590Y-56836208D01*
X95439237Y-56884191D01*
X95473752Y-56926248D01*
X95515809Y-56960763D01*
X95563792Y-56986410D01*
X95615855Y-57002203D01*
X95670000Y-57007536D01*
X97370000Y-57007536D01*
X97424145Y-57002203D01*
X97476208Y-56986410D01*
X97524191Y-56960763D01*
X97566248Y-56926248D01*
X97600763Y-56884191D01*
X97626410Y-56836208D01*
X97642203Y-56784145D01*
X97647536Y-56730000D01*
X97647536Y-55030000D01*
X97642203Y-54975855D01*
X97626410Y-54923792D01*
X97600763Y-54875809D01*
X97566248Y-54833752D01*
X97524191Y-54799237D01*
X97476208Y-54773590D01*
X97424145Y-54757797D01*
X97370000Y-54752464D01*
X95670000Y-54752464D01*
X95615855Y-54757797D01*
X95563792Y-54773590D01*
X95515809Y-54799237D01*
X95473752Y-54833752D01*
X95439237Y-54875809D01*
X95413590Y-54923792D01*
X95397797Y-54975855D01*
X95392464Y-55030000D01*
X90622407Y-55030000D01*
X90655161Y-54921517D01*
X90732944Y-54775228D01*
X90837652Y-54646844D01*
X90965308Y-54541237D01*
X91111040Y-54462440D01*
X91269308Y-54413447D01*
X91453391Y-54394100D01*
X102137518Y-54394100D01*
X100949249Y-55582370D01*
X100949249Y-55582370D01*
G37*
X100949249Y-55582370D02*
X100933937Y-55594936D01*
X100916316Y-55616408D01*
X100883801Y-55656027D01*
X100846958Y-55724956D01*
X100846547Y-55725725D01*
X100838274Y-55752999D01*
X100823606Y-55801352D01*
X100815859Y-55880000D01*
X100817801Y-55899715D01*
X100817800Y-58636814D01*
X100787948Y-58656761D01*
X100693761Y-58750948D01*
X100619759Y-58861699D01*
X100568786Y-58984760D01*
X100542800Y-59115400D01*
X100542800Y-59248600D01*
X100568786Y-59379240D01*
X100619759Y-59502301D01*
X100693761Y-59613052D01*
X100787948Y-59707239D01*
X100898699Y-59781241D01*
X101021760Y-59832214D01*
X101152400Y-59858200D01*
X101285600Y-59858200D01*
X101416240Y-59832214D01*
X101539301Y-59781241D01*
X101650052Y-59707239D01*
X101744239Y-59613052D01*
X101818241Y-59502301D01*
X101869214Y-59379240D01*
X101895200Y-59248600D01*
X101895200Y-59115400D01*
X101869214Y-58984760D01*
X101818241Y-58861699D01*
X101744239Y-58750948D01*
X101650052Y-58656761D01*
X101620200Y-58636814D01*
X101620200Y-56046181D01*
X102655182Y-55011200D01*
X103423396Y-55011200D01*
X103339803Y-55079803D01*
X103199068Y-55251290D01*
X103094493Y-55446937D01*
X103030095Y-55659226D01*
X103008351Y-55880000D01*
X103030095Y-56100774D01*
X103094493Y-56313063D01*
X103199068Y-56508710D01*
X103339803Y-56680197D01*
X103511290Y-56820932D01*
X103706937Y-56925507D01*
X103919226Y-56989905D01*
X104084675Y-57006200D01*
X104195325Y-57006200D01*
X104360774Y-56989905D01*
X104573063Y-56925507D01*
X104768710Y-56820932D01*
X104940197Y-56680197D01*
X105080932Y-56508710D01*
X105185507Y-56313063D01*
X105249905Y-56100774D01*
X105271649Y-55880000D01*
X105249905Y-55659226D01*
X105185507Y-55446937D01*
X105080932Y-55251290D01*
X104940197Y-55079803D01*
X104856604Y-55011200D01*
X105963396Y-55011200D01*
X105879803Y-55079803D01*
X105739068Y-55251290D01*
X105634493Y-55446937D01*
X105570095Y-55659226D01*
X105548351Y-55880000D01*
X105570095Y-56100774D01*
X105634493Y-56313063D01*
X105649204Y-56340586D01*
X105138892Y-56850898D01*
X105123517Y-56863516D01*
X105110899Y-56878891D01*
X105110896Y-56878894D01*
X105073131Y-56924911D01*
X105035691Y-56994956D01*
X105012635Y-57070959D01*
X105004851Y-57150000D01*
X105006801Y-57169801D01*
X105006801Y-57294119D01*
X104990000Y-57292464D01*
X103290000Y-57292464D01*
X103235855Y-57297797D01*
X103183792Y-57313590D01*
X103135809Y-57339237D01*
X103093752Y-57373752D01*
X103059237Y-57415809D01*
X103033590Y-57463792D01*
X103017797Y-57515855D01*
X103012464Y-57570000D01*
X103012464Y-59270000D01*
X103017797Y-59324145D01*
X103033590Y-59376208D01*
X103059237Y-59424191D01*
X103093752Y-59466248D01*
X103135809Y-59500763D01*
X103183792Y-59526410D01*
X103235855Y-59542203D01*
X103290000Y-59547536D01*
X103736801Y-59547536D01*
X103736800Y-61046989D01*
X102217892Y-62565898D01*
X102202517Y-62578516D01*
X102189899Y-62593891D01*
X102189896Y-62593894D01*
X102152131Y-62639911D01*
X102114691Y-62709956D01*
X102091635Y-62785959D01*
X102083851Y-62865000D01*
X102085801Y-62884801D01*
X102085800Y-65766209D01*
X102083851Y-65786000D01*
X102085800Y-65805791D01*
X102085800Y-65805797D01*
X102087123Y-65819226D01*
X102091549Y-65864162D01*
X102091635Y-65865040D01*
X102114690Y-65941043D01*
X102152130Y-66011088D01*
X102202516Y-66072484D01*
X102217897Y-66085107D01*
X104879801Y-68747011D01*
X104879800Y-73492990D01*
X104757892Y-73614898D01*
X104742517Y-73627516D01*
X104729899Y-73642891D01*
X104729896Y-73642894D01*
X104692131Y-73688911D01*
X104654691Y-73758956D01*
X104631635Y-73834959D01*
X104623851Y-73914000D01*
X104625801Y-73933800D01*
X104625800Y-74589171D01*
X104623851Y-74608962D01*
X104625800Y-74628753D01*
X104625800Y-74628759D01*
X104631635Y-74688002D01*
X104654690Y-74764005D01*
X104692130Y-74834050D01*
X104742516Y-74895446D01*
X104757897Y-74908069D01*
X105304936Y-75455109D01*
X105317554Y-75470484D01*
X105332929Y-75483102D01*
X105332932Y-75483105D01*
X105378949Y-75520870D01*
X105448993Y-75558310D01*
X105524997Y-75581365D01*
X105584240Y-75587200D01*
X105584247Y-75587200D01*
X105604038Y-75589149D01*
X105623829Y-75587200D01*
X106009151Y-75587200D01*
X106027761Y-75615052D01*
X106121948Y-75709239D01*
X106232699Y-75783241D01*
X106355760Y-75834214D01*
X106486400Y-75860200D01*
X106619600Y-75860200D01*
X106750240Y-75834214D01*
X106873301Y-75783241D01*
X106984052Y-75709239D01*
X107078239Y-75615052D01*
X107152241Y-75504301D01*
X107203214Y-75381240D01*
X107229200Y-75250600D01*
X107229200Y-75117400D01*
X107203214Y-74986760D01*
X107152241Y-74863699D01*
X107078239Y-74752948D01*
X106984052Y-74658761D01*
X106873301Y-74584759D01*
X106750240Y-74533786D01*
X106619600Y-74507800D01*
X106486400Y-74507800D01*
X106430133Y-74518992D01*
X106441214Y-74492240D01*
X106467200Y-74361600D01*
X106467200Y-74228400D01*
X106441214Y-74097760D01*
X106430133Y-74071008D01*
X106486400Y-74082200D01*
X106619600Y-74082200D01*
X106750240Y-74056214D01*
X106873301Y-74005241D01*
X106984052Y-73931239D01*
X107078239Y-73837052D01*
X107152241Y-73726301D01*
X107203214Y-73603240D01*
X107229200Y-73472600D01*
X107229200Y-73339400D01*
X107203214Y-73208760D01*
X107152241Y-73085699D01*
X107078239Y-72974948D01*
X107033810Y-72930519D01*
X107121699Y-72989245D01*
X107244760Y-73040218D01*
X107375400Y-73066204D01*
X107508600Y-73066204D01*
X107639240Y-73040218D01*
X107762301Y-72989245D01*
X107873052Y-72915243D01*
X107967239Y-72821056D01*
X107974626Y-72810000D01*
X118252464Y-72810000D01*
X118252464Y-74510000D01*
X118257797Y-74564145D01*
X118273590Y-74616208D01*
X118299237Y-74664191D01*
X118333752Y-74706248D01*
X118375809Y-74740763D01*
X118423792Y-74766410D01*
X118475855Y-74782203D01*
X118530000Y-74787536D01*
X120230000Y-74787536D01*
X120284145Y-74782203D01*
X120336208Y-74766410D01*
X120384191Y-74740763D01*
X120426248Y-74706248D01*
X120460763Y-74664191D01*
X120486410Y-74616208D01*
X120502203Y-74564145D01*
X120507536Y-74510000D01*
X120507536Y-72810000D01*
X120502203Y-72755855D01*
X120486410Y-72703792D01*
X120460763Y-72655809D01*
X120426248Y-72613752D01*
X120384191Y-72579237D01*
X120336208Y-72553590D01*
X120284145Y-72537797D01*
X120230000Y-72532464D01*
X118530000Y-72532464D01*
X118475855Y-72537797D01*
X118423792Y-72553590D01*
X118375809Y-72579237D01*
X118333752Y-72613752D01*
X118299237Y-72655809D01*
X118273590Y-72703792D01*
X118257797Y-72755855D01*
X118252464Y-72810000D01*
X107974626Y-72810000D01*
X108041241Y-72710305D01*
X108092214Y-72587244D01*
X108118200Y-72456604D01*
X108118200Y-72323404D01*
X108092214Y-72192764D01*
X108041241Y-72069703D01*
X107967239Y-71958952D01*
X107873052Y-71864765D01*
X107762301Y-71790763D01*
X107639240Y-71739790D01*
X107508600Y-71713804D01*
X107375400Y-71713804D01*
X107342546Y-71720339D01*
X107210200Y-71587994D01*
X107210200Y-68580000D01*
X118248351Y-68580000D01*
X118270095Y-68800774D01*
X118334493Y-69013063D01*
X118439068Y-69208710D01*
X118579803Y-69380197D01*
X118751290Y-69520932D01*
X118946937Y-69625507D01*
X119159226Y-69689905D01*
X119324675Y-69706200D01*
X119435325Y-69706200D01*
X119600774Y-69689905D01*
X119813063Y-69625507D01*
X120008710Y-69520932D01*
X120180197Y-69380197D01*
X120320932Y-69208710D01*
X120425507Y-69013063D01*
X120489905Y-68800774D01*
X120511649Y-68580000D01*
X120489905Y-68359226D01*
X120425507Y-68146937D01*
X120320932Y-67951290D01*
X120180197Y-67779803D01*
X120008710Y-67639068D01*
X119813063Y-67534493D01*
X119600774Y-67470095D01*
X119435325Y-67453800D01*
X119324675Y-67453800D01*
X119159226Y-67470095D01*
X118946937Y-67534493D01*
X118751290Y-67639068D01*
X118579803Y-67779803D01*
X118439068Y-67951290D01*
X118334493Y-68146937D01*
X118270095Y-68359226D01*
X118248351Y-68580000D01*
X107210200Y-68580000D01*
X107210200Y-68091791D01*
X107212149Y-68072000D01*
X107210200Y-68052209D01*
X107210200Y-68052202D01*
X107204365Y-67992959D01*
X107201012Y-67981906D01*
X107181310Y-67916955D01*
X107143870Y-67846911D01*
X107106105Y-67800894D01*
X107106102Y-67800891D01*
X107093484Y-67785516D01*
X107078109Y-67772898D01*
X105345211Y-66040000D01*
X118248351Y-66040000D01*
X118270095Y-66260774D01*
X118334493Y-66473063D01*
X118439068Y-66668710D01*
X118579803Y-66840197D01*
X118751290Y-66980932D01*
X118946937Y-67085507D01*
X119159226Y-67149905D01*
X119324675Y-67166200D01*
X119435325Y-67166200D01*
X119600774Y-67149905D01*
X119813063Y-67085507D01*
X120008710Y-66980932D01*
X120180197Y-66840197D01*
X120320932Y-66668710D01*
X120425507Y-66473063D01*
X120489905Y-66260774D01*
X120511649Y-66040000D01*
X120489905Y-65819226D01*
X120425507Y-65606937D01*
X120320932Y-65411290D01*
X120180197Y-65239803D01*
X120008710Y-65099068D01*
X119813063Y-64994493D01*
X119600774Y-64930095D01*
X119435325Y-64913800D01*
X119324675Y-64913800D01*
X119159226Y-64930095D01*
X118946937Y-64994493D01*
X118751290Y-65099068D01*
X118579803Y-65239803D01*
X118439068Y-65411290D01*
X118334493Y-65606937D01*
X118270095Y-65819226D01*
X118248351Y-66040000D01*
X105345211Y-66040000D01*
X104543200Y-65237990D01*
X104543200Y-63667010D01*
X105560210Y-62650000D01*
X118252464Y-62650000D01*
X118252464Y-64350000D01*
X118257797Y-64404145D01*
X118273590Y-64456208D01*
X118299237Y-64504191D01*
X118333752Y-64546248D01*
X118375809Y-64580763D01*
X118423792Y-64606410D01*
X118475855Y-64622203D01*
X118530000Y-64627536D01*
X120230000Y-64627536D01*
X120284145Y-64622203D01*
X120336208Y-64606410D01*
X120384191Y-64580763D01*
X120426248Y-64546248D01*
X120460763Y-64504191D01*
X120486410Y-64456208D01*
X120502203Y-64404145D01*
X120507536Y-64350000D01*
X120507536Y-62650000D01*
X120502203Y-62595855D01*
X120486410Y-62543792D01*
X120460763Y-62495809D01*
X120426248Y-62453752D01*
X120384191Y-62419237D01*
X120336208Y-62393590D01*
X120284145Y-62377797D01*
X120230000Y-62372464D01*
X118530000Y-62372464D01*
X118475855Y-62377797D01*
X118423792Y-62393590D01*
X118375809Y-62419237D01*
X118333752Y-62453752D01*
X118299237Y-62495809D01*
X118273590Y-62543792D01*
X118257797Y-62595855D01*
X118252464Y-62650000D01*
X105560210Y-62650000D01*
X108759415Y-59450796D01*
X108786937Y-59465507D01*
X108999226Y-59529905D01*
X109164675Y-59546200D01*
X109275325Y-59546200D01*
X109440774Y-59529905D01*
X109653063Y-59465507D01*
X109848710Y-59360932D01*
X110020197Y-59220197D01*
X110160932Y-59048710D01*
X110265507Y-58853063D01*
X110329905Y-58640774D01*
X110351649Y-58420000D01*
X110329905Y-58199226D01*
X110265507Y-57986937D01*
X110160932Y-57791290D01*
X110020197Y-57619803D01*
X109848710Y-57479068D01*
X109653063Y-57374493D01*
X109440774Y-57310095D01*
X109275325Y-57293800D01*
X109164675Y-57293800D01*
X108999226Y-57310095D01*
X108786937Y-57374493D01*
X108591290Y-57479068D01*
X108419803Y-57619803D01*
X108279068Y-57791290D01*
X108174493Y-57986937D01*
X108110095Y-58199226D01*
X108088351Y-58420000D01*
X108110095Y-58640774D01*
X108174493Y-58853063D01*
X108189204Y-58880585D01*
X107083200Y-59986589D01*
X107083200Y-59474566D01*
X107113063Y-59465507D01*
X107308710Y-59360932D01*
X107480197Y-59220197D01*
X107620932Y-59048710D01*
X107725507Y-58853063D01*
X107789905Y-58640774D01*
X107811649Y-58420000D01*
X107789905Y-58199226D01*
X107725507Y-57986937D01*
X107620932Y-57791290D01*
X107480197Y-57619803D01*
X107308710Y-57479068D01*
X107113063Y-57374493D01*
X106900774Y-57310095D01*
X106735325Y-57293800D01*
X106624675Y-57293800D01*
X106459226Y-57310095D01*
X106246937Y-57374493D01*
X106051290Y-57479068D01*
X105879803Y-57619803D01*
X105813200Y-57700959D01*
X105813200Y-57317010D01*
X106219414Y-56910796D01*
X106246937Y-56925507D01*
X106459226Y-56989905D01*
X106624675Y-57006200D01*
X106735325Y-57006200D01*
X106900774Y-56989905D01*
X107113063Y-56925507D01*
X107308710Y-56820932D01*
X107480197Y-56680197D01*
X107620932Y-56508710D01*
X107725507Y-56313063D01*
X107748238Y-56238129D01*
X108095440Y-56238129D01*
X108186916Y-56450638D01*
X108318092Y-56641218D01*
X108483928Y-56802545D01*
X108678051Y-56928419D01*
X108861872Y-57004552D01*
X109042200Y-56963154D01*
X109042200Y-56057800D01*
X109397800Y-56057800D01*
X109397800Y-56963154D01*
X109578128Y-57004552D01*
X109761949Y-56928419D01*
X109956072Y-56802545D01*
X110121908Y-56641218D01*
X110253084Y-56450638D01*
X110344560Y-56238129D01*
X110304189Y-56057800D01*
X109397800Y-56057800D01*
X109042200Y-56057800D01*
X108135811Y-56057800D01*
X108095440Y-56238129D01*
X107748238Y-56238129D01*
X107789905Y-56100774D01*
X107811649Y-55880000D01*
X107789905Y-55659226D01*
X107725507Y-55446937D01*
X107620932Y-55251290D01*
X107480197Y-55079803D01*
X107396604Y-55011200D01*
X108428681Y-55011200D01*
X108318092Y-55118782D01*
X108186916Y-55309362D01*
X108095440Y-55521871D01*
X108135811Y-55702200D01*
X109042200Y-55702200D01*
X109042200Y-55682200D01*
X109397800Y-55682200D01*
X109397800Y-55702200D01*
X110304189Y-55702200D01*
X110344560Y-55521871D01*
X110253084Y-55309362D01*
X110121908Y-55118782D01*
X110011319Y-55011200D01*
X112736819Y-55011200D01*
X113644800Y-55919182D01*
X113644801Y-56604814D01*
X113614948Y-56624761D01*
X113520761Y-56718948D01*
X113446759Y-56829699D01*
X113395786Y-56952760D01*
X113369800Y-57083400D01*
X113369800Y-57216600D01*
X113395786Y-57347240D01*
X113446759Y-57470301D01*
X113520761Y-57581052D01*
X113614948Y-57675239D01*
X113725699Y-57749241D01*
X113848760Y-57800214D01*
X113979400Y-57826200D01*
X114112600Y-57826200D01*
X114243240Y-57800214D01*
X114366301Y-57749241D01*
X114477052Y-57675239D01*
X114571239Y-57581052D01*
X114645241Y-57470301D01*
X114696214Y-57347240D01*
X114722200Y-57216600D01*
X114722200Y-57083400D01*
X114696214Y-56952760D01*
X114645241Y-56829699D01*
X114571239Y-56718948D01*
X114477052Y-56624761D01*
X114447200Y-56604814D01*
X114447200Y-55772704D01*
X114449141Y-55752999D01*
X114447200Y-55733292D01*
X114441395Y-55674351D01*
X114418454Y-55598725D01*
X114399192Y-55562689D01*
X114381199Y-55529026D01*
X114360628Y-55503961D01*
X114331064Y-55467936D01*
X114315753Y-55455371D01*
X113254481Y-54394100D01*
X120633534Y-54394100D01*
X121577596Y-54468399D01*
X122482346Y-54685610D01*
X123341983Y-55041684D01*
X124135335Y-55527851D01*
X124842863Y-56132137D01*
X125447150Y-56839665D01*
X125933314Y-57633012D01*
X126289390Y-58492654D01*
X126506601Y-59397403D01*
X126580900Y-60341467D01*
X126580901Y-94598521D01*
X126506601Y-95542597D01*
X126289390Y-96447346D01*
X125933314Y-97306988D01*
X125447150Y-98100335D01*
X124842863Y-98807863D01*
X124135335Y-99412149D01*
X123341983Y-99898316D01*
X122482346Y-100254390D01*
X121577596Y-100471601D01*
X120633534Y-100545900D01*
X91460499Y-100545900D01*
X91275114Y-100527723D01*
X91116515Y-100479839D01*
X90970228Y-100402056D01*
X90841846Y-100297351D01*
X90736238Y-100169693D01*
X90657439Y-100023958D01*
X90608447Y-99865692D01*
X90589100Y-99681609D01*
X90589100Y-98210000D01*
X95392464Y-98210000D01*
X95392464Y-99910000D01*
X95397797Y-99964145D01*
X95413590Y-100016208D01*
X95439237Y-100064191D01*
X95473752Y-100106248D01*
X95515809Y-100140763D01*
X95563792Y-100166410D01*
X95615855Y-100182203D01*
X95670000Y-100187536D01*
X97370000Y-100187536D01*
X97424145Y-100182203D01*
X97476208Y-100166410D01*
X97524191Y-100140763D01*
X97566248Y-100106248D01*
X97600763Y-100064191D01*
X97626410Y-100016208D01*
X97642203Y-99964145D01*
X97647536Y-99910000D01*
X97647536Y-98210000D01*
X97642203Y-98155855D01*
X97626410Y-98103792D01*
X97600763Y-98055809D01*
X97566248Y-98013752D01*
X97524191Y-97979237D01*
X97476208Y-97953590D01*
X97424145Y-97937797D01*
X97370000Y-97932464D01*
X95670000Y-97932464D01*
X95615855Y-97937797D01*
X95563792Y-97953590D01*
X95515809Y-97979237D01*
X95473752Y-98013752D01*
X95439237Y-98055809D01*
X95413590Y-98103792D01*
X95397797Y-98155855D01*
X95392464Y-98210000D01*
X90589100Y-98210000D01*
X90589100Y-96520000D01*
X95388351Y-96520000D01*
X95410095Y-96740774D01*
X95474493Y-96953063D01*
X95579068Y-97148710D01*
X95719803Y-97320197D01*
X95891290Y-97460932D01*
X96086937Y-97565507D01*
X96299226Y-97629905D01*
X96464675Y-97646200D01*
X96575325Y-97646200D01*
X96740774Y-97629905D01*
X96953063Y-97565507D01*
X97148710Y-97460932D01*
X97320197Y-97320197D01*
X97460932Y-97148710D01*
X97565507Y-96953063D01*
X97629905Y-96740774D01*
X97651649Y-96520000D01*
X97629905Y-96299226D01*
X97565507Y-96086937D01*
X97460932Y-95891290D01*
X97320197Y-95719803D01*
X97148710Y-95579068D01*
X96953063Y-95474493D01*
X96740774Y-95410095D01*
X96575325Y-95393800D01*
X96464675Y-95393800D01*
X96299226Y-95410095D01*
X96086937Y-95474493D01*
X95891290Y-95579068D01*
X95719803Y-95719803D01*
X95579068Y-95891290D01*
X95474493Y-96086937D01*
X95410095Y-96299226D01*
X95388351Y-96520000D01*
X90589100Y-96520000D01*
X90589100Y-93980000D01*
X95388351Y-93980000D01*
X95410095Y-94200774D01*
X95474493Y-94413063D01*
X95579068Y-94608710D01*
X95719803Y-94780197D01*
X95891290Y-94920932D01*
X96086937Y-95025507D01*
X96299226Y-95089905D01*
X96464675Y-95106200D01*
X96575325Y-95106200D01*
X96740774Y-95089905D01*
X96953063Y-95025507D01*
X97148710Y-94920932D01*
X97320197Y-94780197D01*
X97460932Y-94608710D01*
X97565507Y-94413063D01*
X97629905Y-94200774D01*
X97651649Y-93980000D01*
X97629905Y-93759226D01*
X97565507Y-93546937D01*
X97460932Y-93351290D01*
X97320197Y-93179803D01*
X97148710Y-93039068D01*
X96953063Y-92934493D01*
X96740774Y-92870095D01*
X96575325Y-92853800D01*
X96464675Y-92853800D01*
X96299226Y-92870095D01*
X96086937Y-92934493D01*
X95891290Y-93039068D01*
X95719803Y-93179803D01*
X95579068Y-93351290D01*
X95474493Y-93546937D01*
X95410095Y-93759226D01*
X95388351Y-93980000D01*
X90589100Y-93980000D01*
X90589100Y-91440000D01*
X95388351Y-91440000D01*
X95410095Y-91660774D01*
X95474493Y-91873063D01*
X95579068Y-92068710D01*
X95719803Y-92240197D01*
X95891290Y-92380932D01*
X96086937Y-92485507D01*
X96299226Y-92549905D01*
X96464675Y-92566200D01*
X96575325Y-92566200D01*
X96740774Y-92549905D01*
X96953063Y-92485507D01*
X97148710Y-92380932D01*
X97320197Y-92240197D01*
X97460932Y-92068710D01*
X97565507Y-91873063D01*
X97629905Y-91660774D01*
X97651649Y-91440000D01*
X97629905Y-91219226D01*
X97565507Y-91006937D01*
X97460932Y-90811290D01*
X97320197Y-90639803D01*
X97148710Y-90499068D01*
X96953063Y-90394493D01*
X96740774Y-90330095D01*
X96575325Y-90313800D01*
X96464675Y-90313800D01*
X96299226Y-90330095D01*
X96086937Y-90394493D01*
X95891290Y-90499068D01*
X95719803Y-90639803D01*
X95579068Y-90811290D01*
X95474493Y-91006937D01*
X95410095Y-91219226D01*
X95388351Y-91440000D01*
X90589100Y-91440000D01*
X90589100Y-88900000D01*
X95388351Y-88900000D01*
X95410095Y-89120774D01*
X95474493Y-89333063D01*
X95579068Y-89528710D01*
X95719803Y-89700197D01*
X95891290Y-89840932D01*
X96086937Y-89945507D01*
X96299226Y-90009905D01*
X96464675Y-90026200D01*
X96575325Y-90026200D01*
X96740774Y-90009905D01*
X96953063Y-89945507D01*
X97148710Y-89840932D01*
X97320197Y-89700197D01*
X97460932Y-89528710D01*
X97565507Y-89333063D01*
X97629905Y-89120774D01*
X97651649Y-88900000D01*
X118248351Y-88900000D01*
X118270095Y-89120774D01*
X118334493Y-89333063D01*
X118439068Y-89528710D01*
X118579803Y-89700197D01*
X118751290Y-89840932D01*
X118946937Y-89945507D01*
X119159226Y-90009905D01*
X119324675Y-90026200D01*
X119435325Y-90026200D01*
X119600774Y-90009905D01*
X119813063Y-89945507D01*
X120008710Y-89840932D01*
X120180197Y-89700197D01*
X120320932Y-89528710D01*
X120425507Y-89333063D01*
X120489905Y-89120774D01*
X120511649Y-88900000D01*
X120489905Y-88679226D01*
X120425507Y-88466937D01*
X120320932Y-88271290D01*
X120180197Y-88099803D01*
X120008710Y-87959068D01*
X119813063Y-87854493D01*
X119600774Y-87790095D01*
X119435325Y-87773800D01*
X119324675Y-87773800D01*
X119159226Y-87790095D01*
X118946937Y-87854493D01*
X118751290Y-87959068D01*
X118579803Y-88099803D01*
X118439068Y-88271290D01*
X118334493Y-88466937D01*
X118270095Y-88679226D01*
X118248351Y-88900000D01*
X97651649Y-88900000D01*
X97629905Y-88679226D01*
X97565507Y-88466937D01*
X97460932Y-88271290D01*
X97320197Y-88099803D01*
X97148710Y-87959068D01*
X96953063Y-87854493D01*
X96740774Y-87790095D01*
X96575325Y-87773800D01*
X96464675Y-87773800D01*
X96299226Y-87790095D01*
X96086937Y-87854493D01*
X95891290Y-87959068D01*
X95719803Y-88099803D01*
X95579068Y-88271290D01*
X95474493Y-88466937D01*
X95410095Y-88679226D01*
X95388351Y-88900000D01*
X90589100Y-88900000D01*
X90589100Y-86360000D01*
X95388351Y-86360000D01*
X95410095Y-86580774D01*
X95474493Y-86793063D01*
X95579068Y-86988710D01*
X95719803Y-87160197D01*
X95891290Y-87300932D01*
X96086937Y-87405507D01*
X96299226Y-87469905D01*
X96464675Y-87486200D01*
X96575325Y-87486200D01*
X96740774Y-87469905D01*
X96953063Y-87405507D01*
X97148710Y-87300932D01*
X97320197Y-87160197D01*
X97460932Y-86988710D01*
X97565507Y-86793063D01*
X97629905Y-86580774D01*
X97651649Y-86360000D01*
X97629905Y-86139226D01*
X97565507Y-85926937D01*
X97460932Y-85731290D01*
X97320197Y-85559803D01*
X97259512Y-85510000D01*
X118252464Y-85510000D01*
X118252464Y-87210000D01*
X118257797Y-87264145D01*
X118273590Y-87316208D01*
X118299237Y-87364191D01*
X118333752Y-87406248D01*
X118375809Y-87440763D01*
X118423792Y-87466410D01*
X118475855Y-87482203D01*
X118530000Y-87487536D01*
X120230000Y-87487536D01*
X120284145Y-87482203D01*
X120336208Y-87466410D01*
X120384191Y-87440763D01*
X120426248Y-87406248D01*
X120460763Y-87364191D01*
X120486410Y-87316208D01*
X120502203Y-87264145D01*
X120507536Y-87210000D01*
X120507536Y-85510000D01*
X120502203Y-85455855D01*
X120486410Y-85403792D01*
X120460763Y-85355809D01*
X120426248Y-85313752D01*
X120384191Y-85279237D01*
X120336208Y-85253590D01*
X120284145Y-85237797D01*
X120230000Y-85232464D01*
X118530000Y-85232464D01*
X118475855Y-85237797D01*
X118423792Y-85253590D01*
X118375809Y-85279237D01*
X118333752Y-85313752D01*
X118299237Y-85355809D01*
X118273590Y-85403792D01*
X118257797Y-85455855D01*
X118252464Y-85510000D01*
X97259512Y-85510000D01*
X97148710Y-85419068D01*
X96953063Y-85314493D01*
X96740774Y-85250095D01*
X96575325Y-85233800D01*
X96464675Y-85233800D01*
X96299226Y-85250095D01*
X96086937Y-85314493D01*
X95891290Y-85419068D01*
X95719803Y-85559803D01*
X95579068Y-85731290D01*
X95474493Y-85926937D01*
X95410095Y-86139226D01*
X95388351Y-86360000D01*
X90589100Y-86360000D01*
X90589100Y-82970000D01*
X95392464Y-82970000D01*
X95392464Y-84670000D01*
X95397797Y-84724145D01*
X95413590Y-84776208D01*
X95439237Y-84824191D01*
X95473752Y-84866248D01*
X95515809Y-84900763D01*
X95563792Y-84926410D01*
X95615855Y-84942203D01*
X95670000Y-84947536D01*
X97370000Y-84947536D01*
X97424145Y-84942203D01*
X97476208Y-84926410D01*
X97524191Y-84900763D01*
X97566248Y-84866248D01*
X97600763Y-84824191D01*
X97626410Y-84776208D01*
X97642203Y-84724145D01*
X97647536Y-84670000D01*
X97647536Y-82970000D01*
X97642203Y-82915855D01*
X97626410Y-82863792D01*
X97600763Y-82815809D01*
X97566248Y-82773752D01*
X97524191Y-82739237D01*
X97476208Y-82713590D01*
X97424145Y-82697797D01*
X97370000Y-82692464D01*
X95670000Y-82692464D01*
X95615855Y-82697797D01*
X95563792Y-82713590D01*
X95515809Y-82739237D01*
X95473752Y-82773752D01*
X95439237Y-82815809D01*
X95413590Y-82863792D01*
X95397797Y-82915855D01*
X95392464Y-82970000D01*
X90589100Y-82970000D01*
X90589100Y-81280000D01*
X95388351Y-81280000D01*
X95410095Y-81500774D01*
X95474493Y-81713063D01*
X95579068Y-81908710D01*
X95719803Y-82080197D01*
X95891290Y-82220932D01*
X96086937Y-82325507D01*
X96299226Y-82389905D01*
X96464675Y-82406200D01*
X96575325Y-82406200D01*
X96740774Y-82389905D01*
X96953063Y-82325507D01*
X97148710Y-82220932D01*
X97320197Y-82080197D01*
X97460932Y-81908710D01*
X97565507Y-81713063D01*
X97629905Y-81500774D01*
X97651649Y-81280000D01*
X118248351Y-81280000D01*
X118270095Y-81500774D01*
X118334493Y-81713063D01*
X118439068Y-81908710D01*
X118579803Y-82080197D01*
X118751290Y-82220932D01*
X118946937Y-82325507D01*
X119159226Y-82389905D01*
X119324675Y-82406200D01*
X119435325Y-82406200D01*
X119600774Y-82389905D01*
X119813063Y-82325507D01*
X120008710Y-82220932D01*
X120180197Y-82080197D01*
X120320932Y-81908710D01*
X120425507Y-81713063D01*
X120489905Y-81500774D01*
X120511649Y-81280000D01*
X120489905Y-81059226D01*
X120425507Y-80846937D01*
X120320932Y-80651290D01*
X120180197Y-80479803D01*
X120008710Y-80339068D01*
X119813063Y-80234493D01*
X119600774Y-80170095D01*
X119435325Y-80153800D01*
X119324675Y-80153800D01*
X119159226Y-80170095D01*
X118946937Y-80234493D01*
X118751290Y-80339068D01*
X118579803Y-80479803D01*
X118439068Y-80651290D01*
X118334493Y-80846937D01*
X118270095Y-81059226D01*
X118248351Y-81280000D01*
X97651649Y-81280000D01*
X97629905Y-81059226D01*
X97565507Y-80846937D01*
X97460932Y-80651290D01*
X97320197Y-80479803D01*
X97148710Y-80339068D01*
X96953063Y-80234493D01*
X96740774Y-80170095D01*
X96575325Y-80153800D01*
X96464675Y-80153800D01*
X96299226Y-80170095D01*
X96086937Y-80234493D01*
X95891290Y-80339068D01*
X95719803Y-80479803D01*
X95579068Y-80651290D01*
X95474493Y-80846937D01*
X95410095Y-81059226D01*
X95388351Y-81280000D01*
X90589100Y-81280000D01*
X90589100Y-78740000D01*
X95388351Y-78740000D01*
X95410095Y-78960774D01*
X95474493Y-79173063D01*
X95579068Y-79368710D01*
X95719803Y-79540197D01*
X95891290Y-79680932D01*
X96086937Y-79785507D01*
X96299226Y-79849905D01*
X96464675Y-79866200D01*
X96575325Y-79866200D01*
X96740774Y-79849905D01*
X96953063Y-79785507D01*
X97148710Y-79680932D01*
X97320197Y-79540197D01*
X97460932Y-79368710D01*
X97565507Y-79173063D01*
X97629905Y-78960774D01*
X97651649Y-78740000D01*
X97629905Y-78519226D01*
X97565507Y-78306937D01*
X97460932Y-78111290D01*
X97320197Y-77939803D01*
X97148710Y-77799068D01*
X96953063Y-77694493D01*
X96740774Y-77630095D01*
X96575325Y-77613800D01*
X96464675Y-77613800D01*
X96299226Y-77630095D01*
X96086937Y-77694493D01*
X95891290Y-77799068D01*
X95719803Y-77939803D01*
X95579068Y-78111290D01*
X95474493Y-78306937D01*
X95410095Y-78519226D01*
X95388351Y-78740000D01*
X90589100Y-78740000D01*
X90589100Y-76200000D01*
X95388351Y-76200000D01*
X95410095Y-76420774D01*
X95474493Y-76633063D01*
X95579068Y-76828710D01*
X95719803Y-77000197D01*
X95891290Y-77140932D01*
X96086937Y-77245507D01*
X96299226Y-77309905D01*
X96464675Y-77326200D01*
X96575325Y-77326200D01*
X96740774Y-77309905D01*
X96953063Y-77245507D01*
X97148710Y-77140932D01*
X97320197Y-77000197D01*
X97460932Y-76828710D01*
X97565507Y-76633063D01*
X97629905Y-76420774D01*
X97651649Y-76200000D01*
X97629905Y-75979226D01*
X97565507Y-75766937D01*
X97460932Y-75571290D01*
X97320197Y-75399803D01*
X97148710Y-75259068D01*
X96953063Y-75154493D01*
X96740774Y-75090095D01*
X96575325Y-75073800D01*
X96464675Y-75073800D01*
X96299226Y-75090095D01*
X96086937Y-75154493D01*
X95891290Y-75259068D01*
X95719803Y-75399803D01*
X95579068Y-75571290D01*
X95474493Y-75766937D01*
X95410095Y-75979226D01*
X95388351Y-76200000D01*
X90589100Y-76200000D01*
X90589100Y-73660000D01*
X95388351Y-73660000D01*
X95410095Y-73880774D01*
X95474493Y-74093063D01*
X95579068Y-74288710D01*
X95719803Y-74460197D01*
X95891290Y-74600932D01*
X96086937Y-74705507D01*
X96299226Y-74769905D01*
X96464675Y-74786200D01*
X96575325Y-74786200D01*
X96740774Y-74769905D01*
X96953063Y-74705507D01*
X97148710Y-74600932D01*
X97320197Y-74460197D01*
X97460932Y-74288710D01*
X97565507Y-74093063D01*
X97629905Y-73880774D01*
X97651649Y-73660000D01*
X97629905Y-73439226D01*
X97565507Y-73226937D01*
X97460932Y-73031290D01*
X97320197Y-72859803D01*
X97148710Y-72719068D01*
X96953063Y-72614493D01*
X96740774Y-72550095D01*
X96575325Y-72533800D01*
X96464675Y-72533800D01*
X96299226Y-72550095D01*
X96086937Y-72614493D01*
X95891290Y-72719068D01*
X95719803Y-72859803D01*
X95579068Y-73031290D01*
X95474493Y-73226937D01*
X95410095Y-73439226D01*
X95388351Y-73660000D01*
X90589100Y-73660000D01*
X90589100Y-70270000D01*
X95392464Y-70270000D01*
X95392464Y-71970000D01*
X95397797Y-72024145D01*
X95413590Y-72076208D01*
X95439237Y-72124191D01*
X95473752Y-72166248D01*
X95515809Y-72200763D01*
X95563792Y-72226410D01*
X95615855Y-72242203D01*
X95670000Y-72247536D01*
X97370000Y-72247536D01*
X97424145Y-72242203D01*
X97476208Y-72226410D01*
X97524191Y-72200763D01*
X97566248Y-72166248D01*
X97600763Y-72124191D01*
X97626410Y-72076208D01*
X97642203Y-72024145D01*
X97647536Y-71970000D01*
X97647536Y-70270000D01*
X97642203Y-70215855D01*
X97626410Y-70163792D01*
X97600763Y-70115809D01*
X97566248Y-70073752D01*
X97524191Y-70039237D01*
X97476208Y-70013590D01*
X97424145Y-69997797D01*
X97370000Y-69992464D01*
X95670000Y-69992464D01*
X95615855Y-69997797D01*
X95563792Y-70013590D01*
X95515809Y-70039237D01*
X95473752Y-70073752D01*
X95439237Y-70115809D01*
X95413590Y-70163792D01*
X95397797Y-70215855D01*
X95392464Y-70270000D01*
X90589100Y-70270000D01*
X90589100Y-68580000D01*
X95388351Y-68580000D01*
X95410095Y-68800774D01*
X95474493Y-69013063D01*
X95579068Y-69208710D01*
X95719803Y-69380197D01*
X95891290Y-69520932D01*
X96086937Y-69625507D01*
X96299226Y-69689905D01*
X96464675Y-69706200D01*
X96575325Y-69706200D01*
X96740774Y-69689905D01*
X96953063Y-69625507D01*
X97148710Y-69520932D01*
X97320197Y-69380197D01*
X97460932Y-69208710D01*
X97565507Y-69013063D01*
X97629905Y-68800774D01*
X97651649Y-68580000D01*
X97629905Y-68359226D01*
X97565507Y-68146937D01*
X97460932Y-67951290D01*
X97320197Y-67779803D01*
X97148710Y-67639068D01*
X96953063Y-67534493D01*
X96740774Y-67470095D01*
X96575325Y-67453800D01*
X96464675Y-67453800D01*
X96299226Y-67470095D01*
X96086937Y-67534493D01*
X95891290Y-67639068D01*
X95719803Y-67779803D01*
X95579068Y-67951290D01*
X95474493Y-68146937D01*
X95410095Y-68359226D01*
X95388351Y-68580000D01*
X90589100Y-68580000D01*
X90589100Y-60071000D01*
X94336235Y-60071000D01*
X94338800Y-60097040D01*
X94338801Y-61568950D01*
X94336235Y-61595000D01*
X94346191Y-61696072D01*
X94346473Y-61698937D01*
X94376790Y-61798880D01*
X94426023Y-61890988D01*
X94492279Y-61971722D01*
X94512510Y-61988325D01*
X97449748Y-64925563D01*
X97424145Y-64917797D01*
X97370000Y-64912464D01*
X95670000Y-64912464D01*
X95615855Y-64917797D01*
X95563792Y-64933590D01*
X95515809Y-64959237D01*
X95473752Y-64993752D01*
X95439237Y-65035809D01*
X95413590Y-65083792D01*
X95397797Y-65135855D01*
X95392464Y-65190000D01*
X95392464Y-66890000D01*
X95397797Y-66944145D01*
X95413590Y-66996208D01*
X95439237Y-67044191D01*
X95473752Y-67086248D01*
X95515809Y-67120763D01*
X95563792Y-67146410D01*
X95615855Y-67162203D01*
X95670000Y-67167536D01*
X97370000Y-67167536D01*
X97424145Y-67162203D01*
X97476208Y-67146410D01*
X97524191Y-67120763D01*
X97566248Y-67086248D01*
X97600763Y-67044191D01*
X97626410Y-66996208D01*
X97642203Y-66944145D01*
X97647536Y-66890000D01*
X97647536Y-65190000D01*
X97642203Y-65135855D01*
X97634437Y-65110253D01*
X97767800Y-65243616D01*
X97767801Y-77570950D01*
X97765235Y-77597000D01*
X97774838Y-77694493D01*
X97775473Y-77700937D01*
X97805790Y-77800880D01*
X97855023Y-77892988D01*
X97921279Y-77973722D01*
X97941510Y-77990325D01*
X99555675Y-79604491D01*
X99572278Y-79624722D01*
X99653012Y-79690978D01*
X99745120Y-79740211D01*
X99814745Y-79761331D01*
X99845062Y-79770528D01*
X99949000Y-79780765D01*
X99975043Y-79778200D01*
X104478373Y-79778200D01*
X104581699Y-79847241D01*
X104704760Y-79898214D01*
X104835400Y-79924200D01*
X104968600Y-79924200D01*
X105099240Y-79898214D01*
X105222301Y-79847241D01*
X105333052Y-79773239D01*
X105427239Y-79679052D01*
X105501241Y-79568301D01*
X105552214Y-79445240D01*
X105578200Y-79314600D01*
X105578200Y-79181400D01*
X105552214Y-79050760D01*
X105501241Y-78927699D01*
X105427239Y-78816948D01*
X105350291Y-78740000D01*
X118248351Y-78740000D01*
X118270095Y-78960774D01*
X118334493Y-79173063D01*
X118439068Y-79368710D01*
X118579803Y-79540197D01*
X118751290Y-79680932D01*
X118946937Y-79785507D01*
X119159226Y-79849905D01*
X119324675Y-79866200D01*
X119435325Y-79866200D01*
X119600774Y-79849905D01*
X119813063Y-79785507D01*
X120008710Y-79680932D01*
X120180197Y-79540197D01*
X120320932Y-79368710D01*
X120425507Y-79173063D01*
X120489905Y-78960774D01*
X120511649Y-78740000D01*
X120489905Y-78519226D01*
X120425507Y-78306937D01*
X120320932Y-78111290D01*
X120180197Y-77939803D01*
X120008710Y-77799068D01*
X119813063Y-77694493D01*
X119600774Y-77630095D01*
X119435325Y-77613800D01*
X119324675Y-77613800D01*
X119159226Y-77630095D01*
X118946937Y-77694493D01*
X118751290Y-77799068D01*
X118579803Y-77939803D01*
X118439068Y-78111290D01*
X118334493Y-78306937D01*
X118270095Y-78519226D01*
X118248351Y-78740000D01*
X105350291Y-78740000D01*
X105333052Y-78722761D01*
X105222301Y-78648759D01*
X105099240Y-78597786D01*
X104968600Y-78571800D01*
X104835400Y-78571800D01*
X104704760Y-78597786D01*
X104581699Y-78648759D01*
X104478373Y-78717800D01*
X100168616Y-78717800D01*
X98828200Y-77377385D01*
X98828200Y-76200000D01*
X118248351Y-76200000D01*
X118270095Y-76420774D01*
X118334493Y-76633063D01*
X118439068Y-76828710D01*
X118579803Y-77000197D01*
X118751290Y-77140932D01*
X118946937Y-77245507D01*
X119159226Y-77309905D01*
X119324675Y-77326200D01*
X119435325Y-77326200D01*
X119600774Y-77309905D01*
X119813063Y-77245507D01*
X120008710Y-77140932D01*
X120180197Y-77000197D01*
X120320932Y-76828710D01*
X120425507Y-76633063D01*
X120489905Y-76420774D01*
X120511649Y-76200000D01*
X120489905Y-75979226D01*
X120425507Y-75766937D01*
X120320932Y-75571290D01*
X120180197Y-75399803D01*
X120008710Y-75259068D01*
X119813063Y-75154493D01*
X119600774Y-75090095D01*
X119435325Y-75073800D01*
X119324675Y-75073800D01*
X119159226Y-75090095D01*
X118946937Y-75154493D01*
X118751290Y-75259068D01*
X118579803Y-75399803D01*
X118439068Y-75571290D01*
X118334493Y-75766937D01*
X118270095Y-75979226D01*
X118248351Y-76200000D01*
X98828200Y-76200000D01*
X98828200Y-65050039D01*
X98830765Y-65023999D01*
X98821860Y-64933590D01*
X98820528Y-64920063D01*
X98790211Y-64820120D01*
X98740978Y-64728012D01*
X98674722Y-64647278D01*
X98654491Y-64630675D01*
X96067943Y-62044128D01*
X96161871Y-62084560D01*
X96342200Y-62044189D01*
X96342200Y-61137800D01*
X96697800Y-61137800D01*
X96697800Y-62044189D01*
X96878129Y-62084560D01*
X97090638Y-61993084D01*
X97281218Y-61861908D01*
X97442545Y-61696072D01*
X97568419Y-61501949D01*
X97644552Y-61318128D01*
X97603154Y-61137800D01*
X96697800Y-61137800D01*
X96342200Y-61137800D01*
X96322200Y-61137800D01*
X96322200Y-60782200D01*
X96342200Y-60782200D01*
X96342200Y-59875811D01*
X96697800Y-59875811D01*
X96697800Y-60782200D01*
X97603154Y-60782200D01*
X97644552Y-60601872D01*
X97568419Y-60418051D01*
X97442545Y-60223928D01*
X97281218Y-60058092D01*
X97090638Y-59926916D01*
X96878129Y-59835440D01*
X96697800Y-59875811D01*
X96342200Y-59875811D01*
X96161871Y-59835440D01*
X95949362Y-59926916D01*
X95758782Y-60058092D01*
X95597455Y-60223928D01*
X95471581Y-60418051D01*
X95399200Y-60592813D01*
X95399200Y-60290615D01*
X96192336Y-59497480D01*
X96299226Y-59529905D01*
X96464675Y-59546200D01*
X96575325Y-59546200D01*
X96740774Y-59529905D01*
X96953063Y-59465507D01*
X97148710Y-59360932D01*
X97320197Y-59220197D01*
X97460932Y-59048710D01*
X97565507Y-58853063D01*
X97629905Y-58640774D01*
X97651649Y-58420000D01*
X97629905Y-58199226D01*
X97565507Y-57986937D01*
X97460932Y-57791290D01*
X97320197Y-57619803D01*
X97148710Y-57479068D01*
X96953063Y-57374493D01*
X96740774Y-57310095D01*
X96575325Y-57293800D01*
X96464675Y-57293800D01*
X96299226Y-57310095D01*
X96086937Y-57374493D01*
X95891290Y-57479068D01*
X95719803Y-57619803D01*
X95579068Y-57791290D01*
X95474493Y-57986937D01*
X95410095Y-58199226D01*
X95388351Y-58420000D01*
X95410095Y-58640774D01*
X95442520Y-58747664D01*
X94512514Y-59677671D01*
X94492278Y-59694278D01*
X94426022Y-59775012D01*
X94376789Y-59867121D01*
X94346472Y-59967064D01*
X94338997Y-60042956D01*
X94336235Y-60071000D01*
X90589100Y-60071000D01*
X90589100Y-55265499D01*
X90607277Y-55080114D01*
X90622407Y-55030000D01*
X95392464Y-55030000D01*
X95392464Y-56730000D01*
X95397797Y-56784145D01*
X95413590Y-56836208D01*
X95439237Y-56884191D01*
X95473752Y-56926248D01*
X95515809Y-56960763D01*
X95563792Y-56986410D01*
X95615855Y-57002203D01*
X95670000Y-57007536D01*
X97370000Y-57007536D01*
X97424145Y-57002203D01*
X97476208Y-56986410D01*
X97524191Y-56960763D01*
X97566248Y-56926248D01*
X97600763Y-56884191D01*
X97626410Y-56836208D01*
X97642203Y-56784145D01*
X97647536Y-56730000D01*
X97647536Y-55030000D01*
X97642203Y-54975855D01*
X97626410Y-54923792D01*
X97600763Y-54875809D01*
X97566248Y-54833752D01*
X97524191Y-54799237D01*
X97476208Y-54773590D01*
X97424145Y-54757797D01*
X97370000Y-54752464D01*
X95670000Y-54752464D01*
X95615855Y-54757797D01*
X95563792Y-54773590D01*
X95515809Y-54799237D01*
X95473752Y-54833752D01*
X95439237Y-54875809D01*
X95413590Y-54923792D01*
X95397797Y-54975855D01*
X95392464Y-55030000D01*
X90622407Y-55030000D01*
X90655161Y-54921517D01*
X90732944Y-54775228D01*
X90837652Y-54646844D01*
X90965308Y-54541237D01*
X91111040Y-54462440D01*
X91269308Y-54413447D01*
X91453391Y-54394100D01*
X102137518Y-54394100D01*
X100949249Y-55582370D01*
M02*
