%TF.GenerationSoftware,KiCad,Pcbnew,(5.1.2)-2*%
%TF.CreationDate,2019-08-30T16:56:42-04:00*%
%TF.ProjectId,ButtonInterfaceBoard 0-2,42757474-6f6e-4496-9e74-657266616365,rev?*%
%TF.SameCoordinates,Original*%
%TF.FileFunction,Legend,Top*%
%TF.FilePolarity,Positive*%
%FSLAX46Y46*%
G04 Gerber Fmt 4.6, Leading zero omitted, Abs format (unit mm)*
G04 Created by KiCad (PCBNEW (5.1.2)-2) date 2019-08-30 16:56:42*
%MOMM*%
%LPD*%
G04 APERTURE LIST*
%ADD10C,0.190500*%
%ADD11C,0.254000*%
%ADD12C,0.120000*%
%ADD13C,0.100000*%
%ADD14C,1.051600*%
%ADD15C,0.701600*%
%ADD16R,1.801600X1.801600*%
%ADD17O,1.801600X1.801600*%
%ADD18R,2.001600X0.901600*%
%ADD19R,1.101600X1.101600*%
G04 APERTURE END LIST*
D10*
X118143110Y-56524071D02*
X117780253Y-56524071D01*
X117743967Y-57068357D01*
X117780253Y-57013928D01*
X117852825Y-56959500D01*
X118034253Y-56959500D01*
X118106825Y-57013928D01*
X118143110Y-57068357D01*
X118179396Y-57177214D01*
X118179396Y-57449357D01*
X118143110Y-57558214D01*
X118106825Y-57612642D01*
X118034253Y-57667071D01*
X117852825Y-57667071D01*
X117780253Y-57612642D01*
X117743967Y-57558214D01*
X118397110Y-56524071D02*
X118651110Y-57667071D01*
X118905110Y-56524071D01*
X117707682Y-54619071D02*
X118179396Y-54619071D01*
X117925396Y-55054500D01*
X118034253Y-55054500D01*
X118106825Y-55108928D01*
X118143110Y-55163357D01*
X118179396Y-55272214D01*
X118179396Y-55544357D01*
X118143110Y-55653214D01*
X118106825Y-55707642D01*
X118034253Y-55762071D01*
X117816539Y-55762071D01*
X117743967Y-55707642D01*
X117707682Y-55653214D01*
X118505967Y-55653214D02*
X118542253Y-55707642D01*
X118505967Y-55762071D01*
X118469682Y-55707642D01*
X118505967Y-55653214D01*
X118505967Y-55762071D01*
X118796253Y-54619071D02*
X119267967Y-54619071D01*
X119013967Y-55054500D01*
X119122825Y-55054500D01*
X119195396Y-55108928D01*
X119231682Y-55163357D01*
X119267967Y-55272214D01*
X119267967Y-55544357D01*
X119231682Y-55653214D01*
X119195396Y-55707642D01*
X119122825Y-55762071D01*
X118905110Y-55762071D01*
X118832539Y-55707642D01*
X118796253Y-55653214D01*
X119485682Y-54619071D02*
X119739682Y-55762071D01*
X119993682Y-54619071D01*
D11*
X103505000Y-60960000D02*
G75*
G03X103505000Y-60960000I-635000J0D01*
G01*
X92127614Y-60325000D02*
X92030852Y-60264523D01*
X91885709Y-60264523D01*
X91740566Y-60325000D01*
X91643804Y-60445952D01*
X91595423Y-60566904D01*
X91547042Y-60808809D01*
X91547042Y-60990238D01*
X91595423Y-61232142D01*
X91643804Y-61353095D01*
X91740566Y-61474047D01*
X91885709Y-61534523D01*
X91982471Y-61534523D01*
X92127614Y-61474047D01*
X92175995Y-61413571D01*
X92175995Y-60990238D01*
X91982471Y-60990238D01*
X92611423Y-61534523D02*
X92611423Y-60264523D01*
X93191995Y-61534523D01*
X93191995Y-60264523D01*
X93675804Y-61534523D02*
X93675804Y-60264523D01*
X93917709Y-60264523D01*
X94062852Y-60325000D01*
X94159614Y-60445952D01*
X94207995Y-60566904D01*
X94256376Y-60808809D01*
X94256376Y-60990238D01*
X94207995Y-61232142D01*
X94159614Y-61353095D01*
X94062852Y-61474047D01*
X93917709Y-61534523D01*
X93675804Y-61534523D01*
X93337138Y-57724523D02*
X92853328Y-57724523D01*
X92804947Y-58329285D01*
X92853328Y-58268809D01*
X92950090Y-58208333D01*
X93191995Y-58208333D01*
X93288757Y-58268809D01*
X93337138Y-58329285D01*
X93385519Y-58450238D01*
X93385519Y-58752619D01*
X93337138Y-58873571D01*
X93288757Y-58934047D01*
X93191995Y-58994523D01*
X92950090Y-58994523D01*
X92853328Y-58934047D01*
X92804947Y-58873571D01*
X93675804Y-57724523D02*
X94014471Y-58994523D01*
X94353138Y-57724523D01*
X91788947Y-55184523D02*
X92417900Y-55184523D01*
X92079233Y-55668333D01*
X92224376Y-55668333D01*
X92321138Y-55728809D01*
X92369519Y-55789285D01*
X92417900Y-55910238D01*
X92417900Y-56212619D01*
X92369519Y-56333571D01*
X92321138Y-56394047D01*
X92224376Y-56454523D01*
X91934090Y-56454523D01*
X91837328Y-56394047D01*
X91788947Y-56333571D01*
X92708185Y-55184523D02*
X93046852Y-56454523D01*
X93385519Y-55184523D01*
X93627423Y-55184523D02*
X94256376Y-55184523D01*
X93917709Y-55668333D01*
X94062852Y-55668333D01*
X94159614Y-55728809D01*
X94207995Y-55789285D01*
X94256376Y-55910238D01*
X94256376Y-56212619D01*
X94207995Y-56333571D01*
X94159614Y-56394047D01*
X94062852Y-56454523D01*
X93772566Y-56454523D01*
X93675804Y-56394047D01*
X93627423Y-56333571D01*
X91014852Y-99634523D02*
X91014852Y-98364523D01*
X91353519Y-99271666D01*
X91692185Y-98364523D01*
X91692185Y-99634523D01*
X92369519Y-98364523D02*
X92563042Y-98364523D01*
X92659804Y-98425000D01*
X92756566Y-98545952D01*
X92804947Y-98787857D01*
X92804947Y-99211190D01*
X92756566Y-99453095D01*
X92659804Y-99574047D01*
X92563042Y-99634523D01*
X92369519Y-99634523D01*
X92272757Y-99574047D01*
X92175995Y-99453095D01*
X92127614Y-99211190D01*
X92127614Y-98787857D01*
X92175995Y-98545952D01*
X92272757Y-98425000D01*
X92369519Y-98364523D01*
X93191995Y-99574047D02*
X93337138Y-99634523D01*
X93579042Y-99634523D01*
X93675804Y-99574047D01*
X93724185Y-99513571D01*
X93772566Y-99392619D01*
X93772566Y-99271666D01*
X93724185Y-99150714D01*
X93675804Y-99090238D01*
X93579042Y-99029761D01*
X93385519Y-98969285D01*
X93288757Y-98908809D01*
X93240376Y-98848333D01*
X93191995Y-98727380D01*
X93191995Y-98606428D01*
X93240376Y-98485476D01*
X93288757Y-98425000D01*
X93385519Y-98364523D01*
X93627423Y-98364523D01*
X93772566Y-98425000D01*
X94207995Y-99634523D02*
X94207995Y-98364523D01*
X91643804Y-97034047D02*
X91788947Y-97094523D01*
X92030852Y-97094523D01*
X92127614Y-97034047D01*
X92175995Y-96973571D01*
X92224376Y-96852619D01*
X92224376Y-96731666D01*
X92175995Y-96610714D01*
X92127614Y-96550238D01*
X92030852Y-96489761D01*
X91837328Y-96429285D01*
X91740566Y-96368809D01*
X91692185Y-96308333D01*
X91643804Y-96187380D01*
X91643804Y-96066428D01*
X91692185Y-95945476D01*
X91740566Y-95885000D01*
X91837328Y-95824523D01*
X92079233Y-95824523D01*
X92224376Y-95885000D01*
X93240376Y-96973571D02*
X93191995Y-97034047D01*
X93046852Y-97094523D01*
X92950090Y-97094523D01*
X92804947Y-97034047D01*
X92708185Y-96913095D01*
X92659804Y-96792142D01*
X92611423Y-96550238D01*
X92611423Y-96368809D01*
X92659804Y-96126904D01*
X92708185Y-96005952D01*
X92804947Y-95885000D01*
X92950090Y-95824523D01*
X93046852Y-95824523D01*
X93191995Y-95885000D01*
X93240376Y-95945476D01*
X93675804Y-97094523D02*
X93675804Y-95824523D01*
X94256376Y-97094523D02*
X93820947Y-96368809D01*
X94256376Y-95824523D02*
X93675804Y-96550238D01*
X91014852Y-94554523D02*
X91014852Y-93284523D01*
X91353519Y-94191666D01*
X91692185Y-93284523D01*
X91692185Y-94554523D01*
X92175995Y-94554523D02*
X92175995Y-93284523D01*
X92611423Y-94494047D02*
X92756566Y-94554523D01*
X92998471Y-94554523D01*
X93095233Y-94494047D01*
X93143614Y-94433571D01*
X93191995Y-94312619D01*
X93191995Y-94191666D01*
X93143614Y-94070714D01*
X93095233Y-94010238D01*
X92998471Y-93949761D01*
X92804947Y-93889285D01*
X92708185Y-93828809D01*
X92659804Y-93768333D01*
X92611423Y-93647380D01*
X92611423Y-93526428D01*
X92659804Y-93405476D01*
X92708185Y-93345000D01*
X92804947Y-93284523D01*
X93046852Y-93284523D01*
X93191995Y-93345000D01*
X93820947Y-93284523D02*
X94014471Y-93284523D01*
X94111233Y-93345000D01*
X94207995Y-93465952D01*
X94256376Y-93707857D01*
X94256376Y-94131190D01*
X94207995Y-94373095D01*
X94111233Y-94494047D01*
X94014471Y-94554523D01*
X93820947Y-94554523D01*
X93724185Y-94494047D01*
X93627423Y-94373095D01*
X93579042Y-94131190D01*
X93579042Y-93707857D01*
X93627423Y-93465952D01*
X93724185Y-93345000D01*
X93820947Y-93284523D01*
X93288757Y-91893571D02*
X93240376Y-91954047D01*
X93095233Y-92014523D01*
X92998471Y-92014523D01*
X92853328Y-91954047D01*
X92756566Y-91833095D01*
X92708185Y-91712142D01*
X92659804Y-91470238D01*
X92659804Y-91288809D01*
X92708185Y-91046904D01*
X92756566Y-90925952D01*
X92853328Y-90805000D01*
X92998471Y-90744523D01*
X93095233Y-90744523D01*
X93240376Y-90805000D01*
X93288757Y-90865476D01*
X93675804Y-91954047D02*
X93820947Y-92014523D01*
X94062852Y-92014523D01*
X94159614Y-91954047D01*
X94207995Y-91893571D01*
X94256376Y-91772619D01*
X94256376Y-91651666D01*
X94207995Y-91530714D01*
X94159614Y-91470238D01*
X94062852Y-91409761D01*
X93869328Y-91349285D01*
X93772566Y-91288809D01*
X93724185Y-91228333D01*
X93675804Y-91107380D01*
X93675804Y-90986428D01*
X93724185Y-90865476D01*
X93772566Y-90805000D01*
X93869328Y-90744523D01*
X94111233Y-90744523D01*
X94256376Y-90805000D01*
X91014852Y-89414047D02*
X91159995Y-89474523D01*
X91401900Y-89474523D01*
X91498661Y-89414047D01*
X91547042Y-89353571D01*
X91595423Y-89232619D01*
X91595423Y-89111666D01*
X91547042Y-88990714D01*
X91498661Y-88930238D01*
X91401900Y-88869761D01*
X91208376Y-88809285D01*
X91111614Y-88748809D01*
X91063233Y-88688333D01*
X91014852Y-88567380D01*
X91014852Y-88446428D01*
X91063233Y-88325476D01*
X91111614Y-88265000D01*
X91208376Y-88204523D01*
X91450280Y-88204523D01*
X91595423Y-88265000D01*
X91885709Y-88204523D02*
X92466280Y-88204523D01*
X92175995Y-89474523D02*
X92175995Y-88204523D01*
X93143614Y-88809285D02*
X93288757Y-88869761D01*
X93337138Y-88930238D01*
X93385519Y-89051190D01*
X93385519Y-89232619D01*
X93337138Y-89353571D01*
X93288757Y-89414047D01*
X93191995Y-89474523D01*
X92804947Y-89474523D01*
X92804947Y-88204523D01*
X93143614Y-88204523D01*
X93240376Y-88265000D01*
X93288757Y-88325476D01*
X93337138Y-88446428D01*
X93337138Y-88567380D01*
X93288757Y-88688333D01*
X93240376Y-88748809D01*
X93143614Y-88809285D01*
X92804947Y-88809285D01*
X94014471Y-88869761D02*
X94014471Y-89474523D01*
X93675804Y-88204523D02*
X94014471Y-88869761D01*
X94353138Y-88204523D01*
X91498661Y-86813571D02*
X91450280Y-86874047D01*
X91305138Y-86934523D01*
X91208376Y-86934523D01*
X91063233Y-86874047D01*
X90966471Y-86753095D01*
X90918090Y-86632142D01*
X90869709Y-86390238D01*
X90869709Y-86208809D01*
X90918090Y-85966904D01*
X90966471Y-85845952D01*
X91063233Y-85725000D01*
X91208376Y-85664523D01*
X91305138Y-85664523D01*
X91450280Y-85725000D01*
X91498661Y-85785476D01*
X91692185Y-87055476D02*
X92466280Y-87055476D01*
X93288757Y-86934523D02*
X92950090Y-86329761D01*
X92708185Y-86934523D02*
X92708185Y-85664523D01*
X93095233Y-85664523D01*
X93191995Y-85725000D01*
X93240376Y-85785476D01*
X93288757Y-85906428D01*
X93288757Y-86087857D01*
X93240376Y-86208809D01*
X93191995Y-86269285D01*
X93095233Y-86329761D01*
X92708185Y-86329761D01*
X93627423Y-85664523D02*
X94304757Y-86934523D01*
X94304757Y-85664523D02*
X93627423Y-86934523D01*
X91740566Y-84273571D02*
X91692185Y-84334047D01*
X91547042Y-84394523D01*
X91450280Y-84394523D01*
X91305138Y-84334047D01*
X91208376Y-84213095D01*
X91159995Y-84092142D01*
X91111614Y-83850238D01*
X91111614Y-83668809D01*
X91159995Y-83426904D01*
X91208376Y-83305952D01*
X91305138Y-83185000D01*
X91450280Y-83124523D01*
X91547042Y-83124523D01*
X91692185Y-83185000D01*
X91740566Y-83245476D01*
X91934090Y-84515476D02*
X92708185Y-84515476D01*
X92804947Y-83124523D02*
X93385519Y-83124523D01*
X93095233Y-84394523D02*
X93095233Y-83124523D01*
X93627423Y-83124523D02*
X94304757Y-84394523D01*
X94304757Y-83124523D02*
X93627423Y-84394523D01*
X92708185Y-81189285D02*
X93046852Y-81189285D01*
X93191995Y-81854523D02*
X92708185Y-81854523D01*
X92708185Y-80584523D01*
X93191995Y-80584523D01*
X93627423Y-81854523D02*
X93627423Y-80584523D01*
X94207995Y-81854523D01*
X94207995Y-80584523D01*
X92514661Y-79314523D02*
X92175995Y-78709761D01*
X91934090Y-79314523D02*
X91934090Y-78044523D01*
X92321138Y-78044523D01*
X92417900Y-78105000D01*
X92466280Y-78165476D01*
X92514661Y-78286428D01*
X92514661Y-78467857D01*
X92466280Y-78588809D01*
X92417900Y-78649285D01*
X92321138Y-78709761D01*
X91934090Y-78709761D01*
X92901709Y-79254047D02*
X93046852Y-79314523D01*
X93288757Y-79314523D01*
X93385519Y-79254047D01*
X93433900Y-79193571D01*
X93482280Y-79072619D01*
X93482280Y-78951666D01*
X93433900Y-78830714D01*
X93385519Y-78770238D01*
X93288757Y-78709761D01*
X93095233Y-78649285D01*
X92998471Y-78588809D01*
X92950090Y-78528333D01*
X92901709Y-78407380D01*
X92901709Y-78286428D01*
X92950090Y-78165476D01*
X92998471Y-78105000D01*
X93095233Y-78044523D01*
X93337138Y-78044523D01*
X93482280Y-78105000D01*
X93772566Y-78044523D02*
X94353138Y-78044523D01*
X94062852Y-79314523D02*
X94062852Y-78044523D01*
X91595423Y-75444047D02*
X90724566Y-77076904D01*
X92417900Y-76774523D02*
X91934090Y-76774523D01*
X91934090Y-75504523D01*
X92756566Y-76109285D02*
X93095233Y-76109285D01*
X93240376Y-76774523D02*
X92756566Y-76774523D01*
X92756566Y-75504523D01*
X93240376Y-75504523D01*
X93675804Y-76774523D02*
X93675804Y-75504523D01*
X93917709Y-75504523D01*
X94062852Y-75565000D01*
X94159614Y-75685952D01*
X94207995Y-75806904D01*
X94256376Y-76048809D01*
X94256376Y-76230238D01*
X94207995Y-76472142D01*
X94159614Y-76593095D01*
X94062852Y-76714047D01*
X93917709Y-76774523D01*
X93675804Y-76774523D01*
X91401900Y-73569285D02*
X91547042Y-73629761D01*
X91595423Y-73690238D01*
X91643804Y-73811190D01*
X91643804Y-73992619D01*
X91595423Y-74113571D01*
X91547042Y-74174047D01*
X91450280Y-74234523D01*
X91063233Y-74234523D01*
X91063233Y-72964523D01*
X91401900Y-72964523D01*
X91498661Y-73025000D01*
X91547042Y-73085476D01*
X91595423Y-73206428D01*
X91595423Y-73327380D01*
X91547042Y-73448333D01*
X91498661Y-73508809D01*
X91401900Y-73569285D01*
X91063233Y-73569285D01*
X92079233Y-72964523D02*
X92079233Y-73992619D01*
X92127614Y-74113571D01*
X92175995Y-74174047D01*
X92272757Y-74234523D01*
X92466280Y-74234523D01*
X92563042Y-74174047D01*
X92611423Y-74113571D01*
X92659804Y-73992619D01*
X92659804Y-72964523D01*
X92998471Y-72964523D02*
X93579042Y-72964523D01*
X93288757Y-74234523D02*
X93288757Y-72964523D01*
X93772566Y-72964523D02*
X94353138Y-72964523D01*
X94062852Y-74234523D02*
X94062852Y-72964523D01*
X91111614Y-71029285D02*
X91256757Y-71089761D01*
X91305138Y-71150238D01*
X91353519Y-71271190D01*
X91353519Y-71452619D01*
X91305138Y-71573571D01*
X91256757Y-71634047D01*
X91159995Y-71694523D01*
X90772947Y-71694523D01*
X90772947Y-70424523D01*
X91111614Y-70424523D01*
X91208376Y-70485000D01*
X91256757Y-70545476D01*
X91305138Y-70666428D01*
X91305138Y-70787380D01*
X91256757Y-70908333D01*
X91208376Y-70968809D01*
X91111614Y-71029285D01*
X90772947Y-71029285D01*
X91982471Y-70424523D02*
X92175995Y-70424523D01*
X92272757Y-70485000D01*
X92369519Y-70605952D01*
X92417900Y-70847857D01*
X92417900Y-71271190D01*
X92369519Y-71513095D01*
X92272757Y-71634047D01*
X92175995Y-71694523D01*
X91982471Y-71694523D01*
X91885709Y-71634047D01*
X91788947Y-71513095D01*
X91740566Y-71271190D01*
X91740566Y-70847857D01*
X91788947Y-70605952D01*
X91885709Y-70485000D01*
X91982471Y-70424523D01*
X93046852Y-70424523D02*
X93240376Y-70424523D01*
X93337138Y-70485000D01*
X93433900Y-70605952D01*
X93482280Y-70847857D01*
X93482280Y-71271190D01*
X93433900Y-71513095D01*
X93337138Y-71634047D01*
X93240376Y-71694523D01*
X93046852Y-71694523D01*
X92950090Y-71634047D01*
X92853328Y-71513095D01*
X92804947Y-71271190D01*
X92804947Y-70847857D01*
X92853328Y-70605952D01*
X92950090Y-70485000D01*
X93046852Y-70424523D01*
X93772566Y-70424523D02*
X94353138Y-70424523D01*
X94062852Y-71694523D02*
X94062852Y-70424523D01*
X91401900Y-69154523D02*
X91401900Y-67884523D01*
X91885709Y-69154523D02*
X91885709Y-67884523D01*
X92466280Y-69154523D01*
X92466280Y-67884523D01*
X92708185Y-69275476D02*
X93482280Y-69275476D01*
X93675804Y-68005476D02*
X93724185Y-67945000D01*
X93820947Y-67884523D01*
X94062852Y-67884523D01*
X94159614Y-67945000D01*
X94207995Y-68005476D01*
X94256376Y-68126428D01*
X94256376Y-68247380D01*
X94207995Y-68428809D01*
X93627423Y-69154523D01*
X94256376Y-69154523D01*
X91401900Y-66614523D02*
X91401900Y-65344523D01*
X91885709Y-66614523D02*
X91885709Y-65344523D01*
X92466280Y-66614523D01*
X92466280Y-65344523D01*
X92708185Y-66735476D02*
X93482280Y-66735476D01*
X94256376Y-66614523D02*
X93675804Y-66614523D01*
X93966090Y-66614523D02*
X93966090Y-65344523D01*
X93869328Y-65525952D01*
X93772566Y-65646904D01*
X93675804Y-65707380D01*
X122272576Y-89353571D02*
X122224195Y-89414047D01*
X122079052Y-89474523D01*
X121982290Y-89474523D01*
X121837147Y-89414047D01*
X121740385Y-89293095D01*
X121692004Y-89172142D01*
X121643623Y-88930238D01*
X121643623Y-88748809D01*
X121692004Y-88506904D01*
X121740385Y-88385952D01*
X121837147Y-88265000D01*
X121982290Y-88204523D01*
X122079052Y-88204523D01*
X122224195Y-88265000D01*
X122272576Y-88325476D01*
X122659623Y-89111666D02*
X123143433Y-89111666D01*
X122562861Y-89474523D02*
X122901528Y-88204523D01*
X123240195Y-89474523D01*
X123578861Y-89474523D02*
X123578861Y-88204523D01*
X124159433Y-89474523D01*
X124159433Y-88204523D01*
X125127052Y-89474523D02*
X124643242Y-89474523D01*
X124643242Y-88204523D01*
X122272576Y-86813571D02*
X122224195Y-86874047D01*
X122079052Y-86934523D01*
X121982290Y-86934523D01*
X121837147Y-86874047D01*
X121740385Y-86753095D01*
X121692004Y-86632142D01*
X121643623Y-86390238D01*
X121643623Y-86208809D01*
X121692004Y-85966904D01*
X121740385Y-85845952D01*
X121837147Y-85725000D01*
X121982290Y-85664523D01*
X122079052Y-85664523D01*
X122224195Y-85725000D01*
X122272576Y-85785476D01*
X122659623Y-86571666D02*
X123143433Y-86571666D01*
X122562861Y-86934523D02*
X122901528Y-85664523D01*
X123240195Y-86934523D01*
X123578861Y-86934523D02*
X123578861Y-85664523D01*
X124159433Y-86934523D01*
X124159433Y-85664523D01*
X124643242Y-86934523D02*
X124643242Y-85664523D01*
X124643242Y-86269285D02*
X125223814Y-86269285D01*
X125223814Y-86934523D02*
X125223814Y-85664523D01*
X122030671Y-81189285D02*
X122175814Y-81249761D01*
X122224195Y-81310238D01*
X122272576Y-81431190D01*
X122272576Y-81612619D01*
X122224195Y-81733571D01*
X122175814Y-81794047D01*
X122079052Y-81854523D01*
X121692004Y-81854523D01*
X121692004Y-80584523D01*
X122030671Y-80584523D01*
X122127433Y-80645000D01*
X122175814Y-80705476D01*
X122224195Y-80826428D01*
X122224195Y-80947380D01*
X122175814Y-81068333D01*
X122127433Y-81128809D01*
X122030671Y-81189285D01*
X121692004Y-81189285D01*
X122708004Y-80584523D02*
X122708004Y-81612619D01*
X122756385Y-81733571D01*
X122804766Y-81794047D01*
X122901528Y-81854523D01*
X123095052Y-81854523D01*
X123191814Y-81794047D01*
X123240195Y-81733571D01*
X123288576Y-81612619D01*
X123288576Y-80584523D01*
X123627242Y-80584523D02*
X124207814Y-80584523D01*
X123917528Y-81854523D02*
X123917528Y-80584523D01*
X124401338Y-80584523D02*
X124981909Y-80584523D01*
X124691623Y-81854523D02*
X124691623Y-80584523D01*
X122175814Y-79314523D02*
X121692004Y-79314523D01*
X121692004Y-78044523D01*
X122514480Y-78649285D02*
X122853147Y-78649285D01*
X122998290Y-79314523D02*
X122514480Y-79314523D01*
X122514480Y-78044523D01*
X122998290Y-78044523D01*
X123433719Y-79314523D02*
X123433719Y-78044523D01*
X123675623Y-78044523D01*
X123820766Y-78105000D01*
X123917528Y-78225952D01*
X123965909Y-78346904D01*
X124014290Y-78588809D01*
X124014290Y-78770238D01*
X123965909Y-79012142D01*
X123917528Y-79133095D01*
X123820766Y-79254047D01*
X123675623Y-79314523D01*
X123433719Y-79314523D01*
X124449719Y-78830714D02*
X125223814Y-78830714D01*
X122175814Y-76774523D02*
X121692004Y-76774523D01*
X121692004Y-75504523D01*
X122514480Y-76109285D02*
X122853147Y-76109285D01*
X122998290Y-76774523D02*
X122514480Y-76774523D01*
X122514480Y-75504523D01*
X122998290Y-75504523D01*
X123433719Y-76774523D02*
X123433719Y-75504523D01*
X123675623Y-75504523D01*
X123820766Y-75565000D01*
X123917528Y-75685952D01*
X123965909Y-75806904D01*
X124014290Y-76048809D01*
X124014290Y-76230238D01*
X123965909Y-76472142D01*
X123917528Y-76593095D01*
X123820766Y-76714047D01*
X123675623Y-76774523D01*
X123433719Y-76774523D01*
X124449719Y-76290714D02*
X125223814Y-76290714D01*
X124836766Y-76774523D02*
X124836766Y-75806904D01*
X121546861Y-72964523D02*
X121885528Y-74234523D01*
X122224195Y-72964523D01*
X122320957Y-74355476D02*
X123095052Y-74355476D01*
X123675623Y-73569285D02*
X123820766Y-73629761D01*
X123869147Y-73690238D01*
X123917528Y-73811190D01*
X123917528Y-73992619D01*
X123869147Y-74113571D01*
X123820766Y-74174047D01*
X123724004Y-74234523D01*
X123336957Y-74234523D01*
X123336957Y-72964523D01*
X123675623Y-72964523D01*
X123772385Y-73025000D01*
X123820766Y-73085476D01*
X123869147Y-73206428D01*
X123869147Y-73327380D01*
X123820766Y-73448333D01*
X123772385Y-73508809D01*
X123675623Y-73569285D01*
X123336957Y-73569285D01*
X124352957Y-72964523D02*
X124352957Y-73992619D01*
X124401338Y-74113571D01*
X124449719Y-74174047D01*
X124546480Y-74234523D01*
X124740004Y-74234523D01*
X124836766Y-74174047D01*
X124885147Y-74113571D01*
X124933528Y-73992619D01*
X124933528Y-72964523D01*
X125272195Y-72964523D02*
X125852766Y-72964523D01*
X125562480Y-74234523D02*
X125562480Y-72964523D01*
X126046290Y-72964523D02*
X126626861Y-72964523D01*
X126336576Y-74234523D02*
X126336576Y-72964523D01*
X121692004Y-69154523D02*
X121692004Y-67884523D01*
X122175814Y-69154523D02*
X122175814Y-67884523D01*
X122756385Y-69154523D01*
X122756385Y-67884523D01*
X122998290Y-69275476D02*
X123772385Y-69275476D01*
X123965909Y-68005476D02*
X124014290Y-67945000D01*
X124111052Y-67884523D01*
X124352957Y-67884523D01*
X124449719Y-67945000D01*
X124498100Y-68005476D01*
X124546480Y-68126428D01*
X124546480Y-68247380D01*
X124498100Y-68428809D01*
X123917528Y-69154523D01*
X124546480Y-69154523D01*
X121692004Y-66614523D02*
X121692004Y-65344523D01*
X122175814Y-66614523D02*
X122175814Y-65344523D01*
X122756385Y-66614523D01*
X122756385Y-65344523D01*
X122998290Y-66735476D02*
X123772385Y-66735476D01*
X124546480Y-66614523D02*
X123965909Y-66614523D01*
X124256195Y-66614523D02*
X124256195Y-65344523D01*
X124159433Y-65525952D01*
X124062671Y-65646904D01*
X123965909Y-65707380D01*
X121546861Y-62804523D02*
X121885528Y-64074523D01*
X122224195Y-62804523D01*
X123143433Y-63953571D02*
X123095052Y-64014047D01*
X122949909Y-64074523D01*
X122853147Y-64074523D01*
X122708004Y-64014047D01*
X122611242Y-63893095D01*
X122562861Y-63772142D01*
X122514480Y-63530238D01*
X122514480Y-63348809D01*
X122562861Y-63106904D01*
X122611242Y-62985952D01*
X122708004Y-62865000D01*
X122853147Y-62804523D01*
X122949909Y-62804523D01*
X123095052Y-62865000D01*
X123143433Y-62925476D01*
X123772385Y-62804523D02*
X123965909Y-62804523D01*
X124062671Y-62865000D01*
X124159433Y-62985952D01*
X124207814Y-63227857D01*
X124207814Y-63651190D01*
X124159433Y-63893095D01*
X124062671Y-64014047D01*
X123965909Y-64074523D01*
X123772385Y-64074523D01*
X123675623Y-64014047D01*
X123578861Y-63893095D01*
X123530480Y-63651190D01*
X123530480Y-63227857D01*
X123578861Y-62985952D01*
X123675623Y-62865000D01*
X123772385Y-62804523D01*
X124643242Y-64074523D02*
X124643242Y-62804523D01*
X125223814Y-64074523D01*
X125223814Y-62804523D01*
X125707623Y-64074523D02*
X125707623Y-62804523D01*
X126288195Y-64074523D01*
X126288195Y-62804523D01*
D12*
X117230000Y-54510000D02*
X114770000Y-54510000D01*
X117230000Y-55980000D02*
X117230000Y-54510000D01*
X114770000Y-55980000D02*
X117230000Y-55980000D01*
X117230000Y-56415000D02*
X114770000Y-56415000D01*
X117230000Y-57885000D02*
X117230000Y-56415000D01*
X114770000Y-57885000D02*
X117230000Y-57885000D01*
X100501267Y-55370000D02*
X100158733Y-55370000D01*
X100501267Y-56390000D02*
X100158733Y-56390000D01*
X100501267Y-57910000D02*
X100158733Y-57910000D01*
X100501267Y-58930000D02*
X100158733Y-58930000D01*
X106680000Y-86380000D02*
X108630000Y-86380000D01*
X106680000Y-86380000D02*
X104730000Y-86380000D01*
X106680000Y-81260000D02*
X108630000Y-81260000D01*
X106680000Y-81260000D02*
X103230000Y-81260000D01*
X106680000Y-76825000D02*
X108630000Y-76825000D01*
X106680000Y-76825000D02*
X104730000Y-76825000D01*
X106680000Y-67955000D02*
X108630000Y-67955000D01*
X106680000Y-67955000D02*
X103230000Y-67955000D01*
X110550000Y-59750000D02*
X110550000Y-54550000D01*
X105410000Y-59750000D02*
X110550000Y-59750000D01*
X102810000Y-54550000D02*
X110550000Y-54550000D01*
X105410000Y-59750000D02*
X105410000Y-57150000D01*
X105410000Y-57150000D02*
X102810000Y-57150000D01*
X102810000Y-57150000D02*
X102810000Y-54550000D01*
X104140000Y-59750000D02*
X102810000Y-59750000D01*
X102810000Y-59750000D02*
X102810000Y-58420000D01*
X108413733Y-79500000D02*
X108756267Y-79500000D01*
X108413733Y-80520000D02*
X108756267Y-80520000D01*
X106508733Y-66550000D02*
X106851267Y-66550000D01*
X106508733Y-65530000D02*
X106851267Y-65530000D01*
X104946267Y-79500000D02*
X104603733Y-79500000D01*
X104946267Y-80520000D02*
X104603733Y-80520000D01*
X106170000Y-89071267D02*
X106170000Y-88728733D01*
X107190000Y-89071267D02*
X107190000Y-88728733D01*
X106851267Y-61720000D02*
X106508733Y-61720000D01*
X106851267Y-62740000D02*
X106508733Y-62740000D01*
X106508733Y-90930000D02*
X106851267Y-90930000D01*
X106508733Y-91950000D02*
X106851267Y-91950000D01*
X115398733Y-76960000D02*
X115741267Y-76960000D01*
X115398733Y-77980000D02*
X115741267Y-77980000D01*
X114048000Y-65730000D02*
X115508000Y-65730000D01*
X114048000Y-68890000D02*
X117208000Y-68890000D01*
X114048000Y-68890000D02*
X114048000Y-67960000D01*
X114048000Y-65730000D02*
X114048000Y-66660000D01*
X113670000Y-58205000D02*
X113670000Y-59905000D01*
X113670000Y-59905000D02*
X116820000Y-59905000D01*
X113670000Y-58205000D02*
X116820000Y-58205000D01*
X114175000Y-86050000D02*
X114175000Y-86980000D01*
X114175000Y-89210000D02*
X114175000Y-88280000D01*
X114175000Y-89210000D02*
X117335000Y-89210000D01*
X114175000Y-86050000D02*
X115635000Y-86050000D01*
X95190000Y-62290000D02*
X97850000Y-62290000D01*
X95190000Y-57150000D02*
X95190000Y-62290000D01*
X97850000Y-57150000D02*
X97850000Y-62290000D01*
X95190000Y-57150000D02*
X97850000Y-57150000D01*
X95190000Y-55880000D02*
X95190000Y-54550000D01*
X95190000Y-54550000D02*
X96520000Y-54550000D01*
X95190000Y-64710000D02*
X96520000Y-64710000D01*
X95190000Y-66040000D02*
X95190000Y-64710000D01*
X95190000Y-67310000D02*
X97850000Y-67310000D01*
X97850000Y-67310000D02*
X97850000Y-69910000D01*
X95190000Y-67310000D02*
X95190000Y-69910000D01*
X95190000Y-69910000D02*
X97850000Y-69910000D01*
X95190000Y-82610000D02*
X97850000Y-82610000D01*
X95190000Y-72390000D02*
X95190000Y-82610000D01*
X97850000Y-72390000D02*
X97850000Y-82610000D01*
X95190000Y-72390000D02*
X97850000Y-72390000D01*
X95190000Y-71120000D02*
X95190000Y-69790000D01*
X95190000Y-69790000D02*
X96520000Y-69790000D01*
X97850000Y-90110000D02*
X95190000Y-90110000D01*
X97850000Y-97790000D02*
X97850000Y-90110000D01*
X95190000Y-97790000D02*
X95190000Y-90110000D01*
X97850000Y-97790000D02*
X95190000Y-97790000D01*
X97850000Y-99060000D02*
X97850000Y-100390000D01*
X97850000Y-100390000D02*
X96520000Y-100390000D01*
X95190000Y-90230000D02*
X97850000Y-90230000D01*
X95190000Y-85090000D02*
X95190000Y-90230000D01*
X97850000Y-85090000D02*
X97850000Y-90230000D01*
X95190000Y-85090000D02*
X97850000Y-85090000D01*
X95190000Y-83820000D02*
X95190000Y-82490000D01*
X95190000Y-82490000D02*
X96520000Y-82490000D01*
X118050000Y-62170000D02*
X119380000Y-62170000D01*
X118050000Y-63500000D02*
X118050000Y-62170000D01*
X118050000Y-64770000D02*
X120710000Y-64770000D01*
X120710000Y-64770000D02*
X120710000Y-69910000D01*
X118050000Y-64770000D02*
X118050000Y-69910000D01*
X118050000Y-69910000D02*
X120710000Y-69910000D01*
X118050000Y-90230000D02*
X120710000Y-90230000D01*
X118050000Y-87630000D02*
X118050000Y-90230000D01*
X120710000Y-87630000D02*
X120710000Y-90230000D01*
X118050000Y-87630000D02*
X120710000Y-87630000D01*
X118050000Y-86360000D02*
X118050000Y-85030000D01*
X118050000Y-85030000D02*
X119380000Y-85030000D01*
X118050000Y-72330000D02*
X119380000Y-72330000D01*
X118050000Y-73660000D02*
X118050000Y-72330000D01*
X118050000Y-74930000D02*
X120710000Y-74930000D01*
X120710000Y-74930000D02*
X120710000Y-82610000D01*
X118050000Y-74930000D02*
X118050000Y-82610000D01*
X118050000Y-82610000D02*
X120710000Y-82610000D01*
X115398733Y-61470000D02*
X115741267Y-61470000D01*
X115398733Y-60450000D02*
X115741267Y-60450000D01*
X115741267Y-63375000D02*
X115398733Y-63375000D01*
X115741267Y-62355000D02*
X115398733Y-62355000D01*
X115741267Y-65280000D02*
X115398733Y-65280000D01*
X115741267Y-64260000D02*
X115398733Y-64260000D01*
X115741267Y-69340000D02*
X115398733Y-69340000D01*
X115741267Y-70360000D02*
X115398733Y-70360000D01*
X109095000Y-88728733D02*
X109095000Y-89071267D01*
X108075000Y-88728733D02*
X108075000Y-89071267D01*
X104265000Y-88728733D02*
X104265000Y-89071267D01*
X105285000Y-88728733D02*
X105285000Y-89071267D01*
X106851267Y-78615000D02*
X106508733Y-78615000D01*
X106851267Y-77595000D02*
X106508733Y-77595000D01*
X106508733Y-64645000D02*
X106851267Y-64645000D01*
X106508733Y-63625000D02*
X106851267Y-63625000D01*
X115741267Y-75055000D02*
X115398733Y-75055000D01*
X115741267Y-76075000D02*
X115398733Y-76075000D01*
X115741267Y-79885000D02*
X115398733Y-79885000D01*
X115741267Y-78865000D02*
X115398733Y-78865000D01*
X103955000Y-92785000D02*
X102280000Y-92785000D01*
X103955000Y-92525000D02*
X103955000Y-92785000D01*
X106680000Y-92525000D02*
X103955000Y-92525000D01*
X109405000Y-92525000D02*
X109405000Y-92785000D01*
X106680000Y-92525000D02*
X109405000Y-92525000D01*
X103955000Y-97975000D02*
X103955000Y-97715000D01*
X106680000Y-97975000D02*
X103955000Y-97975000D01*
X109405000Y-97975000D02*
X109405000Y-97715000D01*
X106680000Y-97975000D02*
X109405000Y-97975000D01*
%LPC*%
D13*
G36*
X115033669Y-54720466D02*
G01*
X115059189Y-54724252D01*
X115084216Y-54730520D01*
X115108507Y-54739212D01*
X115131830Y-54750243D01*
X115153959Y-54763507D01*
X115174682Y-54778876D01*
X115193798Y-54796202D01*
X115211124Y-54815318D01*
X115226493Y-54836041D01*
X115239757Y-54858170D01*
X115250788Y-54881493D01*
X115259480Y-54905784D01*
X115265748Y-54930811D01*
X115269534Y-54956331D01*
X115270800Y-54982100D01*
X115270800Y-55507900D01*
X115269534Y-55533669D01*
X115265748Y-55559189D01*
X115259480Y-55584216D01*
X115250788Y-55608507D01*
X115239757Y-55631830D01*
X115226493Y-55653959D01*
X115211124Y-55674682D01*
X115193798Y-55693798D01*
X115174682Y-55711124D01*
X115153959Y-55726493D01*
X115131830Y-55739757D01*
X115108507Y-55750788D01*
X115084216Y-55759480D01*
X115059189Y-55765748D01*
X115033669Y-55769534D01*
X115007900Y-55770800D01*
X114382100Y-55770800D01*
X114356331Y-55769534D01*
X114330811Y-55765748D01*
X114305784Y-55759480D01*
X114281493Y-55750788D01*
X114258170Y-55739757D01*
X114236041Y-55726493D01*
X114215318Y-55711124D01*
X114196202Y-55693798D01*
X114178876Y-55674682D01*
X114163507Y-55653959D01*
X114150243Y-55631830D01*
X114139212Y-55608507D01*
X114130520Y-55584216D01*
X114124252Y-55559189D01*
X114120466Y-55533669D01*
X114119200Y-55507900D01*
X114119200Y-54982100D01*
X114120466Y-54956331D01*
X114124252Y-54930811D01*
X114130520Y-54905784D01*
X114139212Y-54881493D01*
X114150243Y-54858170D01*
X114163507Y-54836041D01*
X114178876Y-54815318D01*
X114196202Y-54796202D01*
X114215318Y-54778876D01*
X114236041Y-54763507D01*
X114258170Y-54750243D01*
X114281493Y-54739212D01*
X114305784Y-54730520D01*
X114330811Y-54724252D01*
X114356331Y-54720466D01*
X114382100Y-54719200D01*
X115007900Y-54719200D01*
X115033669Y-54720466D01*
X115033669Y-54720466D01*
G37*
D14*
X114695000Y-55245000D03*
D13*
G36*
X116783669Y-54720466D02*
G01*
X116809189Y-54724252D01*
X116834216Y-54730520D01*
X116858507Y-54739212D01*
X116881830Y-54750243D01*
X116903959Y-54763507D01*
X116924682Y-54778876D01*
X116943798Y-54796202D01*
X116961124Y-54815318D01*
X116976493Y-54836041D01*
X116989757Y-54858170D01*
X117000788Y-54881493D01*
X117009480Y-54905784D01*
X117015748Y-54930811D01*
X117019534Y-54956331D01*
X117020800Y-54982100D01*
X117020800Y-55507900D01*
X117019534Y-55533669D01*
X117015748Y-55559189D01*
X117009480Y-55584216D01*
X117000788Y-55608507D01*
X116989757Y-55631830D01*
X116976493Y-55653959D01*
X116961124Y-55674682D01*
X116943798Y-55693798D01*
X116924682Y-55711124D01*
X116903959Y-55726493D01*
X116881830Y-55739757D01*
X116858507Y-55750788D01*
X116834216Y-55759480D01*
X116809189Y-55765748D01*
X116783669Y-55769534D01*
X116757900Y-55770800D01*
X116132100Y-55770800D01*
X116106331Y-55769534D01*
X116080811Y-55765748D01*
X116055784Y-55759480D01*
X116031493Y-55750788D01*
X116008170Y-55739757D01*
X115986041Y-55726493D01*
X115965318Y-55711124D01*
X115946202Y-55693798D01*
X115928876Y-55674682D01*
X115913507Y-55653959D01*
X115900243Y-55631830D01*
X115889212Y-55608507D01*
X115880520Y-55584216D01*
X115874252Y-55559189D01*
X115870466Y-55533669D01*
X115869200Y-55507900D01*
X115869200Y-54982100D01*
X115870466Y-54956331D01*
X115874252Y-54930811D01*
X115880520Y-54905784D01*
X115889212Y-54881493D01*
X115900243Y-54858170D01*
X115913507Y-54836041D01*
X115928876Y-54815318D01*
X115946202Y-54796202D01*
X115965318Y-54778876D01*
X115986041Y-54763507D01*
X116008170Y-54750243D01*
X116031493Y-54739212D01*
X116055784Y-54730520D01*
X116080811Y-54724252D01*
X116106331Y-54720466D01*
X116132100Y-54719200D01*
X116757900Y-54719200D01*
X116783669Y-54720466D01*
X116783669Y-54720466D01*
G37*
D14*
X116445000Y-55245000D03*
D13*
G36*
X115033669Y-56625466D02*
G01*
X115059189Y-56629252D01*
X115084216Y-56635520D01*
X115108507Y-56644212D01*
X115131830Y-56655243D01*
X115153959Y-56668507D01*
X115174682Y-56683876D01*
X115193798Y-56701202D01*
X115211124Y-56720318D01*
X115226493Y-56741041D01*
X115239757Y-56763170D01*
X115250788Y-56786493D01*
X115259480Y-56810784D01*
X115265748Y-56835811D01*
X115269534Y-56861331D01*
X115270800Y-56887100D01*
X115270800Y-57412900D01*
X115269534Y-57438669D01*
X115265748Y-57464189D01*
X115259480Y-57489216D01*
X115250788Y-57513507D01*
X115239757Y-57536830D01*
X115226493Y-57558959D01*
X115211124Y-57579682D01*
X115193798Y-57598798D01*
X115174682Y-57616124D01*
X115153959Y-57631493D01*
X115131830Y-57644757D01*
X115108507Y-57655788D01*
X115084216Y-57664480D01*
X115059189Y-57670748D01*
X115033669Y-57674534D01*
X115007900Y-57675800D01*
X114382100Y-57675800D01*
X114356331Y-57674534D01*
X114330811Y-57670748D01*
X114305784Y-57664480D01*
X114281493Y-57655788D01*
X114258170Y-57644757D01*
X114236041Y-57631493D01*
X114215318Y-57616124D01*
X114196202Y-57598798D01*
X114178876Y-57579682D01*
X114163507Y-57558959D01*
X114150243Y-57536830D01*
X114139212Y-57513507D01*
X114130520Y-57489216D01*
X114124252Y-57464189D01*
X114120466Y-57438669D01*
X114119200Y-57412900D01*
X114119200Y-56887100D01*
X114120466Y-56861331D01*
X114124252Y-56835811D01*
X114130520Y-56810784D01*
X114139212Y-56786493D01*
X114150243Y-56763170D01*
X114163507Y-56741041D01*
X114178876Y-56720318D01*
X114196202Y-56701202D01*
X114215318Y-56683876D01*
X114236041Y-56668507D01*
X114258170Y-56655243D01*
X114281493Y-56644212D01*
X114305784Y-56635520D01*
X114330811Y-56629252D01*
X114356331Y-56625466D01*
X114382100Y-56624200D01*
X115007900Y-56624200D01*
X115033669Y-56625466D01*
X115033669Y-56625466D01*
G37*
D14*
X114695000Y-57150000D03*
D13*
G36*
X116783669Y-56625466D02*
G01*
X116809189Y-56629252D01*
X116834216Y-56635520D01*
X116858507Y-56644212D01*
X116881830Y-56655243D01*
X116903959Y-56668507D01*
X116924682Y-56683876D01*
X116943798Y-56701202D01*
X116961124Y-56720318D01*
X116976493Y-56741041D01*
X116989757Y-56763170D01*
X117000788Y-56786493D01*
X117009480Y-56810784D01*
X117015748Y-56835811D01*
X117019534Y-56861331D01*
X117020800Y-56887100D01*
X117020800Y-57412900D01*
X117019534Y-57438669D01*
X117015748Y-57464189D01*
X117009480Y-57489216D01*
X117000788Y-57513507D01*
X116989757Y-57536830D01*
X116976493Y-57558959D01*
X116961124Y-57579682D01*
X116943798Y-57598798D01*
X116924682Y-57616124D01*
X116903959Y-57631493D01*
X116881830Y-57644757D01*
X116858507Y-57655788D01*
X116834216Y-57664480D01*
X116809189Y-57670748D01*
X116783669Y-57674534D01*
X116757900Y-57675800D01*
X116132100Y-57675800D01*
X116106331Y-57674534D01*
X116080811Y-57670748D01*
X116055784Y-57664480D01*
X116031493Y-57655788D01*
X116008170Y-57644757D01*
X115986041Y-57631493D01*
X115965318Y-57616124D01*
X115946202Y-57598798D01*
X115928876Y-57579682D01*
X115913507Y-57558959D01*
X115900243Y-57536830D01*
X115889212Y-57513507D01*
X115880520Y-57489216D01*
X115874252Y-57464189D01*
X115870466Y-57438669D01*
X115869200Y-57412900D01*
X115869200Y-56887100D01*
X115870466Y-56861331D01*
X115874252Y-56835811D01*
X115880520Y-56810784D01*
X115889212Y-56786493D01*
X115900243Y-56763170D01*
X115913507Y-56741041D01*
X115928876Y-56720318D01*
X115946202Y-56701202D01*
X115965318Y-56683876D01*
X115986041Y-56668507D01*
X116008170Y-56655243D01*
X116031493Y-56644212D01*
X116055784Y-56635520D01*
X116080811Y-56629252D01*
X116106331Y-56625466D01*
X116132100Y-56624200D01*
X116757900Y-56624200D01*
X116783669Y-56625466D01*
X116783669Y-56625466D01*
G37*
D14*
X116445000Y-57150000D03*
D13*
G36*
X99793669Y-55355466D02*
G01*
X99819189Y-55359252D01*
X99844216Y-55365520D01*
X99868507Y-55374212D01*
X99891830Y-55385243D01*
X99913959Y-55398507D01*
X99934682Y-55413876D01*
X99953798Y-55431202D01*
X99971124Y-55450318D01*
X99986493Y-55471041D01*
X99999757Y-55493170D01*
X100010788Y-55516493D01*
X100019480Y-55540784D01*
X100025748Y-55565811D01*
X100029534Y-55591331D01*
X100030800Y-55617100D01*
X100030800Y-56142900D01*
X100029534Y-56168669D01*
X100025748Y-56194189D01*
X100019480Y-56219216D01*
X100010788Y-56243507D01*
X99999757Y-56266830D01*
X99986493Y-56288959D01*
X99971124Y-56309682D01*
X99953798Y-56328798D01*
X99934682Y-56346124D01*
X99913959Y-56361493D01*
X99891830Y-56374757D01*
X99868507Y-56385788D01*
X99844216Y-56394480D01*
X99819189Y-56400748D01*
X99793669Y-56404534D01*
X99767900Y-56405800D01*
X99142100Y-56405800D01*
X99116331Y-56404534D01*
X99090811Y-56400748D01*
X99065784Y-56394480D01*
X99041493Y-56385788D01*
X99018170Y-56374757D01*
X98996041Y-56361493D01*
X98975318Y-56346124D01*
X98956202Y-56328798D01*
X98938876Y-56309682D01*
X98923507Y-56288959D01*
X98910243Y-56266830D01*
X98899212Y-56243507D01*
X98890520Y-56219216D01*
X98884252Y-56194189D01*
X98880466Y-56168669D01*
X98879200Y-56142900D01*
X98879200Y-55617100D01*
X98880466Y-55591331D01*
X98884252Y-55565811D01*
X98890520Y-55540784D01*
X98899212Y-55516493D01*
X98910243Y-55493170D01*
X98923507Y-55471041D01*
X98938876Y-55450318D01*
X98956202Y-55431202D01*
X98975318Y-55413876D01*
X98996041Y-55398507D01*
X99018170Y-55385243D01*
X99041493Y-55374212D01*
X99065784Y-55365520D01*
X99090811Y-55359252D01*
X99116331Y-55355466D01*
X99142100Y-55354200D01*
X99767900Y-55354200D01*
X99793669Y-55355466D01*
X99793669Y-55355466D01*
G37*
D14*
X99455000Y-55880000D03*
D13*
G36*
X101543669Y-55355466D02*
G01*
X101569189Y-55359252D01*
X101594216Y-55365520D01*
X101618507Y-55374212D01*
X101641830Y-55385243D01*
X101663959Y-55398507D01*
X101684682Y-55413876D01*
X101703798Y-55431202D01*
X101721124Y-55450318D01*
X101736493Y-55471041D01*
X101749757Y-55493170D01*
X101760788Y-55516493D01*
X101769480Y-55540784D01*
X101775748Y-55565811D01*
X101779534Y-55591331D01*
X101780800Y-55617100D01*
X101780800Y-56142900D01*
X101779534Y-56168669D01*
X101775748Y-56194189D01*
X101769480Y-56219216D01*
X101760788Y-56243507D01*
X101749757Y-56266830D01*
X101736493Y-56288959D01*
X101721124Y-56309682D01*
X101703798Y-56328798D01*
X101684682Y-56346124D01*
X101663959Y-56361493D01*
X101641830Y-56374757D01*
X101618507Y-56385788D01*
X101594216Y-56394480D01*
X101569189Y-56400748D01*
X101543669Y-56404534D01*
X101517900Y-56405800D01*
X100892100Y-56405800D01*
X100866331Y-56404534D01*
X100840811Y-56400748D01*
X100815784Y-56394480D01*
X100791493Y-56385788D01*
X100768170Y-56374757D01*
X100746041Y-56361493D01*
X100725318Y-56346124D01*
X100706202Y-56328798D01*
X100688876Y-56309682D01*
X100673507Y-56288959D01*
X100660243Y-56266830D01*
X100649212Y-56243507D01*
X100640520Y-56219216D01*
X100634252Y-56194189D01*
X100630466Y-56168669D01*
X100629200Y-56142900D01*
X100629200Y-55617100D01*
X100630466Y-55591331D01*
X100634252Y-55565811D01*
X100640520Y-55540784D01*
X100649212Y-55516493D01*
X100660243Y-55493170D01*
X100673507Y-55471041D01*
X100688876Y-55450318D01*
X100706202Y-55431202D01*
X100725318Y-55413876D01*
X100746041Y-55398507D01*
X100768170Y-55385243D01*
X100791493Y-55374212D01*
X100815784Y-55365520D01*
X100840811Y-55359252D01*
X100866331Y-55355466D01*
X100892100Y-55354200D01*
X101517900Y-55354200D01*
X101543669Y-55355466D01*
X101543669Y-55355466D01*
G37*
D14*
X101205000Y-55880000D03*
D13*
G36*
X99793669Y-57895466D02*
G01*
X99819189Y-57899252D01*
X99844216Y-57905520D01*
X99868507Y-57914212D01*
X99891830Y-57925243D01*
X99913959Y-57938507D01*
X99934682Y-57953876D01*
X99953798Y-57971202D01*
X99971124Y-57990318D01*
X99986493Y-58011041D01*
X99999757Y-58033170D01*
X100010788Y-58056493D01*
X100019480Y-58080784D01*
X100025748Y-58105811D01*
X100029534Y-58131331D01*
X100030800Y-58157100D01*
X100030800Y-58682900D01*
X100029534Y-58708669D01*
X100025748Y-58734189D01*
X100019480Y-58759216D01*
X100010788Y-58783507D01*
X99999757Y-58806830D01*
X99986493Y-58828959D01*
X99971124Y-58849682D01*
X99953798Y-58868798D01*
X99934682Y-58886124D01*
X99913959Y-58901493D01*
X99891830Y-58914757D01*
X99868507Y-58925788D01*
X99844216Y-58934480D01*
X99819189Y-58940748D01*
X99793669Y-58944534D01*
X99767900Y-58945800D01*
X99142100Y-58945800D01*
X99116331Y-58944534D01*
X99090811Y-58940748D01*
X99065784Y-58934480D01*
X99041493Y-58925788D01*
X99018170Y-58914757D01*
X98996041Y-58901493D01*
X98975318Y-58886124D01*
X98956202Y-58868798D01*
X98938876Y-58849682D01*
X98923507Y-58828959D01*
X98910243Y-58806830D01*
X98899212Y-58783507D01*
X98890520Y-58759216D01*
X98884252Y-58734189D01*
X98880466Y-58708669D01*
X98879200Y-58682900D01*
X98879200Y-58157100D01*
X98880466Y-58131331D01*
X98884252Y-58105811D01*
X98890520Y-58080784D01*
X98899212Y-58056493D01*
X98910243Y-58033170D01*
X98923507Y-58011041D01*
X98938876Y-57990318D01*
X98956202Y-57971202D01*
X98975318Y-57953876D01*
X98996041Y-57938507D01*
X99018170Y-57925243D01*
X99041493Y-57914212D01*
X99065784Y-57905520D01*
X99090811Y-57899252D01*
X99116331Y-57895466D01*
X99142100Y-57894200D01*
X99767900Y-57894200D01*
X99793669Y-57895466D01*
X99793669Y-57895466D01*
G37*
D14*
X99455000Y-58420000D03*
D13*
G36*
X101543669Y-57895466D02*
G01*
X101569189Y-57899252D01*
X101594216Y-57905520D01*
X101618507Y-57914212D01*
X101641830Y-57925243D01*
X101663959Y-57938507D01*
X101684682Y-57953876D01*
X101703798Y-57971202D01*
X101721124Y-57990318D01*
X101736493Y-58011041D01*
X101749757Y-58033170D01*
X101760788Y-58056493D01*
X101769480Y-58080784D01*
X101775748Y-58105811D01*
X101779534Y-58131331D01*
X101780800Y-58157100D01*
X101780800Y-58682900D01*
X101779534Y-58708669D01*
X101775748Y-58734189D01*
X101769480Y-58759216D01*
X101760788Y-58783507D01*
X101749757Y-58806830D01*
X101736493Y-58828959D01*
X101721124Y-58849682D01*
X101703798Y-58868798D01*
X101684682Y-58886124D01*
X101663959Y-58901493D01*
X101641830Y-58914757D01*
X101618507Y-58925788D01*
X101594216Y-58934480D01*
X101569189Y-58940748D01*
X101543669Y-58944534D01*
X101517900Y-58945800D01*
X100892100Y-58945800D01*
X100866331Y-58944534D01*
X100840811Y-58940748D01*
X100815784Y-58934480D01*
X100791493Y-58925788D01*
X100768170Y-58914757D01*
X100746041Y-58901493D01*
X100725318Y-58886124D01*
X100706202Y-58868798D01*
X100688876Y-58849682D01*
X100673507Y-58828959D01*
X100660243Y-58806830D01*
X100649212Y-58783507D01*
X100640520Y-58759216D01*
X100634252Y-58734189D01*
X100630466Y-58708669D01*
X100629200Y-58682900D01*
X100629200Y-58157100D01*
X100630466Y-58131331D01*
X100634252Y-58105811D01*
X100640520Y-58080784D01*
X100649212Y-58056493D01*
X100660243Y-58033170D01*
X100673507Y-58011041D01*
X100688876Y-57990318D01*
X100706202Y-57971202D01*
X100725318Y-57953876D01*
X100746041Y-57938507D01*
X100768170Y-57925243D01*
X100791493Y-57914212D01*
X100815784Y-57905520D01*
X100840811Y-57899252D01*
X100866331Y-57895466D01*
X100892100Y-57894200D01*
X101517900Y-57894200D01*
X101543669Y-57895466D01*
X101543669Y-57895466D01*
G37*
D14*
X101205000Y-58420000D03*
D13*
G36*
X105072592Y-81565045D02*
G01*
X105089619Y-81567570D01*
X105106316Y-81571753D01*
X105122523Y-81577552D01*
X105138083Y-81584911D01*
X105152847Y-81593760D01*
X105166673Y-81604014D01*
X105179427Y-81615573D01*
X105190986Y-81628327D01*
X105201240Y-81642153D01*
X105210089Y-81656917D01*
X105217448Y-81672477D01*
X105223247Y-81688684D01*
X105227430Y-81705381D01*
X105229955Y-81722408D01*
X105230800Y-81739600D01*
X105230800Y-82090400D01*
X105229955Y-82107592D01*
X105227430Y-82124619D01*
X105223247Y-82141316D01*
X105217448Y-82157523D01*
X105210089Y-82173083D01*
X105201240Y-82187847D01*
X105190986Y-82201673D01*
X105179427Y-82214427D01*
X105166673Y-82225986D01*
X105152847Y-82236240D01*
X105138083Y-82245089D01*
X105122523Y-82252448D01*
X105106316Y-82258247D01*
X105089619Y-82262430D01*
X105072592Y-82264955D01*
X105055400Y-82265800D01*
X103354600Y-82265800D01*
X103337408Y-82264955D01*
X103320381Y-82262430D01*
X103303684Y-82258247D01*
X103287477Y-82252448D01*
X103271917Y-82245089D01*
X103257153Y-82236240D01*
X103243327Y-82225986D01*
X103230573Y-82214427D01*
X103219014Y-82201673D01*
X103208760Y-82187847D01*
X103199911Y-82173083D01*
X103192552Y-82157523D01*
X103186753Y-82141316D01*
X103182570Y-82124619D01*
X103180045Y-82107592D01*
X103179200Y-82090400D01*
X103179200Y-81739600D01*
X103180045Y-81722408D01*
X103182570Y-81705381D01*
X103186753Y-81688684D01*
X103192552Y-81672477D01*
X103199911Y-81656917D01*
X103208760Y-81642153D01*
X103219014Y-81628327D01*
X103230573Y-81615573D01*
X103243327Y-81604014D01*
X103257153Y-81593760D01*
X103271917Y-81584911D01*
X103287477Y-81577552D01*
X103303684Y-81571753D01*
X103320381Y-81567570D01*
X103337408Y-81565045D01*
X103354600Y-81564200D01*
X105055400Y-81564200D01*
X105072592Y-81565045D01*
X105072592Y-81565045D01*
G37*
D15*
X104205000Y-81915000D03*
D13*
G36*
X105072592Y-82835045D02*
G01*
X105089619Y-82837570D01*
X105106316Y-82841753D01*
X105122523Y-82847552D01*
X105138083Y-82854911D01*
X105152847Y-82863760D01*
X105166673Y-82874014D01*
X105179427Y-82885573D01*
X105190986Y-82898327D01*
X105201240Y-82912153D01*
X105210089Y-82926917D01*
X105217448Y-82942477D01*
X105223247Y-82958684D01*
X105227430Y-82975381D01*
X105229955Y-82992408D01*
X105230800Y-83009600D01*
X105230800Y-83360400D01*
X105229955Y-83377592D01*
X105227430Y-83394619D01*
X105223247Y-83411316D01*
X105217448Y-83427523D01*
X105210089Y-83443083D01*
X105201240Y-83457847D01*
X105190986Y-83471673D01*
X105179427Y-83484427D01*
X105166673Y-83495986D01*
X105152847Y-83506240D01*
X105138083Y-83515089D01*
X105122523Y-83522448D01*
X105106316Y-83528247D01*
X105089619Y-83532430D01*
X105072592Y-83534955D01*
X105055400Y-83535800D01*
X103354600Y-83535800D01*
X103337408Y-83534955D01*
X103320381Y-83532430D01*
X103303684Y-83528247D01*
X103287477Y-83522448D01*
X103271917Y-83515089D01*
X103257153Y-83506240D01*
X103243327Y-83495986D01*
X103230573Y-83484427D01*
X103219014Y-83471673D01*
X103208760Y-83457847D01*
X103199911Y-83443083D01*
X103192552Y-83427523D01*
X103186753Y-83411316D01*
X103182570Y-83394619D01*
X103180045Y-83377592D01*
X103179200Y-83360400D01*
X103179200Y-83009600D01*
X103180045Y-82992408D01*
X103182570Y-82975381D01*
X103186753Y-82958684D01*
X103192552Y-82942477D01*
X103199911Y-82926917D01*
X103208760Y-82912153D01*
X103219014Y-82898327D01*
X103230573Y-82885573D01*
X103243327Y-82874014D01*
X103257153Y-82863760D01*
X103271917Y-82854911D01*
X103287477Y-82847552D01*
X103303684Y-82841753D01*
X103320381Y-82837570D01*
X103337408Y-82835045D01*
X103354600Y-82834200D01*
X105055400Y-82834200D01*
X105072592Y-82835045D01*
X105072592Y-82835045D01*
G37*
D15*
X104205000Y-83185000D03*
D13*
G36*
X105072592Y-84105045D02*
G01*
X105089619Y-84107570D01*
X105106316Y-84111753D01*
X105122523Y-84117552D01*
X105138083Y-84124911D01*
X105152847Y-84133760D01*
X105166673Y-84144014D01*
X105179427Y-84155573D01*
X105190986Y-84168327D01*
X105201240Y-84182153D01*
X105210089Y-84196917D01*
X105217448Y-84212477D01*
X105223247Y-84228684D01*
X105227430Y-84245381D01*
X105229955Y-84262408D01*
X105230800Y-84279600D01*
X105230800Y-84630400D01*
X105229955Y-84647592D01*
X105227430Y-84664619D01*
X105223247Y-84681316D01*
X105217448Y-84697523D01*
X105210089Y-84713083D01*
X105201240Y-84727847D01*
X105190986Y-84741673D01*
X105179427Y-84754427D01*
X105166673Y-84765986D01*
X105152847Y-84776240D01*
X105138083Y-84785089D01*
X105122523Y-84792448D01*
X105106316Y-84798247D01*
X105089619Y-84802430D01*
X105072592Y-84804955D01*
X105055400Y-84805800D01*
X103354600Y-84805800D01*
X103337408Y-84804955D01*
X103320381Y-84802430D01*
X103303684Y-84798247D01*
X103287477Y-84792448D01*
X103271917Y-84785089D01*
X103257153Y-84776240D01*
X103243327Y-84765986D01*
X103230573Y-84754427D01*
X103219014Y-84741673D01*
X103208760Y-84727847D01*
X103199911Y-84713083D01*
X103192552Y-84697523D01*
X103186753Y-84681316D01*
X103182570Y-84664619D01*
X103180045Y-84647592D01*
X103179200Y-84630400D01*
X103179200Y-84279600D01*
X103180045Y-84262408D01*
X103182570Y-84245381D01*
X103186753Y-84228684D01*
X103192552Y-84212477D01*
X103199911Y-84196917D01*
X103208760Y-84182153D01*
X103219014Y-84168327D01*
X103230573Y-84155573D01*
X103243327Y-84144014D01*
X103257153Y-84133760D01*
X103271917Y-84124911D01*
X103287477Y-84117552D01*
X103303684Y-84111753D01*
X103320381Y-84107570D01*
X103337408Y-84105045D01*
X103354600Y-84104200D01*
X105055400Y-84104200D01*
X105072592Y-84105045D01*
X105072592Y-84105045D01*
G37*
D15*
X104205000Y-84455000D03*
D13*
G36*
X105072592Y-85375045D02*
G01*
X105089619Y-85377570D01*
X105106316Y-85381753D01*
X105122523Y-85387552D01*
X105138083Y-85394911D01*
X105152847Y-85403760D01*
X105166673Y-85414014D01*
X105179427Y-85425573D01*
X105190986Y-85438327D01*
X105201240Y-85452153D01*
X105210089Y-85466917D01*
X105217448Y-85482477D01*
X105223247Y-85498684D01*
X105227430Y-85515381D01*
X105229955Y-85532408D01*
X105230800Y-85549600D01*
X105230800Y-85900400D01*
X105229955Y-85917592D01*
X105227430Y-85934619D01*
X105223247Y-85951316D01*
X105217448Y-85967523D01*
X105210089Y-85983083D01*
X105201240Y-85997847D01*
X105190986Y-86011673D01*
X105179427Y-86024427D01*
X105166673Y-86035986D01*
X105152847Y-86046240D01*
X105138083Y-86055089D01*
X105122523Y-86062448D01*
X105106316Y-86068247D01*
X105089619Y-86072430D01*
X105072592Y-86074955D01*
X105055400Y-86075800D01*
X103354600Y-86075800D01*
X103337408Y-86074955D01*
X103320381Y-86072430D01*
X103303684Y-86068247D01*
X103287477Y-86062448D01*
X103271917Y-86055089D01*
X103257153Y-86046240D01*
X103243327Y-86035986D01*
X103230573Y-86024427D01*
X103219014Y-86011673D01*
X103208760Y-85997847D01*
X103199911Y-85983083D01*
X103192552Y-85967523D01*
X103186753Y-85951316D01*
X103182570Y-85934619D01*
X103180045Y-85917592D01*
X103179200Y-85900400D01*
X103179200Y-85549600D01*
X103180045Y-85532408D01*
X103182570Y-85515381D01*
X103186753Y-85498684D01*
X103192552Y-85482477D01*
X103199911Y-85466917D01*
X103208760Y-85452153D01*
X103219014Y-85438327D01*
X103230573Y-85425573D01*
X103243327Y-85414014D01*
X103257153Y-85403760D01*
X103271917Y-85394911D01*
X103287477Y-85387552D01*
X103303684Y-85381753D01*
X103320381Y-85377570D01*
X103337408Y-85375045D01*
X103354600Y-85374200D01*
X105055400Y-85374200D01*
X105072592Y-85375045D01*
X105072592Y-85375045D01*
G37*
D15*
X104205000Y-85725000D03*
D13*
G36*
X110022592Y-85375045D02*
G01*
X110039619Y-85377570D01*
X110056316Y-85381753D01*
X110072523Y-85387552D01*
X110088083Y-85394911D01*
X110102847Y-85403760D01*
X110116673Y-85414014D01*
X110129427Y-85425573D01*
X110140986Y-85438327D01*
X110151240Y-85452153D01*
X110160089Y-85466917D01*
X110167448Y-85482477D01*
X110173247Y-85498684D01*
X110177430Y-85515381D01*
X110179955Y-85532408D01*
X110180800Y-85549600D01*
X110180800Y-85900400D01*
X110179955Y-85917592D01*
X110177430Y-85934619D01*
X110173247Y-85951316D01*
X110167448Y-85967523D01*
X110160089Y-85983083D01*
X110151240Y-85997847D01*
X110140986Y-86011673D01*
X110129427Y-86024427D01*
X110116673Y-86035986D01*
X110102847Y-86046240D01*
X110088083Y-86055089D01*
X110072523Y-86062448D01*
X110056316Y-86068247D01*
X110039619Y-86072430D01*
X110022592Y-86074955D01*
X110005400Y-86075800D01*
X108304600Y-86075800D01*
X108287408Y-86074955D01*
X108270381Y-86072430D01*
X108253684Y-86068247D01*
X108237477Y-86062448D01*
X108221917Y-86055089D01*
X108207153Y-86046240D01*
X108193327Y-86035986D01*
X108180573Y-86024427D01*
X108169014Y-86011673D01*
X108158760Y-85997847D01*
X108149911Y-85983083D01*
X108142552Y-85967523D01*
X108136753Y-85951316D01*
X108132570Y-85934619D01*
X108130045Y-85917592D01*
X108129200Y-85900400D01*
X108129200Y-85549600D01*
X108130045Y-85532408D01*
X108132570Y-85515381D01*
X108136753Y-85498684D01*
X108142552Y-85482477D01*
X108149911Y-85466917D01*
X108158760Y-85452153D01*
X108169014Y-85438327D01*
X108180573Y-85425573D01*
X108193327Y-85414014D01*
X108207153Y-85403760D01*
X108221917Y-85394911D01*
X108237477Y-85387552D01*
X108253684Y-85381753D01*
X108270381Y-85377570D01*
X108287408Y-85375045D01*
X108304600Y-85374200D01*
X110005400Y-85374200D01*
X110022592Y-85375045D01*
X110022592Y-85375045D01*
G37*
D15*
X109155000Y-85725000D03*
D13*
G36*
X110022592Y-84105045D02*
G01*
X110039619Y-84107570D01*
X110056316Y-84111753D01*
X110072523Y-84117552D01*
X110088083Y-84124911D01*
X110102847Y-84133760D01*
X110116673Y-84144014D01*
X110129427Y-84155573D01*
X110140986Y-84168327D01*
X110151240Y-84182153D01*
X110160089Y-84196917D01*
X110167448Y-84212477D01*
X110173247Y-84228684D01*
X110177430Y-84245381D01*
X110179955Y-84262408D01*
X110180800Y-84279600D01*
X110180800Y-84630400D01*
X110179955Y-84647592D01*
X110177430Y-84664619D01*
X110173247Y-84681316D01*
X110167448Y-84697523D01*
X110160089Y-84713083D01*
X110151240Y-84727847D01*
X110140986Y-84741673D01*
X110129427Y-84754427D01*
X110116673Y-84765986D01*
X110102847Y-84776240D01*
X110088083Y-84785089D01*
X110072523Y-84792448D01*
X110056316Y-84798247D01*
X110039619Y-84802430D01*
X110022592Y-84804955D01*
X110005400Y-84805800D01*
X108304600Y-84805800D01*
X108287408Y-84804955D01*
X108270381Y-84802430D01*
X108253684Y-84798247D01*
X108237477Y-84792448D01*
X108221917Y-84785089D01*
X108207153Y-84776240D01*
X108193327Y-84765986D01*
X108180573Y-84754427D01*
X108169014Y-84741673D01*
X108158760Y-84727847D01*
X108149911Y-84713083D01*
X108142552Y-84697523D01*
X108136753Y-84681316D01*
X108132570Y-84664619D01*
X108130045Y-84647592D01*
X108129200Y-84630400D01*
X108129200Y-84279600D01*
X108130045Y-84262408D01*
X108132570Y-84245381D01*
X108136753Y-84228684D01*
X108142552Y-84212477D01*
X108149911Y-84196917D01*
X108158760Y-84182153D01*
X108169014Y-84168327D01*
X108180573Y-84155573D01*
X108193327Y-84144014D01*
X108207153Y-84133760D01*
X108221917Y-84124911D01*
X108237477Y-84117552D01*
X108253684Y-84111753D01*
X108270381Y-84107570D01*
X108287408Y-84105045D01*
X108304600Y-84104200D01*
X110005400Y-84104200D01*
X110022592Y-84105045D01*
X110022592Y-84105045D01*
G37*
D15*
X109155000Y-84455000D03*
D13*
G36*
X110022592Y-82835045D02*
G01*
X110039619Y-82837570D01*
X110056316Y-82841753D01*
X110072523Y-82847552D01*
X110088083Y-82854911D01*
X110102847Y-82863760D01*
X110116673Y-82874014D01*
X110129427Y-82885573D01*
X110140986Y-82898327D01*
X110151240Y-82912153D01*
X110160089Y-82926917D01*
X110167448Y-82942477D01*
X110173247Y-82958684D01*
X110177430Y-82975381D01*
X110179955Y-82992408D01*
X110180800Y-83009600D01*
X110180800Y-83360400D01*
X110179955Y-83377592D01*
X110177430Y-83394619D01*
X110173247Y-83411316D01*
X110167448Y-83427523D01*
X110160089Y-83443083D01*
X110151240Y-83457847D01*
X110140986Y-83471673D01*
X110129427Y-83484427D01*
X110116673Y-83495986D01*
X110102847Y-83506240D01*
X110088083Y-83515089D01*
X110072523Y-83522448D01*
X110056316Y-83528247D01*
X110039619Y-83532430D01*
X110022592Y-83534955D01*
X110005400Y-83535800D01*
X108304600Y-83535800D01*
X108287408Y-83534955D01*
X108270381Y-83532430D01*
X108253684Y-83528247D01*
X108237477Y-83522448D01*
X108221917Y-83515089D01*
X108207153Y-83506240D01*
X108193327Y-83495986D01*
X108180573Y-83484427D01*
X108169014Y-83471673D01*
X108158760Y-83457847D01*
X108149911Y-83443083D01*
X108142552Y-83427523D01*
X108136753Y-83411316D01*
X108132570Y-83394619D01*
X108130045Y-83377592D01*
X108129200Y-83360400D01*
X108129200Y-83009600D01*
X108130045Y-82992408D01*
X108132570Y-82975381D01*
X108136753Y-82958684D01*
X108142552Y-82942477D01*
X108149911Y-82926917D01*
X108158760Y-82912153D01*
X108169014Y-82898327D01*
X108180573Y-82885573D01*
X108193327Y-82874014D01*
X108207153Y-82863760D01*
X108221917Y-82854911D01*
X108237477Y-82847552D01*
X108253684Y-82841753D01*
X108270381Y-82837570D01*
X108287408Y-82835045D01*
X108304600Y-82834200D01*
X110005400Y-82834200D01*
X110022592Y-82835045D01*
X110022592Y-82835045D01*
G37*
D15*
X109155000Y-83185000D03*
D13*
G36*
X110022592Y-81565045D02*
G01*
X110039619Y-81567570D01*
X110056316Y-81571753D01*
X110072523Y-81577552D01*
X110088083Y-81584911D01*
X110102847Y-81593760D01*
X110116673Y-81604014D01*
X110129427Y-81615573D01*
X110140986Y-81628327D01*
X110151240Y-81642153D01*
X110160089Y-81656917D01*
X110167448Y-81672477D01*
X110173247Y-81688684D01*
X110177430Y-81705381D01*
X110179955Y-81722408D01*
X110180800Y-81739600D01*
X110180800Y-82090400D01*
X110179955Y-82107592D01*
X110177430Y-82124619D01*
X110173247Y-82141316D01*
X110167448Y-82157523D01*
X110160089Y-82173083D01*
X110151240Y-82187847D01*
X110140986Y-82201673D01*
X110129427Y-82214427D01*
X110116673Y-82225986D01*
X110102847Y-82236240D01*
X110088083Y-82245089D01*
X110072523Y-82252448D01*
X110056316Y-82258247D01*
X110039619Y-82262430D01*
X110022592Y-82264955D01*
X110005400Y-82265800D01*
X108304600Y-82265800D01*
X108287408Y-82264955D01*
X108270381Y-82262430D01*
X108253684Y-82258247D01*
X108237477Y-82252448D01*
X108221917Y-82245089D01*
X108207153Y-82236240D01*
X108193327Y-82225986D01*
X108180573Y-82214427D01*
X108169014Y-82201673D01*
X108158760Y-82187847D01*
X108149911Y-82173083D01*
X108142552Y-82157523D01*
X108136753Y-82141316D01*
X108132570Y-82124619D01*
X108130045Y-82107592D01*
X108129200Y-82090400D01*
X108129200Y-81739600D01*
X108130045Y-81722408D01*
X108132570Y-81705381D01*
X108136753Y-81688684D01*
X108142552Y-81672477D01*
X108149911Y-81656917D01*
X108158760Y-81642153D01*
X108169014Y-81628327D01*
X108180573Y-81615573D01*
X108193327Y-81604014D01*
X108207153Y-81593760D01*
X108221917Y-81584911D01*
X108237477Y-81577552D01*
X108253684Y-81571753D01*
X108270381Y-81567570D01*
X108287408Y-81565045D01*
X108304600Y-81564200D01*
X110005400Y-81564200D01*
X110022592Y-81565045D01*
X110022592Y-81565045D01*
G37*
D15*
X109155000Y-81915000D03*
D13*
G36*
X105072592Y-68230045D02*
G01*
X105089619Y-68232570D01*
X105106316Y-68236753D01*
X105122523Y-68242552D01*
X105138083Y-68249911D01*
X105152847Y-68258760D01*
X105166673Y-68269014D01*
X105179427Y-68280573D01*
X105190986Y-68293327D01*
X105201240Y-68307153D01*
X105210089Y-68321917D01*
X105217448Y-68337477D01*
X105223247Y-68353684D01*
X105227430Y-68370381D01*
X105229955Y-68387408D01*
X105230800Y-68404600D01*
X105230800Y-68755400D01*
X105229955Y-68772592D01*
X105227430Y-68789619D01*
X105223247Y-68806316D01*
X105217448Y-68822523D01*
X105210089Y-68838083D01*
X105201240Y-68852847D01*
X105190986Y-68866673D01*
X105179427Y-68879427D01*
X105166673Y-68890986D01*
X105152847Y-68901240D01*
X105138083Y-68910089D01*
X105122523Y-68917448D01*
X105106316Y-68923247D01*
X105089619Y-68927430D01*
X105072592Y-68929955D01*
X105055400Y-68930800D01*
X103354600Y-68930800D01*
X103337408Y-68929955D01*
X103320381Y-68927430D01*
X103303684Y-68923247D01*
X103287477Y-68917448D01*
X103271917Y-68910089D01*
X103257153Y-68901240D01*
X103243327Y-68890986D01*
X103230573Y-68879427D01*
X103219014Y-68866673D01*
X103208760Y-68852847D01*
X103199911Y-68838083D01*
X103192552Y-68822523D01*
X103186753Y-68806316D01*
X103182570Y-68789619D01*
X103180045Y-68772592D01*
X103179200Y-68755400D01*
X103179200Y-68404600D01*
X103180045Y-68387408D01*
X103182570Y-68370381D01*
X103186753Y-68353684D01*
X103192552Y-68337477D01*
X103199911Y-68321917D01*
X103208760Y-68307153D01*
X103219014Y-68293327D01*
X103230573Y-68280573D01*
X103243327Y-68269014D01*
X103257153Y-68258760D01*
X103271917Y-68249911D01*
X103287477Y-68242552D01*
X103303684Y-68236753D01*
X103320381Y-68232570D01*
X103337408Y-68230045D01*
X103354600Y-68229200D01*
X105055400Y-68229200D01*
X105072592Y-68230045D01*
X105072592Y-68230045D01*
G37*
D15*
X104205000Y-68580000D03*
D13*
G36*
X105072592Y-69500045D02*
G01*
X105089619Y-69502570D01*
X105106316Y-69506753D01*
X105122523Y-69512552D01*
X105138083Y-69519911D01*
X105152847Y-69528760D01*
X105166673Y-69539014D01*
X105179427Y-69550573D01*
X105190986Y-69563327D01*
X105201240Y-69577153D01*
X105210089Y-69591917D01*
X105217448Y-69607477D01*
X105223247Y-69623684D01*
X105227430Y-69640381D01*
X105229955Y-69657408D01*
X105230800Y-69674600D01*
X105230800Y-70025400D01*
X105229955Y-70042592D01*
X105227430Y-70059619D01*
X105223247Y-70076316D01*
X105217448Y-70092523D01*
X105210089Y-70108083D01*
X105201240Y-70122847D01*
X105190986Y-70136673D01*
X105179427Y-70149427D01*
X105166673Y-70160986D01*
X105152847Y-70171240D01*
X105138083Y-70180089D01*
X105122523Y-70187448D01*
X105106316Y-70193247D01*
X105089619Y-70197430D01*
X105072592Y-70199955D01*
X105055400Y-70200800D01*
X103354600Y-70200800D01*
X103337408Y-70199955D01*
X103320381Y-70197430D01*
X103303684Y-70193247D01*
X103287477Y-70187448D01*
X103271917Y-70180089D01*
X103257153Y-70171240D01*
X103243327Y-70160986D01*
X103230573Y-70149427D01*
X103219014Y-70136673D01*
X103208760Y-70122847D01*
X103199911Y-70108083D01*
X103192552Y-70092523D01*
X103186753Y-70076316D01*
X103182570Y-70059619D01*
X103180045Y-70042592D01*
X103179200Y-70025400D01*
X103179200Y-69674600D01*
X103180045Y-69657408D01*
X103182570Y-69640381D01*
X103186753Y-69623684D01*
X103192552Y-69607477D01*
X103199911Y-69591917D01*
X103208760Y-69577153D01*
X103219014Y-69563327D01*
X103230573Y-69550573D01*
X103243327Y-69539014D01*
X103257153Y-69528760D01*
X103271917Y-69519911D01*
X103287477Y-69512552D01*
X103303684Y-69506753D01*
X103320381Y-69502570D01*
X103337408Y-69500045D01*
X103354600Y-69499200D01*
X105055400Y-69499200D01*
X105072592Y-69500045D01*
X105072592Y-69500045D01*
G37*
D15*
X104205000Y-69850000D03*
D13*
G36*
X105072592Y-70770045D02*
G01*
X105089619Y-70772570D01*
X105106316Y-70776753D01*
X105122523Y-70782552D01*
X105138083Y-70789911D01*
X105152847Y-70798760D01*
X105166673Y-70809014D01*
X105179427Y-70820573D01*
X105190986Y-70833327D01*
X105201240Y-70847153D01*
X105210089Y-70861917D01*
X105217448Y-70877477D01*
X105223247Y-70893684D01*
X105227430Y-70910381D01*
X105229955Y-70927408D01*
X105230800Y-70944600D01*
X105230800Y-71295400D01*
X105229955Y-71312592D01*
X105227430Y-71329619D01*
X105223247Y-71346316D01*
X105217448Y-71362523D01*
X105210089Y-71378083D01*
X105201240Y-71392847D01*
X105190986Y-71406673D01*
X105179427Y-71419427D01*
X105166673Y-71430986D01*
X105152847Y-71441240D01*
X105138083Y-71450089D01*
X105122523Y-71457448D01*
X105106316Y-71463247D01*
X105089619Y-71467430D01*
X105072592Y-71469955D01*
X105055400Y-71470800D01*
X103354600Y-71470800D01*
X103337408Y-71469955D01*
X103320381Y-71467430D01*
X103303684Y-71463247D01*
X103287477Y-71457448D01*
X103271917Y-71450089D01*
X103257153Y-71441240D01*
X103243327Y-71430986D01*
X103230573Y-71419427D01*
X103219014Y-71406673D01*
X103208760Y-71392847D01*
X103199911Y-71378083D01*
X103192552Y-71362523D01*
X103186753Y-71346316D01*
X103182570Y-71329619D01*
X103180045Y-71312592D01*
X103179200Y-71295400D01*
X103179200Y-70944600D01*
X103180045Y-70927408D01*
X103182570Y-70910381D01*
X103186753Y-70893684D01*
X103192552Y-70877477D01*
X103199911Y-70861917D01*
X103208760Y-70847153D01*
X103219014Y-70833327D01*
X103230573Y-70820573D01*
X103243327Y-70809014D01*
X103257153Y-70798760D01*
X103271917Y-70789911D01*
X103287477Y-70782552D01*
X103303684Y-70776753D01*
X103320381Y-70772570D01*
X103337408Y-70770045D01*
X103354600Y-70769200D01*
X105055400Y-70769200D01*
X105072592Y-70770045D01*
X105072592Y-70770045D01*
G37*
D15*
X104205000Y-71120000D03*
D13*
G36*
X105072592Y-72040045D02*
G01*
X105089619Y-72042570D01*
X105106316Y-72046753D01*
X105122523Y-72052552D01*
X105138083Y-72059911D01*
X105152847Y-72068760D01*
X105166673Y-72079014D01*
X105179427Y-72090573D01*
X105190986Y-72103327D01*
X105201240Y-72117153D01*
X105210089Y-72131917D01*
X105217448Y-72147477D01*
X105223247Y-72163684D01*
X105227430Y-72180381D01*
X105229955Y-72197408D01*
X105230800Y-72214600D01*
X105230800Y-72565400D01*
X105229955Y-72582592D01*
X105227430Y-72599619D01*
X105223247Y-72616316D01*
X105217448Y-72632523D01*
X105210089Y-72648083D01*
X105201240Y-72662847D01*
X105190986Y-72676673D01*
X105179427Y-72689427D01*
X105166673Y-72700986D01*
X105152847Y-72711240D01*
X105138083Y-72720089D01*
X105122523Y-72727448D01*
X105106316Y-72733247D01*
X105089619Y-72737430D01*
X105072592Y-72739955D01*
X105055400Y-72740800D01*
X103354600Y-72740800D01*
X103337408Y-72739955D01*
X103320381Y-72737430D01*
X103303684Y-72733247D01*
X103287477Y-72727448D01*
X103271917Y-72720089D01*
X103257153Y-72711240D01*
X103243327Y-72700986D01*
X103230573Y-72689427D01*
X103219014Y-72676673D01*
X103208760Y-72662847D01*
X103199911Y-72648083D01*
X103192552Y-72632523D01*
X103186753Y-72616316D01*
X103182570Y-72599619D01*
X103180045Y-72582592D01*
X103179200Y-72565400D01*
X103179200Y-72214600D01*
X103180045Y-72197408D01*
X103182570Y-72180381D01*
X103186753Y-72163684D01*
X103192552Y-72147477D01*
X103199911Y-72131917D01*
X103208760Y-72117153D01*
X103219014Y-72103327D01*
X103230573Y-72090573D01*
X103243327Y-72079014D01*
X103257153Y-72068760D01*
X103271917Y-72059911D01*
X103287477Y-72052552D01*
X103303684Y-72046753D01*
X103320381Y-72042570D01*
X103337408Y-72040045D01*
X103354600Y-72039200D01*
X105055400Y-72039200D01*
X105072592Y-72040045D01*
X105072592Y-72040045D01*
G37*
D15*
X104205000Y-72390000D03*
D13*
G36*
X105072592Y-73310045D02*
G01*
X105089619Y-73312570D01*
X105106316Y-73316753D01*
X105122523Y-73322552D01*
X105138083Y-73329911D01*
X105152847Y-73338760D01*
X105166673Y-73349014D01*
X105179427Y-73360573D01*
X105190986Y-73373327D01*
X105201240Y-73387153D01*
X105210089Y-73401917D01*
X105217448Y-73417477D01*
X105223247Y-73433684D01*
X105227430Y-73450381D01*
X105229955Y-73467408D01*
X105230800Y-73484600D01*
X105230800Y-73835400D01*
X105229955Y-73852592D01*
X105227430Y-73869619D01*
X105223247Y-73886316D01*
X105217448Y-73902523D01*
X105210089Y-73918083D01*
X105201240Y-73932847D01*
X105190986Y-73946673D01*
X105179427Y-73959427D01*
X105166673Y-73970986D01*
X105152847Y-73981240D01*
X105138083Y-73990089D01*
X105122523Y-73997448D01*
X105106316Y-74003247D01*
X105089619Y-74007430D01*
X105072592Y-74009955D01*
X105055400Y-74010800D01*
X103354600Y-74010800D01*
X103337408Y-74009955D01*
X103320381Y-74007430D01*
X103303684Y-74003247D01*
X103287477Y-73997448D01*
X103271917Y-73990089D01*
X103257153Y-73981240D01*
X103243327Y-73970986D01*
X103230573Y-73959427D01*
X103219014Y-73946673D01*
X103208760Y-73932847D01*
X103199911Y-73918083D01*
X103192552Y-73902523D01*
X103186753Y-73886316D01*
X103182570Y-73869619D01*
X103180045Y-73852592D01*
X103179200Y-73835400D01*
X103179200Y-73484600D01*
X103180045Y-73467408D01*
X103182570Y-73450381D01*
X103186753Y-73433684D01*
X103192552Y-73417477D01*
X103199911Y-73401917D01*
X103208760Y-73387153D01*
X103219014Y-73373327D01*
X103230573Y-73360573D01*
X103243327Y-73349014D01*
X103257153Y-73338760D01*
X103271917Y-73329911D01*
X103287477Y-73322552D01*
X103303684Y-73316753D01*
X103320381Y-73312570D01*
X103337408Y-73310045D01*
X103354600Y-73309200D01*
X105055400Y-73309200D01*
X105072592Y-73310045D01*
X105072592Y-73310045D01*
G37*
D15*
X104205000Y-73660000D03*
D13*
G36*
X105072592Y-74580045D02*
G01*
X105089619Y-74582570D01*
X105106316Y-74586753D01*
X105122523Y-74592552D01*
X105138083Y-74599911D01*
X105152847Y-74608760D01*
X105166673Y-74619014D01*
X105179427Y-74630573D01*
X105190986Y-74643327D01*
X105201240Y-74657153D01*
X105210089Y-74671917D01*
X105217448Y-74687477D01*
X105223247Y-74703684D01*
X105227430Y-74720381D01*
X105229955Y-74737408D01*
X105230800Y-74754600D01*
X105230800Y-75105400D01*
X105229955Y-75122592D01*
X105227430Y-75139619D01*
X105223247Y-75156316D01*
X105217448Y-75172523D01*
X105210089Y-75188083D01*
X105201240Y-75202847D01*
X105190986Y-75216673D01*
X105179427Y-75229427D01*
X105166673Y-75240986D01*
X105152847Y-75251240D01*
X105138083Y-75260089D01*
X105122523Y-75267448D01*
X105106316Y-75273247D01*
X105089619Y-75277430D01*
X105072592Y-75279955D01*
X105055400Y-75280800D01*
X103354600Y-75280800D01*
X103337408Y-75279955D01*
X103320381Y-75277430D01*
X103303684Y-75273247D01*
X103287477Y-75267448D01*
X103271917Y-75260089D01*
X103257153Y-75251240D01*
X103243327Y-75240986D01*
X103230573Y-75229427D01*
X103219014Y-75216673D01*
X103208760Y-75202847D01*
X103199911Y-75188083D01*
X103192552Y-75172523D01*
X103186753Y-75156316D01*
X103182570Y-75139619D01*
X103180045Y-75122592D01*
X103179200Y-75105400D01*
X103179200Y-74754600D01*
X103180045Y-74737408D01*
X103182570Y-74720381D01*
X103186753Y-74703684D01*
X103192552Y-74687477D01*
X103199911Y-74671917D01*
X103208760Y-74657153D01*
X103219014Y-74643327D01*
X103230573Y-74630573D01*
X103243327Y-74619014D01*
X103257153Y-74608760D01*
X103271917Y-74599911D01*
X103287477Y-74592552D01*
X103303684Y-74586753D01*
X103320381Y-74582570D01*
X103337408Y-74580045D01*
X103354600Y-74579200D01*
X105055400Y-74579200D01*
X105072592Y-74580045D01*
X105072592Y-74580045D01*
G37*
D15*
X104205000Y-74930000D03*
D13*
G36*
X105072592Y-75850045D02*
G01*
X105089619Y-75852570D01*
X105106316Y-75856753D01*
X105122523Y-75862552D01*
X105138083Y-75869911D01*
X105152847Y-75878760D01*
X105166673Y-75889014D01*
X105179427Y-75900573D01*
X105190986Y-75913327D01*
X105201240Y-75927153D01*
X105210089Y-75941917D01*
X105217448Y-75957477D01*
X105223247Y-75973684D01*
X105227430Y-75990381D01*
X105229955Y-76007408D01*
X105230800Y-76024600D01*
X105230800Y-76375400D01*
X105229955Y-76392592D01*
X105227430Y-76409619D01*
X105223247Y-76426316D01*
X105217448Y-76442523D01*
X105210089Y-76458083D01*
X105201240Y-76472847D01*
X105190986Y-76486673D01*
X105179427Y-76499427D01*
X105166673Y-76510986D01*
X105152847Y-76521240D01*
X105138083Y-76530089D01*
X105122523Y-76537448D01*
X105106316Y-76543247D01*
X105089619Y-76547430D01*
X105072592Y-76549955D01*
X105055400Y-76550800D01*
X103354600Y-76550800D01*
X103337408Y-76549955D01*
X103320381Y-76547430D01*
X103303684Y-76543247D01*
X103287477Y-76537448D01*
X103271917Y-76530089D01*
X103257153Y-76521240D01*
X103243327Y-76510986D01*
X103230573Y-76499427D01*
X103219014Y-76486673D01*
X103208760Y-76472847D01*
X103199911Y-76458083D01*
X103192552Y-76442523D01*
X103186753Y-76426316D01*
X103182570Y-76409619D01*
X103180045Y-76392592D01*
X103179200Y-76375400D01*
X103179200Y-76024600D01*
X103180045Y-76007408D01*
X103182570Y-75990381D01*
X103186753Y-75973684D01*
X103192552Y-75957477D01*
X103199911Y-75941917D01*
X103208760Y-75927153D01*
X103219014Y-75913327D01*
X103230573Y-75900573D01*
X103243327Y-75889014D01*
X103257153Y-75878760D01*
X103271917Y-75869911D01*
X103287477Y-75862552D01*
X103303684Y-75856753D01*
X103320381Y-75852570D01*
X103337408Y-75850045D01*
X103354600Y-75849200D01*
X105055400Y-75849200D01*
X105072592Y-75850045D01*
X105072592Y-75850045D01*
G37*
D15*
X104205000Y-76200000D03*
D13*
G36*
X110022592Y-75850045D02*
G01*
X110039619Y-75852570D01*
X110056316Y-75856753D01*
X110072523Y-75862552D01*
X110088083Y-75869911D01*
X110102847Y-75878760D01*
X110116673Y-75889014D01*
X110129427Y-75900573D01*
X110140986Y-75913327D01*
X110151240Y-75927153D01*
X110160089Y-75941917D01*
X110167448Y-75957477D01*
X110173247Y-75973684D01*
X110177430Y-75990381D01*
X110179955Y-76007408D01*
X110180800Y-76024600D01*
X110180800Y-76375400D01*
X110179955Y-76392592D01*
X110177430Y-76409619D01*
X110173247Y-76426316D01*
X110167448Y-76442523D01*
X110160089Y-76458083D01*
X110151240Y-76472847D01*
X110140986Y-76486673D01*
X110129427Y-76499427D01*
X110116673Y-76510986D01*
X110102847Y-76521240D01*
X110088083Y-76530089D01*
X110072523Y-76537448D01*
X110056316Y-76543247D01*
X110039619Y-76547430D01*
X110022592Y-76549955D01*
X110005400Y-76550800D01*
X108304600Y-76550800D01*
X108287408Y-76549955D01*
X108270381Y-76547430D01*
X108253684Y-76543247D01*
X108237477Y-76537448D01*
X108221917Y-76530089D01*
X108207153Y-76521240D01*
X108193327Y-76510986D01*
X108180573Y-76499427D01*
X108169014Y-76486673D01*
X108158760Y-76472847D01*
X108149911Y-76458083D01*
X108142552Y-76442523D01*
X108136753Y-76426316D01*
X108132570Y-76409619D01*
X108130045Y-76392592D01*
X108129200Y-76375400D01*
X108129200Y-76024600D01*
X108130045Y-76007408D01*
X108132570Y-75990381D01*
X108136753Y-75973684D01*
X108142552Y-75957477D01*
X108149911Y-75941917D01*
X108158760Y-75927153D01*
X108169014Y-75913327D01*
X108180573Y-75900573D01*
X108193327Y-75889014D01*
X108207153Y-75878760D01*
X108221917Y-75869911D01*
X108237477Y-75862552D01*
X108253684Y-75856753D01*
X108270381Y-75852570D01*
X108287408Y-75850045D01*
X108304600Y-75849200D01*
X110005400Y-75849200D01*
X110022592Y-75850045D01*
X110022592Y-75850045D01*
G37*
D15*
X109155000Y-76200000D03*
D13*
G36*
X110022592Y-74580045D02*
G01*
X110039619Y-74582570D01*
X110056316Y-74586753D01*
X110072523Y-74592552D01*
X110088083Y-74599911D01*
X110102847Y-74608760D01*
X110116673Y-74619014D01*
X110129427Y-74630573D01*
X110140986Y-74643327D01*
X110151240Y-74657153D01*
X110160089Y-74671917D01*
X110167448Y-74687477D01*
X110173247Y-74703684D01*
X110177430Y-74720381D01*
X110179955Y-74737408D01*
X110180800Y-74754600D01*
X110180800Y-75105400D01*
X110179955Y-75122592D01*
X110177430Y-75139619D01*
X110173247Y-75156316D01*
X110167448Y-75172523D01*
X110160089Y-75188083D01*
X110151240Y-75202847D01*
X110140986Y-75216673D01*
X110129427Y-75229427D01*
X110116673Y-75240986D01*
X110102847Y-75251240D01*
X110088083Y-75260089D01*
X110072523Y-75267448D01*
X110056316Y-75273247D01*
X110039619Y-75277430D01*
X110022592Y-75279955D01*
X110005400Y-75280800D01*
X108304600Y-75280800D01*
X108287408Y-75279955D01*
X108270381Y-75277430D01*
X108253684Y-75273247D01*
X108237477Y-75267448D01*
X108221917Y-75260089D01*
X108207153Y-75251240D01*
X108193327Y-75240986D01*
X108180573Y-75229427D01*
X108169014Y-75216673D01*
X108158760Y-75202847D01*
X108149911Y-75188083D01*
X108142552Y-75172523D01*
X108136753Y-75156316D01*
X108132570Y-75139619D01*
X108130045Y-75122592D01*
X108129200Y-75105400D01*
X108129200Y-74754600D01*
X108130045Y-74737408D01*
X108132570Y-74720381D01*
X108136753Y-74703684D01*
X108142552Y-74687477D01*
X108149911Y-74671917D01*
X108158760Y-74657153D01*
X108169014Y-74643327D01*
X108180573Y-74630573D01*
X108193327Y-74619014D01*
X108207153Y-74608760D01*
X108221917Y-74599911D01*
X108237477Y-74592552D01*
X108253684Y-74586753D01*
X108270381Y-74582570D01*
X108287408Y-74580045D01*
X108304600Y-74579200D01*
X110005400Y-74579200D01*
X110022592Y-74580045D01*
X110022592Y-74580045D01*
G37*
D15*
X109155000Y-74930000D03*
D13*
G36*
X110022592Y-73310045D02*
G01*
X110039619Y-73312570D01*
X110056316Y-73316753D01*
X110072523Y-73322552D01*
X110088083Y-73329911D01*
X110102847Y-73338760D01*
X110116673Y-73349014D01*
X110129427Y-73360573D01*
X110140986Y-73373327D01*
X110151240Y-73387153D01*
X110160089Y-73401917D01*
X110167448Y-73417477D01*
X110173247Y-73433684D01*
X110177430Y-73450381D01*
X110179955Y-73467408D01*
X110180800Y-73484600D01*
X110180800Y-73835400D01*
X110179955Y-73852592D01*
X110177430Y-73869619D01*
X110173247Y-73886316D01*
X110167448Y-73902523D01*
X110160089Y-73918083D01*
X110151240Y-73932847D01*
X110140986Y-73946673D01*
X110129427Y-73959427D01*
X110116673Y-73970986D01*
X110102847Y-73981240D01*
X110088083Y-73990089D01*
X110072523Y-73997448D01*
X110056316Y-74003247D01*
X110039619Y-74007430D01*
X110022592Y-74009955D01*
X110005400Y-74010800D01*
X108304600Y-74010800D01*
X108287408Y-74009955D01*
X108270381Y-74007430D01*
X108253684Y-74003247D01*
X108237477Y-73997448D01*
X108221917Y-73990089D01*
X108207153Y-73981240D01*
X108193327Y-73970986D01*
X108180573Y-73959427D01*
X108169014Y-73946673D01*
X108158760Y-73932847D01*
X108149911Y-73918083D01*
X108142552Y-73902523D01*
X108136753Y-73886316D01*
X108132570Y-73869619D01*
X108130045Y-73852592D01*
X108129200Y-73835400D01*
X108129200Y-73484600D01*
X108130045Y-73467408D01*
X108132570Y-73450381D01*
X108136753Y-73433684D01*
X108142552Y-73417477D01*
X108149911Y-73401917D01*
X108158760Y-73387153D01*
X108169014Y-73373327D01*
X108180573Y-73360573D01*
X108193327Y-73349014D01*
X108207153Y-73338760D01*
X108221917Y-73329911D01*
X108237477Y-73322552D01*
X108253684Y-73316753D01*
X108270381Y-73312570D01*
X108287408Y-73310045D01*
X108304600Y-73309200D01*
X110005400Y-73309200D01*
X110022592Y-73310045D01*
X110022592Y-73310045D01*
G37*
D15*
X109155000Y-73660000D03*
D13*
G36*
X110022592Y-72040045D02*
G01*
X110039619Y-72042570D01*
X110056316Y-72046753D01*
X110072523Y-72052552D01*
X110088083Y-72059911D01*
X110102847Y-72068760D01*
X110116673Y-72079014D01*
X110129427Y-72090573D01*
X110140986Y-72103327D01*
X110151240Y-72117153D01*
X110160089Y-72131917D01*
X110167448Y-72147477D01*
X110173247Y-72163684D01*
X110177430Y-72180381D01*
X110179955Y-72197408D01*
X110180800Y-72214600D01*
X110180800Y-72565400D01*
X110179955Y-72582592D01*
X110177430Y-72599619D01*
X110173247Y-72616316D01*
X110167448Y-72632523D01*
X110160089Y-72648083D01*
X110151240Y-72662847D01*
X110140986Y-72676673D01*
X110129427Y-72689427D01*
X110116673Y-72700986D01*
X110102847Y-72711240D01*
X110088083Y-72720089D01*
X110072523Y-72727448D01*
X110056316Y-72733247D01*
X110039619Y-72737430D01*
X110022592Y-72739955D01*
X110005400Y-72740800D01*
X108304600Y-72740800D01*
X108287408Y-72739955D01*
X108270381Y-72737430D01*
X108253684Y-72733247D01*
X108237477Y-72727448D01*
X108221917Y-72720089D01*
X108207153Y-72711240D01*
X108193327Y-72700986D01*
X108180573Y-72689427D01*
X108169014Y-72676673D01*
X108158760Y-72662847D01*
X108149911Y-72648083D01*
X108142552Y-72632523D01*
X108136753Y-72616316D01*
X108132570Y-72599619D01*
X108130045Y-72582592D01*
X108129200Y-72565400D01*
X108129200Y-72214600D01*
X108130045Y-72197408D01*
X108132570Y-72180381D01*
X108136753Y-72163684D01*
X108142552Y-72147477D01*
X108149911Y-72131917D01*
X108158760Y-72117153D01*
X108169014Y-72103327D01*
X108180573Y-72090573D01*
X108193327Y-72079014D01*
X108207153Y-72068760D01*
X108221917Y-72059911D01*
X108237477Y-72052552D01*
X108253684Y-72046753D01*
X108270381Y-72042570D01*
X108287408Y-72040045D01*
X108304600Y-72039200D01*
X110005400Y-72039200D01*
X110022592Y-72040045D01*
X110022592Y-72040045D01*
G37*
D15*
X109155000Y-72390000D03*
D13*
G36*
X110022592Y-70770045D02*
G01*
X110039619Y-70772570D01*
X110056316Y-70776753D01*
X110072523Y-70782552D01*
X110088083Y-70789911D01*
X110102847Y-70798760D01*
X110116673Y-70809014D01*
X110129427Y-70820573D01*
X110140986Y-70833327D01*
X110151240Y-70847153D01*
X110160089Y-70861917D01*
X110167448Y-70877477D01*
X110173247Y-70893684D01*
X110177430Y-70910381D01*
X110179955Y-70927408D01*
X110180800Y-70944600D01*
X110180800Y-71295400D01*
X110179955Y-71312592D01*
X110177430Y-71329619D01*
X110173247Y-71346316D01*
X110167448Y-71362523D01*
X110160089Y-71378083D01*
X110151240Y-71392847D01*
X110140986Y-71406673D01*
X110129427Y-71419427D01*
X110116673Y-71430986D01*
X110102847Y-71441240D01*
X110088083Y-71450089D01*
X110072523Y-71457448D01*
X110056316Y-71463247D01*
X110039619Y-71467430D01*
X110022592Y-71469955D01*
X110005400Y-71470800D01*
X108304600Y-71470800D01*
X108287408Y-71469955D01*
X108270381Y-71467430D01*
X108253684Y-71463247D01*
X108237477Y-71457448D01*
X108221917Y-71450089D01*
X108207153Y-71441240D01*
X108193327Y-71430986D01*
X108180573Y-71419427D01*
X108169014Y-71406673D01*
X108158760Y-71392847D01*
X108149911Y-71378083D01*
X108142552Y-71362523D01*
X108136753Y-71346316D01*
X108132570Y-71329619D01*
X108130045Y-71312592D01*
X108129200Y-71295400D01*
X108129200Y-70944600D01*
X108130045Y-70927408D01*
X108132570Y-70910381D01*
X108136753Y-70893684D01*
X108142552Y-70877477D01*
X108149911Y-70861917D01*
X108158760Y-70847153D01*
X108169014Y-70833327D01*
X108180573Y-70820573D01*
X108193327Y-70809014D01*
X108207153Y-70798760D01*
X108221917Y-70789911D01*
X108237477Y-70782552D01*
X108253684Y-70776753D01*
X108270381Y-70772570D01*
X108287408Y-70770045D01*
X108304600Y-70769200D01*
X110005400Y-70769200D01*
X110022592Y-70770045D01*
X110022592Y-70770045D01*
G37*
D15*
X109155000Y-71120000D03*
D13*
G36*
X110022592Y-69500045D02*
G01*
X110039619Y-69502570D01*
X110056316Y-69506753D01*
X110072523Y-69512552D01*
X110088083Y-69519911D01*
X110102847Y-69528760D01*
X110116673Y-69539014D01*
X110129427Y-69550573D01*
X110140986Y-69563327D01*
X110151240Y-69577153D01*
X110160089Y-69591917D01*
X110167448Y-69607477D01*
X110173247Y-69623684D01*
X110177430Y-69640381D01*
X110179955Y-69657408D01*
X110180800Y-69674600D01*
X110180800Y-70025400D01*
X110179955Y-70042592D01*
X110177430Y-70059619D01*
X110173247Y-70076316D01*
X110167448Y-70092523D01*
X110160089Y-70108083D01*
X110151240Y-70122847D01*
X110140986Y-70136673D01*
X110129427Y-70149427D01*
X110116673Y-70160986D01*
X110102847Y-70171240D01*
X110088083Y-70180089D01*
X110072523Y-70187448D01*
X110056316Y-70193247D01*
X110039619Y-70197430D01*
X110022592Y-70199955D01*
X110005400Y-70200800D01*
X108304600Y-70200800D01*
X108287408Y-70199955D01*
X108270381Y-70197430D01*
X108253684Y-70193247D01*
X108237477Y-70187448D01*
X108221917Y-70180089D01*
X108207153Y-70171240D01*
X108193327Y-70160986D01*
X108180573Y-70149427D01*
X108169014Y-70136673D01*
X108158760Y-70122847D01*
X108149911Y-70108083D01*
X108142552Y-70092523D01*
X108136753Y-70076316D01*
X108132570Y-70059619D01*
X108130045Y-70042592D01*
X108129200Y-70025400D01*
X108129200Y-69674600D01*
X108130045Y-69657408D01*
X108132570Y-69640381D01*
X108136753Y-69623684D01*
X108142552Y-69607477D01*
X108149911Y-69591917D01*
X108158760Y-69577153D01*
X108169014Y-69563327D01*
X108180573Y-69550573D01*
X108193327Y-69539014D01*
X108207153Y-69528760D01*
X108221917Y-69519911D01*
X108237477Y-69512552D01*
X108253684Y-69506753D01*
X108270381Y-69502570D01*
X108287408Y-69500045D01*
X108304600Y-69499200D01*
X110005400Y-69499200D01*
X110022592Y-69500045D01*
X110022592Y-69500045D01*
G37*
D15*
X109155000Y-69850000D03*
D13*
G36*
X110022592Y-68230045D02*
G01*
X110039619Y-68232570D01*
X110056316Y-68236753D01*
X110072523Y-68242552D01*
X110088083Y-68249911D01*
X110102847Y-68258760D01*
X110116673Y-68269014D01*
X110129427Y-68280573D01*
X110140986Y-68293327D01*
X110151240Y-68307153D01*
X110160089Y-68321917D01*
X110167448Y-68337477D01*
X110173247Y-68353684D01*
X110177430Y-68370381D01*
X110179955Y-68387408D01*
X110180800Y-68404600D01*
X110180800Y-68755400D01*
X110179955Y-68772592D01*
X110177430Y-68789619D01*
X110173247Y-68806316D01*
X110167448Y-68822523D01*
X110160089Y-68838083D01*
X110151240Y-68852847D01*
X110140986Y-68866673D01*
X110129427Y-68879427D01*
X110116673Y-68890986D01*
X110102847Y-68901240D01*
X110088083Y-68910089D01*
X110072523Y-68917448D01*
X110056316Y-68923247D01*
X110039619Y-68927430D01*
X110022592Y-68929955D01*
X110005400Y-68930800D01*
X108304600Y-68930800D01*
X108287408Y-68929955D01*
X108270381Y-68927430D01*
X108253684Y-68923247D01*
X108237477Y-68917448D01*
X108221917Y-68910089D01*
X108207153Y-68901240D01*
X108193327Y-68890986D01*
X108180573Y-68879427D01*
X108169014Y-68866673D01*
X108158760Y-68852847D01*
X108149911Y-68838083D01*
X108142552Y-68822523D01*
X108136753Y-68806316D01*
X108132570Y-68789619D01*
X108130045Y-68772592D01*
X108129200Y-68755400D01*
X108129200Y-68404600D01*
X108130045Y-68387408D01*
X108132570Y-68370381D01*
X108136753Y-68353684D01*
X108142552Y-68337477D01*
X108149911Y-68321917D01*
X108158760Y-68307153D01*
X108169014Y-68293327D01*
X108180573Y-68280573D01*
X108193327Y-68269014D01*
X108207153Y-68258760D01*
X108221917Y-68249911D01*
X108237477Y-68242552D01*
X108253684Y-68236753D01*
X108270381Y-68232570D01*
X108287408Y-68230045D01*
X108304600Y-68229200D01*
X110005400Y-68229200D01*
X110022592Y-68230045D01*
X110022592Y-68230045D01*
G37*
D15*
X109155000Y-68580000D03*
D16*
X104140000Y-58420000D03*
D17*
X104140000Y-55880000D03*
X106680000Y-58420000D03*
X106680000Y-55880000D03*
X109220000Y-58420000D03*
X109220000Y-55880000D03*
D13*
G36*
X108048669Y-79485466D02*
G01*
X108074189Y-79489252D01*
X108099216Y-79495520D01*
X108123507Y-79504212D01*
X108146830Y-79515243D01*
X108168959Y-79528507D01*
X108189682Y-79543876D01*
X108208798Y-79561202D01*
X108226124Y-79580318D01*
X108241493Y-79601041D01*
X108254757Y-79623170D01*
X108265788Y-79646493D01*
X108274480Y-79670784D01*
X108280748Y-79695811D01*
X108284534Y-79721331D01*
X108285800Y-79747100D01*
X108285800Y-80272900D01*
X108284534Y-80298669D01*
X108280748Y-80324189D01*
X108274480Y-80349216D01*
X108265788Y-80373507D01*
X108254757Y-80396830D01*
X108241493Y-80418959D01*
X108226124Y-80439682D01*
X108208798Y-80458798D01*
X108189682Y-80476124D01*
X108168959Y-80491493D01*
X108146830Y-80504757D01*
X108123507Y-80515788D01*
X108099216Y-80524480D01*
X108074189Y-80530748D01*
X108048669Y-80534534D01*
X108022900Y-80535800D01*
X107397100Y-80535800D01*
X107371331Y-80534534D01*
X107345811Y-80530748D01*
X107320784Y-80524480D01*
X107296493Y-80515788D01*
X107273170Y-80504757D01*
X107251041Y-80491493D01*
X107230318Y-80476124D01*
X107211202Y-80458798D01*
X107193876Y-80439682D01*
X107178507Y-80418959D01*
X107165243Y-80396830D01*
X107154212Y-80373507D01*
X107145520Y-80349216D01*
X107139252Y-80324189D01*
X107135466Y-80298669D01*
X107134200Y-80272900D01*
X107134200Y-79747100D01*
X107135466Y-79721331D01*
X107139252Y-79695811D01*
X107145520Y-79670784D01*
X107154212Y-79646493D01*
X107165243Y-79623170D01*
X107178507Y-79601041D01*
X107193876Y-79580318D01*
X107211202Y-79561202D01*
X107230318Y-79543876D01*
X107251041Y-79528507D01*
X107273170Y-79515243D01*
X107296493Y-79504212D01*
X107320784Y-79495520D01*
X107345811Y-79489252D01*
X107371331Y-79485466D01*
X107397100Y-79484200D01*
X108022900Y-79484200D01*
X108048669Y-79485466D01*
X108048669Y-79485466D01*
G37*
D14*
X107710000Y-80010000D03*
D13*
G36*
X109798669Y-79485466D02*
G01*
X109824189Y-79489252D01*
X109849216Y-79495520D01*
X109873507Y-79504212D01*
X109896830Y-79515243D01*
X109918959Y-79528507D01*
X109939682Y-79543876D01*
X109958798Y-79561202D01*
X109976124Y-79580318D01*
X109991493Y-79601041D01*
X110004757Y-79623170D01*
X110015788Y-79646493D01*
X110024480Y-79670784D01*
X110030748Y-79695811D01*
X110034534Y-79721331D01*
X110035800Y-79747100D01*
X110035800Y-80272900D01*
X110034534Y-80298669D01*
X110030748Y-80324189D01*
X110024480Y-80349216D01*
X110015788Y-80373507D01*
X110004757Y-80396830D01*
X109991493Y-80418959D01*
X109976124Y-80439682D01*
X109958798Y-80458798D01*
X109939682Y-80476124D01*
X109918959Y-80491493D01*
X109896830Y-80504757D01*
X109873507Y-80515788D01*
X109849216Y-80524480D01*
X109824189Y-80530748D01*
X109798669Y-80534534D01*
X109772900Y-80535800D01*
X109147100Y-80535800D01*
X109121331Y-80534534D01*
X109095811Y-80530748D01*
X109070784Y-80524480D01*
X109046493Y-80515788D01*
X109023170Y-80504757D01*
X109001041Y-80491493D01*
X108980318Y-80476124D01*
X108961202Y-80458798D01*
X108943876Y-80439682D01*
X108928507Y-80418959D01*
X108915243Y-80396830D01*
X108904212Y-80373507D01*
X108895520Y-80349216D01*
X108889252Y-80324189D01*
X108885466Y-80298669D01*
X108884200Y-80272900D01*
X108884200Y-79747100D01*
X108885466Y-79721331D01*
X108889252Y-79695811D01*
X108895520Y-79670784D01*
X108904212Y-79646493D01*
X108915243Y-79623170D01*
X108928507Y-79601041D01*
X108943876Y-79580318D01*
X108961202Y-79561202D01*
X108980318Y-79543876D01*
X109001041Y-79528507D01*
X109023170Y-79515243D01*
X109046493Y-79504212D01*
X109070784Y-79495520D01*
X109095811Y-79489252D01*
X109121331Y-79485466D01*
X109147100Y-79484200D01*
X109772900Y-79484200D01*
X109798669Y-79485466D01*
X109798669Y-79485466D01*
G37*
D14*
X109460000Y-80010000D03*
D13*
G36*
X107893669Y-65515466D02*
G01*
X107919189Y-65519252D01*
X107944216Y-65525520D01*
X107968507Y-65534212D01*
X107991830Y-65545243D01*
X108013959Y-65558507D01*
X108034682Y-65573876D01*
X108053798Y-65591202D01*
X108071124Y-65610318D01*
X108086493Y-65631041D01*
X108099757Y-65653170D01*
X108110788Y-65676493D01*
X108119480Y-65700784D01*
X108125748Y-65725811D01*
X108129534Y-65751331D01*
X108130800Y-65777100D01*
X108130800Y-66302900D01*
X108129534Y-66328669D01*
X108125748Y-66354189D01*
X108119480Y-66379216D01*
X108110788Y-66403507D01*
X108099757Y-66426830D01*
X108086493Y-66448959D01*
X108071124Y-66469682D01*
X108053798Y-66488798D01*
X108034682Y-66506124D01*
X108013959Y-66521493D01*
X107991830Y-66534757D01*
X107968507Y-66545788D01*
X107944216Y-66554480D01*
X107919189Y-66560748D01*
X107893669Y-66564534D01*
X107867900Y-66565800D01*
X107242100Y-66565800D01*
X107216331Y-66564534D01*
X107190811Y-66560748D01*
X107165784Y-66554480D01*
X107141493Y-66545788D01*
X107118170Y-66534757D01*
X107096041Y-66521493D01*
X107075318Y-66506124D01*
X107056202Y-66488798D01*
X107038876Y-66469682D01*
X107023507Y-66448959D01*
X107010243Y-66426830D01*
X106999212Y-66403507D01*
X106990520Y-66379216D01*
X106984252Y-66354189D01*
X106980466Y-66328669D01*
X106979200Y-66302900D01*
X106979200Y-65777100D01*
X106980466Y-65751331D01*
X106984252Y-65725811D01*
X106990520Y-65700784D01*
X106999212Y-65676493D01*
X107010243Y-65653170D01*
X107023507Y-65631041D01*
X107038876Y-65610318D01*
X107056202Y-65591202D01*
X107075318Y-65573876D01*
X107096041Y-65558507D01*
X107118170Y-65545243D01*
X107141493Y-65534212D01*
X107165784Y-65525520D01*
X107190811Y-65519252D01*
X107216331Y-65515466D01*
X107242100Y-65514200D01*
X107867900Y-65514200D01*
X107893669Y-65515466D01*
X107893669Y-65515466D01*
G37*
D14*
X107555000Y-66040000D03*
D13*
G36*
X106143669Y-65515466D02*
G01*
X106169189Y-65519252D01*
X106194216Y-65525520D01*
X106218507Y-65534212D01*
X106241830Y-65545243D01*
X106263959Y-65558507D01*
X106284682Y-65573876D01*
X106303798Y-65591202D01*
X106321124Y-65610318D01*
X106336493Y-65631041D01*
X106349757Y-65653170D01*
X106360788Y-65676493D01*
X106369480Y-65700784D01*
X106375748Y-65725811D01*
X106379534Y-65751331D01*
X106380800Y-65777100D01*
X106380800Y-66302900D01*
X106379534Y-66328669D01*
X106375748Y-66354189D01*
X106369480Y-66379216D01*
X106360788Y-66403507D01*
X106349757Y-66426830D01*
X106336493Y-66448959D01*
X106321124Y-66469682D01*
X106303798Y-66488798D01*
X106284682Y-66506124D01*
X106263959Y-66521493D01*
X106241830Y-66534757D01*
X106218507Y-66545788D01*
X106194216Y-66554480D01*
X106169189Y-66560748D01*
X106143669Y-66564534D01*
X106117900Y-66565800D01*
X105492100Y-66565800D01*
X105466331Y-66564534D01*
X105440811Y-66560748D01*
X105415784Y-66554480D01*
X105391493Y-66545788D01*
X105368170Y-66534757D01*
X105346041Y-66521493D01*
X105325318Y-66506124D01*
X105306202Y-66488798D01*
X105288876Y-66469682D01*
X105273507Y-66448959D01*
X105260243Y-66426830D01*
X105249212Y-66403507D01*
X105240520Y-66379216D01*
X105234252Y-66354189D01*
X105230466Y-66328669D01*
X105229200Y-66302900D01*
X105229200Y-65777100D01*
X105230466Y-65751331D01*
X105234252Y-65725811D01*
X105240520Y-65700784D01*
X105249212Y-65676493D01*
X105260243Y-65653170D01*
X105273507Y-65631041D01*
X105288876Y-65610318D01*
X105306202Y-65591202D01*
X105325318Y-65573876D01*
X105346041Y-65558507D01*
X105368170Y-65545243D01*
X105391493Y-65534212D01*
X105415784Y-65525520D01*
X105440811Y-65519252D01*
X105466331Y-65515466D01*
X105492100Y-65514200D01*
X106117900Y-65514200D01*
X106143669Y-65515466D01*
X106143669Y-65515466D01*
G37*
D14*
X105805000Y-66040000D03*
D13*
G36*
X104238669Y-79485466D02*
G01*
X104264189Y-79489252D01*
X104289216Y-79495520D01*
X104313507Y-79504212D01*
X104336830Y-79515243D01*
X104358959Y-79528507D01*
X104379682Y-79543876D01*
X104398798Y-79561202D01*
X104416124Y-79580318D01*
X104431493Y-79601041D01*
X104444757Y-79623170D01*
X104455788Y-79646493D01*
X104464480Y-79670784D01*
X104470748Y-79695811D01*
X104474534Y-79721331D01*
X104475800Y-79747100D01*
X104475800Y-80272900D01*
X104474534Y-80298669D01*
X104470748Y-80324189D01*
X104464480Y-80349216D01*
X104455788Y-80373507D01*
X104444757Y-80396830D01*
X104431493Y-80418959D01*
X104416124Y-80439682D01*
X104398798Y-80458798D01*
X104379682Y-80476124D01*
X104358959Y-80491493D01*
X104336830Y-80504757D01*
X104313507Y-80515788D01*
X104289216Y-80524480D01*
X104264189Y-80530748D01*
X104238669Y-80534534D01*
X104212900Y-80535800D01*
X103587100Y-80535800D01*
X103561331Y-80534534D01*
X103535811Y-80530748D01*
X103510784Y-80524480D01*
X103486493Y-80515788D01*
X103463170Y-80504757D01*
X103441041Y-80491493D01*
X103420318Y-80476124D01*
X103401202Y-80458798D01*
X103383876Y-80439682D01*
X103368507Y-80418959D01*
X103355243Y-80396830D01*
X103344212Y-80373507D01*
X103335520Y-80349216D01*
X103329252Y-80324189D01*
X103325466Y-80298669D01*
X103324200Y-80272900D01*
X103324200Y-79747100D01*
X103325466Y-79721331D01*
X103329252Y-79695811D01*
X103335520Y-79670784D01*
X103344212Y-79646493D01*
X103355243Y-79623170D01*
X103368507Y-79601041D01*
X103383876Y-79580318D01*
X103401202Y-79561202D01*
X103420318Y-79543876D01*
X103441041Y-79528507D01*
X103463170Y-79515243D01*
X103486493Y-79504212D01*
X103510784Y-79495520D01*
X103535811Y-79489252D01*
X103561331Y-79485466D01*
X103587100Y-79484200D01*
X104212900Y-79484200D01*
X104238669Y-79485466D01*
X104238669Y-79485466D01*
G37*
D14*
X103900000Y-80010000D03*
D13*
G36*
X105988669Y-79485466D02*
G01*
X106014189Y-79489252D01*
X106039216Y-79495520D01*
X106063507Y-79504212D01*
X106086830Y-79515243D01*
X106108959Y-79528507D01*
X106129682Y-79543876D01*
X106148798Y-79561202D01*
X106166124Y-79580318D01*
X106181493Y-79601041D01*
X106194757Y-79623170D01*
X106205788Y-79646493D01*
X106214480Y-79670784D01*
X106220748Y-79695811D01*
X106224534Y-79721331D01*
X106225800Y-79747100D01*
X106225800Y-80272900D01*
X106224534Y-80298669D01*
X106220748Y-80324189D01*
X106214480Y-80349216D01*
X106205788Y-80373507D01*
X106194757Y-80396830D01*
X106181493Y-80418959D01*
X106166124Y-80439682D01*
X106148798Y-80458798D01*
X106129682Y-80476124D01*
X106108959Y-80491493D01*
X106086830Y-80504757D01*
X106063507Y-80515788D01*
X106039216Y-80524480D01*
X106014189Y-80530748D01*
X105988669Y-80534534D01*
X105962900Y-80535800D01*
X105337100Y-80535800D01*
X105311331Y-80534534D01*
X105285811Y-80530748D01*
X105260784Y-80524480D01*
X105236493Y-80515788D01*
X105213170Y-80504757D01*
X105191041Y-80491493D01*
X105170318Y-80476124D01*
X105151202Y-80458798D01*
X105133876Y-80439682D01*
X105118507Y-80418959D01*
X105105243Y-80396830D01*
X105094212Y-80373507D01*
X105085520Y-80349216D01*
X105079252Y-80324189D01*
X105075466Y-80298669D01*
X105074200Y-80272900D01*
X105074200Y-79747100D01*
X105075466Y-79721331D01*
X105079252Y-79695811D01*
X105085520Y-79670784D01*
X105094212Y-79646493D01*
X105105243Y-79623170D01*
X105118507Y-79601041D01*
X105133876Y-79580318D01*
X105151202Y-79561202D01*
X105170318Y-79543876D01*
X105191041Y-79528507D01*
X105213170Y-79515243D01*
X105236493Y-79504212D01*
X105260784Y-79495520D01*
X105285811Y-79489252D01*
X105311331Y-79485466D01*
X105337100Y-79484200D01*
X105962900Y-79484200D01*
X105988669Y-79485466D01*
X105988669Y-79485466D01*
G37*
D14*
X105650000Y-80010000D03*
D13*
G36*
X106968669Y-89200466D02*
G01*
X106994189Y-89204252D01*
X107019216Y-89210520D01*
X107043507Y-89219212D01*
X107066830Y-89230243D01*
X107088959Y-89243507D01*
X107109682Y-89258876D01*
X107128798Y-89276202D01*
X107146124Y-89295318D01*
X107161493Y-89316041D01*
X107174757Y-89338170D01*
X107185788Y-89361493D01*
X107194480Y-89385784D01*
X107200748Y-89410811D01*
X107204534Y-89436331D01*
X107205800Y-89462100D01*
X107205800Y-90087900D01*
X107204534Y-90113669D01*
X107200748Y-90139189D01*
X107194480Y-90164216D01*
X107185788Y-90188507D01*
X107174757Y-90211830D01*
X107161493Y-90233959D01*
X107146124Y-90254682D01*
X107128798Y-90273798D01*
X107109682Y-90291124D01*
X107088959Y-90306493D01*
X107066830Y-90319757D01*
X107043507Y-90330788D01*
X107019216Y-90339480D01*
X106994189Y-90345748D01*
X106968669Y-90349534D01*
X106942900Y-90350800D01*
X106417100Y-90350800D01*
X106391331Y-90349534D01*
X106365811Y-90345748D01*
X106340784Y-90339480D01*
X106316493Y-90330788D01*
X106293170Y-90319757D01*
X106271041Y-90306493D01*
X106250318Y-90291124D01*
X106231202Y-90273798D01*
X106213876Y-90254682D01*
X106198507Y-90233959D01*
X106185243Y-90211830D01*
X106174212Y-90188507D01*
X106165520Y-90164216D01*
X106159252Y-90139189D01*
X106155466Y-90113669D01*
X106154200Y-90087900D01*
X106154200Y-89462100D01*
X106155466Y-89436331D01*
X106159252Y-89410811D01*
X106165520Y-89385784D01*
X106174212Y-89361493D01*
X106185243Y-89338170D01*
X106198507Y-89316041D01*
X106213876Y-89295318D01*
X106231202Y-89276202D01*
X106250318Y-89258876D01*
X106271041Y-89243507D01*
X106293170Y-89230243D01*
X106316493Y-89219212D01*
X106340784Y-89210520D01*
X106365811Y-89204252D01*
X106391331Y-89200466D01*
X106417100Y-89199200D01*
X106942900Y-89199200D01*
X106968669Y-89200466D01*
X106968669Y-89200466D01*
G37*
D14*
X106680000Y-89775000D03*
D13*
G36*
X106968669Y-87450466D02*
G01*
X106994189Y-87454252D01*
X107019216Y-87460520D01*
X107043507Y-87469212D01*
X107066830Y-87480243D01*
X107088959Y-87493507D01*
X107109682Y-87508876D01*
X107128798Y-87526202D01*
X107146124Y-87545318D01*
X107161493Y-87566041D01*
X107174757Y-87588170D01*
X107185788Y-87611493D01*
X107194480Y-87635784D01*
X107200748Y-87660811D01*
X107204534Y-87686331D01*
X107205800Y-87712100D01*
X107205800Y-88337900D01*
X107204534Y-88363669D01*
X107200748Y-88389189D01*
X107194480Y-88414216D01*
X107185788Y-88438507D01*
X107174757Y-88461830D01*
X107161493Y-88483959D01*
X107146124Y-88504682D01*
X107128798Y-88523798D01*
X107109682Y-88541124D01*
X107088959Y-88556493D01*
X107066830Y-88569757D01*
X107043507Y-88580788D01*
X107019216Y-88589480D01*
X106994189Y-88595748D01*
X106968669Y-88599534D01*
X106942900Y-88600800D01*
X106417100Y-88600800D01*
X106391331Y-88599534D01*
X106365811Y-88595748D01*
X106340784Y-88589480D01*
X106316493Y-88580788D01*
X106293170Y-88569757D01*
X106271041Y-88556493D01*
X106250318Y-88541124D01*
X106231202Y-88523798D01*
X106213876Y-88504682D01*
X106198507Y-88483959D01*
X106185243Y-88461830D01*
X106174212Y-88438507D01*
X106165520Y-88414216D01*
X106159252Y-88389189D01*
X106155466Y-88363669D01*
X106154200Y-88337900D01*
X106154200Y-87712100D01*
X106155466Y-87686331D01*
X106159252Y-87660811D01*
X106165520Y-87635784D01*
X106174212Y-87611493D01*
X106185243Y-87588170D01*
X106198507Y-87566041D01*
X106213876Y-87545318D01*
X106231202Y-87526202D01*
X106250318Y-87508876D01*
X106271041Y-87493507D01*
X106293170Y-87480243D01*
X106316493Y-87469212D01*
X106340784Y-87460520D01*
X106365811Y-87454252D01*
X106391331Y-87450466D01*
X106417100Y-87449200D01*
X106942900Y-87449200D01*
X106968669Y-87450466D01*
X106968669Y-87450466D01*
G37*
D14*
X106680000Y-88025000D03*
D13*
G36*
X106143669Y-61705466D02*
G01*
X106169189Y-61709252D01*
X106194216Y-61715520D01*
X106218507Y-61724212D01*
X106241830Y-61735243D01*
X106263959Y-61748507D01*
X106284682Y-61763876D01*
X106303798Y-61781202D01*
X106321124Y-61800318D01*
X106336493Y-61821041D01*
X106349757Y-61843170D01*
X106360788Y-61866493D01*
X106369480Y-61890784D01*
X106375748Y-61915811D01*
X106379534Y-61941331D01*
X106380800Y-61967100D01*
X106380800Y-62492900D01*
X106379534Y-62518669D01*
X106375748Y-62544189D01*
X106369480Y-62569216D01*
X106360788Y-62593507D01*
X106349757Y-62616830D01*
X106336493Y-62638959D01*
X106321124Y-62659682D01*
X106303798Y-62678798D01*
X106284682Y-62696124D01*
X106263959Y-62711493D01*
X106241830Y-62724757D01*
X106218507Y-62735788D01*
X106194216Y-62744480D01*
X106169189Y-62750748D01*
X106143669Y-62754534D01*
X106117900Y-62755800D01*
X105492100Y-62755800D01*
X105466331Y-62754534D01*
X105440811Y-62750748D01*
X105415784Y-62744480D01*
X105391493Y-62735788D01*
X105368170Y-62724757D01*
X105346041Y-62711493D01*
X105325318Y-62696124D01*
X105306202Y-62678798D01*
X105288876Y-62659682D01*
X105273507Y-62638959D01*
X105260243Y-62616830D01*
X105249212Y-62593507D01*
X105240520Y-62569216D01*
X105234252Y-62544189D01*
X105230466Y-62518669D01*
X105229200Y-62492900D01*
X105229200Y-61967100D01*
X105230466Y-61941331D01*
X105234252Y-61915811D01*
X105240520Y-61890784D01*
X105249212Y-61866493D01*
X105260243Y-61843170D01*
X105273507Y-61821041D01*
X105288876Y-61800318D01*
X105306202Y-61781202D01*
X105325318Y-61763876D01*
X105346041Y-61748507D01*
X105368170Y-61735243D01*
X105391493Y-61724212D01*
X105415784Y-61715520D01*
X105440811Y-61709252D01*
X105466331Y-61705466D01*
X105492100Y-61704200D01*
X106117900Y-61704200D01*
X106143669Y-61705466D01*
X106143669Y-61705466D01*
G37*
D14*
X105805000Y-62230000D03*
D13*
G36*
X107893669Y-61705466D02*
G01*
X107919189Y-61709252D01*
X107944216Y-61715520D01*
X107968507Y-61724212D01*
X107991830Y-61735243D01*
X108013959Y-61748507D01*
X108034682Y-61763876D01*
X108053798Y-61781202D01*
X108071124Y-61800318D01*
X108086493Y-61821041D01*
X108099757Y-61843170D01*
X108110788Y-61866493D01*
X108119480Y-61890784D01*
X108125748Y-61915811D01*
X108129534Y-61941331D01*
X108130800Y-61967100D01*
X108130800Y-62492900D01*
X108129534Y-62518669D01*
X108125748Y-62544189D01*
X108119480Y-62569216D01*
X108110788Y-62593507D01*
X108099757Y-62616830D01*
X108086493Y-62638959D01*
X108071124Y-62659682D01*
X108053798Y-62678798D01*
X108034682Y-62696124D01*
X108013959Y-62711493D01*
X107991830Y-62724757D01*
X107968507Y-62735788D01*
X107944216Y-62744480D01*
X107919189Y-62750748D01*
X107893669Y-62754534D01*
X107867900Y-62755800D01*
X107242100Y-62755800D01*
X107216331Y-62754534D01*
X107190811Y-62750748D01*
X107165784Y-62744480D01*
X107141493Y-62735788D01*
X107118170Y-62724757D01*
X107096041Y-62711493D01*
X107075318Y-62696124D01*
X107056202Y-62678798D01*
X107038876Y-62659682D01*
X107023507Y-62638959D01*
X107010243Y-62616830D01*
X106999212Y-62593507D01*
X106990520Y-62569216D01*
X106984252Y-62544189D01*
X106980466Y-62518669D01*
X106979200Y-62492900D01*
X106979200Y-61967100D01*
X106980466Y-61941331D01*
X106984252Y-61915811D01*
X106990520Y-61890784D01*
X106999212Y-61866493D01*
X107010243Y-61843170D01*
X107023507Y-61821041D01*
X107038876Y-61800318D01*
X107056202Y-61781202D01*
X107075318Y-61763876D01*
X107096041Y-61748507D01*
X107118170Y-61735243D01*
X107141493Y-61724212D01*
X107165784Y-61715520D01*
X107190811Y-61709252D01*
X107216331Y-61705466D01*
X107242100Y-61704200D01*
X107867900Y-61704200D01*
X107893669Y-61705466D01*
X107893669Y-61705466D01*
G37*
D14*
X107555000Y-62230000D03*
D13*
G36*
X106143669Y-90915466D02*
G01*
X106169189Y-90919252D01*
X106194216Y-90925520D01*
X106218507Y-90934212D01*
X106241830Y-90945243D01*
X106263959Y-90958507D01*
X106284682Y-90973876D01*
X106303798Y-90991202D01*
X106321124Y-91010318D01*
X106336493Y-91031041D01*
X106349757Y-91053170D01*
X106360788Y-91076493D01*
X106369480Y-91100784D01*
X106375748Y-91125811D01*
X106379534Y-91151331D01*
X106380800Y-91177100D01*
X106380800Y-91702900D01*
X106379534Y-91728669D01*
X106375748Y-91754189D01*
X106369480Y-91779216D01*
X106360788Y-91803507D01*
X106349757Y-91826830D01*
X106336493Y-91848959D01*
X106321124Y-91869682D01*
X106303798Y-91888798D01*
X106284682Y-91906124D01*
X106263959Y-91921493D01*
X106241830Y-91934757D01*
X106218507Y-91945788D01*
X106194216Y-91954480D01*
X106169189Y-91960748D01*
X106143669Y-91964534D01*
X106117900Y-91965800D01*
X105492100Y-91965800D01*
X105466331Y-91964534D01*
X105440811Y-91960748D01*
X105415784Y-91954480D01*
X105391493Y-91945788D01*
X105368170Y-91934757D01*
X105346041Y-91921493D01*
X105325318Y-91906124D01*
X105306202Y-91888798D01*
X105288876Y-91869682D01*
X105273507Y-91848959D01*
X105260243Y-91826830D01*
X105249212Y-91803507D01*
X105240520Y-91779216D01*
X105234252Y-91754189D01*
X105230466Y-91728669D01*
X105229200Y-91702900D01*
X105229200Y-91177100D01*
X105230466Y-91151331D01*
X105234252Y-91125811D01*
X105240520Y-91100784D01*
X105249212Y-91076493D01*
X105260243Y-91053170D01*
X105273507Y-91031041D01*
X105288876Y-91010318D01*
X105306202Y-90991202D01*
X105325318Y-90973876D01*
X105346041Y-90958507D01*
X105368170Y-90945243D01*
X105391493Y-90934212D01*
X105415784Y-90925520D01*
X105440811Y-90919252D01*
X105466331Y-90915466D01*
X105492100Y-90914200D01*
X106117900Y-90914200D01*
X106143669Y-90915466D01*
X106143669Y-90915466D01*
G37*
D14*
X105805000Y-91440000D03*
D13*
G36*
X107893669Y-90915466D02*
G01*
X107919189Y-90919252D01*
X107944216Y-90925520D01*
X107968507Y-90934212D01*
X107991830Y-90945243D01*
X108013959Y-90958507D01*
X108034682Y-90973876D01*
X108053798Y-90991202D01*
X108071124Y-91010318D01*
X108086493Y-91031041D01*
X108099757Y-91053170D01*
X108110788Y-91076493D01*
X108119480Y-91100784D01*
X108125748Y-91125811D01*
X108129534Y-91151331D01*
X108130800Y-91177100D01*
X108130800Y-91702900D01*
X108129534Y-91728669D01*
X108125748Y-91754189D01*
X108119480Y-91779216D01*
X108110788Y-91803507D01*
X108099757Y-91826830D01*
X108086493Y-91848959D01*
X108071124Y-91869682D01*
X108053798Y-91888798D01*
X108034682Y-91906124D01*
X108013959Y-91921493D01*
X107991830Y-91934757D01*
X107968507Y-91945788D01*
X107944216Y-91954480D01*
X107919189Y-91960748D01*
X107893669Y-91964534D01*
X107867900Y-91965800D01*
X107242100Y-91965800D01*
X107216331Y-91964534D01*
X107190811Y-91960748D01*
X107165784Y-91954480D01*
X107141493Y-91945788D01*
X107118170Y-91934757D01*
X107096041Y-91921493D01*
X107075318Y-91906124D01*
X107056202Y-91888798D01*
X107038876Y-91869682D01*
X107023507Y-91848959D01*
X107010243Y-91826830D01*
X106999212Y-91803507D01*
X106990520Y-91779216D01*
X106984252Y-91754189D01*
X106980466Y-91728669D01*
X106979200Y-91702900D01*
X106979200Y-91177100D01*
X106980466Y-91151331D01*
X106984252Y-91125811D01*
X106990520Y-91100784D01*
X106999212Y-91076493D01*
X107010243Y-91053170D01*
X107023507Y-91031041D01*
X107038876Y-91010318D01*
X107056202Y-90991202D01*
X107075318Y-90973876D01*
X107096041Y-90958507D01*
X107118170Y-90945243D01*
X107141493Y-90934212D01*
X107165784Y-90925520D01*
X107190811Y-90919252D01*
X107216331Y-90915466D01*
X107242100Y-90914200D01*
X107867900Y-90914200D01*
X107893669Y-90915466D01*
X107893669Y-90915466D01*
G37*
D14*
X107555000Y-91440000D03*
D13*
G36*
X115033669Y-76945466D02*
G01*
X115059189Y-76949252D01*
X115084216Y-76955520D01*
X115108507Y-76964212D01*
X115131830Y-76975243D01*
X115153959Y-76988507D01*
X115174682Y-77003876D01*
X115193798Y-77021202D01*
X115211124Y-77040318D01*
X115226493Y-77061041D01*
X115239757Y-77083170D01*
X115250788Y-77106493D01*
X115259480Y-77130784D01*
X115265748Y-77155811D01*
X115269534Y-77181331D01*
X115270800Y-77207100D01*
X115270800Y-77732900D01*
X115269534Y-77758669D01*
X115265748Y-77784189D01*
X115259480Y-77809216D01*
X115250788Y-77833507D01*
X115239757Y-77856830D01*
X115226493Y-77878959D01*
X115211124Y-77899682D01*
X115193798Y-77918798D01*
X115174682Y-77936124D01*
X115153959Y-77951493D01*
X115131830Y-77964757D01*
X115108507Y-77975788D01*
X115084216Y-77984480D01*
X115059189Y-77990748D01*
X115033669Y-77994534D01*
X115007900Y-77995800D01*
X114382100Y-77995800D01*
X114356331Y-77994534D01*
X114330811Y-77990748D01*
X114305784Y-77984480D01*
X114281493Y-77975788D01*
X114258170Y-77964757D01*
X114236041Y-77951493D01*
X114215318Y-77936124D01*
X114196202Y-77918798D01*
X114178876Y-77899682D01*
X114163507Y-77878959D01*
X114150243Y-77856830D01*
X114139212Y-77833507D01*
X114130520Y-77809216D01*
X114124252Y-77784189D01*
X114120466Y-77758669D01*
X114119200Y-77732900D01*
X114119200Y-77207100D01*
X114120466Y-77181331D01*
X114124252Y-77155811D01*
X114130520Y-77130784D01*
X114139212Y-77106493D01*
X114150243Y-77083170D01*
X114163507Y-77061041D01*
X114178876Y-77040318D01*
X114196202Y-77021202D01*
X114215318Y-77003876D01*
X114236041Y-76988507D01*
X114258170Y-76975243D01*
X114281493Y-76964212D01*
X114305784Y-76955520D01*
X114330811Y-76949252D01*
X114356331Y-76945466D01*
X114382100Y-76944200D01*
X115007900Y-76944200D01*
X115033669Y-76945466D01*
X115033669Y-76945466D01*
G37*
D14*
X114695000Y-77470000D03*
D13*
G36*
X116783669Y-76945466D02*
G01*
X116809189Y-76949252D01*
X116834216Y-76955520D01*
X116858507Y-76964212D01*
X116881830Y-76975243D01*
X116903959Y-76988507D01*
X116924682Y-77003876D01*
X116943798Y-77021202D01*
X116961124Y-77040318D01*
X116976493Y-77061041D01*
X116989757Y-77083170D01*
X117000788Y-77106493D01*
X117009480Y-77130784D01*
X117015748Y-77155811D01*
X117019534Y-77181331D01*
X117020800Y-77207100D01*
X117020800Y-77732900D01*
X117019534Y-77758669D01*
X117015748Y-77784189D01*
X117009480Y-77809216D01*
X117000788Y-77833507D01*
X116989757Y-77856830D01*
X116976493Y-77878959D01*
X116961124Y-77899682D01*
X116943798Y-77918798D01*
X116924682Y-77936124D01*
X116903959Y-77951493D01*
X116881830Y-77964757D01*
X116858507Y-77975788D01*
X116834216Y-77984480D01*
X116809189Y-77990748D01*
X116783669Y-77994534D01*
X116757900Y-77995800D01*
X116132100Y-77995800D01*
X116106331Y-77994534D01*
X116080811Y-77990748D01*
X116055784Y-77984480D01*
X116031493Y-77975788D01*
X116008170Y-77964757D01*
X115986041Y-77951493D01*
X115965318Y-77936124D01*
X115946202Y-77918798D01*
X115928876Y-77899682D01*
X115913507Y-77878959D01*
X115900243Y-77856830D01*
X115889212Y-77833507D01*
X115880520Y-77809216D01*
X115874252Y-77784189D01*
X115870466Y-77758669D01*
X115869200Y-77732900D01*
X115869200Y-77207100D01*
X115870466Y-77181331D01*
X115874252Y-77155811D01*
X115880520Y-77130784D01*
X115889212Y-77106493D01*
X115900243Y-77083170D01*
X115913507Y-77061041D01*
X115928876Y-77040318D01*
X115946202Y-77021202D01*
X115965318Y-77003876D01*
X115986041Y-76988507D01*
X116008170Y-76975243D01*
X116031493Y-76964212D01*
X116055784Y-76955520D01*
X116080811Y-76949252D01*
X116106331Y-76945466D01*
X116132100Y-76944200D01*
X116757900Y-76944200D01*
X116783669Y-76945466D01*
X116783669Y-76945466D01*
G37*
D14*
X116445000Y-77470000D03*
D18*
X113308000Y-67310000D03*
X116308000Y-66360000D03*
X116308000Y-68260000D03*
D19*
X114320000Y-59055000D03*
X116820000Y-59055000D03*
D18*
X116435000Y-88580000D03*
X116435000Y-86680000D03*
X113435000Y-87630000D03*
D16*
X96520000Y-55880000D03*
D17*
X96520000Y-58420000D03*
X96520000Y-60960000D03*
X96520000Y-68580000D03*
D16*
X96520000Y-66040000D03*
X96520000Y-71120000D03*
D17*
X96520000Y-73660000D03*
X96520000Y-76200000D03*
X96520000Y-78740000D03*
X96520000Y-81280000D03*
D16*
X96520000Y-99060000D03*
D17*
X96520000Y-96520000D03*
X96520000Y-93980000D03*
X96520000Y-91440000D03*
D16*
X96520000Y-83820000D03*
D17*
X96520000Y-86360000D03*
X96520000Y-88900000D03*
X119380000Y-68580000D03*
X119380000Y-66040000D03*
D16*
X119380000Y-63500000D03*
X119380000Y-86360000D03*
D17*
X119380000Y-88900000D03*
X119380000Y-81280000D03*
X119380000Y-78740000D03*
X119380000Y-76200000D03*
D16*
X119380000Y-73660000D03*
D13*
G36*
X116783669Y-60435466D02*
G01*
X116809189Y-60439252D01*
X116834216Y-60445520D01*
X116858507Y-60454212D01*
X116881830Y-60465243D01*
X116903959Y-60478507D01*
X116924682Y-60493876D01*
X116943798Y-60511202D01*
X116961124Y-60530318D01*
X116976493Y-60551041D01*
X116989757Y-60573170D01*
X117000788Y-60596493D01*
X117009480Y-60620784D01*
X117015748Y-60645811D01*
X117019534Y-60671331D01*
X117020800Y-60697100D01*
X117020800Y-61222900D01*
X117019534Y-61248669D01*
X117015748Y-61274189D01*
X117009480Y-61299216D01*
X117000788Y-61323507D01*
X116989757Y-61346830D01*
X116976493Y-61368959D01*
X116961124Y-61389682D01*
X116943798Y-61408798D01*
X116924682Y-61426124D01*
X116903959Y-61441493D01*
X116881830Y-61454757D01*
X116858507Y-61465788D01*
X116834216Y-61474480D01*
X116809189Y-61480748D01*
X116783669Y-61484534D01*
X116757900Y-61485800D01*
X116132100Y-61485800D01*
X116106331Y-61484534D01*
X116080811Y-61480748D01*
X116055784Y-61474480D01*
X116031493Y-61465788D01*
X116008170Y-61454757D01*
X115986041Y-61441493D01*
X115965318Y-61426124D01*
X115946202Y-61408798D01*
X115928876Y-61389682D01*
X115913507Y-61368959D01*
X115900243Y-61346830D01*
X115889212Y-61323507D01*
X115880520Y-61299216D01*
X115874252Y-61274189D01*
X115870466Y-61248669D01*
X115869200Y-61222900D01*
X115869200Y-60697100D01*
X115870466Y-60671331D01*
X115874252Y-60645811D01*
X115880520Y-60620784D01*
X115889212Y-60596493D01*
X115900243Y-60573170D01*
X115913507Y-60551041D01*
X115928876Y-60530318D01*
X115946202Y-60511202D01*
X115965318Y-60493876D01*
X115986041Y-60478507D01*
X116008170Y-60465243D01*
X116031493Y-60454212D01*
X116055784Y-60445520D01*
X116080811Y-60439252D01*
X116106331Y-60435466D01*
X116132100Y-60434200D01*
X116757900Y-60434200D01*
X116783669Y-60435466D01*
X116783669Y-60435466D01*
G37*
D14*
X116445000Y-60960000D03*
D13*
G36*
X115033669Y-60435466D02*
G01*
X115059189Y-60439252D01*
X115084216Y-60445520D01*
X115108507Y-60454212D01*
X115131830Y-60465243D01*
X115153959Y-60478507D01*
X115174682Y-60493876D01*
X115193798Y-60511202D01*
X115211124Y-60530318D01*
X115226493Y-60551041D01*
X115239757Y-60573170D01*
X115250788Y-60596493D01*
X115259480Y-60620784D01*
X115265748Y-60645811D01*
X115269534Y-60671331D01*
X115270800Y-60697100D01*
X115270800Y-61222900D01*
X115269534Y-61248669D01*
X115265748Y-61274189D01*
X115259480Y-61299216D01*
X115250788Y-61323507D01*
X115239757Y-61346830D01*
X115226493Y-61368959D01*
X115211124Y-61389682D01*
X115193798Y-61408798D01*
X115174682Y-61426124D01*
X115153959Y-61441493D01*
X115131830Y-61454757D01*
X115108507Y-61465788D01*
X115084216Y-61474480D01*
X115059189Y-61480748D01*
X115033669Y-61484534D01*
X115007900Y-61485800D01*
X114382100Y-61485800D01*
X114356331Y-61484534D01*
X114330811Y-61480748D01*
X114305784Y-61474480D01*
X114281493Y-61465788D01*
X114258170Y-61454757D01*
X114236041Y-61441493D01*
X114215318Y-61426124D01*
X114196202Y-61408798D01*
X114178876Y-61389682D01*
X114163507Y-61368959D01*
X114150243Y-61346830D01*
X114139212Y-61323507D01*
X114130520Y-61299216D01*
X114124252Y-61274189D01*
X114120466Y-61248669D01*
X114119200Y-61222900D01*
X114119200Y-60697100D01*
X114120466Y-60671331D01*
X114124252Y-60645811D01*
X114130520Y-60620784D01*
X114139212Y-60596493D01*
X114150243Y-60573170D01*
X114163507Y-60551041D01*
X114178876Y-60530318D01*
X114196202Y-60511202D01*
X114215318Y-60493876D01*
X114236041Y-60478507D01*
X114258170Y-60465243D01*
X114281493Y-60454212D01*
X114305784Y-60445520D01*
X114330811Y-60439252D01*
X114356331Y-60435466D01*
X114382100Y-60434200D01*
X115007900Y-60434200D01*
X115033669Y-60435466D01*
X115033669Y-60435466D01*
G37*
D14*
X114695000Y-60960000D03*
D13*
G36*
X116783669Y-62340466D02*
G01*
X116809189Y-62344252D01*
X116834216Y-62350520D01*
X116858507Y-62359212D01*
X116881830Y-62370243D01*
X116903959Y-62383507D01*
X116924682Y-62398876D01*
X116943798Y-62416202D01*
X116961124Y-62435318D01*
X116976493Y-62456041D01*
X116989757Y-62478170D01*
X117000788Y-62501493D01*
X117009480Y-62525784D01*
X117015748Y-62550811D01*
X117019534Y-62576331D01*
X117020800Y-62602100D01*
X117020800Y-63127900D01*
X117019534Y-63153669D01*
X117015748Y-63179189D01*
X117009480Y-63204216D01*
X117000788Y-63228507D01*
X116989757Y-63251830D01*
X116976493Y-63273959D01*
X116961124Y-63294682D01*
X116943798Y-63313798D01*
X116924682Y-63331124D01*
X116903959Y-63346493D01*
X116881830Y-63359757D01*
X116858507Y-63370788D01*
X116834216Y-63379480D01*
X116809189Y-63385748D01*
X116783669Y-63389534D01*
X116757900Y-63390800D01*
X116132100Y-63390800D01*
X116106331Y-63389534D01*
X116080811Y-63385748D01*
X116055784Y-63379480D01*
X116031493Y-63370788D01*
X116008170Y-63359757D01*
X115986041Y-63346493D01*
X115965318Y-63331124D01*
X115946202Y-63313798D01*
X115928876Y-63294682D01*
X115913507Y-63273959D01*
X115900243Y-63251830D01*
X115889212Y-63228507D01*
X115880520Y-63204216D01*
X115874252Y-63179189D01*
X115870466Y-63153669D01*
X115869200Y-63127900D01*
X115869200Y-62602100D01*
X115870466Y-62576331D01*
X115874252Y-62550811D01*
X115880520Y-62525784D01*
X115889212Y-62501493D01*
X115900243Y-62478170D01*
X115913507Y-62456041D01*
X115928876Y-62435318D01*
X115946202Y-62416202D01*
X115965318Y-62398876D01*
X115986041Y-62383507D01*
X116008170Y-62370243D01*
X116031493Y-62359212D01*
X116055784Y-62350520D01*
X116080811Y-62344252D01*
X116106331Y-62340466D01*
X116132100Y-62339200D01*
X116757900Y-62339200D01*
X116783669Y-62340466D01*
X116783669Y-62340466D01*
G37*
D14*
X116445000Y-62865000D03*
D13*
G36*
X115033669Y-62340466D02*
G01*
X115059189Y-62344252D01*
X115084216Y-62350520D01*
X115108507Y-62359212D01*
X115131830Y-62370243D01*
X115153959Y-62383507D01*
X115174682Y-62398876D01*
X115193798Y-62416202D01*
X115211124Y-62435318D01*
X115226493Y-62456041D01*
X115239757Y-62478170D01*
X115250788Y-62501493D01*
X115259480Y-62525784D01*
X115265748Y-62550811D01*
X115269534Y-62576331D01*
X115270800Y-62602100D01*
X115270800Y-63127900D01*
X115269534Y-63153669D01*
X115265748Y-63179189D01*
X115259480Y-63204216D01*
X115250788Y-63228507D01*
X115239757Y-63251830D01*
X115226493Y-63273959D01*
X115211124Y-63294682D01*
X115193798Y-63313798D01*
X115174682Y-63331124D01*
X115153959Y-63346493D01*
X115131830Y-63359757D01*
X115108507Y-63370788D01*
X115084216Y-63379480D01*
X115059189Y-63385748D01*
X115033669Y-63389534D01*
X115007900Y-63390800D01*
X114382100Y-63390800D01*
X114356331Y-63389534D01*
X114330811Y-63385748D01*
X114305784Y-63379480D01*
X114281493Y-63370788D01*
X114258170Y-63359757D01*
X114236041Y-63346493D01*
X114215318Y-63331124D01*
X114196202Y-63313798D01*
X114178876Y-63294682D01*
X114163507Y-63273959D01*
X114150243Y-63251830D01*
X114139212Y-63228507D01*
X114130520Y-63204216D01*
X114124252Y-63179189D01*
X114120466Y-63153669D01*
X114119200Y-63127900D01*
X114119200Y-62602100D01*
X114120466Y-62576331D01*
X114124252Y-62550811D01*
X114130520Y-62525784D01*
X114139212Y-62501493D01*
X114150243Y-62478170D01*
X114163507Y-62456041D01*
X114178876Y-62435318D01*
X114196202Y-62416202D01*
X114215318Y-62398876D01*
X114236041Y-62383507D01*
X114258170Y-62370243D01*
X114281493Y-62359212D01*
X114305784Y-62350520D01*
X114330811Y-62344252D01*
X114356331Y-62340466D01*
X114382100Y-62339200D01*
X115007900Y-62339200D01*
X115033669Y-62340466D01*
X115033669Y-62340466D01*
G37*
D14*
X114695000Y-62865000D03*
D13*
G36*
X116783669Y-64245466D02*
G01*
X116809189Y-64249252D01*
X116834216Y-64255520D01*
X116858507Y-64264212D01*
X116881830Y-64275243D01*
X116903959Y-64288507D01*
X116924682Y-64303876D01*
X116943798Y-64321202D01*
X116961124Y-64340318D01*
X116976493Y-64361041D01*
X116989757Y-64383170D01*
X117000788Y-64406493D01*
X117009480Y-64430784D01*
X117015748Y-64455811D01*
X117019534Y-64481331D01*
X117020800Y-64507100D01*
X117020800Y-65032900D01*
X117019534Y-65058669D01*
X117015748Y-65084189D01*
X117009480Y-65109216D01*
X117000788Y-65133507D01*
X116989757Y-65156830D01*
X116976493Y-65178959D01*
X116961124Y-65199682D01*
X116943798Y-65218798D01*
X116924682Y-65236124D01*
X116903959Y-65251493D01*
X116881830Y-65264757D01*
X116858507Y-65275788D01*
X116834216Y-65284480D01*
X116809189Y-65290748D01*
X116783669Y-65294534D01*
X116757900Y-65295800D01*
X116132100Y-65295800D01*
X116106331Y-65294534D01*
X116080811Y-65290748D01*
X116055784Y-65284480D01*
X116031493Y-65275788D01*
X116008170Y-65264757D01*
X115986041Y-65251493D01*
X115965318Y-65236124D01*
X115946202Y-65218798D01*
X115928876Y-65199682D01*
X115913507Y-65178959D01*
X115900243Y-65156830D01*
X115889212Y-65133507D01*
X115880520Y-65109216D01*
X115874252Y-65084189D01*
X115870466Y-65058669D01*
X115869200Y-65032900D01*
X115869200Y-64507100D01*
X115870466Y-64481331D01*
X115874252Y-64455811D01*
X115880520Y-64430784D01*
X115889212Y-64406493D01*
X115900243Y-64383170D01*
X115913507Y-64361041D01*
X115928876Y-64340318D01*
X115946202Y-64321202D01*
X115965318Y-64303876D01*
X115986041Y-64288507D01*
X116008170Y-64275243D01*
X116031493Y-64264212D01*
X116055784Y-64255520D01*
X116080811Y-64249252D01*
X116106331Y-64245466D01*
X116132100Y-64244200D01*
X116757900Y-64244200D01*
X116783669Y-64245466D01*
X116783669Y-64245466D01*
G37*
D14*
X116445000Y-64770000D03*
D13*
G36*
X115033669Y-64245466D02*
G01*
X115059189Y-64249252D01*
X115084216Y-64255520D01*
X115108507Y-64264212D01*
X115131830Y-64275243D01*
X115153959Y-64288507D01*
X115174682Y-64303876D01*
X115193798Y-64321202D01*
X115211124Y-64340318D01*
X115226493Y-64361041D01*
X115239757Y-64383170D01*
X115250788Y-64406493D01*
X115259480Y-64430784D01*
X115265748Y-64455811D01*
X115269534Y-64481331D01*
X115270800Y-64507100D01*
X115270800Y-65032900D01*
X115269534Y-65058669D01*
X115265748Y-65084189D01*
X115259480Y-65109216D01*
X115250788Y-65133507D01*
X115239757Y-65156830D01*
X115226493Y-65178959D01*
X115211124Y-65199682D01*
X115193798Y-65218798D01*
X115174682Y-65236124D01*
X115153959Y-65251493D01*
X115131830Y-65264757D01*
X115108507Y-65275788D01*
X115084216Y-65284480D01*
X115059189Y-65290748D01*
X115033669Y-65294534D01*
X115007900Y-65295800D01*
X114382100Y-65295800D01*
X114356331Y-65294534D01*
X114330811Y-65290748D01*
X114305784Y-65284480D01*
X114281493Y-65275788D01*
X114258170Y-65264757D01*
X114236041Y-65251493D01*
X114215318Y-65236124D01*
X114196202Y-65218798D01*
X114178876Y-65199682D01*
X114163507Y-65178959D01*
X114150243Y-65156830D01*
X114139212Y-65133507D01*
X114130520Y-65109216D01*
X114124252Y-65084189D01*
X114120466Y-65058669D01*
X114119200Y-65032900D01*
X114119200Y-64507100D01*
X114120466Y-64481331D01*
X114124252Y-64455811D01*
X114130520Y-64430784D01*
X114139212Y-64406493D01*
X114150243Y-64383170D01*
X114163507Y-64361041D01*
X114178876Y-64340318D01*
X114196202Y-64321202D01*
X114215318Y-64303876D01*
X114236041Y-64288507D01*
X114258170Y-64275243D01*
X114281493Y-64264212D01*
X114305784Y-64255520D01*
X114330811Y-64249252D01*
X114356331Y-64245466D01*
X114382100Y-64244200D01*
X115007900Y-64244200D01*
X115033669Y-64245466D01*
X115033669Y-64245466D01*
G37*
D14*
X114695000Y-64770000D03*
D13*
G36*
X115033669Y-69325466D02*
G01*
X115059189Y-69329252D01*
X115084216Y-69335520D01*
X115108507Y-69344212D01*
X115131830Y-69355243D01*
X115153959Y-69368507D01*
X115174682Y-69383876D01*
X115193798Y-69401202D01*
X115211124Y-69420318D01*
X115226493Y-69441041D01*
X115239757Y-69463170D01*
X115250788Y-69486493D01*
X115259480Y-69510784D01*
X115265748Y-69535811D01*
X115269534Y-69561331D01*
X115270800Y-69587100D01*
X115270800Y-70112900D01*
X115269534Y-70138669D01*
X115265748Y-70164189D01*
X115259480Y-70189216D01*
X115250788Y-70213507D01*
X115239757Y-70236830D01*
X115226493Y-70258959D01*
X115211124Y-70279682D01*
X115193798Y-70298798D01*
X115174682Y-70316124D01*
X115153959Y-70331493D01*
X115131830Y-70344757D01*
X115108507Y-70355788D01*
X115084216Y-70364480D01*
X115059189Y-70370748D01*
X115033669Y-70374534D01*
X115007900Y-70375800D01*
X114382100Y-70375800D01*
X114356331Y-70374534D01*
X114330811Y-70370748D01*
X114305784Y-70364480D01*
X114281493Y-70355788D01*
X114258170Y-70344757D01*
X114236041Y-70331493D01*
X114215318Y-70316124D01*
X114196202Y-70298798D01*
X114178876Y-70279682D01*
X114163507Y-70258959D01*
X114150243Y-70236830D01*
X114139212Y-70213507D01*
X114130520Y-70189216D01*
X114124252Y-70164189D01*
X114120466Y-70138669D01*
X114119200Y-70112900D01*
X114119200Y-69587100D01*
X114120466Y-69561331D01*
X114124252Y-69535811D01*
X114130520Y-69510784D01*
X114139212Y-69486493D01*
X114150243Y-69463170D01*
X114163507Y-69441041D01*
X114178876Y-69420318D01*
X114196202Y-69401202D01*
X114215318Y-69383876D01*
X114236041Y-69368507D01*
X114258170Y-69355243D01*
X114281493Y-69344212D01*
X114305784Y-69335520D01*
X114330811Y-69329252D01*
X114356331Y-69325466D01*
X114382100Y-69324200D01*
X115007900Y-69324200D01*
X115033669Y-69325466D01*
X115033669Y-69325466D01*
G37*
D14*
X114695000Y-69850000D03*
D13*
G36*
X116783669Y-69325466D02*
G01*
X116809189Y-69329252D01*
X116834216Y-69335520D01*
X116858507Y-69344212D01*
X116881830Y-69355243D01*
X116903959Y-69368507D01*
X116924682Y-69383876D01*
X116943798Y-69401202D01*
X116961124Y-69420318D01*
X116976493Y-69441041D01*
X116989757Y-69463170D01*
X117000788Y-69486493D01*
X117009480Y-69510784D01*
X117015748Y-69535811D01*
X117019534Y-69561331D01*
X117020800Y-69587100D01*
X117020800Y-70112900D01*
X117019534Y-70138669D01*
X117015748Y-70164189D01*
X117009480Y-70189216D01*
X117000788Y-70213507D01*
X116989757Y-70236830D01*
X116976493Y-70258959D01*
X116961124Y-70279682D01*
X116943798Y-70298798D01*
X116924682Y-70316124D01*
X116903959Y-70331493D01*
X116881830Y-70344757D01*
X116858507Y-70355788D01*
X116834216Y-70364480D01*
X116809189Y-70370748D01*
X116783669Y-70374534D01*
X116757900Y-70375800D01*
X116132100Y-70375800D01*
X116106331Y-70374534D01*
X116080811Y-70370748D01*
X116055784Y-70364480D01*
X116031493Y-70355788D01*
X116008170Y-70344757D01*
X115986041Y-70331493D01*
X115965318Y-70316124D01*
X115946202Y-70298798D01*
X115928876Y-70279682D01*
X115913507Y-70258959D01*
X115900243Y-70236830D01*
X115889212Y-70213507D01*
X115880520Y-70189216D01*
X115874252Y-70164189D01*
X115870466Y-70138669D01*
X115869200Y-70112900D01*
X115869200Y-69587100D01*
X115870466Y-69561331D01*
X115874252Y-69535811D01*
X115880520Y-69510784D01*
X115889212Y-69486493D01*
X115900243Y-69463170D01*
X115913507Y-69441041D01*
X115928876Y-69420318D01*
X115946202Y-69401202D01*
X115965318Y-69383876D01*
X115986041Y-69368507D01*
X116008170Y-69355243D01*
X116031493Y-69344212D01*
X116055784Y-69335520D01*
X116080811Y-69329252D01*
X116106331Y-69325466D01*
X116132100Y-69324200D01*
X116757900Y-69324200D01*
X116783669Y-69325466D01*
X116783669Y-69325466D01*
G37*
D14*
X116445000Y-69850000D03*
D13*
G36*
X108873669Y-87450466D02*
G01*
X108899189Y-87454252D01*
X108924216Y-87460520D01*
X108948507Y-87469212D01*
X108971830Y-87480243D01*
X108993959Y-87493507D01*
X109014682Y-87508876D01*
X109033798Y-87526202D01*
X109051124Y-87545318D01*
X109066493Y-87566041D01*
X109079757Y-87588170D01*
X109090788Y-87611493D01*
X109099480Y-87635784D01*
X109105748Y-87660811D01*
X109109534Y-87686331D01*
X109110800Y-87712100D01*
X109110800Y-88337900D01*
X109109534Y-88363669D01*
X109105748Y-88389189D01*
X109099480Y-88414216D01*
X109090788Y-88438507D01*
X109079757Y-88461830D01*
X109066493Y-88483959D01*
X109051124Y-88504682D01*
X109033798Y-88523798D01*
X109014682Y-88541124D01*
X108993959Y-88556493D01*
X108971830Y-88569757D01*
X108948507Y-88580788D01*
X108924216Y-88589480D01*
X108899189Y-88595748D01*
X108873669Y-88599534D01*
X108847900Y-88600800D01*
X108322100Y-88600800D01*
X108296331Y-88599534D01*
X108270811Y-88595748D01*
X108245784Y-88589480D01*
X108221493Y-88580788D01*
X108198170Y-88569757D01*
X108176041Y-88556493D01*
X108155318Y-88541124D01*
X108136202Y-88523798D01*
X108118876Y-88504682D01*
X108103507Y-88483959D01*
X108090243Y-88461830D01*
X108079212Y-88438507D01*
X108070520Y-88414216D01*
X108064252Y-88389189D01*
X108060466Y-88363669D01*
X108059200Y-88337900D01*
X108059200Y-87712100D01*
X108060466Y-87686331D01*
X108064252Y-87660811D01*
X108070520Y-87635784D01*
X108079212Y-87611493D01*
X108090243Y-87588170D01*
X108103507Y-87566041D01*
X108118876Y-87545318D01*
X108136202Y-87526202D01*
X108155318Y-87508876D01*
X108176041Y-87493507D01*
X108198170Y-87480243D01*
X108221493Y-87469212D01*
X108245784Y-87460520D01*
X108270811Y-87454252D01*
X108296331Y-87450466D01*
X108322100Y-87449200D01*
X108847900Y-87449200D01*
X108873669Y-87450466D01*
X108873669Y-87450466D01*
G37*
D14*
X108585000Y-88025000D03*
D13*
G36*
X108873669Y-89200466D02*
G01*
X108899189Y-89204252D01*
X108924216Y-89210520D01*
X108948507Y-89219212D01*
X108971830Y-89230243D01*
X108993959Y-89243507D01*
X109014682Y-89258876D01*
X109033798Y-89276202D01*
X109051124Y-89295318D01*
X109066493Y-89316041D01*
X109079757Y-89338170D01*
X109090788Y-89361493D01*
X109099480Y-89385784D01*
X109105748Y-89410811D01*
X109109534Y-89436331D01*
X109110800Y-89462100D01*
X109110800Y-90087900D01*
X109109534Y-90113669D01*
X109105748Y-90139189D01*
X109099480Y-90164216D01*
X109090788Y-90188507D01*
X109079757Y-90211830D01*
X109066493Y-90233959D01*
X109051124Y-90254682D01*
X109033798Y-90273798D01*
X109014682Y-90291124D01*
X108993959Y-90306493D01*
X108971830Y-90319757D01*
X108948507Y-90330788D01*
X108924216Y-90339480D01*
X108899189Y-90345748D01*
X108873669Y-90349534D01*
X108847900Y-90350800D01*
X108322100Y-90350800D01*
X108296331Y-90349534D01*
X108270811Y-90345748D01*
X108245784Y-90339480D01*
X108221493Y-90330788D01*
X108198170Y-90319757D01*
X108176041Y-90306493D01*
X108155318Y-90291124D01*
X108136202Y-90273798D01*
X108118876Y-90254682D01*
X108103507Y-90233959D01*
X108090243Y-90211830D01*
X108079212Y-90188507D01*
X108070520Y-90164216D01*
X108064252Y-90139189D01*
X108060466Y-90113669D01*
X108059200Y-90087900D01*
X108059200Y-89462100D01*
X108060466Y-89436331D01*
X108064252Y-89410811D01*
X108070520Y-89385784D01*
X108079212Y-89361493D01*
X108090243Y-89338170D01*
X108103507Y-89316041D01*
X108118876Y-89295318D01*
X108136202Y-89276202D01*
X108155318Y-89258876D01*
X108176041Y-89243507D01*
X108198170Y-89230243D01*
X108221493Y-89219212D01*
X108245784Y-89210520D01*
X108270811Y-89204252D01*
X108296331Y-89200466D01*
X108322100Y-89199200D01*
X108847900Y-89199200D01*
X108873669Y-89200466D01*
X108873669Y-89200466D01*
G37*
D14*
X108585000Y-89775000D03*
D13*
G36*
X105063669Y-89200466D02*
G01*
X105089189Y-89204252D01*
X105114216Y-89210520D01*
X105138507Y-89219212D01*
X105161830Y-89230243D01*
X105183959Y-89243507D01*
X105204682Y-89258876D01*
X105223798Y-89276202D01*
X105241124Y-89295318D01*
X105256493Y-89316041D01*
X105269757Y-89338170D01*
X105280788Y-89361493D01*
X105289480Y-89385784D01*
X105295748Y-89410811D01*
X105299534Y-89436331D01*
X105300800Y-89462100D01*
X105300800Y-90087900D01*
X105299534Y-90113669D01*
X105295748Y-90139189D01*
X105289480Y-90164216D01*
X105280788Y-90188507D01*
X105269757Y-90211830D01*
X105256493Y-90233959D01*
X105241124Y-90254682D01*
X105223798Y-90273798D01*
X105204682Y-90291124D01*
X105183959Y-90306493D01*
X105161830Y-90319757D01*
X105138507Y-90330788D01*
X105114216Y-90339480D01*
X105089189Y-90345748D01*
X105063669Y-90349534D01*
X105037900Y-90350800D01*
X104512100Y-90350800D01*
X104486331Y-90349534D01*
X104460811Y-90345748D01*
X104435784Y-90339480D01*
X104411493Y-90330788D01*
X104388170Y-90319757D01*
X104366041Y-90306493D01*
X104345318Y-90291124D01*
X104326202Y-90273798D01*
X104308876Y-90254682D01*
X104293507Y-90233959D01*
X104280243Y-90211830D01*
X104269212Y-90188507D01*
X104260520Y-90164216D01*
X104254252Y-90139189D01*
X104250466Y-90113669D01*
X104249200Y-90087900D01*
X104249200Y-89462100D01*
X104250466Y-89436331D01*
X104254252Y-89410811D01*
X104260520Y-89385784D01*
X104269212Y-89361493D01*
X104280243Y-89338170D01*
X104293507Y-89316041D01*
X104308876Y-89295318D01*
X104326202Y-89276202D01*
X104345318Y-89258876D01*
X104366041Y-89243507D01*
X104388170Y-89230243D01*
X104411493Y-89219212D01*
X104435784Y-89210520D01*
X104460811Y-89204252D01*
X104486331Y-89200466D01*
X104512100Y-89199200D01*
X105037900Y-89199200D01*
X105063669Y-89200466D01*
X105063669Y-89200466D01*
G37*
D14*
X104775000Y-89775000D03*
D13*
G36*
X105063669Y-87450466D02*
G01*
X105089189Y-87454252D01*
X105114216Y-87460520D01*
X105138507Y-87469212D01*
X105161830Y-87480243D01*
X105183959Y-87493507D01*
X105204682Y-87508876D01*
X105223798Y-87526202D01*
X105241124Y-87545318D01*
X105256493Y-87566041D01*
X105269757Y-87588170D01*
X105280788Y-87611493D01*
X105289480Y-87635784D01*
X105295748Y-87660811D01*
X105299534Y-87686331D01*
X105300800Y-87712100D01*
X105300800Y-88337900D01*
X105299534Y-88363669D01*
X105295748Y-88389189D01*
X105289480Y-88414216D01*
X105280788Y-88438507D01*
X105269757Y-88461830D01*
X105256493Y-88483959D01*
X105241124Y-88504682D01*
X105223798Y-88523798D01*
X105204682Y-88541124D01*
X105183959Y-88556493D01*
X105161830Y-88569757D01*
X105138507Y-88580788D01*
X105114216Y-88589480D01*
X105089189Y-88595748D01*
X105063669Y-88599534D01*
X105037900Y-88600800D01*
X104512100Y-88600800D01*
X104486331Y-88599534D01*
X104460811Y-88595748D01*
X104435784Y-88589480D01*
X104411493Y-88580788D01*
X104388170Y-88569757D01*
X104366041Y-88556493D01*
X104345318Y-88541124D01*
X104326202Y-88523798D01*
X104308876Y-88504682D01*
X104293507Y-88483959D01*
X104280243Y-88461830D01*
X104269212Y-88438507D01*
X104260520Y-88414216D01*
X104254252Y-88389189D01*
X104250466Y-88363669D01*
X104249200Y-88337900D01*
X104249200Y-87712100D01*
X104250466Y-87686331D01*
X104254252Y-87660811D01*
X104260520Y-87635784D01*
X104269212Y-87611493D01*
X104280243Y-87588170D01*
X104293507Y-87566041D01*
X104308876Y-87545318D01*
X104326202Y-87526202D01*
X104345318Y-87508876D01*
X104366041Y-87493507D01*
X104388170Y-87480243D01*
X104411493Y-87469212D01*
X104435784Y-87460520D01*
X104460811Y-87454252D01*
X104486331Y-87450466D01*
X104512100Y-87449200D01*
X105037900Y-87449200D01*
X105063669Y-87450466D01*
X105063669Y-87450466D01*
G37*
D14*
X104775000Y-88025000D03*
D13*
G36*
X107893669Y-77580466D02*
G01*
X107919189Y-77584252D01*
X107944216Y-77590520D01*
X107968507Y-77599212D01*
X107991830Y-77610243D01*
X108013959Y-77623507D01*
X108034682Y-77638876D01*
X108053798Y-77656202D01*
X108071124Y-77675318D01*
X108086493Y-77696041D01*
X108099757Y-77718170D01*
X108110788Y-77741493D01*
X108119480Y-77765784D01*
X108125748Y-77790811D01*
X108129534Y-77816331D01*
X108130800Y-77842100D01*
X108130800Y-78367900D01*
X108129534Y-78393669D01*
X108125748Y-78419189D01*
X108119480Y-78444216D01*
X108110788Y-78468507D01*
X108099757Y-78491830D01*
X108086493Y-78513959D01*
X108071124Y-78534682D01*
X108053798Y-78553798D01*
X108034682Y-78571124D01*
X108013959Y-78586493D01*
X107991830Y-78599757D01*
X107968507Y-78610788D01*
X107944216Y-78619480D01*
X107919189Y-78625748D01*
X107893669Y-78629534D01*
X107867900Y-78630800D01*
X107242100Y-78630800D01*
X107216331Y-78629534D01*
X107190811Y-78625748D01*
X107165784Y-78619480D01*
X107141493Y-78610788D01*
X107118170Y-78599757D01*
X107096041Y-78586493D01*
X107075318Y-78571124D01*
X107056202Y-78553798D01*
X107038876Y-78534682D01*
X107023507Y-78513959D01*
X107010243Y-78491830D01*
X106999212Y-78468507D01*
X106990520Y-78444216D01*
X106984252Y-78419189D01*
X106980466Y-78393669D01*
X106979200Y-78367900D01*
X106979200Y-77842100D01*
X106980466Y-77816331D01*
X106984252Y-77790811D01*
X106990520Y-77765784D01*
X106999212Y-77741493D01*
X107010243Y-77718170D01*
X107023507Y-77696041D01*
X107038876Y-77675318D01*
X107056202Y-77656202D01*
X107075318Y-77638876D01*
X107096041Y-77623507D01*
X107118170Y-77610243D01*
X107141493Y-77599212D01*
X107165784Y-77590520D01*
X107190811Y-77584252D01*
X107216331Y-77580466D01*
X107242100Y-77579200D01*
X107867900Y-77579200D01*
X107893669Y-77580466D01*
X107893669Y-77580466D01*
G37*
D14*
X107555000Y-78105000D03*
D13*
G36*
X106143669Y-77580466D02*
G01*
X106169189Y-77584252D01*
X106194216Y-77590520D01*
X106218507Y-77599212D01*
X106241830Y-77610243D01*
X106263959Y-77623507D01*
X106284682Y-77638876D01*
X106303798Y-77656202D01*
X106321124Y-77675318D01*
X106336493Y-77696041D01*
X106349757Y-77718170D01*
X106360788Y-77741493D01*
X106369480Y-77765784D01*
X106375748Y-77790811D01*
X106379534Y-77816331D01*
X106380800Y-77842100D01*
X106380800Y-78367900D01*
X106379534Y-78393669D01*
X106375748Y-78419189D01*
X106369480Y-78444216D01*
X106360788Y-78468507D01*
X106349757Y-78491830D01*
X106336493Y-78513959D01*
X106321124Y-78534682D01*
X106303798Y-78553798D01*
X106284682Y-78571124D01*
X106263959Y-78586493D01*
X106241830Y-78599757D01*
X106218507Y-78610788D01*
X106194216Y-78619480D01*
X106169189Y-78625748D01*
X106143669Y-78629534D01*
X106117900Y-78630800D01*
X105492100Y-78630800D01*
X105466331Y-78629534D01*
X105440811Y-78625748D01*
X105415784Y-78619480D01*
X105391493Y-78610788D01*
X105368170Y-78599757D01*
X105346041Y-78586493D01*
X105325318Y-78571124D01*
X105306202Y-78553798D01*
X105288876Y-78534682D01*
X105273507Y-78513959D01*
X105260243Y-78491830D01*
X105249212Y-78468507D01*
X105240520Y-78444216D01*
X105234252Y-78419189D01*
X105230466Y-78393669D01*
X105229200Y-78367900D01*
X105229200Y-77842100D01*
X105230466Y-77816331D01*
X105234252Y-77790811D01*
X105240520Y-77765784D01*
X105249212Y-77741493D01*
X105260243Y-77718170D01*
X105273507Y-77696041D01*
X105288876Y-77675318D01*
X105306202Y-77656202D01*
X105325318Y-77638876D01*
X105346041Y-77623507D01*
X105368170Y-77610243D01*
X105391493Y-77599212D01*
X105415784Y-77590520D01*
X105440811Y-77584252D01*
X105466331Y-77580466D01*
X105492100Y-77579200D01*
X106117900Y-77579200D01*
X106143669Y-77580466D01*
X106143669Y-77580466D01*
G37*
D14*
X105805000Y-78105000D03*
D13*
G36*
X107893669Y-63610466D02*
G01*
X107919189Y-63614252D01*
X107944216Y-63620520D01*
X107968507Y-63629212D01*
X107991830Y-63640243D01*
X108013959Y-63653507D01*
X108034682Y-63668876D01*
X108053798Y-63686202D01*
X108071124Y-63705318D01*
X108086493Y-63726041D01*
X108099757Y-63748170D01*
X108110788Y-63771493D01*
X108119480Y-63795784D01*
X108125748Y-63820811D01*
X108129534Y-63846331D01*
X108130800Y-63872100D01*
X108130800Y-64397900D01*
X108129534Y-64423669D01*
X108125748Y-64449189D01*
X108119480Y-64474216D01*
X108110788Y-64498507D01*
X108099757Y-64521830D01*
X108086493Y-64543959D01*
X108071124Y-64564682D01*
X108053798Y-64583798D01*
X108034682Y-64601124D01*
X108013959Y-64616493D01*
X107991830Y-64629757D01*
X107968507Y-64640788D01*
X107944216Y-64649480D01*
X107919189Y-64655748D01*
X107893669Y-64659534D01*
X107867900Y-64660800D01*
X107242100Y-64660800D01*
X107216331Y-64659534D01*
X107190811Y-64655748D01*
X107165784Y-64649480D01*
X107141493Y-64640788D01*
X107118170Y-64629757D01*
X107096041Y-64616493D01*
X107075318Y-64601124D01*
X107056202Y-64583798D01*
X107038876Y-64564682D01*
X107023507Y-64543959D01*
X107010243Y-64521830D01*
X106999212Y-64498507D01*
X106990520Y-64474216D01*
X106984252Y-64449189D01*
X106980466Y-64423669D01*
X106979200Y-64397900D01*
X106979200Y-63872100D01*
X106980466Y-63846331D01*
X106984252Y-63820811D01*
X106990520Y-63795784D01*
X106999212Y-63771493D01*
X107010243Y-63748170D01*
X107023507Y-63726041D01*
X107038876Y-63705318D01*
X107056202Y-63686202D01*
X107075318Y-63668876D01*
X107096041Y-63653507D01*
X107118170Y-63640243D01*
X107141493Y-63629212D01*
X107165784Y-63620520D01*
X107190811Y-63614252D01*
X107216331Y-63610466D01*
X107242100Y-63609200D01*
X107867900Y-63609200D01*
X107893669Y-63610466D01*
X107893669Y-63610466D01*
G37*
D14*
X107555000Y-64135000D03*
D13*
G36*
X106143669Y-63610466D02*
G01*
X106169189Y-63614252D01*
X106194216Y-63620520D01*
X106218507Y-63629212D01*
X106241830Y-63640243D01*
X106263959Y-63653507D01*
X106284682Y-63668876D01*
X106303798Y-63686202D01*
X106321124Y-63705318D01*
X106336493Y-63726041D01*
X106349757Y-63748170D01*
X106360788Y-63771493D01*
X106369480Y-63795784D01*
X106375748Y-63820811D01*
X106379534Y-63846331D01*
X106380800Y-63872100D01*
X106380800Y-64397900D01*
X106379534Y-64423669D01*
X106375748Y-64449189D01*
X106369480Y-64474216D01*
X106360788Y-64498507D01*
X106349757Y-64521830D01*
X106336493Y-64543959D01*
X106321124Y-64564682D01*
X106303798Y-64583798D01*
X106284682Y-64601124D01*
X106263959Y-64616493D01*
X106241830Y-64629757D01*
X106218507Y-64640788D01*
X106194216Y-64649480D01*
X106169189Y-64655748D01*
X106143669Y-64659534D01*
X106117900Y-64660800D01*
X105492100Y-64660800D01*
X105466331Y-64659534D01*
X105440811Y-64655748D01*
X105415784Y-64649480D01*
X105391493Y-64640788D01*
X105368170Y-64629757D01*
X105346041Y-64616493D01*
X105325318Y-64601124D01*
X105306202Y-64583798D01*
X105288876Y-64564682D01*
X105273507Y-64543959D01*
X105260243Y-64521830D01*
X105249212Y-64498507D01*
X105240520Y-64474216D01*
X105234252Y-64449189D01*
X105230466Y-64423669D01*
X105229200Y-64397900D01*
X105229200Y-63872100D01*
X105230466Y-63846331D01*
X105234252Y-63820811D01*
X105240520Y-63795784D01*
X105249212Y-63771493D01*
X105260243Y-63748170D01*
X105273507Y-63726041D01*
X105288876Y-63705318D01*
X105306202Y-63686202D01*
X105325318Y-63668876D01*
X105346041Y-63653507D01*
X105368170Y-63640243D01*
X105391493Y-63629212D01*
X105415784Y-63620520D01*
X105440811Y-63614252D01*
X105466331Y-63610466D01*
X105492100Y-63609200D01*
X106117900Y-63609200D01*
X106143669Y-63610466D01*
X106143669Y-63610466D01*
G37*
D14*
X105805000Y-64135000D03*
D13*
G36*
X115033669Y-75040466D02*
G01*
X115059189Y-75044252D01*
X115084216Y-75050520D01*
X115108507Y-75059212D01*
X115131830Y-75070243D01*
X115153959Y-75083507D01*
X115174682Y-75098876D01*
X115193798Y-75116202D01*
X115211124Y-75135318D01*
X115226493Y-75156041D01*
X115239757Y-75178170D01*
X115250788Y-75201493D01*
X115259480Y-75225784D01*
X115265748Y-75250811D01*
X115269534Y-75276331D01*
X115270800Y-75302100D01*
X115270800Y-75827900D01*
X115269534Y-75853669D01*
X115265748Y-75879189D01*
X115259480Y-75904216D01*
X115250788Y-75928507D01*
X115239757Y-75951830D01*
X115226493Y-75973959D01*
X115211124Y-75994682D01*
X115193798Y-76013798D01*
X115174682Y-76031124D01*
X115153959Y-76046493D01*
X115131830Y-76059757D01*
X115108507Y-76070788D01*
X115084216Y-76079480D01*
X115059189Y-76085748D01*
X115033669Y-76089534D01*
X115007900Y-76090800D01*
X114382100Y-76090800D01*
X114356331Y-76089534D01*
X114330811Y-76085748D01*
X114305784Y-76079480D01*
X114281493Y-76070788D01*
X114258170Y-76059757D01*
X114236041Y-76046493D01*
X114215318Y-76031124D01*
X114196202Y-76013798D01*
X114178876Y-75994682D01*
X114163507Y-75973959D01*
X114150243Y-75951830D01*
X114139212Y-75928507D01*
X114130520Y-75904216D01*
X114124252Y-75879189D01*
X114120466Y-75853669D01*
X114119200Y-75827900D01*
X114119200Y-75302100D01*
X114120466Y-75276331D01*
X114124252Y-75250811D01*
X114130520Y-75225784D01*
X114139212Y-75201493D01*
X114150243Y-75178170D01*
X114163507Y-75156041D01*
X114178876Y-75135318D01*
X114196202Y-75116202D01*
X114215318Y-75098876D01*
X114236041Y-75083507D01*
X114258170Y-75070243D01*
X114281493Y-75059212D01*
X114305784Y-75050520D01*
X114330811Y-75044252D01*
X114356331Y-75040466D01*
X114382100Y-75039200D01*
X115007900Y-75039200D01*
X115033669Y-75040466D01*
X115033669Y-75040466D01*
G37*
D14*
X114695000Y-75565000D03*
D13*
G36*
X116783669Y-75040466D02*
G01*
X116809189Y-75044252D01*
X116834216Y-75050520D01*
X116858507Y-75059212D01*
X116881830Y-75070243D01*
X116903959Y-75083507D01*
X116924682Y-75098876D01*
X116943798Y-75116202D01*
X116961124Y-75135318D01*
X116976493Y-75156041D01*
X116989757Y-75178170D01*
X117000788Y-75201493D01*
X117009480Y-75225784D01*
X117015748Y-75250811D01*
X117019534Y-75276331D01*
X117020800Y-75302100D01*
X117020800Y-75827900D01*
X117019534Y-75853669D01*
X117015748Y-75879189D01*
X117009480Y-75904216D01*
X117000788Y-75928507D01*
X116989757Y-75951830D01*
X116976493Y-75973959D01*
X116961124Y-75994682D01*
X116943798Y-76013798D01*
X116924682Y-76031124D01*
X116903959Y-76046493D01*
X116881830Y-76059757D01*
X116858507Y-76070788D01*
X116834216Y-76079480D01*
X116809189Y-76085748D01*
X116783669Y-76089534D01*
X116757900Y-76090800D01*
X116132100Y-76090800D01*
X116106331Y-76089534D01*
X116080811Y-76085748D01*
X116055784Y-76079480D01*
X116031493Y-76070788D01*
X116008170Y-76059757D01*
X115986041Y-76046493D01*
X115965318Y-76031124D01*
X115946202Y-76013798D01*
X115928876Y-75994682D01*
X115913507Y-75973959D01*
X115900243Y-75951830D01*
X115889212Y-75928507D01*
X115880520Y-75904216D01*
X115874252Y-75879189D01*
X115870466Y-75853669D01*
X115869200Y-75827900D01*
X115869200Y-75302100D01*
X115870466Y-75276331D01*
X115874252Y-75250811D01*
X115880520Y-75225784D01*
X115889212Y-75201493D01*
X115900243Y-75178170D01*
X115913507Y-75156041D01*
X115928876Y-75135318D01*
X115946202Y-75116202D01*
X115965318Y-75098876D01*
X115986041Y-75083507D01*
X116008170Y-75070243D01*
X116031493Y-75059212D01*
X116055784Y-75050520D01*
X116080811Y-75044252D01*
X116106331Y-75040466D01*
X116132100Y-75039200D01*
X116757900Y-75039200D01*
X116783669Y-75040466D01*
X116783669Y-75040466D01*
G37*
D14*
X116445000Y-75565000D03*
D13*
G36*
X116783669Y-78850466D02*
G01*
X116809189Y-78854252D01*
X116834216Y-78860520D01*
X116858507Y-78869212D01*
X116881830Y-78880243D01*
X116903959Y-78893507D01*
X116924682Y-78908876D01*
X116943798Y-78926202D01*
X116961124Y-78945318D01*
X116976493Y-78966041D01*
X116989757Y-78988170D01*
X117000788Y-79011493D01*
X117009480Y-79035784D01*
X117015748Y-79060811D01*
X117019534Y-79086331D01*
X117020800Y-79112100D01*
X117020800Y-79637900D01*
X117019534Y-79663669D01*
X117015748Y-79689189D01*
X117009480Y-79714216D01*
X117000788Y-79738507D01*
X116989757Y-79761830D01*
X116976493Y-79783959D01*
X116961124Y-79804682D01*
X116943798Y-79823798D01*
X116924682Y-79841124D01*
X116903959Y-79856493D01*
X116881830Y-79869757D01*
X116858507Y-79880788D01*
X116834216Y-79889480D01*
X116809189Y-79895748D01*
X116783669Y-79899534D01*
X116757900Y-79900800D01*
X116132100Y-79900800D01*
X116106331Y-79899534D01*
X116080811Y-79895748D01*
X116055784Y-79889480D01*
X116031493Y-79880788D01*
X116008170Y-79869757D01*
X115986041Y-79856493D01*
X115965318Y-79841124D01*
X115946202Y-79823798D01*
X115928876Y-79804682D01*
X115913507Y-79783959D01*
X115900243Y-79761830D01*
X115889212Y-79738507D01*
X115880520Y-79714216D01*
X115874252Y-79689189D01*
X115870466Y-79663669D01*
X115869200Y-79637900D01*
X115869200Y-79112100D01*
X115870466Y-79086331D01*
X115874252Y-79060811D01*
X115880520Y-79035784D01*
X115889212Y-79011493D01*
X115900243Y-78988170D01*
X115913507Y-78966041D01*
X115928876Y-78945318D01*
X115946202Y-78926202D01*
X115965318Y-78908876D01*
X115986041Y-78893507D01*
X116008170Y-78880243D01*
X116031493Y-78869212D01*
X116055784Y-78860520D01*
X116080811Y-78854252D01*
X116106331Y-78850466D01*
X116132100Y-78849200D01*
X116757900Y-78849200D01*
X116783669Y-78850466D01*
X116783669Y-78850466D01*
G37*
D14*
X116445000Y-79375000D03*
D13*
G36*
X115033669Y-78850466D02*
G01*
X115059189Y-78854252D01*
X115084216Y-78860520D01*
X115108507Y-78869212D01*
X115131830Y-78880243D01*
X115153959Y-78893507D01*
X115174682Y-78908876D01*
X115193798Y-78926202D01*
X115211124Y-78945318D01*
X115226493Y-78966041D01*
X115239757Y-78988170D01*
X115250788Y-79011493D01*
X115259480Y-79035784D01*
X115265748Y-79060811D01*
X115269534Y-79086331D01*
X115270800Y-79112100D01*
X115270800Y-79637900D01*
X115269534Y-79663669D01*
X115265748Y-79689189D01*
X115259480Y-79714216D01*
X115250788Y-79738507D01*
X115239757Y-79761830D01*
X115226493Y-79783959D01*
X115211124Y-79804682D01*
X115193798Y-79823798D01*
X115174682Y-79841124D01*
X115153959Y-79856493D01*
X115131830Y-79869757D01*
X115108507Y-79880788D01*
X115084216Y-79889480D01*
X115059189Y-79895748D01*
X115033669Y-79899534D01*
X115007900Y-79900800D01*
X114382100Y-79900800D01*
X114356331Y-79899534D01*
X114330811Y-79895748D01*
X114305784Y-79889480D01*
X114281493Y-79880788D01*
X114258170Y-79869757D01*
X114236041Y-79856493D01*
X114215318Y-79841124D01*
X114196202Y-79823798D01*
X114178876Y-79804682D01*
X114163507Y-79783959D01*
X114150243Y-79761830D01*
X114139212Y-79738507D01*
X114130520Y-79714216D01*
X114124252Y-79689189D01*
X114120466Y-79663669D01*
X114119200Y-79637900D01*
X114119200Y-79112100D01*
X114120466Y-79086331D01*
X114124252Y-79060811D01*
X114130520Y-79035784D01*
X114139212Y-79011493D01*
X114150243Y-78988170D01*
X114163507Y-78966041D01*
X114178876Y-78945318D01*
X114196202Y-78926202D01*
X114215318Y-78908876D01*
X114236041Y-78893507D01*
X114258170Y-78880243D01*
X114281493Y-78869212D01*
X114305784Y-78860520D01*
X114330811Y-78854252D01*
X114356331Y-78850466D01*
X114382100Y-78849200D01*
X115007900Y-78849200D01*
X115033669Y-78850466D01*
X115033669Y-78850466D01*
G37*
D14*
X114695000Y-79375000D03*
D13*
G36*
X110972592Y-92995045D02*
G01*
X110989619Y-92997570D01*
X111006316Y-93001753D01*
X111022523Y-93007552D01*
X111038083Y-93014911D01*
X111052847Y-93023760D01*
X111066673Y-93034014D01*
X111079427Y-93045573D01*
X111090986Y-93058327D01*
X111101240Y-93072153D01*
X111110089Y-93086917D01*
X111117448Y-93102477D01*
X111123247Y-93118684D01*
X111127430Y-93135381D01*
X111129955Y-93152408D01*
X111130800Y-93169600D01*
X111130800Y-93520400D01*
X111129955Y-93537592D01*
X111127430Y-93554619D01*
X111123247Y-93571316D01*
X111117448Y-93587523D01*
X111110089Y-93603083D01*
X111101240Y-93617847D01*
X111090986Y-93631673D01*
X111079427Y-93644427D01*
X111066673Y-93655986D01*
X111052847Y-93666240D01*
X111038083Y-93675089D01*
X111022523Y-93682448D01*
X111006316Y-93688247D01*
X110989619Y-93692430D01*
X110972592Y-93694955D01*
X110955400Y-93695800D01*
X109604600Y-93695800D01*
X109587408Y-93694955D01*
X109570381Y-93692430D01*
X109553684Y-93688247D01*
X109537477Y-93682448D01*
X109521917Y-93675089D01*
X109507153Y-93666240D01*
X109493327Y-93655986D01*
X109480573Y-93644427D01*
X109469014Y-93631673D01*
X109458760Y-93617847D01*
X109449911Y-93603083D01*
X109442552Y-93587523D01*
X109436753Y-93571316D01*
X109432570Y-93554619D01*
X109430045Y-93537592D01*
X109429200Y-93520400D01*
X109429200Y-93169600D01*
X109430045Y-93152408D01*
X109432570Y-93135381D01*
X109436753Y-93118684D01*
X109442552Y-93102477D01*
X109449911Y-93086917D01*
X109458760Y-93072153D01*
X109469014Y-93058327D01*
X109480573Y-93045573D01*
X109493327Y-93034014D01*
X109507153Y-93023760D01*
X109521917Y-93014911D01*
X109537477Y-93007552D01*
X109553684Y-93001753D01*
X109570381Y-92997570D01*
X109587408Y-92995045D01*
X109604600Y-92994200D01*
X110955400Y-92994200D01*
X110972592Y-92995045D01*
X110972592Y-92995045D01*
G37*
D15*
X110280000Y-93345000D03*
D13*
G36*
X110972592Y-94265045D02*
G01*
X110989619Y-94267570D01*
X111006316Y-94271753D01*
X111022523Y-94277552D01*
X111038083Y-94284911D01*
X111052847Y-94293760D01*
X111066673Y-94304014D01*
X111079427Y-94315573D01*
X111090986Y-94328327D01*
X111101240Y-94342153D01*
X111110089Y-94356917D01*
X111117448Y-94372477D01*
X111123247Y-94388684D01*
X111127430Y-94405381D01*
X111129955Y-94422408D01*
X111130800Y-94439600D01*
X111130800Y-94790400D01*
X111129955Y-94807592D01*
X111127430Y-94824619D01*
X111123247Y-94841316D01*
X111117448Y-94857523D01*
X111110089Y-94873083D01*
X111101240Y-94887847D01*
X111090986Y-94901673D01*
X111079427Y-94914427D01*
X111066673Y-94925986D01*
X111052847Y-94936240D01*
X111038083Y-94945089D01*
X111022523Y-94952448D01*
X111006316Y-94958247D01*
X110989619Y-94962430D01*
X110972592Y-94964955D01*
X110955400Y-94965800D01*
X109604600Y-94965800D01*
X109587408Y-94964955D01*
X109570381Y-94962430D01*
X109553684Y-94958247D01*
X109537477Y-94952448D01*
X109521917Y-94945089D01*
X109507153Y-94936240D01*
X109493327Y-94925986D01*
X109480573Y-94914427D01*
X109469014Y-94901673D01*
X109458760Y-94887847D01*
X109449911Y-94873083D01*
X109442552Y-94857523D01*
X109436753Y-94841316D01*
X109432570Y-94824619D01*
X109430045Y-94807592D01*
X109429200Y-94790400D01*
X109429200Y-94439600D01*
X109430045Y-94422408D01*
X109432570Y-94405381D01*
X109436753Y-94388684D01*
X109442552Y-94372477D01*
X109449911Y-94356917D01*
X109458760Y-94342153D01*
X109469014Y-94328327D01*
X109480573Y-94315573D01*
X109493327Y-94304014D01*
X109507153Y-94293760D01*
X109521917Y-94284911D01*
X109537477Y-94277552D01*
X109553684Y-94271753D01*
X109570381Y-94267570D01*
X109587408Y-94265045D01*
X109604600Y-94264200D01*
X110955400Y-94264200D01*
X110972592Y-94265045D01*
X110972592Y-94265045D01*
G37*
D15*
X110280000Y-94615000D03*
D13*
G36*
X110972592Y-95535045D02*
G01*
X110989619Y-95537570D01*
X111006316Y-95541753D01*
X111022523Y-95547552D01*
X111038083Y-95554911D01*
X111052847Y-95563760D01*
X111066673Y-95574014D01*
X111079427Y-95585573D01*
X111090986Y-95598327D01*
X111101240Y-95612153D01*
X111110089Y-95626917D01*
X111117448Y-95642477D01*
X111123247Y-95658684D01*
X111127430Y-95675381D01*
X111129955Y-95692408D01*
X111130800Y-95709600D01*
X111130800Y-96060400D01*
X111129955Y-96077592D01*
X111127430Y-96094619D01*
X111123247Y-96111316D01*
X111117448Y-96127523D01*
X111110089Y-96143083D01*
X111101240Y-96157847D01*
X111090986Y-96171673D01*
X111079427Y-96184427D01*
X111066673Y-96195986D01*
X111052847Y-96206240D01*
X111038083Y-96215089D01*
X111022523Y-96222448D01*
X111006316Y-96228247D01*
X110989619Y-96232430D01*
X110972592Y-96234955D01*
X110955400Y-96235800D01*
X109604600Y-96235800D01*
X109587408Y-96234955D01*
X109570381Y-96232430D01*
X109553684Y-96228247D01*
X109537477Y-96222448D01*
X109521917Y-96215089D01*
X109507153Y-96206240D01*
X109493327Y-96195986D01*
X109480573Y-96184427D01*
X109469014Y-96171673D01*
X109458760Y-96157847D01*
X109449911Y-96143083D01*
X109442552Y-96127523D01*
X109436753Y-96111316D01*
X109432570Y-96094619D01*
X109430045Y-96077592D01*
X109429200Y-96060400D01*
X109429200Y-95709600D01*
X109430045Y-95692408D01*
X109432570Y-95675381D01*
X109436753Y-95658684D01*
X109442552Y-95642477D01*
X109449911Y-95626917D01*
X109458760Y-95612153D01*
X109469014Y-95598327D01*
X109480573Y-95585573D01*
X109493327Y-95574014D01*
X109507153Y-95563760D01*
X109521917Y-95554911D01*
X109537477Y-95547552D01*
X109553684Y-95541753D01*
X109570381Y-95537570D01*
X109587408Y-95535045D01*
X109604600Y-95534200D01*
X110955400Y-95534200D01*
X110972592Y-95535045D01*
X110972592Y-95535045D01*
G37*
D15*
X110280000Y-95885000D03*
D13*
G36*
X110972592Y-96805045D02*
G01*
X110989619Y-96807570D01*
X111006316Y-96811753D01*
X111022523Y-96817552D01*
X111038083Y-96824911D01*
X111052847Y-96833760D01*
X111066673Y-96844014D01*
X111079427Y-96855573D01*
X111090986Y-96868327D01*
X111101240Y-96882153D01*
X111110089Y-96896917D01*
X111117448Y-96912477D01*
X111123247Y-96928684D01*
X111127430Y-96945381D01*
X111129955Y-96962408D01*
X111130800Y-96979600D01*
X111130800Y-97330400D01*
X111129955Y-97347592D01*
X111127430Y-97364619D01*
X111123247Y-97381316D01*
X111117448Y-97397523D01*
X111110089Y-97413083D01*
X111101240Y-97427847D01*
X111090986Y-97441673D01*
X111079427Y-97454427D01*
X111066673Y-97465986D01*
X111052847Y-97476240D01*
X111038083Y-97485089D01*
X111022523Y-97492448D01*
X111006316Y-97498247D01*
X110989619Y-97502430D01*
X110972592Y-97504955D01*
X110955400Y-97505800D01*
X109604600Y-97505800D01*
X109587408Y-97504955D01*
X109570381Y-97502430D01*
X109553684Y-97498247D01*
X109537477Y-97492448D01*
X109521917Y-97485089D01*
X109507153Y-97476240D01*
X109493327Y-97465986D01*
X109480573Y-97454427D01*
X109469014Y-97441673D01*
X109458760Y-97427847D01*
X109449911Y-97413083D01*
X109442552Y-97397523D01*
X109436753Y-97381316D01*
X109432570Y-97364619D01*
X109430045Y-97347592D01*
X109429200Y-97330400D01*
X109429200Y-96979600D01*
X109430045Y-96962408D01*
X109432570Y-96945381D01*
X109436753Y-96928684D01*
X109442552Y-96912477D01*
X109449911Y-96896917D01*
X109458760Y-96882153D01*
X109469014Y-96868327D01*
X109480573Y-96855573D01*
X109493327Y-96844014D01*
X109507153Y-96833760D01*
X109521917Y-96824911D01*
X109537477Y-96817552D01*
X109553684Y-96811753D01*
X109570381Y-96807570D01*
X109587408Y-96805045D01*
X109604600Y-96804200D01*
X110955400Y-96804200D01*
X110972592Y-96805045D01*
X110972592Y-96805045D01*
G37*
D15*
X110280000Y-97155000D03*
D13*
G36*
X103772592Y-96805045D02*
G01*
X103789619Y-96807570D01*
X103806316Y-96811753D01*
X103822523Y-96817552D01*
X103838083Y-96824911D01*
X103852847Y-96833760D01*
X103866673Y-96844014D01*
X103879427Y-96855573D01*
X103890986Y-96868327D01*
X103901240Y-96882153D01*
X103910089Y-96896917D01*
X103917448Y-96912477D01*
X103923247Y-96928684D01*
X103927430Y-96945381D01*
X103929955Y-96962408D01*
X103930800Y-96979600D01*
X103930800Y-97330400D01*
X103929955Y-97347592D01*
X103927430Y-97364619D01*
X103923247Y-97381316D01*
X103917448Y-97397523D01*
X103910089Y-97413083D01*
X103901240Y-97427847D01*
X103890986Y-97441673D01*
X103879427Y-97454427D01*
X103866673Y-97465986D01*
X103852847Y-97476240D01*
X103838083Y-97485089D01*
X103822523Y-97492448D01*
X103806316Y-97498247D01*
X103789619Y-97502430D01*
X103772592Y-97504955D01*
X103755400Y-97505800D01*
X102404600Y-97505800D01*
X102387408Y-97504955D01*
X102370381Y-97502430D01*
X102353684Y-97498247D01*
X102337477Y-97492448D01*
X102321917Y-97485089D01*
X102307153Y-97476240D01*
X102293327Y-97465986D01*
X102280573Y-97454427D01*
X102269014Y-97441673D01*
X102258760Y-97427847D01*
X102249911Y-97413083D01*
X102242552Y-97397523D01*
X102236753Y-97381316D01*
X102232570Y-97364619D01*
X102230045Y-97347592D01*
X102229200Y-97330400D01*
X102229200Y-96979600D01*
X102230045Y-96962408D01*
X102232570Y-96945381D01*
X102236753Y-96928684D01*
X102242552Y-96912477D01*
X102249911Y-96896917D01*
X102258760Y-96882153D01*
X102269014Y-96868327D01*
X102280573Y-96855573D01*
X102293327Y-96844014D01*
X102307153Y-96833760D01*
X102321917Y-96824911D01*
X102337477Y-96817552D01*
X102353684Y-96811753D01*
X102370381Y-96807570D01*
X102387408Y-96805045D01*
X102404600Y-96804200D01*
X103755400Y-96804200D01*
X103772592Y-96805045D01*
X103772592Y-96805045D01*
G37*
D15*
X103080000Y-97155000D03*
D13*
G36*
X103772592Y-95535045D02*
G01*
X103789619Y-95537570D01*
X103806316Y-95541753D01*
X103822523Y-95547552D01*
X103838083Y-95554911D01*
X103852847Y-95563760D01*
X103866673Y-95574014D01*
X103879427Y-95585573D01*
X103890986Y-95598327D01*
X103901240Y-95612153D01*
X103910089Y-95626917D01*
X103917448Y-95642477D01*
X103923247Y-95658684D01*
X103927430Y-95675381D01*
X103929955Y-95692408D01*
X103930800Y-95709600D01*
X103930800Y-96060400D01*
X103929955Y-96077592D01*
X103927430Y-96094619D01*
X103923247Y-96111316D01*
X103917448Y-96127523D01*
X103910089Y-96143083D01*
X103901240Y-96157847D01*
X103890986Y-96171673D01*
X103879427Y-96184427D01*
X103866673Y-96195986D01*
X103852847Y-96206240D01*
X103838083Y-96215089D01*
X103822523Y-96222448D01*
X103806316Y-96228247D01*
X103789619Y-96232430D01*
X103772592Y-96234955D01*
X103755400Y-96235800D01*
X102404600Y-96235800D01*
X102387408Y-96234955D01*
X102370381Y-96232430D01*
X102353684Y-96228247D01*
X102337477Y-96222448D01*
X102321917Y-96215089D01*
X102307153Y-96206240D01*
X102293327Y-96195986D01*
X102280573Y-96184427D01*
X102269014Y-96171673D01*
X102258760Y-96157847D01*
X102249911Y-96143083D01*
X102242552Y-96127523D01*
X102236753Y-96111316D01*
X102232570Y-96094619D01*
X102230045Y-96077592D01*
X102229200Y-96060400D01*
X102229200Y-95709600D01*
X102230045Y-95692408D01*
X102232570Y-95675381D01*
X102236753Y-95658684D01*
X102242552Y-95642477D01*
X102249911Y-95626917D01*
X102258760Y-95612153D01*
X102269014Y-95598327D01*
X102280573Y-95585573D01*
X102293327Y-95574014D01*
X102307153Y-95563760D01*
X102321917Y-95554911D01*
X102337477Y-95547552D01*
X102353684Y-95541753D01*
X102370381Y-95537570D01*
X102387408Y-95535045D01*
X102404600Y-95534200D01*
X103755400Y-95534200D01*
X103772592Y-95535045D01*
X103772592Y-95535045D01*
G37*
D15*
X103080000Y-95885000D03*
D13*
G36*
X103772592Y-94265045D02*
G01*
X103789619Y-94267570D01*
X103806316Y-94271753D01*
X103822523Y-94277552D01*
X103838083Y-94284911D01*
X103852847Y-94293760D01*
X103866673Y-94304014D01*
X103879427Y-94315573D01*
X103890986Y-94328327D01*
X103901240Y-94342153D01*
X103910089Y-94356917D01*
X103917448Y-94372477D01*
X103923247Y-94388684D01*
X103927430Y-94405381D01*
X103929955Y-94422408D01*
X103930800Y-94439600D01*
X103930800Y-94790400D01*
X103929955Y-94807592D01*
X103927430Y-94824619D01*
X103923247Y-94841316D01*
X103917448Y-94857523D01*
X103910089Y-94873083D01*
X103901240Y-94887847D01*
X103890986Y-94901673D01*
X103879427Y-94914427D01*
X103866673Y-94925986D01*
X103852847Y-94936240D01*
X103838083Y-94945089D01*
X103822523Y-94952448D01*
X103806316Y-94958247D01*
X103789619Y-94962430D01*
X103772592Y-94964955D01*
X103755400Y-94965800D01*
X102404600Y-94965800D01*
X102387408Y-94964955D01*
X102370381Y-94962430D01*
X102353684Y-94958247D01*
X102337477Y-94952448D01*
X102321917Y-94945089D01*
X102307153Y-94936240D01*
X102293327Y-94925986D01*
X102280573Y-94914427D01*
X102269014Y-94901673D01*
X102258760Y-94887847D01*
X102249911Y-94873083D01*
X102242552Y-94857523D01*
X102236753Y-94841316D01*
X102232570Y-94824619D01*
X102230045Y-94807592D01*
X102229200Y-94790400D01*
X102229200Y-94439600D01*
X102230045Y-94422408D01*
X102232570Y-94405381D01*
X102236753Y-94388684D01*
X102242552Y-94372477D01*
X102249911Y-94356917D01*
X102258760Y-94342153D01*
X102269014Y-94328327D01*
X102280573Y-94315573D01*
X102293327Y-94304014D01*
X102307153Y-94293760D01*
X102321917Y-94284911D01*
X102337477Y-94277552D01*
X102353684Y-94271753D01*
X102370381Y-94267570D01*
X102387408Y-94265045D01*
X102404600Y-94264200D01*
X103755400Y-94264200D01*
X103772592Y-94265045D01*
X103772592Y-94265045D01*
G37*
D15*
X103080000Y-94615000D03*
D13*
G36*
X103772592Y-92995045D02*
G01*
X103789619Y-92997570D01*
X103806316Y-93001753D01*
X103822523Y-93007552D01*
X103838083Y-93014911D01*
X103852847Y-93023760D01*
X103866673Y-93034014D01*
X103879427Y-93045573D01*
X103890986Y-93058327D01*
X103901240Y-93072153D01*
X103910089Y-93086917D01*
X103917448Y-93102477D01*
X103923247Y-93118684D01*
X103927430Y-93135381D01*
X103929955Y-93152408D01*
X103930800Y-93169600D01*
X103930800Y-93520400D01*
X103929955Y-93537592D01*
X103927430Y-93554619D01*
X103923247Y-93571316D01*
X103917448Y-93587523D01*
X103910089Y-93603083D01*
X103901240Y-93617847D01*
X103890986Y-93631673D01*
X103879427Y-93644427D01*
X103866673Y-93655986D01*
X103852847Y-93666240D01*
X103838083Y-93675089D01*
X103822523Y-93682448D01*
X103806316Y-93688247D01*
X103789619Y-93692430D01*
X103772592Y-93694955D01*
X103755400Y-93695800D01*
X102404600Y-93695800D01*
X102387408Y-93694955D01*
X102370381Y-93692430D01*
X102353684Y-93688247D01*
X102337477Y-93682448D01*
X102321917Y-93675089D01*
X102307153Y-93666240D01*
X102293327Y-93655986D01*
X102280573Y-93644427D01*
X102269014Y-93631673D01*
X102258760Y-93617847D01*
X102249911Y-93603083D01*
X102242552Y-93587523D01*
X102236753Y-93571316D01*
X102232570Y-93554619D01*
X102230045Y-93537592D01*
X102229200Y-93520400D01*
X102229200Y-93169600D01*
X102230045Y-93152408D01*
X102232570Y-93135381D01*
X102236753Y-93118684D01*
X102242552Y-93102477D01*
X102249911Y-93086917D01*
X102258760Y-93072153D01*
X102269014Y-93058327D01*
X102280573Y-93045573D01*
X102293327Y-93034014D01*
X102307153Y-93023760D01*
X102321917Y-93014911D01*
X102337477Y-93007552D01*
X102353684Y-93001753D01*
X102370381Y-92997570D01*
X102387408Y-92995045D01*
X102404600Y-92994200D01*
X103755400Y-92994200D01*
X103772592Y-92995045D01*
X103772592Y-92995045D01*
G37*
D15*
X103080000Y-93345000D03*
M02*
