%TF.GenerationSoftware,KiCad,Pcbnew,(5.1.2)-2*%
%TF.CreationDate,2019-08-30T16:56:42-04:00*%
%TF.ProjectId,ButtonInterfaceBoard 0-2,42757474-6f6e-4496-9e74-657266616365,rev?*%
%TF.SameCoordinates,Original*%
%TF.FileFunction,Paste,Top*%
%TF.FilePolarity,Positive*%
%FSLAX46Y46*%
G04 Gerber Fmt 4.6, Leading zero omitted, Abs format (unit mm)*
G04 Created by KiCad (PCBNEW (5.1.2)-2) date 2019-08-30 16:56:42*
%MOMM*%
%LPD*%
G04 APERTURE LIST*
%ADD10C,0.100000*%
%ADD11C,0.950000*%
%ADD12C,0.600000*%
%ADD13R,1.900000X0.800000*%
%ADD14R,1.000000X1.000000*%
G04 APERTURE END LIST*
D10*
G36*
X115005779Y-54771144D02*
G01*
X115028834Y-54774563D01*
X115051443Y-54780227D01*
X115073387Y-54788079D01*
X115094457Y-54798044D01*
X115114448Y-54810026D01*
X115133168Y-54823910D01*
X115150438Y-54839562D01*
X115166090Y-54856832D01*
X115179974Y-54875552D01*
X115191956Y-54895543D01*
X115201921Y-54916613D01*
X115209773Y-54938557D01*
X115215437Y-54961166D01*
X115218856Y-54984221D01*
X115220000Y-55007500D01*
X115220000Y-55482500D01*
X115218856Y-55505779D01*
X115215437Y-55528834D01*
X115209773Y-55551443D01*
X115201921Y-55573387D01*
X115191956Y-55594457D01*
X115179974Y-55614448D01*
X115166090Y-55633168D01*
X115150438Y-55650438D01*
X115133168Y-55666090D01*
X115114448Y-55679974D01*
X115094457Y-55691956D01*
X115073387Y-55701921D01*
X115051443Y-55709773D01*
X115028834Y-55715437D01*
X115005779Y-55718856D01*
X114982500Y-55720000D01*
X114407500Y-55720000D01*
X114384221Y-55718856D01*
X114361166Y-55715437D01*
X114338557Y-55709773D01*
X114316613Y-55701921D01*
X114295543Y-55691956D01*
X114275552Y-55679974D01*
X114256832Y-55666090D01*
X114239562Y-55650438D01*
X114223910Y-55633168D01*
X114210026Y-55614448D01*
X114198044Y-55594457D01*
X114188079Y-55573387D01*
X114180227Y-55551443D01*
X114174563Y-55528834D01*
X114171144Y-55505779D01*
X114170000Y-55482500D01*
X114170000Y-55007500D01*
X114171144Y-54984221D01*
X114174563Y-54961166D01*
X114180227Y-54938557D01*
X114188079Y-54916613D01*
X114198044Y-54895543D01*
X114210026Y-54875552D01*
X114223910Y-54856832D01*
X114239562Y-54839562D01*
X114256832Y-54823910D01*
X114275552Y-54810026D01*
X114295543Y-54798044D01*
X114316613Y-54788079D01*
X114338557Y-54780227D01*
X114361166Y-54774563D01*
X114384221Y-54771144D01*
X114407500Y-54770000D01*
X114982500Y-54770000D01*
X115005779Y-54771144D01*
X115005779Y-54771144D01*
G37*
D11*
X114695000Y-55245000D03*
D10*
G36*
X116755779Y-54771144D02*
G01*
X116778834Y-54774563D01*
X116801443Y-54780227D01*
X116823387Y-54788079D01*
X116844457Y-54798044D01*
X116864448Y-54810026D01*
X116883168Y-54823910D01*
X116900438Y-54839562D01*
X116916090Y-54856832D01*
X116929974Y-54875552D01*
X116941956Y-54895543D01*
X116951921Y-54916613D01*
X116959773Y-54938557D01*
X116965437Y-54961166D01*
X116968856Y-54984221D01*
X116970000Y-55007500D01*
X116970000Y-55482500D01*
X116968856Y-55505779D01*
X116965437Y-55528834D01*
X116959773Y-55551443D01*
X116951921Y-55573387D01*
X116941956Y-55594457D01*
X116929974Y-55614448D01*
X116916090Y-55633168D01*
X116900438Y-55650438D01*
X116883168Y-55666090D01*
X116864448Y-55679974D01*
X116844457Y-55691956D01*
X116823387Y-55701921D01*
X116801443Y-55709773D01*
X116778834Y-55715437D01*
X116755779Y-55718856D01*
X116732500Y-55720000D01*
X116157500Y-55720000D01*
X116134221Y-55718856D01*
X116111166Y-55715437D01*
X116088557Y-55709773D01*
X116066613Y-55701921D01*
X116045543Y-55691956D01*
X116025552Y-55679974D01*
X116006832Y-55666090D01*
X115989562Y-55650438D01*
X115973910Y-55633168D01*
X115960026Y-55614448D01*
X115948044Y-55594457D01*
X115938079Y-55573387D01*
X115930227Y-55551443D01*
X115924563Y-55528834D01*
X115921144Y-55505779D01*
X115920000Y-55482500D01*
X115920000Y-55007500D01*
X115921144Y-54984221D01*
X115924563Y-54961166D01*
X115930227Y-54938557D01*
X115938079Y-54916613D01*
X115948044Y-54895543D01*
X115960026Y-54875552D01*
X115973910Y-54856832D01*
X115989562Y-54839562D01*
X116006832Y-54823910D01*
X116025552Y-54810026D01*
X116045543Y-54798044D01*
X116066613Y-54788079D01*
X116088557Y-54780227D01*
X116111166Y-54774563D01*
X116134221Y-54771144D01*
X116157500Y-54770000D01*
X116732500Y-54770000D01*
X116755779Y-54771144D01*
X116755779Y-54771144D01*
G37*
D11*
X116445000Y-55245000D03*
D10*
G36*
X115005779Y-56676144D02*
G01*
X115028834Y-56679563D01*
X115051443Y-56685227D01*
X115073387Y-56693079D01*
X115094457Y-56703044D01*
X115114448Y-56715026D01*
X115133168Y-56728910D01*
X115150438Y-56744562D01*
X115166090Y-56761832D01*
X115179974Y-56780552D01*
X115191956Y-56800543D01*
X115201921Y-56821613D01*
X115209773Y-56843557D01*
X115215437Y-56866166D01*
X115218856Y-56889221D01*
X115220000Y-56912500D01*
X115220000Y-57387500D01*
X115218856Y-57410779D01*
X115215437Y-57433834D01*
X115209773Y-57456443D01*
X115201921Y-57478387D01*
X115191956Y-57499457D01*
X115179974Y-57519448D01*
X115166090Y-57538168D01*
X115150438Y-57555438D01*
X115133168Y-57571090D01*
X115114448Y-57584974D01*
X115094457Y-57596956D01*
X115073387Y-57606921D01*
X115051443Y-57614773D01*
X115028834Y-57620437D01*
X115005779Y-57623856D01*
X114982500Y-57625000D01*
X114407500Y-57625000D01*
X114384221Y-57623856D01*
X114361166Y-57620437D01*
X114338557Y-57614773D01*
X114316613Y-57606921D01*
X114295543Y-57596956D01*
X114275552Y-57584974D01*
X114256832Y-57571090D01*
X114239562Y-57555438D01*
X114223910Y-57538168D01*
X114210026Y-57519448D01*
X114198044Y-57499457D01*
X114188079Y-57478387D01*
X114180227Y-57456443D01*
X114174563Y-57433834D01*
X114171144Y-57410779D01*
X114170000Y-57387500D01*
X114170000Y-56912500D01*
X114171144Y-56889221D01*
X114174563Y-56866166D01*
X114180227Y-56843557D01*
X114188079Y-56821613D01*
X114198044Y-56800543D01*
X114210026Y-56780552D01*
X114223910Y-56761832D01*
X114239562Y-56744562D01*
X114256832Y-56728910D01*
X114275552Y-56715026D01*
X114295543Y-56703044D01*
X114316613Y-56693079D01*
X114338557Y-56685227D01*
X114361166Y-56679563D01*
X114384221Y-56676144D01*
X114407500Y-56675000D01*
X114982500Y-56675000D01*
X115005779Y-56676144D01*
X115005779Y-56676144D01*
G37*
D11*
X114695000Y-57150000D03*
D10*
G36*
X116755779Y-56676144D02*
G01*
X116778834Y-56679563D01*
X116801443Y-56685227D01*
X116823387Y-56693079D01*
X116844457Y-56703044D01*
X116864448Y-56715026D01*
X116883168Y-56728910D01*
X116900438Y-56744562D01*
X116916090Y-56761832D01*
X116929974Y-56780552D01*
X116941956Y-56800543D01*
X116951921Y-56821613D01*
X116959773Y-56843557D01*
X116965437Y-56866166D01*
X116968856Y-56889221D01*
X116970000Y-56912500D01*
X116970000Y-57387500D01*
X116968856Y-57410779D01*
X116965437Y-57433834D01*
X116959773Y-57456443D01*
X116951921Y-57478387D01*
X116941956Y-57499457D01*
X116929974Y-57519448D01*
X116916090Y-57538168D01*
X116900438Y-57555438D01*
X116883168Y-57571090D01*
X116864448Y-57584974D01*
X116844457Y-57596956D01*
X116823387Y-57606921D01*
X116801443Y-57614773D01*
X116778834Y-57620437D01*
X116755779Y-57623856D01*
X116732500Y-57625000D01*
X116157500Y-57625000D01*
X116134221Y-57623856D01*
X116111166Y-57620437D01*
X116088557Y-57614773D01*
X116066613Y-57606921D01*
X116045543Y-57596956D01*
X116025552Y-57584974D01*
X116006832Y-57571090D01*
X115989562Y-57555438D01*
X115973910Y-57538168D01*
X115960026Y-57519448D01*
X115948044Y-57499457D01*
X115938079Y-57478387D01*
X115930227Y-57456443D01*
X115924563Y-57433834D01*
X115921144Y-57410779D01*
X115920000Y-57387500D01*
X115920000Y-56912500D01*
X115921144Y-56889221D01*
X115924563Y-56866166D01*
X115930227Y-56843557D01*
X115938079Y-56821613D01*
X115948044Y-56800543D01*
X115960026Y-56780552D01*
X115973910Y-56761832D01*
X115989562Y-56744562D01*
X116006832Y-56728910D01*
X116025552Y-56715026D01*
X116045543Y-56703044D01*
X116066613Y-56693079D01*
X116088557Y-56685227D01*
X116111166Y-56679563D01*
X116134221Y-56676144D01*
X116157500Y-56675000D01*
X116732500Y-56675000D01*
X116755779Y-56676144D01*
X116755779Y-56676144D01*
G37*
D11*
X116445000Y-57150000D03*
D10*
G36*
X99765779Y-55406144D02*
G01*
X99788834Y-55409563D01*
X99811443Y-55415227D01*
X99833387Y-55423079D01*
X99854457Y-55433044D01*
X99874448Y-55445026D01*
X99893168Y-55458910D01*
X99910438Y-55474562D01*
X99926090Y-55491832D01*
X99939974Y-55510552D01*
X99951956Y-55530543D01*
X99961921Y-55551613D01*
X99969773Y-55573557D01*
X99975437Y-55596166D01*
X99978856Y-55619221D01*
X99980000Y-55642500D01*
X99980000Y-56117500D01*
X99978856Y-56140779D01*
X99975437Y-56163834D01*
X99969773Y-56186443D01*
X99961921Y-56208387D01*
X99951956Y-56229457D01*
X99939974Y-56249448D01*
X99926090Y-56268168D01*
X99910438Y-56285438D01*
X99893168Y-56301090D01*
X99874448Y-56314974D01*
X99854457Y-56326956D01*
X99833387Y-56336921D01*
X99811443Y-56344773D01*
X99788834Y-56350437D01*
X99765779Y-56353856D01*
X99742500Y-56355000D01*
X99167500Y-56355000D01*
X99144221Y-56353856D01*
X99121166Y-56350437D01*
X99098557Y-56344773D01*
X99076613Y-56336921D01*
X99055543Y-56326956D01*
X99035552Y-56314974D01*
X99016832Y-56301090D01*
X98999562Y-56285438D01*
X98983910Y-56268168D01*
X98970026Y-56249448D01*
X98958044Y-56229457D01*
X98948079Y-56208387D01*
X98940227Y-56186443D01*
X98934563Y-56163834D01*
X98931144Y-56140779D01*
X98930000Y-56117500D01*
X98930000Y-55642500D01*
X98931144Y-55619221D01*
X98934563Y-55596166D01*
X98940227Y-55573557D01*
X98948079Y-55551613D01*
X98958044Y-55530543D01*
X98970026Y-55510552D01*
X98983910Y-55491832D01*
X98999562Y-55474562D01*
X99016832Y-55458910D01*
X99035552Y-55445026D01*
X99055543Y-55433044D01*
X99076613Y-55423079D01*
X99098557Y-55415227D01*
X99121166Y-55409563D01*
X99144221Y-55406144D01*
X99167500Y-55405000D01*
X99742500Y-55405000D01*
X99765779Y-55406144D01*
X99765779Y-55406144D01*
G37*
D11*
X99455000Y-55880000D03*
D10*
G36*
X101515779Y-55406144D02*
G01*
X101538834Y-55409563D01*
X101561443Y-55415227D01*
X101583387Y-55423079D01*
X101604457Y-55433044D01*
X101624448Y-55445026D01*
X101643168Y-55458910D01*
X101660438Y-55474562D01*
X101676090Y-55491832D01*
X101689974Y-55510552D01*
X101701956Y-55530543D01*
X101711921Y-55551613D01*
X101719773Y-55573557D01*
X101725437Y-55596166D01*
X101728856Y-55619221D01*
X101730000Y-55642500D01*
X101730000Y-56117500D01*
X101728856Y-56140779D01*
X101725437Y-56163834D01*
X101719773Y-56186443D01*
X101711921Y-56208387D01*
X101701956Y-56229457D01*
X101689974Y-56249448D01*
X101676090Y-56268168D01*
X101660438Y-56285438D01*
X101643168Y-56301090D01*
X101624448Y-56314974D01*
X101604457Y-56326956D01*
X101583387Y-56336921D01*
X101561443Y-56344773D01*
X101538834Y-56350437D01*
X101515779Y-56353856D01*
X101492500Y-56355000D01*
X100917500Y-56355000D01*
X100894221Y-56353856D01*
X100871166Y-56350437D01*
X100848557Y-56344773D01*
X100826613Y-56336921D01*
X100805543Y-56326956D01*
X100785552Y-56314974D01*
X100766832Y-56301090D01*
X100749562Y-56285438D01*
X100733910Y-56268168D01*
X100720026Y-56249448D01*
X100708044Y-56229457D01*
X100698079Y-56208387D01*
X100690227Y-56186443D01*
X100684563Y-56163834D01*
X100681144Y-56140779D01*
X100680000Y-56117500D01*
X100680000Y-55642500D01*
X100681144Y-55619221D01*
X100684563Y-55596166D01*
X100690227Y-55573557D01*
X100698079Y-55551613D01*
X100708044Y-55530543D01*
X100720026Y-55510552D01*
X100733910Y-55491832D01*
X100749562Y-55474562D01*
X100766832Y-55458910D01*
X100785552Y-55445026D01*
X100805543Y-55433044D01*
X100826613Y-55423079D01*
X100848557Y-55415227D01*
X100871166Y-55409563D01*
X100894221Y-55406144D01*
X100917500Y-55405000D01*
X101492500Y-55405000D01*
X101515779Y-55406144D01*
X101515779Y-55406144D01*
G37*
D11*
X101205000Y-55880000D03*
D10*
G36*
X99765779Y-57946144D02*
G01*
X99788834Y-57949563D01*
X99811443Y-57955227D01*
X99833387Y-57963079D01*
X99854457Y-57973044D01*
X99874448Y-57985026D01*
X99893168Y-57998910D01*
X99910438Y-58014562D01*
X99926090Y-58031832D01*
X99939974Y-58050552D01*
X99951956Y-58070543D01*
X99961921Y-58091613D01*
X99969773Y-58113557D01*
X99975437Y-58136166D01*
X99978856Y-58159221D01*
X99980000Y-58182500D01*
X99980000Y-58657500D01*
X99978856Y-58680779D01*
X99975437Y-58703834D01*
X99969773Y-58726443D01*
X99961921Y-58748387D01*
X99951956Y-58769457D01*
X99939974Y-58789448D01*
X99926090Y-58808168D01*
X99910438Y-58825438D01*
X99893168Y-58841090D01*
X99874448Y-58854974D01*
X99854457Y-58866956D01*
X99833387Y-58876921D01*
X99811443Y-58884773D01*
X99788834Y-58890437D01*
X99765779Y-58893856D01*
X99742500Y-58895000D01*
X99167500Y-58895000D01*
X99144221Y-58893856D01*
X99121166Y-58890437D01*
X99098557Y-58884773D01*
X99076613Y-58876921D01*
X99055543Y-58866956D01*
X99035552Y-58854974D01*
X99016832Y-58841090D01*
X98999562Y-58825438D01*
X98983910Y-58808168D01*
X98970026Y-58789448D01*
X98958044Y-58769457D01*
X98948079Y-58748387D01*
X98940227Y-58726443D01*
X98934563Y-58703834D01*
X98931144Y-58680779D01*
X98930000Y-58657500D01*
X98930000Y-58182500D01*
X98931144Y-58159221D01*
X98934563Y-58136166D01*
X98940227Y-58113557D01*
X98948079Y-58091613D01*
X98958044Y-58070543D01*
X98970026Y-58050552D01*
X98983910Y-58031832D01*
X98999562Y-58014562D01*
X99016832Y-57998910D01*
X99035552Y-57985026D01*
X99055543Y-57973044D01*
X99076613Y-57963079D01*
X99098557Y-57955227D01*
X99121166Y-57949563D01*
X99144221Y-57946144D01*
X99167500Y-57945000D01*
X99742500Y-57945000D01*
X99765779Y-57946144D01*
X99765779Y-57946144D01*
G37*
D11*
X99455000Y-58420000D03*
D10*
G36*
X101515779Y-57946144D02*
G01*
X101538834Y-57949563D01*
X101561443Y-57955227D01*
X101583387Y-57963079D01*
X101604457Y-57973044D01*
X101624448Y-57985026D01*
X101643168Y-57998910D01*
X101660438Y-58014562D01*
X101676090Y-58031832D01*
X101689974Y-58050552D01*
X101701956Y-58070543D01*
X101711921Y-58091613D01*
X101719773Y-58113557D01*
X101725437Y-58136166D01*
X101728856Y-58159221D01*
X101730000Y-58182500D01*
X101730000Y-58657500D01*
X101728856Y-58680779D01*
X101725437Y-58703834D01*
X101719773Y-58726443D01*
X101711921Y-58748387D01*
X101701956Y-58769457D01*
X101689974Y-58789448D01*
X101676090Y-58808168D01*
X101660438Y-58825438D01*
X101643168Y-58841090D01*
X101624448Y-58854974D01*
X101604457Y-58866956D01*
X101583387Y-58876921D01*
X101561443Y-58884773D01*
X101538834Y-58890437D01*
X101515779Y-58893856D01*
X101492500Y-58895000D01*
X100917500Y-58895000D01*
X100894221Y-58893856D01*
X100871166Y-58890437D01*
X100848557Y-58884773D01*
X100826613Y-58876921D01*
X100805543Y-58866956D01*
X100785552Y-58854974D01*
X100766832Y-58841090D01*
X100749562Y-58825438D01*
X100733910Y-58808168D01*
X100720026Y-58789448D01*
X100708044Y-58769457D01*
X100698079Y-58748387D01*
X100690227Y-58726443D01*
X100684563Y-58703834D01*
X100681144Y-58680779D01*
X100680000Y-58657500D01*
X100680000Y-58182500D01*
X100681144Y-58159221D01*
X100684563Y-58136166D01*
X100690227Y-58113557D01*
X100698079Y-58091613D01*
X100708044Y-58070543D01*
X100720026Y-58050552D01*
X100733910Y-58031832D01*
X100749562Y-58014562D01*
X100766832Y-57998910D01*
X100785552Y-57985026D01*
X100805543Y-57973044D01*
X100826613Y-57963079D01*
X100848557Y-57955227D01*
X100871166Y-57949563D01*
X100894221Y-57946144D01*
X100917500Y-57945000D01*
X101492500Y-57945000D01*
X101515779Y-57946144D01*
X101515779Y-57946144D01*
G37*
D11*
X101205000Y-58420000D03*
D10*
G36*
X105044703Y-81615722D02*
G01*
X105059264Y-81617882D01*
X105073543Y-81621459D01*
X105087403Y-81626418D01*
X105100710Y-81632712D01*
X105113336Y-81640280D01*
X105125159Y-81649048D01*
X105136066Y-81658934D01*
X105145952Y-81669841D01*
X105154720Y-81681664D01*
X105162288Y-81694290D01*
X105168582Y-81707597D01*
X105173541Y-81721457D01*
X105177118Y-81735736D01*
X105179278Y-81750297D01*
X105180000Y-81765000D01*
X105180000Y-82065000D01*
X105179278Y-82079703D01*
X105177118Y-82094264D01*
X105173541Y-82108543D01*
X105168582Y-82122403D01*
X105162288Y-82135710D01*
X105154720Y-82148336D01*
X105145952Y-82160159D01*
X105136066Y-82171066D01*
X105125159Y-82180952D01*
X105113336Y-82189720D01*
X105100710Y-82197288D01*
X105087403Y-82203582D01*
X105073543Y-82208541D01*
X105059264Y-82212118D01*
X105044703Y-82214278D01*
X105030000Y-82215000D01*
X103380000Y-82215000D01*
X103365297Y-82214278D01*
X103350736Y-82212118D01*
X103336457Y-82208541D01*
X103322597Y-82203582D01*
X103309290Y-82197288D01*
X103296664Y-82189720D01*
X103284841Y-82180952D01*
X103273934Y-82171066D01*
X103264048Y-82160159D01*
X103255280Y-82148336D01*
X103247712Y-82135710D01*
X103241418Y-82122403D01*
X103236459Y-82108543D01*
X103232882Y-82094264D01*
X103230722Y-82079703D01*
X103230000Y-82065000D01*
X103230000Y-81765000D01*
X103230722Y-81750297D01*
X103232882Y-81735736D01*
X103236459Y-81721457D01*
X103241418Y-81707597D01*
X103247712Y-81694290D01*
X103255280Y-81681664D01*
X103264048Y-81669841D01*
X103273934Y-81658934D01*
X103284841Y-81649048D01*
X103296664Y-81640280D01*
X103309290Y-81632712D01*
X103322597Y-81626418D01*
X103336457Y-81621459D01*
X103350736Y-81617882D01*
X103365297Y-81615722D01*
X103380000Y-81615000D01*
X105030000Y-81615000D01*
X105044703Y-81615722D01*
X105044703Y-81615722D01*
G37*
D12*
X104205000Y-81915000D03*
D10*
G36*
X105044703Y-82885722D02*
G01*
X105059264Y-82887882D01*
X105073543Y-82891459D01*
X105087403Y-82896418D01*
X105100710Y-82902712D01*
X105113336Y-82910280D01*
X105125159Y-82919048D01*
X105136066Y-82928934D01*
X105145952Y-82939841D01*
X105154720Y-82951664D01*
X105162288Y-82964290D01*
X105168582Y-82977597D01*
X105173541Y-82991457D01*
X105177118Y-83005736D01*
X105179278Y-83020297D01*
X105180000Y-83035000D01*
X105180000Y-83335000D01*
X105179278Y-83349703D01*
X105177118Y-83364264D01*
X105173541Y-83378543D01*
X105168582Y-83392403D01*
X105162288Y-83405710D01*
X105154720Y-83418336D01*
X105145952Y-83430159D01*
X105136066Y-83441066D01*
X105125159Y-83450952D01*
X105113336Y-83459720D01*
X105100710Y-83467288D01*
X105087403Y-83473582D01*
X105073543Y-83478541D01*
X105059264Y-83482118D01*
X105044703Y-83484278D01*
X105030000Y-83485000D01*
X103380000Y-83485000D01*
X103365297Y-83484278D01*
X103350736Y-83482118D01*
X103336457Y-83478541D01*
X103322597Y-83473582D01*
X103309290Y-83467288D01*
X103296664Y-83459720D01*
X103284841Y-83450952D01*
X103273934Y-83441066D01*
X103264048Y-83430159D01*
X103255280Y-83418336D01*
X103247712Y-83405710D01*
X103241418Y-83392403D01*
X103236459Y-83378543D01*
X103232882Y-83364264D01*
X103230722Y-83349703D01*
X103230000Y-83335000D01*
X103230000Y-83035000D01*
X103230722Y-83020297D01*
X103232882Y-83005736D01*
X103236459Y-82991457D01*
X103241418Y-82977597D01*
X103247712Y-82964290D01*
X103255280Y-82951664D01*
X103264048Y-82939841D01*
X103273934Y-82928934D01*
X103284841Y-82919048D01*
X103296664Y-82910280D01*
X103309290Y-82902712D01*
X103322597Y-82896418D01*
X103336457Y-82891459D01*
X103350736Y-82887882D01*
X103365297Y-82885722D01*
X103380000Y-82885000D01*
X105030000Y-82885000D01*
X105044703Y-82885722D01*
X105044703Y-82885722D01*
G37*
D12*
X104205000Y-83185000D03*
D10*
G36*
X105044703Y-84155722D02*
G01*
X105059264Y-84157882D01*
X105073543Y-84161459D01*
X105087403Y-84166418D01*
X105100710Y-84172712D01*
X105113336Y-84180280D01*
X105125159Y-84189048D01*
X105136066Y-84198934D01*
X105145952Y-84209841D01*
X105154720Y-84221664D01*
X105162288Y-84234290D01*
X105168582Y-84247597D01*
X105173541Y-84261457D01*
X105177118Y-84275736D01*
X105179278Y-84290297D01*
X105180000Y-84305000D01*
X105180000Y-84605000D01*
X105179278Y-84619703D01*
X105177118Y-84634264D01*
X105173541Y-84648543D01*
X105168582Y-84662403D01*
X105162288Y-84675710D01*
X105154720Y-84688336D01*
X105145952Y-84700159D01*
X105136066Y-84711066D01*
X105125159Y-84720952D01*
X105113336Y-84729720D01*
X105100710Y-84737288D01*
X105087403Y-84743582D01*
X105073543Y-84748541D01*
X105059264Y-84752118D01*
X105044703Y-84754278D01*
X105030000Y-84755000D01*
X103380000Y-84755000D01*
X103365297Y-84754278D01*
X103350736Y-84752118D01*
X103336457Y-84748541D01*
X103322597Y-84743582D01*
X103309290Y-84737288D01*
X103296664Y-84729720D01*
X103284841Y-84720952D01*
X103273934Y-84711066D01*
X103264048Y-84700159D01*
X103255280Y-84688336D01*
X103247712Y-84675710D01*
X103241418Y-84662403D01*
X103236459Y-84648543D01*
X103232882Y-84634264D01*
X103230722Y-84619703D01*
X103230000Y-84605000D01*
X103230000Y-84305000D01*
X103230722Y-84290297D01*
X103232882Y-84275736D01*
X103236459Y-84261457D01*
X103241418Y-84247597D01*
X103247712Y-84234290D01*
X103255280Y-84221664D01*
X103264048Y-84209841D01*
X103273934Y-84198934D01*
X103284841Y-84189048D01*
X103296664Y-84180280D01*
X103309290Y-84172712D01*
X103322597Y-84166418D01*
X103336457Y-84161459D01*
X103350736Y-84157882D01*
X103365297Y-84155722D01*
X103380000Y-84155000D01*
X105030000Y-84155000D01*
X105044703Y-84155722D01*
X105044703Y-84155722D01*
G37*
D12*
X104205000Y-84455000D03*
D10*
G36*
X105044703Y-85425722D02*
G01*
X105059264Y-85427882D01*
X105073543Y-85431459D01*
X105087403Y-85436418D01*
X105100710Y-85442712D01*
X105113336Y-85450280D01*
X105125159Y-85459048D01*
X105136066Y-85468934D01*
X105145952Y-85479841D01*
X105154720Y-85491664D01*
X105162288Y-85504290D01*
X105168582Y-85517597D01*
X105173541Y-85531457D01*
X105177118Y-85545736D01*
X105179278Y-85560297D01*
X105180000Y-85575000D01*
X105180000Y-85875000D01*
X105179278Y-85889703D01*
X105177118Y-85904264D01*
X105173541Y-85918543D01*
X105168582Y-85932403D01*
X105162288Y-85945710D01*
X105154720Y-85958336D01*
X105145952Y-85970159D01*
X105136066Y-85981066D01*
X105125159Y-85990952D01*
X105113336Y-85999720D01*
X105100710Y-86007288D01*
X105087403Y-86013582D01*
X105073543Y-86018541D01*
X105059264Y-86022118D01*
X105044703Y-86024278D01*
X105030000Y-86025000D01*
X103380000Y-86025000D01*
X103365297Y-86024278D01*
X103350736Y-86022118D01*
X103336457Y-86018541D01*
X103322597Y-86013582D01*
X103309290Y-86007288D01*
X103296664Y-85999720D01*
X103284841Y-85990952D01*
X103273934Y-85981066D01*
X103264048Y-85970159D01*
X103255280Y-85958336D01*
X103247712Y-85945710D01*
X103241418Y-85932403D01*
X103236459Y-85918543D01*
X103232882Y-85904264D01*
X103230722Y-85889703D01*
X103230000Y-85875000D01*
X103230000Y-85575000D01*
X103230722Y-85560297D01*
X103232882Y-85545736D01*
X103236459Y-85531457D01*
X103241418Y-85517597D01*
X103247712Y-85504290D01*
X103255280Y-85491664D01*
X103264048Y-85479841D01*
X103273934Y-85468934D01*
X103284841Y-85459048D01*
X103296664Y-85450280D01*
X103309290Y-85442712D01*
X103322597Y-85436418D01*
X103336457Y-85431459D01*
X103350736Y-85427882D01*
X103365297Y-85425722D01*
X103380000Y-85425000D01*
X105030000Y-85425000D01*
X105044703Y-85425722D01*
X105044703Y-85425722D01*
G37*
D12*
X104205000Y-85725000D03*
D10*
G36*
X109994703Y-85425722D02*
G01*
X110009264Y-85427882D01*
X110023543Y-85431459D01*
X110037403Y-85436418D01*
X110050710Y-85442712D01*
X110063336Y-85450280D01*
X110075159Y-85459048D01*
X110086066Y-85468934D01*
X110095952Y-85479841D01*
X110104720Y-85491664D01*
X110112288Y-85504290D01*
X110118582Y-85517597D01*
X110123541Y-85531457D01*
X110127118Y-85545736D01*
X110129278Y-85560297D01*
X110130000Y-85575000D01*
X110130000Y-85875000D01*
X110129278Y-85889703D01*
X110127118Y-85904264D01*
X110123541Y-85918543D01*
X110118582Y-85932403D01*
X110112288Y-85945710D01*
X110104720Y-85958336D01*
X110095952Y-85970159D01*
X110086066Y-85981066D01*
X110075159Y-85990952D01*
X110063336Y-85999720D01*
X110050710Y-86007288D01*
X110037403Y-86013582D01*
X110023543Y-86018541D01*
X110009264Y-86022118D01*
X109994703Y-86024278D01*
X109980000Y-86025000D01*
X108330000Y-86025000D01*
X108315297Y-86024278D01*
X108300736Y-86022118D01*
X108286457Y-86018541D01*
X108272597Y-86013582D01*
X108259290Y-86007288D01*
X108246664Y-85999720D01*
X108234841Y-85990952D01*
X108223934Y-85981066D01*
X108214048Y-85970159D01*
X108205280Y-85958336D01*
X108197712Y-85945710D01*
X108191418Y-85932403D01*
X108186459Y-85918543D01*
X108182882Y-85904264D01*
X108180722Y-85889703D01*
X108180000Y-85875000D01*
X108180000Y-85575000D01*
X108180722Y-85560297D01*
X108182882Y-85545736D01*
X108186459Y-85531457D01*
X108191418Y-85517597D01*
X108197712Y-85504290D01*
X108205280Y-85491664D01*
X108214048Y-85479841D01*
X108223934Y-85468934D01*
X108234841Y-85459048D01*
X108246664Y-85450280D01*
X108259290Y-85442712D01*
X108272597Y-85436418D01*
X108286457Y-85431459D01*
X108300736Y-85427882D01*
X108315297Y-85425722D01*
X108330000Y-85425000D01*
X109980000Y-85425000D01*
X109994703Y-85425722D01*
X109994703Y-85425722D01*
G37*
D12*
X109155000Y-85725000D03*
D10*
G36*
X109994703Y-84155722D02*
G01*
X110009264Y-84157882D01*
X110023543Y-84161459D01*
X110037403Y-84166418D01*
X110050710Y-84172712D01*
X110063336Y-84180280D01*
X110075159Y-84189048D01*
X110086066Y-84198934D01*
X110095952Y-84209841D01*
X110104720Y-84221664D01*
X110112288Y-84234290D01*
X110118582Y-84247597D01*
X110123541Y-84261457D01*
X110127118Y-84275736D01*
X110129278Y-84290297D01*
X110130000Y-84305000D01*
X110130000Y-84605000D01*
X110129278Y-84619703D01*
X110127118Y-84634264D01*
X110123541Y-84648543D01*
X110118582Y-84662403D01*
X110112288Y-84675710D01*
X110104720Y-84688336D01*
X110095952Y-84700159D01*
X110086066Y-84711066D01*
X110075159Y-84720952D01*
X110063336Y-84729720D01*
X110050710Y-84737288D01*
X110037403Y-84743582D01*
X110023543Y-84748541D01*
X110009264Y-84752118D01*
X109994703Y-84754278D01*
X109980000Y-84755000D01*
X108330000Y-84755000D01*
X108315297Y-84754278D01*
X108300736Y-84752118D01*
X108286457Y-84748541D01*
X108272597Y-84743582D01*
X108259290Y-84737288D01*
X108246664Y-84729720D01*
X108234841Y-84720952D01*
X108223934Y-84711066D01*
X108214048Y-84700159D01*
X108205280Y-84688336D01*
X108197712Y-84675710D01*
X108191418Y-84662403D01*
X108186459Y-84648543D01*
X108182882Y-84634264D01*
X108180722Y-84619703D01*
X108180000Y-84605000D01*
X108180000Y-84305000D01*
X108180722Y-84290297D01*
X108182882Y-84275736D01*
X108186459Y-84261457D01*
X108191418Y-84247597D01*
X108197712Y-84234290D01*
X108205280Y-84221664D01*
X108214048Y-84209841D01*
X108223934Y-84198934D01*
X108234841Y-84189048D01*
X108246664Y-84180280D01*
X108259290Y-84172712D01*
X108272597Y-84166418D01*
X108286457Y-84161459D01*
X108300736Y-84157882D01*
X108315297Y-84155722D01*
X108330000Y-84155000D01*
X109980000Y-84155000D01*
X109994703Y-84155722D01*
X109994703Y-84155722D01*
G37*
D12*
X109155000Y-84455000D03*
D10*
G36*
X109994703Y-82885722D02*
G01*
X110009264Y-82887882D01*
X110023543Y-82891459D01*
X110037403Y-82896418D01*
X110050710Y-82902712D01*
X110063336Y-82910280D01*
X110075159Y-82919048D01*
X110086066Y-82928934D01*
X110095952Y-82939841D01*
X110104720Y-82951664D01*
X110112288Y-82964290D01*
X110118582Y-82977597D01*
X110123541Y-82991457D01*
X110127118Y-83005736D01*
X110129278Y-83020297D01*
X110130000Y-83035000D01*
X110130000Y-83335000D01*
X110129278Y-83349703D01*
X110127118Y-83364264D01*
X110123541Y-83378543D01*
X110118582Y-83392403D01*
X110112288Y-83405710D01*
X110104720Y-83418336D01*
X110095952Y-83430159D01*
X110086066Y-83441066D01*
X110075159Y-83450952D01*
X110063336Y-83459720D01*
X110050710Y-83467288D01*
X110037403Y-83473582D01*
X110023543Y-83478541D01*
X110009264Y-83482118D01*
X109994703Y-83484278D01*
X109980000Y-83485000D01*
X108330000Y-83485000D01*
X108315297Y-83484278D01*
X108300736Y-83482118D01*
X108286457Y-83478541D01*
X108272597Y-83473582D01*
X108259290Y-83467288D01*
X108246664Y-83459720D01*
X108234841Y-83450952D01*
X108223934Y-83441066D01*
X108214048Y-83430159D01*
X108205280Y-83418336D01*
X108197712Y-83405710D01*
X108191418Y-83392403D01*
X108186459Y-83378543D01*
X108182882Y-83364264D01*
X108180722Y-83349703D01*
X108180000Y-83335000D01*
X108180000Y-83035000D01*
X108180722Y-83020297D01*
X108182882Y-83005736D01*
X108186459Y-82991457D01*
X108191418Y-82977597D01*
X108197712Y-82964290D01*
X108205280Y-82951664D01*
X108214048Y-82939841D01*
X108223934Y-82928934D01*
X108234841Y-82919048D01*
X108246664Y-82910280D01*
X108259290Y-82902712D01*
X108272597Y-82896418D01*
X108286457Y-82891459D01*
X108300736Y-82887882D01*
X108315297Y-82885722D01*
X108330000Y-82885000D01*
X109980000Y-82885000D01*
X109994703Y-82885722D01*
X109994703Y-82885722D01*
G37*
D12*
X109155000Y-83185000D03*
D10*
G36*
X109994703Y-81615722D02*
G01*
X110009264Y-81617882D01*
X110023543Y-81621459D01*
X110037403Y-81626418D01*
X110050710Y-81632712D01*
X110063336Y-81640280D01*
X110075159Y-81649048D01*
X110086066Y-81658934D01*
X110095952Y-81669841D01*
X110104720Y-81681664D01*
X110112288Y-81694290D01*
X110118582Y-81707597D01*
X110123541Y-81721457D01*
X110127118Y-81735736D01*
X110129278Y-81750297D01*
X110130000Y-81765000D01*
X110130000Y-82065000D01*
X110129278Y-82079703D01*
X110127118Y-82094264D01*
X110123541Y-82108543D01*
X110118582Y-82122403D01*
X110112288Y-82135710D01*
X110104720Y-82148336D01*
X110095952Y-82160159D01*
X110086066Y-82171066D01*
X110075159Y-82180952D01*
X110063336Y-82189720D01*
X110050710Y-82197288D01*
X110037403Y-82203582D01*
X110023543Y-82208541D01*
X110009264Y-82212118D01*
X109994703Y-82214278D01*
X109980000Y-82215000D01*
X108330000Y-82215000D01*
X108315297Y-82214278D01*
X108300736Y-82212118D01*
X108286457Y-82208541D01*
X108272597Y-82203582D01*
X108259290Y-82197288D01*
X108246664Y-82189720D01*
X108234841Y-82180952D01*
X108223934Y-82171066D01*
X108214048Y-82160159D01*
X108205280Y-82148336D01*
X108197712Y-82135710D01*
X108191418Y-82122403D01*
X108186459Y-82108543D01*
X108182882Y-82094264D01*
X108180722Y-82079703D01*
X108180000Y-82065000D01*
X108180000Y-81765000D01*
X108180722Y-81750297D01*
X108182882Y-81735736D01*
X108186459Y-81721457D01*
X108191418Y-81707597D01*
X108197712Y-81694290D01*
X108205280Y-81681664D01*
X108214048Y-81669841D01*
X108223934Y-81658934D01*
X108234841Y-81649048D01*
X108246664Y-81640280D01*
X108259290Y-81632712D01*
X108272597Y-81626418D01*
X108286457Y-81621459D01*
X108300736Y-81617882D01*
X108315297Y-81615722D01*
X108330000Y-81615000D01*
X109980000Y-81615000D01*
X109994703Y-81615722D01*
X109994703Y-81615722D01*
G37*
D12*
X109155000Y-81915000D03*
D10*
G36*
X105044703Y-68280722D02*
G01*
X105059264Y-68282882D01*
X105073543Y-68286459D01*
X105087403Y-68291418D01*
X105100710Y-68297712D01*
X105113336Y-68305280D01*
X105125159Y-68314048D01*
X105136066Y-68323934D01*
X105145952Y-68334841D01*
X105154720Y-68346664D01*
X105162288Y-68359290D01*
X105168582Y-68372597D01*
X105173541Y-68386457D01*
X105177118Y-68400736D01*
X105179278Y-68415297D01*
X105180000Y-68430000D01*
X105180000Y-68730000D01*
X105179278Y-68744703D01*
X105177118Y-68759264D01*
X105173541Y-68773543D01*
X105168582Y-68787403D01*
X105162288Y-68800710D01*
X105154720Y-68813336D01*
X105145952Y-68825159D01*
X105136066Y-68836066D01*
X105125159Y-68845952D01*
X105113336Y-68854720D01*
X105100710Y-68862288D01*
X105087403Y-68868582D01*
X105073543Y-68873541D01*
X105059264Y-68877118D01*
X105044703Y-68879278D01*
X105030000Y-68880000D01*
X103380000Y-68880000D01*
X103365297Y-68879278D01*
X103350736Y-68877118D01*
X103336457Y-68873541D01*
X103322597Y-68868582D01*
X103309290Y-68862288D01*
X103296664Y-68854720D01*
X103284841Y-68845952D01*
X103273934Y-68836066D01*
X103264048Y-68825159D01*
X103255280Y-68813336D01*
X103247712Y-68800710D01*
X103241418Y-68787403D01*
X103236459Y-68773543D01*
X103232882Y-68759264D01*
X103230722Y-68744703D01*
X103230000Y-68730000D01*
X103230000Y-68430000D01*
X103230722Y-68415297D01*
X103232882Y-68400736D01*
X103236459Y-68386457D01*
X103241418Y-68372597D01*
X103247712Y-68359290D01*
X103255280Y-68346664D01*
X103264048Y-68334841D01*
X103273934Y-68323934D01*
X103284841Y-68314048D01*
X103296664Y-68305280D01*
X103309290Y-68297712D01*
X103322597Y-68291418D01*
X103336457Y-68286459D01*
X103350736Y-68282882D01*
X103365297Y-68280722D01*
X103380000Y-68280000D01*
X105030000Y-68280000D01*
X105044703Y-68280722D01*
X105044703Y-68280722D01*
G37*
D12*
X104205000Y-68580000D03*
D10*
G36*
X105044703Y-69550722D02*
G01*
X105059264Y-69552882D01*
X105073543Y-69556459D01*
X105087403Y-69561418D01*
X105100710Y-69567712D01*
X105113336Y-69575280D01*
X105125159Y-69584048D01*
X105136066Y-69593934D01*
X105145952Y-69604841D01*
X105154720Y-69616664D01*
X105162288Y-69629290D01*
X105168582Y-69642597D01*
X105173541Y-69656457D01*
X105177118Y-69670736D01*
X105179278Y-69685297D01*
X105180000Y-69700000D01*
X105180000Y-70000000D01*
X105179278Y-70014703D01*
X105177118Y-70029264D01*
X105173541Y-70043543D01*
X105168582Y-70057403D01*
X105162288Y-70070710D01*
X105154720Y-70083336D01*
X105145952Y-70095159D01*
X105136066Y-70106066D01*
X105125159Y-70115952D01*
X105113336Y-70124720D01*
X105100710Y-70132288D01*
X105087403Y-70138582D01*
X105073543Y-70143541D01*
X105059264Y-70147118D01*
X105044703Y-70149278D01*
X105030000Y-70150000D01*
X103380000Y-70150000D01*
X103365297Y-70149278D01*
X103350736Y-70147118D01*
X103336457Y-70143541D01*
X103322597Y-70138582D01*
X103309290Y-70132288D01*
X103296664Y-70124720D01*
X103284841Y-70115952D01*
X103273934Y-70106066D01*
X103264048Y-70095159D01*
X103255280Y-70083336D01*
X103247712Y-70070710D01*
X103241418Y-70057403D01*
X103236459Y-70043543D01*
X103232882Y-70029264D01*
X103230722Y-70014703D01*
X103230000Y-70000000D01*
X103230000Y-69700000D01*
X103230722Y-69685297D01*
X103232882Y-69670736D01*
X103236459Y-69656457D01*
X103241418Y-69642597D01*
X103247712Y-69629290D01*
X103255280Y-69616664D01*
X103264048Y-69604841D01*
X103273934Y-69593934D01*
X103284841Y-69584048D01*
X103296664Y-69575280D01*
X103309290Y-69567712D01*
X103322597Y-69561418D01*
X103336457Y-69556459D01*
X103350736Y-69552882D01*
X103365297Y-69550722D01*
X103380000Y-69550000D01*
X105030000Y-69550000D01*
X105044703Y-69550722D01*
X105044703Y-69550722D01*
G37*
D12*
X104205000Y-69850000D03*
D10*
G36*
X105044703Y-70820722D02*
G01*
X105059264Y-70822882D01*
X105073543Y-70826459D01*
X105087403Y-70831418D01*
X105100710Y-70837712D01*
X105113336Y-70845280D01*
X105125159Y-70854048D01*
X105136066Y-70863934D01*
X105145952Y-70874841D01*
X105154720Y-70886664D01*
X105162288Y-70899290D01*
X105168582Y-70912597D01*
X105173541Y-70926457D01*
X105177118Y-70940736D01*
X105179278Y-70955297D01*
X105180000Y-70970000D01*
X105180000Y-71270000D01*
X105179278Y-71284703D01*
X105177118Y-71299264D01*
X105173541Y-71313543D01*
X105168582Y-71327403D01*
X105162288Y-71340710D01*
X105154720Y-71353336D01*
X105145952Y-71365159D01*
X105136066Y-71376066D01*
X105125159Y-71385952D01*
X105113336Y-71394720D01*
X105100710Y-71402288D01*
X105087403Y-71408582D01*
X105073543Y-71413541D01*
X105059264Y-71417118D01*
X105044703Y-71419278D01*
X105030000Y-71420000D01*
X103380000Y-71420000D01*
X103365297Y-71419278D01*
X103350736Y-71417118D01*
X103336457Y-71413541D01*
X103322597Y-71408582D01*
X103309290Y-71402288D01*
X103296664Y-71394720D01*
X103284841Y-71385952D01*
X103273934Y-71376066D01*
X103264048Y-71365159D01*
X103255280Y-71353336D01*
X103247712Y-71340710D01*
X103241418Y-71327403D01*
X103236459Y-71313543D01*
X103232882Y-71299264D01*
X103230722Y-71284703D01*
X103230000Y-71270000D01*
X103230000Y-70970000D01*
X103230722Y-70955297D01*
X103232882Y-70940736D01*
X103236459Y-70926457D01*
X103241418Y-70912597D01*
X103247712Y-70899290D01*
X103255280Y-70886664D01*
X103264048Y-70874841D01*
X103273934Y-70863934D01*
X103284841Y-70854048D01*
X103296664Y-70845280D01*
X103309290Y-70837712D01*
X103322597Y-70831418D01*
X103336457Y-70826459D01*
X103350736Y-70822882D01*
X103365297Y-70820722D01*
X103380000Y-70820000D01*
X105030000Y-70820000D01*
X105044703Y-70820722D01*
X105044703Y-70820722D01*
G37*
D12*
X104205000Y-71120000D03*
D10*
G36*
X105044703Y-72090722D02*
G01*
X105059264Y-72092882D01*
X105073543Y-72096459D01*
X105087403Y-72101418D01*
X105100710Y-72107712D01*
X105113336Y-72115280D01*
X105125159Y-72124048D01*
X105136066Y-72133934D01*
X105145952Y-72144841D01*
X105154720Y-72156664D01*
X105162288Y-72169290D01*
X105168582Y-72182597D01*
X105173541Y-72196457D01*
X105177118Y-72210736D01*
X105179278Y-72225297D01*
X105180000Y-72240000D01*
X105180000Y-72540000D01*
X105179278Y-72554703D01*
X105177118Y-72569264D01*
X105173541Y-72583543D01*
X105168582Y-72597403D01*
X105162288Y-72610710D01*
X105154720Y-72623336D01*
X105145952Y-72635159D01*
X105136066Y-72646066D01*
X105125159Y-72655952D01*
X105113336Y-72664720D01*
X105100710Y-72672288D01*
X105087403Y-72678582D01*
X105073543Y-72683541D01*
X105059264Y-72687118D01*
X105044703Y-72689278D01*
X105030000Y-72690000D01*
X103380000Y-72690000D01*
X103365297Y-72689278D01*
X103350736Y-72687118D01*
X103336457Y-72683541D01*
X103322597Y-72678582D01*
X103309290Y-72672288D01*
X103296664Y-72664720D01*
X103284841Y-72655952D01*
X103273934Y-72646066D01*
X103264048Y-72635159D01*
X103255280Y-72623336D01*
X103247712Y-72610710D01*
X103241418Y-72597403D01*
X103236459Y-72583543D01*
X103232882Y-72569264D01*
X103230722Y-72554703D01*
X103230000Y-72540000D01*
X103230000Y-72240000D01*
X103230722Y-72225297D01*
X103232882Y-72210736D01*
X103236459Y-72196457D01*
X103241418Y-72182597D01*
X103247712Y-72169290D01*
X103255280Y-72156664D01*
X103264048Y-72144841D01*
X103273934Y-72133934D01*
X103284841Y-72124048D01*
X103296664Y-72115280D01*
X103309290Y-72107712D01*
X103322597Y-72101418D01*
X103336457Y-72096459D01*
X103350736Y-72092882D01*
X103365297Y-72090722D01*
X103380000Y-72090000D01*
X105030000Y-72090000D01*
X105044703Y-72090722D01*
X105044703Y-72090722D01*
G37*
D12*
X104205000Y-72390000D03*
D10*
G36*
X105044703Y-73360722D02*
G01*
X105059264Y-73362882D01*
X105073543Y-73366459D01*
X105087403Y-73371418D01*
X105100710Y-73377712D01*
X105113336Y-73385280D01*
X105125159Y-73394048D01*
X105136066Y-73403934D01*
X105145952Y-73414841D01*
X105154720Y-73426664D01*
X105162288Y-73439290D01*
X105168582Y-73452597D01*
X105173541Y-73466457D01*
X105177118Y-73480736D01*
X105179278Y-73495297D01*
X105180000Y-73510000D01*
X105180000Y-73810000D01*
X105179278Y-73824703D01*
X105177118Y-73839264D01*
X105173541Y-73853543D01*
X105168582Y-73867403D01*
X105162288Y-73880710D01*
X105154720Y-73893336D01*
X105145952Y-73905159D01*
X105136066Y-73916066D01*
X105125159Y-73925952D01*
X105113336Y-73934720D01*
X105100710Y-73942288D01*
X105087403Y-73948582D01*
X105073543Y-73953541D01*
X105059264Y-73957118D01*
X105044703Y-73959278D01*
X105030000Y-73960000D01*
X103380000Y-73960000D01*
X103365297Y-73959278D01*
X103350736Y-73957118D01*
X103336457Y-73953541D01*
X103322597Y-73948582D01*
X103309290Y-73942288D01*
X103296664Y-73934720D01*
X103284841Y-73925952D01*
X103273934Y-73916066D01*
X103264048Y-73905159D01*
X103255280Y-73893336D01*
X103247712Y-73880710D01*
X103241418Y-73867403D01*
X103236459Y-73853543D01*
X103232882Y-73839264D01*
X103230722Y-73824703D01*
X103230000Y-73810000D01*
X103230000Y-73510000D01*
X103230722Y-73495297D01*
X103232882Y-73480736D01*
X103236459Y-73466457D01*
X103241418Y-73452597D01*
X103247712Y-73439290D01*
X103255280Y-73426664D01*
X103264048Y-73414841D01*
X103273934Y-73403934D01*
X103284841Y-73394048D01*
X103296664Y-73385280D01*
X103309290Y-73377712D01*
X103322597Y-73371418D01*
X103336457Y-73366459D01*
X103350736Y-73362882D01*
X103365297Y-73360722D01*
X103380000Y-73360000D01*
X105030000Y-73360000D01*
X105044703Y-73360722D01*
X105044703Y-73360722D01*
G37*
D12*
X104205000Y-73660000D03*
D10*
G36*
X105044703Y-74630722D02*
G01*
X105059264Y-74632882D01*
X105073543Y-74636459D01*
X105087403Y-74641418D01*
X105100710Y-74647712D01*
X105113336Y-74655280D01*
X105125159Y-74664048D01*
X105136066Y-74673934D01*
X105145952Y-74684841D01*
X105154720Y-74696664D01*
X105162288Y-74709290D01*
X105168582Y-74722597D01*
X105173541Y-74736457D01*
X105177118Y-74750736D01*
X105179278Y-74765297D01*
X105180000Y-74780000D01*
X105180000Y-75080000D01*
X105179278Y-75094703D01*
X105177118Y-75109264D01*
X105173541Y-75123543D01*
X105168582Y-75137403D01*
X105162288Y-75150710D01*
X105154720Y-75163336D01*
X105145952Y-75175159D01*
X105136066Y-75186066D01*
X105125159Y-75195952D01*
X105113336Y-75204720D01*
X105100710Y-75212288D01*
X105087403Y-75218582D01*
X105073543Y-75223541D01*
X105059264Y-75227118D01*
X105044703Y-75229278D01*
X105030000Y-75230000D01*
X103380000Y-75230000D01*
X103365297Y-75229278D01*
X103350736Y-75227118D01*
X103336457Y-75223541D01*
X103322597Y-75218582D01*
X103309290Y-75212288D01*
X103296664Y-75204720D01*
X103284841Y-75195952D01*
X103273934Y-75186066D01*
X103264048Y-75175159D01*
X103255280Y-75163336D01*
X103247712Y-75150710D01*
X103241418Y-75137403D01*
X103236459Y-75123543D01*
X103232882Y-75109264D01*
X103230722Y-75094703D01*
X103230000Y-75080000D01*
X103230000Y-74780000D01*
X103230722Y-74765297D01*
X103232882Y-74750736D01*
X103236459Y-74736457D01*
X103241418Y-74722597D01*
X103247712Y-74709290D01*
X103255280Y-74696664D01*
X103264048Y-74684841D01*
X103273934Y-74673934D01*
X103284841Y-74664048D01*
X103296664Y-74655280D01*
X103309290Y-74647712D01*
X103322597Y-74641418D01*
X103336457Y-74636459D01*
X103350736Y-74632882D01*
X103365297Y-74630722D01*
X103380000Y-74630000D01*
X105030000Y-74630000D01*
X105044703Y-74630722D01*
X105044703Y-74630722D01*
G37*
D12*
X104205000Y-74930000D03*
D10*
G36*
X105044703Y-75900722D02*
G01*
X105059264Y-75902882D01*
X105073543Y-75906459D01*
X105087403Y-75911418D01*
X105100710Y-75917712D01*
X105113336Y-75925280D01*
X105125159Y-75934048D01*
X105136066Y-75943934D01*
X105145952Y-75954841D01*
X105154720Y-75966664D01*
X105162288Y-75979290D01*
X105168582Y-75992597D01*
X105173541Y-76006457D01*
X105177118Y-76020736D01*
X105179278Y-76035297D01*
X105180000Y-76050000D01*
X105180000Y-76350000D01*
X105179278Y-76364703D01*
X105177118Y-76379264D01*
X105173541Y-76393543D01*
X105168582Y-76407403D01*
X105162288Y-76420710D01*
X105154720Y-76433336D01*
X105145952Y-76445159D01*
X105136066Y-76456066D01*
X105125159Y-76465952D01*
X105113336Y-76474720D01*
X105100710Y-76482288D01*
X105087403Y-76488582D01*
X105073543Y-76493541D01*
X105059264Y-76497118D01*
X105044703Y-76499278D01*
X105030000Y-76500000D01*
X103380000Y-76500000D01*
X103365297Y-76499278D01*
X103350736Y-76497118D01*
X103336457Y-76493541D01*
X103322597Y-76488582D01*
X103309290Y-76482288D01*
X103296664Y-76474720D01*
X103284841Y-76465952D01*
X103273934Y-76456066D01*
X103264048Y-76445159D01*
X103255280Y-76433336D01*
X103247712Y-76420710D01*
X103241418Y-76407403D01*
X103236459Y-76393543D01*
X103232882Y-76379264D01*
X103230722Y-76364703D01*
X103230000Y-76350000D01*
X103230000Y-76050000D01*
X103230722Y-76035297D01*
X103232882Y-76020736D01*
X103236459Y-76006457D01*
X103241418Y-75992597D01*
X103247712Y-75979290D01*
X103255280Y-75966664D01*
X103264048Y-75954841D01*
X103273934Y-75943934D01*
X103284841Y-75934048D01*
X103296664Y-75925280D01*
X103309290Y-75917712D01*
X103322597Y-75911418D01*
X103336457Y-75906459D01*
X103350736Y-75902882D01*
X103365297Y-75900722D01*
X103380000Y-75900000D01*
X105030000Y-75900000D01*
X105044703Y-75900722D01*
X105044703Y-75900722D01*
G37*
D12*
X104205000Y-76200000D03*
D10*
G36*
X109994703Y-75900722D02*
G01*
X110009264Y-75902882D01*
X110023543Y-75906459D01*
X110037403Y-75911418D01*
X110050710Y-75917712D01*
X110063336Y-75925280D01*
X110075159Y-75934048D01*
X110086066Y-75943934D01*
X110095952Y-75954841D01*
X110104720Y-75966664D01*
X110112288Y-75979290D01*
X110118582Y-75992597D01*
X110123541Y-76006457D01*
X110127118Y-76020736D01*
X110129278Y-76035297D01*
X110130000Y-76050000D01*
X110130000Y-76350000D01*
X110129278Y-76364703D01*
X110127118Y-76379264D01*
X110123541Y-76393543D01*
X110118582Y-76407403D01*
X110112288Y-76420710D01*
X110104720Y-76433336D01*
X110095952Y-76445159D01*
X110086066Y-76456066D01*
X110075159Y-76465952D01*
X110063336Y-76474720D01*
X110050710Y-76482288D01*
X110037403Y-76488582D01*
X110023543Y-76493541D01*
X110009264Y-76497118D01*
X109994703Y-76499278D01*
X109980000Y-76500000D01*
X108330000Y-76500000D01*
X108315297Y-76499278D01*
X108300736Y-76497118D01*
X108286457Y-76493541D01*
X108272597Y-76488582D01*
X108259290Y-76482288D01*
X108246664Y-76474720D01*
X108234841Y-76465952D01*
X108223934Y-76456066D01*
X108214048Y-76445159D01*
X108205280Y-76433336D01*
X108197712Y-76420710D01*
X108191418Y-76407403D01*
X108186459Y-76393543D01*
X108182882Y-76379264D01*
X108180722Y-76364703D01*
X108180000Y-76350000D01*
X108180000Y-76050000D01*
X108180722Y-76035297D01*
X108182882Y-76020736D01*
X108186459Y-76006457D01*
X108191418Y-75992597D01*
X108197712Y-75979290D01*
X108205280Y-75966664D01*
X108214048Y-75954841D01*
X108223934Y-75943934D01*
X108234841Y-75934048D01*
X108246664Y-75925280D01*
X108259290Y-75917712D01*
X108272597Y-75911418D01*
X108286457Y-75906459D01*
X108300736Y-75902882D01*
X108315297Y-75900722D01*
X108330000Y-75900000D01*
X109980000Y-75900000D01*
X109994703Y-75900722D01*
X109994703Y-75900722D01*
G37*
D12*
X109155000Y-76200000D03*
D10*
G36*
X109994703Y-74630722D02*
G01*
X110009264Y-74632882D01*
X110023543Y-74636459D01*
X110037403Y-74641418D01*
X110050710Y-74647712D01*
X110063336Y-74655280D01*
X110075159Y-74664048D01*
X110086066Y-74673934D01*
X110095952Y-74684841D01*
X110104720Y-74696664D01*
X110112288Y-74709290D01*
X110118582Y-74722597D01*
X110123541Y-74736457D01*
X110127118Y-74750736D01*
X110129278Y-74765297D01*
X110130000Y-74780000D01*
X110130000Y-75080000D01*
X110129278Y-75094703D01*
X110127118Y-75109264D01*
X110123541Y-75123543D01*
X110118582Y-75137403D01*
X110112288Y-75150710D01*
X110104720Y-75163336D01*
X110095952Y-75175159D01*
X110086066Y-75186066D01*
X110075159Y-75195952D01*
X110063336Y-75204720D01*
X110050710Y-75212288D01*
X110037403Y-75218582D01*
X110023543Y-75223541D01*
X110009264Y-75227118D01*
X109994703Y-75229278D01*
X109980000Y-75230000D01*
X108330000Y-75230000D01*
X108315297Y-75229278D01*
X108300736Y-75227118D01*
X108286457Y-75223541D01*
X108272597Y-75218582D01*
X108259290Y-75212288D01*
X108246664Y-75204720D01*
X108234841Y-75195952D01*
X108223934Y-75186066D01*
X108214048Y-75175159D01*
X108205280Y-75163336D01*
X108197712Y-75150710D01*
X108191418Y-75137403D01*
X108186459Y-75123543D01*
X108182882Y-75109264D01*
X108180722Y-75094703D01*
X108180000Y-75080000D01*
X108180000Y-74780000D01*
X108180722Y-74765297D01*
X108182882Y-74750736D01*
X108186459Y-74736457D01*
X108191418Y-74722597D01*
X108197712Y-74709290D01*
X108205280Y-74696664D01*
X108214048Y-74684841D01*
X108223934Y-74673934D01*
X108234841Y-74664048D01*
X108246664Y-74655280D01*
X108259290Y-74647712D01*
X108272597Y-74641418D01*
X108286457Y-74636459D01*
X108300736Y-74632882D01*
X108315297Y-74630722D01*
X108330000Y-74630000D01*
X109980000Y-74630000D01*
X109994703Y-74630722D01*
X109994703Y-74630722D01*
G37*
D12*
X109155000Y-74930000D03*
D10*
G36*
X109994703Y-73360722D02*
G01*
X110009264Y-73362882D01*
X110023543Y-73366459D01*
X110037403Y-73371418D01*
X110050710Y-73377712D01*
X110063336Y-73385280D01*
X110075159Y-73394048D01*
X110086066Y-73403934D01*
X110095952Y-73414841D01*
X110104720Y-73426664D01*
X110112288Y-73439290D01*
X110118582Y-73452597D01*
X110123541Y-73466457D01*
X110127118Y-73480736D01*
X110129278Y-73495297D01*
X110130000Y-73510000D01*
X110130000Y-73810000D01*
X110129278Y-73824703D01*
X110127118Y-73839264D01*
X110123541Y-73853543D01*
X110118582Y-73867403D01*
X110112288Y-73880710D01*
X110104720Y-73893336D01*
X110095952Y-73905159D01*
X110086066Y-73916066D01*
X110075159Y-73925952D01*
X110063336Y-73934720D01*
X110050710Y-73942288D01*
X110037403Y-73948582D01*
X110023543Y-73953541D01*
X110009264Y-73957118D01*
X109994703Y-73959278D01*
X109980000Y-73960000D01*
X108330000Y-73960000D01*
X108315297Y-73959278D01*
X108300736Y-73957118D01*
X108286457Y-73953541D01*
X108272597Y-73948582D01*
X108259290Y-73942288D01*
X108246664Y-73934720D01*
X108234841Y-73925952D01*
X108223934Y-73916066D01*
X108214048Y-73905159D01*
X108205280Y-73893336D01*
X108197712Y-73880710D01*
X108191418Y-73867403D01*
X108186459Y-73853543D01*
X108182882Y-73839264D01*
X108180722Y-73824703D01*
X108180000Y-73810000D01*
X108180000Y-73510000D01*
X108180722Y-73495297D01*
X108182882Y-73480736D01*
X108186459Y-73466457D01*
X108191418Y-73452597D01*
X108197712Y-73439290D01*
X108205280Y-73426664D01*
X108214048Y-73414841D01*
X108223934Y-73403934D01*
X108234841Y-73394048D01*
X108246664Y-73385280D01*
X108259290Y-73377712D01*
X108272597Y-73371418D01*
X108286457Y-73366459D01*
X108300736Y-73362882D01*
X108315297Y-73360722D01*
X108330000Y-73360000D01*
X109980000Y-73360000D01*
X109994703Y-73360722D01*
X109994703Y-73360722D01*
G37*
D12*
X109155000Y-73660000D03*
D10*
G36*
X109994703Y-72090722D02*
G01*
X110009264Y-72092882D01*
X110023543Y-72096459D01*
X110037403Y-72101418D01*
X110050710Y-72107712D01*
X110063336Y-72115280D01*
X110075159Y-72124048D01*
X110086066Y-72133934D01*
X110095952Y-72144841D01*
X110104720Y-72156664D01*
X110112288Y-72169290D01*
X110118582Y-72182597D01*
X110123541Y-72196457D01*
X110127118Y-72210736D01*
X110129278Y-72225297D01*
X110130000Y-72240000D01*
X110130000Y-72540000D01*
X110129278Y-72554703D01*
X110127118Y-72569264D01*
X110123541Y-72583543D01*
X110118582Y-72597403D01*
X110112288Y-72610710D01*
X110104720Y-72623336D01*
X110095952Y-72635159D01*
X110086066Y-72646066D01*
X110075159Y-72655952D01*
X110063336Y-72664720D01*
X110050710Y-72672288D01*
X110037403Y-72678582D01*
X110023543Y-72683541D01*
X110009264Y-72687118D01*
X109994703Y-72689278D01*
X109980000Y-72690000D01*
X108330000Y-72690000D01*
X108315297Y-72689278D01*
X108300736Y-72687118D01*
X108286457Y-72683541D01*
X108272597Y-72678582D01*
X108259290Y-72672288D01*
X108246664Y-72664720D01*
X108234841Y-72655952D01*
X108223934Y-72646066D01*
X108214048Y-72635159D01*
X108205280Y-72623336D01*
X108197712Y-72610710D01*
X108191418Y-72597403D01*
X108186459Y-72583543D01*
X108182882Y-72569264D01*
X108180722Y-72554703D01*
X108180000Y-72540000D01*
X108180000Y-72240000D01*
X108180722Y-72225297D01*
X108182882Y-72210736D01*
X108186459Y-72196457D01*
X108191418Y-72182597D01*
X108197712Y-72169290D01*
X108205280Y-72156664D01*
X108214048Y-72144841D01*
X108223934Y-72133934D01*
X108234841Y-72124048D01*
X108246664Y-72115280D01*
X108259290Y-72107712D01*
X108272597Y-72101418D01*
X108286457Y-72096459D01*
X108300736Y-72092882D01*
X108315297Y-72090722D01*
X108330000Y-72090000D01*
X109980000Y-72090000D01*
X109994703Y-72090722D01*
X109994703Y-72090722D01*
G37*
D12*
X109155000Y-72390000D03*
D10*
G36*
X109994703Y-70820722D02*
G01*
X110009264Y-70822882D01*
X110023543Y-70826459D01*
X110037403Y-70831418D01*
X110050710Y-70837712D01*
X110063336Y-70845280D01*
X110075159Y-70854048D01*
X110086066Y-70863934D01*
X110095952Y-70874841D01*
X110104720Y-70886664D01*
X110112288Y-70899290D01*
X110118582Y-70912597D01*
X110123541Y-70926457D01*
X110127118Y-70940736D01*
X110129278Y-70955297D01*
X110130000Y-70970000D01*
X110130000Y-71270000D01*
X110129278Y-71284703D01*
X110127118Y-71299264D01*
X110123541Y-71313543D01*
X110118582Y-71327403D01*
X110112288Y-71340710D01*
X110104720Y-71353336D01*
X110095952Y-71365159D01*
X110086066Y-71376066D01*
X110075159Y-71385952D01*
X110063336Y-71394720D01*
X110050710Y-71402288D01*
X110037403Y-71408582D01*
X110023543Y-71413541D01*
X110009264Y-71417118D01*
X109994703Y-71419278D01*
X109980000Y-71420000D01*
X108330000Y-71420000D01*
X108315297Y-71419278D01*
X108300736Y-71417118D01*
X108286457Y-71413541D01*
X108272597Y-71408582D01*
X108259290Y-71402288D01*
X108246664Y-71394720D01*
X108234841Y-71385952D01*
X108223934Y-71376066D01*
X108214048Y-71365159D01*
X108205280Y-71353336D01*
X108197712Y-71340710D01*
X108191418Y-71327403D01*
X108186459Y-71313543D01*
X108182882Y-71299264D01*
X108180722Y-71284703D01*
X108180000Y-71270000D01*
X108180000Y-70970000D01*
X108180722Y-70955297D01*
X108182882Y-70940736D01*
X108186459Y-70926457D01*
X108191418Y-70912597D01*
X108197712Y-70899290D01*
X108205280Y-70886664D01*
X108214048Y-70874841D01*
X108223934Y-70863934D01*
X108234841Y-70854048D01*
X108246664Y-70845280D01*
X108259290Y-70837712D01*
X108272597Y-70831418D01*
X108286457Y-70826459D01*
X108300736Y-70822882D01*
X108315297Y-70820722D01*
X108330000Y-70820000D01*
X109980000Y-70820000D01*
X109994703Y-70820722D01*
X109994703Y-70820722D01*
G37*
D12*
X109155000Y-71120000D03*
D10*
G36*
X109994703Y-69550722D02*
G01*
X110009264Y-69552882D01*
X110023543Y-69556459D01*
X110037403Y-69561418D01*
X110050710Y-69567712D01*
X110063336Y-69575280D01*
X110075159Y-69584048D01*
X110086066Y-69593934D01*
X110095952Y-69604841D01*
X110104720Y-69616664D01*
X110112288Y-69629290D01*
X110118582Y-69642597D01*
X110123541Y-69656457D01*
X110127118Y-69670736D01*
X110129278Y-69685297D01*
X110130000Y-69700000D01*
X110130000Y-70000000D01*
X110129278Y-70014703D01*
X110127118Y-70029264D01*
X110123541Y-70043543D01*
X110118582Y-70057403D01*
X110112288Y-70070710D01*
X110104720Y-70083336D01*
X110095952Y-70095159D01*
X110086066Y-70106066D01*
X110075159Y-70115952D01*
X110063336Y-70124720D01*
X110050710Y-70132288D01*
X110037403Y-70138582D01*
X110023543Y-70143541D01*
X110009264Y-70147118D01*
X109994703Y-70149278D01*
X109980000Y-70150000D01*
X108330000Y-70150000D01*
X108315297Y-70149278D01*
X108300736Y-70147118D01*
X108286457Y-70143541D01*
X108272597Y-70138582D01*
X108259290Y-70132288D01*
X108246664Y-70124720D01*
X108234841Y-70115952D01*
X108223934Y-70106066D01*
X108214048Y-70095159D01*
X108205280Y-70083336D01*
X108197712Y-70070710D01*
X108191418Y-70057403D01*
X108186459Y-70043543D01*
X108182882Y-70029264D01*
X108180722Y-70014703D01*
X108180000Y-70000000D01*
X108180000Y-69700000D01*
X108180722Y-69685297D01*
X108182882Y-69670736D01*
X108186459Y-69656457D01*
X108191418Y-69642597D01*
X108197712Y-69629290D01*
X108205280Y-69616664D01*
X108214048Y-69604841D01*
X108223934Y-69593934D01*
X108234841Y-69584048D01*
X108246664Y-69575280D01*
X108259290Y-69567712D01*
X108272597Y-69561418D01*
X108286457Y-69556459D01*
X108300736Y-69552882D01*
X108315297Y-69550722D01*
X108330000Y-69550000D01*
X109980000Y-69550000D01*
X109994703Y-69550722D01*
X109994703Y-69550722D01*
G37*
D12*
X109155000Y-69850000D03*
D10*
G36*
X109994703Y-68280722D02*
G01*
X110009264Y-68282882D01*
X110023543Y-68286459D01*
X110037403Y-68291418D01*
X110050710Y-68297712D01*
X110063336Y-68305280D01*
X110075159Y-68314048D01*
X110086066Y-68323934D01*
X110095952Y-68334841D01*
X110104720Y-68346664D01*
X110112288Y-68359290D01*
X110118582Y-68372597D01*
X110123541Y-68386457D01*
X110127118Y-68400736D01*
X110129278Y-68415297D01*
X110130000Y-68430000D01*
X110130000Y-68730000D01*
X110129278Y-68744703D01*
X110127118Y-68759264D01*
X110123541Y-68773543D01*
X110118582Y-68787403D01*
X110112288Y-68800710D01*
X110104720Y-68813336D01*
X110095952Y-68825159D01*
X110086066Y-68836066D01*
X110075159Y-68845952D01*
X110063336Y-68854720D01*
X110050710Y-68862288D01*
X110037403Y-68868582D01*
X110023543Y-68873541D01*
X110009264Y-68877118D01*
X109994703Y-68879278D01*
X109980000Y-68880000D01*
X108330000Y-68880000D01*
X108315297Y-68879278D01*
X108300736Y-68877118D01*
X108286457Y-68873541D01*
X108272597Y-68868582D01*
X108259290Y-68862288D01*
X108246664Y-68854720D01*
X108234841Y-68845952D01*
X108223934Y-68836066D01*
X108214048Y-68825159D01*
X108205280Y-68813336D01*
X108197712Y-68800710D01*
X108191418Y-68787403D01*
X108186459Y-68773543D01*
X108182882Y-68759264D01*
X108180722Y-68744703D01*
X108180000Y-68730000D01*
X108180000Y-68430000D01*
X108180722Y-68415297D01*
X108182882Y-68400736D01*
X108186459Y-68386457D01*
X108191418Y-68372597D01*
X108197712Y-68359290D01*
X108205280Y-68346664D01*
X108214048Y-68334841D01*
X108223934Y-68323934D01*
X108234841Y-68314048D01*
X108246664Y-68305280D01*
X108259290Y-68297712D01*
X108272597Y-68291418D01*
X108286457Y-68286459D01*
X108300736Y-68282882D01*
X108315297Y-68280722D01*
X108330000Y-68280000D01*
X109980000Y-68280000D01*
X109994703Y-68280722D01*
X109994703Y-68280722D01*
G37*
D12*
X109155000Y-68580000D03*
D10*
G36*
X108020779Y-79536144D02*
G01*
X108043834Y-79539563D01*
X108066443Y-79545227D01*
X108088387Y-79553079D01*
X108109457Y-79563044D01*
X108129448Y-79575026D01*
X108148168Y-79588910D01*
X108165438Y-79604562D01*
X108181090Y-79621832D01*
X108194974Y-79640552D01*
X108206956Y-79660543D01*
X108216921Y-79681613D01*
X108224773Y-79703557D01*
X108230437Y-79726166D01*
X108233856Y-79749221D01*
X108235000Y-79772500D01*
X108235000Y-80247500D01*
X108233856Y-80270779D01*
X108230437Y-80293834D01*
X108224773Y-80316443D01*
X108216921Y-80338387D01*
X108206956Y-80359457D01*
X108194974Y-80379448D01*
X108181090Y-80398168D01*
X108165438Y-80415438D01*
X108148168Y-80431090D01*
X108129448Y-80444974D01*
X108109457Y-80456956D01*
X108088387Y-80466921D01*
X108066443Y-80474773D01*
X108043834Y-80480437D01*
X108020779Y-80483856D01*
X107997500Y-80485000D01*
X107422500Y-80485000D01*
X107399221Y-80483856D01*
X107376166Y-80480437D01*
X107353557Y-80474773D01*
X107331613Y-80466921D01*
X107310543Y-80456956D01*
X107290552Y-80444974D01*
X107271832Y-80431090D01*
X107254562Y-80415438D01*
X107238910Y-80398168D01*
X107225026Y-80379448D01*
X107213044Y-80359457D01*
X107203079Y-80338387D01*
X107195227Y-80316443D01*
X107189563Y-80293834D01*
X107186144Y-80270779D01*
X107185000Y-80247500D01*
X107185000Y-79772500D01*
X107186144Y-79749221D01*
X107189563Y-79726166D01*
X107195227Y-79703557D01*
X107203079Y-79681613D01*
X107213044Y-79660543D01*
X107225026Y-79640552D01*
X107238910Y-79621832D01*
X107254562Y-79604562D01*
X107271832Y-79588910D01*
X107290552Y-79575026D01*
X107310543Y-79563044D01*
X107331613Y-79553079D01*
X107353557Y-79545227D01*
X107376166Y-79539563D01*
X107399221Y-79536144D01*
X107422500Y-79535000D01*
X107997500Y-79535000D01*
X108020779Y-79536144D01*
X108020779Y-79536144D01*
G37*
D11*
X107710000Y-80010000D03*
D10*
G36*
X109770779Y-79536144D02*
G01*
X109793834Y-79539563D01*
X109816443Y-79545227D01*
X109838387Y-79553079D01*
X109859457Y-79563044D01*
X109879448Y-79575026D01*
X109898168Y-79588910D01*
X109915438Y-79604562D01*
X109931090Y-79621832D01*
X109944974Y-79640552D01*
X109956956Y-79660543D01*
X109966921Y-79681613D01*
X109974773Y-79703557D01*
X109980437Y-79726166D01*
X109983856Y-79749221D01*
X109985000Y-79772500D01*
X109985000Y-80247500D01*
X109983856Y-80270779D01*
X109980437Y-80293834D01*
X109974773Y-80316443D01*
X109966921Y-80338387D01*
X109956956Y-80359457D01*
X109944974Y-80379448D01*
X109931090Y-80398168D01*
X109915438Y-80415438D01*
X109898168Y-80431090D01*
X109879448Y-80444974D01*
X109859457Y-80456956D01*
X109838387Y-80466921D01*
X109816443Y-80474773D01*
X109793834Y-80480437D01*
X109770779Y-80483856D01*
X109747500Y-80485000D01*
X109172500Y-80485000D01*
X109149221Y-80483856D01*
X109126166Y-80480437D01*
X109103557Y-80474773D01*
X109081613Y-80466921D01*
X109060543Y-80456956D01*
X109040552Y-80444974D01*
X109021832Y-80431090D01*
X109004562Y-80415438D01*
X108988910Y-80398168D01*
X108975026Y-80379448D01*
X108963044Y-80359457D01*
X108953079Y-80338387D01*
X108945227Y-80316443D01*
X108939563Y-80293834D01*
X108936144Y-80270779D01*
X108935000Y-80247500D01*
X108935000Y-79772500D01*
X108936144Y-79749221D01*
X108939563Y-79726166D01*
X108945227Y-79703557D01*
X108953079Y-79681613D01*
X108963044Y-79660543D01*
X108975026Y-79640552D01*
X108988910Y-79621832D01*
X109004562Y-79604562D01*
X109021832Y-79588910D01*
X109040552Y-79575026D01*
X109060543Y-79563044D01*
X109081613Y-79553079D01*
X109103557Y-79545227D01*
X109126166Y-79539563D01*
X109149221Y-79536144D01*
X109172500Y-79535000D01*
X109747500Y-79535000D01*
X109770779Y-79536144D01*
X109770779Y-79536144D01*
G37*
D11*
X109460000Y-80010000D03*
D10*
G36*
X107865779Y-65566144D02*
G01*
X107888834Y-65569563D01*
X107911443Y-65575227D01*
X107933387Y-65583079D01*
X107954457Y-65593044D01*
X107974448Y-65605026D01*
X107993168Y-65618910D01*
X108010438Y-65634562D01*
X108026090Y-65651832D01*
X108039974Y-65670552D01*
X108051956Y-65690543D01*
X108061921Y-65711613D01*
X108069773Y-65733557D01*
X108075437Y-65756166D01*
X108078856Y-65779221D01*
X108080000Y-65802500D01*
X108080000Y-66277500D01*
X108078856Y-66300779D01*
X108075437Y-66323834D01*
X108069773Y-66346443D01*
X108061921Y-66368387D01*
X108051956Y-66389457D01*
X108039974Y-66409448D01*
X108026090Y-66428168D01*
X108010438Y-66445438D01*
X107993168Y-66461090D01*
X107974448Y-66474974D01*
X107954457Y-66486956D01*
X107933387Y-66496921D01*
X107911443Y-66504773D01*
X107888834Y-66510437D01*
X107865779Y-66513856D01*
X107842500Y-66515000D01*
X107267500Y-66515000D01*
X107244221Y-66513856D01*
X107221166Y-66510437D01*
X107198557Y-66504773D01*
X107176613Y-66496921D01*
X107155543Y-66486956D01*
X107135552Y-66474974D01*
X107116832Y-66461090D01*
X107099562Y-66445438D01*
X107083910Y-66428168D01*
X107070026Y-66409448D01*
X107058044Y-66389457D01*
X107048079Y-66368387D01*
X107040227Y-66346443D01*
X107034563Y-66323834D01*
X107031144Y-66300779D01*
X107030000Y-66277500D01*
X107030000Y-65802500D01*
X107031144Y-65779221D01*
X107034563Y-65756166D01*
X107040227Y-65733557D01*
X107048079Y-65711613D01*
X107058044Y-65690543D01*
X107070026Y-65670552D01*
X107083910Y-65651832D01*
X107099562Y-65634562D01*
X107116832Y-65618910D01*
X107135552Y-65605026D01*
X107155543Y-65593044D01*
X107176613Y-65583079D01*
X107198557Y-65575227D01*
X107221166Y-65569563D01*
X107244221Y-65566144D01*
X107267500Y-65565000D01*
X107842500Y-65565000D01*
X107865779Y-65566144D01*
X107865779Y-65566144D01*
G37*
D11*
X107555000Y-66040000D03*
D10*
G36*
X106115779Y-65566144D02*
G01*
X106138834Y-65569563D01*
X106161443Y-65575227D01*
X106183387Y-65583079D01*
X106204457Y-65593044D01*
X106224448Y-65605026D01*
X106243168Y-65618910D01*
X106260438Y-65634562D01*
X106276090Y-65651832D01*
X106289974Y-65670552D01*
X106301956Y-65690543D01*
X106311921Y-65711613D01*
X106319773Y-65733557D01*
X106325437Y-65756166D01*
X106328856Y-65779221D01*
X106330000Y-65802500D01*
X106330000Y-66277500D01*
X106328856Y-66300779D01*
X106325437Y-66323834D01*
X106319773Y-66346443D01*
X106311921Y-66368387D01*
X106301956Y-66389457D01*
X106289974Y-66409448D01*
X106276090Y-66428168D01*
X106260438Y-66445438D01*
X106243168Y-66461090D01*
X106224448Y-66474974D01*
X106204457Y-66486956D01*
X106183387Y-66496921D01*
X106161443Y-66504773D01*
X106138834Y-66510437D01*
X106115779Y-66513856D01*
X106092500Y-66515000D01*
X105517500Y-66515000D01*
X105494221Y-66513856D01*
X105471166Y-66510437D01*
X105448557Y-66504773D01*
X105426613Y-66496921D01*
X105405543Y-66486956D01*
X105385552Y-66474974D01*
X105366832Y-66461090D01*
X105349562Y-66445438D01*
X105333910Y-66428168D01*
X105320026Y-66409448D01*
X105308044Y-66389457D01*
X105298079Y-66368387D01*
X105290227Y-66346443D01*
X105284563Y-66323834D01*
X105281144Y-66300779D01*
X105280000Y-66277500D01*
X105280000Y-65802500D01*
X105281144Y-65779221D01*
X105284563Y-65756166D01*
X105290227Y-65733557D01*
X105298079Y-65711613D01*
X105308044Y-65690543D01*
X105320026Y-65670552D01*
X105333910Y-65651832D01*
X105349562Y-65634562D01*
X105366832Y-65618910D01*
X105385552Y-65605026D01*
X105405543Y-65593044D01*
X105426613Y-65583079D01*
X105448557Y-65575227D01*
X105471166Y-65569563D01*
X105494221Y-65566144D01*
X105517500Y-65565000D01*
X106092500Y-65565000D01*
X106115779Y-65566144D01*
X106115779Y-65566144D01*
G37*
D11*
X105805000Y-66040000D03*
D10*
G36*
X104210779Y-79536144D02*
G01*
X104233834Y-79539563D01*
X104256443Y-79545227D01*
X104278387Y-79553079D01*
X104299457Y-79563044D01*
X104319448Y-79575026D01*
X104338168Y-79588910D01*
X104355438Y-79604562D01*
X104371090Y-79621832D01*
X104384974Y-79640552D01*
X104396956Y-79660543D01*
X104406921Y-79681613D01*
X104414773Y-79703557D01*
X104420437Y-79726166D01*
X104423856Y-79749221D01*
X104425000Y-79772500D01*
X104425000Y-80247500D01*
X104423856Y-80270779D01*
X104420437Y-80293834D01*
X104414773Y-80316443D01*
X104406921Y-80338387D01*
X104396956Y-80359457D01*
X104384974Y-80379448D01*
X104371090Y-80398168D01*
X104355438Y-80415438D01*
X104338168Y-80431090D01*
X104319448Y-80444974D01*
X104299457Y-80456956D01*
X104278387Y-80466921D01*
X104256443Y-80474773D01*
X104233834Y-80480437D01*
X104210779Y-80483856D01*
X104187500Y-80485000D01*
X103612500Y-80485000D01*
X103589221Y-80483856D01*
X103566166Y-80480437D01*
X103543557Y-80474773D01*
X103521613Y-80466921D01*
X103500543Y-80456956D01*
X103480552Y-80444974D01*
X103461832Y-80431090D01*
X103444562Y-80415438D01*
X103428910Y-80398168D01*
X103415026Y-80379448D01*
X103403044Y-80359457D01*
X103393079Y-80338387D01*
X103385227Y-80316443D01*
X103379563Y-80293834D01*
X103376144Y-80270779D01*
X103375000Y-80247500D01*
X103375000Y-79772500D01*
X103376144Y-79749221D01*
X103379563Y-79726166D01*
X103385227Y-79703557D01*
X103393079Y-79681613D01*
X103403044Y-79660543D01*
X103415026Y-79640552D01*
X103428910Y-79621832D01*
X103444562Y-79604562D01*
X103461832Y-79588910D01*
X103480552Y-79575026D01*
X103500543Y-79563044D01*
X103521613Y-79553079D01*
X103543557Y-79545227D01*
X103566166Y-79539563D01*
X103589221Y-79536144D01*
X103612500Y-79535000D01*
X104187500Y-79535000D01*
X104210779Y-79536144D01*
X104210779Y-79536144D01*
G37*
D11*
X103900000Y-80010000D03*
D10*
G36*
X105960779Y-79536144D02*
G01*
X105983834Y-79539563D01*
X106006443Y-79545227D01*
X106028387Y-79553079D01*
X106049457Y-79563044D01*
X106069448Y-79575026D01*
X106088168Y-79588910D01*
X106105438Y-79604562D01*
X106121090Y-79621832D01*
X106134974Y-79640552D01*
X106146956Y-79660543D01*
X106156921Y-79681613D01*
X106164773Y-79703557D01*
X106170437Y-79726166D01*
X106173856Y-79749221D01*
X106175000Y-79772500D01*
X106175000Y-80247500D01*
X106173856Y-80270779D01*
X106170437Y-80293834D01*
X106164773Y-80316443D01*
X106156921Y-80338387D01*
X106146956Y-80359457D01*
X106134974Y-80379448D01*
X106121090Y-80398168D01*
X106105438Y-80415438D01*
X106088168Y-80431090D01*
X106069448Y-80444974D01*
X106049457Y-80456956D01*
X106028387Y-80466921D01*
X106006443Y-80474773D01*
X105983834Y-80480437D01*
X105960779Y-80483856D01*
X105937500Y-80485000D01*
X105362500Y-80485000D01*
X105339221Y-80483856D01*
X105316166Y-80480437D01*
X105293557Y-80474773D01*
X105271613Y-80466921D01*
X105250543Y-80456956D01*
X105230552Y-80444974D01*
X105211832Y-80431090D01*
X105194562Y-80415438D01*
X105178910Y-80398168D01*
X105165026Y-80379448D01*
X105153044Y-80359457D01*
X105143079Y-80338387D01*
X105135227Y-80316443D01*
X105129563Y-80293834D01*
X105126144Y-80270779D01*
X105125000Y-80247500D01*
X105125000Y-79772500D01*
X105126144Y-79749221D01*
X105129563Y-79726166D01*
X105135227Y-79703557D01*
X105143079Y-79681613D01*
X105153044Y-79660543D01*
X105165026Y-79640552D01*
X105178910Y-79621832D01*
X105194562Y-79604562D01*
X105211832Y-79588910D01*
X105230552Y-79575026D01*
X105250543Y-79563044D01*
X105271613Y-79553079D01*
X105293557Y-79545227D01*
X105316166Y-79539563D01*
X105339221Y-79536144D01*
X105362500Y-79535000D01*
X105937500Y-79535000D01*
X105960779Y-79536144D01*
X105960779Y-79536144D01*
G37*
D11*
X105650000Y-80010000D03*
D10*
G36*
X106940779Y-89251144D02*
G01*
X106963834Y-89254563D01*
X106986443Y-89260227D01*
X107008387Y-89268079D01*
X107029457Y-89278044D01*
X107049448Y-89290026D01*
X107068168Y-89303910D01*
X107085438Y-89319562D01*
X107101090Y-89336832D01*
X107114974Y-89355552D01*
X107126956Y-89375543D01*
X107136921Y-89396613D01*
X107144773Y-89418557D01*
X107150437Y-89441166D01*
X107153856Y-89464221D01*
X107155000Y-89487500D01*
X107155000Y-90062500D01*
X107153856Y-90085779D01*
X107150437Y-90108834D01*
X107144773Y-90131443D01*
X107136921Y-90153387D01*
X107126956Y-90174457D01*
X107114974Y-90194448D01*
X107101090Y-90213168D01*
X107085438Y-90230438D01*
X107068168Y-90246090D01*
X107049448Y-90259974D01*
X107029457Y-90271956D01*
X107008387Y-90281921D01*
X106986443Y-90289773D01*
X106963834Y-90295437D01*
X106940779Y-90298856D01*
X106917500Y-90300000D01*
X106442500Y-90300000D01*
X106419221Y-90298856D01*
X106396166Y-90295437D01*
X106373557Y-90289773D01*
X106351613Y-90281921D01*
X106330543Y-90271956D01*
X106310552Y-90259974D01*
X106291832Y-90246090D01*
X106274562Y-90230438D01*
X106258910Y-90213168D01*
X106245026Y-90194448D01*
X106233044Y-90174457D01*
X106223079Y-90153387D01*
X106215227Y-90131443D01*
X106209563Y-90108834D01*
X106206144Y-90085779D01*
X106205000Y-90062500D01*
X106205000Y-89487500D01*
X106206144Y-89464221D01*
X106209563Y-89441166D01*
X106215227Y-89418557D01*
X106223079Y-89396613D01*
X106233044Y-89375543D01*
X106245026Y-89355552D01*
X106258910Y-89336832D01*
X106274562Y-89319562D01*
X106291832Y-89303910D01*
X106310552Y-89290026D01*
X106330543Y-89278044D01*
X106351613Y-89268079D01*
X106373557Y-89260227D01*
X106396166Y-89254563D01*
X106419221Y-89251144D01*
X106442500Y-89250000D01*
X106917500Y-89250000D01*
X106940779Y-89251144D01*
X106940779Y-89251144D01*
G37*
D11*
X106680000Y-89775000D03*
D10*
G36*
X106940779Y-87501144D02*
G01*
X106963834Y-87504563D01*
X106986443Y-87510227D01*
X107008387Y-87518079D01*
X107029457Y-87528044D01*
X107049448Y-87540026D01*
X107068168Y-87553910D01*
X107085438Y-87569562D01*
X107101090Y-87586832D01*
X107114974Y-87605552D01*
X107126956Y-87625543D01*
X107136921Y-87646613D01*
X107144773Y-87668557D01*
X107150437Y-87691166D01*
X107153856Y-87714221D01*
X107155000Y-87737500D01*
X107155000Y-88312500D01*
X107153856Y-88335779D01*
X107150437Y-88358834D01*
X107144773Y-88381443D01*
X107136921Y-88403387D01*
X107126956Y-88424457D01*
X107114974Y-88444448D01*
X107101090Y-88463168D01*
X107085438Y-88480438D01*
X107068168Y-88496090D01*
X107049448Y-88509974D01*
X107029457Y-88521956D01*
X107008387Y-88531921D01*
X106986443Y-88539773D01*
X106963834Y-88545437D01*
X106940779Y-88548856D01*
X106917500Y-88550000D01*
X106442500Y-88550000D01*
X106419221Y-88548856D01*
X106396166Y-88545437D01*
X106373557Y-88539773D01*
X106351613Y-88531921D01*
X106330543Y-88521956D01*
X106310552Y-88509974D01*
X106291832Y-88496090D01*
X106274562Y-88480438D01*
X106258910Y-88463168D01*
X106245026Y-88444448D01*
X106233044Y-88424457D01*
X106223079Y-88403387D01*
X106215227Y-88381443D01*
X106209563Y-88358834D01*
X106206144Y-88335779D01*
X106205000Y-88312500D01*
X106205000Y-87737500D01*
X106206144Y-87714221D01*
X106209563Y-87691166D01*
X106215227Y-87668557D01*
X106223079Y-87646613D01*
X106233044Y-87625543D01*
X106245026Y-87605552D01*
X106258910Y-87586832D01*
X106274562Y-87569562D01*
X106291832Y-87553910D01*
X106310552Y-87540026D01*
X106330543Y-87528044D01*
X106351613Y-87518079D01*
X106373557Y-87510227D01*
X106396166Y-87504563D01*
X106419221Y-87501144D01*
X106442500Y-87500000D01*
X106917500Y-87500000D01*
X106940779Y-87501144D01*
X106940779Y-87501144D01*
G37*
D11*
X106680000Y-88025000D03*
D10*
G36*
X106115779Y-61756144D02*
G01*
X106138834Y-61759563D01*
X106161443Y-61765227D01*
X106183387Y-61773079D01*
X106204457Y-61783044D01*
X106224448Y-61795026D01*
X106243168Y-61808910D01*
X106260438Y-61824562D01*
X106276090Y-61841832D01*
X106289974Y-61860552D01*
X106301956Y-61880543D01*
X106311921Y-61901613D01*
X106319773Y-61923557D01*
X106325437Y-61946166D01*
X106328856Y-61969221D01*
X106330000Y-61992500D01*
X106330000Y-62467500D01*
X106328856Y-62490779D01*
X106325437Y-62513834D01*
X106319773Y-62536443D01*
X106311921Y-62558387D01*
X106301956Y-62579457D01*
X106289974Y-62599448D01*
X106276090Y-62618168D01*
X106260438Y-62635438D01*
X106243168Y-62651090D01*
X106224448Y-62664974D01*
X106204457Y-62676956D01*
X106183387Y-62686921D01*
X106161443Y-62694773D01*
X106138834Y-62700437D01*
X106115779Y-62703856D01*
X106092500Y-62705000D01*
X105517500Y-62705000D01*
X105494221Y-62703856D01*
X105471166Y-62700437D01*
X105448557Y-62694773D01*
X105426613Y-62686921D01*
X105405543Y-62676956D01*
X105385552Y-62664974D01*
X105366832Y-62651090D01*
X105349562Y-62635438D01*
X105333910Y-62618168D01*
X105320026Y-62599448D01*
X105308044Y-62579457D01*
X105298079Y-62558387D01*
X105290227Y-62536443D01*
X105284563Y-62513834D01*
X105281144Y-62490779D01*
X105280000Y-62467500D01*
X105280000Y-61992500D01*
X105281144Y-61969221D01*
X105284563Y-61946166D01*
X105290227Y-61923557D01*
X105298079Y-61901613D01*
X105308044Y-61880543D01*
X105320026Y-61860552D01*
X105333910Y-61841832D01*
X105349562Y-61824562D01*
X105366832Y-61808910D01*
X105385552Y-61795026D01*
X105405543Y-61783044D01*
X105426613Y-61773079D01*
X105448557Y-61765227D01*
X105471166Y-61759563D01*
X105494221Y-61756144D01*
X105517500Y-61755000D01*
X106092500Y-61755000D01*
X106115779Y-61756144D01*
X106115779Y-61756144D01*
G37*
D11*
X105805000Y-62230000D03*
D10*
G36*
X107865779Y-61756144D02*
G01*
X107888834Y-61759563D01*
X107911443Y-61765227D01*
X107933387Y-61773079D01*
X107954457Y-61783044D01*
X107974448Y-61795026D01*
X107993168Y-61808910D01*
X108010438Y-61824562D01*
X108026090Y-61841832D01*
X108039974Y-61860552D01*
X108051956Y-61880543D01*
X108061921Y-61901613D01*
X108069773Y-61923557D01*
X108075437Y-61946166D01*
X108078856Y-61969221D01*
X108080000Y-61992500D01*
X108080000Y-62467500D01*
X108078856Y-62490779D01*
X108075437Y-62513834D01*
X108069773Y-62536443D01*
X108061921Y-62558387D01*
X108051956Y-62579457D01*
X108039974Y-62599448D01*
X108026090Y-62618168D01*
X108010438Y-62635438D01*
X107993168Y-62651090D01*
X107974448Y-62664974D01*
X107954457Y-62676956D01*
X107933387Y-62686921D01*
X107911443Y-62694773D01*
X107888834Y-62700437D01*
X107865779Y-62703856D01*
X107842500Y-62705000D01*
X107267500Y-62705000D01*
X107244221Y-62703856D01*
X107221166Y-62700437D01*
X107198557Y-62694773D01*
X107176613Y-62686921D01*
X107155543Y-62676956D01*
X107135552Y-62664974D01*
X107116832Y-62651090D01*
X107099562Y-62635438D01*
X107083910Y-62618168D01*
X107070026Y-62599448D01*
X107058044Y-62579457D01*
X107048079Y-62558387D01*
X107040227Y-62536443D01*
X107034563Y-62513834D01*
X107031144Y-62490779D01*
X107030000Y-62467500D01*
X107030000Y-61992500D01*
X107031144Y-61969221D01*
X107034563Y-61946166D01*
X107040227Y-61923557D01*
X107048079Y-61901613D01*
X107058044Y-61880543D01*
X107070026Y-61860552D01*
X107083910Y-61841832D01*
X107099562Y-61824562D01*
X107116832Y-61808910D01*
X107135552Y-61795026D01*
X107155543Y-61783044D01*
X107176613Y-61773079D01*
X107198557Y-61765227D01*
X107221166Y-61759563D01*
X107244221Y-61756144D01*
X107267500Y-61755000D01*
X107842500Y-61755000D01*
X107865779Y-61756144D01*
X107865779Y-61756144D01*
G37*
D11*
X107555000Y-62230000D03*
D10*
G36*
X106115779Y-90966144D02*
G01*
X106138834Y-90969563D01*
X106161443Y-90975227D01*
X106183387Y-90983079D01*
X106204457Y-90993044D01*
X106224448Y-91005026D01*
X106243168Y-91018910D01*
X106260438Y-91034562D01*
X106276090Y-91051832D01*
X106289974Y-91070552D01*
X106301956Y-91090543D01*
X106311921Y-91111613D01*
X106319773Y-91133557D01*
X106325437Y-91156166D01*
X106328856Y-91179221D01*
X106330000Y-91202500D01*
X106330000Y-91677500D01*
X106328856Y-91700779D01*
X106325437Y-91723834D01*
X106319773Y-91746443D01*
X106311921Y-91768387D01*
X106301956Y-91789457D01*
X106289974Y-91809448D01*
X106276090Y-91828168D01*
X106260438Y-91845438D01*
X106243168Y-91861090D01*
X106224448Y-91874974D01*
X106204457Y-91886956D01*
X106183387Y-91896921D01*
X106161443Y-91904773D01*
X106138834Y-91910437D01*
X106115779Y-91913856D01*
X106092500Y-91915000D01*
X105517500Y-91915000D01*
X105494221Y-91913856D01*
X105471166Y-91910437D01*
X105448557Y-91904773D01*
X105426613Y-91896921D01*
X105405543Y-91886956D01*
X105385552Y-91874974D01*
X105366832Y-91861090D01*
X105349562Y-91845438D01*
X105333910Y-91828168D01*
X105320026Y-91809448D01*
X105308044Y-91789457D01*
X105298079Y-91768387D01*
X105290227Y-91746443D01*
X105284563Y-91723834D01*
X105281144Y-91700779D01*
X105280000Y-91677500D01*
X105280000Y-91202500D01*
X105281144Y-91179221D01*
X105284563Y-91156166D01*
X105290227Y-91133557D01*
X105298079Y-91111613D01*
X105308044Y-91090543D01*
X105320026Y-91070552D01*
X105333910Y-91051832D01*
X105349562Y-91034562D01*
X105366832Y-91018910D01*
X105385552Y-91005026D01*
X105405543Y-90993044D01*
X105426613Y-90983079D01*
X105448557Y-90975227D01*
X105471166Y-90969563D01*
X105494221Y-90966144D01*
X105517500Y-90965000D01*
X106092500Y-90965000D01*
X106115779Y-90966144D01*
X106115779Y-90966144D01*
G37*
D11*
X105805000Y-91440000D03*
D10*
G36*
X107865779Y-90966144D02*
G01*
X107888834Y-90969563D01*
X107911443Y-90975227D01*
X107933387Y-90983079D01*
X107954457Y-90993044D01*
X107974448Y-91005026D01*
X107993168Y-91018910D01*
X108010438Y-91034562D01*
X108026090Y-91051832D01*
X108039974Y-91070552D01*
X108051956Y-91090543D01*
X108061921Y-91111613D01*
X108069773Y-91133557D01*
X108075437Y-91156166D01*
X108078856Y-91179221D01*
X108080000Y-91202500D01*
X108080000Y-91677500D01*
X108078856Y-91700779D01*
X108075437Y-91723834D01*
X108069773Y-91746443D01*
X108061921Y-91768387D01*
X108051956Y-91789457D01*
X108039974Y-91809448D01*
X108026090Y-91828168D01*
X108010438Y-91845438D01*
X107993168Y-91861090D01*
X107974448Y-91874974D01*
X107954457Y-91886956D01*
X107933387Y-91896921D01*
X107911443Y-91904773D01*
X107888834Y-91910437D01*
X107865779Y-91913856D01*
X107842500Y-91915000D01*
X107267500Y-91915000D01*
X107244221Y-91913856D01*
X107221166Y-91910437D01*
X107198557Y-91904773D01*
X107176613Y-91896921D01*
X107155543Y-91886956D01*
X107135552Y-91874974D01*
X107116832Y-91861090D01*
X107099562Y-91845438D01*
X107083910Y-91828168D01*
X107070026Y-91809448D01*
X107058044Y-91789457D01*
X107048079Y-91768387D01*
X107040227Y-91746443D01*
X107034563Y-91723834D01*
X107031144Y-91700779D01*
X107030000Y-91677500D01*
X107030000Y-91202500D01*
X107031144Y-91179221D01*
X107034563Y-91156166D01*
X107040227Y-91133557D01*
X107048079Y-91111613D01*
X107058044Y-91090543D01*
X107070026Y-91070552D01*
X107083910Y-91051832D01*
X107099562Y-91034562D01*
X107116832Y-91018910D01*
X107135552Y-91005026D01*
X107155543Y-90993044D01*
X107176613Y-90983079D01*
X107198557Y-90975227D01*
X107221166Y-90969563D01*
X107244221Y-90966144D01*
X107267500Y-90965000D01*
X107842500Y-90965000D01*
X107865779Y-90966144D01*
X107865779Y-90966144D01*
G37*
D11*
X107555000Y-91440000D03*
D10*
G36*
X115005779Y-76996144D02*
G01*
X115028834Y-76999563D01*
X115051443Y-77005227D01*
X115073387Y-77013079D01*
X115094457Y-77023044D01*
X115114448Y-77035026D01*
X115133168Y-77048910D01*
X115150438Y-77064562D01*
X115166090Y-77081832D01*
X115179974Y-77100552D01*
X115191956Y-77120543D01*
X115201921Y-77141613D01*
X115209773Y-77163557D01*
X115215437Y-77186166D01*
X115218856Y-77209221D01*
X115220000Y-77232500D01*
X115220000Y-77707500D01*
X115218856Y-77730779D01*
X115215437Y-77753834D01*
X115209773Y-77776443D01*
X115201921Y-77798387D01*
X115191956Y-77819457D01*
X115179974Y-77839448D01*
X115166090Y-77858168D01*
X115150438Y-77875438D01*
X115133168Y-77891090D01*
X115114448Y-77904974D01*
X115094457Y-77916956D01*
X115073387Y-77926921D01*
X115051443Y-77934773D01*
X115028834Y-77940437D01*
X115005779Y-77943856D01*
X114982500Y-77945000D01*
X114407500Y-77945000D01*
X114384221Y-77943856D01*
X114361166Y-77940437D01*
X114338557Y-77934773D01*
X114316613Y-77926921D01*
X114295543Y-77916956D01*
X114275552Y-77904974D01*
X114256832Y-77891090D01*
X114239562Y-77875438D01*
X114223910Y-77858168D01*
X114210026Y-77839448D01*
X114198044Y-77819457D01*
X114188079Y-77798387D01*
X114180227Y-77776443D01*
X114174563Y-77753834D01*
X114171144Y-77730779D01*
X114170000Y-77707500D01*
X114170000Y-77232500D01*
X114171144Y-77209221D01*
X114174563Y-77186166D01*
X114180227Y-77163557D01*
X114188079Y-77141613D01*
X114198044Y-77120543D01*
X114210026Y-77100552D01*
X114223910Y-77081832D01*
X114239562Y-77064562D01*
X114256832Y-77048910D01*
X114275552Y-77035026D01*
X114295543Y-77023044D01*
X114316613Y-77013079D01*
X114338557Y-77005227D01*
X114361166Y-76999563D01*
X114384221Y-76996144D01*
X114407500Y-76995000D01*
X114982500Y-76995000D01*
X115005779Y-76996144D01*
X115005779Y-76996144D01*
G37*
D11*
X114695000Y-77470000D03*
D10*
G36*
X116755779Y-76996144D02*
G01*
X116778834Y-76999563D01*
X116801443Y-77005227D01*
X116823387Y-77013079D01*
X116844457Y-77023044D01*
X116864448Y-77035026D01*
X116883168Y-77048910D01*
X116900438Y-77064562D01*
X116916090Y-77081832D01*
X116929974Y-77100552D01*
X116941956Y-77120543D01*
X116951921Y-77141613D01*
X116959773Y-77163557D01*
X116965437Y-77186166D01*
X116968856Y-77209221D01*
X116970000Y-77232500D01*
X116970000Y-77707500D01*
X116968856Y-77730779D01*
X116965437Y-77753834D01*
X116959773Y-77776443D01*
X116951921Y-77798387D01*
X116941956Y-77819457D01*
X116929974Y-77839448D01*
X116916090Y-77858168D01*
X116900438Y-77875438D01*
X116883168Y-77891090D01*
X116864448Y-77904974D01*
X116844457Y-77916956D01*
X116823387Y-77926921D01*
X116801443Y-77934773D01*
X116778834Y-77940437D01*
X116755779Y-77943856D01*
X116732500Y-77945000D01*
X116157500Y-77945000D01*
X116134221Y-77943856D01*
X116111166Y-77940437D01*
X116088557Y-77934773D01*
X116066613Y-77926921D01*
X116045543Y-77916956D01*
X116025552Y-77904974D01*
X116006832Y-77891090D01*
X115989562Y-77875438D01*
X115973910Y-77858168D01*
X115960026Y-77839448D01*
X115948044Y-77819457D01*
X115938079Y-77798387D01*
X115930227Y-77776443D01*
X115924563Y-77753834D01*
X115921144Y-77730779D01*
X115920000Y-77707500D01*
X115920000Y-77232500D01*
X115921144Y-77209221D01*
X115924563Y-77186166D01*
X115930227Y-77163557D01*
X115938079Y-77141613D01*
X115948044Y-77120543D01*
X115960026Y-77100552D01*
X115973910Y-77081832D01*
X115989562Y-77064562D01*
X116006832Y-77048910D01*
X116025552Y-77035026D01*
X116045543Y-77023044D01*
X116066613Y-77013079D01*
X116088557Y-77005227D01*
X116111166Y-76999563D01*
X116134221Y-76996144D01*
X116157500Y-76995000D01*
X116732500Y-76995000D01*
X116755779Y-76996144D01*
X116755779Y-76996144D01*
G37*
D11*
X116445000Y-77470000D03*
D13*
X113308000Y-67310000D03*
X116308000Y-66360000D03*
X116308000Y-68260000D03*
D14*
X114320000Y-59055000D03*
X116820000Y-59055000D03*
D13*
X116435000Y-88580000D03*
X116435000Y-86680000D03*
X113435000Y-87630000D03*
D10*
G36*
X116755779Y-60486144D02*
G01*
X116778834Y-60489563D01*
X116801443Y-60495227D01*
X116823387Y-60503079D01*
X116844457Y-60513044D01*
X116864448Y-60525026D01*
X116883168Y-60538910D01*
X116900438Y-60554562D01*
X116916090Y-60571832D01*
X116929974Y-60590552D01*
X116941956Y-60610543D01*
X116951921Y-60631613D01*
X116959773Y-60653557D01*
X116965437Y-60676166D01*
X116968856Y-60699221D01*
X116970000Y-60722500D01*
X116970000Y-61197500D01*
X116968856Y-61220779D01*
X116965437Y-61243834D01*
X116959773Y-61266443D01*
X116951921Y-61288387D01*
X116941956Y-61309457D01*
X116929974Y-61329448D01*
X116916090Y-61348168D01*
X116900438Y-61365438D01*
X116883168Y-61381090D01*
X116864448Y-61394974D01*
X116844457Y-61406956D01*
X116823387Y-61416921D01*
X116801443Y-61424773D01*
X116778834Y-61430437D01*
X116755779Y-61433856D01*
X116732500Y-61435000D01*
X116157500Y-61435000D01*
X116134221Y-61433856D01*
X116111166Y-61430437D01*
X116088557Y-61424773D01*
X116066613Y-61416921D01*
X116045543Y-61406956D01*
X116025552Y-61394974D01*
X116006832Y-61381090D01*
X115989562Y-61365438D01*
X115973910Y-61348168D01*
X115960026Y-61329448D01*
X115948044Y-61309457D01*
X115938079Y-61288387D01*
X115930227Y-61266443D01*
X115924563Y-61243834D01*
X115921144Y-61220779D01*
X115920000Y-61197500D01*
X115920000Y-60722500D01*
X115921144Y-60699221D01*
X115924563Y-60676166D01*
X115930227Y-60653557D01*
X115938079Y-60631613D01*
X115948044Y-60610543D01*
X115960026Y-60590552D01*
X115973910Y-60571832D01*
X115989562Y-60554562D01*
X116006832Y-60538910D01*
X116025552Y-60525026D01*
X116045543Y-60513044D01*
X116066613Y-60503079D01*
X116088557Y-60495227D01*
X116111166Y-60489563D01*
X116134221Y-60486144D01*
X116157500Y-60485000D01*
X116732500Y-60485000D01*
X116755779Y-60486144D01*
X116755779Y-60486144D01*
G37*
D11*
X116445000Y-60960000D03*
D10*
G36*
X115005779Y-60486144D02*
G01*
X115028834Y-60489563D01*
X115051443Y-60495227D01*
X115073387Y-60503079D01*
X115094457Y-60513044D01*
X115114448Y-60525026D01*
X115133168Y-60538910D01*
X115150438Y-60554562D01*
X115166090Y-60571832D01*
X115179974Y-60590552D01*
X115191956Y-60610543D01*
X115201921Y-60631613D01*
X115209773Y-60653557D01*
X115215437Y-60676166D01*
X115218856Y-60699221D01*
X115220000Y-60722500D01*
X115220000Y-61197500D01*
X115218856Y-61220779D01*
X115215437Y-61243834D01*
X115209773Y-61266443D01*
X115201921Y-61288387D01*
X115191956Y-61309457D01*
X115179974Y-61329448D01*
X115166090Y-61348168D01*
X115150438Y-61365438D01*
X115133168Y-61381090D01*
X115114448Y-61394974D01*
X115094457Y-61406956D01*
X115073387Y-61416921D01*
X115051443Y-61424773D01*
X115028834Y-61430437D01*
X115005779Y-61433856D01*
X114982500Y-61435000D01*
X114407500Y-61435000D01*
X114384221Y-61433856D01*
X114361166Y-61430437D01*
X114338557Y-61424773D01*
X114316613Y-61416921D01*
X114295543Y-61406956D01*
X114275552Y-61394974D01*
X114256832Y-61381090D01*
X114239562Y-61365438D01*
X114223910Y-61348168D01*
X114210026Y-61329448D01*
X114198044Y-61309457D01*
X114188079Y-61288387D01*
X114180227Y-61266443D01*
X114174563Y-61243834D01*
X114171144Y-61220779D01*
X114170000Y-61197500D01*
X114170000Y-60722500D01*
X114171144Y-60699221D01*
X114174563Y-60676166D01*
X114180227Y-60653557D01*
X114188079Y-60631613D01*
X114198044Y-60610543D01*
X114210026Y-60590552D01*
X114223910Y-60571832D01*
X114239562Y-60554562D01*
X114256832Y-60538910D01*
X114275552Y-60525026D01*
X114295543Y-60513044D01*
X114316613Y-60503079D01*
X114338557Y-60495227D01*
X114361166Y-60489563D01*
X114384221Y-60486144D01*
X114407500Y-60485000D01*
X114982500Y-60485000D01*
X115005779Y-60486144D01*
X115005779Y-60486144D01*
G37*
D11*
X114695000Y-60960000D03*
D10*
G36*
X116755779Y-62391144D02*
G01*
X116778834Y-62394563D01*
X116801443Y-62400227D01*
X116823387Y-62408079D01*
X116844457Y-62418044D01*
X116864448Y-62430026D01*
X116883168Y-62443910D01*
X116900438Y-62459562D01*
X116916090Y-62476832D01*
X116929974Y-62495552D01*
X116941956Y-62515543D01*
X116951921Y-62536613D01*
X116959773Y-62558557D01*
X116965437Y-62581166D01*
X116968856Y-62604221D01*
X116970000Y-62627500D01*
X116970000Y-63102500D01*
X116968856Y-63125779D01*
X116965437Y-63148834D01*
X116959773Y-63171443D01*
X116951921Y-63193387D01*
X116941956Y-63214457D01*
X116929974Y-63234448D01*
X116916090Y-63253168D01*
X116900438Y-63270438D01*
X116883168Y-63286090D01*
X116864448Y-63299974D01*
X116844457Y-63311956D01*
X116823387Y-63321921D01*
X116801443Y-63329773D01*
X116778834Y-63335437D01*
X116755779Y-63338856D01*
X116732500Y-63340000D01*
X116157500Y-63340000D01*
X116134221Y-63338856D01*
X116111166Y-63335437D01*
X116088557Y-63329773D01*
X116066613Y-63321921D01*
X116045543Y-63311956D01*
X116025552Y-63299974D01*
X116006832Y-63286090D01*
X115989562Y-63270438D01*
X115973910Y-63253168D01*
X115960026Y-63234448D01*
X115948044Y-63214457D01*
X115938079Y-63193387D01*
X115930227Y-63171443D01*
X115924563Y-63148834D01*
X115921144Y-63125779D01*
X115920000Y-63102500D01*
X115920000Y-62627500D01*
X115921144Y-62604221D01*
X115924563Y-62581166D01*
X115930227Y-62558557D01*
X115938079Y-62536613D01*
X115948044Y-62515543D01*
X115960026Y-62495552D01*
X115973910Y-62476832D01*
X115989562Y-62459562D01*
X116006832Y-62443910D01*
X116025552Y-62430026D01*
X116045543Y-62418044D01*
X116066613Y-62408079D01*
X116088557Y-62400227D01*
X116111166Y-62394563D01*
X116134221Y-62391144D01*
X116157500Y-62390000D01*
X116732500Y-62390000D01*
X116755779Y-62391144D01*
X116755779Y-62391144D01*
G37*
D11*
X116445000Y-62865000D03*
D10*
G36*
X115005779Y-62391144D02*
G01*
X115028834Y-62394563D01*
X115051443Y-62400227D01*
X115073387Y-62408079D01*
X115094457Y-62418044D01*
X115114448Y-62430026D01*
X115133168Y-62443910D01*
X115150438Y-62459562D01*
X115166090Y-62476832D01*
X115179974Y-62495552D01*
X115191956Y-62515543D01*
X115201921Y-62536613D01*
X115209773Y-62558557D01*
X115215437Y-62581166D01*
X115218856Y-62604221D01*
X115220000Y-62627500D01*
X115220000Y-63102500D01*
X115218856Y-63125779D01*
X115215437Y-63148834D01*
X115209773Y-63171443D01*
X115201921Y-63193387D01*
X115191956Y-63214457D01*
X115179974Y-63234448D01*
X115166090Y-63253168D01*
X115150438Y-63270438D01*
X115133168Y-63286090D01*
X115114448Y-63299974D01*
X115094457Y-63311956D01*
X115073387Y-63321921D01*
X115051443Y-63329773D01*
X115028834Y-63335437D01*
X115005779Y-63338856D01*
X114982500Y-63340000D01*
X114407500Y-63340000D01*
X114384221Y-63338856D01*
X114361166Y-63335437D01*
X114338557Y-63329773D01*
X114316613Y-63321921D01*
X114295543Y-63311956D01*
X114275552Y-63299974D01*
X114256832Y-63286090D01*
X114239562Y-63270438D01*
X114223910Y-63253168D01*
X114210026Y-63234448D01*
X114198044Y-63214457D01*
X114188079Y-63193387D01*
X114180227Y-63171443D01*
X114174563Y-63148834D01*
X114171144Y-63125779D01*
X114170000Y-63102500D01*
X114170000Y-62627500D01*
X114171144Y-62604221D01*
X114174563Y-62581166D01*
X114180227Y-62558557D01*
X114188079Y-62536613D01*
X114198044Y-62515543D01*
X114210026Y-62495552D01*
X114223910Y-62476832D01*
X114239562Y-62459562D01*
X114256832Y-62443910D01*
X114275552Y-62430026D01*
X114295543Y-62418044D01*
X114316613Y-62408079D01*
X114338557Y-62400227D01*
X114361166Y-62394563D01*
X114384221Y-62391144D01*
X114407500Y-62390000D01*
X114982500Y-62390000D01*
X115005779Y-62391144D01*
X115005779Y-62391144D01*
G37*
D11*
X114695000Y-62865000D03*
D10*
G36*
X116755779Y-64296144D02*
G01*
X116778834Y-64299563D01*
X116801443Y-64305227D01*
X116823387Y-64313079D01*
X116844457Y-64323044D01*
X116864448Y-64335026D01*
X116883168Y-64348910D01*
X116900438Y-64364562D01*
X116916090Y-64381832D01*
X116929974Y-64400552D01*
X116941956Y-64420543D01*
X116951921Y-64441613D01*
X116959773Y-64463557D01*
X116965437Y-64486166D01*
X116968856Y-64509221D01*
X116970000Y-64532500D01*
X116970000Y-65007500D01*
X116968856Y-65030779D01*
X116965437Y-65053834D01*
X116959773Y-65076443D01*
X116951921Y-65098387D01*
X116941956Y-65119457D01*
X116929974Y-65139448D01*
X116916090Y-65158168D01*
X116900438Y-65175438D01*
X116883168Y-65191090D01*
X116864448Y-65204974D01*
X116844457Y-65216956D01*
X116823387Y-65226921D01*
X116801443Y-65234773D01*
X116778834Y-65240437D01*
X116755779Y-65243856D01*
X116732500Y-65245000D01*
X116157500Y-65245000D01*
X116134221Y-65243856D01*
X116111166Y-65240437D01*
X116088557Y-65234773D01*
X116066613Y-65226921D01*
X116045543Y-65216956D01*
X116025552Y-65204974D01*
X116006832Y-65191090D01*
X115989562Y-65175438D01*
X115973910Y-65158168D01*
X115960026Y-65139448D01*
X115948044Y-65119457D01*
X115938079Y-65098387D01*
X115930227Y-65076443D01*
X115924563Y-65053834D01*
X115921144Y-65030779D01*
X115920000Y-65007500D01*
X115920000Y-64532500D01*
X115921144Y-64509221D01*
X115924563Y-64486166D01*
X115930227Y-64463557D01*
X115938079Y-64441613D01*
X115948044Y-64420543D01*
X115960026Y-64400552D01*
X115973910Y-64381832D01*
X115989562Y-64364562D01*
X116006832Y-64348910D01*
X116025552Y-64335026D01*
X116045543Y-64323044D01*
X116066613Y-64313079D01*
X116088557Y-64305227D01*
X116111166Y-64299563D01*
X116134221Y-64296144D01*
X116157500Y-64295000D01*
X116732500Y-64295000D01*
X116755779Y-64296144D01*
X116755779Y-64296144D01*
G37*
D11*
X116445000Y-64770000D03*
D10*
G36*
X115005779Y-64296144D02*
G01*
X115028834Y-64299563D01*
X115051443Y-64305227D01*
X115073387Y-64313079D01*
X115094457Y-64323044D01*
X115114448Y-64335026D01*
X115133168Y-64348910D01*
X115150438Y-64364562D01*
X115166090Y-64381832D01*
X115179974Y-64400552D01*
X115191956Y-64420543D01*
X115201921Y-64441613D01*
X115209773Y-64463557D01*
X115215437Y-64486166D01*
X115218856Y-64509221D01*
X115220000Y-64532500D01*
X115220000Y-65007500D01*
X115218856Y-65030779D01*
X115215437Y-65053834D01*
X115209773Y-65076443D01*
X115201921Y-65098387D01*
X115191956Y-65119457D01*
X115179974Y-65139448D01*
X115166090Y-65158168D01*
X115150438Y-65175438D01*
X115133168Y-65191090D01*
X115114448Y-65204974D01*
X115094457Y-65216956D01*
X115073387Y-65226921D01*
X115051443Y-65234773D01*
X115028834Y-65240437D01*
X115005779Y-65243856D01*
X114982500Y-65245000D01*
X114407500Y-65245000D01*
X114384221Y-65243856D01*
X114361166Y-65240437D01*
X114338557Y-65234773D01*
X114316613Y-65226921D01*
X114295543Y-65216956D01*
X114275552Y-65204974D01*
X114256832Y-65191090D01*
X114239562Y-65175438D01*
X114223910Y-65158168D01*
X114210026Y-65139448D01*
X114198044Y-65119457D01*
X114188079Y-65098387D01*
X114180227Y-65076443D01*
X114174563Y-65053834D01*
X114171144Y-65030779D01*
X114170000Y-65007500D01*
X114170000Y-64532500D01*
X114171144Y-64509221D01*
X114174563Y-64486166D01*
X114180227Y-64463557D01*
X114188079Y-64441613D01*
X114198044Y-64420543D01*
X114210026Y-64400552D01*
X114223910Y-64381832D01*
X114239562Y-64364562D01*
X114256832Y-64348910D01*
X114275552Y-64335026D01*
X114295543Y-64323044D01*
X114316613Y-64313079D01*
X114338557Y-64305227D01*
X114361166Y-64299563D01*
X114384221Y-64296144D01*
X114407500Y-64295000D01*
X114982500Y-64295000D01*
X115005779Y-64296144D01*
X115005779Y-64296144D01*
G37*
D11*
X114695000Y-64770000D03*
D10*
G36*
X115005779Y-69376144D02*
G01*
X115028834Y-69379563D01*
X115051443Y-69385227D01*
X115073387Y-69393079D01*
X115094457Y-69403044D01*
X115114448Y-69415026D01*
X115133168Y-69428910D01*
X115150438Y-69444562D01*
X115166090Y-69461832D01*
X115179974Y-69480552D01*
X115191956Y-69500543D01*
X115201921Y-69521613D01*
X115209773Y-69543557D01*
X115215437Y-69566166D01*
X115218856Y-69589221D01*
X115220000Y-69612500D01*
X115220000Y-70087500D01*
X115218856Y-70110779D01*
X115215437Y-70133834D01*
X115209773Y-70156443D01*
X115201921Y-70178387D01*
X115191956Y-70199457D01*
X115179974Y-70219448D01*
X115166090Y-70238168D01*
X115150438Y-70255438D01*
X115133168Y-70271090D01*
X115114448Y-70284974D01*
X115094457Y-70296956D01*
X115073387Y-70306921D01*
X115051443Y-70314773D01*
X115028834Y-70320437D01*
X115005779Y-70323856D01*
X114982500Y-70325000D01*
X114407500Y-70325000D01*
X114384221Y-70323856D01*
X114361166Y-70320437D01*
X114338557Y-70314773D01*
X114316613Y-70306921D01*
X114295543Y-70296956D01*
X114275552Y-70284974D01*
X114256832Y-70271090D01*
X114239562Y-70255438D01*
X114223910Y-70238168D01*
X114210026Y-70219448D01*
X114198044Y-70199457D01*
X114188079Y-70178387D01*
X114180227Y-70156443D01*
X114174563Y-70133834D01*
X114171144Y-70110779D01*
X114170000Y-70087500D01*
X114170000Y-69612500D01*
X114171144Y-69589221D01*
X114174563Y-69566166D01*
X114180227Y-69543557D01*
X114188079Y-69521613D01*
X114198044Y-69500543D01*
X114210026Y-69480552D01*
X114223910Y-69461832D01*
X114239562Y-69444562D01*
X114256832Y-69428910D01*
X114275552Y-69415026D01*
X114295543Y-69403044D01*
X114316613Y-69393079D01*
X114338557Y-69385227D01*
X114361166Y-69379563D01*
X114384221Y-69376144D01*
X114407500Y-69375000D01*
X114982500Y-69375000D01*
X115005779Y-69376144D01*
X115005779Y-69376144D01*
G37*
D11*
X114695000Y-69850000D03*
D10*
G36*
X116755779Y-69376144D02*
G01*
X116778834Y-69379563D01*
X116801443Y-69385227D01*
X116823387Y-69393079D01*
X116844457Y-69403044D01*
X116864448Y-69415026D01*
X116883168Y-69428910D01*
X116900438Y-69444562D01*
X116916090Y-69461832D01*
X116929974Y-69480552D01*
X116941956Y-69500543D01*
X116951921Y-69521613D01*
X116959773Y-69543557D01*
X116965437Y-69566166D01*
X116968856Y-69589221D01*
X116970000Y-69612500D01*
X116970000Y-70087500D01*
X116968856Y-70110779D01*
X116965437Y-70133834D01*
X116959773Y-70156443D01*
X116951921Y-70178387D01*
X116941956Y-70199457D01*
X116929974Y-70219448D01*
X116916090Y-70238168D01*
X116900438Y-70255438D01*
X116883168Y-70271090D01*
X116864448Y-70284974D01*
X116844457Y-70296956D01*
X116823387Y-70306921D01*
X116801443Y-70314773D01*
X116778834Y-70320437D01*
X116755779Y-70323856D01*
X116732500Y-70325000D01*
X116157500Y-70325000D01*
X116134221Y-70323856D01*
X116111166Y-70320437D01*
X116088557Y-70314773D01*
X116066613Y-70306921D01*
X116045543Y-70296956D01*
X116025552Y-70284974D01*
X116006832Y-70271090D01*
X115989562Y-70255438D01*
X115973910Y-70238168D01*
X115960026Y-70219448D01*
X115948044Y-70199457D01*
X115938079Y-70178387D01*
X115930227Y-70156443D01*
X115924563Y-70133834D01*
X115921144Y-70110779D01*
X115920000Y-70087500D01*
X115920000Y-69612500D01*
X115921144Y-69589221D01*
X115924563Y-69566166D01*
X115930227Y-69543557D01*
X115938079Y-69521613D01*
X115948044Y-69500543D01*
X115960026Y-69480552D01*
X115973910Y-69461832D01*
X115989562Y-69444562D01*
X116006832Y-69428910D01*
X116025552Y-69415026D01*
X116045543Y-69403044D01*
X116066613Y-69393079D01*
X116088557Y-69385227D01*
X116111166Y-69379563D01*
X116134221Y-69376144D01*
X116157500Y-69375000D01*
X116732500Y-69375000D01*
X116755779Y-69376144D01*
X116755779Y-69376144D01*
G37*
D11*
X116445000Y-69850000D03*
D10*
G36*
X108845779Y-87501144D02*
G01*
X108868834Y-87504563D01*
X108891443Y-87510227D01*
X108913387Y-87518079D01*
X108934457Y-87528044D01*
X108954448Y-87540026D01*
X108973168Y-87553910D01*
X108990438Y-87569562D01*
X109006090Y-87586832D01*
X109019974Y-87605552D01*
X109031956Y-87625543D01*
X109041921Y-87646613D01*
X109049773Y-87668557D01*
X109055437Y-87691166D01*
X109058856Y-87714221D01*
X109060000Y-87737500D01*
X109060000Y-88312500D01*
X109058856Y-88335779D01*
X109055437Y-88358834D01*
X109049773Y-88381443D01*
X109041921Y-88403387D01*
X109031956Y-88424457D01*
X109019974Y-88444448D01*
X109006090Y-88463168D01*
X108990438Y-88480438D01*
X108973168Y-88496090D01*
X108954448Y-88509974D01*
X108934457Y-88521956D01*
X108913387Y-88531921D01*
X108891443Y-88539773D01*
X108868834Y-88545437D01*
X108845779Y-88548856D01*
X108822500Y-88550000D01*
X108347500Y-88550000D01*
X108324221Y-88548856D01*
X108301166Y-88545437D01*
X108278557Y-88539773D01*
X108256613Y-88531921D01*
X108235543Y-88521956D01*
X108215552Y-88509974D01*
X108196832Y-88496090D01*
X108179562Y-88480438D01*
X108163910Y-88463168D01*
X108150026Y-88444448D01*
X108138044Y-88424457D01*
X108128079Y-88403387D01*
X108120227Y-88381443D01*
X108114563Y-88358834D01*
X108111144Y-88335779D01*
X108110000Y-88312500D01*
X108110000Y-87737500D01*
X108111144Y-87714221D01*
X108114563Y-87691166D01*
X108120227Y-87668557D01*
X108128079Y-87646613D01*
X108138044Y-87625543D01*
X108150026Y-87605552D01*
X108163910Y-87586832D01*
X108179562Y-87569562D01*
X108196832Y-87553910D01*
X108215552Y-87540026D01*
X108235543Y-87528044D01*
X108256613Y-87518079D01*
X108278557Y-87510227D01*
X108301166Y-87504563D01*
X108324221Y-87501144D01*
X108347500Y-87500000D01*
X108822500Y-87500000D01*
X108845779Y-87501144D01*
X108845779Y-87501144D01*
G37*
D11*
X108585000Y-88025000D03*
D10*
G36*
X108845779Y-89251144D02*
G01*
X108868834Y-89254563D01*
X108891443Y-89260227D01*
X108913387Y-89268079D01*
X108934457Y-89278044D01*
X108954448Y-89290026D01*
X108973168Y-89303910D01*
X108990438Y-89319562D01*
X109006090Y-89336832D01*
X109019974Y-89355552D01*
X109031956Y-89375543D01*
X109041921Y-89396613D01*
X109049773Y-89418557D01*
X109055437Y-89441166D01*
X109058856Y-89464221D01*
X109060000Y-89487500D01*
X109060000Y-90062500D01*
X109058856Y-90085779D01*
X109055437Y-90108834D01*
X109049773Y-90131443D01*
X109041921Y-90153387D01*
X109031956Y-90174457D01*
X109019974Y-90194448D01*
X109006090Y-90213168D01*
X108990438Y-90230438D01*
X108973168Y-90246090D01*
X108954448Y-90259974D01*
X108934457Y-90271956D01*
X108913387Y-90281921D01*
X108891443Y-90289773D01*
X108868834Y-90295437D01*
X108845779Y-90298856D01*
X108822500Y-90300000D01*
X108347500Y-90300000D01*
X108324221Y-90298856D01*
X108301166Y-90295437D01*
X108278557Y-90289773D01*
X108256613Y-90281921D01*
X108235543Y-90271956D01*
X108215552Y-90259974D01*
X108196832Y-90246090D01*
X108179562Y-90230438D01*
X108163910Y-90213168D01*
X108150026Y-90194448D01*
X108138044Y-90174457D01*
X108128079Y-90153387D01*
X108120227Y-90131443D01*
X108114563Y-90108834D01*
X108111144Y-90085779D01*
X108110000Y-90062500D01*
X108110000Y-89487500D01*
X108111144Y-89464221D01*
X108114563Y-89441166D01*
X108120227Y-89418557D01*
X108128079Y-89396613D01*
X108138044Y-89375543D01*
X108150026Y-89355552D01*
X108163910Y-89336832D01*
X108179562Y-89319562D01*
X108196832Y-89303910D01*
X108215552Y-89290026D01*
X108235543Y-89278044D01*
X108256613Y-89268079D01*
X108278557Y-89260227D01*
X108301166Y-89254563D01*
X108324221Y-89251144D01*
X108347500Y-89250000D01*
X108822500Y-89250000D01*
X108845779Y-89251144D01*
X108845779Y-89251144D01*
G37*
D11*
X108585000Y-89775000D03*
D10*
G36*
X105035779Y-89251144D02*
G01*
X105058834Y-89254563D01*
X105081443Y-89260227D01*
X105103387Y-89268079D01*
X105124457Y-89278044D01*
X105144448Y-89290026D01*
X105163168Y-89303910D01*
X105180438Y-89319562D01*
X105196090Y-89336832D01*
X105209974Y-89355552D01*
X105221956Y-89375543D01*
X105231921Y-89396613D01*
X105239773Y-89418557D01*
X105245437Y-89441166D01*
X105248856Y-89464221D01*
X105250000Y-89487500D01*
X105250000Y-90062500D01*
X105248856Y-90085779D01*
X105245437Y-90108834D01*
X105239773Y-90131443D01*
X105231921Y-90153387D01*
X105221956Y-90174457D01*
X105209974Y-90194448D01*
X105196090Y-90213168D01*
X105180438Y-90230438D01*
X105163168Y-90246090D01*
X105144448Y-90259974D01*
X105124457Y-90271956D01*
X105103387Y-90281921D01*
X105081443Y-90289773D01*
X105058834Y-90295437D01*
X105035779Y-90298856D01*
X105012500Y-90300000D01*
X104537500Y-90300000D01*
X104514221Y-90298856D01*
X104491166Y-90295437D01*
X104468557Y-90289773D01*
X104446613Y-90281921D01*
X104425543Y-90271956D01*
X104405552Y-90259974D01*
X104386832Y-90246090D01*
X104369562Y-90230438D01*
X104353910Y-90213168D01*
X104340026Y-90194448D01*
X104328044Y-90174457D01*
X104318079Y-90153387D01*
X104310227Y-90131443D01*
X104304563Y-90108834D01*
X104301144Y-90085779D01*
X104300000Y-90062500D01*
X104300000Y-89487500D01*
X104301144Y-89464221D01*
X104304563Y-89441166D01*
X104310227Y-89418557D01*
X104318079Y-89396613D01*
X104328044Y-89375543D01*
X104340026Y-89355552D01*
X104353910Y-89336832D01*
X104369562Y-89319562D01*
X104386832Y-89303910D01*
X104405552Y-89290026D01*
X104425543Y-89278044D01*
X104446613Y-89268079D01*
X104468557Y-89260227D01*
X104491166Y-89254563D01*
X104514221Y-89251144D01*
X104537500Y-89250000D01*
X105012500Y-89250000D01*
X105035779Y-89251144D01*
X105035779Y-89251144D01*
G37*
D11*
X104775000Y-89775000D03*
D10*
G36*
X105035779Y-87501144D02*
G01*
X105058834Y-87504563D01*
X105081443Y-87510227D01*
X105103387Y-87518079D01*
X105124457Y-87528044D01*
X105144448Y-87540026D01*
X105163168Y-87553910D01*
X105180438Y-87569562D01*
X105196090Y-87586832D01*
X105209974Y-87605552D01*
X105221956Y-87625543D01*
X105231921Y-87646613D01*
X105239773Y-87668557D01*
X105245437Y-87691166D01*
X105248856Y-87714221D01*
X105250000Y-87737500D01*
X105250000Y-88312500D01*
X105248856Y-88335779D01*
X105245437Y-88358834D01*
X105239773Y-88381443D01*
X105231921Y-88403387D01*
X105221956Y-88424457D01*
X105209974Y-88444448D01*
X105196090Y-88463168D01*
X105180438Y-88480438D01*
X105163168Y-88496090D01*
X105144448Y-88509974D01*
X105124457Y-88521956D01*
X105103387Y-88531921D01*
X105081443Y-88539773D01*
X105058834Y-88545437D01*
X105035779Y-88548856D01*
X105012500Y-88550000D01*
X104537500Y-88550000D01*
X104514221Y-88548856D01*
X104491166Y-88545437D01*
X104468557Y-88539773D01*
X104446613Y-88531921D01*
X104425543Y-88521956D01*
X104405552Y-88509974D01*
X104386832Y-88496090D01*
X104369562Y-88480438D01*
X104353910Y-88463168D01*
X104340026Y-88444448D01*
X104328044Y-88424457D01*
X104318079Y-88403387D01*
X104310227Y-88381443D01*
X104304563Y-88358834D01*
X104301144Y-88335779D01*
X104300000Y-88312500D01*
X104300000Y-87737500D01*
X104301144Y-87714221D01*
X104304563Y-87691166D01*
X104310227Y-87668557D01*
X104318079Y-87646613D01*
X104328044Y-87625543D01*
X104340026Y-87605552D01*
X104353910Y-87586832D01*
X104369562Y-87569562D01*
X104386832Y-87553910D01*
X104405552Y-87540026D01*
X104425543Y-87528044D01*
X104446613Y-87518079D01*
X104468557Y-87510227D01*
X104491166Y-87504563D01*
X104514221Y-87501144D01*
X104537500Y-87500000D01*
X105012500Y-87500000D01*
X105035779Y-87501144D01*
X105035779Y-87501144D01*
G37*
D11*
X104775000Y-88025000D03*
D10*
G36*
X107865779Y-77631144D02*
G01*
X107888834Y-77634563D01*
X107911443Y-77640227D01*
X107933387Y-77648079D01*
X107954457Y-77658044D01*
X107974448Y-77670026D01*
X107993168Y-77683910D01*
X108010438Y-77699562D01*
X108026090Y-77716832D01*
X108039974Y-77735552D01*
X108051956Y-77755543D01*
X108061921Y-77776613D01*
X108069773Y-77798557D01*
X108075437Y-77821166D01*
X108078856Y-77844221D01*
X108080000Y-77867500D01*
X108080000Y-78342500D01*
X108078856Y-78365779D01*
X108075437Y-78388834D01*
X108069773Y-78411443D01*
X108061921Y-78433387D01*
X108051956Y-78454457D01*
X108039974Y-78474448D01*
X108026090Y-78493168D01*
X108010438Y-78510438D01*
X107993168Y-78526090D01*
X107974448Y-78539974D01*
X107954457Y-78551956D01*
X107933387Y-78561921D01*
X107911443Y-78569773D01*
X107888834Y-78575437D01*
X107865779Y-78578856D01*
X107842500Y-78580000D01*
X107267500Y-78580000D01*
X107244221Y-78578856D01*
X107221166Y-78575437D01*
X107198557Y-78569773D01*
X107176613Y-78561921D01*
X107155543Y-78551956D01*
X107135552Y-78539974D01*
X107116832Y-78526090D01*
X107099562Y-78510438D01*
X107083910Y-78493168D01*
X107070026Y-78474448D01*
X107058044Y-78454457D01*
X107048079Y-78433387D01*
X107040227Y-78411443D01*
X107034563Y-78388834D01*
X107031144Y-78365779D01*
X107030000Y-78342500D01*
X107030000Y-77867500D01*
X107031144Y-77844221D01*
X107034563Y-77821166D01*
X107040227Y-77798557D01*
X107048079Y-77776613D01*
X107058044Y-77755543D01*
X107070026Y-77735552D01*
X107083910Y-77716832D01*
X107099562Y-77699562D01*
X107116832Y-77683910D01*
X107135552Y-77670026D01*
X107155543Y-77658044D01*
X107176613Y-77648079D01*
X107198557Y-77640227D01*
X107221166Y-77634563D01*
X107244221Y-77631144D01*
X107267500Y-77630000D01*
X107842500Y-77630000D01*
X107865779Y-77631144D01*
X107865779Y-77631144D01*
G37*
D11*
X107555000Y-78105000D03*
D10*
G36*
X106115779Y-77631144D02*
G01*
X106138834Y-77634563D01*
X106161443Y-77640227D01*
X106183387Y-77648079D01*
X106204457Y-77658044D01*
X106224448Y-77670026D01*
X106243168Y-77683910D01*
X106260438Y-77699562D01*
X106276090Y-77716832D01*
X106289974Y-77735552D01*
X106301956Y-77755543D01*
X106311921Y-77776613D01*
X106319773Y-77798557D01*
X106325437Y-77821166D01*
X106328856Y-77844221D01*
X106330000Y-77867500D01*
X106330000Y-78342500D01*
X106328856Y-78365779D01*
X106325437Y-78388834D01*
X106319773Y-78411443D01*
X106311921Y-78433387D01*
X106301956Y-78454457D01*
X106289974Y-78474448D01*
X106276090Y-78493168D01*
X106260438Y-78510438D01*
X106243168Y-78526090D01*
X106224448Y-78539974D01*
X106204457Y-78551956D01*
X106183387Y-78561921D01*
X106161443Y-78569773D01*
X106138834Y-78575437D01*
X106115779Y-78578856D01*
X106092500Y-78580000D01*
X105517500Y-78580000D01*
X105494221Y-78578856D01*
X105471166Y-78575437D01*
X105448557Y-78569773D01*
X105426613Y-78561921D01*
X105405543Y-78551956D01*
X105385552Y-78539974D01*
X105366832Y-78526090D01*
X105349562Y-78510438D01*
X105333910Y-78493168D01*
X105320026Y-78474448D01*
X105308044Y-78454457D01*
X105298079Y-78433387D01*
X105290227Y-78411443D01*
X105284563Y-78388834D01*
X105281144Y-78365779D01*
X105280000Y-78342500D01*
X105280000Y-77867500D01*
X105281144Y-77844221D01*
X105284563Y-77821166D01*
X105290227Y-77798557D01*
X105298079Y-77776613D01*
X105308044Y-77755543D01*
X105320026Y-77735552D01*
X105333910Y-77716832D01*
X105349562Y-77699562D01*
X105366832Y-77683910D01*
X105385552Y-77670026D01*
X105405543Y-77658044D01*
X105426613Y-77648079D01*
X105448557Y-77640227D01*
X105471166Y-77634563D01*
X105494221Y-77631144D01*
X105517500Y-77630000D01*
X106092500Y-77630000D01*
X106115779Y-77631144D01*
X106115779Y-77631144D01*
G37*
D11*
X105805000Y-78105000D03*
D10*
G36*
X107865779Y-63661144D02*
G01*
X107888834Y-63664563D01*
X107911443Y-63670227D01*
X107933387Y-63678079D01*
X107954457Y-63688044D01*
X107974448Y-63700026D01*
X107993168Y-63713910D01*
X108010438Y-63729562D01*
X108026090Y-63746832D01*
X108039974Y-63765552D01*
X108051956Y-63785543D01*
X108061921Y-63806613D01*
X108069773Y-63828557D01*
X108075437Y-63851166D01*
X108078856Y-63874221D01*
X108080000Y-63897500D01*
X108080000Y-64372500D01*
X108078856Y-64395779D01*
X108075437Y-64418834D01*
X108069773Y-64441443D01*
X108061921Y-64463387D01*
X108051956Y-64484457D01*
X108039974Y-64504448D01*
X108026090Y-64523168D01*
X108010438Y-64540438D01*
X107993168Y-64556090D01*
X107974448Y-64569974D01*
X107954457Y-64581956D01*
X107933387Y-64591921D01*
X107911443Y-64599773D01*
X107888834Y-64605437D01*
X107865779Y-64608856D01*
X107842500Y-64610000D01*
X107267500Y-64610000D01*
X107244221Y-64608856D01*
X107221166Y-64605437D01*
X107198557Y-64599773D01*
X107176613Y-64591921D01*
X107155543Y-64581956D01*
X107135552Y-64569974D01*
X107116832Y-64556090D01*
X107099562Y-64540438D01*
X107083910Y-64523168D01*
X107070026Y-64504448D01*
X107058044Y-64484457D01*
X107048079Y-64463387D01*
X107040227Y-64441443D01*
X107034563Y-64418834D01*
X107031144Y-64395779D01*
X107030000Y-64372500D01*
X107030000Y-63897500D01*
X107031144Y-63874221D01*
X107034563Y-63851166D01*
X107040227Y-63828557D01*
X107048079Y-63806613D01*
X107058044Y-63785543D01*
X107070026Y-63765552D01*
X107083910Y-63746832D01*
X107099562Y-63729562D01*
X107116832Y-63713910D01*
X107135552Y-63700026D01*
X107155543Y-63688044D01*
X107176613Y-63678079D01*
X107198557Y-63670227D01*
X107221166Y-63664563D01*
X107244221Y-63661144D01*
X107267500Y-63660000D01*
X107842500Y-63660000D01*
X107865779Y-63661144D01*
X107865779Y-63661144D01*
G37*
D11*
X107555000Y-64135000D03*
D10*
G36*
X106115779Y-63661144D02*
G01*
X106138834Y-63664563D01*
X106161443Y-63670227D01*
X106183387Y-63678079D01*
X106204457Y-63688044D01*
X106224448Y-63700026D01*
X106243168Y-63713910D01*
X106260438Y-63729562D01*
X106276090Y-63746832D01*
X106289974Y-63765552D01*
X106301956Y-63785543D01*
X106311921Y-63806613D01*
X106319773Y-63828557D01*
X106325437Y-63851166D01*
X106328856Y-63874221D01*
X106330000Y-63897500D01*
X106330000Y-64372500D01*
X106328856Y-64395779D01*
X106325437Y-64418834D01*
X106319773Y-64441443D01*
X106311921Y-64463387D01*
X106301956Y-64484457D01*
X106289974Y-64504448D01*
X106276090Y-64523168D01*
X106260438Y-64540438D01*
X106243168Y-64556090D01*
X106224448Y-64569974D01*
X106204457Y-64581956D01*
X106183387Y-64591921D01*
X106161443Y-64599773D01*
X106138834Y-64605437D01*
X106115779Y-64608856D01*
X106092500Y-64610000D01*
X105517500Y-64610000D01*
X105494221Y-64608856D01*
X105471166Y-64605437D01*
X105448557Y-64599773D01*
X105426613Y-64591921D01*
X105405543Y-64581956D01*
X105385552Y-64569974D01*
X105366832Y-64556090D01*
X105349562Y-64540438D01*
X105333910Y-64523168D01*
X105320026Y-64504448D01*
X105308044Y-64484457D01*
X105298079Y-64463387D01*
X105290227Y-64441443D01*
X105284563Y-64418834D01*
X105281144Y-64395779D01*
X105280000Y-64372500D01*
X105280000Y-63897500D01*
X105281144Y-63874221D01*
X105284563Y-63851166D01*
X105290227Y-63828557D01*
X105298079Y-63806613D01*
X105308044Y-63785543D01*
X105320026Y-63765552D01*
X105333910Y-63746832D01*
X105349562Y-63729562D01*
X105366832Y-63713910D01*
X105385552Y-63700026D01*
X105405543Y-63688044D01*
X105426613Y-63678079D01*
X105448557Y-63670227D01*
X105471166Y-63664563D01*
X105494221Y-63661144D01*
X105517500Y-63660000D01*
X106092500Y-63660000D01*
X106115779Y-63661144D01*
X106115779Y-63661144D01*
G37*
D11*
X105805000Y-64135000D03*
D10*
G36*
X115005779Y-75091144D02*
G01*
X115028834Y-75094563D01*
X115051443Y-75100227D01*
X115073387Y-75108079D01*
X115094457Y-75118044D01*
X115114448Y-75130026D01*
X115133168Y-75143910D01*
X115150438Y-75159562D01*
X115166090Y-75176832D01*
X115179974Y-75195552D01*
X115191956Y-75215543D01*
X115201921Y-75236613D01*
X115209773Y-75258557D01*
X115215437Y-75281166D01*
X115218856Y-75304221D01*
X115220000Y-75327500D01*
X115220000Y-75802500D01*
X115218856Y-75825779D01*
X115215437Y-75848834D01*
X115209773Y-75871443D01*
X115201921Y-75893387D01*
X115191956Y-75914457D01*
X115179974Y-75934448D01*
X115166090Y-75953168D01*
X115150438Y-75970438D01*
X115133168Y-75986090D01*
X115114448Y-75999974D01*
X115094457Y-76011956D01*
X115073387Y-76021921D01*
X115051443Y-76029773D01*
X115028834Y-76035437D01*
X115005779Y-76038856D01*
X114982500Y-76040000D01*
X114407500Y-76040000D01*
X114384221Y-76038856D01*
X114361166Y-76035437D01*
X114338557Y-76029773D01*
X114316613Y-76021921D01*
X114295543Y-76011956D01*
X114275552Y-75999974D01*
X114256832Y-75986090D01*
X114239562Y-75970438D01*
X114223910Y-75953168D01*
X114210026Y-75934448D01*
X114198044Y-75914457D01*
X114188079Y-75893387D01*
X114180227Y-75871443D01*
X114174563Y-75848834D01*
X114171144Y-75825779D01*
X114170000Y-75802500D01*
X114170000Y-75327500D01*
X114171144Y-75304221D01*
X114174563Y-75281166D01*
X114180227Y-75258557D01*
X114188079Y-75236613D01*
X114198044Y-75215543D01*
X114210026Y-75195552D01*
X114223910Y-75176832D01*
X114239562Y-75159562D01*
X114256832Y-75143910D01*
X114275552Y-75130026D01*
X114295543Y-75118044D01*
X114316613Y-75108079D01*
X114338557Y-75100227D01*
X114361166Y-75094563D01*
X114384221Y-75091144D01*
X114407500Y-75090000D01*
X114982500Y-75090000D01*
X115005779Y-75091144D01*
X115005779Y-75091144D01*
G37*
D11*
X114695000Y-75565000D03*
D10*
G36*
X116755779Y-75091144D02*
G01*
X116778834Y-75094563D01*
X116801443Y-75100227D01*
X116823387Y-75108079D01*
X116844457Y-75118044D01*
X116864448Y-75130026D01*
X116883168Y-75143910D01*
X116900438Y-75159562D01*
X116916090Y-75176832D01*
X116929974Y-75195552D01*
X116941956Y-75215543D01*
X116951921Y-75236613D01*
X116959773Y-75258557D01*
X116965437Y-75281166D01*
X116968856Y-75304221D01*
X116970000Y-75327500D01*
X116970000Y-75802500D01*
X116968856Y-75825779D01*
X116965437Y-75848834D01*
X116959773Y-75871443D01*
X116951921Y-75893387D01*
X116941956Y-75914457D01*
X116929974Y-75934448D01*
X116916090Y-75953168D01*
X116900438Y-75970438D01*
X116883168Y-75986090D01*
X116864448Y-75999974D01*
X116844457Y-76011956D01*
X116823387Y-76021921D01*
X116801443Y-76029773D01*
X116778834Y-76035437D01*
X116755779Y-76038856D01*
X116732500Y-76040000D01*
X116157500Y-76040000D01*
X116134221Y-76038856D01*
X116111166Y-76035437D01*
X116088557Y-76029773D01*
X116066613Y-76021921D01*
X116045543Y-76011956D01*
X116025552Y-75999974D01*
X116006832Y-75986090D01*
X115989562Y-75970438D01*
X115973910Y-75953168D01*
X115960026Y-75934448D01*
X115948044Y-75914457D01*
X115938079Y-75893387D01*
X115930227Y-75871443D01*
X115924563Y-75848834D01*
X115921144Y-75825779D01*
X115920000Y-75802500D01*
X115920000Y-75327500D01*
X115921144Y-75304221D01*
X115924563Y-75281166D01*
X115930227Y-75258557D01*
X115938079Y-75236613D01*
X115948044Y-75215543D01*
X115960026Y-75195552D01*
X115973910Y-75176832D01*
X115989562Y-75159562D01*
X116006832Y-75143910D01*
X116025552Y-75130026D01*
X116045543Y-75118044D01*
X116066613Y-75108079D01*
X116088557Y-75100227D01*
X116111166Y-75094563D01*
X116134221Y-75091144D01*
X116157500Y-75090000D01*
X116732500Y-75090000D01*
X116755779Y-75091144D01*
X116755779Y-75091144D01*
G37*
D11*
X116445000Y-75565000D03*
D10*
G36*
X116755779Y-78901144D02*
G01*
X116778834Y-78904563D01*
X116801443Y-78910227D01*
X116823387Y-78918079D01*
X116844457Y-78928044D01*
X116864448Y-78940026D01*
X116883168Y-78953910D01*
X116900438Y-78969562D01*
X116916090Y-78986832D01*
X116929974Y-79005552D01*
X116941956Y-79025543D01*
X116951921Y-79046613D01*
X116959773Y-79068557D01*
X116965437Y-79091166D01*
X116968856Y-79114221D01*
X116970000Y-79137500D01*
X116970000Y-79612500D01*
X116968856Y-79635779D01*
X116965437Y-79658834D01*
X116959773Y-79681443D01*
X116951921Y-79703387D01*
X116941956Y-79724457D01*
X116929974Y-79744448D01*
X116916090Y-79763168D01*
X116900438Y-79780438D01*
X116883168Y-79796090D01*
X116864448Y-79809974D01*
X116844457Y-79821956D01*
X116823387Y-79831921D01*
X116801443Y-79839773D01*
X116778834Y-79845437D01*
X116755779Y-79848856D01*
X116732500Y-79850000D01*
X116157500Y-79850000D01*
X116134221Y-79848856D01*
X116111166Y-79845437D01*
X116088557Y-79839773D01*
X116066613Y-79831921D01*
X116045543Y-79821956D01*
X116025552Y-79809974D01*
X116006832Y-79796090D01*
X115989562Y-79780438D01*
X115973910Y-79763168D01*
X115960026Y-79744448D01*
X115948044Y-79724457D01*
X115938079Y-79703387D01*
X115930227Y-79681443D01*
X115924563Y-79658834D01*
X115921144Y-79635779D01*
X115920000Y-79612500D01*
X115920000Y-79137500D01*
X115921144Y-79114221D01*
X115924563Y-79091166D01*
X115930227Y-79068557D01*
X115938079Y-79046613D01*
X115948044Y-79025543D01*
X115960026Y-79005552D01*
X115973910Y-78986832D01*
X115989562Y-78969562D01*
X116006832Y-78953910D01*
X116025552Y-78940026D01*
X116045543Y-78928044D01*
X116066613Y-78918079D01*
X116088557Y-78910227D01*
X116111166Y-78904563D01*
X116134221Y-78901144D01*
X116157500Y-78900000D01*
X116732500Y-78900000D01*
X116755779Y-78901144D01*
X116755779Y-78901144D01*
G37*
D11*
X116445000Y-79375000D03*
D10*
G36*
X115005779Y-78901144D02*
G01*
X115028834Y-78904563D01*
X115051443Y-78910227D01*
X115073387Y-78918079D01*
X115094457Y-78928044D01*
X115114448Y-78940026D01*
X115133168Y-78953910D01*
X115150438Y-78969562D01*
X115166090Y-78986832D01*
X115179974Y-79005552D01*
X115191956Y-79025543D01*
X115201921Y-79046613D01*
X115209773Y-79068557D01*
X115215437Y-79091166D01*
X115218856Y-79114221D01*
X115220000Y-79137500D01*
X115220000Y-79612500D01*
X115218856Y-79635779D01*
X115215437Y-79658834D01*
X115209773Y-79681443D01*
X115201921Y-79703387D01*
X115191956Y-79724457D01*
X115179974Y-79744448D01*
X115166090Y-79763168D01*
X115150438Y-79780438D01*
X115133168Y-79796090D01*
X115114448Y-79809974D01*
X115094457Y-79821956D01*
X115073387Y-79831921D01*
X115051443Y-79839773D01*
X115028834Y-79845437D01*
X115005779Y-79848856D01*
X114982500Y-79850000D01*
X114407500Y-79850000D01*
X114384221Y-79848856D01*
X114361166Y-79845437D01*
X114338557Y-79839773D01*
X114316613Y-79831921D01*
X114295543Y-79821956D01*
X114275552Y-79809974D01*
X114256832Y-79796090D01*
X114239562Y-79780438D01*
X114223910Y-79763168D01*
X114210026Y-79744448D01*
X114198044Y-79724457D01*
X114188079Y-79703387D01*
X114180227Y-79681443D01*
X114174563Y-79658834D01*
X114171144Y-79635779D01*
X114170000Y-79612500D01*
X114170000Y-79137500D01*
X114171144Y-79114221D01*
X114174563Y-79091166D01*
X114180227Y-79068557D01*
X114188079Y-79046613D01*
X114198044Y-79025543D01*
X114210026Y-79005552D01*
X114223910Y-78986832D01*
X114239562Y-78969562D01*
X114256832Y-78953910D01*
X114275552Y-78940026D01*
X114295543Y-78928044D01*
X114316613Y-78918079D01*
X114338557Y-78910227D01*
X114361166Y-78904563D01*
X114384221Y-78901144D01*
X114407500Y-78900000D01*
X114982500Y-78900000D01*
X115005779Y-78901144D01*
X115005779Y-78901144D01*
G37*
D11*
X114695000Y-79375000D03*
D10*
G36*
X110944703Y-93045722D02*
G01*
X110959264Y-93047882D01*
X110973543Y-93051459D01*
X110987403Y-93056418D01*
X111000710Y-93062712D01*
X111013336Y-93070280D01*
X111025159Y-93079048D01*
X111036066Y-93088934D01*
X111045952Y-93099841D01*
X111054720Y-93111664D01*
X111062288Y-93124290D01*
X111068582Y-93137597D01*
X111073541Y-93151457D01*
X111077118Y-93165736D01*
X111079278Y-93180297D01*
X111080000Y-93195000D01*
X111080000Y-93495000D01*
X111079278Y-93509703D01*
X111077118Y-93524264D01*
X111073541Y-93538543D01*
X111068582Y-93552403D01*
X111062288Y-93565710D01*
X111054720Y-93578336D01*
X111045952Y-93590159D01*
X111036066Y-93601066D01*
X111025159Y-93610952D01*
X111013336Y-93619720D01*
X111000710Y-93627288D01*
X110987403Y-93633582D01*
X110973543Y-93638541D01*
X110959264Y-93642118D01*
X110944703Y-93644278D01*
X110930000Y-93645000D01*
X109630000Y-93645000D01*
X109615297Y-93644278D01*
X109600736Y-93642118D01*
X109586457Y-93638541D01*
X109572597Y-93633582D01*
X109559290Y-93627288D01*
X109546664Y-93619720D01*
X109534841Y-93610952D01*
X109523934Y-93601066D01*
X109514048Y-93590159D01*
X109505280Y-93578336D01*
X109497712Y-93565710D01*
X109491418Y-93552403D01*
X109486459Y-93538543D01*
X109482882Y-93524264D01*
X109480722Y-93509703D01*
X109480000Y-93495000D01*
X109480000Y-93195000D01*
X109480722Y-93180297D01*
X109482882Y-93165736D01*
X109486459Y-93151457D01*
X109491418Y-93137597D01*
X109497712Y-93124290D01*
X109505280Y-93111664D01*
X109514048Y-93099841D01*
X109523934Y-93088934D01*
X109534841Y-93079048D01*
X109546664Y-93070280D01*
X109559290Y-93062712D01*
X109572597Y-93056418D01*
X109586457Y-93051459D01*
X109600736Y-93047882D01*
X109615297Y-93045722D01*
X109630000Y-93045000D01*
X110930000Y-93045000D01*
X110944703Y-93045722D01*
X110944703Y-93045722D01*
G37*
D12*
X110280000Y-93345000D03*
D10*
G36*
X110944703Y-94315722D02*
G01*
X110959264Y-94317882D01*
X110973543Y-94321459D01*
X110987403Y-94326418D01*
X111000710Y-94332712D01*
X111013336Y-94340280D01*
X111025159Y-94349048D01*
X111036066Y-94358934D01*
X111045952Y-94369841D01*
X111054720Y-94381664D01*
X111062288Y-94394290D01*
X111068582Y-94407597D01*
X111073541Y-94421457D01*
X111077118Y-94435736D01*
X111079278Y-94450297D01*
X111080000Y-94465000D01*
X111080000Y-94765000D01*
X111079278Y-94779703D01*
X111077118Y-94794264D01*
X111073541Y-94808543D01*
X111068582Y-94822403D01*
X111062288Y-94835710D01*
X111054720Y-94848336D01*
X111045952Y-94860159D01*
X111036066Y-94871066D01*
X111025159Y-94880952D01*
X111013336Y-94889720D01*
X111000710Y-94897288D01*
X110987403Y-94903582D01*
X110973543Y-94908541D01*
X110959264Y-94912118D01*
X110944703Y-94914278D01*
X110930000Y-94915000D01*
X109630000Y-94915000D01*
X109615297Y-94914278D01*
X109600736Y-94912118D01*
X109586457Y-94908541D01*
X109572597Y-94903582D01*
X109559290Y-94897288D01*
X109546664Y-94889720D01*
X109534841Y-94880952D01*
X109523934Y-94871066D01*
X109514048Y-94860159D01*
X109505280Y-94848336D01*
X109497712Y-94835710D01*
X109491418Y-94822403D01*
X109486459Y-94808543D01*
X109482882Y-94794264D01*
X109480722Y-94779703D01*
X109480000Y-94765000D01*
X109480000Y-94465000D01*
X109480722Y-94450297D01*
X109482882Y-94435736D01*
X109486459Y-94421457D01*
X109491418Y-94407597D01*
X109497712Y-94394290D01*
X109505280Y-94381664D01*
X109514048Y-94369841D01*
X109523934Y-94358934D01*
X109534841Y-94349048D01*
X109546664Y-94340280D01*
X109559290Y-94332712D01*
X109572597Y-94326418D01*
X109586457Y-94321459D01*
X109600736Y-94317882D01*
X109615297Y-94315722D01*
X109630000Y-94315000D01*
X110930000Y-94315000D01*
X110944703Y-94315722D01*
X110944703Y-94315722D01*
G37*
D12*
X110280000Y-94615000D03*
D10*
G36*
X110944703Y-95585722D02*
G01*
X110959264Y-95587882D01*
X110973543Y-95591459D01*
X110987403Y-95596418D01*
X111000710Y-95602712D01*
X111013336Y-95610280D01*
X111025159Y-95619048D01*
X111036066Y-95628934D01*
X111045952Y-95639841D01*
X111054720Y-95651664D01*
X111062288Y-95664290D01*
X111068582Y-95677597D01*
X111073541Y-95691457D01*
X111077118Y-95705736D01*
X111079278Y-95720297D01*
X111080000Y-95735000D01*
X111080000Y-96035000D01*
X111079278Y-96049703D01*
X111077118Y-96064264D01*
X111073541Y-96078543D01*
X111068582Y-96092403D01*
X111062288Y-96105710D01*
X111054720Y-96118336D01*
X111045952Y-96130159D01*
X111036066Y-96141066D01*
X111025159Y-96150952D01*
X111013336Y-96159720D01*
X111000710Y-96167288D01*
X110987403Y-96173582D01*
X110973543Y-96178541D01*
X110959264Y-96182118D01*
X110944703Y-96184278D01*
X110930000Y-96185000D01*
X109630000Y-96185000D01*
X109615297Y-96184278D01*
X109600736Y-96182118D01*
X109586457Y-96178541D01*
X109572597Y-96173582D01*
X109559290Y-96167288D01*
X109546664Y-96159720D01*
X109534841Y-96150952D01*
X109523934Y-96141066D01*
X109514048Y-96130159D01*
X109505280Y-96118336D01*
X109497712Y-96105710D01*
X109491418Y-96092403D01*
X109486459Y-96078543D01*
X109482882Y-96064264D01*
X109480722Y-96049703D01*
X109480000Y-96035000D01*
X109480000Y-95735000D01*
X109480722Y-95720297D01*
X109482882Y-95705736D01*
X109486459Y-95691457D01*
X109491418Y-95677597D01*
X109497712Y-95664290D01*
X109505280Y-95651664D01*
X109514048Y-95639841D01*
X109523934Y-95628934D01*
X109534841Y-95619048D01*
X109546664Y-95610280D01*
X109559290Y-95602712D01*
X109572597Y-95596418D01*
X109586457Y-95591459D01*
X109600736Y-95587882D01*
X109615297Y-95585722D01*
X109630000Y-95585000D01*
X110930000Y-95585000D01*
X110944703Y-95585722D01*
X110944703Y-95585722D01*
G37*
D12*
X110280000Y-95885000D03*
D10*
G36*
X110944703Y-96855722D02*
G01*
X110959264Y-96857882D01*
X110973543Y-96861459D01*
X110987403Y-96866418D01*
X111000710Y-96872712D01*
X111013336Y-96880280D01*
X111025159Y-96889048D01*
X111036066Y-96898934D01*
X111045952Y-96909841D01*
X111054720Y-96921664D01*
X111062288Y-96934290D01*
X111068582Y-96947597D01*
X111073541Y-96961457D01*
X111077118Y-96975736D01*
X111079278Y-96990297D01*
X111080000Y-97005000D01*
X111080000Y-97305000D01*
X111079278Y-97319703D01*
X111077118Y-97334264D01*
X111073541Y-97348543D01*
X111068582Y-97362403D01*
X111062288Y-97375710D01*
X111054720Y-97388336D01*
X111045952Y-97400159D01*
X111036066Y-97411066D01*
X111025159Y-97420952D01*
X111013336Y-97429720D01*
X111000710Y-97437288D01*
X110987403Y-97443582D01*
X110973543Y-97448541D01*
X110959264Y-97452118D01*
X110944703Y-97454278D01*
X110930000Y-97455000D01*
X109630000Y-97455000D01*
X109615297Y-97454278D01*
X109600736Y-97452118D01*
X109586457Y-97448541D01*
X109572597Y-97443582D01*
X109559290Y-97437288D01*
X109546664Y-97429720D01*
X109534841Y-97420952D01*
X109523934Y-97411066D01*
X109514048Y-97400159D01*
X109505280Y-97388336D01*
X109497712Y-97375710D01*
X109491418Y-97362403D01*
X109486459Y-97348543D01*
X109482882Y-97334264D01*
X109480722Y-97319703D01*
X109480000Y-97305000D01*
X109480000Y-97005000D01*
X109480722Y-96990297D01*
X109482882Y-96975736D01*
X109486459Y-96961457D01*
X109491418Y-96947597D01*
X109497712Y-96934290D01*
X109505280Y-96921664D01*
X109514048Y-96909841D01*
X109523934Y-96898934D01*
X109534841Y-96889048D01*
X109546664Y-96880280D01*
X109559290Y-96872712D01*
X109572597Y-96866418D01*
X109586457Y-96861459D01*
X109600736Y-96857882D01*
X109615297Y-96855722D01*
X109630000Y-96855000D01*
X110930000Y-96855000D01*
X110944703Y-96855722D01*
X110944703Y-96855722D01*
G37*
D12*
X110280000Y-97155000D03*
D10*
G36*
X103744703Y-96855722D02*
G01*
X103759264Y-96857882D01*
X103773543Y-96861459D01*
X103787403Y-96866418D01*
X103800710Y-96872712D01*
X103813336Y-96880280D01*
X103825159Y-96889048D01*
X103836066Y-96898934D01*
X103845952Y-96909841D01*
X103854720Y-96921664D01*
X103862288Y-96934290D01*
X103868582Y-96947597D01*
X103873541Y-96961457D01*
X103877118Y-96975736D01*
X103879278Y-96990297D01*
X103880000Y-97005000D01*
X103880000Y-97305000D01*
X103879278Y-97319703D01*
X103877118Y-97334264D01*
X103873541Y-97348543D01*
X103868582Y-97362403D01*
X103862288Y-97375710D01*
X103854720Y-97388336D01*
X103845952Y-97400159D01*
X103836066Y-97411066D01*
X103825159Y-97420952D01*
X103813336Y-97429720D01*
X103800710Y-97437288D01*
X103787403Y-97443582D01*
X103773543Y-97448541D01*
X103759264Y-97452118D01*
X103744703Y-97454278D01*
X103730000Y-97455000D01*
X102430000Y-97455000D01*
X102415297Y-97454278D01*
X102400736Y-97452118D01*
X102386457Y-97448541D01*
X102372597Y-97443582D01*
X102359290Y-97437288D01*
X102346664Y-97429720D01*
X102334841Y-97420952D01*
X102323934Y-97411066D01*
X102314048Y-97400159D01*
X102305280Y-97388336D01*
X102297712Y-97375710D01*
X102291418Y-97362403D01*
X102286459Y-97348543D01*
X102282882Y-97334264D01*
X102280722Y-97319703D01*
X102280000Y-97305000D01*
X102280000Y-97005000D01*
X102280722Y-96990297D01*
X102282882Y-96975736D01*
X102286459Y-96961457D01*
X102291418Y-96947597D01*
X102297712Y-96934290D01*
X102305280Y-96921664D01*
X102314048Y-96909841D01*
X102323934Y-96898934D01*
X102334841Y-96889048D01*
X102346664Y-96880280D01*
X102359290Y-96872712D01*
X102372597Y-96866418D01*
X102386457Y-96861459D01*
X102400736Y-96857882D01*
X102415297Y-96855722D01*
X102430000Y-96855000D01*
X103730000Y-96855000D01*
X103744703Y-96855722D01*
X103744703Y-96855722D01*
G37*
D12*
X103080000Y-97155000D03*
D10*
G36*
X103744703Y-95585722D02*
G01*
X103759264Y-95587882D01*
X103773543Y-95591459D01*
X103787403Y-95596418D01*
X103800710Y-95602712D01*
X103813336Y-95610280D01*
X103825159Y-95619048D01*
X103836066Y-95628934D01*
X103845952Y-95639841D01*
X103854720Y-95651664D01*
X103862288Y-95664290D01*
X103868582Y-95677597D01*
X103873541Y-95691457D01*
X103877118Y-95705736D01*
X103879278Y-95720297D01*
X103880000Y-95735000D01*
X103880000Y-96035000D01*
X103879278Y-96049703D01*
X103877118Y-96064264D01*
X103873541Y-96078543D01*
X103868582Y-96092403D01*
X103862288Y-96105710D01*
X103854720Y-96118336D01*
X103845952Y-96130159D01*
X103836066Y-96141066D01*
X103825159Y-96150952D01*
X103813336Y-96159720D01*
X103800710Y-96167288D01*
X103787403Y-96173582D01*
X103773543Y-96178541D01*
X103759264Y-96182118D01*
X103744703Y-96184278D01*
X103730000Y-96185000D01*
X102430000Y-96185000D01*
X102415297Y-96184278D01*
X102400736Y-96182118D01*
X102386457Y-96178541D01*
X102372597Y-96173582D01*
X102359290Y-96167288D01*
X102346664Y-96159720D01*
X102334841Y-96150952D01*
X102323934Y-96141066D01*
X102314048Y-96130159D01*
X102305280Y-96118336D01*
X102297712Y-96105710D01*
X102291418Y-96092403D01*
X102286459Y-96078543D01*
X102282882Y-96064264D01*
X102280722Y-96049703D01*
X102280000Y-96035000D01*
X102280000Y-95735000D01*
X102280722Y-95720297D01*
X102282882Y-95705736D01*
X102286459Y-95691457D01*
X102291418Y-95677597D01*
X102297712Y-95664290D01*
X102305280Y-95651664D01*
X102314048Y-95639841D01*
X102323934Y-95628934D01*
X102334841Y-95619048D01*
X102346664Y-95610280D01*
X102359290Y-95602712D01*
X102372597Y-95596418D01*
X102386457Y-95591459D01*
X102400736Y-95587882D01*
X102415297Y-95585722D01*
X102430000Y-95585000D01*
X103730000Y-95585000D01*
X103744703Y-95585722D01*
X103744703Y-95585722D01*
G37*
D12*
X103080000Y-95885000D03*
D10*
G36*
X103744703Y-94315722D02*
G01*
X103759264Y-94317882D01*
X103773543Y-94321459D01*
X103787403Y-94326418D01*
X103800710Y-94332712D01*
X103813336Y-94340280D01*
X103825159Y-94349048D01*
X103836066Y-94358934D01*
X103845952Y-94369841D01*
X103854720Y-94381664D01*
X103862288Y-94394290D01*
X103868582Y-94407597D01*
X103873541Y-94421457D01*
X103877118Y-94435736D01*
X103879278Y-94450297D01*
X103880000Y-94465000D01*
X103880000Y-94765000D01*
X103879278Y-94779703D01*
X103877118Y-94794264D01*
X103873541Y-94808543D01*
X103868582Y-94822403D01*
X103862288Y-94835710D01*
X103854720Y-94848336D01*
X103845952Y-94860159D01*
X103836066Y-94871066D01*
X103825159Y-94880952D01*
X103813336Y-94889720D01*
X103800710Y-94897288D01*
X103787403Y-94903582D01*
X103773543Y-94908541D01*
X103759264Y-94912118D01*
X103744703Y-94914278D01*
X103730000Y-94915000D01*
X102430000Y-94915000D01*
X102415297Y-94914278D01*
X102400736Y-94912118D01*
X102386457Y-94908541D01*
X102372597Y-94903582D01*
X102359290Y-94897288D01*
X102346664Y-94889720D01*
X102334841Y-94880952D01*
X102323934Y-94871066D01*
X102314048Y-94860159D01*
X102305280Y-94848336D01*
X102297712Y-94835710D01*
X102291418Y-94822403D01*
X102286459Y-94808543D01*
X102282882Y-94794264D01*
X102280722Y-94779703D01*
X102280000Y-94765000D01*
X102280000Y-94465000D01*
X102280722Y-94450297D01*
X102282882Y-94435736D01*
X102286459Y-94421457D01*
X102291418Y-94407597D01*
X102297712Y-94394290D01*
X102305280Y-94381664D01*
X102314048Y-94369841D01*
X102323934Y-94358934D01*
X102334841Y-94349048D01*
X102346664Y-94340280D01*
X102359290Y-94332712D01*
X102372597Y-94326418D01*
X102386457Y-94321459D01*
X102400736Y-94317882D01*
X102415297Y-94315722D01*
X102430000Y-94315000D01*
X103730000Y-94315000D01*
X103744703Y-94315722D01*
X103744703Y-94315722D01*
G37*
D12*
X103080000Y-94615000D03*
D10*
G36*
X103744703Y-93045722D02*
G01*
X103759264Y-93047882D01*
X103773543Y-93051459D01*
X103787403Y-93056418D01*
X103800710Y-93062712D01*
X103813336Y-93070280D01*
X103825159Y-93079048D01*
X103836066Y-93088934D01*
X103845952Y-93099841D01*
X103854720Y-93111664D01*
X103862288Y-93124290D01*
X103868582Y-93137597D01*
X103873541Y-93151457D01*
X103877118Y-93165736D01*
X103879278Y-93180297D01*
X103880000Y-93195000D01*
X103880000Y-93495000D01*
X103879278Y-93509703D01*
X103877118Y-93524264D01*
X103873541Y-93538543D01*
X103868582Y-93552403D01*
X103862288Y-93565710D01*
X103854720Y-93578336D01*
X103845952Y-93590159D01*
X103836066Y-93601066D01*
X103825159Y-93610952D01*
X103813336Y-93619720D01*
X103800710Y-93627288D01*
X103787403Y-93633582D01*
X103773543Y-93638541D01*
X103759264Y-93642118D01*
X103744703Y-93644278D01*
X103730000Y-93645000D01*
X102430000Y-93645000D01*
X102415297Y-93644278D01*
X102400736Y-93642118D01*
X102386457Y-93638541D01*
X102372597Y-93633582D01*
X102359290Y-93627288D01*
X102346664Y-93619720D01*
X102334841Y-93610952D01*
X102323934Y-93601066D01*
X102314048Y-93590159D01*
X102305280Y-93578336D01*
X102297712Y-93565710D01*
X102291418Y-93552403D01*
X102286459Y-93538543D01*
X102282882Y-93524264D01*
X102280722Y-93509703D01*
X102280000Y-93495000D01*
X102280000Y-93195000D01*
X102280722Y-93180297D01*
X102282882Y-93165736D01*
X102286459Y-93151457D01*
X102291418Y-93137597D01*
X102297712Y-93124290D01*
X102305280Y-93111664D01*
X102314048Y-93099841D01*
X102323934Y-93088934D01*
X102334841Y-93079048D01*
X102346664Y-93070280D01*
X102359290Y-93062712D01*
X102372597Y-93056418D01*
X102386457Y-93051459D01*
X102400736Y-93047882D01*
X102415297Y-93045722D01*
X102430000Y-93045000D01*
X103730000Y-93045000D01*
X103744703Y-93045722D01*
X103744703Y-93045722D01*
G37*
D12*
X103080000Y-93345000D03*
M02*
