%TF.GenerationSoftware,KiCad,Pcbnew,(5.0.0)*%
%TF.CreationDate,2019-04-13T23:36:30-04:00*%
%TF.ProjectId,Fusion USB Daughter Board,467573696F6E20555342204461756768,rev?*%
%TF.SameCoordinates,Original*%
%TF.FileFunction,Copper,L2,Bot,Signal*%
%TF.FilePolarity,Positive*%
%FSLAX46Y46*%
G04 Gerber Fmt 4.6, Leading zero omitted, Abs format (unit mm)*
G04 Created by KiCad (PCBNEW (5.0.0)) date 04/13/19 23:36:30*
%MOMM*%
%LPD*%
G01*
G04 APERTURE LIST*
%ADD10C,0.200000*%
%ADD11O,0.850000X1.850000*%
%ADD12O,0.850000X2.050000*%
%ADD13R,1.700000X1.700000*%
%ADD14O,1.700000X1.700000*%
%ADD15C,0.800000*%
%ADD16C,0.254000*%
G04 APERTURE END LIST*
D10*
X175844523Y-100731300D02*
X175874537Y-100710100D01*
X175248101Y-100977300D02*
X175283192Y-100970800D01*
X175035584Y-100998300D02*
X175071150Y-100997000D01*
X174787114Y-100983000D02*
X174822434Y-100987800D01*
X174409341Y-100873400D02*
X174442557Y-100887500D01*
X174247966Y-100790400D02*
X174279560Y-100808600D01*
X176071720Y-100541600D02*
X176097880Y-100514800D01*
X176097880Y-100514800D02*
X176123490Y-100487400D01*
X174751899Y-100977300D02*
X174787114Y-100983000D01*
X174543794Y-100925100D02*
X174578013Y-100935900D01*
X176045030Y-100567700D02*
X176071720Y-100541600D01*
X175990122Y-100617900D02*
X176017830Y-100593200D01*
X175814091Y-100751700D02*
X175844523Y-100731300D01*
X175961925Y-100642000D02*
X175990122Y-100617900D01*
X174928850Y-100997000D02*
X174964416Y-100998300D01*
X175318144Y-100963300D02*
X175352939Y-100955000D01*
X175933253Y-100665400D02*
X175961925Y-100642000D01*
X175106680Y-100994800D02*
X175142158Y-100991800D01*
X175142158Y-100991800D02*
X175177566Y-100987800D01*
X174857842Y-100991800D02*
X174893320Y-100994800D01*
X175071150Y-100997000D02*
X175106680Y-100994800D01*
X175904118Y-100688100D02*
X175933253Y-100665400D01*
X175456206Y-100925100D02*
X175490200Y-100913400D01*
X175874537Y-100710100D02*
X175904118Y-100688100D01*
X175783256Y-100771500D02*
X175814091Y-100751700D01*
X175752034Y-100790400D02*
X175783256Y-100771500D01*
X175623583Y-100858400D02*
X175656199Y-100842600D01*
X174578013Y-100935900D02*
X174612442Y-100945900D01*
X175387558Y-100945900D02*
X175421987Y-100935900D01*
X174376417Y-100858400D02*
X174409341Y-100873400D01*
X175352939Y-100955000D02*
X175387558Y-100945900D01*
X175283192Y-100970800D02*
X175318144Y-100963300D01*
X175212886Y-100983000D02*
X175248101Y-100977300D01*
X174647061Y-100955000D02*
X174681856Y-100963300D01*
X174893320Y-100994800D02*
X174928850Y-100997000D01*
X174822434Y-100987800D02*
X174857842Y-100991800D01*
X175720440Y-100808600D02*
X175752034Y-100790400D01*
X174612442Y-100945900D02*
X174647061Y-100955000D01*
X174311510Y-100826000D02*
X174343801Y-100842600D01*
X174681856Y-100963300D02*
X174716808Y-100970800D01*
X174343801Y-100842600D02*
X174376417Y-100858400D01*
X175177566Y-100987800D02*
X175212886Y-100983000D01*
X175688490Y-100826000D02*
X175720440Y-100808600D01*
X174716808Y-100970800D02*
X174751899Y-100977300D01*
X175656199Y-100842600D02*
X175688490Y-100826000D01*
X175490200Y-100913400D02*
X175523951Y-100900900D01*
X174509800Y-100913400D02*
X174543794Y-100925100D01*
X174964416Y-100998300D02*
X175000000Y-100998800D01*
X174279560Y-100808600D02*
X174311510Y-100826000D01*
X175421987Y-100935900D02*
X175456206Y-100925100D01*
X175523951Y-100900900D02*
X175557443Y-100887500D01*
X174442557Y-100887500D02*
X174476049Y-100900900D01*
X175000000Y-100998800D02*
X175035584Y-100998300D01*
X175557443Y-100887500D02*
X175590659Y-100873400D01*
X176017830Y-100593200D02*
X176045030Y-100567700D01*
X175590659Y-100873400D02*
X175623583Y-100858400D01*
X174476049Y-100900900D02*
X174509800Y-100913400D01*
X121071400Y-109698700D02*
X121096800Y-109672700D01*
X120541500Y-110050700D02*
X120573900Y-110037400D01*
X119965500Y-110155100D02*
X120000000Y-110155500D01*
X120342600Y-110114300D02*
X120376200Y-110105700D01*
X119759200Y-110135300D02*
X119793400Y-110140700D01*
X119590300Y-110096300D02*
X119623800Y-110105700D01*
X121045500Y-109724000D02*
X121071400Y-109698700D01*
X120103500Y-110151800D02*
X120137900Y-110148900D01*
X120069000Y-110153900D02*
X120103500Y-110151800D01*
X120034500Y-110155100D02*
X120069000Y-110153900D01*
X119896500Y-110151800D02*
X119931000Y-110153900D01*
X119268600Y-109959200D02*
X119299500Y-109976300D01*
X121019100Y-109748700D02*
X121045500Y-109724000D01*
X120240800Y-110135300D02*
X120274800Y-110129100D01*
X119557000Y-110086100D02*
X119590300Y-110096300D01*
X119238100Y-109941300D02*
X119268600Y-109959200D01*
X119491100Y-110063300D02*
X119524000Y-110075100D01*
X120606000Y-110023300D02*
X120637800Y-110008400D01*
X119207900Y-109922700D02*
X119238100Y-109941300D01*
X120992200Y-109772800D02*
X121019100Y-109748700D01*
X120409700Y-110096300D02*
X120443000Y-110086100D01*
X120443000Y-110086100D02*
X120476000Y-110075100D01*
X120172300Y-110145200D02*
X120206600Y-110140700D01*
X120731400Y-109959200D02*
X120761900Y-109941300D01*
X120376200Y-110105700D02*
X120409700Y-110096300D01*
X119119700Y-109862600D02*
X119148700Y-109883300D01*
X120964900Y-109796300D02*
X120992200Y-109772800D01*
X120937200Y-109819000D02*
X120964900Y-109796300D01*
X120909000Y-109841100D02*
X120937200Y-109819000D01*
X120880300Y-109862600D02*
X120909000Y-109841100D01*
X120851300Y-109883300D02*
X120880300Y-109862600D01*
X120669300Y-109992700D02*
X120700500Y-109976300D01*
X119931000Y-110153900D02*
X119965500Y-110155100D01*
X119725200Y-110129100D02*
X119759200Y-110135300D01*
X120637800Y-110008400D02*
X120669300Y-109992700D01*
X120573900Y-110037400D02*
X120606000Y-110023300D01*
X120508900Y-110063300D02*
X120541500Y-110050700D01*
X119394000Y-110023300D02*
X119426100Y-110037400D01*
X120206600Y-110140700D02*
X120240800Y-110135300D01*
X119330700Y-109992700D02*
X119362200Y-110008400D01*
X120137900Y-110148900D02*
X120172300Y-110145200D01*
X119691200Y-110122100D02*
X119725200Y-110129100D01*
X119524000Y-110075100D02*
X119557000Y-110086100D01*
X119657400Y-110114300D02*
X119691200Y-110122100D01*
X119362200Y-110008400D02*
X119394000Y-110023300D01*
X120792100Y-109922700D02*
X120821900Y-109903300D01*
X120761900Y-109941300D02*
X120792100Y-109922700D01*
X120476000Y-110075100D02*
X120508900Y-110063300D01*
X119299500Y-109976300D02*
X119330700Y-109992700D01*
X120700500Y-109976300D02*
X120731400Y-109959200D01*
X120274800Y-110129100D02*
X120308800Y-110122100D01*
X119862100Y-110148900D02*
X119896500Y-110151800D01*
X119623800Y-110105700D02*
X119657400Y-110114300D01*
X119458500Y-110050700D02*
X119491100Y-110063300D01*
X119426100Y-110037400D02*
X119458500Y-110050700D01*
X119091000Y-109841100D02*
X119119700Y-109862600D01*
X120308800Y-110122100D02*
X120342600Y-110114300D01*
X119793400Y-110140700D02*
X119827700Y-110145200D01*
X119062800Y-109819000D02*
X119091000Y-109841100D01*
X119148700Y-109883300D02*
X119178100Y-109903300D01*
X120821900Y-109903300D02*
X120851300Y-109883300D01*
X120000000Y-110155500D02*
X120034500Y-110155100D01*
X119178100Y-109903300D02*
X119207900Y-109922700D01*
X119827700Y-110145200D02*
X119862100Y-110148900D01*
X176327570Y-100214200D02*
X176347110Y-100181200D01*
X176220260Y-100371600D02*
X176242980Y-100341200D01*
X176196950Y-100401400D02*
X176220260Y-100371600D01*
X118451500Y-108826800D02*
X118460600Y-108863800D01*
X176265070Y-100310200D02*
X176286550Y-100278700D01*
X176527100Y-99752900D02*
X176537340Y-99715100D01*
X176401670Y-100079400D02*
X176418480Y-100044600D01*
X176148550Y-100459300D02*
X176173040Y-100430700D01*
X118460600Y-108863800D02*
X118470400Y-108900600D01*
X176577050Y-99522700D02*
X176582670Y-99483700D01*
X176537340Y-99715100D02*
X176546820Y-99677100D01*
X118573700Y-109184400D02*
X118589700Y-109218400D01*
X118954500Y-109724000D02*
X118980900Y-109748700D01*
X118980900Y-109748700D02*
X119007800Y-109772800D01*
X118928600Y-109698700D02*
X118954500Y-109724000D01*
X118762000Y-109504700D02*
X118784200Y-109534100D01*
X118903200Y-109672700D02*
X118928600Y-109698700D01*
X118878400Y-109646100D02*
X118903200Y-109672700D01*
X118854000Y-109619000D02*
X118878400Y-109646100D01*
X118830200Y-109591200D02*
X118854000Y-109619000D01*
X176478640Y-99901400D02*
X176491870Y-99864800D01*
X118558400Y-109150100D02*
X118573700Y-109184400D01*
X118492000Y-108973300D02*
X118503900Y-109009300D01*
X118435600Y-108752300D02*
X118443200Y-108789700D01*
X176563480Y-99600300D02*
X176570650Y-99561600D01*
X176434590Y-100009300D02*
X176450000Y-99973700D01*
X176464680Y-99937800D02*
X176478640Y-99901400D01*
X176384160Y-100113700D02*
X176401670Y-100079400D01*
X176347110Y-100181200D02*
X176365970Y-100147700D01*
X176418480Y-100044600D02*
X176434590Y-100009300D01*
X176504360Y-99827800D02*
X176516100Y-99790500D01*
X176173040Y-100430700D02*
X176196950Y-100401400D01*
X176242980Y-100341200D02*
X176265070Y-100310200D01*
X118443200Y-108789700D02*
X118451500Y-108826800D01*
X176516100Y-99790500D02*
X176527100Y-99752900D01*
X118806900Y-109563000D02*
X118830200Y-109591200D01*
X118543700Y-109115400D02*
X118558400Y-109150100D01*
X118784200Y-109534100D02*
X118806900Y-109563000D01*
X118719400Y-109444400D02*
X118740400Y-109474800D01*
X118699000Y-109413500D02*
X118719400Y-109444400D01*
X118529800Y-109080400D02*
X118543700Y-109115400D01*
X118660100Y-109350200D02*
X118679200Y-109382100D01*
X118623600Y-109285200D02*
X118641500Y-109317900D01*
X118606300Y-109252000D02*
X118623600Y-109285200D01*
X176307380Y-100246700D02*
X176327570Y-100214200D01*
X118503900Y-109009300D02*
X118516500Y-109045000D01*
X118470400Y-108900600D02*
X118480800Y-108937100D01*
X118428700Y-108714700D02*
X118435600Y-108752300D01*
X176546820Y-99677100D02*
X176555540Y-99638800D01*
X176123490Y-100487400D02*
X176148550Y-100459300D01*
X176570650Y-99561600D02*
X176577050Y-99522700D01*
X176491870Y-99864800D02*
X176504360Y-99827800D01*
X176286550Y-100278700D02*
X176307380Y-100246700D01*
X176365970Y-100147700D02*
X176384160Y-100113700D01*
X119035100Y-109796300D02*
X119062800Y-109819000D01*
X118589700Y-109218400D02*
X118606300Y-109252000D01*
X119007800Y-109772800D02*
X119035100Y-109796300D01*
X118740400Y-109474800D02*
X118762000Y-109504700D01*
X118480800Y-108937100D02*
X118492000Y-108973300D01*
X176555540Y-99638800D02*
X176563480Y-99600300D01*
X118679200Y-109382100D02*
X118699000Y-109413500D01*
X118641500Y-109317900D02*
X118660100Y-109350200D01*
X118516500Y-109045000D02*
X118529800Y-109080400D01*
X176450000Y-99973700D02*
X176464680Y-99937800D01*
X121441600Y-109150100D02*
X121456300Y-109115400D01*
X121358500Y-109317900D02*
X121376400Y-109285200D01*
X121339900Y-109350200D02*
X121358500Y-109317900D01*
X121393700Y-109252000D02*
X121410300Y-109218400D01*
X121496100Y-109009300D02*
X121508000Y-108973300D01*
X121301000Y-109413500D02*
X121320800Y-109382100D01*
X121121600Y-109646100D02*
X121146000Y-109619000D01*
X121548500Y-108826800D02*
X121556800Y-108789700D01*
X121564400Y-108752300D02*
X121571300Y-108714700D01*
X121519200Y-108937100D02*
X121529600Y-108900600D01*
X121215800Y-109534100D02*
X121238000Y-109504700D01*
X121539400Y-108863800D02*
X121548500Y-108826800D01*
X121483500Y-109045000D02*
X121496100Y-109009300D01*
X121456300Y-109115400D02*
X121470200Y-109080400D01*
X121508000Y-108973300D02*
X121519200Y-108937100D01*
X121146000Y-109619000D02*
X121169800Y-109591200D01*
X121320800Y-109382100D02*
X121339900Y-109350200D01*
X121376400Y-109285200D02*
X121393700Y-109252000D01*
X121426300Y-109184400D02*
X121441600Y-109150100D01*
X121259600Y-109474800D02*
X121280600Y-109444400D01*
X121280600Y-109444400D02*
X121301000Y-109413500D01*
X121556800Y-108789700D02*
X121564400Y-108752300D01*
X121410300Y-109218400D02*
X121426300Y-109184400D01*
X121470200Y-109080400D02*
X121483500Y-109045000D01*
X121169800Y-109591200D02*
X121193100Y-109563000D01*
X121096800Y-109672700D02*
X121121600Y-109646100D01*
X121238000Y-109504700D02*
X121259600Y-109474800D01*
X121529600Y-108900600D02*
X121539400Y-108863800D01*
X121193100Y-109563000D02*
X121215800Y-109534100D01*
X117936045Y-108299999D02*
G75*
G02X118428722Y-108714735I0J-500001D01*
G01*
X107750476Y-109800000D02*
G75*
G02X109250476Y-108300000I1500000J0D01*
G01*
X108250476Y-132350000D02*
X113014721Y-132350000D01*
X108250476Y-132350000D02*
G75*
G02X107750476Y-131850000I0J500000D01*
G01*
X117936045Y-108300000D02*
X109250476Y-108300000D01*
X107750476Y-109800000D02*
X107750476Y-131850000D01*
X113514721Y-131850000D02*
G75*
G02X113014721Y-132350000I-500000J0D01*
G01*
X174125463Y-100710100D02*
X174155477Y-100731300D01*
X173928280Y-100541600D02*
X173954970Y-100567700D01*
X174095882Y-100688100D02*
X174125463Y-100710100D01*
X174066747Y-100665400D02*
X174095882Y-100688100D01*
X174038075Y-100642000D02*
X174066747Y-100665400D01*
X173713450Y-100278700D02*
X173734930Y-100310200D01*
X173565410Y-100009300D02*
X173581520Y-100044600D01*
X173757020Y-100341200D02*
X173779740Y-100371600D01*
X174009878Y-100617900D02*
X174038075Y-100642000D01*
X173672430Y-100214200D02*
X173692620Y-100246700D01*
X173615840Y-100113700D02*
X173634030Y-100147700D01*
X173851450Y-100459300D02*
X173876510Y-100487400D01*
X173652890Y-100181200D02*
X173672430Y-100214200D01*
X174216744Y-100771500D02*
X174247966Y-100790400D01*
X174185909Y-100751700D02*
X174216744Y-100771500D01*
X174155477Y-100731300D02*
X174185909Y-100751700D01*
X173634030Y-100147700D02*
X173652890Y-100181200D01*
X173734930Y-100310200D02*
X173757020Y-100341200D01*
X173598330Y-100079400D02*
X173615840Y-100113700D01*
X173982170Y-100593200D02*
X174009878Y-100617900D01*
X173954970Y-100567700D02*
X173982170Y-100593200D01*
X173692620Y-100246700D02*
X173713450Y-100278700D01*
X173581520Y-100044600D02*
X173598330Y-100079400D01*
X173826960Y-100430700D02*
X173851450Y-100459300D01*
X173779740Y-100371600D02*
X173803050Y-100401400D01*
X173803050Y-100401400D02*
X173826960Y-100430700D01*
X173876510Y-100487400D02*
X173902120Y-100514800D01*
X173902120Y-100514800D02*
X173928280Y-100541600D01*
X126523615Y-132350000D02*
X131476385Y-132350000D01*
X172921746Y-99050000D02*
X156300000Y-99050000D01*
X172921746Y-99050000D02*
G75*
G02X173417335Y-99483729I0J-500000D01*
G01*
X170250000Y-128500000D02*
X179750000Y-128500000D01*
X173550000Y-99973700D02*
X173565410Y-100009300D01*
X173535320Y-99937800D02*
X173550000Y-99973700D01*
X173444460Y-99638800D02*
X173453180Y-99677100D01*
X125273615Y-129850000D02*
G75*
G02X126023615Y-130600000I0J-750000D01*
G01*
X173417330Y-99483700D02*
X173422950Y-99522700D01*
X156300000Y-106800000D02*
G75*
G02X154800000Y-108300000I-1500000J0D01*
G01*
X150249524Y-125789340D02*
G75*
G02X151749524Y-124289340I1500000J0D01*
G01*
X180250000Y-128000000D02*
X180250000Y-100550000D01*
X180250000Y-128000000D02*
G75*
G02X179750000Y-128500000I-500000J0D01*
G01*
X117296238Y-132350000D02*
X122370701Y-132350000D01*
X141203762Y-131850000D02*
X141203762Y-130600000D01*
X173521360Y-99901400D02*
X173535320Y-99937800D01*
X123620701Y-129850000D02*
X125273615Y-129850000D01*
X122870701Y-131850000D02*
G75*
G02X122370701Y-132350000I-500000J0D01*
G01*
X122870701Y-130600000D02*
G75*
G02X123620701Y-129850000I750000J0D01*
G01*
X173508130Y-99864800D02*
X173521360Y-99901400D01*
X132726385Y-129850000D02*
X134379299Y-129850000D01*
X173495640Y-99827800D02*
X173508130Y-99864800D01*
X173472900Y-99752900D02*
X173483900Y-99790500D01*
X173436520Y-99600300D02*
X173444460Y-99638800D01*
X173462660Y-99715100D02*
X173472900Y-99752900D01*
X173429350Y-99561600D02*
X173436520Y-99600300D01*
X113514721Y-130600000D02*
G75*
G02X114264721Y-129850000I750000J0D01*
G01*
X141203762Y-131850000D02*
G75*
G02X140703762Y-132350000I-500000J0D01*
G01*
X150249524Y-131850000D02*
G75*
G02X149749524Y-132350000I-500000J0D01*
G01*
X135129299Y-130600000D02*
X135129299Y-131850000D01*
X122870701Y-131850000D02*
X122870701Y-130600000D01*
X134379299Y-129850000D02*
G75*
G02X135129299Y-130600000I0J-750000D01*
G01*
X173422950Y-99522700D02*
X173429350Y-99561600D01*
X144985279Y-132350000D02*
X149749524Y-132350000D01*
X143735279Y-129850000D02*
G75*
G02X144485279Y-130600000I0J-750000D01*
G01*
X135629299Y-132350000D02*
X140703762Y-132350000D01*
X156300000Y-99050000D02*
X156300000Y-106800000D01*
X169750000Y-125789340D02*
X169750000Y-128000000D01*
X131976385Y-131850000D02*
G75*
G02X131476385Y-132350000I-500000J0D01*
G01*
X126023615Y-130600000D02*
X126023615Y-131850000D01*
X150249524Y-131850000D02*
X150249524Y-125789340D01*
X173453180Y-99677100D02*
X173462660Y-99715100D01*
X178750000Y-99050000D02*
G75*
G02X180250000Y-100550000I0J-1500000D01*
G01*
X126523615Y-132350000D02*
G75*
G02X126023615Y-131850000I0J500000D01*
G01*
X116796238Y-130600000D02*
X116796238Y-131850000D01*
X176582665Y-99483729D02*
G75*
G02X177078254Y-99050000I495589J-66271D01*
G01*
X178750000Y-99050000D02*
X177078254Y-99050000D01*
X170250000Y-128500000D02*
G75*
G02X169750000Y-128000000I0J500000D01*
G01*
X168250000Y-124289340D02*
G75*
G02X169750000Y-125789340I0J-1500000D01*
G01*
X135629299Y-132350000D02*
G75*
G02X135129299Y-131850000I0J500000D01*
G01*
X131976385Y-130600000D02*
G75*
G02X132726385Y-129850000I750000J0D01*
G01*
X116046238Y-129850000D02*
G75*
G02X116796238Y-130600000I0J-750000D01*
G01*
X141953762Y-129850000D02*
X143735279Y-129850000D01*
X141203762Y-130600000D02*
G75*
G02X141953762Y-129850000I750000J0D01*
G01*
X114264721Y-129850000D02*
X116046238Y-129850000D01*
X117296238Y-132350000D02*
G75*
G02X116796238Y-131850000I0J500000D01*
G01*
X131976385Y-131850000D02*
X131976385Y-130600000D01*
X151749524Y-124289340D02*
X168250000Y-124289340D01*
X173483900Y-99790500D02*
X173495640Y-99827800D01*
X121571279Y-108714735D02*
G75*
G02X122063955Y-108300000I492676J-85265D01*
G01*
X113514721Y-131850000D02*
X113514721Y-130600000D01*
X154800000Y-108300000D02*
X122063955Y-108300000D01*
X144985279Y-132350000D02*
G75*
G02X144485279Y-131850000I0J500000D01*
G01*
X144485279Y-130600000D02*
X144485279Y-131850000D01*
D11*
X179450000Y-123900000D03*
X170550000Y-123900000D03*
D12*
X179450000Y-127100000D03*
X170550000Y-127100000D03*
D13*
X167980000Y-111690000D03*
D14*
X167980000Y-109150000D03*
X165440000Y-111690000D03*
X165440000Y-109150000D03*
X162900000Y-111690000D03*
X162900000Y-109150000D03*
X160360000Y-111690000D03*
X160360000Y-109150000D03*
X157820000Y-111690000D03*
X157820000Y-109150000D03*
D15*
X174999994Y-119285000D03*
X115183000Y-129064000D03*
X116072000Y-129064000D03*
X114294000Y-129064000D03*
X155315000Y-120555000D03*
X142742000Y-129064000D03*
X138043000Y-121063000D03*
X130931000Y-121063000D03*
X178302000Y-120174000D03*
X179318000Y-120174000D03*
X178302000Y-121190000D03*
X179318000Y-121190000D03*
X178302000Y-119158000D03*
X179318000Y-119158000D03*
X170555000Y-120174000D03*
X171571000Y-120174000D03*
X171571000Y-121190000D03*
X171571000Y-119158000D03*
X170555000Y-119158000D03*
X170555000Y-121190000D03*
X109214000Y-129953000D03*
X148491000Y-117981000D03*
X118358000Y-129953000D03*
X127629000Y-129953000D03*
X136773000Y-129953000D03*
X145917000Y-129953000D03*
X159252000Y-117507000D03*
X159252000Y-115602000D03*
X175889000Y-121444000D03*
X174238000Y-126270000D03*
X174111000Y-121444004D03*
X175762000Y-126270000D03*
X172333000Y-127794000D03*
X164967000Y-119793000D03*
X172333000Y-126651000D03*
X164205000Y-118015000D03*
X159252000Y-119031000D03*
X157728000Y-122587000D03*
X156839000Y-120555000D03*
X139313000Y-121063000D03*
X138170000Y-114205000D03*
D16*
X148491000Y-126363000D02*
X148491000Y-117981000D01*
X146679000Y-128175000D02*
X148491000Y-126363000D01*
X109214000Y-129953000D02*
X110230000Y-129953000D01*
X110230000Y-129953000D02*
X112008000Y-128175000D01*
X118358000Y-129953000D02*
X118358000Y-128175000D01*
X112008000Y-128175000D02*
X118358000Y-128175000D01*
X127629000Y-129387315D02*
X127629000Y-128175000D01*
X127629000Y-129953000D02*
X127629000Y-129387315D01*
X118358000Y-128175000D02*
X127629000Y-128175000D01*
X136773000Y-129953000D02*
X136773000Y-128175000D01*
X127629000Y-128175000D02*
X136773000Y-128175000D01*
X145917000Y-129387315D02*
X145917000Y-128175000D01*
X145917000Y-129953000D02*
X145917000Y-129387315D01*
X136773000Y-128175000D02*
X145917000Y-128175000D01*
X145917000Y-128175000D02*
X146679000Y-128175000D01*
X162900000Y-115002000D02*
X162900000Y-111690000D01*
X159252000Y-117507000D02*
X160395000Y-117507000D01*
X160395000Y-117507000D02*
X162900000Y-115002000D01*
X157820000Y-113027000D02*
X157820000Y-111690000D01*
X159252000Y-115602000D02*
X159252000Y-114459000D01*
X159252000Y-114459000D02*
X157820000Y-113027000D01*
X176539001Y-122094001D02*
X175889000Y-121444000D01*
X176539001Y-126642961D02*
X176539001Y-122094001D01*
X176134961Y-127047001D02*
X176539001Y-126642961D01*
X174238000Y-126270000D02*
X175015001Y-127047001D01*
X175015001Y-127047001D02*
X176134961Y-127047001D01*
X167980000Y-112676552D02*
X167980000Y-111690000D01*
X167980000Y-113535000D02*
X167980000Y-112676552D01*
X168947579Y-114502579D02*
X167980000Y-113535000D01*
X169043292Y-114562719D02*
X168992047Y-114538041D01*
X169262319Y-114538041D02*
X169211074Y-114562719D01*
X170102507Y-113706860D02*
X169306788Y-114502578D01*
X170146976Y-113671397D02*
X170102507Y-113706860D01*
X170253673Y-113634062D02*
X170198221Y-113646718D01*
X170310551Y-113634062D02*
X170253673Y-113634062D01*
X170366003Y-113646718D02*
X170310551Y-113634062D01*
X170198221Y-113646718D02*
X170146976Y-113671397D01*
X170417249Y-113671397D02*
X170366003Y-113646718D01*
X170461718Y-113706860D02*
X170417249Y-113671397D01*
X169211074Y-114562719D02*
X169155622Y-114575376D01*
X169593202Y-115012955D02*
X169605858Y-114957503D01*
X169098744Y-114575376D02*
X169043292Y-114562719D01*
X169593202Y-115069833D02*
X169593202Y-115012955D01*
X169605858Y-115125285D02*
X169593202Y-115069833D01*
X170521859Y-113802574D02*
X170497181Y-113751329D01*
X169630537Y-115176531D02*
X169605858Y-115125285D01*
X175889000Y-121444000D02*
X169666000Y-115221000D01*
X169306788Y-114502578D02*
X169262319Y-114538041D01*
X170534516Y-113858026D02*
X170521859Y-113802574D01*
X169155622Y-114575376D02*
X169098744Y-114575376D01*
X169666000Y-115221000D02*
X169630537Y-115176531D01*
X169605858Y-114957503D02*
X169630537Y-114906258D01*
X169630537Y-114906258D02*
X169666000Y-114861789D01*
X169666000Y-114861789D02*
X170461718Y-114066070D01*
X170461718Y-114066070D02*
X170497181Y-114021601D01*
X170497181Y-113751329D02*
X170461718Y-113706860D01*
X168992047Y-114538041D02*
X168947579Y-114502579D01*
X170497181Y-114021601D02*
X170521859Y-113970356D01*
X170521859Y-113970356D02*
X170534516Y-113914904D01*
X170534516Y-113914904D02*
X170534516Y-113858026D01*
X167130001Y-109999999D02*
X167980000Y-109150000D01*
X166745000Y-110385000D02*
X167130001Y-109999999D01*
X166745000Y-113062000D02*
X166745000Y-110385000D01*
X174111000Y-121444004D02*
X174111000Y-120428000D01*
X174111000Y-120428000D02*
X166745000Y-113062000D01*
X175736846Y-124762793D02*
X175755631Y-124816479D01*
X175762000Y-126146043D02*
X175762000Y-126270000D01*
X175666366Y-124674414D02*
X175706585Y-124714633D01*
X175508000Y-124619000D02*
X175564520Y-124625368D01*
X174311691Y-124593846D02*
X174365377Y-124612631D01*
X174263531Y-124563585D02*
X174311691Y-124593846D01*
X174223312Y-124523366D02*
X174263531Y-124563585D01*
X174174266Y-124421520D02*
X174193051Y-124475206D01*
X174167898Y-124365000D02*
X174174266Y-124421520D01*
X174193051Y-124475206D02*
X174223312Y-124523366D01*
X175706585Y-124015366D02*
X175666366Y-124055585D01*
X175508000Y-124111000D02*
X174421898Y-124111000D01*
X175706585Y-124714633D02*
X175736846Y-124762793D01*
X175736846Y-123967206D02*
X175706585Y-124015366D01*
X175618206Y-124644153D02*
X175666366Y-124674414D01*
X175755631Y-123913520D02*
X175736846Y-123967206D01*
X174223312Y-124206633D02*
X174193051Y-124254793D01*
X175762000Y-123857000D02*
X175755631Y-123913520D01*
X174174266Y-124308479D02*
X174167898Y-124365000D01*
X174111000Y-121444004D02*
X175762000Y-123095004D01*
X174421898Y-124619000D02*
X175508000Y-124619000D01*
X175762000Y-123095004D02*
X175762000Y-123857000D01*
X175755631Y-124816479D02*
X175762000Y-124873000D01*
X175666366Y-124055585D02*
X175618206Y-124085846D01*
X175762000Y-124873000D02*
X175762000Y-126146043D01*
X175618206Y-124085846D02*
X175564520Y-124104631D01*
X175564520Y-124625368D02*
X175618206Y-124644153D01*
X174311691Y-124136153D02*
X174263531Y-124166414D01*
X175564520Y-124104631D02*
X175508000Y-124111000D01*
X174421898Y-124111000D02*
X174365377Y-124117368D01*
X174263531Y-124166414D02*
X174223312Y-124206633D01*
X174365377Y-124117368D02*
X174311691Y-124136153D01*
X174365377Y-124612631D02*
X174421898Y-124619000D01*
X174193051Y-124254793D02*
X174174266Y-124308479D01*
X171571000Y-127032000D02*
X172333000Y-127794000D01*
X171571000Y-123222000D02*
X171571000Y-127032000D01*
X167566921Y-122392921D02*
X170741921Y-122392921D01*
X170741921Y-122392921D02*
X171571000Y-123222000D01*
X167566921Y-122392921D02*
X164967000Y-119793000D01*
X172333000Y-126651000D02*
X172333000Y-126085315D01*
X172333000Y-126085315D02*
X172333000Y-123222000D01*
X172333000Y-123222000D02*
X171444000Y-122333000D01*
X171444000Y-122333000D02*
X171063000Y-121952000D01*
X171063000Y-121952000D02*
X168142000Y-121952000D01*
X168142000Y-121952000D02*
X164205000Y-118015000D01*
X160903000Y-119031000D02*
X159252000Y-119031000D01*
X165440000Y-111690000D02*
X165440000Y-114494000D01*
X165440000Y-114494000D02*
X160903000Y-119031000D01*
X164205000Y-110385000D02*
X165440000Y-109150000D01*
X164205000Y-114713000D02*
X164205000Y-110385000D01*
X160649000Y-118269000D02*
X164205000Y-114713000D01*
X158236000Y-118269000D02*
X160649000Y-118269000D01*
X157728000Y-122587000D02*
X157728000Y-118777000D01*
X157728000Y-118777000D02*
X158236000Y-118269000D01*
X161538000Y-110512000D02*
X162900000Y-109150000D01*
X161538000Y-115348000D02*
X161538000Y-110512000D01*
X160141000Y-116745000D02*
X161538000Y-115348000D01*
X158998000Y-116745000D02*
X160141000Y-116745000D01*
X156839000Y-120555000D02*
X156839000Y-118904000D01*
X156839000Y-118904000D02*
X158998000Y-116745000D01*
X139313000Y-121063000D02*
X138170000Y-119920000D01*
X138170000Y-119920000D02*
X138170000Y-114205000D01*
G36*
X171952000Y-100616000D02*
X171961667Y-100664601D01*
X171989197Y-100705803D01*
X172030399Y-100733333D01*
X172079000Y-100743000D01*
X173460297Y-100743000D01*
X173460938Y-100744089D01*
X173471903Y-100756384D01*
X173484248Y-100771512D01*
X173488591Y-100775096D01*
X173489237Y-100775820D01*
X173489825Y-100776507D01*
X173492759Y-100781237D01*
X173506060Y-100795468D01*
X173516907Y-100808135D01*
X173520653Y-100811080D01*
X173521281Y-100811752D01*
X173522046Y-100812610D01*
X173524827Y-100816883D01*
X173536749Y-100829097D01*
X173549059Y-100842900D01*
X173553470Y-100846227D01*
X173554262Y-100847039D01*
X173555003Y-100847831D01*
X173558114Y-100852376D01*
X173571342Y-100865311D01*
X173583066Y-100877855D01*
X173587218Y-100880837D01*
X173588001Y-100881602D01*
X173588514Y-100882128D01*
X173591434Y-100886207D01*
X173603938Y-100897930D01*
X173617168Y-100911483D01*
X173621740Y-100914618D01*
X173622304Y-100915147D01*
X173623164Y-100915989D01*
X173626738Y-100920725D01*
X173641101Y-100933528D01*
X173652544Y-100944719D01*
X173656678Y-100947415D01*
X173657597Y-100948235D01*
X173658307Y-100948900D01*
X173661351Y-100952764D01*
X173673555Y-100963195D01*
X173687755Y-100976507D01*
X173692819Y-100979659D01*
X173693544Y-100980279D01*
X173693759Y-100980470D01*
X173697245Y-100984695D01*
X173712069Y-100996793D01*
X173725170Y-101008472D01*
X173729501Y-101011019D01*
X173729721Y-101011199D01*
X173730226Y-101011631D01*
X173733753Y-101015713D01*
X173747883Y-101026722D01*
X173761572Y-101038422D01*
X173766303Y-101041074D01*
X173766827Y-101041482D01*
X173767219Y-101041802D01*
X173770823Y-101045789D01*
X173785265Y-101056530D01*
X173799321Y-101068001D01*
X173804106Y-101070542D01*
X173804515Y-101070846D01*
X173805259Y-101071426D01*
X173809266Y-101075646D01*
X173824354Y-101086303D01*
X173837626Y-101096644D01*
X173842362Y-101099023D01*
X173843161Y-101099588D01*
X173844256Y-101100402D01*
X173848300Y-101104458D01*
X173862593Y-101114040D01*
X173876430Y-101124330D01*
X173881616Y-101126791D01*
X173882708Y-101127524D01*
X173886152Y-101130844D01*
X173900011Y-101139743D01*
X173916667Y-101151508D01*
X173922079Y-101153916D01*
X173922436Y-101154155D01*
X173927131Y-101158448D01*
X173944754Y-101169116D01*
X173957431Y-101177614D01*
X173961783Y-101179424D01*
X173962220Y-101179689D01*
X173962958Y-101180163D01*
X173966821Y-101183544D01*
X173980454Y-101191397D01*
X173996712Y-101201837D01*
X174002580Y-101204143D01*
X174003352Y-101204588D01*
X174003462Y-101204654D01*
X174007907Y-101208361D01*
X174024630Y-101217468D01*
X174039406Y-101226413D01*
X174044341Y-101228203D01*
X174044444Y-101228259D01*
X174045006Y-101228583D01*
X174049466Y-101232125D01*
X174065162Y-101240194D01*
X174080513Y-101249037D01*
X174085928Y-101250869D01*
X174086511Y-101251169D01*
X174086930Y-101251397D01*
X174091468Y-101254829D01*
X174107426Y-101262559D01*
X174123064Y-101271076D01*
X174128519Y-101272777D01*
X174128955Y-101272989D01*
X174129281Y-101273156D01*
X174133888Y-101276472D01*
X174150087Y-101283852D01*
X174166020Y-101292043D01*
X174171512Y-101293613D01*
X174171823Y-101293755D01*
X174172674Y-101294167D01*
X174177786Y-101297648D01*
X174194545Y-101304762D01*
X174209352Y-101311935D01*
X174214760Y-101313343D01*
X174215609Y-101313703D01*
X174215664Y-101313729D01*
X174219899Y-101316485D01*
X174234797Y-101322445D01*
X174253031Y-101330753D01*
X174259174Y-101332199D01*
X174259226Y-101332220D01*
X174264572Y-101335505D01*
X174283355Y-101342462D01*
X174298216Y-101348770D01*
X174303165Y-101349800D01*
X174303678Y-101350005D01*
X174308469Y-101352798D01*
X174324141Y-101358192D01*
X174341357Y-101365080D01*
X174347457Y-101366217D01*
X174347993Y-101366401D01*
X174348424Y-101366561D01*
X174353847Y-101369538D01*
X174371538Y-101375121D01*
X174387170Y-101380911D01*
X174392660Y-101381788D01*
X174393121Y-101381933D01*
X174393444Y-101382044D01*
X174398357Y-101384596D01*
X174414380Y-101389250D01*
X174432051Y-101395332D01*
X174438195Y-101396167D01*
X174438528Y-101396264D01*
X174438790Y-101396347D01*
X174444344Y-101399053D01*
X174462419Y-101403804D01*
X174478419Y-101408854D01*
X174483933Y-101409460D01*
X174484191Y-101409527D01*
X174484357Y-101409576D01*
X174489375Y-101411880D01*
X174505688Y-101415771D01*
X174523772Y-101421024D01*
X174529723Y-101421539D01*
X174534622Y-101423655D01*
X174552666Y-101427527D01*
X174570596Y-101432240D01*
X174576139Y-101432577D01*
X174576364Y-101432631D01*
X174582621Y-101435126D01*
X174601434Y-101438611D01*
X174616330Y-101442164D01*
X174621718Y-101442368D01*
X174622534Y-101442519D01*
X174623233Y-101442669D01*
X174628279Y-101444550D01*
X174643423Y-101447001D01*
X174662212Y-101451033D01*
X174668957Y-101451134D01*
X174669574Y-101451234D01*
X174675400Y-101453239D01*
X174694209Y-101455795D01*
X174710874Y-101458882D01*
X174716257Y-101458811D01*
X174721366Y-101460441D01*
X174738208Y-101462344D01*
X174757022Y-101465389D01*
X174763177Y-101465168D01*
X174763636Y-101465231D01*
X174770110Y-101467097D01*
X174789330Y-101468722D01*
X174804603Y-101470798D01*
X174809976Y-101470468D01*
X174810570Y-101470519D01*
X174811119Y-101470581D01*
X174816312Y-101471952D01*
X174831685Y-101472904D01*
X174850920Y-101475077D01*
X174857646Y-101474512D01*
X174857967Y-101474531D01*
X174863939Y-101475948D01*
X174883022Y-101476646D01*
X174899996Y-101478081D01*
X174905190Y-101477497D01*
X174910290Y-101478586D01*
X174927305Y-101478825D01*
X174946406Y-101480008D01*
X174952489Y-101479185D01*
X174952753Y-101479194D01*
X174959390Y-101480418D01*
X174978772Y-101480146D01*
X174994187Y-101480709D01*
X174999489Y-101479854D01*
X175000000Y-101479847D01*
X175000511Y-101479854D01*
X175005813Y-101480709D01*
X175021228Y-101480146D01*
X175040610Y-101480418D01*
X175047247Y-101479194D01*
X175047511Y-101479185D01*
X175053594Y-101480008D01*
X175072695Y-101478825D01*
X175089710Y-101478586D01*
X175094810Y-101477497D01*
X175100004Y-101478081D01*
X175116979Y-101476646D01*
X175136061Y-101475948D01*
X175142033Y-101474531D01*
X175142352Y-101474512D01*
X175149078Y-101475077D01*
X175168311Y-101472904D01*
X175183688Y-101471952D01*
X175188883Y-101470580D01*
X175189422Y-101470519D01*
X175190024Y-101470468D01*
X175195397Y-101470798D01*
X175210668Y-101468723D01*
X175229891Y-101467097D01*
X175236366Y-101465230D01*
X175236823Y-101465168D01*
X175242977Y-101465389D01*
X175261791Y-101462344D01*
X175278633Y-101460441D01*
X175283742Y-101458811D01*
X175289127Y-101458882D01*
X175305794Y-101455795D01*
X175324600Y-101453239D01*
X175330427Y-101451234D01*
X175331042Y-101451134D01*
X175337789Y-101451033D01*
X175356584Y-101447000D01*
X175371720Y-101444550D01*
X175376764Y-101442670D01*
X175377469Y-101442519D01*
X175378282Y-101442368D01*
X175383670Y-101442164D01*
X175398566Y-101438611D01*
X175417379Y-101435126D01*
X175423636Y-101432631D01*
X175423861Y-101432577D01*
X175429404Y-101432240D01*
X175447334Y-101427527D01*
X175465378Y-101423655D01*
X175470280Y-101421538D01*
X175476228Y-101421023D01*
X175494296Y-101415775D01*
X175510625Y-101411880D01*
X175515647Y-101409574D01*
X175515784Y-101409534D01*
X175516067Y-101409460D01*
X175521581Y-101408854D01*
X175537581Y-101403804D01*
X175555656Y-101399053D01*
X175561210Y-101396347D01*
X175561485Y-101396260D01*
X175561803Y-101396168D01*
X175567949Y-101395332D01*
X175585623Y-101389249D01*
X175601643Y-101384596D01*
X175606556Y-101382044D01*
X175606879Y-101381933D01*
X175607341Y-101381787D01*
X175612829Y-101380911D01*
X175628459Y-101375122D01*
X175646153Y-101369538D01*
X175651575Y-101366561D01*
X175652009Y-101366401D01*
X175652543Y-101366217D01*
X175658643Y-101365080D01*
X175675859Y-101358192D01*
X175691531Y-101352798D01*
X175696322Y-101350005D01*
X175696834Y-101349800D01*
X175701785Y-101348770D01*
X175716637Y-101342465D01*
X175735428Y-101335506D01*
X175740779Y-101332218D01*
X175740826Y-101332199D01*
X175746969Y-101330753D01*
X175765203Y-101322445D01*
X175780101Y-101316485D01*
X175784336Y-101313729D01*
X175784387Y-101313705D01*
X175785241Y-101313343D01*
X175790648Y-101311935D01*
X175805453Y-101304763D01*
X175822214Y-101297648D01*
X175827327Y-101294167D01*
X175828171Y-101293758D01*
X175828494Y-101293611D01*
X175833980Y-101292042D01*
X175849899Y-101283858D01*
X175866112Y-101276472D01*
X175870721Y-101273155D01*
X175871039Y-101272991D01*
X175871479Y-101272778D01*
X175876936Y-101271076D01*
X175892581Y-101262556D01*
X175908531Y-101254829D01*
X175913067Y-101251399D01*
X175913488Y-101251169D01*
X175914073Y-101250869D01*
X175919487Y-101249037D01*
X175934833Y-101240197D01*
X175950535Y-101232125D01*
X175954997Y-101228581D01*
X175955556Y-101228259D01*
X175955659Y-101228203D01*
X175960594Y-101226413D01*
X175975370Y-101217468D01*
X175992093Y-101208361D01*
X175996538Y-101204654D01*
X175996648Y-101204588D01*
X175997418Y-101204144D01*
X176003289Y-101201837D01*
X176019554Y-101191393D01*
X176033179Y-101183544D01*
X176037040Y-101180164D01*
X176037792Y-101179681D01*
X176038217Y-101179424D01*
X176042569Y-101177614D01*
X176055246Y-101169116D01*
X176072869Y-101158448D01*
X176077564Y-101154155D01*
X176077923Y-101153915D01*
X176083332Y-101151508D01*
X176099978Y-101139750D01*
X176113848Y-101130844D01*
X176117292Y-101127524D01*
X176118384Y-101126791D01*
X176123570Y-101124330D01*
X176137407Y-101114040D01*
X176151700Y-101104458D01*
X176155744Y-101100402D01*
X176156845Y-101099583D01*
X176157634Y-101099025D01*
X176162373Y-101096645D01*
X176175650Y-101086300D01*
X176190734Y-101075646D01*
X176194740Y-101071427D01*
X176195489Y-101070843D01*
X176195894Y-101070542D01*
X176200679Y-101068001D01*
X176214735Y-101056530D01*
X176229177Y-101045789D01*
X176232781Y-101041802D01*
X176233171Y-101041484D01*
X176233698Y-101041073D01*
X176238428Y-101038422D01*
X176252114Y-101026724D01*
X176266247Y-101015713D01*
X176269775Y-101011630D01*
X176270271Y-101011206D01*
X176270499Y-101011019D01*
X176274830Y-101008472D01*
X176287931Y-100996793D01*
X176302755Y-100984695D01*
X176306241Y-100980470D01*
X176306474Y-100980263D01*
X176307178Y-100979661D01*
X176312245Y-100976507D01*
X176326454Y-100963186D01*
X176338649Y-100952763D01*
X176341691Y-100948901D01*
X176342396Y-100948241D01*
X176343322Y-100947415D01*
X176347456Y-100944719D01*
X176358899Y-100933528D01*
X176373262Y-100920725D01*
X176376836Y-100915989D01*
X176377713Y-100915130D01*
X176378257Y-100914620D01*
X176382832Y-100911483D01*
X176396072Y-100897919D01*
X176408566Y-100886206D01*
X176411483Y-100882131D01*
X176411999Y-100881603D01*
X176412782Y-100880837D01*
X176416934Y-100877855D01*
X176428658Y-100865312D01*
X176441885Y-100852377D01*
X176444996Y-100847832D01*
X176445738Y-100847039D01*
X176446530Y-100846227D01*
X176450941Y-100842900D01*
X176463251Y-100829097D01*
X176475173Y-100816883D01*
X176477954Y-100812610D01*
X176478719Y-100811752D01*
X176479347Y-100811080D01*
X176483093Y-100808135D01*
X176493941Y-100795466D01*
X176507241Y-100781237D01*
X176510175Y-100776509D01*
X176510772Y-100775811D01*
X176511410Y-100775096D01*
X176515752Y-100771512D01*
X176528096Y-100756385D01*
X176539062Y-100744089D01*
X176539703Y-100743000D01*
X177921000Y-100743000D01*
X177969601Y-100733333D01*
X178010803Y-100705803D01*
X178038333Y-100664601D01*
X178048000Y-100616000D01*
X178048000Y-99531000D01*
X178710246Y-99531000D01*
X179077927Y-99592199D01*
X179370496Y-99750060D01*
X179596156Y-99994178D01*
X179734490Y-100307080D01*
X179769001Y-100580268D01*
X179769000Y-122711992D01*
X179752473Y-122708020D01*
X179640500Y-122754889D01*
X179640500Y-123709500D01*
X179660500Y-123709500D01*
X179660500Y-124090500D01*
X179640500Y-124090500D01*
X179640500Y-125045111D01*
X179752473Y-125091980D01*
X179769000Y-125088008D01*
X179769000Y-125811992D01*
X179752473Y-125808020D01*
X179640500Y-125854889D01*
X179640500Y-126909500D01*
X179660500Y-126909500D01*
X179660500Y-127290500D01*
X179640500Y-127290500D01*
X179640500Y-127310500D01*
X179259500Y-127310500D01*
X179259500Y-127290500D01*
X178694800Y-127290500D01*
X178694800Y-127890500D01*
X178755837Y-128019000D01*
X173085150Y-128019000D01*
X173114000Y-127949351D01*
X173114000Y-127638649D01*
X172995100Y-127351599D01*
X172866001Y-127222500D01*
X172995100Y-127093401D01*
X173114000Y-126806351D01*
X173114000Y-126495649D01*
X172995100Y-126208599D01*
X172841000Y-126054499D01*
X172841000Y-123272028D01*
X172850951Y-123222000D01*
X172841000Y-123171972D01*
X172841000Y-123171968D01*
X172811525Y-123023788D01*
X172764391Y-122953247D01*
X172727588Y-122898167D01*
X172727586Y-122898165D01*
X172699247Y-122855753D01*
X172656835Y-122827414D01*
X171767832Y-121938412D01*
X171457587Y-121628167D01*
X171429247Y-121585753D01*
X171261212Y-121473475D01*
X171113032Y-121444000D01*
X171113028Y-121444000D01*
X171063000Y-121434049D01*
X171012972Y-121444000D01*
X168352421Y-121444000D01*
X164986000Y-118077580D01*
X164986000Y-117859649D01*
X164867100Y-117572599D01*
X164647401Y-117352900D01*
X164360351Y-117234000D01*
X164049649Y-117234000D01*
X163762599Y-117352900D01*
X163542900Y-117572599D01*
X163424000Y-117859649D01*
X163424000Y-118170351D01*
X163542900Y-118457401D01*
X163762599Y-118677100D01*
X164049649Y-118796000D01*
X164267580Y-118796000D01*
X164579669Y-119108089D01*
X164524599Y-119130900D01*
X164304900Y-119350599D01*
X164186000Y-119637649D01*
X164186000Y-119948351D01*
X164304900Y-120235401D01*
X164524599Y-120455100D01*
X164811649Y-120574000D01*
X165029580Y-120574000D01*
X167172333Y-122716753D01*
X167200674Y-122759168D01*
X167368709Y-122871446D01*
X167516889Y-122900921D01*
X167516893Y-122900921D01*
X167566921Y-122910872D01*
X167616949Y-122900921D01*
X169962911Y-122900921D01*
X169925187Y-122934998D01*
X169794800Y-123209500D01*
X169794800Y-123709500D01*
X170359500Y-123709500D01*
X170359500Y-123689500D01*
X170740500Y-123689500D01*
X170740500Y-123709500D01*
X170760500Y-123709500D01*
X170760500Y-124090500D01*
X170740500Y-124090500D01*
X170740500Y-125045111D01*
X170852473Y-125091980D01*
X170949303Y-125068711D01*
X171063000Y-124966005D01*
X171063001Y-125933995D01*
X170949303Y-125831289D01*
X170852473Y-125808020D01*
X170740500Y-125854889D01*
X170740500Y-126909500D01*
X170760500Y-126909500D01*
X170760500Y-127290500D01*
X170740500Y-127290500D01*
X170740500Y-127310500D01*
X170359500Y-127310500D01*
X170359500Y-127290500D01*
X170339500Y-127290500D01*
X170339500Y-126909500D01*
X170359500Y-126909500D01*
X170359500Y-125854889D01*
X170247527Y-125808020D01*
X170231000Y-125811992D01*
X170231000Y-125741967D01*
X170225075Y-125712182D01*
X170180082Y-125356020D01*
X170171924Y-125328741D01*
X170169689Y-125300347D01*
X170142801Y-125221815D01*
X170024861Y-124955040D01*
X170150697Y-125068711D01*
X170247527Y-125091980D01*
X170359500Y-125045111D01*
X170359500Y-124090500D01*
X169794800Y-124090500D01*
X169794800Y-124572101D01*
X169522571Y-124277604D01*
X169492639Y-124254386D01*
X169467145Y-124226369D01*
X169397767Y-124180796D01*
X168964281Y-123946901D01*
X168928446Y-123934632D01*
X168895249Y-123916382D01*
X168814850Y-123895739D01*
X168336434Y-123816110D01*
X168297373Y-123808340D01*
X151702151Y-123808340D01*
X151672366Y-123814265D01*
X151316204Y-123859258D01*
X151288925Y-123867416D01*
X151260531Y-123869651D01*
X151181999Y-123896539D01*
X150731500Y-124095703D01*
X150699843Y-124116498D01*
X150665076Y-124131543D01*
X150599488Y-124182419D01*
X150237788Y-124516769D01*
X150214570Y-124546701D01*
X150186553Y-124572195D01*
X150140980Y-124641573D01*
X149907085Y-125075059D01*
X149894816Y-125110894D01*
X149876566Y-125144091D01*
X149855923Y-125224490D01*
X149776289Y-125702936D01*
X149768525Y-125741967D01*
X149768524Y-131802625D01*
X149758372Y-131853664D01*
X149756295Y-131856771D01*
X149753188Y-131858848D01*
X149702149Y-131869000D01*
X145032654Y-131869000D01*
X144981615Y-131858848D01*
X144978508Y-131856771D01*
X144976431Y-131853664D01*
X144966279Y-131802625D01*
X144966279Y-130552627D01*
X144949766Y-130469608D01*
X144899947Y-130219149D01*
X144828126Y-130045758D01*
X144828125Y-130045757D01*
X144665545Y-129802440D01*
X144532837Y-129669732D01*
X144532834Y-129669731D01*
X144289522Y-129507154D01*
X144289521Y-129507153D01*
X144187952Y-129465082D01*
X144116131Y-129435332D01*
X144116130Y-129435332D01*
X143829117Y-129378242D01*
X143829115Y-129378242D01*
X143782652Y-129369000D01*
X141906389Y-129369000D01*
X141859926Y-129378242D01*
X141859924Y-129378242D01*
X141572911Y-129435332D01*
X141399520Y-129507153D01*
X141399519Y-129507154D01*
X141156202Y-129669734D01*
X141023494Y-129802442D01*
X141023493Y-129802445D01*
X140860916Y-130045757D01*
X140860915Y-130045758D01*
X140834988Y-130108351D01*
X140789095Y-130219147D01*
X140789094Y-130219149D01*
X140732004Y-130506162D01*
X140732004Y-130506169D01*
X140722763Y-130552627D01*
X140722762Y-131802625D01*
X140712610Y-131853664D01*
X140710533Y-131856771D01*
X140707426Y-131858848D01*
X140656387Y-131869000D01*
X135676674Y-131869000D01*
X135625635Y-131858848D01*
X135622528Y-131856771D01*
X135620451Y-131853664D01*
X135610299Y-131802625D01*
X135610299Y-130552627D01*
X135593786Y-130469608D01*
X135543967Y-130219149D01*
X135472146Y-130045758D01*
X135472145Y-130045757D01*
X135309565Y-129802440D01*
X135176857Y-129669732D01*
X135176854Y-129669731D01*
X134933542Y-129507154D01*
X134933541Y-129507153D01*
X134831972Y-129465082D01*
X134760151Y-129435332D01*
X134760150Y-129435332D01*
X134473137Y-129378242D01*
X134473135Y-129378242D01*
X134426672Y-129369000D01*
X132679012Y-129369000D01*
X132632549Y-129378242D01*
X132632547Y-129378242D01*
X132345534Y-129435332D01*
X132172143Y-129507153D01*
X132172142Y-129507154D01*
X131928825Y-129669734D01*
X131796117Y-129802442D01*
X131796116Y-129802445D01*
X131633539Y-130045757D01*
X131633538Y-130045758D01*
X131607611Y-130108351D01*
X131561718Y-130219147D01*
X131561717Y-130219149D01*
X131504627Y-130506162D01*
X131504627Y-130506169D01*
X131495386Y-130552627D01*
X131495385Y-131802625D01*
X131485233Y-131853664D01*
X131483156Y-131856771D01*
X131480049Y-131858848D01*
X131429010Y-131869000D01*
X126570990Y-131869000D01*
X126519951Y-131858848D01*
X126516844Y-131856771D01*
X126514767Y-131853664D01*
X126504615Y-131802625D01*
X126504615Y-130552627D01*
X126488102Y-130469608D01*
X126438283Y-130219149D01*
X126366462Y-130045758D01*
X126366461Y-130045757D01*
X126203881Y-129802440D01*
X126071173Y-129669732D01*
X126071170Y-129669731D01*
X125827858Y-129507154D01*
X125827857Y-129507153D01*
X125726288Y-129465082D01*
X125654467Y-129435332D01*
X125654466Y-129435332D01*
X125367453Y-129378242D01*
X125367451Y-129378242D01*
X125320988Y-129369000D01*
X123573328Y-129369000D01*
X123526865Y-129378242D01*
X123526863Y-129378242D01*
X123239850Y-129435332D01*
X123066459Y-129507153D01*
X123066458Y-129507154D01*
X122823141Y-129669734D01*
X122690433Y-129802442D01*
X122690432Y-129802445D01*
X122527855Y-130045757D01*
X122527854Y-130045758D01*
X122501927Y-130108351D01*
X122456034Y-130219147D01*
X122456033Y-130219149D01*
X122398943Y-130506162D01*
X122398943Y-130506169D01*
X122389702Y-130552627D01*
X122389701Y-131802625D01*
X122379549Y-131853664D01*
X122377472Y-131856771D01*
X122374365Y-131858848D01*
X122323326Y-131869000D01*
X117343613Y-131869000D01*
X117292574Y-131858848D01*
X117289467Y-131856771D01*
X117287390Y-131853664D01*
X117277238Y-131802625D01*
X117277238Y-130552627D01*
X117260725Y-130469608D01*
X117210906Y-130219149D01*
X117139085Y-130045758D01*
X117139084Y-130045757D01*
X116976504Y-129802440D01*
X116843796Y-129669732D01*
X116843793Y-129669731D01*
X116600481Y-129507154D01*
X116600480Y-129507153D01*
X116498911Y-129465082D01*
X116427090Y-129435332D01*
X116427089Y-129435332D01*
X116140076Y-129378242D01*
X116140074Y-129378242D01*
X116093611Y-129369000D01*
X114217348Y-129369000D01*
X114170885Y-129378242D01*
X114170883Y-129378242D01*
X113883870Y-129435332D01*
X113710479Y-129507153D01*
X113710478Y-129507154D01*
X113467161Y-129669734D01*
X113334453Y-129802442D01*
X113334452Y-129802445D01*
X113171875Y-130045757D01*
X113171874Y-130045758D01*
X113145947Y-130108351D01*
X113100054Y-130219147D01*
X113100053Y-130219149D01*
X113042963Y-130506162D01*
X113042963Y-130506169D01*
X113033722Y-130552627D01*
X113033721Y-131802625D01*
X113023569Y-131853664D01*
X113021492Y-131856771D01*
X113018385Y-131858848D01*
X112967346Y-131869000D01*
X108297851Y-131869000D01*
X108246812Y-131858848D01*
X108243705Y-131856771D01*
X108241628Y-131853664D01*
X108231476Y-131802625D01*
X108231476Y-129797649D01*
X108433000Y-129797649D01*
X108433000Y-130108351D01*
X108551900Y-130395401D01*
X108771599Y-130615100D01*
X109058649Y-130734000D01*
X109369351Y-130734000D01*
X109656401Y-130615100D01*
X109810501Y-130461000D01*
X110179972Y-130461000D01*
X110230000Y-130470951D01*
X110280028Y-130461000D01*
X110280032Y-130461000D01*
X110428212Y-130431525D01*
X110596247Y-130319247D01*
X110624588Y-130276832D01*
X112218421Y-128683000D01*
X117850001Y-128683000D01*
X117850000Y-129356499D01*
X117695900Y-129510599D01*
X117577000Y-129797649D01*
X117577000Y-130108351D01*
X117695900Y-130395401D01*
X117915599Y-130615100D01*
X118202649Y-130734000D01*
X118513351Y-130734000D01*
X118800401Y-130615100D01*
X119020100Y-130395401D01*
X119139000Y-130108351D01*
X119139000Y-129797649D01*
X119020100Y-129510599D01*
X118866000Y-129356499D01*
X118866000Y-128683000D01*
X127121001Y-128683000D01*
X127121000Y-129356499D01*
X126966900Y-129510599D01*
X126848000Y-129797649D01*
X126848000Y-130108351D01*
X126966900Y-130395401D01*
X127186599Y-130615100D01*
X127473649Y-130734000D01*
X127784351Y-130734000D01*
X128071401Y-130615100D01*
X128291100Y-130395401D01*
X128410000Y-130108351D01*
X128410000Y-129797649D01*
X128291100Y-129510599D01*
X128137000Y-129356499D01*
X128137000Y-128683000D01*
X136265001Y-128683000D01*
X136265000Y-129356499D01*
X136110900Y-129510599D01*
X135992000Y-129797649D01*
X135992000Y-130108351D01*
X136110900Y-130395401D01*
X136330599Y-130615100D01*
X136617649Y-130734000D01*
X136928351Y-130734000D01*
X137215401Y-130615100D01*
X137435100Y-130395401D01*
X137554000Y-130108351D01*
X137554000Y-129797649D01*
X137435100Y-129510599D01*
X137281000Y-129356499D01*
X137281000Y-128683000D01*
X145409001Y-128683000D01*
X145409000Y-129356499D01*
X145254900Y-129510599D01*
X145136000Y-129797649D01*
X145136000Y-130108351D01*
X145254900Y-130395401D01*
X145474599Y-130615100D01*
X145761649Y-130734000D01*
X146072351Y-130734000D01*
X146359401Y-130615100D01*
X146579100Y-130395401D01*
X146698000Y-130108351D01*
X146698000Y-129797649D01*
X146579100Y-129510599D01*
X146425000Y-129356499D01*
X146425000Y-128683000D01*
X146628972Y-128683000D01*
X146679000Y-128692951D01*
X146729028Y-128683000D01*
X146729032Y-128683000D01*
X146877212Y-128653525D01*
X147045247Y-128541247D01*
X147073588Y-128498832D01*
X148814836Y-126757585D01*
X148857247Y-126729247D01*
X148885586Y-126686835D01*
X148885588Y-126686833D01*
X148969525Y-126561212D01*
X148982566Y-126495649D01*
X148999000Y-126413032D01*
X148999000Y-126413028D01*
X149008951Y-126363000D01*
X148999000Y-126312972D01*
X148999000Y-120399649D01*
X156058000Y-120399649D01*
X156058000Y-120710351D01*
X156176900Y-120997401D01*
X156396599Y-121217100D01*
X156683649Y-121336000D01*
X156994351Y-121336000D01*
X157220000Y-121242533D01*
X157220000Y-121990499D01*
X157065900Y-122144599D01*
X156947000Y-122431649D01*
X156947000Y-122742351D01*
X157065900Y-123029401D01*
X157285599Y-123249100D01*
X157572649Y-123368000D01*
X157883351Y-123368000D01*
X158170401Y-123249100D01*
X158390100Y-123029401D01*
X158509000Y-122742351D01*
X158509000Y-122431649D01*
X158390100Y-122144599D01*
X158236000Y-121990499D01*
X158236000Y-118987420D01*
X158446420Y-118777000D01*
X158511862Y-118777000D01*
X158471000Y-118875649D01*
X158471000Y-119186351D01*
X158589900Y-119473401D01*
X158809599Y-119693100D01*
X159096649Y-119812000D01*
X159407351Y-119812000D01*
X159694401Y-119693100D01*
X159848501Y-119539000D01*
X160852972Y-119539000D01*
X160903000Y-119548951D01*
X160953028Y-119539000D01*
X160953032Y-119539000D01*
X161101212Y-119509525D01*
X161269247Y-119397247D01*
X161297588Y-119354832D01*
X165763835Y-114888586D01*
X165806247Y-114860247D01*
X165834586Y-114817835D01*
X165834588Y-114817833D01*
X165918525Y-114692212D01*
X165927026Y-114649475D01*
X165948000Y-114544032D01*
X165948000Y-114544028D01*
X165957951Y-114494000D01*
X165948000Y-114443972D01*
X165948000Y-112831075D01*
X166237000Y-112637972D01*
X166237000Y-113011972D01*
X166227049Y-113062000D01*
X166237000Y-113112028D01*
X166237000Y-113112031D01*
X166261543Y-113235414D01*
X166266475Y-113260211D01*
X166346620Y-113380156D01*
X166378753Y-113428247D01*
X166421168Y-113456588D01*
X173603001Y-120638422D01*
X173603001Y-120847502D01*
X173448900Y-121001603D01*
X173330000Y-121288653D01*
X173330000Y-121599355D01*
X173448900Y-121886405D01*
X173668599Y-122106104D01*
X173955649Y-122225004D01*
X174173580Y-122225004D01*
X175254000Y-123305424D01*
X175254001Y-123603000D01*
X174443274Y-123603000D01*
X174414741Y-123600593D01*
X174401574Y-123602076D01*
X174394424Y-123600232D01*
X174374816Y-123603000D01*
X174371866Y-123603000D01*
X174364656Y-123604434D01*
X174301429Y-123613359D01*
X174258786Y-123618164D01*
X174251942Y-123620345D01*
X174244825Y-123621350D01*
X174232315Y-123625727D01*
X174224931Y-123625520D01*
X174170421Y-123646328D01*
X174114837Y-123664043D01*
X174109195Y-123668808D01*
X174096690Y-123673183D01*
X174090499Y-123676835D01*
X174083782Y-123679399D01*
X174072563Y-123686448D01*
X174065320Y-123687889D01*
X174016811Y-123720302D01*
X173966559Y-123749944D01*
X173962116Y-123755848D01*
X173950896Y-123762898D01*
X173945679Y-123767831D01*
X173939699Y-123771826D01*
X173930329Y-123781196D01*
X173923589Y-123784212D01*
X173883507Y-123826609D01*
X173841110Y-123866691D01*
X173838094Y-123873431D01*
X173828724Y-123882801D01*
X173824729Y-123888781D01*
X173819796Y-123893998D01*
X173812746Y-123905218D01*
X173806842Y-123909661D01*
X173777198Y-123959915D01*
X173744787Y-124008422D01*
X173743346Y-124015665D01*
X173736297Y-124026884D01*
X173733734Y-124033598D01*
X173730081Y-124039791D01*
X173725705Y-124052297D01*
X173720941Y-124057939D01*
X173703225Y-124113525D01*
X173682418Y-124168033D01*
X173682625Y-124175417D01*
X173678248Y-124187927D01*
X173677244Y-124195042D01*
X173675062Y-124201887D01*
X173673579Y-124215050D01*
X173670190Y-124221610D01*
X173665286Y-124279750D01*
X173657130Y-124337525D01*
X173658975Y-124344675D01*
X173657491Y-124357843D01*
X173658095Y-124365000D01*
X173657491Y-124372158D01*
X173658974Y-124385324D01*
X173657130Y-124392474D01*
X173665287Y-124450256D01*
X173670191Y-124508391D01*
X173673579Y-124514949D01*
X173675062Y-124528113D01*
X173677244Y-124534958D01*
X173678248Y-124542072D01*
X173682625Y-124554582D01*
X173682418Y-124561966D01*
X173703227Y-124616479D01*
X173720942Y-124672061D01*
X173725705Y-124677702D01*
X173730081Y-124690208D01*
X173733734Y-124696401D01*
X173736297Y-124703115D01*
X173743346Y-124714334D01*
X173744787Y-124721577D01*
X173777198Y-124770084D01*
X173806842Y-124820338D01*
X173812746Y-124824781D01*
X173819796Y-124836001D01*
X173824729Y-124841218D01*
X173828724Y-124847198D01*
X173838094Y-124856568D01*
X173841110Y-124863308D01*
X173883507Y-124903390D01*
X173923589Y-124945787D01*
X173930329Y-124948803D01*
X173939699Y-124958173D01*
X173945679Y-124962168D01*
X173950896Y-124967101D01*
X173962116Y-124974151D01*
X173966559Y-124980055D01*
X174016811Y-125009697D01*
X174065320Y-125042110D01*
X174072563Y-125043551D01*
X174083782Y-125050600D01*
X174090499Y-125053164D01*
X174096690Y-125056816D01*
X174109191Y-125061190D01*
X174114829Y-125065951D01*
X174170402Y-125083664D01*
X174224931Y-125104479D01*
X174232315Y-125104272D01*
X174244825Y-125108649D01*
X174251938Y-125109653D01*
X174258777Y-125111833D01*
X174301424Y-125116639D01*
X174364639Y-125125562D01*
X174371866Y-125127000D01*
X174374823Y-125127000D01*
X174394424Y-125129767D01*
X174401569Y-125127924D01*
X174414732Y-125129407D01*
X174443272Y-125127000D01*
X175254000Y-125127000D01*
X175254001Y-125673498D01*
X175099900Y-125827599D01*
X175000000Y-126068779D01*
X174900100Y-125827599D01*
X174680401Y-125607900D01*
X174393351Y-125489000D01*
X174082649Y-125489000D01*
X173795599Y-125607900D01*
X173575900Y-125827599D01*
X173457000Y-126114649D01*
X173457000Y-126425351D01*
X173575900Y-126712401D01*
X173795599Y-126932100D01*
X174082649Y-127051000D01*
X174300580Y-127051000D01*
X174620413Y-127370833D01*
X174648754Y-127413248D01*
X174816789Y-127525526D01*
X174964969Y-127555001D01*
X174964972Y-127555001D01*
X175015000Y-127564952D01*
X175065028Y-127555001D01*
X176084933Y-127555001D01*
X176134961Y-127564952D01*
X176184989Y-127555001D01*
X176184993Y-127555001D01*
X176333173Y-127525526D01*
X176501208Y-127413248D01*
X176529549Y-127370834D01*
X176862836Y-127037547D01*
X176905248Y-127009208D01*
X176933587Y-126966796D01*
X176933589Y-126966794D01*
X177017526Y-126841173D01*
X177018995Y-126833789D01*
X177047001Y-126692993D01*
X177047001Y-126692989D01*
X177056952Y-126642961D01*
X177047001Y-126592933D01*
X177047001Y-126309500D01*
X178694800Y-126309500D01*
X178694800Y-126909500D01*
X179259500Y-126909500D01*
X179259500Y-125854889D01*
X179147527Y-125808020D01*
X179050697Y-125831289D01*
X178825187Y-126034998D01*
X178694800Y-126309500D01*
X177047001Y-126309500D01*
X177047001Y-124090500D01*
X178694800Y-124090500D01*
X178694800Y-124590500D01*
X178825187Y-124865002D01*
X179050697Y-125068711D01*
X179147527Y-125091980D01*
X179259500Y-125045111D01*
X179259500Y-124090500D01*
X178694800Y-124090500D01*
X177047001Y-124090500D01*
X177047001Y-123209500D01*
X178694800Y-123209500D01*
X178694800Y-123709500D01*
X179259500Y-123709500D01*
X179259500Y-122754889D01*
X179147527Y-122708020D01*
X179050697Y-122731289D01*
X178825187Y-122934998D01*
X178694800Y-123209500D01*
X177047001Y-123209500D01*
X177047001Y-122144028D01*
X177056952Y-122094000D01*
X177047001Y-122043972D01*
X177047001Y-122043969D01*
X177017526Y-121895789D01*
X176982922Y-121844000D01*
X176933589Y-121770168D01*
X176933587Y-121770166D01*
X176905248Y-121727754D01*
X176862836Y-121699415D01*
X176670000Y-121506579D01*
X176670000Y-121288649D01*
X176551100Y-121001599D01*
X176331401Y-120781900D01*
X176044351Y-120663000D01*
X175826421Y-120663000D01*
X170204814Y-115041394D01*
X170805808Y-114440400D01*
X170827693Y-114421920D01*
X170835956Y-114411558D01*
X170842317Y-114407806D01*
X170854225Y-114391983D01*
X170856306Y-114389902D01*
X170860382Y-114383802D01*
X170898778Y-114332783D01*
X170925545Y-114299218D01*
X170928844Y-114292831D01*
X170933166Y-114287089D01*
X170938914Y-114275153D01*
X170944277Y-114270083D01*
X170968101Y-114216842D01*
X170994889Y-114164989D01*
X170995510Y-114157630D01*
X171001260Y-114145689D01*
X171003056Y-114138728D01*
X171005987Y-114132177D01*
X171008935Y-114119261D01*
X171013041Y-114113116D01*
X171024426Y-114055878D01*
X171038996Y-113999395D01*
X171037964Y-113992086D01*
X171040912Y-113979171D01*
X171041114Y-113971986D01*
X171042516Y-113964936D01*
X171042516Y-113951682D01*
X171045150Y-113944782D01*
X171043514Y-113886465D01*
X171045150Y-113828148D01*
X171042516Y-113821248D01*
X171042516Y-113807995D01*
X171041114Y-113800945D01*
X171040912Y-113793759D01*
X171037964Y-113780844D01*
X171038996Y-113773535D01*
X171024426Y-113717049D01*
X171013041Y-113659815D01*
X171008936Y-113653671D01*
X171005987Y-113640753D01*
X171003056Y-113634202D01*
X171001260Y-113627241D01*
X170995510Y-113615300D01*
X170994889Y-113607941D01*
X170968101Y-113556088D01*
X170944277Y-113502847D01*
X170938914Y-113497777D01*
X170933166Y-113485841D01*
X170928844Y-113480099D01*
X170925545Y-113473712D01*
X170917284Y-113463353D01*
X170915042Y-113456319D01*
X170877402Y-113411743D01*
X170842317Y-113365124D01*
X170835956Y-113361372D01*
X170827693Y-113351010D01*
X170822203Y-113346375D01*
X170817568Y-113340885D01*
X170807208Y-113332623D01*
X170803457Y-113326264D01*
X170756839Y-113291180D01*
X170712259Y-113253536D01*
X170705225Y-113251294D01*
X170694866Y-113243033D01*
X170688480Y-113239734D01*
X170682740Y-113235414D01*
X170670798Y-113229663D01*
X170665723Y-113224295D01*
X170612469Y-113200466D01*
X170560637Y-113173689D01*
X170553279Y-113173068D01*
X170541340Y-113167319D01*
X170534377Y-113165523D01*
X170527816Y-113162587D01*
X170514903Y-113159640D01*
X170508763Y-113155537D01*
X170451536Y-113144154D01*
X170395046Y-113129582D01*
X170387732Y-113130615D01*
X170374809Y-113127665D01*
X170367630Y-113127464D01*
X170360583Y-113126062D01*
X170347333Y-113126062D01*
X170340438Y-113123430D01*
X170282112Y-113125066D01*
X170223786Y-113123430D01*
X170216891Y-113126062D01*
X170203641Y-113126062D01*
X170196594Y-113127464D01*
X170189415Y-113127665D01*
X170176490Y-113130615D01*
X170169173Y-113129582D01*
X170112674Y-113144156D01*
X170055461Y-113155537D01*
X170049321Y-113159640D01*
X170036408Y-113162587D01*
X170029847Y-113165523D01*
X170022880Y-113167320D01*
X170010943Y-113173069D01*
X170003588Y-113173689D01*
X169951762Y-113200463D01*
X169898501Y-113224295D01*
X169893425Y-113229664D01*
X169881481Y-113235416D01*
X169875741Y-113239736D01*
X169869359Y-113243033D01*
X169835793Y-113269801D01*
X169784793Y-113308184D01*
X169778675Y-113312272D01*
X169776587Y-113314360D01*
X169760766Y-113326267D01*
X169757016Y-113332624D01*
X169746657Y-113340885D01*
X169728177Y-113362770D01*
X169127183Y-113963763D01*
X168488000Y-113324580D01*
X168488000Y-112928464D01*
X168830000Y-112928464D01*
X168978659Y-112898894D01*
X169104686Y-112814686D01*
X169188894Y-112688659D01*
X169218464Y-112540000D01*
X169218464Y-110840000D01*
X169188894Y-110691341D01*
X169104686Y-110565314D01*
X168978659Y-110481106D01*
X168830000Y-110451536D01*
X167396885Y-110451536D01*
X167524589Y-110323832D01*
X167524591Y-110323829D01*
X167532348Y-110316072D01*
X167858761Y-110381000D01*
X168101239Y-110381000D01*
X168460312Y-110309576D01*
X168867501Y-110037501D01*
X169139576Y-109630312D01*
X169235116Y-109150000D01*
X169139576Y-108669688D01*
X168867501Y-108262499D01*
X168460312Y-107990424D01*
X168101239Y-107919000D01*
X167858761Y-107919000D01*
X167499688Y-107990424D01*
X167092499Y-108262499D01*
X166820424Y-108669688D01*
X166724884Y-109150000D01*
X166813928Y-109597652D01*
X166806171Y-109605409D01*
X166806168Y-109605411D01*
X166421165Y-109990414D01*
X166378754Y-110018753D01*
X166350415Y-110061165D01*
X166350412Y-110061168D01*
X166266475Y-110186789D01*
X166227049Y-110385000D01*
X166237001Y-110435033D01*
X166237001Y-110742029D01*
X165920312Y-110530424D01*
X165561239Y-110459000D01*
X165318761Y-110459000D01*
X164959688Y-110530424D01*
X164713000Y-110695256D01*
X164713000Y-110595420D01*
X164992348Y-110316072D01*
X165318761Y-110381000D01*
X165561239Y-110381000D01*
X165920312Y-110309576D01*
X166327501Y-110037501D01*
X166599576Y-109630312D01*
X166695116Y-109150000D01*
X166599576Y-108669688D01*
X166327501Y-108262499D01*
X165920312Y-107990424D01*
X165561239Y-107919000D01*
X165318761Y-107919000D01*
X164959688Y-107990424D01*
X164552499Y-108262499D01*
X164280424Y-108669688D01*
X164184884Y-109150000D01*
X164273928Y-109597652D01*
X163881166Y-109990414D01*
X163838754Y-110018753D01*
X163810415Y-110061165D01*
X163810412Y-110061168D01*
X163726475Y-110186789D01*
X163687049Y-110385000D01*
X163697001Y-110435033D01*
X163697001Y-110742029D01*
X163380312Y-110530424D01*
X163021239Y-110459000D01*
X162778761Y-110459000D01*
X162419688Y-110530424D01*
X162046000Y-110780114D01*
X162046000Y-110722420D01*
X162452348Y-110316072D01*
X162778761Y-110381000D01*
X163021239Y-110381000D01*
X163380312Y-110309576D01*
X163787501Y-110037501D01*
X164059576Y-109630312D01*
X164155116Y-109150000D01*
X164059576Y-108669688D01*
X163787501Y-108262499D01*
X163380312Y-107990424D01*
X163021239Y-107919000D01*
X162778761Y-107919000D01*
X162419688Y-107990424D01*
X162012499Y-108262499D01*
X161740424Y-108669688D01*
X161644884Y-109150000D01*
X161733928Y-109597652D01*
X161214166Y-110117414D01*
X161171754Y-110145753D01*
X161143415Y-110188165D01*
X161143412Y-110188168D01*
X161059475Y-110313789D01*
X161020049Y-110512000D01*
X161030001Y-110562033D01*
X161030001Y-110744569D01*
X160890501Y-110635732D01*
X160730358Y-110569416D01*
X160550500Y-110609007D01*
X160550500Y-111499500D01*
X160570500Y-111499500D01*
X160570500Y-111880500D01*
X160550500Y-111880500D01*
X160550500Y-112770993D01*
X160730358Y-112810584D01*
X160890501Y-112744268D01*
X161030001Y-112635431D01*
X161030000Y-115137580D01*
X159930580Y-116237000D01*
X159721501Y-116237000D01*
X159914100Y-116044401D01*
X160033000Y-115757351D01*
X160033000Y-115446649D01*
X159914100Y-115159599D01*
X159760000Y-115005499D01*
X159760000Y-114509028D01*
X159769951Y-114459000D01*
X159760000Y-114408972D01*
X159760000Y-114408968D01*
X159730525Y-114260788D01*
X159701656Y-114217583D01*
X159646588Y-114135167D01*
X159646586Y-114135165D01*
X159618247Y-114092753D01*
X159575835Y-114064414D01*
X158336689Y-112825269D01*
X158707501Y-112577501D01*
X158979576Y-112170312D01*
X159001446Y-112060360D01*
X159239399Y-112060360D01*
X159466430Y-112461003D01*
X159829499Y-112744268D01*
X159989642Y-112810584D01*
X160169500Y-112770993D01*
X160169500Y-111880500D01*
X159277808Y-111880500D01*
X159239399Y-112060360D01*
X159001446Y-112060360D01*
X159075116Y-111690000D01*
X159001447Y-111319640D01*
X159239399Y-111319640D01*
X159277808Y-111499500D01*
X160169500Y-111499500D01*
X160169500Y-110609007D01*
X159989642Y-110569416D01*
X159829499Y-110635732D01*
X159466430Y-110918997D01*
X159239399Y-111319640D01*
X159001447Y-111319640D01*
X158979576Y-111209688D01*
X158707501Y-110802499D01*
X158300312Y-110530424D01*
X157941239Y-110459000D01*
X157698761Y-110459000D01*
X157339688Y-110530424D01*
X156932499Y-110802499D01*
X156660424Y-111209688D01*
X156564884Y-111690000D01*
X156660424Y-112170312D01*
X156932499Y-112577501D01*
X157312000Y-112831076D01*
X157312000Y-112976972D01*
X157302049Y-113027000D01*
X157312000Y-113077028D01*
X157312000Y-113077031D01*
X157329960Y-113167319D01*
X157341475Y-113225211D01*
X157423827Y-113348459D01*
X157453753Y-113393247D01*
X157496168Y-113421588D01*
X158744001Y-114669422D01*
X158744001Y-115005498D01*
X158589900Y-115159599D01*
X158471000Y-115446649D01*
X158471000Y-115757351D01*
X158589900Y-116044401D01*
X158809599Y-116264100D01*
X158810290Y-116264386D01*
X158799788Y-116266475D01*
X158674167Y-116350412D01*
X158674165Y-116350414D01*
X158631753Y-116378753D01*
X158603414Y-116421165D01*
X156515166Y-118509414D01*
X156472754Y-118537753D01*
X156444415Y-118580165D01*
X156444412Y-118580168D01*
X156360475Y-118705789D01*
X156321049Y-118904000D01*
X156331001Y-118954033D01*
X156331000Y-119958499D01*
X156176900Y-120112599D01*
X156058000Y-120399649D01*
X148999000Y-120399649D01*
X148999000Y-118577501D01*
X149153100Y-118423401D01*
X149272000Y-118136351D01*
X149272000Y-117825649D01*
X149153100Y-117538599D01*
X148933401Y-117318900D01*
X148646351Y-117200000D01*
X148335649Y-117200000D01*
X148048599Y-117318900D01*
X147828900Y-117538599D01*
X147710000Y-117825649D01*
X147710000Y-118136351D01*
X147828900Y-118423401D01*
X147983001Y-118577502D01*
X147983000Y-126152579D01*
X146468580Y-127667000D01*
X145967032Y-127667000D01*
X145917000Y-127657048D01*
X145866968Y-127667000D01*
X136823032Y-127667000D01*
X136773000Y-127657048D01*
X136722968Y-127667000D01*
X127679032Y-127667000D01*
X127629000Y-127657048D01*
X127578968Y-127667000D01*
X118408032Y-127667000D01*
X118358000Y-127657048D01*
X118307968Y-127667000D01*
X112058028Y-127667000D01*
X112008000Y-127657049D01*
X111957972Y-127667000D01*
X111957968Y-127667000D01*
X111809788Y-127696475D01*
X111684167Y-127780412D01*
X111684165Y-127780414D01*
X111641753Y-127808753D01*
X111613414Y-127851165D01*
X110019580Y-129445000D01*
X109810501Y-129445000D01*
X109656401Y-129290900D01*
X109369351Y-129172000D01*
X109058649Y-129172000D01*
X108771599Y-129290900D01*
X108551900Y-129510599D01*
X108433000Y-129797649D01*
X108231476Y-129797649D01*
X108231476Y-114049649D01*
X137389000Y-114049649D01*
X137389000Y-114360351D01*
X137507900Y-114647401D01*
X137662001Y-114801502D01*
X137662000Y-119869972D01*
X137652049Y-119920000D01*
X137662000Y-119970028D01*
X137662000Y-119970031D01*
X137691475Y-120118211D01*
X137803753Y-120286247D01*
X137846168Y-120314588D01*
X138532000Y-121000421D01*
X138532000Y-121218351D01*
X138650900Y-121505401D01*
X138870599Y-121725100D01*
X139157649Y-121844000D01*
X139468351Y-121844000D01*
X139755401Y-121725100D01*
X139975100Y-121505401D01*
X140094000Y-121218351D01*
X140094000Y-120907649D01*
X139975100Y-120620599D01*
X139755401Y-120400900D01*
X139468351Y-120282000D01*
X139250421Y-120282000D01*
X138678000Y-119709580D01*
X138678000Y-114801501D01*
X138832100Y-114647401D01*
X138951000Y-114360351D01*
X138951000Y-114049649D01*
X138832100Y-113762599D01*
X138612401Y-113542900D01*
X138325351Y-113424000D01*
X138014649Y-113424000D01*
X137727599Y-113542900D01*
X137507900Y-113762599D01*
X137389000Y-114049649D01*
X108231476Y-114049649D01*
X108231476Y-109839754D01*
X108292675Y-109472073D01*
X108450536Y-109179504D01*
X108694654Y-108953844D01*
X109007556Y-108815510D01*
X109280736Y-108781000D01*
X116972729Y-108781000D01*
X116972729Y-110051000D01*
X116982396Y-110099601D01*
X117009926Y-110140803D01*
X117051128Y-110168333D01*
X117099729Y-110178000D01*
X118741104Y-110178000D01*
X118742554Y-110179136D01*
X118757204Y-110191747D01*
X118761651Y-110194260D01*
X118764701Y-110197658D01*
X118779880Y-110209029D01*
X118794562Y-110221061D01*
X118798475Y-110223149D01*
X118801695Y-110226574D01*
X118817294Y-110237708D01*
X118831590Y-110248912D01*
X118835656Y-110250969D01*
X118838986Y-110254355D01*
X118854205Y-110264708D01*
X118869229Y-110275963D01*
X118873228Y-110277878D01*
X118875975Y-110280560D01*
X118891349Y-110290569D01*
X118907811Y-110302319D01*
X118911752Y-110304096D01*
X118915322Y-110307411D01*
X118932822Y-110318189D01*
X118946725Y-110327647D01*
X118950528Y-110329259D01*
X118953784Y-110332156D01*
X118968477Y-110340779D01*
X118985177Y-110351651D01*
X118990133Y-110353635D01*
X118994251Y-110357116D01*
X119011742Y-110366795D01*
X119026195Y-110375697D01*
X119030316Y-110377228D01*
X119033769Y-110380022D01*
X119048843Y-110387946D01*
X119065997Y-110398013D01*
X119070558Y-110399597D01*
X119073739Y-110402060D01*
X119091119Y-110410722D01*
X119108050Y-110420092D01*
X119111677Y-110421250D01*
X119115220Y-110423858D01*
X119133129Y-110432249D01*
X119148835Y-110440505D01*
X119153070Y-110441758D01*
X119157186Y-110444636D01*
X119173833Y-110451948D01*
X119190036Y-110460024D01*
X119195160Y-110461420D01*
X119199619Y-110464379D01*
X119216421Y-110471276D01*
X119232816Y-110478958D01*
X119237495Y-110480112D01*
X119240907Y-110482276D01*
X119257319Y-110488619D01*
X119276032Y-110496839D01*
X119280328Y-110497789D01*
X119284121Y-110500066D01*
X119303408Y-110506983D01*
X119319668Y-110513658D01*
X119323340Y-110514376D01*
X119326953Y-110516436D01*
X119343932Y-110522096D01*
X119361881Y-110529033D01*
X119366594Y-110529854D01*
X119370832Y-110532134D01*
X119389329Y-110537800D01*
X119406204Y-110543852D01*
X119410588Y-110544506D01*
X119414741Y-110546615D01*
X119432122Y-110551492D01*
X119449837Y-110557397D01*
X119454603Y-110557998D01*
X119458639Y-110559932D01*
X119476565Y-110564520D01*
X119494723Y-110570082D01*
X119499071Y-110570522D01*
X119503083Y-110572329D01*
X119521656Y-110576615D01*
X119539464Y-110581612D01*
X119543723Y-110581941D01*
X119547806Y-110583665D01*
X119565993Y-110587409D01*
X119584026Y-110592025D01*
X119588430Y-110592264D01*
X119592307Y-110593798D01*
X119610452Y-110597107D01*
X119629203Y-110601434D01*
X119633419Y-110601562D01*
X119637389Y-110603025D01*
X119656481Y-110606040D01*
X119674605Y-110609771D01*
X119678994Y-110609800D01*
X119683861Y-110611450D01*
X119702565Y-110613904D01*
X119719516Y-110616995D01*
X119724499Y-110616915D01*
X119729160Y-110618375D01*
X119746237Y-110620212D01*
X119765175Y-110623202D01*
X119770254Y-110623000D01*
X119774489Y-110624220D01*
X119793247Y-110625801D01*
X119812101Y-110628275D01*
X119816104Y-110628011D01*
X119819991Y-110629033D01*
X119839021Y-110630191D01*
X119857762Y-110632207D01*
X119862085Y-110631820D01*
X119866936Y-110632962D01*
X119886091Y-110633628D01*
X119903299Y-110635079D01*
X119907975Y-110634552D01*
X119912554Y-110635518D01*
X119929825Y-110635718D01*
X119949061Y-110636889D01*
X119953955Y-110636221D01*
X119958207Y-110637016D01*
X119977160Y-110636796D01*
X119996124Y-110637456D01*
X120000000Y-110636824D01*
X120003876Y-110637456D01*
X120022840Y-110636796D01*
X120041793Y-110637016D01*
X120046045Y-110636221D01*
X120050939Y-110636889D01*
X120070175Y-110635718D01*
X120087445Y-110635518D01*
X120092024Y-110634552D01*
X120096701Y-110635079D01*
X120113909Y-110633628D01*
X120133064Y-110632962D01*
X120137915Y-110631820D01*
X120142237Y-110632207D01*
X120160977Y-110630191D01*
X120180009Y-110629033D01*
X120183896Y-110628011D01*
X120187898Y-110628275D01*
X120206751Y-110625802D01*
X120225511Y-110624220D01*
X120229746Y-110623000D01*
X120234824Y-110623202D01*
X120253763Y-110620212D01*
X120270839Y-110618375D01*
X120275500Y-110616915D01*
X120280484Y-110616995D01*
X120297435Y-110613904D01*
X120316139Y-110611450D01*
X120321006Y-110609800D01*
X120325395Y-110609771D01*
X120343519Y-110606040D01*
X120362611Y-110603025D01*
X120366581Y-110601562D01*
X120370797Y-110601434D01*
X120389547Y-110597107D01*
X120407693Y-110593798D01*
X120411570Y-110592264D01*
X120415974Y-110592025D01*
X120434007Y-110587409D01*
X120452194Y-110583665D01*
X120456278Y-110581941D01*
X120460536Y-110581612D01*
X120478348Y-110576614D01*
X120496916Y-110572329D01*
X120500928Y-110570522D01*
X120505277Y-110570082D01*
X120523435Y-110564520D01*
X120541361Y-110559932D01*
X120545397Y-110557998D01*
X120550163Y-110557397D01*
X120567878Y-110551492D01*
X120585259Y-110546615D01*
X120589412Y-110544506D01*
X120593796Y-110543852D01*
X120610671Y-110537800D01*
X120629168Y-110532134D01*
X120633406Y-110529854D01*
X120638119Y-110529033D01*
X120656068Y-110522096D01*
X120673047Y-110516436D01*
X120676660Y-110514376D01*
X120680332Y-110513658D01*
X120696592Y-110506983D01*
X120715879Y-110500066D01*
X120719672Y-110497788D01*
X120723968Y-110496839D01*
X120742681Y-110488619D01*
X120759093Y-110482276D01*
X120762505Y-110480112D01*
X120767184Y-110478958D01*
X120783579Y-110471276D01*
X120800381Y-110464379D01*
X120804840Y-110461420D01*
X120809964Y-110460024D01*
X120826167Y-110451948D01*
X120842814Y-110444636D01*
X120846930Y-110441758D01*
X120851166Y-110440505D01*
X120866880Y-110432245D01*
X120884780Y-110423858D01*
X120888323Y-110421250D01*
X120891950Y-110420092D01*
X120908881Y-110410722D01*
X120926261Y-110402060D01*
X120929445Y-110399596D01*
X120934003Y-110398012D01*
X120951136Y-110387957D01*
X120966232Y-110380022D01*
X120969686Y-110377227D01*
X120973805Y-110375697D01*
X120988258Y-110366795D01*
X121005749Y-110357116D01*
X121009867Y-110353635D01*
X121014823Y-110351651D01*
X121031517Y-110340783D01*
X121046217Y-110332156D01*
X121049475Y-110329258D01*
X121053276Y-110327646D01*
X121067174Y-110318192D01*
X121084678Y-110307411D01*
X121088248Y-110304096D01*
X121092189Y-110302319D01*
X121108651Y-110290569D01*
X121124025Y-110280560D01*
X121126772Y-110277878D01*
X121130771Y-110275963D01*
X121145796Y-110264708D01*
X121161014Y-110254355D01*
X121164344Y-110250969D01*
X121168410Y-110248912D01*
X121182706Y-110237708D01*
X121198305Y-110226574D01*
X121201525Y-110223149D01*
X121205438Y-110221061D01*
X121220120Y-110209029D01*
X121235299Y-110197658D01*
X121238349Y-110194260D01*
X121242796Y-110191747D01*
X121257446Y-110179136D01*
X121258896Y-110178000D01*
X122941729Y-110178000D01*
X122990330Y-110168333D01*
X123031532Y-110140803D01*
X123059062Y-110099601D01*
X123068729Y-110051000D01*
X123068729Y-109150000D01*
X156564884Y-109150000D01*
X156660424Y-109630312D01*
X156932499Y-110037501D01*
X157339688Y-110309576D01*
X157698761Y-110381000D01*
X157941239Y-110381000D01*
X158300312Y-110309576D01*
X158707501Y-110037501D01*
X158979576Y-109630312D01*
X159001446Y-109520360D01*
X159239399Y-109520360D01*
X159466430Y-109921003D01*
X159829499Y-110204268D01*
X159989642Y-110270584D01*
X160169500Y-110230993D01*
X160169500Y-109340500D01*
X160550500Y-109340500D01*
X160550500Y-110230993D01*
X160730358Y-110270584D01*
X160890501Y-110204268D01*
X161253570Y-109921003D01*
X161480601Y-109520360D01*
X161442192Y-109340500D01*
X160550500Y-109340500D01*
X160169500Y-109340500D01*
X159277808Y-109340500D01*
X159239399Y-109520360D01*
X159001446Y-109520360D01*
X159075116Y-109150000D01*
X159001447Y-108779640D01*
X159239399Y-108779640D01*
X159277808Y-108959500D01*
X160169500Y-108959500D01*
X160169500Y-108069007D01*
X160550500Y-108069007D01*
X160550500Y-108959500D01*
X161442192Y-108959500D01*
X161480601Y-108779640D01*
X161253570Y-108378997D01*
X160890501Y-108095732D01*
X160730358Y-108029416D01*
X160550500Y-108069007D01*
X160169500Y-108069007D01*
X159989642Y-108029416D01*
X159829499Y-108095732D01*
X159466430Y-108378997D01*
X159239399Y-108779640D01*
X159001447Y-108779640D01*
X158979576Y-108669688D01*
X158707501Y-108262499D01*
X158300312Y-107990424D01*
X157941239Y-107919000D01*
X157698761Y-107919000D01*
X157339688Y-107990424D01*
X156932499Y-108262499D01*
X156660424Y-108669688D01*
X156564884Y-109150000D01*
X123068729Y-109150000D01*
X123068729Y-108781000D01*
X154847373Y-108781000D01*
X154877158Y-108775075D01*
X155233320Y-108730082D01*
X155260599Y-108721924D01*
X155288993Y-108719689D01*
X155367525Y-108692801D01*
X155818023Y-108493637D01*
X155849680Y-108472842D01*
X155884448Y-108457797D01*
X155950037Y-108406921D01*
X156311736Y-108072570D01*
X156334952Y-108042641D01*
X156362971Y-108017145D01*
X156408544Y-107947766D01*
X156642439Y-107514281D01*
X156654708Y-107478447D01*
X156672958Y-107445250D01*
X156693598Y-107364858D01*
X156693601Y-107364849D01*
X156693601Y-107364844D01*
X156773230Y-106886435D01*
X156781000Y-106847373D01*
X156781000Y-99531000D01*
X171952000Y-99531000D01*
X171952000Y-100616000D01*
X171952000Y-100616000D01*
G37*
X171952000Y-100616000D02*
X171961667Y-100664601D01*
X171989197Y-100705803D01*
X172030399Y-100733333D01*
X172079000Y-100743000D01*
X173460297Y-100743000D01*
X173460938Y-100744089D01*
X173471903Y-100756384D01*
X173484248Y-100771512D01*
X173488591Y-100775096D01*
X173489237Y-100775820D01*
X173489825Y-100776507D01*
X173492759Y-100781237D01*
X173506060Y-100795468D01*
X173516907Y-100808135D01*
X173520653Y-100811080D01*
X173521281Y-100811752D01*
X173522046Y-100812610D01*
X173524827Y-100816883D01*
X173536749Y-100829097D01*
X173549059Y-100842900D01*
X173553470Y-100846227D01*
X173554262Y-100847039D01*
X173555003Y-100847831D01*
X173558114Y-100852376D01*
X173571342Y-100865311D01*
X173583066Y-100877855D01*
X173587218Y-100880837D01*
X173588001Y-100881602D01*
X173588514Y-100882128D01*
X173591434Y-100886207D01*
X173603938Y-100897930D01*
X173617168Y-100911483D01*
X173621740Y-100914618D01*
X173622304Y-100915147D01*
X173623164Y-100915989D01*
X173626738Y-100920725D01*
X173641101Y-100933528D01*
X173652544Y-100944719D01*
X173656678Y-100947415D01*
X173657597Y-100948235D01*
X173658307Y-100948900D01*
X173661351Y-100952764D01*
X173673555Y-100963195D01*
X173687755Y-100976507D01*
X173692819Y-100979659D01*
X173693544Y-100980279D01*
X173693759Y-100980470D01*
X173697245Y-100984695D01*
X173712069Y-100996793D01*
X173725170Y-101008472D01*
X173729501Y-101011019D01*
X173729721Y-101011199D01*
X173730226Y-101011631D01*
X173733753Y-101015713D01*
X173747883Y-101026722D01*
X173761572Y-101038422D01*
X173766303Y-101041074D01*
X173766827Y-101041482D01*
X173767219Y-101041802D01*
X173770823Y-101045789D01*
X173785265Y-101056530D01*
X173799321Y-101068001D01*
X173804106Y-101070542D01*
X173804515Y-101070846D01*
X173805259Y-101071426D01*
X173809266Y-101075646D01*
X173824354Y-101086303D01*
X173837626Y-101096644D01*
X173842362Y-101099023D01*
X173843161Y-101099588D01*
X173844256Y-101100402D01*
X173848300Y-101104458D01*
X173862593Y-101114040D01*
X173876430Y-101124330D01*
X173881616Y-101126791D01*
X173882708Y-101127524D01*
X173886152Y-101130844D01*
X173900011Y-101139743D01*
X173916667Y-101151508D01*
X173922079Y-101153916D01*
X173922436Y-101154155D01*
X173927131Y-101158448D01*
X173944754Y-101169116D01*
X173957431Y-101177614D01*
X173961783Y-101179424D01*
X173962220Y-101179689D01*
X173962958Y-101180163D01*
X173966821Y-101183544D01*
X173980454Y-101191397D01*
X173996712Y-101201837D01*
X174002580Y-101204143D01*
X174003352Y-101204588D01*
X174003462Y-101204654D01*
X174007907Y-101208361D01*
X174024630Y-101217468D01*
X174039406Y-101226413D01*
X174044341Y-101228203D01*
X174044444Y-101228259D01*
X174045006Y-101228583D01*
X174049466Y-101232125D01*
X174065162Y-101240194D01*
X174080513Y-101249037D01*
X174085928Y-101250869D01*
X174086511Y-101251169D01*
X174086930Y-101251397D01*
X174091468Y-101254829D01*
X174107426Y-101262559D01*
X174123064Y-101271076D01*
X174128519Y-101272777D01*
X174128955Y-101272989D01*
X174129281Y-101273156D01*
X174133888Y-101276472D01*
X174150087Y-101283852D01*
X174166020Y-101292043D01*
X174171512Y-101293613D01*
X174171823Y-101293755D01*
X174172674Y-101294167D01*
X174177786Y-101297648D01*
X174194545Y-101304762D01*
X174209352Y-101311935D01*
X174214760Y-101313343D01*
X174215609Y-101313703D01*
X174215664Y-101313729D01*
X174219899Y-101316485D01*
X174234797Y-101322445D01*
X174253031Y-101330753D01*
X174259174Y-101332199D01*
X174259226Y-101332220D01*
X174264572Y-101335505D01*
X174283355Y-101342462D01*
X174298216Y-101348770D01*
X174303165Y-101349800D01*
X174303678Y-101350005D01*
X174308469Y-101352798D01*
X174324141Y-101358192D01*
X174341357Y-101365080D01*
X174347457Y-101366217D01*
X174347993Y-101366401D01*
X174348424Y-101366561D01*
X174353847Y-101369538D01*
X174371538Y-101375121D01*
X174387170Y-101380911D01*
X174392660Y-101381788D01*
X174393121Y-101381933D01*
X174393444Y-101382044D01*
X174398357Y-101384596D01*
X174414380Y-101389250D01*
X174432051Y-101395332D01*
X174438195Y-101396167D01*
X174438528Y-101396264D01*
X174438790Y-101396347D01*
X174444344Y-101399053D01*
X174462419Y-101403804D01*
X174478419Y-101408854D01*
X174483933Y-101409460D01*
X174484191Y-101409527D01*
X174484357Y-101409576D01*
X174489375Y-101411880D01*
X174505688Y-101415771D01*
X174523772Y-101421024D01*
X174529723Y-101421539D01*
X174534622Y-101423655D01*
X174552666Y-101427527D01*
X174570596Y-101432240D01*
X174576139Y-101432577D01*
X174576364Y-101432631D01*
X174582621Y-101435126D01*
X174601434Y-101438611D01*
X174616330Y-101442164D01*
X174621718Y-101442368D01*
X174622534Y-101442519D01*
X174623233Y-101442669D01*
X174628279Y-101444550D01*
X174643423Y-101447001D01*
X174662212Y-101451033D01*
X174668957Y-101451134D01*
X174669574Y-101451234D01*
X174675400Y-101453239D01*
X174694209Y-101455795D01*
X174710874Y-101458882D01*
X174716257Y-101458811D01*
X174721366Y-101460441D01*
X174738208Y-101462344D01*
X174757022Y-101465389D01*
X174763177Y-101465168D01*
X174763636Y-101465231D01*
X174770110Y-101467097D01*
X174789330Y-101468722D01*
X174804603Y-101470798D01*
X174809976Y-101470468D01*
X174810570Y-101470519D01*
X174811119Y-101470581D01*
X174816312Y-101471952D01*
X174831685Y-101472904D01*
X174850920Y-101475077D01*
X174857646Y-101474512D01*
X174857967Y-101474531D01*
X174863939Y-101475948D01*
X174883022Y-101476646D01*
X174899996Y-101478081D01*
X174905190Y-101477497D01*
X174910290Y-101478586D01*
X174927305Y-101478825D01*
X174946406Y-101480008D01*
X174952489Y-101479185D01*
X174952753Y-101479194D01*
X174959390Y-101480418D01*
X174978772Y-101480146D01*
X174994187Y-101480709D01*
X174999489Y-101479854D01*
X175000000Y-101479847D01*
X175000511Y-101479854D01*
X175005813Y-101480709D01*
X175021228Y-101480146D01*
X175040610Y-101480418D01*
X175047247Y-101479194D01*
X175047511Y-101479185D01*
X175053594Y-101480008D01*
X175072695Y-101478825D01*
X175089710Y-101478586D01*
X175094810Y-101477497D01*
X175100004Y-101478081D01*
X175116979Y-101476646D01*
X175136061Y-101475948D01*
X175142033Y-101474531D01*
X175142352Y-101474512D01*
X175149078Y-101475077D01*
X175168311Y-101472904D01*
X175183688Y-101471952D01*
X175188883Y-101470580D01*
X175189422Y-101470519D01*
X175190024Y-101470468D01*
X175195397Y-101470798D01*
X175210668Y-101468723D01*
X175229891Y-101467097D01*
X175236366Y-101465230D01*
X175236823Y-101465168D01*
X175242977Y-101465389D01*
X175261791Y-101462344D01*
X175278633Y-101460441D01*
X175283742Y-101458811D01*
X175289127Y-101458882D01*
X175305794Y-101455795D01*
X175324600Y-101453239D01*
X175330427Y-101451234D01*
X175331042Y-101451134D01*
X175337789Y-101451033D01*
X175356584Y-101447000D01*
X175371720Y-101444550D01*
X175376764Y-101442670D01*
X175377469Y-101442519D01*
X175378282Y-101442368D01*
X175383670Y-101442164D01*
X175398566Y-101438611D01*
X175417379Y-101435126D01*
X175423636Y-101432631D01*
X175423861Y-101432577D01*
X175429404Y-101432240D01*
X175447334Y-101427527D01*
X175465378Y-101423655D01*
X175470280Y-101421538D01*
X175476228Y-101421023D01*
X175494296Y-101415775D01*
X175510625Y-101411880D01*
X175515647Y-101409574D01*
X175515784Y-101409534D01*
X175516067Y-101409460D01*
X175521581Y-101408854D01*
X175537581Y-101403804D01*
X175555656Y-101399053D01*
X175561210Y-101396347D01*
X175561485Y-101396260D01*
X175561803Y-101396168D01*
X175567949Y-101395332D01*
X175585623Y-101389249D01*
X175601643Y-101384596D01*
X175606556Y-101382044D01*
X175606879Y-101381933D01*
X175607341Y-101381787D01*
X175612829Y-101380911D01*
X175628459Y-101375122D01*
X175646153Y-101369538D01*
X175651575Y-101366561D01*
X175652009Y-101366401D01*
X175652543Y-101366217D01*
X175658643Y-101365080D01*
X175675859Y-101358192D01*
X175691531Y-101352798D01*
X175696322Y-101350005D01*
X175696834Y-101349800D01*
X175701785Y-101348770D01*
X175716637Y-101342465D01*
X175735428Y-101335506D01*
X175740779Y-101332218D01*
X175740826Y-101332199D01*
X175746969Y-101330753D01*
X175765203Y-101322445D01*
X175780101Y-101316485D01*
X175784336Y-101313729D01*
X175784387Y-101313705D01*
X175785241Y-101313343D01*
X175790648Y-101311935D01*
X175805453Y-101304763D01*
X175822214Y-101297648D01*
X175827327Y-101294167D01*
X175828171Y-101293758D01*
X175828494Y-101293611D01*
X175833980Y-101292042D01*
X175849899Y-101283858D01*
X175866112Y-101276472D01*
X175870721Y-101273155D01*
X175871039Y-101272991D01*
X175871479Y-101272778D01*
X175876936Y-101271076D01*
X175892581Y-101262556D01*
X175908531Y-101254829D01*
X175913067Y-101251399D01*
X175913488Y-101251169D01*
X175914073Y-101250869D01*
X175919487Y-101249037D01*
X175934833Y-101240197D01*
X175950535Y-101232125D01*
X175954997Y-101228581D01*
X175955556Y-101228259D01*
X175955659Y-101228203D01*
X175960594Y-101226413D01*
X175975370Y-101217468D01*
X175992093Y-101208361D01*
X175996538Y-101204654D01*
X175996648Y-101204588D01*
X175997418Y-101204144D01*
X176003289Y-101201837D01*
X176019554Y-101191393D01*
X176033179Y-101183544D01*
X176037040Y-101180164D01*
X176037792Y-101179681D01*
X176038217Y-101179424D01*
X176042569Y-101177614D01*
X176055246Y-101169116D01*
X176072869Y-101158448D01*
X176077564Y-101154155D01*
X176077923Y-101153915D01*
X176083332Y-101151508D01*
X176099978Y-101139750D01*
X176113848Y-101130844D01*
X176117292Y-101127524D01*
X176118384Y-101126791D01*
X176123570Y-101124330D01*
X176137407Y-101114040D01*
X176151700Y-101104458D01*
X176155744Y-101100402D01*
X176156845Y-101099583D01*
X176157634Y-101099025D01*
X176162373Y-101096645D01*
X176175650Y-101086300D01*
X176190734Y-101075646D01*
X176194740Y-101071427D01*
X176195489Y-101070843D01*
X176195894Y-101070542D01*
X176200679Y-101068001D01*
X176214735Y-101056530D01*
X176229177Y-101045789D01*
X176232781Y-101041802D01*
X176233171Y-101041484D01*
X176233698Y-101041073D01*
X176238428Y-101038422D01*
X176252114Y-101026724D01*
X176266247Y-101015713D01*
X176269775Y-101011630D01*
X176270271Y-101011206D01*
X176270499Y-101011019D01*
X176274830Y-101008472D01*
X176287931Y-100996793D01*
X176302755Y-100984695D01*
X176306241Y-100980470D01*
X176306474Y-100980263D01*
X176307178Y-100979661D01*
X176312245Y-100976507D01*
X176326454Y-100963186D01*
X176338649Y-100952763D01*
X176341691Y-100948901D01*
X176342396Y-100948241D01*
X176343322Y-100947415D01*
X176347456Y-100944719D01*
X176358899Y-100933528D01*
X176373262Y-100920725D01*
X176376836Y-100915989D01*
X176377713Y-100915130D01*
X176378257Y-100914620D01*
X176382832Y-100911483D01*
X176396072Y-100897919D01*
X176408566Y-100886206D01*
X176411483Y-100882131D01*
X176411999Y-100881603D01*
X176412782Y-100880837D01*
X176416934Y-100877855D01*
X176428658Y-100865312D01*
X176441885Y-100852377D01*
X176444996Y-100847832D01*
X176445738Y-100847039D01*
X176446530Y-100846227D01*
X176450941Y-100842900D01*
X176463251Y-100829097D01*
X176475173Y-100816883D01*
X176477954Y-100812610D01*
X176478719Y-100811752D01*
X176479347Y-100811080D01*
X176483093Y-100808135D01*
X176493941Y-100795466D01*
X176507241Y-100781237D01*
X176510175Y-100776509D01*
X176510772Y-100775811D01*
X176511410Y-100775096D01*
X176515752Y-100771512D01*
X176528096Y-100756385D01*
X176539062Y-100744089D01*
X176539703Y-100743000D01*
X177921000Y-100743000D01*
X177969601Y-100733333D01*
X178010803Y-100705803D01*
X178038333Y-100664601D01*
X178048000Y-100616000D01*
X178048000Y-99531000D01*
X178710246Y-99531000D01*
X179077927Y-99592199D01*
X179370496Y-99750060D01*
X179596156Y-99994178D01*
X179734490Y-100307080D01*
X179769001Y-100580268D01*
X179769000Y-122711992D01*
X179752473Y-122708020D01*
X179640500Y-122754889D01*
X179640500Y-123709500D01*
X179660500Y-123709500D01*
X179660500Y-124090500D01*
X179640500Y-124090500D01*
X179640500Y-125045111D01*
X179752473Y-125091980D01*
X179769000Y-125088008D01*
X179769000Y-125811992D01*
X179752473Y-125808020D01*
X179640500Y-125854889D01*
X179640500Y-126909500D01*
X179660500Y-126909500D01*
X179660500Y-127290500D01*
X179640500Y-127290500D01*
X179640500Y-127310500D01*
X179259500Y-127310500D01*
X179259500Y-127290500D01*
X178694800Y-127290500D01*
X178694800Y-127890500D01*
X178755837Y-128019000D01*
X173085150Y-128019000D01*
X173114000Y-127949351D01*
X173114000Y-127638649D01*
X172995100Y-127351599D01*
X172866001Y-127222500D01*
X172995100Y-127093401D01*
X173114000Y-126806351D01*
X173114000Y-126495649D01*
X172995100Y-126208599D01*
X172841000Y-126054499D01*
X172841000Y-123272028D01*
X172850951Y-123222000D01*
X172841000Y-123171972D01*
X172841000Y-123171968D01*
X172811525Y-123023788D01*
X172764391Y-122953247D01*
X172727588Y-122898167D01*
X172727586Y-122898165D01*
X172699247Y-122855753D01*
X172656835Y-122827414D01*
X171767832Y-121938412D01*
X171457587Y-121628167D01*
X171429247Y-121585753D01*
X171261212Y-121473475D01*
X171113032Y-121444000D01*
X171113028Y-121444000D01*
X171063000Y-121434049D01*
X171012972Y-121444000D01*
X168352421Y-121444000D01*
X164986000Y-118077580D01*
X164986000Y-117859649D01*
X164867100Y-117572599D01*
X164647401Y-117352900D01*
X164360351Y-117234000D01*
X164049649Y-117234000D01*
X163762599Y-117352900D01*
X163542900Y-117572599D01*
X163424000Y-117859649D01*
X163424000Y-118170351D01*
X163542900Y-118457401D01*
X163762599Y-118677100D01*
X164049649Y-118796000D01*
X164267580Y-118796000D01*
X164579669Y-119108089D01*
X164524599Y-119130900D01*
X164304900Y-119350599D01*
X164186000Y-119637649D01*
X164186000Y-119948351D01*
X164304900Y-120235401D01*
X164524599Y-120455100D01*
X164811649Y-120574000D01*
X165029580Y-120574000D01*
X167172333Y-122716753D01*
X167200674Y-122759168D01*
X167368709Y-122871446D01*
X167516889Y-122900921D01*
X167516893Y-122900921D01*
X167566921Y-122910872D01*
X167616949Y-122900921D01*
X169962911Y-122900921D01*
X169925187Y-122934998D01*
X169794800Y-123209500D01*
X169794800Y-123709500D01*
X170359500Y-123709500D01*
X170359500Y-123689500D01*
X170740500Y-123689500D01*
X170740500Y-123709500D01*
X170760500Y-123709500D01*
X170760500Y-124090500D01*
X170740500Y-124090500D01*
X170740500Y-125045111D01*
X170852473Y-125091980D01*
X170949303Y-125068711D01*
X171063000Y-124966005D01*
X171063001Y-125933995D01*
X170949303Y-125831289D01*
X170852473Y-125808020D01*
X170740500Y-125854889D01*
X170740500Y-126909500D01*
X170760500Y-126909500D01*
X170760500Y-127290500D01*
X170740500Y-127290500D01*
X170740500Y-127310500D01*
X170359500Y-127310500D01*
X170359500Y-127290500D01*
X170339500Y-127290500D01*
X170339500Y-126909500D01*
X170359500Y-126909500D01*
X170359500Y-125854889D01*
X170247527Y-125808020D01*
X170231000Y-125811992D01*
X170231000Y-125741967D01*
X170225075Y-125712182D01*
X170180082Y-125356020D01*
X170171924Y-125328741D01*
X170169689Y-125300347D01*
X170142801Y-125221815D01*
X170024861Y-124955040D01*
X170150697Y-125068711D01*
X170247527Y-125091980D01*
X170359500Y-125045111D01*
X170359500Y-124090500D01*
X169794800Y-124090500D01*
X169794800Y-124572101D01*
X169522571Y-124277604D01*
X169492639Y-124254386D01*
X169467145Y-124226369D01*
X169397767Y-124180796D01*
X168964281Y-123946901D01*
X168928446Y-123934632D01*
X168895249Y-123916382D01*
X168814850Y-123895739D01*
X168336434Y-123816110D01*
X168297373Y-123808340D01*
X151702151Y-123808340D01*
X151672366Y-123814265D01*
X151316204Y-123859258D01*
X151288925Y-123867416D01*
X151260531Y-123869651D01*
X151181999Y-123896539D01*
X150731500Y-124095703D01*
X150699843Y-124116498D01*
X150665076Y-124131543D01*
X150599488Y-124182419D01*
X150237788Y-124516769D01*
X150214570Y-124546701D01*
X150186553Y-124572195D01*
X150140980Y-124641573D01*
X149907085Y-125075059D01*
X149894816Y-125110894D01*
X149876566Y-125144091D01*
X149855923Y-125224490D01*
X149776289Y-125702936D01*
X149768525Y-125741967D01*
X149768524Y-131802625D01*
X149758372Y-131853664D01*
X149756295Y-131856771D01*
X149753188Y-131858848D01*
X149702149Y-131869000D01*
X145032654Y-131869000D01*
X144981615Y-131858848D01*
X144978508Y-131856771D01*
X144976431Y-131853664D01*
X144966279Y-131802625D01*
X144966279Y-130552627D01*
X144949766Y-130469608D01*
X144899947Y-130219149D01*
X144828126Y-130045758D01*
X144828125Y-130045757D01*
X144665545Y-129802440D01*
X144532837Y-129669732D01*
X144532834Y-129669731D01*
X144289522Y-129507154D01*
X144289521Y-129507153D01*
X144187952Y-129465082D01*
X144116131Y-129435332D01*
X144116130Y-129435332D01*
X143829117Y-129378242D01*
X143829115Y-129378242D01*
X143782652Y-129369000D01*
X141906389Y-129369000D01*
X141859926Y-129378242D01*
X141859924Y-129378242D01*
X141572911Y-129435332D01*
X141399520Y-129507153D01*
X141399519Y-129507154D01*
X141156202Y-129669734D01*
X141023494Y-129802442D01*
X141023493Y-129802445D01*
X140860916Y-130045757D01*
X140860915Y-130045758D01*
X140834988Y-130108351D01*
X140789095Y-130219147D01*
X140789094Y-130219149D01*
X140732004Y-130506162D01*
X140732004Y-130506169D01*
X140722763Y-130552627D01*
X140722762Y-131802625D01*
X140712610Y-131853664D01*
X140710533Y-131856771D01*
X140707426Y-131858848D01*
X140656387Y-131869000D01*
X135676674Y-131869000D01*
X135625635Y-131858848D01*
X135622528Y-131856771D01*
X135620451Y-131853664D01*
X135610299Y-131802625D01*
X135610299Y-130552627D01*
X135593786Y-130469608D01*
X135543967Y-130219149D01*
X135472146Y-130045758D01*
X135472145Y-130045757D01*
X135309565Y-129802440D01*
X135176857Y-129669732D01*
X135176854Y-129669731D01*
X134933542Y-129507154D01*
X134933541Y-129507153D01*
X134831972Y-129465082D01*
X134760151Y-129435332D01*
X134760150Y-129435332D01*
X134473137Y-129378242D01*
X134473135Y-129378242D01*
X134426672Y-129369000D01*
X132679012Y-129369000D01*
X132632549Y-129378242D01*
X132632547Y-129378242D01*
X132345534Y-129435332D01*
X132172143Y-129507153D01*
X132172142Y-129507154D01*
X131928825Y-129669734D01*
X131796117Y-129802442D01*
X131796116Y-129802445D01*
X131633539Y-130045757D01*
X131633538Y-130045758D01*
X131607611Y-130108351D01*
X131561718Y-130219147D01*
X131561717Y-130219149D01*
X131504627Y-130506162D01*
X131504627Y-130506169D01*
X131495386Y-130552627D01*
X131495385Y-131802625D01*
X131485233Y-131853664D01*
X131483156Y-131856771D01*
X131480049Y-131858848D01*
X131429010Y-131869000D01*
X126570990Y-131869000D01*
X126519951Y-131858848D01*
X126516844Y-131856771D01*
X126514767Y-131853664D01*
X126504615Y-131802625D01*
X126504615Y-130552627D01*
X126488102Y-130469608D01*
X126438283Y-130219149D01*
X126366462Y-130045758D01*
X126366461Y-130045757D01*
X126203881Y-129802440D01*
X126071173Y-129669732D01*
X126071170Y-129669731D01*
X125827858Y-129507154D01*
X125827857Y-129507153D01*
X125726288Y-129465082D01*
X125654467Y-129435332D01*
X125654466Y-129435332D01*
X125367453Y-129378242D01*
X125367451Y-129378242D01*
X125320988Y-129369000D01*
X123573328Y-129369000D01*
X123526865Y-129378242D01*
X123526863Y-129378242D01*
X123239850Y-129435332D01*
X123066459Y-129507153D01*
X123066458Y-129507154D01*
X122823141Y-129669734D01*
X122690433Y-129802442D01*
X122690432Y-129802445D01*
X122527855Y-130045757D01*
X122527854Y-130045758D01*
X122501927Y-130108351D01*
X122456034Y-130219147D01*
X122456033Y-130219149D01*
X122398943Y-130506162D01*
X122398943Y-130506169D01*
X122389702Y-130552627D01*
X122389701Y-131802625D01*
X122379549Y-131853664D01*
X122377472Y-131856771D01*
X122374365Y-131858848D01*
X122323326Y-131869000D01*
X117343613Y-131869000D01*
X117292574Y-131858848D01*
X117289467Y-131856771D01*
X117287390Y-131853664D01*
X117277238Y-131802625D01*
X117277238Y-130552627D01*
X117260725Y-130469608D01*
X117210906Y-130219149D01*
X117139085Y-130045758D01*
X117139084Y-130045757D01*
X116976504Y-129802440D01*
X116843796Y-129669732D01*
X116843793Y-129669731D01*
X116600481Y-129507154D01*
X116600480Y-129507153D01*
X116498911Y-129465082D01*
X116427090Y-129435332D01*
X116427089Y-129435332D01*
X116140076Y-129378242D01*
X116140074Y-129378242D01*
X116093611Y-129369000D01*
X114217348Y-129369000D01*
X114170885Y-129378242D01*
X114170883Y-129378242D01*
X113883870Y-129435332D01*
X113710479Y-129507153D01*
X113710478Y-129507154D01*
X113467161Y-129669734D01*
X113334453Y-129802442D01*
X113334452Y-129802445D01*
X113171875Y-130045757D01*
X113171874Y-130045758D01*
X113145947Y-130108351D01*
X113100054Y-130219147D01*
X113100053Y-130219149D01*
X113042963Y-130506162D01*
X113042963Y-130506169D01*
X113033722Y-130552627D01*
X113033721Y-131802625D01*
X113023569Y-131853664D01*
X113021492Y-131856771D01*
X113018385Y-131858848D01*
X112967346Y-131869000D01*
X108297851Y-131869000D01*
X108246812Y-131858848D01*
X108243705Y-131856771D01*
X108241628Y-131853664D01*
X108231476Y-131802625D01*
X108231476Y-129797649D01*
X108433000Y-129797649D01*
X108433000Y-130108351D01*
X108551900Y-130395401D01*
X108771599Y-130615100D01*
X109058649Y-130734000D01*
X109369351Y-130734000D01*
X109656401Y-130615100D01*
X109810501Y-130461000D01*
X110179972Y-130461000D01*
X110230000Y-130470951D01*
X110280028Y-130461000D01*
X110280032Y-130461000D01*
X110428212Y-130431525D01*
X110596247Y-130319247D01*
X110624588Y-130276832D01*
X112218421Y-128683000D01*
X117850001Y-128683000D01*
X117850000Y-129356499D01*
X117695900Y-129510599D01*
X117577000Y-129797649D01*
X117577000Y-130108351D01*
X117695900Y-130395401D01*
X117915599Y-130615100D01*
X118202649Y-130734000D01*
X118513351Y-130734000D01*
X118800401Y-130615100D01*
X119020100Y-130395401D01*
X119139000Y-130108351D01*
X119139000Y-129797649D01*
X119020100Y-129510599D01*
X118866000Y-129356499D01*
X118866000Y-128683000D01*
X127121001Y-128683000D01*
X127121000Y-129356499D01*
X126966900Y-129510599D01*
X126848000Y-129797649D01*
X126848000Y-130108351D01*
X126966900Y-130395401D01*
X127186599Y-130615100D01*
X127473649Y-130734000D01*
X127784351Y-130734000D01*
X128071401Y-130615100D01*
X128291100Y-130395401D01*
X128410000Y-130108351D01*
X128410000Y-129797649D01*
X128291100Y-129510599D01*
X128137000Y-129356499D01*
X128137000Y-128683000D01*
X136265001Y-128683000D01*
X136265000Y-129356499D01*
X136110900Y-129510599D01*
X135992000Y-129797649D01*
X135992000Y-130108351D01*
X136110900Y-130395401D01*
X136330599Y-130615100D01*
X136617649Y-130734000D01*
X136928351Y-130734000D01*
X137215401Y-130615100D01*
X137435100Y-130395401D01*
X137554000Y-130108351D01*
X137554000Y-129797649D01*
X137435100Y-129510599D01*
X137281000Y-129356499D01*
X137281000Y-128683000D01*
X145409001Y-128683000D01*
X145409000Y-129356499D01*
X145254900Y-129510599D01*
X145136000Y-129797649D01*
X145136000Y-130108351D01*
X145254900Y-130395401D01*
X145474599Y-130615100D01*
X145761649Y-130734000D01*
X146072351Y-130734000D01*
X146359401Y-130615100D01*
X146579100Y-130395401D01*
X146698000Y-130108351D01*
X146698000Y-129797649D01*
X146579100Y-129510599D01*
X146425000Y-129356499D01*
X146425000Y-128683000D01*
X146628972Y-128683000D01*
X146679000Y-128692951D01*
X146729028Y-128683000D01*
X146729032Y-128683000D01*
X146877212Y-128653525D01*
X147045247Y-128541247D01*
X147073588Y-128498832D01*
X148814836Y-126757585D01*
X148857247Y-126729247D01*
X148885586Y-126686835D01*
X148885588Y-126686833D01*
X148969525Y-126561212D01*
X148982566Y-126495649D01*
X148999000Y-126413032D01*
X148999000Y-126413028D01*
X149008951Y-126363000D01*
X148999000Y-126312972D01*
X148999000Y-120399649D01*
X156058000Y-120399649D01*
X156058000Y-120710351D01*
X156176900Y-120997401D01*
X156396599Y-121217100D01*
X156683649Y-121336000D01*
X156994351Y-121336000D01*
X157220000Y-121242533D01*
X157220000Y-121990499D01*
X157065900Y-122144599D01*
X156947000Y-122431649D01*
X156947000Y-122742351D01*
X157065900Y-123029401D01*
X157285599Y-123249100D01*
X157572649Y-123368000D01*
X157883351Y-123368000D01*
X158170401Y-123249100D01*
X158390100Y-123029401D01*
X158509000Y-122742351D01*
X158509000Y-122431649D01*
X158390100Y-122144599D01*
X158236000Y-121990499D01*
X158236000Y-118987420D01*
X158446420Y-118777000D01*
X158511862Y-118777000D01*
X158471000Y-118875649D01*
X158471000Y-119186351D01*
X158589900Y-119473401D01*
X158809599Y-119693100D01*
X159096649Y-119812000D01*
X159407351Y-119812000D01*
X159694401Y-119693100D01*
X159848501Y-119539000D01*
X160852972Y-119539000D01*
X160903000Y-119548951D01*
X160953028Y-119539000D01*
X160953032Y-119539000D01*
X161101212Y-119509525D01*
X161269247Y-119397247D01*
X161297588Y-119354832D01*
X165763835Y-114888586D01*
X165806247Y-114860247D01*
X165834586Y-114817835D01*
X165834588Y-114817833D01*
X165918525Y-114692212D01*
X165927026Y-114649475D01*
X165948000Y-114544032D01*
X165948000Y-114544028D01*
X165957951Y-114494000D01*
X165948000Y-114443972D01*
X165948000Y-112831075D01*
X166237000Y-112637972D01*
X166237000Y-113011972D01*
X166227049Y-113062000D01*
X166237000Y-113112028D01*
X166237000Y-113112031D01*
X166261543Y-113235414D01*
X166266475Y-113260211D01*
X166346620Y-113380156D01*
X166378753Y-113428247D01*
X166421168Y-113456588D01*
X173603001Y-120638422D01*
X173603001Y-120847502D01*
X173448900Y-121001603D01*
X173330000Y-121288653D01*
X173330000Y-121599355D01*
X173448900Y-121886405D01*
X173668599Y-122106104D01*
X173955649Y-122225004D01*
X174173580Y-122225004D01*
X175254000Y-123305424D01*
X175254001Y-123603000D01*
X174443274Y-123603000D01*
X174414741Y-123600593D01*
X174401574Y-123602076D01*
X174394424Y-123600232D01*
X174374816Y-123603000D01*
X174371866Y-123603000D01*
X174364656Y-123604434D01*
X174301429Y-123613359D01*
X174258786Y-123618164D01*
X174251942Y-123620345D01*
X174244825Y-123621350D01*
X174232315Y-123625727D01*
X174224931Y-123625520D01*
X174170421Y-123646328D01*
X174114837Y-123664043D01*
X174109195Y-123668808D01*
X174096690Y-123673183D01*
X174090499Y-123676835D01*
X174083782Y-123679399D01*
X174072563Y-123686448D01*
X174065320Y-123687889D01*
X174016811Y-123720302D01*
X173966559Y-123749944D01*
X173962116Y-123755848D01*
X173950896Y-123762898D01*
X173945679Y-123767831D01*
X173939699Y-123771826D01*
X173930329Y-123781196D01*
X173923589Y-123784212D01*
X173883507Y-123826609D01*
X173841110Y-123866691D01*
X173838094Y-123873431D01*
X173828724Y-123882801D01*
X173824729Y-123888781D01*
X173819796Y-123893998D01*
X173812746Y-123905218D01*
X173806842Y-123909661D01*
X173777198Y-123959915D01*
X173744787Y-124008422D01*
X173743346Y-124015665D01*
X173736297Y-124026884D01*
X173733734Y-124033598D01*
X173730081Y-124039791D01*
X173725705Y-124052297D01*
X173720941Y-124057939D01*
X173703225Y-124113525D01*
X173682418Y-124168033D01*
X173682625Y-124175417D01*
X173678248Y-124187927D01*
X173677244Y-124195042D01*
X173675062Y-124201887D01*
X173673579Y-124215050D01*
X173670190Y-124221610D01*
X173665286Y-124279750D01*
X173657130Y-124337525D01*
X173658975Y-124344675D01*
X173657491Y-124357843D01*
X173658095Y-124365000D01*
X173657491Y-124372158D01*
X173658974Y-124385324D01*
X173657130Y-124392474D01*
X173665287Y-124450256D01*
X173670191Y-124508391D01*
X173673579Y-124514949D01*
X173675062Y-124528113D01*
X173677244Y-124534958D01*
X173678248Y-124542072D01*
X173682625Y-124554582D01*
X173682418Y-124561966D01*
X173703227Y-124616479D01*
X173720942Y-124672061D01*
X173725705Y-124677702D01*
X173730081Y-124690208D01*
X173733734Y-124696401D01*
X173736297Y-124703115D01*
X173743346Y-124714334D01*
X173744787Y-124721577D01*
X173777198Y-124770084D01*
X173806842Y-124820338D01*
X173812746Y-124824781D01*
X173819796Y-124836001D01*
X173824729Y-124841218D01*
X173828724Y-124847198D01*
X173838094Y-124856568D01*
X173841110Y-124863308D01*
X173883507Y-124903390D01*
X173923589Y-124945787D01*
X173930329Y-124948803D01*
X173939699Y-124958173D01*
X173945679Y-124962168D01*
X173950896Y-124967101D01*
X173962116Y-124974151D01*
X173966559Y-124980055D01*
X174016811Y-125009697D01*
X174065320Y-125042110D01*
X174072563Y-125043551D01*
X174083782Y-125050600D01*
X174090499Y-125053164D01*
X174096690Y-125056816D01*
X174109191Y-125061190D01*
X174114829Y-125065951D01*
X174170402Y-125083664D01*
X174224931Y-125104479D01*
X174232315Y-125104272D01*
X174244825Y-125108649D01*
X174251938Y-125109653D01*
X174258777Y-125111833D01*
X174301424Y-125116639D01*
X174364639Y-125125562D01*
X174371866Y-125127000D01*
X174374823Y-125127000D01*
X174394424Y-125129767D01*
X174401569Y-125127924D01*
X174414732Y-125129407D01*
X174443272Y-125127000D01*
X175254000Y-125127000D01*
X175254001Y-125673498D01*
X175099900Y-125827599D01*
X175000000Y-126068779D01*
X174900100Y-125827599D01*
X174680401Y-125607900D01*
X174393351Y-125489000D01*
X174082649Y-125489000D01*
X173795599Y-125607900D01*
X173575900Y-125827599D01*
X173457000Y-126114649D01*
X173457000Y-126425351D01*
X173575900Y-126712401D01*
X173795599Y-126932100D01*
X174082649Y-127051000D01*
X174300580Y-127051000D01*
X174620413Y-127370833D01*
X174648754Y-127413248D01*
X174816789Y-127525526D01*
X174964969Y-127555001D01*
X174964972Y-127555001D01*
X175015000Y-127564952D01*
X175065028Y-127555001D01*
X176084933Y-127555001D01*
X176134961Y-127564952D01*
X176184989Y-127555001D01*
X176184993Y-127555001D01*
X176333173Y-127525526D01*
X176501208Y-127413248D01*
X176529549Y-127370834D01*
X176862836Y-127037547D01*
X176905248Y-127009208D01*
X176933587Y-126966796D01*
X176933589Y-126966794D01*
X177017526Y-126841173D01*
X177018995Y-126833789D01*
X177047001Y-126692993D01*
X177047001Y-126692989D01*
X177056952Y-126642961D01*
X177047001Y-126592933D01*
X177047001Y-126309500D01*
X178694800Y-126309500D01*
X178694800Y-126909500D01*
X179259500Y-126909500D01*
X179259500Y-125854889D01*
X179147527Y-125808020D01*
X179050697Y-125831289D01*
X178825187Y-126034998D01*
X178694800Y-126309500D01*
X177047001Y-126309500D01*
X177047001Y-124090500D01*
X178694800Y-124090500D01*
X178694800Y-124590500D01*
X178825187Y-124865002D01*
X179050697Y-125068711D01*
X179147527Y-125091980D01*
X179259500Y-125045111D01*
X179259500Y-124090500D01*
X178694800Y-124090500D01*
X177047001Y-124090500D01*
X177047001Y-123209500D01*
X178694800Y-123209500D01*
X178694800Y-123709500D01*
X179259500Y-123709500D01*
X179259500Y-122754889D01*
X179147527Y-122708020D01*
X179050697Y-122731289D01*
X178825187Y-122934998D01*
X178694800Y-123209500D01*
X177047001Y-123209500D01*
X177047001Y-122144028D01*
X177056952Y-122094000D01*
X177047001Y-122043972D01*
X177047001Y-122043969D01*
X177017526Y-121895789D01*
X176982922Y-121844000D01*
X176933589Y-121770168D01*
X176933587Y-121770166D01*
X176905248Y-121727754D01*
X176862836Y-121699415D01*
X176670000Y-121506579D01*
X176670000Y-121288649D01*
X176551100Y-121001599D01*
X176331401Y-120781900D01*
X176044351Y-120663000D01*
X175826421Y-120663000D01*
X170204814Y-115041394D01*
X170805808Y-114440400D01*
X170827693Y-114421920D01*
X170835956Y-114411558D01*
X170842317Y-114407806D01*
X170854225Y-114391983D01*
X170856306Y-114389902D01*
X170860382Y-114383802D01*
X170898778Y-114332783D01*
X170925545Y-114299218D01*
X170928844Y-114292831D01*
X170933166Y-114287089D01*
X170938914Y-114275153D01*
X170944277Y-114270083D01*
X170968101Y-114216842D01*
X170994889Y-114164989D01*
X170995510Y-114157630D01*
X171001260Y-114145689D01*
X171003056Y-114138728D01*
X171005987Y-114132177D01*
X171008935Y-114119261D01*
X171013041Y-114113116D01*
X171024426Y-114055878D01*
X171038996Y-113999395D01*
X171037964Y-113992086D01*
X171040912Y-113979171D01*
X171041114Y-113971986D01*
X171042516Y-113964936D01*
X171042516Y-113951682D01*
X171045150Y-113944782D01*
X171043514Y-113886465D01*
X171045150Y-113828148D01*
X171042516Y-113821248D01*
X171042516Y-113807995D01*
X171041114Y-113800945D01*
X171040912Y-113793759D01*
X171037964Y-113780844D01*
X171038996Y-113773535D01*
X171024426Y-113717049D01*
X171013041Y-113659815D01*
X171008936Y-113653671D01*
X171005987Y-113640753D01*
X171003056Y-113634202D01*
X171001260Y-113627241D01*
X170995510Y-113615300D01*
X170994889Y-113607941D01*
X170968101Y-113556088D01*
X170944277Y-113502847D01*
X170938914Y-113497777D01*
X170933166Y-113485841D01*
X170928844Y-113480099D01*
X170925545Y-113473712D01*
X170917284Y-113463353D01*
X170915042Y-113456319D01*
X170877402Y-113411743D01*
X170842317Y-113365124D01*
X170835956Y-113361372D01*
X170827693Y-113351010D01*
X170822203Y-113346375D01*
X170817568Y-113340885D01*
X170807208Y-113332623D01*
X170803457Y-113326264D01*
X170756839Y-113291180D01*
X170712259Y-113253536D01*
X170705225Y-113251294D01*
X170694866Y-113243033D01*
X170688480Y-113239734D01*
X170682740Y-113235414D01*
X170670798Y-113229663D01*
X170665723Y-113224295D01*
X170612469Y-113200466D01*
X170560637Y-113173689D01*
X170553279Y-113173068D01*
X170541340Y-113167319D01*
X170534377Y-113165523D01*
X170527816Y-113162587D01*
X170514903Y-113159640D01*
X170508763Y-113155537D01*
X170451536Y-113144154D01*
X170395046Y-113129582D01*
X170387732Y-113130615D01*
X170374809Y-113127665D01*
X170367630Y-113127464D01*
X170360583Y-113126062D01*
X170347333Y-113126062D01*
X170340438Y-113123430D01*
X170282112Y-113125066D01*
X170223786Y-113123430D01*
X170216891Y-113126062D01*
X170203641Y-113126062D01*
X170196594Y-113127464D01*
X170189415Y-113127665D01*
X170176490Y-113130615D01*
X170169173Y-113129582D01*
X170112674Y-113144156D01*
X170055461Y-113155537D01*
X170049321Y-113159640D01*
X170036408Y-113162587D01*
X170029847Y-113165523D01*
X170022880Y-113167320D01*
X170010943Y-113173069D01*
X170003588Y-113173689D01*
X169951762Y-113200463D01*
X169898501Y-113224295D01*
X169893425Y-113229664D01*
X169881481Y-113235416D01*
X169875741Y-113239736D01*
X169869359Y-113243033D01*
X169835793Y-113269801D01*
X169784793Y-113308184D01*
X169778675Y-113312272D01*
X169776587Y-113314360D01*
X169760766Y-113326267D01*
X169757016Y-113332624D01*
X169746657Y-113340885D01*
X169728177Y-113362770D01*
X169127183Y-113963763D01*
X168488000Y-113324580D01*
X168488000Y-112928464D01*
X168830000Y-112928464D01*
X168978659Y-112898894D01*
X169104686Y-112814686D01*
X169188894Y-112688659D01*
X169218464Y-112540000D01*
X169218464Y-110840000D01*
X169188894Y-110691341D01*
X169104686Y-110565314D01*
X168978659Y-110481106D01*
X168830000Y-110451536D01*
X167396885Y-110451536D01*
X167524589Y-110323832D01*
X167524591Y-110323829D01*
X167532348Y-110316072D01*
X167858761Y-110381000D01*
X168101239Y-110381000D01*
X168460312Y-110309576D01*
X168867501Y-110037501D01*
X169139576Y-109630312D01*
X169235116Y-109150000D01*
X169139576Y-108669688D01*
X168867501Y-108262499D01*
X168460312Y-107990424D01*
X168101239Y-107919000D01*
X167858761Y-107919000D01*
X167499688Y-107990424D01*
X167092499Y-108262499D01*
X166820424Y-108669688D01*
X166724884Y-109150000D01*
X166813928Y-109597652D01*
X166806171Y-109605409D01*
X166806168Y-109605411D01*
X166421165Y-109990414D01*
X166378754Y-110018753D01*
X166350415Y-110061165D01*
X166350412Y-110061168D01*
X166266475Y-110186789D01*
X166227049Y-110385000D01*
X166237001Y-110435033D01*
X166237001Y-110742029D01*
X165920312Y-110530424D01*
X165561239Y-110459000D01*
X165318761Y-110459000D01*
X164959688Y-110530424D01*
X164713000Y-110695256D01*
X164713000Y-110595420D01*
X164992348Y-110316072D01*
X165318761Y-110381000D01*
X165561239Y-110381000D01*
X165920312Y-110309576D01*
X166327501Y-110037501D01*
X166599576Y-109630312D01*
X166695116Y-109150000D01*
X166599576Y-108669688D01*
X166327501Y-108262499D01*
X165920312Y-107990424D01*
X165561239Y-107919000D01*
X165318761Y-107919000D01*
X164959688Y-107990424D01*
X164552499Y-108262499D01*
X164280424Y-108669688D01*
X164184884Y-109150000D01*
X164273928Y-109597652D01*
X163881166Y-109990414D01*
X163838754Y-110018753D01*
X163810415Y-110061165D01*
X163810412Y-110061168D01*
X163726475Y-110186789D01*
X163687049Y-110385000D01*
X163697001Y-110435033D01*
X163697001Y-110742029D01*
X163380312Y-110530424D01*
X163021239Y-110459000D01*
X162778761Y-110459000D01*
X162419688Y-110530424D01*
X162046000Y-110780114D01*
X162046000Y-110722420D01*
X162452348Y-110316072D01*
X162778761Y-110381000D01*
X163021239Y-110381000D01*
X163380312Y-110309576D01*
X163787501Y-110037501D01*
X164059576Y-109630312D01*
X164155116Y-109150000D01*
X164059576Y-108669688D01*
X163787501Y-108262499D01*
X163380312Y-107990424D01*
X163021239Y-107919000D01*
X162778761Y-107919000D01*
X162419688Y-107990424D01*
X162012499Y-108262499D01*
X161740424Y-108669688D01*
X161644884Y-109150000D01*
X161733928Y-109597652D01*
X161214166Y-110117414D01*
X161171754Y-110145753D01*
X161143415Y-110188165D01*
X161143412Y-110188168D01*
X161059475Y-110313789D01*
X161020049Y-110512000D01*
X161030001Y-110562033D01*
X161030001Y-110744569D01*
X160890501Y-110635732D01*
X160730358Y-110569416D01*
X160550500Y-110609007D01*
X160550500Y-111499500D01*
X160570500Y-111499500D01*
X160570500Y-111880500D01*
X160550500Y-111880500D01*
X160550500Y-112770993D01*
X160730358Y-112810584D01*
X160890501Y-112744268D01*
X161030001Y-112635431D01*
X161030000Y-115137580D01*
X159930580Y-116237000D01*
X159721501Y-116237000D01*
X159914100Y-116044401D01*
X160033000Y-115757351D01*
X160033000Y-115446649D01*
X159914100Y-115159599D01*
X159760000Y-115005499D01*
X159760000Y-114509028D01*
X159769951Y-114459000D01*
X159760000Y-114408972D01*
X159760000Y-114408968D01*
X159730525Y-114260788D01*
X159701656Y-114217583D01*
X159646588Y-114135167D01*
X159646586Y-114135165D01*
X159618247Y-114092753D01*
X159575835Y-114064414D01*
X158336689Y-112825269D01*
X158707501Y-112577501D01*
X158979576Y-112170312D01*
X159001446Y-112060360D01*
X159239399Y-112060360D01*
X159466430Y-112461003D01*
X159829499Y-112744268D01*
X159989642Y-112810584D01*
X160169500Y-112770993D01*
X160169500Y-111880500D01*
X159277808Y-111880500D01*
X159239399Y-112060360D01*
X159001446Y-112060360D01*
X159075116Y-111690000D01*
X159001447Y-111319640D01*
X159239399Y-111319640D01*
X159277808Y-111499500D01*
X160169500Y-111499500D01*
X160169500Y-110609007D01*
X159989642Y-110569416D01*
X159829499Y-110635732D01*
X159466430Y-110918997D01*
X159239399Y-111319640D01*
X159001447Y-111319640D01*
X158979576Y-111209688D01*
X158707501Y-110802499D01*
X158300312Y-110530424D01*
X157941239Y-110459000D01*
X157698761Y-110459000D01*
X157339688Y-110530424D01*
X156932499Y-110802499D01*
X156660424Y-111209688D01*
X156564884Y-111690000D01*
X156660424Y-112170312D01*
X156932499Y-112577501D01*
X157312000Y-112831076D01*
X157312000Y-112976972D01*
X157302049Y-113027000D01*
X157312000Y-113077028D01*
X157312000Y-113077031D01*
X157329960Y-113167319D01*
X157341475Y-113225211D01*
X157423827Y-113348459D01*
X157453753Y-113393247D01*
X157496168Y-113421588D01*
X158744001Y-114669422D01*
X158744001Y-115005498D01*
X158589900Y-115159599D01*
X158471000Y-115446649D01*
X158471000Y-115757351D01*
X158589900Y-116044401D01*
X158809599Y-116264100D01*
X158810290Y-116264386D01*
X158799788Y-116266475D01*
X158674167Y-116350412D01*
X158674165Y-116350414D01*
X158631753Y-116378753D01*
X158603414Y-116421165D01*
X156515166Y-118509414D01*
X156472754Y-118537753D01*
X156444415Y-118580165D01*
X156444412Y-118580168D01*
X156360475Y-118705789D01*
X156321049Y-118904000D01*
X156331001Y-118954033D01*
X156331000Y-119958499D01*
X156176900Y-120112599D01*
X156058000Y-120399649D01*
X148999000Y-120399649D01*
X148999000Y-118577501D01*
X149153100Y-118423401D01*
X149272000Y-118136351D01*
X149272000Y-117825649D01*
X149153100Y-117538599D01*
X148933401Y-117318900D01*
X148646351Y-117200000D01*
X148335649Y-117200000D01*
X148048599Y-117318900D01*
X147828900Y-117538599D01*
X147710000Y-117825649D01*
X147710000Y-118136351D01*
X147828900Y-118423401D01*
X147983001Y-118577502D01*
X147983000Y-126152579D01*
X146468580Y-127667000D01*
X145967032Y-127667000D01*
X145917000Y-127657048D01*
X145866968Y-127667000D01*
X136823032Y-127667000D01*
X136773000Y-127657048D01*
X136722968Y-127667000D01*
X127679032Y-127667000D01*
X127629000Y-127657048D01*
X127578968Y-127667000D01*
X118408032Y-127667000D01*
X118358000Y-127657048D01*
X118307968Y-127667000D01*
X112058028Y-127667000D01*
X112008000Y-127657049D01*
X111957972Y-127667000D01*
X111957968Y-127667000D01*
X111809788Y-127696475D01*
X111684167Y-127780412D01*
X111684165Y-127780414D01*
X111641753Y-127808753D01*
X111613414Y-127851165D01*
X110019580Y-129445000D01*
X109810501Y-129445000D01*
X109656401Y-129290900D01*
X109369351Y-129172000D01*
X109058649Y-129172000D01*
X108771599Y-129290900D01*
X108551900Y-129510599D01*
X108433000Y-129797649D01*
X108231476Y-129797649D01*
X108231476Y-114049649D01*
X137389000Y-114049649D01*
X137389000Y-114360351D01*
X137507900Y-114647401D01*
X137662001Y-114801502D01*
X137662000Y-119869972D01*
X137652049Y-119920000D01*
X137662000Y-119970028D01*
X137662000Y-119970031D01*
X137691475Y-120118211D01*
X137803753Y-120286247D01*
X137846168Y-120314588D01*
X138532000Y-121000421D01*
X138532000Y-121218351D01*
X138650900Y-121505401D01*
X138870599Y-121725100D01*
X139157649Y-121844000D01*
X139468351Y-121844000D01*
X139755401Y-121725100D01*
X139975100Y-121505401D01*
X140094000Y-121218351D01*
X140094000Y-120907649D01*
X139975100Y-120620599D01*
X139755401Y-120400900D01*
X139468351Y-120282000D01*
X139250421Y-120282000D01*
X138678000Y-119709580D01*
X138678000Y-114801501D01*
X138832100Y-114647401D01*
X138951000Y-114360351D01*
X138951000Y-114049649D01*
X138832100Y-113762599D01*
X138612401Y-113542900D01*
X138325351Y-113424000D01*
X138014649Y-113424000D01*
X137727599Y-113542900D01*
X137507900Y-113762599D01*
X137389000Y-114049649D01*
X108231476Y-114049649D01*
X108231476Y-109839754D01*
X108292675Y-109472073D01*
X108450536Y-109179504D01*
X108694654Y-108953844D01*
X109007556Y-108815510D01*
X109280736Y-108781000D01*
X116972729Y-108781000D01*
X116972729Y-110051000D01*
X116982396Y-110099601D01*
X117009926Y-110140803D01*
X117051128Y-110168333D01*
X117099729Y-110178000D01*
X118741104Y-110178000D01*
X118742554Y-110179136D01*
X118757204Y-110191747D01*
X118761651Y-110194260D01*
X118764701Y-110197658D01*
X118779880Y-110209029D01*
X118794562Y-110221061D01*
X118798475Y-110223149D01*
X118801695Y-110226574D01*
X118817294Y-110237708D01*
X118831590Y-110248912D01*
X118835656Y-110250969D01*
X118838986Y-110254355D01*
X118854205Y-110264708D01*
X118869229Y-110275963D01*
X118873228Y-110277878D01*
X118875975Y-110280560D01*
X118891349Y-110290569D01*
X118907811Y-110302319D01*
X118911752Y-110304096D01*
X118915322Y-110307411D01*
X118932822Y-110318189D01*
X118946725Y-110327647D01*
X118950528Y-110329259D01*
X118953784Y-110332156D01*
X118968477Y-110340779D01*
X118985177Y-110351651D01*
X118990133Y-110353635D01*
X118994251Y-110357116D01*
X119011742Y-110366795D01*
X119026195Y-110375697D01*
X119030316Y-110377228D01*
X119033769Y-110380022D01*
X119048843Y-110387946D01*
X119065997Y-110398013D01*
X119070558Y-110399597D01*
X119073739Y-110402060D01*
X119091119Y-110410722D01*
X119108050Y-110420092D01*
X119111677Y-110421250D01*
X119115220Y-110423858D01*
X119133129Y-110432249D01*
X119148835Y-110440505D01*
X119153070Y-110441758D01*
X119157186Y-110444636D01*
X119173833Y-110451948D01*
X119190036Y-110460024D01*
X119195160Y-110461420D01*
X119199619Y-110464379D01*
X119216421Y-110471276D01*
X119232816Y-110478958D01*
X119237495Y-110480112D01*
X119240907Y-110482276D01*
X119257319Y-110488619D01*
X119276032Y-110496839D01*
X119280328Y-110497789D01*
X119284121Y-110500066D01*
X119303408Y-110506983D01*
X119319668Y-110513658D01*
X119323340Y-110514376D01*
X119326953Y-110516436D01*
X119343932Y-110522096D01*
X119361881Y-110529033D01*
X119366594Y-110529854D01*
X119370832Y-110532134D01*
X119389329Y-110537800D01*
X119406204Y-110543852D01*
X119410588Y-110544506D01*
X119414741Y-110546615D01*
X119432122Y-110551492D01*
X119449837Y-110557397D01*
X119454603Y-110557998D01*
X119458639Y-110559932D01*
X119476565Y-110564520D01*
X119494723Y-110570082D01*
X119499071Y-110570522D01*
X119503083Y-110572329D01*
X119521656Y-110576615D01*
X119539464Y-110581612D01*
X119543723Y-110581941D01*
X119547806Y-110583665D01*
X119565993Y-110587409D01*
X119584026Y-110592025D01*
X119588430Y-110592264D01*
X119592307Y-110593798D01*
X119610452Y-110597107D01*
X119629203Y-110601434D01*
X119633419Y-110601562D01*
X119637389Y-110603025D01*
X119656481Y-110606040D01*
X119674605Y-110609771D01*
X119678994Y-110609800D01*
X119683861Y-110611450D01*
X119702565Y-110613904D01*
X119719516Y-110616995D01*
X119724499Y-110616915D01*
X119729160Y-110618375D01*
X119746237Y-110620212D01*
X119765175Y-110623202D01*
X119770254Y-110623000D01*
X119774489Y-110624220D01*
X119793247Y-110625801D01*
X119812101Y-110628275D01*
X119816104Y-110628011D01*
X119819991Y-110629033D01*
X119839021Y-110630191D01*
X119857762Y-110632207D01*
X119862085Y-110631820D01*
X119866936Y-110632962D01*
X119886091Y-110633628D01*
X119903299Y-110635079D01*
X119907975Y-110634552D01*
X119912554Y-110635518D01*
X119929825Y-110635718D01*
X119949061Y-110636889D01*
X119953955Y-110636221D01*
X119958207Y-110637016D01*
X119977160Y-110636796D01*
X119996124Y-110637456D01*
X120000000Y-110636824D01*
X120003876Y-110637456D01*
X120022840Y-110636796D01*
X120041793Y-110637016D01*
X120046045Y-110636221D01*
X120050939Y-110636889D01*
X120070175Y-110635718D01*
X120087445Y-110635518D01*
X120092024Y-110634552D01*
X120096701Y-110635079D01*
X120113909Y-110633628D01*
X120133064Y-110632962D01*
X120137915Y-110631820D01*
X120142237Y-110632207D01*
X120160977Y-110630191D01*
X120180009Y-110629033D01*
X120183896Y-110628011D01*
X120187898Y-110628275D01*
X120206751Y-110625802D01*
X120225511Y-110624220D01*
X120229746Y-110623000D01*
X120234824Y-110623202D01*
X120253763Y-110620212D01*
X120270839Y-110618375D01*
X120275500Y-110616915D01*
X120280484Y-110616995D01*
X120297435Y-110613904D01*
X120316139Y-110611450D01*
X120321006Y-110609800D01*
X120325395Y-110609771D01*
X120343519Y-110606040D01*
X120362611Y-110603025D01*
X120366581Y-110601562D01*
X120370797Y-110601434D01*
X120389547Y-110597107D01*
X120407693Y-110593798D01*
X120411570Y-110592264D01*
X120415974Y-110592025D01*
X120434007Y-110587409D01*
X120452194Y-110583665D01*
X120456278Y-110581941D01*
X120460536Y-110581612D01*
X120478348Y-110576614D01*
X120496916Y-110572329D01*
X120500928Y-110570522D01*
X120505277Y-110570082D01*
X120523435Y-110564520D01*
X120541361Y-110559932D01*
X120545397Y-110557998D01*
X120550163Y-110557397D01*
X120567878Y-110551492D01*
X120585259Y-110546615D01*
X120589412Y-110544506D01*
X120593796Y-110543852D01*
X120610671Y-110537800D01*
X120629168Y-110532134D01*
X120633406Y-110529854D01*
X120638119Y-110529033D01*
X120656068Y-110522096D01*
X120673047Y-110516436D01*
X120676660Y-110514376D01*
X120680332Y-110513658D01*
X120696592Y-110506983D01*
X120715879Y-110500066D01*
X120719672Y-110497788D01*
X120723968Y-110496839D01*
X120742681Y-110488619D01*
X120759093Y-110482276D01*
X120762505Y-110480112D01*
X120767184Y-110478958D01*
X120783579Y-110471276D01*
X120800381Y-110464379D01*
X120804840Y-110461420D01*
X120809964Y-110460024D01*
X120826167Y-110451948D01*
X120842814Y-110444636D01*
X120846930Y-110441758D01*
X120851166Y-110440505D01*
X120866880Y-110432245D01*
X120884780Y-110423858D01*
X120888323Y-110421250D01*
X120891950Y-110420092D01*
X120908881Y-110410722D01*
X120926261Y-110402060D01*
X120929445Y-110399596D01*
X120934003Y-110398012D01*
X120951136Y-110387957D01*
X120966232Y-110380022D01*
X120969686Y-110377227D01*
X120973805Y-110375697D01*
X120988258Y-110366795D01*
X121005749Y-110357116D01*
X121009867Y-110353635D01*
X121014823Y-110351651D01*
X121031517Y-110340783D01*
X121046217Y-110332156D01*
X121049475Y-110329258D01*
X121053276Y-110327646D01*
X121067174Y-110318192D01*
X121084678Y-110307411D01*
X121088248Y-110304096D01*
X121092189Y-110302319D01*
X121108651Y-110290569D01*
X121124025Y-110280560D01*
X121126772Y-110277878D01*
X121130771Y-110275963D01*
X121145796Y-110264708D01*
X121161014Y-110254355D01*
X121164344Y-110250969D01*
X121168410Y-110248912D01*
X121182706Y-110237708D01*
X121198305Y-110226574D01*
X121201525Y-110223149D01*
X121205438Y-110221061D01*
X121220120Y-110209029D01*
X121235299Y-110197658D01*
X121238349Y-110194260D01*
X121242796Y-110191747D01*
X121257446Y-110179136D01*
X121258896Y-110178000D01*
X122941729Y-110178000D01*
X122990330Y-110168333D01*
X123031532Y-110140803D01*
X123059062Y-110099601D01*
X123068729Y-110051000D01*
X123068729Y-109150000D01*
X156564884Y-109150000D01*
X156660424Y-109630312D01*
X156932499Y-110037501D01*
X157339688Y-110309576D01*
X157698761Y-110381000D01*
X157941239Y-110381000D01*
X158300312Y-110309576D01*
X158707501Y-110037501D01*
X158979576Y-109630312D01*
X159001446Y-109520360D01*
X159239399Y-109520360D01*
X159466430Y-109921003D01*
X159829499Y-110204268D01*
X159989642Y-110270584D01*
X160169500Y-110230993D01*
X160169500Y-109340500D01*
X160550500Y-109340500D01*
X160550500Y-110230993D01*
X160730358Y-110270584D01*
X160890501Y-110204268D01*
X161253570Y-109921003D01*
X161480601Y-109520360D01*
X161442192Y-109340500D01*
X160550500Y-109340500D01*
X160169500Y-109340500D01*
X159277808Y-109340500D01*
X159239399Y-109520360D01*
X159001446Y-109520360D01*
X159075116Y-109150000D01*
X159001447Y-108779640D01*
X159239399Y-108779640D01*
X159277808Y-108959500D01*
X160169500Y-108959500D01*
X160169500Y-108069007D01*
X160550500Y-108069007D01*
X160550500Y-108959500D01*
X161442192Y-108959500D01*
X161480601Y-108779640D01*
X161253570Y-108378997D01*
X160890501Y-108095732D01*
X160730358Y-108029416D01*
X160550500Y-108069007D01*
X160169500Y-108069007D01*
X159989642Y-108029416D01*
X159829499Y-108095732D01*
X159466430Y-108378997D01*
X159239399Y-108779640D01*
X159001447Y-108779640D01*
X158979576Y-108669688D01*
X158707501Y-108262499D01*
X158300312Y-107990424D01*
X157941239Y-107919000D01*
X157698761Y-107919000D01*
X157339688Y-107990424D01*
X156932499Y-108262499D01*
X156660424Y-108669688D01*
X156564884Y-109150000D01*
X123068729Y-109150000D01*
X123068729Y-108781000D01*
X154847373Y-108781000D01*
X154877158Y-108775075D01*
X155233320Y-108730082D01*
X155260599Y-108721924D01*
X155288993Y-108719689D01*
X155367525Y-108692801D01*
X155818023Y-108493637D01*
X155849680Y-108472842D01*
X155884448Y-108457797D01*
X155950037Y-108406921D01*
X156311736Y-108072570D01*
X156334952Y-108042641D01*
X156362971Y-108017145D01*
X156408544Y-107947766D01*
X156642439Y-107514281D01*
X156654708Y-107478447D01*
X156672958Y-107445250D01*
X156693598Y-107364858D01*
X156693601Y-107364849D01*
X156693601Y-107364844D01*
X156773230Y-106886435D01*
X156781000Y-106847373D01*
X156781000Y-99531000D01*
X171952000Y-99531000D01*
X171952000Y-100616000D01*
M02*
