M48
;DRILL file {KiCad (5.0.0)} date 04/13/19 23:37:12
;FORMAT={-:-/ absolute / inch / decimal}
FMAT,2
INCH,TZ
T1C0.0157
T2C0.0177
T3C0.0394
%
G90
G05
M72
T1
X4.2998Y-5.1163
X4.4998Y-5.0813
X4.5348Y-5.0813
X4.5698Y-5.0813
X4.6598Y-5.1163
X5.0248Y-5.1163
X5.1548Y-4.7663
X5.3848Y-5.1163
X5.4348Y-4.7663
X5.4398Y-4.4963
X5.4848Y-4.7663
X5.6198Y-5.0813
X5.7448Y-5.1163
X5.8461Y-4.6449
X6.1148Y-4.7463
X6.1748Y-4.7463
X6.2098Y-4.8263
X6.2698Y-4.5513
X6.2698Y-4.6263
X6.2698Y-4.6863
X6.4648Y-4.6463
X6.4948Y-4.7163
X6.7148Y-4.6913
X6.7148Y-4.7313
X6.7148Y-4.7713
X6.7548Y-4.6913
X6.7548Y-4.7313
X6.7548Y-4.7713
X6.7848Y-4.9863
X6.7848Y-5.0313
X6.8548Y-4.7813
X6.8598Y-4.9713
X6.8898Y-4.6963
X6.9198Y-4.9713
X6.9248Y-4.7813
X7.0198Y-4.6913
X7.0198Y-4.7313
X7.0198Y-4.7713
X7.0598Y-4.6913
X7.0598Y-4.7313
X7.0598Y-4.7713
T3
X6.2134Y-4.2972
X6.2134Y-4.3972
X6.3134Y-4.2972
X6.3134Y-4.3972
X6.4134Y-4.2972
X6.4134Y-4.3972
X6.5134Y-4.2972
X6.5134Y-4.3972
X6.6134Y-4.2972
X6.6134Y-4.3972
T2
X6.7146Y-4.8583G85X6.7146Y-4.8976
G05
X6.7146Y-4.9803G85X6.7146Y-5.0276
G05
X7.065Y-4.8583G85X7.065Y-4.8976
G05
X7.065Y-4.9803G85X7.065Y-5.0276
G05
T0
M30
