%TF.GenerationSoftware,KiCad,Pcbnew,(5.0.0)*%
%TF.CreationDate,2019-04-13T23:36:30-04:00*%
%TF.ProjectId,Fusion USB Daughter Board,467573696F6E20555342204461756768,rev?*%
%TF.SameCoordinates,Original*%
%TF.FileFunction,Legend,Top*%
%TF.FilePolarity,Positive*%
%FSLAX46Y46*%
G04 Gerber Fmt 4.6, Leading zero omitted, Abs format (unit mm)*
G04 Created by KiCad (PCBNEW (5.0.0)) date 04/13/19 23:36:30*
%MOMM*%
%LPD*%
G01*
G04 APERTURE LIST*
%ADD10C,0.254000*%
%ADD11C,0.304800*%
%ADD12C,0.200000*%
%ADD13C,0.120000*%
%ADD14C,0.152400*%
%ADD15C,0.203200*%
%ADD16C,0.150000*%
G04 APERTURE END LIST*
D10*
X146278042Y-111832821D02*
X146278042Y-110689821D01*
X146767900Y-111778392D02*
X146876757Y-111832821D01*
X147094471Y-111832821D01*
X147203328Y-111778392D01*
X147257757Y-111669535D01*
X147257757Y-111615107D01*
X147203328Y-111506250D01*
X147094471Y-111451821D01*
X146931185Y-111451821D01*
X146822328Y-111397392D01*
X146767900Y-111288535D01*
X146767900Y-111234107D01*
X146822328Y-111125250D01*
X146931185Y-111070821D01*
X147094471Y-111070821D01*
X147203328Y-111125250D01*
X147747614Y-111832821D02*
X147747614Y-110689821D01*
X148237471Y-111832821D02*
X148237471Y-111234107D01*
X148183042Y-111125250D01*
X148074185Y-111070821D01*
X147910900Y-111070821D01*
X147802042Y-111125250D01*
X147747614Y-111179678D01*
X149271614Y-111832821D02*
X149271614Y-111234107D01*
X149217185Y-111125250D01*
X149108328Y-111070821D01*
X148890614Y-111070821D01*
X148781757Y-111125250D01*
X149271614Y-111778392D02*
X149162757Y-111832821D01*
X148890614Y-111832821D01*
X148781757Y-111778392D01*
X148727328Y-111669535D01*
X148727328Y-111560678D01*
X148781757Y-111451821D01*
X148890614Y-111397392D01*
X149162757Y-111397392D01*
X149271614Y-111342964D01*
X150305757Y-111832821D02*
X150305757Y-111234107D01*
X150251328Y-111125250D01*
X150142471Y-111070821D01*
X149924757Y-111070821D01*
X149815900Y-111125250D01*
X150305757Y-111778392D02*
X150196900Y-111832821D01*
X149924757Y-111832821D01*
X149815900Y-111778392D01*
X149761471Y-111669535D01*
X149761471Y-111560678D01*
X149815900Y-111451821D01*
X149924757Y-111397392D01*
X150196900Y-111397392D01*
X150305757Y-111342964D01*
X150850042Y-111070821D02*
X150850042Y-111832821D01*
X150850042Y-111179678D02*
X150904471Y-111125250D01*
X151013328Y-111070821D01*
X151176614Y-111070821D01*
X151285471Y-111125250D01*
X151339900Y-111234107D01*
X151339900Y-111832821D01*
X153353757Y-110744250D02*
X153244900Y-110689821D01*
X153081614Y-110689821D01*
X152918328Y-110744250D01*
X152809471Y-110853107D01*
X152755042Y-110961964D01*
X152700614Y-111179678D01*
X152700614Y-111342964D01*
X152755042Y-111560678D01*
X152809471Y-111669535D01*
X152918328Y-111778392D01*
X153081614Y-111832821D01*
X153190471Y-111832821D01*
X153353757Y-111778392D01*
X153408185Y-111723964D01*
X153408185Y-111342964D01*
X153190471Y-111342964D01*
X154061328Y-111832821D02*
X153952471Y-111778392D01*
X153898042Y-111723964D01*
X153843614Y-111615107D01*
X153843614Y-111288535D01*
X153898042Y-111179678D01*
X153952471Y-111125250D01*
X154061328Y-111070821D01*
X154224614Y-111070821D01*
X154333471Y-111125250D01*
X154387900Y-111179678D01*
X154442328Y-111288535D01*
X154442328Y-111615107D01*
X154387900Y-111723964D01*
X154333471Y-111778392D01*
X154224614Y-111832821D01*
X154061328Y-111832821D01*
X154823328Y-111070821D02*
X155095471Y-111832821D01*
X155367614Y-111070821D01*
X151394328Y-112767178D02*
X151448757Y-112712750D01*
X151557614Y-112658321D01*
X151829757Y-112658321D01*
X151938614Y-112712750D01*
X151993042Y-112767178D01*
X152047471Y-112876035D01*
X152047471Y-112984892D01*
X151993042Y-113148178D01*
X151339900Y-113801321D01*
X152047471Y-113801321D01*
X152755042Y-112658321D02*
X152863900Y-112658321D01*
X152972757Y-112712750D01*
X153027185Y-112767178D01*
X153081614Y-112876035D01*
X153136042Y-113093750D01*
X153136042Y-113365892D01*
X153081614Y-113583607D01*
X153027185Y-113692464D01*
X152972757Y-113746892D01*
X152863900Y-113801321D01*
X152755042Y-113801321D01*
X152646185Y-113746892D01*
X152591757Y-113692464D01*
X152537328Y-113583607D01*
X152482900Y-113365892D01*
X152482900Y-113093750D01*
X152537328Y-112876035D01*
X152591757Y-112767178D01*
X152646185Y-112712750D01*
X152755042Y-112658321D01*
X154224614Y-113801321D02*
X153571471Y-113801321D01*
X153898042Y-113801321D02*
X153898042Y-112658321D01*
X153789185Y-112821607D01*
X153680328Y-112930464D01*
X153571471Y-112984892D01*
X154768900Y-113801321D02*
X154986614Y-113801321D01*
X155095471Y-113746892D01*
X155149900Y-113692464D01*
X155258757Y-113529178D01*
X155313185Y-113311464D01*
X155313185Y-112876035D01*
X155258757Y-112767178D01*
X155204328Y-112712750D01*
X155095471Y-112658321D01*
X154877757Y-112658321D01*
X154768900Y-112712750D01*
X154714471Y-112767178D01*
X154660042Y-112876035D01*
X154660042Y-113148178D01*
X154714471Y-113257035D01*
X154768900Y-113311464D01*
X154877757Y-113365892D01*
X155095471Y-113365892D01*
X155204328Y-113311464D01*
X155258757Y-113257035D01*
X155313185Y-113148178D01*
X110050385Y-116881071D02*
X109669385Y-116336785D01*
X109397242Y-116881071D02*
X109397242Y-115738071D01*
X109832671Y-115738071D01*
X109941528Y-115792500D01*
X109995957Y-115846928D01*
X110050385Y-115955785D01*
X110050385Y-116119071D01*
X109995957Y-116227928D01*
X109941528Y-116282357D01*
X109832671Y-116336785D01*
X109397242Y-116336785D01*
X110975671Y-116826642D02*
X110866814Y-116881071D01*
X110649100Y-116881071D01*
X110540242Y-116826642D01*
X110485814Y-116717785D01*
X110485814Y-116282357D01*
X110540242Y-116173500D01*
X110649100Y-116119071D01*
X110866814Y-116119071D01*
X110975671Y-116173500D01*
X111030100Y-116282357D01*
X111030100Y-116391214D01*
X110485814Y-116500071D01*
X111411100Y-116119071D02*
X111683242Y-116881071D01*
X111955385Y-116119071D01*
X113479385Y-115738071D02*
X113588242Y-115738071D01*
X113697100Y-115792500D01*
X113751528Y-115846928D01*
X113805957Y-115955785D01*
X113860385Y-116173500D01*
X113860385Y-116445642D01*
X113805957Y-116663357D01*
X113751528Y-116772214D01*
X113697100Y-116826642D01*
X113588242Y-116881071D01*
X113479385Y-116881071D01*
X113370528Y-116826642D01*
X113316100Y-116772214D01*
X113261671Y-116663357D01*
X113207242Y-116445642D01*
X113207242Y-116173500D01*
X113261671Y-115955785D01*
X113316100Y-115846928D01*
X113370528Y-115792500D01*
X113479385Y-115738071D01*
X114350242Y-116772214D02*
X114404671Y-116826642D01*
X114350242Y-116881071D01*
X114295814Y-116826642D01*
X114350242Y-116772214D01*
X114350242Y-116881071D01*
X114840100Y-115846928D02*
X114894528Y-115792500D01*
X115003385Y-115738071D01*
X115275528Y-115738071D01*
X115384385Y-115792500D01*
X115438814Y-115846928D01*
X115493242Y-115955785D01*
X115493242Y-116064642D01*
X115438814Y-116227928D01*
X114785671Y-116881071D01*
X115493242Y-116881071D01*
D11*
X109520977Y-113370428D02*
X109520977Y-114604142D01*
X109593548Y-114749285D01*
X109666120Y-114821857D01*
X109811262Y-114894428D01*
X110101548Y-114894428D01*
X110246691Y-114821857D01*
X110319262Y-114749285D01*
X110391834Y-114604142D01*
X110391834Y-113370428D01*
X111044977Y-114821857D02*
X111262691Y-114894428D01*
X111625548Y-114894428D01*
X111770691Y-114821857D01*
X111843262Y-114749285D01*
X111915834Y-114604142D01*
X111915834Y-114459000D01*
X111843262Y-114313857D01*
X111770691Y-114241285D01*
X111625548Y-114168714D01*
X111335262Y-114096142D01*
X111190120Y-114023571D01*
X111117548Y-113951000D01*
X111044977Y-113805857D01*
X111044977Y-113660714D01*
X111117548Y-113515571D01*
X111190120Y-113443000D01*
X111335262Y-113370428D01*
X111698120Y-113370428D01*
X111915834Y-113443000D01*
X113076977Y-114096142D02*
X113294691Y-114168714D01*
X113367262Y-114241285D01*
X113439834Y-114386428D01*
X113439834Y-114604142D01*
X113367262Y-114749285D01*
X113294691Y-114821857D01*
X113149548Y-114894428D01*
X112568977Y-114894428D01*
X112568977Y-113370428D01*
X113076977Y-113370428D01*
X113222120Y-113443000D01*
X113294691Y-113515571D01*
X113367262Y-113660714D01*
X113367262Y-113805857D01*
X113294691Y-113951000D01*
X113222120Y-114023571D01*
X113076977Y-114096142D01*
X112568977Y-114096142D01*
X115979834Y-114894428D02*
X115254120Y-114894428D01*
X115254120Y-113370428D01*
X116487834Y-114096142D02*
X116995834Y-114096142D01*
X117213548Y-114894428D02*
X116487834Y-114894428D01*
X116487834Y-113370428D01*
X117213548Y-113370428D01*
X117866691Y-114894428D02*
X117866691Y-113370428D01*
X118229548Y-113370428D01*
X118447262Y-113443000D01*
X118592405Y-113588142D01*
X118664977Y-113733285D01*
X118737548Y-114023571D01*
X118737548Y-114241285D01*
X118664977Y-114531571D01*
X118592405Y-114676714D01*
X118447262Y-114821857D01*
X118229548Y-114894428D01*
X117866691Y-114894428D01*
X120551834Y-114894428D02*
X120551834Y-113370428D01*
X120914691Y-113370428D01*
X121132405Y-113443000D01*
X121277548Y-113588142D01*
X121350120Y-113733285D01*
X121422691Y-114023571D01*
X121422691Y-114241285D01*
X121350120Y-114531571D01*
X121277548Y-114676714D01*
X121132405Y-114821857D01*
X120914691Y-114894428D01*
X120551834Y-114894428D01*
X122728977Y-114894428D02*
X122728977Y-114096142D01*
X122656405Y-113951000D01*
X122511262Y-113878428D01*
X122220977Y-113878428D01*
X122075834Y-113951000D01*
X122728977Y-114821857D02*
X122583834Y-114894428D01*
X122220977Y-114894428D01*
X122075834Y-114821857D01*
X122003262Y-114676714D01*
X122003262Y-114531571D01*
X122075834Y-114386428D01*
X122220977Y-114313857D01*
X122583834Y-114313857D01*
X122728977Y-114241285D01*
X124107834Y-113878428D02*
X124107834Y-114894428D01*
X123454691Y-113878428D02*
X123454691Y-114676714D01*
X123527262Y-114821857D01*
X123672405Y-114894428D01*
X123890120Y-114894428D01*
X124035262Y-114821857D01*
X124107834Y-114749285D01*
X125486691Y-113878428D02*
X125486691Y-115112142D01*
X125414120Y-115257285D01*
X125341548Y-115329857D01*
X125196405Y-115402428D01*
X124978691Y-115402428D01*
X124833548Y-115329857D01*
X125486691Y-114821857D02*
X125341548Y-114894428D01*
X125051262Y-114894428D01*
X124906120Y-114821857D01*
X124833548Y-114749285D01*
X124760977Y-114604142D01*
X124760977Y-114168714D01*
X124833548Y-114023571D01*
X124906120Y-113951000D01*
X125051262Y-113878428D01*
X125341548Y-113878428D01*
X125486691Y-113951000D01*
X126212405Y-114894428D02*
X126212405Y-113370428D01*
X126865548Y-114894428D02*
X126865548Y-114096142D01*
X126792977Y-113951000D01*
X126647834Y-113878428D01*
X126430120Y-113878428D01*
X126284977Y-113951000D01*
X126212405Y-114023571D01*
X127373548Y-113878428D02*
X127954120Y-113878428D01*
X127591262Y-113370428D02*
X127591262Y-114676714D01*
X127663834Y-114821857D01*
X127808977Y-114894428D01*
X127954120Y-114894428D01*
X129042691Y-114821857D02*
X128897548Y-114894428D01*
X128607262Y-114894428D01*
X128462120Y-114821857D01*
X128389548Y-114676714D01*
X128389548Y-114096142D01*
X128462120Y-113951000D01*
X128607262Y-113878428D01*
X128897548Y-113878428D01*
X129042691Y-113951000D01*
X129115262Y-114096142D01*
X129115262Y-114241285D01*
X128389548Y-114386428D01*
X129768405Y-114894428D02*
X129768405Y-113878428D01*
X129768405Y-114168714D02*
X129840977Y-114023571D01*
X129913548Y-113951000D01*
X130058691Y-113878428D01*
X130203834Y-113878428D01*
X130711834Y-114894428D02*
X130711834Y-113370428D01*
X130711834Y-113951000D02*
X130856977Y-113878428D01*
X131147262Y-113878428D01*
X131292405Y-113951000D01*
X131364977Y-114023571D01*
X131437548Y-114168714D01*
X131437548Y-114604142D01*
X131364977Y-114749285D01*
X131292405Y-114821857D01*
X131147262Y-114894428D01*
X130856977Y-114894428D01*
X130711834Y-114821857D01*
X132308405Y-114894428D02*
X132163262Y-114821857D01*
X132090691Y-114749285D01*
X132018119Y-114604142D01*
X132018119Y-114168714D01*
X132090691Y-114023571D01*
X132163262Y-113951000D01*
X132308405Y-113878428D01*
X132526119Y-113878428D01*
X132671262Y-113951000D01*
X132743834Y-114023571D01*
X132816405Y-114168714D01*
X132816405Y-114604142D01*
X132743834Y-114749285D01*
X132671262Y-114821857D01*
X132526119Y-114894428D01*
X132308405Y-114894428D01*
X134122691Y-114894428D02*
X134122691Y-114096142D01*
X134050119Y-113951000D01*
X133904977Y-113878428D01*
X133614691Y-113878428D01*
X133469548Y-113951000D01*
X134122691Y-114821857D02*
X133977548Y-114894428D01*
X133614691Y-114894428D01*
X133469548Y-114821857D01*
X133396977Y-114676714D01*
X133396977Y-114531571D01*
X133469548Y-114386428D01*
X133614691Y-114313857D01*
X133977548Y-114313857D01*
X134122691Y-114241285D01*
X134848405Y-114894428D02*
X134848405Y-113878428D01*
X134848405Y-114168714D02*
X134920977Y-114023571D01*
X134993548Y-113951000D01*
X135138691Y-113878428D01*
X135283834Y-113878428D01*
X136444977Y-114894428D02*
X136444977Y-113370428D01*
X136444977Y-114821857D02*
X136299834Y-114894428D01*
X136009548Y-114894428D01*
X135864405Y-114821857D01*
X135791834Y-114749285D01*
X135719262Y-114604142D01*
X135719262Y-114168714D01*
X135791834Y-114023571D01*
X135864405Y-113951000D01*
X136009548Y-113878428D01*
X136299834Y-113878428D01*
X136444977Y-113951000D01*
X110137834Y-111556142D02*
X109629834Y-111556142D01*
X109530048Y-112354428D02*
X109720548Y-110830428D01*
X110446262Y-110830428D01*
X111616477Y-111338428D02*
X111489477Y-112354428D01*
X110963334Y-111338428D02*
X110863548Y-112136714D01*
X110917977Y-112281857D01*
X111054048Y-112354428D01*
X111271762Y-112354428D01*
X111425977Y-112281857D01*
X111507620Y-112209285D01*
X112151691Y-112281857D02*
X112287762Y-112354428D01*
X112578048Y-112354428D01*
X112732262Y-112281857D01*
X112822977Y-112136714D01*
X112832048Y-112064142D01*
X112777620Y-111919000D01*
X112641548Y-111846428D01*
X112423834Y-111846428D01*
X112287762Y-111773857D01*
X112233334Y-111628714D01*
X112242405Y-111556142D01*
X112333120Y-111411000D01*
X112487334Y-111338428D01*
X112705048Y-111338428D01*
X112841120Y-111411000D01*
X113448905Y-112354428D02*
X113575905Y-111338428D01*
X113639405Y-110830428D02*
X113557762Y-110903000D01*
X113621262Y-110975571D01*
X113702905Y-110903000D01*
X113639405Y-110830428D01*
X113621262Y-110975571D01*
X114392334Y-112354428D02*
X114256262Y-112281857D01*
X114192762Y-112209285D01*
X114138334Y-112064142D01*
X114192762Y-111628714D01*
X114283477Y-111483571D01*
X114365120Y-111411000D01*
X114519334Y-111338428D01*
X114737048Y-111338428D01*
X114873120Y-111411000D01*
X114936620Y-111483571D01*
X114991048Y-111628714D01*
X114936620Y-112064142D01*
X114845905Y-112209285D01*
X114764262Y-112281857D01*
X114610048Y-112354428D01*
X114392334Y-112354428D01*
X115680477Y-111338428D02*
X115553477Y-112354428D01*
X115662334Y-111483571D02*
X115743977Y-111411000D01*
X115898191Y-111338428D01*
X116115905Y-111338428D01*
X116251977Y-111411000D01*
X116306405Y-111556142D01*
X116206620Y-112354428D01*
X118093477Y-112354428D02*
X118283977Y-110830428D01*
X118864548Y-110830428D01*
X119000620Y-110903000D01*
X119064120Y-110975571D01*
X119118548Y-111120714D01*
X119091334Y-111338428D01*
X119000620Y-111483571D01*
X118918977Y-111556142D01*
X118764762Y-111628714D01*
X118184191Y-111628714D01*
X120270620Y-112354428D02*
X120370405Y-111556142D01*
X120315977Y-111411000D01*
X120179905Y-111338428D01*
X119889620Y-111338428D01*
X119735405Y-111411000D01*
X120279691Y-112281857D02*
X120125477Y-112354428D01*
X119762620Y-112354428D01*
X119626548Y-112281857D01*
X119572120Y-112136714D01*
X119590262Y-111991571D01*
X119680977Y-111846428D01*
X119835191Y-111773857D01*
X120198048Y-111773857D01*
X120352262Y-111701285D01*
X121658548Y-112281857D02*
X121504334Y-112354428D01*
X121214048Y-112354428D01*
X121077977Y-112281857D01*
X121014477Y-112209285D01*
X120960048Y-112064142D01*
X121014477Y-111628714D01*
X121105191Y-111483571D01*
X121186834Y-111411000D01*
X121341048Y-111338428D01*
X121631334Y-111338428D01*
X121767405Y-111411000D01*
X122302620Y-112354428D02*
X122493120Y-110830428D01*
X122520334Y-111773857D02*
X122883191Y-112354428D01*
X123010191Y-111338428D02*
X122357048Y-111919000D01*
D12*
X175844523Y-100731300D02*
X175874537Y-100710100D01*
X175248101Y-100977300D02*
X175283192Y-100970800D01*
X175035584Y-100998300D02*
X175071150Y-100997000D01*
X174787114Y-100983000D02*
X174822434Y-100987800D01*
X174409341Y-100873400D02*
X174442557Y-100887500D01*
X174247966Y-100790400D02*
X174279560Y-100808600D01*
X176071720Y-100541600D02*
X176097880Y-100514800D01*
X176097880Y-100514800D02*
X176123490Y-100487400D01*
X174751899Y-100977300D02*
X174787114Y-100983000D01*
X174543794Y-100925100D02*
X174578013Y-100935900D01*
X176045030Y-100567700D02*
X176071720Y-100541600D01*
X175990122Y-100617900D02*
X176017830Y-100593200D01*
X175814091Y-100751700D02*
X175844523Y-100731300D01*
X175961925Y-100642000D02*
X175990122Y-100617900D01*
X174928850Y-100997000D02*
X174964416Y-100998300D01*
X175318144Y-100963300D02*
X175352939Y-100955000D01*
X175933253Y-100665400D02*
X175961925Y-100642000D01*
X175106680Y-100994800D02*
X175142158Y-100991800D01*
X175142158Y-100991800D02*
X175177566Y-100987800D01*
X174857842Y-100991800D02*
X174893320Y-100994800D01*
X175071150Y-100997000D02*
X175106680Y-100994800D01*
X175904118Y-100688100D02*
X175933253Y-100665400D01*
X175456206Y-100925100D02*
X175490200Y-100913400D01*
X175874537Y-100710100D02*
X175904118Y-100688100D01*
X175783256Y-100771500D02*
X175814091Y-100751700D01*
X175752034Y-100790400D02*
X175783256Y-100771500D01*
X175623583Y-100858400D02*
X175656199Y-100842600D01*
X174578013Y-100935900D02*
X174612442Y-100945900D01*
X175387558Y-100945900D02*
X175421987Y-100935900D01*
X174376417Y-100858400D02*
X174409341Y-100873400D01*
X175352939Y-100955000D02*
X175387558Y-100945900D01*
X175283192Y-100970800D02*
X175318144Y-100963300D01*
X175212886Y-100983000D02*
X175248101Y-100977300D01*
X174647061Y-100955000D02*
X174681856Y-100963300D01*
X174893320Y-100994800D02*
X174928850Y-100997000D01*
X174822434Y-100987800D02*
X174857842Y-100991800D01*
X175720440Y-100808600D02*
X175752034Y-100790400D01*
X174612442Y-100945900D02*
X174647061Y-100955000D01*
X174311510Y-100826000D02*
X174343801Y-100842600D01*
X174681856Y-100963300D02*
X174716808Y-100970800D01*
X174343801Y-100842600D02*
X174376417Y-100858400D01*
X175177566Y-100987800D02*
X175212886Y-100983000D01*
X175688490Y-100826000D02*
X175720440Y-100808600D01*
X174716808Y-100970800D02*
X174751899Y-100977300D01*
X175656199Y-100842600D02*
X175688490Y-100826000D01*
X175490200Y-100913400D02*
X175523951Y-100900900D01*
X174509800Y-100913400D02*
X174543794Y-100925100D01*
X174964416Y-100998300D02*
X175000000Y-100998800D01*
X174279560Y-100808600D02*
X174311510Y-100826000D01*
X175421987Y-100935900D02*
X175456206Y-100925100D01*
X175523951Y-100900900D02*
X175557443Y-100887500D01*
X174442557Y-100887500D02*
X174476049Y-100900900D01*
X175000000Y-100998800D02*
X175035584Y-100998300D01*
X175557443Y-100887500D02*
X175590659Y-100873400D01*
X176017830Y-100593200D02*
X176045030Y-100567700D01*
X175590659Y-100873400D02*
X175623583Y-100858400D01*
X174476049Y-100900900D02*
X174509800Y-100913400D01*
X121071400Y-109698700D02*
X121096800Y-109672700D01*
X120541500Y-110050700D02*
X120573900Y-110037400D01*
X119965500Y-110155100D02*
X120000000Y-110155500D01*
X120342600Y-110114300D02*
X120376200Y-110105700D01*
X119759200Y-110135300D02*
X119793400Y-110140700D01*
X119590300Y-110096300D02*
X119623800Y-110105700D01*
X121045500Y-109724000D02*
X121071400Y-109698700D01*
X120103500Y-110151800D02*
X120137900Y-110148900D01*
X120069000Y-110153900D02*
X120103500Y-110151800D01*
X120034500Y-110155100D02*
X120069000Y-110153900D01*
X119896500Y-110151800D02*
X119931000Y-110153900D01*
X119268600Y-109959200D02*
X119299500Y-109976300D01*
X121019100Y-109748700D02*
X121045500Y-109724000D01*
X120240800Y-110135300D02*
X120274800Y-110129100D01*
X119557000Y-110086100D02*
X119590300Y-110096300D01*
X119238100Y-109941300D02*
X119268600Y-109959200D01*
X119491100Y-110063300D02*
X119524000Y-110075100D01*
X120606000Y-110023300D02*
X120637800Y-110008400D01*
X119207900Y-109922700D02*
X119238100Y-109941300D01*
X120992200Y-109772800D02*
X121019100Y-109748700D01*
X120409700Y-110096300D02*
X120443000Y-110086100D01*
X120443000Y-110086100D02*
X120476000Y-110075100D01*
X120172300Y-110145200D02*
X120206600Y-110140700D01*
X120731400Y-109959200D02*
X120761900Y-109941300D01*
X120376200Y-110105700D02*
X120409700Y-110096300D01*
X119119700Y-109862600D02*
X119148700Y-109883300D01*
X120964900Y-109796300D02*
X120992200Y-109772800D01*
X120937200Y-109819000D02*
X120964900Y-109796300D01*
X120909000Y-109841100D02*
X120937200Y-109819000D01*
X120880300Y-109862600D02*
X120909000Y-109841100D01*
X120851300Y-109883300D02*
X120880300Y-109862600D01*
X120669300Y-109992700D02*
X120700500Y-109976300D01*
X119931000Y-110153900D02*
X119965500Y-110155100D01*
X119725200Y-110129100D02*
X119759200Y-110135300D01*
X120637800Y-110008400D02*
X120669300Y-109992700D01*
X120573900Y-110037400D02*
X120606000Y-110023300D01*
X120508900Y-110063300D02*
X120541500Y-110050700D01*
X119394000Y-110023300D02*
X119426100Y-110037400D01*
X120206600Y-110140700D02*
X120240800Y-110135300D01*
X119330700Y-109992700D02*
X119362200Y-110008400D01*
X120137900Y-110148900D02*
X120172300Y-110145200D01*
X119691200Y-110122100D02*
X119725200Y-110129100D01*
X119524000Y-110075100D02*
X119557000Y-110086100D01*
X119657400Y-110114300D02*
X119691200Y-110122100D01*
X119362200Y-110008400D02*
X119394000Y-110023300D01*
X120792100Y-109922700D02*
X120821900Y-109903300D01*
X120761900Y-109941300D02*
X120792100Y-109922700D01*
X120476000Y-110075100D02*
X120508900Y-110063300D01*
X119299500Y-109976300D02*
X119330700Y-109992700D01*
X120700500Y-109976300D02*
X120731400Y-109959200D01*
X120274800Y-110129100D02*
X120308800Y-110122100D01*
X119862100Y-110148900D02*
X119896500Y-110151800D01*
X119623800Y-110105700D02*
X119657400Y-110114300D01*
X119458500Y-110050700D02*
X119491100Y-110063300D01*
X119426100Y-110037400D02*
X119458500Y-110050700D01*
X119091000Y-109841100D02*
X119119700Y-109862600D01*
X120308800Y-110122100D02*
X120342600Y-110114300D01*
X119793400Y-110140700D02*
X119827700Y-110145200D01*
X119062800Y-109819000D02*
X119091000Y-109841100D01*
X119148700Y-109883300D02*
X119178100Y-109903300D01*
X120821900Y-109903300D02*
X120851300Y-109883300D01*
X120000000Y-110155500D02*
X120034500Y-110155100D01*
X119178100Y-109903300D02*
X119207900Y-109922700D01*
X119827700Y-110145200D02*
X119862100Y-110148900D01*
X176327570Y-100214200D02*
X176347110Y-100181200D01*
X176220260Y-100371600D02*
X176242980Y-100341200D01*
X176196950Y-100401400D02*
X176220260Y-100371600D01*
X118451500Y-108826800D02*
X118460600Y-108863800D01*
X176265070Y-100310200D02*
X176286550Y-100278700D01*
X176527100Y-99752900D02*
X176537340Y-99715100D01*
X176401670Y-100079400D02*
X176418480Y-100044600D01*
X176148550Y-100459300D02*
X176173040Y-100430700D01*
X118460600Y-108863800D02*
X118470400Y-108900600D01*
X176577050Y-99522700D02*
X176582670Y-99483700D01*
X176537340Y-99715100D02*
X176546820Y-99677100D01*
X118573700Y-109184400D02*
X118589700Y-109218400D01*
X118954500Y-109724000D02*
X118980900Y-109748700D01*
X118980900Y-109748700D02*
X119007800Y-109772800D01*
X118928600Y-109698700D02*
X118954500Y-109724000D01*
X118762000Y-109504700D02*
X118784200Y-109534100D01*
X118903200Y-109672700D02*
X118928600Y-109698700D01*
X118878400Y-109646100D02*
X118903200Y-109672700D01*
X118854000Y-109619000D02*
X118878400Y-109646100D01*
X118830200Y-109591200D02*
X118854000Y-109619000D01*
X176478640Y-99901400D02*
X176491870Y-99864800D01*
X118558400Y-109150100D02*
X118573700Y-109184400D01*
X118492000Y-108973300D02*
X118503900Y-109009300D01*
X118435600Y-108752300D02*
X118443200Y-108789700D01*
X176563480Y-99600300D02*
X176570650Y-99561600D01*
X176434590Y-100009300D02*
X176450000Y-99973700D01*
X176464680Y-99937800D02*
X176478640Y-99901400D01*
X176384160Y-100113700D02*
X176401670Y-100079400D01*
X176347110Y-100181200D02*
X176365970Y-100147700D01*
X176418480Y-100044600D02*
X176434590Y-100009300D01*
X176504360Y-99827800D02*
X176516100Y-99790500D01*
X176173040Y-100430700D02*
X176196950Y-100401400D01*
X176242980Y-100341200D02*
X176265070Y-100310200D01*
X118443200Y-108789700D02*
X118451500Y-108826800D01*
X176516100Y-99790500D02*
X176527100Y-99752900D01*
X118806900Y-109563000D02*
X118830200Y-109591200D01*
X118543700Y-109115400D02*
X118558400Y-109150100D01*
X118784200Y-109534100D02*
X118806900Y-109563000D01*
X118719400Y-109444400D02*
X118740400Y-109474800D01*
X118699000Y-109413500D02*
X118719400Y-109444400D01*
X118529800Y-109080400D02*
X118543700Y-109115400D01*
X118660100Y-109350200D02*
X118679200Y-109382100D01*
X118623600Y-109285200D02*
X118641500Y-109317900D01*
X118606300Y-109252000D02*
X118623600Y-109285200D01*
X176307380Y-100246700D02*
X176327570Y-100214200D01*
X118503900Y-109009300D02*
X118516500Y-109045000D01*
X118470400Y-108900600D02*
X118480800Y-108937100D01*
X118428700Y-108714700D02*
X118435600Y-108752300D01*
X176546820Y-99677100D02*
X176555540Y-99638800D01*
X176123490Y-100487400D02*
X176148550Y-100459300D01*
X176570650Y-99561600D02*
X176577050Y-99522700D01*
X176491870Y-99864800D02*
X176504360Y-99827800D01*
X176286550Y-100278700D02*
X176307380Y-100246700D01*
X176365970Y-100147700D02*
X176384160Y-100113700D01*
X119035100Y-109796300D02*
X119062800Y-109819000D01*
X118589700Y-109218400D02*
X118606300Y-109252000D01*
X119007800Y-109772800D02*
X119035100Y-109796300D01*
X118740400Y-109474800D02*
X118762000Y-109504700D01*
X118480800Y-108937100D02*
X118492000Y-108973300D01*
X176555540Y-99638800D02*
X176563480Y-99600300D01*
X118679200Y-109382100D02*
X118699000Y-109413500D01*
X118641500Y-109317900D02*
X118660100Y-109350200D01*
X118516500Y-109045000D02*
X118529800Y-109080400D01*
X176450000Y-99973700D02*
X176464680Y-99937800D01*
X121441600Y-109150100D02*
X121456300Y-109115400D01*
X121358500Y-109317900D02*
X121376400Y-109285200D01*
X121339900Y-109350200D02*
X121358500Y-109317900D01*
X121393700Y-109252000D02*
X121410300Y-109218400D01*
X121496100Y-109009300D02*
X121508000Y-108973300D01*
X121301000Y-109413500D02*
X121320800Y-109382100D01*
X121121600Y-109646100D02*
X121146000Y-109619000D01*
X121548500Y-108826800D02*
X121556800Y-108789700D01*
X121564400Y-108752300D02*
X121571300Y-108714700D01*
X121519200Y-108937100D02*
X121529600Y-108900600D01*
X121215800Y-109534100D02*
X121238000Y-109504700D01*
X121539400Y-108863800D02*
X121548500Y-108826800D01*
X121483500Y-109045000D02*
X121496100Y-109009300D01*
X121456300Y-109115400D02*
X121470200Y-109080400D01*
X121508000Y-108973300D02*
X121519200Y-108937100D01*
X121146000Y-109619000D02*
X121169800Y-109591200D01*
X121320800Y-109382100D02*
X121339900Y-109350200D01*
X121376400Y-109285200D02*
X121393700Y-109252000D01*
X121426300Y-109184400D02*
X121441600Y-109150100D01*
X121259600Y-109474800D02*
X121280600Y-109444400D01*
X121280600Y-109444400D02*
X121301000Y-109413500D01*
X121556800Y-108789700D02*
X121564400Y-108752300D01*
X121410300Y-109218400D02*
X121426300Y-109184400D01*
X121470200Y-109080400D02*
X121483500Y-109045000D01*
X121169800Y-109591200D02*
X121193100Y-109563000D01*
X121096800Y-109672700D02*
X121121600Y-109646100D01*
X121238000Y-109504700D02*
X121259600Y-109474800D01*
X121529600Y-108900600D02*
X121539400Y-108863800D01*
X121193100Y-109563000D02*
X121215800Y-109534100D01*
X117936045Y-108299999D02*
G75*
G02X118428722Y-108714735I0J-500001D01*
G01*
X107750476Y-109800000D02*
G75*
G02X109250476Y-108300000I1500000J0D01*
G01*
X108250476Y-132350000D02*
X113014721Y-132350000D01*
X108250476Y-132350000D02*
G75*
G02X107750476Y-131850000I0J500000D01*
G01*
X117936045Y-108300000D02*
X109250476Y-108300000D01*
X107750476Y-109800000D02*
X107750476Y-131850000D01*
X113514721Y-131850000D02*
G75*
G02X113014721Y-132350000I-500000J0D01*
G01*
X174125463Y-100710100D02*
X174155477Y-100731300D01*
X173928280Y-100541600D02*
X173954970Y-100567700D01*
X174095882Y-100688100D02*
X174125463Y-100710100D01*
X174066747Y-100665400D02*
X174095882Y-100688100D01*
X174038075Y-100642000D02*
X174066747Y-100665400D01*
X173713450Y-100278700D02*
X173734930Y-100310200D01*
X173565410Y-100009300D02*
X173581520Y-100044600D01*
X173757020Y-100341200D02*
X173779740Y-100371600D01*
X174009878Y-100617900D02*
X174038075Y-100642000D01*
X173672430Y-100214200D02*
X173692620Y-100246700D01*
X173615840Y-100113700D02*
X173634030Y-100147700D01*
X173851450Y-100459300D02*
X173876510Y-100487400D01*
X173652890Y-100181200D02*
X173672430Y-100214200D01*
X174216744Y-100771500D02*
X174247966Y-100790400D01*
X174185909Y-100751700D02*
X174216744Y-100771500D01*
X174155477Y-100731300D02*
X174185909Y-100751700D01*
X173634030Y-100147700D02*
X173652890Y-100181200D01*
X173734930Y-100310200D02*
X173757020Y-100341200D01*
X173598330Y-100079400D02*
X173615840Y-100113700D01*
X173982170Y-100593200D02*
X174009878Y-100617900D01*
X173954970Y-100567700D02*
X173982170Y-100593200D01*
X173692620Y-100246700D02*
X173713450Y-100278700D01*
X173581520Y-100044600D02*
X173598330Y-100079400D01*
X173826960Y-100430700D02*
X173851450Y-100459300D01*
X173779740Y-100371600D02*
X173803050Y-100401400D01*
X173803050Y-100401400D02*
X173826960Y-100430700D01*
X173876510Y-100487400D02*
X173902120Y-100514800D01*
X173902120Y-100514800D02*
X173928280Y-100541600D01*
X126523615Y-132350000D02*
X131476385Y-132350000D01*
X172921746Y-99050000D02*
X156300000Y-99050000D01*
X172921746Y-99050000D02*
G75*
G02X173417335Y-99483729I0J-500000D01*
G01*
X170250000Y-128500000D02*
X179750000Y-128500000D01*
X173550000Y-99973700D02*
X173565410Y-100009300D01*
X173535320Y-99937800D02*
X173550000Y-99973700D01*
X173444460Y-99638800D02*
X173453180Y-99677100D01*
X125273615Y-129850000D02*
G75*
G02X126023615Y-130600000I0J-750000D01*
G01*
X173417330Y-99483700D02*
X173422950Y-99522700D01*
X156300000Y-106800000D02*
G75*
G02X154800000Y-108300000I-1500000J0D01*
G01*
X150249524Y-125789340D02*
G75*
G02X151749524Y-124289340I1500000J0D01*
G01*
X180250000Y-128000000D02*
X180250000Y-100550000D01*
X180250000Y-128000000D02*
G75*
G02X179750000Y-128500000I-500000J0D01*
G01*
X117296238Y-132350000D02*
X122370701Y-132350000D01*
X141203762Y-131850000D02*
X141203762Y-130600000D01*
X173521360Y-99901400D02*
X173535320Y-99937800D01*
X123620701Y-129850000D02*
X125273615Y-129850000D01*
X122870701Y-131850000D02*
G75*
G02X122370701Y-132350000I-500000J0D01*
G01*
X122870701Y-130600000D02*
G75*
G02X123620701Y-129850000I750000J0D01*
G01*
X173508130Y-99864800D02*
X173521360Y-99901400D01*
X132726385Y-129850000D02*
X134379299Y-129850000D01*
X173495640Y-99827800D02*
X173508130Y-99864800D01*
X173472900Y-99752900D02*
X173483900Y-99790500D01*
X173436520Y-99600300D02*
X173444460Y-99638800D01*
X173462660Y-99715100D02*
X173472900Y-99752900D01*
X173429350Y-99561600D02*
X173436520Y-99600300D01*
X113514721Y-130600000D02*
G75*
G02X114264721Y-129850000I750000J0D01*
G01*
X141203762Y-131850000D02*
G75*
G02X140703762Y-132350000I-500000J0D01*
G01*
X150249524Y-131850000D02*
G75*
G02X149749524Y-132350000I-500000J0D01*
G01*
X135129299Y-130600000D02*
X135129299Y-131850000D01*
X122870701Y-131850000D02*
X122870701Y-130600000D01*
X134379299Y-129850000D02*
G75*
G02X135129299Y-130600000I0J-750000D01*
G01*
X173422950Y-99522700D02*
X173429350Y-99561600D01*
X144985279Y-132350000D02*
X149749524Y-132350000D01*
X143735279Y-129850000D02*
G75*
G02X144485279Y-130600000I0J-750000D01*
G01*
X135629299Y-132350000D02*
X140703762Y-132350000D01*
X156300000Y-99050000D02*
X156300000Y-106800000D01*
X169750000Y-125789340D02*
X169750000Y-128000000D01*
X131976385Y-131850000D02*
G75*
G02X131476385Y-132350000I-500000J0D01*
G01*
X126023615Y-130600000D02*
X126023615Y-131850000D01*
X150249524Y-131850000D02*
X150249524Y-125789340D01*
X173453180Y-99677100D02*
X173462660Y-99715100D01*
X178750000Y-99050000D02*
G75*
G02X180250000Y-100550000I0J-1500000D01*
G01*
X126523615Y-132350000D02*
G75*
G02X126023615Y-131850000I0J500000D01*
G01*
X116796238Y-130600000D02*
X116796238Y-131850000D01*
X176582665Y-99483729D02*
G75*
G02X177078254Y-99050000I495589J-66271D01*
G01*
X178750000Y-99050000D02*
X177078254Y-99050000D01*
X170250000Y-128500000D02*
G75*
G02X169750000Y-128000000I0J500000D01*
G01*
X168250000Y-124289340D02*
G75*
G02X169750000Y-125789340I0J-1500000D01*
G01*
X135629299Y-132350000D02*
G75*
G02X135129299Y-131850000I0J500000D01*
G01*
X131976385Y-130600000D02*
G75*
G02X132726385Y-129850000I750000J0D01*
G01*
X116046238Y-129850000D02*
G75*
G02X116796238Y-130600000I0J-750000D01*
G01*
X141953762Y-129850000D02*
X143735279Y-129850000D01*
X141203762Y-130600000D02*
G75*
G02X141953762Y-129850000I750000J0D01*
G01*
X114264721Y-129850000D02*
X116046238Y-129850000D01*
X117296238Y-132350000D02*
G75*
G02X116796238Y-131850000I0J500000D01*
G01*
X131976385Y-131850000D02*
X131976385Y-130600000D01*
X151749524Y-124289340D02*
X168250000Y-124289340D01*
X173483900Y-99790500D02*
X173495640Y-99827800D01*
X121571279Y-108714735D02*
G75*
G02X122063955Y-108300000I492676J-85265D01*
G01*
X113514721Y-131850000D02*
X113514721Y-130600000D01*
X154800000Y-108300000D02*
X122063955Y-108300000D01*
X144985279Y-132350000D02*
G75*
G02X144485279Y-131850000I0J500000D01*
G01*
X144485279Y-130600000D02*
X144485279Y-131850000D01*
D13*
X162448492Y-114956020D02*
X162300000Y-114807527D01*
X162151508Y-118533980D02*
X162300000Y-118682473D01*
X162300000Y-118682473D02*
X162625269Y-118357203D01*
X160362527Y-116745000D02*
X160687797Y-116419731D01*
X160511020Y-116893492D02*
X160362527Y-116745000D01*
X164088980Y-116596508D02*
X164237473Y-116745000D01*
X164237473Y-116745000D02*
X163912203Y-117070269D01*
X158365000Y-116916267D02*
X158365000Y-116573733D01*
X157345000Y-116916267D02*
X157345000Y-116573733D01*
X150795000Y-117006252D02*
X150795000Y-116483748D01*
X152215000Y-117006252D02*
X152215000Y-116483748D01*
X153535000Y-116916267D02*
X153535000Y-116573733D01*
X154555000Y-116916267D02*
X154555000Y-116573733D01*
D14*
X128000000Y-131050000D02*
X128150000Y-131050000D01*
X128950000Y-131050000D02*
X129050000Y-131050000D01*
X129850000Y-131050000D02*
X130000000Y-131050000D01*
X130000000Y-131450000D02*
X128000000Y-131450000D01*
X130000000Y-131450000D02*
G75*
G02X128000000Y-131450000I-1000000J0D01*
G01*
X120833000Y-131450000D02*
G75*
G02X118833000Y-131450000I-1000000J0D01*
G01*
X120833000Y-131450000D02*
X118833000Y-131450000D01*
X120683000Y-131050000D02*
X120833000Y-131050000D01*
X119783000Y-131050000D02*
X119883000Y-131050000D01*
X118833000Y-131050000D02*
X118983000Y-131050000D01*
X109633000Y-131050000D02*
X109783000Y-131050000D01*
X110583000Y-131050000D02*
X110683000Y-131050000D01*
X111483000Y-131050000D02*
X111633000Y-131050000D01*
X111633000Y-131450000D02*
X109633000Y-131450000D01*
X111633000Y-131450000D02*
G75*
G02X109633000Y-131450000I-1000000J0D01*
G01*
X139167000Y-131450000D02*
G75*
G02X137167000Y-131450000I-1000000J0D01*
G01*
X139167000Y-131450000D02*
X137167000Y-131450000D01*
X139017000Y-131050000D02*
X139167000Y-131050000D01*
X138117000Y-131050000D02*
X138217000Y-131050000D01*
X137167000Y-131050000D02*
X137317000Y-131050000D01*
X146367000Y-131050000D02*
X146517000Y-131050000D01*
X147317000Y-131050000D02*
X147417000Y-131050000D01*
X148217000Y-131050000D02*
X148367000Y-131050000D01*
X148367000Y-131450000D02*
X146367000Y-131450000D01*
X148367000Y-131450000D02*
G75*
G02X146367000Y-131450000I-1000000J0D01*
G01*
D15*
X176000000Y-122600000D02*
X179500000Y-122600000D01*
X170500000Y-122600000D02*
X174000000Y-122600000D01*
X170500000Y-125850000D02*
X170500000Y-125100000D01*
X179500000Y-125850000D02*
X179500000Y-125100000D01*
X179500000Y-128350000D02*
X170500000Y-128350000D01*
D13*
X169190000Y-99060000D02*
X169190000Y-107690000D01*
X169071905Y-99060000D02*
X169071905Y-107690000D01*
X168953810Y-99060000D02*
X168953810Y-107690000D01*
X168835715Y-99060000D02*
X168835715Y-107690000D01*
X168717620Y-99060000D02*
X168717620Y-107690000D01*
X168599525Y-99060000D02*
X168599525Y-107690000D01*
X168481430Y-99060000D02*
X168481430Y-107690000D01*
X168363335Y-99060000D02*
X168363335Y-107690000D01*
X168245240Y-99060000D02*
X168245240Y-107690000D01*
X168127145Y-99060000D02*
X168127145Y-107690000D01*
X168009050Y-99060000D02*
X168009050Y-107690000D01*
X167890955Y-99060000D02*
X167890955Y-107690000D01*
X167772860Y-99060000D02*
X167772860Y-107690000D01*
X167654765Y-99060000D02*
X167654765Y-107690000D01*
X167536670Y-99060000D02*
X167536670Y-107690000D01*
X167418575Y-99060000D02*
X167418575Y-107690000D01*
X167300480Y-99060000D02*
X167300480Y-107690000D01*
X167182385Y-99060000D02*
X167182385Y-107690000D01*
X167064290Y-99060000D02*
X167064290Y-107690000D01*
X166946195Y-99060000D02*
X166946195Y-107690000D01*
X166828100Y-99060000D02*
X166828100Y-107690000D01*
X168340000Y-107690000D02*
X168340000Y-108100000D01*
X168340000Y-110200000D02*
X168340000Y-110580000D01*
X167620000Y-107690000D02*
X167620000Y-108100000D01*
X167620000Y-110200000D02*
X167620000Y-110580000D01*
X165800000Y-107690000D02*
X165800000Y-108100000D01*
X165800000Y-110200000D02*
X165800000Y-110640000D01*
X165080000Y-107690000D02*
X165080000Y-108100000D01*
X165080000Y-110200000D02*
X165080000Y-110640000D01*
X163260000Y-107690000D02*
X163260000Y-108100000D01*
X163260000Y-110200000D02*
X163260000Y-110640000D01*
X162540000Y-107690000D02*
X162540000Y-108100000D01*
X162540000Y-110200000D02*
X162540000Y-110640000D01*
X160720000Y-107690000D02*
X160720000Y-108100000D01*
X160720000Y-110200000D02*
X160720000Y-110640000D01*
X160000000Y-107690000D02*
X160000000Y-108100000D01*
X160000000Y-110200000D02*
X160000000Y-110640000D01*
X158180000Y-107690000D02*
X158180000Y-108100000D01*
X158180000Y-110200000D02*
X158180000Y-110640000D01*
X157460000Y-107690000D02*
X157460000Y-108100000D01*
X157460000Y-110200000D02*
X157460000Y-110640000D01*
X166710000Y-99060000D02*
X166710000Y-107690000D01*
X164170000Y-99060000D02*
X164170000Y-107690000D01*
X161630000Y-99060000D02*
X161630000Y-107690000D01*
X159090000Y-99060000D02*
X159090000Y-107690000D01*
X169310000Y-99060000D02*
X169310000Y-107690000D01*
X169310000Y-107690000D02*
X156490000Y-107690000D01*
X156490000Y-99060000D02*
X156490000Y-107690000D01*
X169310000Y-99060000D02*
X156490000Y-99060000D01*
X169310000Y-112800000D02*
X167980000Y-112800000D01*
X169310000Y-111690000D02*
X169310000Y-112800000D01*
X156460000Y-116916267D02*
X156460000Y-116573733D01*
X155440000Y-116916267D02*
X155440000Y-116573733D01*
X135120000Y-123901267D02*
X135120000Y-123558733D01*
X136140000Y-123901267D02*
X136140000Y-123558733D01*
X133215000Y-123901267D02*
X133215000Y-123558733D01*
X134235000Y-123901267D02*
X134235000Y-123558733D01*
X132330000Y-123901267D02*
X132330000Y-123558733D01*
X131310000Y-123901267D02*
X131310000Y-123558733D01*
X129405000Y-123901267D02*
X129405000Y-123558733D01*
X130425000Y-123901267D02*
X130425000Y-123558733D01*
X128520000Y-123901267D02*
X128520000Y-123558733D01*
X127500000Y-123901267D02*
X127500000Y-123558733D01*
X125595000Y-123901267D02*
X125595000Y-123558733D01*
X126615000Y-123901267D02*
X126615000Y-123558733D01*
X113915000Y-123901267D02*
X113915000Y-123558733D01*
X112895000Y-123901267D02*
X112895000Y-123558733D01*
X112010000Y-123901267D02*
X112010000Y-123558733D01*
X110990000Y-123901267D02*
X110990000Y-123558733D01*
X109085000Y-123901267D02*
X109085000Y-123558733D01*
X110105000Y-123901267D02*
X110105000Y-123558733D01*
X140835000Y-123901267D02*
X140835000Y-123558733D01*
X141855000Y-123901267D02*
X141855000Y-123558733D01*
X138930000Y-123901267D02*
X138930000Y-123558733D01*
X139950000Y-123901267D02*
X139950000Y-123558733D01*
X138045000Y-123901267D02*
X138045000Y-123558733D01*
X137025000Y-123901267D02*
X137025000Y-123558733D01*
X147570000Y-123901267D02*
X147570000Y-123558733D01*
X146550000Y-123901267D02*
X146550000Y-123558733D01*
X145665000Y-123901267D02*
X145665000Y-123558733D01*
X144645000Y-123901267D02*
X144645000Y-123558733D01*
X142740000Y-123901267D02*
X142740000Y-123558733D01*
X143760000Y-123901267D02*
X143760000Y-123558733D01*
D16*
X149241000Y-114420000D02*
X149016000Y-114420000D01*
X149241000Y-119070000D02*
X148916000Y-119070000D01*
X139291000Y-119070000D02*
X139616000Y-119070000D01*
X139291000Y-114420000D02*
X139616000Y-114420000D01*
X149241000Y-114420000D02*
X149241000Y-119070000D01*
X139291000Y-114420000D02*
X139291000Y-119070000D01*
X149016000Y-114420000D02*
X149016000Y-113345000D01*
X163916244Y-114051259D02*
X163343824Y-114623679D01*
X163310152Y-114724694D01*
X163310152Y-114792038D01*
X163343824Y-114893053D01*
X163478511Y-115027740D01*
X163579526Y-115061412D01*
X163646870Y-115061412D01*
X163747885Y-115027740D01*
X164320305Y-114455320D01*
X164320305Y-115869534D02*
X163916244Y-115465473D01*
X164118274Y-115667503D02*
X164825381Y-114960397D01*
X164657022Y-114994068D01*
X164522335Y-114994068D01*
X164421320Y-114960397D01*
X158212142Y-120086666D02*
X158259761Y-120134285D01*
X158307380Y-120277142D01*
X158307380Y-120372380D01*
X158259761Y-120515238D01*
X158164523Y-120610476D01*
X158069285Y-120658095D01*
X157878809Y-120705714D01*
X157735952Y-120705714D01*
X157545476Y-120658095D01*
X157450238Y-120610476D01*
X157355000Y-120515238D01*
X157307380Y-120372380D01*
X157307380Y-120277142D01*
X157355000Y-120134285D01*
X157402619Y-120086666D01*
X158307380Y-119134285D02*
X158307380Y-119705714D01*
X158307380Y-119420000D02*
X157307380Y-119420000D01*
X157450238Y-119515238D01*
X157545476Y-119610476D01*
X157593095Y-119705714D01*
X151862142Y-120086666D02*
X151909761Y-120134285D01*
X151957380Y-120277142D01*
X151957380Y-120372380D01*
X151909761Y-120515238D01*
X151814523Y-120610476D01*
X151719285Y-120658095D01*
X151528809Y-120705714D01*
X151385952Y-120705714D01*
X151195476Y-120658095D01*
X151100238Y-120610476D01*
X151005000Y-120515238D01*
X150957380Y-120372380D01*
X150957380Y-120277142D01*
X151005000Y-120134285D01*
X151052619Y-120086666D01*
X151052619Y-119705714D02*
X151005000Y-119658095D01*
X150957380Y-119562857D01*
X150957380Y-119324761D01*
X151005000Y-119229523D01*
X151052619Y-119181904D01*
X151147857Y-119134285D01*
X151243095Y-119134285D01*
X151385952Y-119181904D01*
X151957380Y-119753333D01*
X151957380Y-119134285D01*
X154402142Y-120086666D02*
X154449761Y-120134285D01*
X154497380Y-120277142D01*
X154497380Y-120372380D01*
X154449761Y-120515238D01*
X154354523Y-120610476D01*
X154259285Y-120658095D01*
X154068809Y-120705714D01*
X153925952Y-120705714D01*
X153735476Y-120658095D01*
X153640238Y-120610476D01*
X153545000Y-120515238D01*
X153497380Y-120372380D01*
X153497380Y-120277142D01*
X153545000Y-120134285D01*
X153592619Y-120086666D01*
X153497380Y-119753333D02*
X153497380Y-119134285D01*
X153878333Y-119467619D01*
X153878333Y-119324761D01*
X153925952Y-119229523D01*
X153973571Y-119181904D01*
X154068809Y-119134285D01*
X154306904Y-119134285D01*
X154402142Y-119181904D01*
X154449761Y-119229523D01*
X154497380Y-119324761D01*
X154497380Y-119610476D01*
X154449761Y-119705714D01*
X154402142Y-119753333D01*
X128261904Y-129897380D02*
X128261904Y-128897380D01*
X128500000Y-128897380D01*
X128642857Y-128945000D01*
X128738095Y-129040238D01*
X128785714Y-129135476D01*
X128833333Y-129325952D01*
X128833333Y-129468809D01*
X128785714Y-129659285D01*
X128738095Y-129754523D01*
X128642857Y-129849761D01*
X128500000Y-129897380D01*
X128261904Y-129897380D01*
X129785714Y-129897380D02*
X129214285Y-129897380D01*
X129500000Y-129897380D02*
X129500000Y-128897380D01*
X129404761Y-129040238D01*
X129309523Y-129135476D01*
X129214285Y-129183095D01*
X119016904Y-129897380D02*
X119016904Y-128897380D01*
X119255000Y-128897380D01*
X119397857Y-128945000D01*
X119493095Y-129040238D01*
X119540714Y-129135476D01*
X119588333Y-129325952D01*
X119588333Y-129468809D01*
X119540714Y-129659285D01*
X119493095Y-129754523D01*
X119397857Y-129849761D01*
X119255000Y-129897380D01*
X119016904Y-129897380D01*
X119969285Y-128992619D02*
X120016904Y-128945000D01*
X120112142Y-128897380D01*
X120350238Y-128897380D01*
X120445476Y-128945000D01*
X120493095Y-128992619D01*
X120540714Y-129087857D01*
X120540714Y-129183095D01*
X120493095Y-129325952D01*
X119921666Y-129897380D01*
X120540714Y-129897380D01*
X109894904Y-129897380D02*
X109894904Y-128897380D01*
X110133000Y-128897380D01*
X110275857Y-128945000D01*
X110371095Y-129040238D01*
X110418714Y-129135476D01*
X110466333Y-129325952D01*
X110466333Y-129468809D01*
X110418714Y-129659285D01*
X110371095Y-129754523D01*
X110275857Y-129849761D01*
X110133000Y-129897380D01*
X109894904Y-129897380D01*
X110799666Y-128897380D02*
X111418714Y-128897380D01*
X111085380Y-129278333D01*
X111228238Y-129278333D01*
X111323476Y-129325952D01*
X111371095Y-129373571D01*
X111418714Y-129468809D01*
X111418714Y-129706904D01*
X111371095Y-129802142D01*
X111323476Y-129849761D01*
X111228238Y-129897380D01*
X110942523Y-129897380D01*
X110847285Y-129849761D01*
X110799666Y-129802142D01*
X137428904Y-129897380D02*
X137428904Y-128897380D01*
X137667000Y-128897380D01*
X137809857Y-128945000D01*
X137905095Y-129040238D01*
X137952714Y-129135476D01*
X138000333Y-129325952D01*
X138000333Y-129468809D01*
X137952714Y-129659285D01*
X137905095Y-129754523D01*
X137809857Y-129849761D01*
X137667000Y-129897380D01*
X137428904Y-129897380D01*
X138857476Y-129230714D02*
X138857476Y-129897380D01*
X138619380Y-128849761D02*
X138381285Y-129564047D01*
X139000333Y-129564047D01*
X146628904Y-129897380D02*
X146628904Y-128897380D01*
X146867000Y-128897380D01*
X147009857Y-128945000D01*
X147105095Y-129040238D01*
X147152714Y-129135476D01*
X147200333Y-129325952D01*
X147200333Y-129468809D01*
X147152714Y-129659285D01*
X147105095Y-129754523D01*
X147009857Y-129849761D01*
X146867000Y-129897380D01*
X146628904Y-129897380D01*
X148105095Y-128897380D02*
X147628904Y-128897380D01*
X147581285Y-129373571D01*
X147628904Y-129325952D01*
X147724142Y-129278333D01*
X147962238Y-129278333D01*
X148057476Y-129325952D01*
X148105095Y-129373571D01*
X148152714Y-129468809D01*
X148152714Y-129706904D01*
X148105095Y-129802142D01*
X148057476Y-129849761D01*
X147962238Y-129897380D01*
X147724142Y-129897380D01*
X147628904Y-129849761D01*
X147581285Y-129802142D01*
X174638666Y-124681380D02*
X174638666Y-125395666D01*
X174591047Y-125538523D01*
X174495809Y-125633761D01*
X174352952Y-125681380D01*
X174257714Y-125681380D01*
X175638666Y-125681380D02*
X175067238Y-125681380D01*
X175352952Y-125681380D02*
X175352952Y-124681380D01*
X175257714Y-124824238D01*
X175162476Y-124919476D01*
X175067238Y-124967095D01*
X162601666Y-106037380D02*
X162601666Y-106751666D01*
X162554047Y-106894523D01*
X162458809Y-106989761D01*
X162315952Y-107037380D01*
X162220714Y-107037380D01*
X163030238Y-106132619D02*
X163077857Y-106085000D01*
X163173095Y-106037380D01*
X163411190Y-106037380D01*
X163506428Y-106085000D01*
X163554047Y-106132619D01*
X163601666Y-106227857D01*
X163601666Y-106323095D01*
X163554047Y-106465952D01*
X162982619Y-107037380D01*
X163601666Y-107037380D01*
X156402380Y-120086666D02*
X155926190Y-120420000D01*
X156402380Y-120658095D02*
X155402380Y-120658095D01*
X155402380Y-120277142D01*
X155450000Y-120181904D01*
X155497619Y-120134285D01*
X155592857Y-120086666D01*
X155735714Y-120086666D01*
X155830952Y-120134285D01*
X155878571Y-120181904D01*
X155926190Y-120277142D01*
X155926190Y-120658095D01*
X156402380Y-119134285D02*
X156402380Y-119705714D01*
X156402380Y-119420000D02*
X155402380Y-119420000D01*
X155545238Y-119515238D01*
X155640476Y-119610476D01*
X155688095Y-119705714D01*
X136082380Y-126436666D02*
X135606190Y-126770000D01*
X136082380Y-127008095D02*
X135082380Y-127008095D01*
X135082380Y-126627142D01*
X135130000Y-126531904D01*
X135177619Y-126484285D01*
X135272857Y-126436666D01*
X135415714Y-126436666D01*
X135510952Y-126484285D01*
X135558571Y-126531904D01*
X135606190Y-126627142D01*
X135606190Y-127008095D01*
X135177619Y-126055714D02*
X135130000Y-126008095D01*
X135082380Y-125912857D01*
X135082380Y-125674761D01*
X135130000Y-125579523D01*
X135177619Y-125531904D01*
X135272857Y-125484285D01*
X135368095Y-125484285D01*
X135510952Y-125531904D01*
X136082380Y-126103333D01*
X136082380Y-125484285D01*
X134177380Y-126436666D02*
X133701190Y-126770000D01*
X134177380Y-127008095D02*
X133177380Y-127008095D01*
X133177380Y-126627142D01*
X133225000Y-126531904D01*
X133272619Y-126484285D01*
X133367857Y-126436666D01*
X133510714Y-126436666D01*
X133605952Y-126484285D01*
X133653571Y-126531904D01*
X133701190Y-126627142D01*
X133701190Y-127008095D01*
X133177380Y-126103333D02*
X133177380Y-125484285D01*
X133558333Y-125817619D01*
X133558333Y-125674761D01*
X133605952Y-125579523D01*
X133653571Y-125531904D01*
X133748809Y-125484285D01*
X133986904Y-125484285D01*
X134082142Y-125531904D01*
X134129761Y-125579523D01*
X134177380Y-125674761D01*
X134177380Y-125960476D01*
X134129761Y-126055714D01*
X134082142Y-126103333D01*
X132272380Y-126436666D02*
X131796190Y-126770000D01*
X132272380Y-127008095D02*
X131272380Y-127008095D01*
X131272380Y-126627142D01*
X131320000Y-126531904D01*
X131367619Y-126484285D01*
X131462857Y-126436666D01*
X131605714Y-126436666D01*
X131700952Y-126484285D01*
X131748571Y-126531904D01*
X131796190Y-126627142D01*
X131796190Y-127008095D01*
X131605714Y-125579523D02*
X132272380Y-125579523D01*
X131224761Y-125817619D02*
X131939047Y-126055714D01*
X131939047Y-125436666D01*
X130367380Y-126436666D02*
X129891190Y-126770000D01*
X130367380Y-127008095D02*
X129367380Y-127008095D01*
X129367380Y-126627142D01*
X129415000Y-126531904D01*
X129462619Y-126484285D01*
X129557857Y-126436666D01*
X129700714Y-126436666D01*
X129795952Y-126484285D01*
X129843571Y-126531904D01*
X129891190Y-126627142D01*
X129891190Y-127008095D01*
X129367380Y-125531904D02*
X129367380Y-126008095D01*
X129843571Y-126055714D01*
X129795952Y-126008095D01*
X129748333Y-125912857D01*
X129748333Y-125674761D01*
X129795952Y-125579523D01*
X129843571Y-125531904D01*
X129938809Y-125484285D01*
X130176904Y-125484285D01*
X130272142Y-125531904D01*
X130319761Y-125579523D01*
X130367380Y-125674761D01*
X130367380Y-125912857D01*
X130319761Y-126008095D01*
X130272142Y-126055714D01*
X128462380Y-126436666D02*
X127986190Y-126770000D01*
X128462380Y-127008095D02*
X127462380Y-127008095D01*
X127462380Y-126627142D01*
X127510000Y-126531904D01*
X127557619Y-126484285D01*
X127652857Y-126436666D01*
X127795714Y-126436666D01*
X127890952Y-126484285D01*
X127938571Y-126531904D01*
X127986190Y-126627142D01*
X127986190Y-127008095D01*
X127462380Y-125579523D02*
X127462380Y-125770000D01*
X127510000Y-125865238D01*
X127557619Y-125912857D01*
X127700476Y-126008095D01*
X127890952Y-126055714D01*
X128271904Y-126055714D01*
X128367142Y-126008095D01*
X128414761Y-125960476D01*
X128462380Y-125865238D01*
X128462380Y-125674761D01*
X128414761Y-125579523D01*
X128367142Y-125531904D01*
X128271904Y-125484285D01*
X128033809Y-125484285D01*
X127938571Y-125531904D01*
X127890952Y-125579523D01*
X127843333Y-125674761D01*
X127843333Y-125865238D01*
X127890952Y-125960476D01*
X127938571Y-126008095D01*
X128033809Y-126055714D01*
X126557380Y-126436666D02*
X126081190Y-126770000D01*
X126557380Y-127008095D02*
X125557380Y-127008095D01*
X125557380Y-126627142D01*
X125605000Y-126531904D01*
X125652619Y-126484285D01*
X125747857Y-126436666D01*
X125890714Y-126436666D01*
X125985952Y-126484285D01*
X126033571Y-126531904D01*
X126081190Y-126627142D01*
X126081190Y-127008095D01*
X125557380Y-126103333D02*
X125557380Y-125436666D01*
X126557380Y-125865238D01*
X113857380Y-126436666D02*
X113381190Y-126770000D01*
X113857380Y-127008095D02*
X112857380Y-127008095D01*
X112857380Y-126627142D01*
X112905000Y-126531904D01*
X112952619Y-126484285D01*
X113047857Y-126436666D01*
X113190714Y-126436666D01*
X113285952Y-126484285D01*
X113333571Y-126531904D01*
X113381190Y-126627142D01*
X113381190Y-127008095D01*
X113285952Y-125865238D02*
X113238333Y-125960476D01*
X113190714Y-126008095D01*
X113095476Y-126055714D01*
X113047857Y-126055714D01*
X112952619Y-126008095D01*
X112905000Y-125960476D01*
X112857380Y-125865238D01*
X112857380Y-125674761D01*
X112905000Y-125579523D01*
X112952619Y-125531904D01*
X113047857Y-125484285D01*
X113095476Y-125484285D01*
X113190714Y-125531904D01*
X113238333Y-125579523D01*
X113285952Y-125674761D01*
X113285952Y-125865238D01*
X113333571Y-125960476D01*
X113381190Y-126008095D01*
X113476428Y-126055714D01*
X113666904Y-126055714D01*
X113762142Y-126008095D01*
X113809761Y-125960476D01*
X113857380Y-125865238D01*
X113857380Y-125674761D01*
X113809761Y-125579523D01*
X113762142Y-125531904D01*
X113666904Y-125484285D01*
X113476428Y-125484285D01*
X113381190Y-125531904D01*
X113333571Y-125579523D01*
X113285952Y-125674761D01*
X111952380Y-126436666D02*
X111476190Y-126770000D01*
X111952380Y-127008095D02*
X110952380Y-127008095D01*
X110952380Y-126627142D01*
X111000000Y-126531904D01*
X111047619Y-126484285D01*
X111142857Y-126436666D01*
X111285714Y-126436666D01*
X111380952Y-126484285D01*
X111428571Y-126531904D01*
X111476190Y-126627142D01*
X111476190Y-127008095D01*
X111952380Y-125960476D02*
X111952380Y-125770000D01*
X111904761Y-125674761D01*
X111857142Y-125627142D01*
X111714285Y-125531904D01*
X111523809Y-125484285D01*
X111142857Y-125484285D01*
X111047619Y-125531904D01*
X111000000Y-125579523D01*
X110952380Y-125674761D01*
X110952380Y-125865238D01*
X111000000Y-125960476D01*
X111047619Y-126008095D01*
X111142857Y-126055714D01*
X111380952Y-126055714D01*
X111476190Y-126008095D01*
X111523809Y-125960476D01*
X111571428Y-125865238D01*
X111571428Y-125674761D01*
X111523809Y-125579523D01*
X111476190Y-125531904D01*
X111380952Y-125484285D01*
X110047380Y-127547857D02*
X109571190Y-127881190D01*
X110047380Y-128119285D02*
X109047380Y-128119285D01*
X109047380Y-127738333D01*
X109095000Y-127643095D01*
X109142619Y-127595476D01*
X109237857Y-127547857D01*
X109380714Y-127547857D01*
X109475952Y-127595476D01*
X109523571Y-127643095D01*
X109571190Y-127738333D01*
X109571190Y-128119285D01*
X110047380Y-126595476D02*
X110047380Y-127166904D01*
X110047380Y-126881190D02*
X109047380Y-126881190D01*
X109190238Y-126976428D01*
X109285476Y-127071666D01*
X109333095Y-127166904D01*
X109047380Y-125976428D02*
X109047380Y-125881190D01*
X109095000Y-125785952D01*
X109142619Y-125738333D01*
X109237857Y-125690714D01*
X109428333Y-125643095D01*
X109666428Y-125643095D01*
X109856904Y-125690714D01*
X109952142Y-125738333D01*
X109999761Y-125785952D01*
X110047380Y-125881190D01*
X110047380Y-125976428D01*
X109999761Y-126071666D01*
X109952142Y-126119285D01*
X109856904Y-126166904D01*
X109666428Y-126214523D01*
X109428333Y-126214523D01*
X109237857Y-126166904D01*
X109142619Y-126119285D01*
X109095000Y-126071666D01*
X109047380Y-125976428D01*
X141797380Y-127547857D02*
X141321190Y-127881190D01*
X141797380Y-128119285D02*
X140797380Y-128119285D01*
X140797380Y-127738333D01*
X140845000Y-127643095D01*
X140892619Y-127595476D01*
X140987857Y-127547857D01*
X141130714Y-127547857D01*
X141225952Y-127595476D01*
X141273571Y-127643095D01*
X141321190Y-127738333D01*
X141321190Y-128119285D01*
X141797380Y-126595476D02*
X141797380Y-127166904D01*
X141797380Y-126881190D02*
X140797380Y-126881190D01*
X140940238Y-126976428D01*
X141035476Y-127071666D01*
X141083095Y-127166904D01*
X141797380Y-125643095D02*
X141797380Y-126214523D01*
X141797380Y-125928809D02*
X140797380Y-125928809D01*
X140940238Y-126024047D01*
X141035476Y-126119285D01*
X141083095Y-126214523D01*
X139892380Y-127547857D02*
X139416190Y-127881190D01*
X139892380Y-128119285D02*
X138892380Y-128119285D01*
X138892380Y-127738333D01*
X138940000Y-127643095D01*
X138987619Y-127595476D01*
X139082857Y-127547857D01*
X139225714Y-127547857D01*
X139320952Y-127595476D01*
X139368571Y-127643095D01*
X139416190Y-127738333D01*
X139416190Y-128119285D01*
X139892380Y-126595476D02*
X139892380Y-127166904D01*
X139892380Y-126881190D02*
X138892380Y-126881190D01*
X139035238Y-126976428D01*
X139130476Y-127071666D01*
X139178095Y-127166904D01*
X138987619Y-126214523D02*
X138940000Y-126166904D01*
X138892380Y-126071666D01*
X138892380Y-125833571D01*
X138940000Y-125738333D01*
X138987619Y-125690714D01*
X139082857Y-125643095D01*
X139178095Y-125643095D01*
X139320952Y-125690714D01*
X139892380Y-126262142D01*
X139892380Y-125643095D01*
X137987380Y-127547857D02*
X137511190Y-127881190D01*
X137987380Y-128119285D02*
X136987380Y-128119285D01*
X136987380Y-127738333D01*
X137035000Y-127643095D01*
X137082619Y-127595476D01*
X137177857Y-127547857D01*
X137320714Y-127547857D01*
X137415952Y-127595476D01*
X137463571Y-127643095D01*
X137511190Y-127738333D01*
X137511190Y-128119285D01*
X137987380Y-126595476D02*
X137987380Y-127166904D01*
X137987380Y-126881190D02*
X136987380Y-126881190D01*
X137130238Y-126976428D01*
X137225476Y-127071666D01*
X137273095Y-127166904D01*
X136987380Y-126262142D02*
X136987380Y-125643095D01*
X137368333Y-125976428D01*
X137368333Y-125833571D01*
X137415952Y-125738333D01*
X137463571Y-125690714D01*
X137558809Y-125643095D01*
X137796904Y-125643095D01*
X137892142Y-125690714D01*
X137939761Y-125738333D01*
X137987380Y-125833571D01*
X137987380Y-126119285D01*
X137939761Y-126214523D01*
X137892142Y-126262142D01*
X147512380Y-127547857D02*
X147036190Y-127881190D01*
X147512380Y-128119285D02*
X146512380Y-128119285D01*
X146512380Y-127738333D01*
X146560000Y-127643095D01*
X146607619Y-127595476D01*
X146702857Y-127547857D01*
X146845714Y-127547857D01*
X146940952Y-127595476D01*
X146988571Y-127643095D01*
X147036190Y-127738333D01*
X147036190Y-128119285D01*
X147512380Y-126595476D02*
X147512380Y-127166904D01*
X147512380Y-126881190D02*
X146512380Y-126881190D01*
X146655238Y-126976428D01*
X146750476Y-127071666D01*
X146798095Y-127166904D01*
X146845714Y-125738333D02*
X147512380Y-125738333D01*
X146464761Y-125976428D02*
X147179047Y-126214523D01*
X147179047Y-125595476D01*
X145607380Y-127547857D02*
X145131190Y-127881190D01*
X145607380Y-128119285D02*
X144607380Y-128119285D01*
X144607380Y-127738333D01*
X144655000Y-127643095D01*
X144702619Y-127595476D01*
X144797857Y-127547857D01*
X144940714Y-127547857D01*
X145035952Y-127595476D01*
X145083571Y-127643095D01*
X145131190Y-127738333D01*
X145131190Y-128119285D01*
X145607380Y-126595476D02*
X145607380Y-127166904D01*
X145607380Y-126881190D02*
X144607380Y-126881190D01*
X144750238Y-126976428D01*
X144845476Y-127071666D01*
X144893095Y-127166904D01*
X144607380Y-125690714D02*
X144607380Y-126166904D01*
X145083571Y-126214523D01*
X145035952Y-126166904D01*
X144988333Y-126071666D01*
X144988333Y-125833571D01*
X145035952Y-125738333D01*
X145083571Y-125690714D01*
X145178809Y-125643095D01*
X145416904Y-125643095D01*
X145512142Y-125690714D01*
X145559761Y-125738333D01*
X145607380Y-125833571D01*
X145607380Y-126071666D01*
X145559761Y-126166904D01*
X145512142Y-126214523D01*
X143702380Y-127547857D02*
X143226190Y-127881190D01*
X143702380Y-128119285D02*
X142702380Y-128119285D01*
X142702380Y-127738333D01*
X142750000Y-127643095D01*
X142797619Y-127595476D01*
X142892857Y-127547857D01*
X143035714Y-127547857D01*
X143130952Y-127595476D01*
X143178571Y-127643095D01*
X143226190Y-127738333D01*
X143226190Y-128119285D01*
X143702380Y-126595476D02*
X143702380Y-127166904D01*
X143702380Y-126881190D02*
X142702380Y-126881190D01*
X142845238Y-126976428D01*
X142940476Y-127071666D01*
X142988095Y-127166904D01*
X142702380Y-125738333D02*
X142702380Y-125928809D01*
X142750000Y-126024047D01*
X142797619Y-126071666D01*
X142940476Y-126166904D01*
X143130952Y-126214523D01*
X143511904Y-126214523D01*
X143607142Y-126166904D01*
X143654761Y-126119285D01*
X143702380Y-126024047D01*
X143702380Y-125833571D01*
X143654761Y-125738333D01*
X143607142Y-125690714D01*
X143511904Y-125643095D01*
X143273809Y-125643095D01*
X143178571Y-125690714D01*
X143130952Y-125738333D01*
X143083333Y-125833571D01*
X143083333Y-126024047D01*
X143130952Y-126119285D01*
X143178571Y-126166904D01*
X143273809Y-126214523D01*
X138717619Y-115983095D02*
X137908095Y-115983095D01*
X137812857Y-116030714D01*
X137765238Y-116078333D01*
X137717619Y-116173571D01*
X137717619Y-116364047D01*
X137765238Y-116459285D01*
X137812857Y-116506904D01*
X137908095Y-116554523D01*
X138717619Y-116554523D01*
X138622380Y-116983095D02*
X138670000Y-117030714D01*
X138717619Y-117125952D01*
X138717619Y-117364047D01*
X138670000Y-117459285D01*
X138622380Y-117506904D01*
X138527142Y-117554523D01*
X138431904Y-117554523D01*
X138289047Y-117506904D01*
X137717619Y-116935476D01*
X137717619Y-117554523D01*
M02*
