%TF.GenerationSoftware,KiCad,Pcbnew,(5.1.2-1)-1*%
%TF.CreationDate,2019-06-22T13:14:17-07:00*%
%TF.ProjectId,Buck Converter SubBoard 0-2,4275636b-2043-46f6-9e76-657274657220,rev?*%
%TF.SameCoordinates,Original*%
%TF.FileFunction,Copper,L2,Bot*%
%TF.FilePolarity,Positive*%
%FSLAX46Y46*%
G04 Gerber Fmt 4.6, Leading zero omitted, Abs format (unit mm)*
G04 Created by KiCad (PCBNEW (5.1.2-1)-1) date 2019-06-22 13:14:17*
%MOMM*%
%LPD*%
G04 APERTURE LIST*
%ADD10R,1.700000X1.700000*%
%ADD11O,1.700000X1.700000*%
%ADD12C,2.000000*%
%ADD13C,0.800000*%
%ADD14C,0.600000*%
%ADD15C,0.152400*%
G04 APERTURE END LIST*
D10*
X87630000Y-97790000D03*
D11*
X87630000Y-100330000D03*
X87630000Y-102870000D03*
X87630000Y-105410000D03*
D10*
X120650000Y-93980000D03*
D11*
X123190000Y-93980000D03*
X120650000Y-96520000D03*
X123190000Y-96520000D03*
X120650000Y-99060000D03*
X123190000Y-99060000D03*
X120650000Y-101600000D03*
X123190000Y-101600000D03*
X120650000Y-104140000D03*
X123190000Y-104140000D03*
X120650000Y-106680000D03*
X123190000Y-106680000D03*
X120650000Y-109220000D03*
X123190000Y-109220000D03*
D12*
X91440000Y-107315000D03*
X91440000Y-103505000D03*
X104140000Y-106680000D03*
X91440000Y-99695000D03*
X104140000Y-93980000D03*
X115570000Y-96520000D03*
X91440000Y-95885000D03*
X115570000Y-93472000D03*
X104140000Y-109728000D03*
D13*
X96520000Y-107950000D03*
X94615000Y-110490000D03*
X95885000Y-110490000D03*
X97155000Y-110490000D03*
X98425000Y-110490000D03*
X99695000Y-107950000D03*
X100965000Y-107950000D03*
X97790000Y-95250000D03*
X105410000Y-96520000D03*
X105410000Y-97790000D03*
X105410000Y-99060000D03*
X105410000Y-100330000D03*
X106680000Y-97790000D03*
X107950000Y-97790000D03*
X107950000Y-96520000D03*
X106680000Y-96520000D03*
X107950000Y-95250000D03*
X106680000Y-95250000D03*
X102235000Y-107950000D03*
X102235000Y-109220000D03*
X102235000Y-110490000D03*
D14*
X96520000Y-102870000D03*
X97409000Y-102870000D03*
X95504000Y-102870000D03*
D13*
X118745000Y-92710000D03*
X117475000Y-93345000D03*
X117475000Y-95885000D03*
X118745000Y-96520000D03*
X118745000Y-97790000D03*
X118745000Y-99060000D03*
X118745000Y-100330000D03*
X118745000Y-101600000D03*
X118745000Y-102870000D03*
X118745000Y-104140000D03*
X118745000Y-105410000D03*
X117475000Y-106045000D03*
X117475000Y-104775000D03*
X117475000Y-103505000D03*
X117475000Y-102235000D03*
X117475000Y-100965000D03*
X117475000Y-99695000D03*
X117475000Y-98425000D03*
X117475000Y-97155000D03*
X116205000Y-105410000D03*
X114935000Y-106045000D03*
X113665000Y-105410000D03*
X114935000Y-98425000D03*
X113665000Y-97790000D03*
X112395000Y-98425000D03*
X116205000Y-97790000D03*
X117475000Y-94615000D03*
X118745000Y-95250000D03*
X118745000Y-93980000D03*
D15*
G36*
X125529104Y-89247620D02*
G01*
X125946668Y-89373690D01*
X126331802Y-89578469D01*
X126669817Y-89854147D01*
X126947853Y-90190236D01*
X127155313Y-90573926D01*
X127284295Y-90990600D01*
X127331394Y-91438711D01*
X127331400Y-91440489D01*
X127331401Y-111745142D01*
X127287380Y-112194104D01*
X127161309Y-112611671D01*
X126956531Y-112996802D01*
X126680853Y-113334817D01*
X126344762Y-113612854D01*
X125961078Y-113820311D01*
X125544400Y-113949295D01*
X125096289Y-113996394D01*
X125094510Y-113996400D01*
X83834848Y-113996400D01*
X83385896Y-113952380D01*
X82968329Y-113826309D01*
X82583198Y-113621531D01*
X82245183Y-113345853D01*
X81967146Y-113009762D01*
X81759689Y-112626078D01*
X81630705Y-112209400D01*
X81583606Y-111761289D01*
X81583600Y-111759510D01*
X81583600Y-110637434D01*
X103392211Y-110637434D01*
X103509940Y-110789662D01*
X103729167Y-110892181D01*
X103964181Y-110949960D01*
X104205952Y-110960781D01*
X104445188Y-110924227D01*
X104672696Y-110841703D01*
X104770060Y-110789662D01*
X104887789Y-110637434D01*
X104140000Y-109889645D01*
X103392211Y-110637434D01*
X81583600Y-110637434D01*
X81583600Y-109793952D01*
X102907219Y-109793952D01*
X102943773Y-110033188D01*
X103026297Y-110260696D01*
X103078338Y-110358060D01*
X103230566Y-110475789D01*
X103978355Y-109728000D01*
X104301645Y-109728000D01*
X105049434Y-110475789D01*
X105201662Y-110358060D01*
X105304181Y-110138833D01*
X105361960Y-109903819D01*
X105372781Y-109662048D01*
X105336227Y-109422812D01*
X105253703Y-109195304D01*
X105201662Y-109097940D01*
X105049434Y-108980211D01*
X104301645Y-109728000D01*
X103978355Y-109728000D01*
X103230566Y-108980211D01*
X103078338Y-109097940D01*
X102975819Y-109317167D01*
X102918040Y-109552181D01*
X102907219Y-109793952D01*
X81583600Y-109793952D01*
X81583600Y-108818566D01*
X103392211Y-108818566D01*
X104140000Y-109566355D01*
X104887789Y-108818566D01*
X104770060Y-108666338D01*
X104550833Y-108563819D01*
X104315819Y-108506040D01*
X104074048Y-108495219D01*
X103834812Y-108531773D01*
X103607304Y-108614297D01*
X103509940Y-108666338D01*
X103392211Y-108818566D01*
X81583600Y-108818566D01*
X81583600Y-107189305D01*
X90163800Y-107189305D01*
X90163800Y-107440695D01*
X90212844Y-107687254D01*
X90309046Y-107919507D01*
X90448711Y-108128530D01*
X90626470Y-108306289D01*
X90835493Y-108445954D01*
X91067746Y-108542156D01*
X91314305Y-108591200D01*
X91565695Y-108591200D01*
X91812254Y-108542156D01*
X92044507Y-108445954D01*
X92253530Y-108306289D01*
X92431289Y-108128530D01*
X92570954Y-107919507D01*
X92667156Y-107687254D01*
X92716200Y-107440695D01*
X92716200Y-107189305D01*
X92667156Y-106942746D01*
X92570954Y-106710493D01*
X92466593Y-106554305D01*
X102863800Y-106554305D01*
X102863800Y-106805695D01*
X102912844Y-107052254D01*
X103009046Y-107284507D01*
X103148711Y-107493530D01*
X103326470Y-107671289D01*
X103535493Y-107810954D01*
X103767746Y-107907156D01*
X104014305Y-107956200D01*
X104265695Y-107956200D01*
X104512254Y-107907156D01*
X104744507Y-107810954D01*
X104953530Y-107671289D01*
X105131289Y-107493530D01*
X105270954Y-107284507D01*
X105367156Y-107052254D01*
X105416200Y-106805695D01*
X105416200Y-106554305D01*
X105367156Y-106307746D01*
X105270954Y-106075493D01*
X105131289Y-105866470D01*
X104953530Y-105688711D01*
X104744507Y-105549046D01*
X104512254Y-105452844D01*
X104265695Y-105403800D01*
X104014305Y-105403800D01*
X103767746Y-105452844D01*
X103535493Y-105549046D01*
X103326470Y-105688711D01*
X103148711Y-105866470D01*
X103009046Y-106075493D01*
X102912844Y-106307746D01*
X102863800Y-106554305D01*
X92466593Y-106554305D01*
X92431289Y-106501470D01*
X92253530Y-106323711D01*
X92044507Y-106184046D01*
X91812254Y-106087844D01*
X91565695Y-106038800D01*
X91314305Y-106038800D01*
X91067746Y-106087844D01*
X90835493Y-106184046D01*
X90626470Y-106323711D01*
X90448711Y-106501470D01*
X90309046Y-106710493D01*
X90212844Y-106942746D01*
X90163800Y-107189305D01*
X81583600Y-107189305D01*
X81583600Y-105410000D01*
X86498351Y-105410000D01*
X86520095Y-105630774D01*
X86584493Y-105843063D01*
X86689068Y-106038710D01*
X86829803Y-106210197D01*
X87001290Y-106350932D01*
X87196937Y-106455507D01*
X87409226Y-106519905D01*
X87574675Y-106536200D01*
X87685325Y-106536200D01*
X87850774Y-106519905D01*
X88063063Y-106455507D01*
X88258710Y-106350932D01*
X88430197Y-106210197D01*
X88570932Y-106038710D01*
X88675507Y-105843063D01*
X88739905Y-105630774D01*
X88761649Y-105410000D01*
X88739905Y-105189226D01*
X88675507Y-104976937D01*
X88570932Y-104781290D01*
X88430197Y-104609803D01*
X88258710Y-104469068D01*
X88063063Y-104364493D01*
X87850774Y-104300095D01*
X87685325Y-104283800D01*
X87574675Y-104283800D01*
X87409226Y-104300095D01*
X87196937Y-104364493D01*
X87001290Y-104469068D01*
X86829803Y-104609803D01*
X86689068Y-104781290D01*
X86584493Y-104976937D01*
X86520095Y-105189226D01*
X86498351Y-105410000D01*
X81583600Y-105410000D01*
X81583600Y-103150673D01*
X86588558Y-103150673D01*
X86608134Y-103215225D01*
X86695119Y-103407948D01*
X86818031Y-103579998D01*
X86972147Y-103724763D01*
X87151543Y-103836680D01*
X87349326Y-103911448D01*
X87515700Y-103885383D01*
X87515700Y-102984300D01*
X87744300Y-102984300D01*
X87744300Y-103885383D01*
X87910674Y-103911448D01*
X88108457Y-103836680D01*
X88287853Y-103724763D01*
X88441969Y-103579998D01*
X88564881Y-103407948D01*
X88577808Y-103379305D01*
X90163800Y-103379305D01*
X90163800Y-103630695D01*
X90212844Y-103877254D01*
X90309046Y-104109507D01*
X90448711Y-104318530D01*
X90626470Y-104496289D01*
X90835493Y-104635954D01*
X91067746Y-104732156D01*
X91314305Y-104781200D01*
X91565695Y-104781200D01*
X91812254Y-104732156D01*
X92044507Y-104635954D01*
X92253530Y-104496289D01*
X92431289Y-104318530D01*
X92570954Y-104109507D01*
X92667156Y-103877254D01*
X92716200Y-103630695D01*
X92716200Y-103379305D01*
X92667156Y-103132746D01*
X92570954Y-102900493D01*
X92431289Y-102691470D01*
X92253530Y-102513711D01*
X92044507Y-102374046D01*
X91812254Y-102277844D01*
X91565695Y-102228800D01*
X91314305Y-102228800D01*
X91067746Y-102277844D01*
X90835493Y-102374046D01*
X90626470Y-102513711D01*
X90448711Y-102691470D01*
X90309046Y-102900493D01*
X90212844Y-103132746D01*
X90163800Y-103379305D01*
X88577808Y-103379305D01*
X88651866Y-103215225D01*
X88671442Y-103150673D01*
X88645035Y-102984300D01*
X87744300Y-102984300D01*
X87515700Y-102984300D01*
X86614965Y-102984300D01*
X86588558Y-103150673D01*
X81583600Y-103150673D01*
X81583600Y-102589327D01*
X86588558Y-102589327D01*
X86614965Y-102755700D01*
X87515700Y-102755700D01*
X87515700Y-101854617D01*
X87744300Y-101854617D01*
X87744300Y-102755700D01*
X88645035Y-102755700D01*
X88671442Y-102589327D01*
X88651866Y-102524775D01*
X88564881Y-102332052D01*
X88441969Y-102160002D01*
X88287853Y-102015237D01*
X88108457Y-101903320D01*
X87910674Y-101828552D01*
X87744300Y-101854617D01*
X87515700Y-101854617D01*
X87349326Y-101828552D01*
X87151543Y-101903320D01*
X86972147Y-102015237D01*
X86818031Y-102160002D01*
X86695119Y-102332052D01*
X86608134Y-102524775D01*
X86588558Y-102589327D01*
X81583600Y-102589327D01*
X81583600Y-100330000D01*
X86498351Y-100330000D01*
X86520095Y-100550774D01*
X86584493Y-100763063D01*
X86689068Y-100958710D01*
X86829803Y-101130197D01*
X87001290Y-101270932D01*
X87196937Y-101375507D01*
X87409226Y-101439905D01*
X87574675Y-101456200D01*
X87685325Y-101456200D01*
X87850774Y-101439905D01*
X88063063Y-101375507D01*
X88258710Y-101270932D01*
X88430197Y-101130197D01*
X88570932Y-100958710D01*
X88675507Y-100763063D01*
X88739905Y-100550774D01*
X88761649Y-100330000D01*
X88739905Y-100109226D01*
X88675507Y-99896937D01*
X88570932Y-99701290D01*
X88462616Y-99569305D01*
X90163800Y-99569305D01*
X90163800Y-99820695D01*
X90212844Y-100067254D01*
X90309046Y-100299507D01*
X90448711Y-100508530D01*
X90626470Y-100686289D01*
X90835493Y-100825954D01*
X91067746Y-100922156D01*
X91314305Y-100971200D01*
X91565695Y-100971200D01*
X91812254Y-100922156D01*
X92044507Y-100825954D01*
X92253530Y-100686289D01*
X92431289Y-100508530D01*
X92570954Y-100299507D01*
X92667156Y-100067254D01*
X92716200Y-99820695D01*
X92716200Y-99569305D01*
X92667156Y-99322746D01*
X92570954Y-99090493D01*
X92431289Y-98881470D01*
X92253530Y-98703711D01*
X92044507Y-98564046D01*
X91812254Y-98467844D01*
X91565695Y-98418800D01*
X91314305Y-98418800D01*
X91067746Y-98467844D01*
X90835493Y-98564046D01*
X90626470Y-98703711D01*
X90448711Y-98881470D01*
X90309046Y-99090493D01*
X90212844Y-99322746D01*
X90163800Y-99569305D01*
X88462616Y-99569305D01*
X88430197Y-99529803D01*
X88258710Y-99389068D01*
X88063063Y-99284493D01*
X87850774Y-99220095D01*
X87685325Y-99203800D01*
X87574675Y-99203800D01*
X87409226Y-99220095D01*
X87196937Y-99284493D01*
X87001290Y-99389068D01*
X86829803Y-99529803D01*
X86689068Y-99701290D01*
X86584493Y-99896937D01*
X86520095Y-100109226D01*
X86498351Y-100330000D01*
X81583600Y-100330000D01*
X81583600Y-98640000D01*
X86550294Y-98640000D01*
X86554708Y-98684813D01*
X86567779Y-98727905D01*
X86589006Y-98767618D01*
X86617573Y-98802427D01*
X86652382Y-98830994D01*
X86692095Y-98852221D01*
X86735187Y-98865292D01*
X86780000Y-98869706D01*
X87458550Y-98868600D01*
X87515700Y-98811450D01*
X87515700Y-97904300D01*
X87744300Y-97904300D01*
X87744300Y-98811450D01*
X87801450Y-98868600D01*
X88480000Y-98869706D01*
X88524813Y-98865292D01*
X88567905Y-98852221D01*
X88607618Y-98830994D01*
X88642427Y-98802427D01*
X88670994Y-98767618D01*
X88692221Y-98727905D01*
X88705292Y-98684813D01*
X88709706Y-98640000D01*
X88708600Y-97961450D01*
X88651450Y-97904300D01*
X87744300Y-97904300D01*
X87515700Y-97904300D01*
X86608550Y-97904300D01*
X86551400Y-97961450D01*
X86550294Y-98640000D01*
X81583600Y-98640000D01*
X81583600Y-96940000D01*
X86550294Y-96940000D01*
X86551400Y-97618550D01*
X86608550Y-97675700D01*
X87515700Y-97675700D01*
X87515700Y-96768550D01*
X87744300Y-96768550D01*
X87744300Y-97675700D01*
X88651450Y-97675700D01*
X88708600Y-97618550D01*
X88709706Y-96940000D01*
X88705292Y-96895187D01*
X88692221Y-96852095D01*
X88670994Y-96812382D01*
X88656265Y-96794434D01*
X90692211Y-96794434D01*
X90809940Y-96946662D01*
X91029167Y-97049181D01*
X91264181Y-97106960D01*
X91505952Y-97117781D01*
X91745188Y-97081227D01*
X91972696Y-96998703D01*
X92070060Y-96946662D01*
X92187789Y-96794434D01*
X91440000Y-96046645D01*
X90692211Y-96794434D01*
X88656265Y-96794434D01*
X88642427Y-96777573D01*
X88607618Y-96749006D01*
X88567905Y-96727779D01*
X88524813Y-96714708D01*
X88480000Y-96710294D01*
X87801450Y-96711400D01*
X87744300Y-96768550D01*
X87515700Y-96768550D01*
X87458550Y-96711400D01*
X86780000Y-96710294D01*
X86735187Y-96714708D01*
X86692095Y-96727779D01*
X86652382Y-96749006D01*
X86617573Y-96777573D01*
X86589006Y-96812382D01*
X86567779Y-96852095D01*
X86554708Y-96895187D01*
X86550294Y-96940000D01*
X81583600Y-96940000D01*
X81583600Y-95950952D01*
X90207219Y-95950952D01*
X90243773Y-96190188D01*
X90326297Y-96417696D01*
X90378338Y-96515060D01*
X90530566Y-96632789D01*
X91278355Y-95885000D01*
X91601645Y-95885000D01*
X92349434Y-96632789D01*
X92501662Y-96515060D01*
X92604181Y-96295833D01*
X92661960Y-96060819D01*
X92672781Y-95819048D01*
X92636227Y-95579812D01*
X92553703Y-95352304D01*
X92501662Y-95254940D01*
X92349434Y-95137211D01*
X91601645Y-95885000D01*
X91278355Y-95885000D01*
X90530566Y-95137211D01*
X90378338Y-95254940D01*
X90275819Y-95474167D01*
X90218040Y-95709181D01*
X90207219Y-95950952D01*
X81583600Y-95950952D01*
X81583600Y-94975566D01*
X90692211Y-94975566D01*
X91440000Y-95723355D01*
X92187789Y-94975566D01*
X92070060Y-94823338D01*
X91850833Y-94720819D01*
X91615819Y-94663040D01*
X91374048Y-94652219D01*
X91134812Y-94688773D01*
X90907304Y-94771297D01*
X90809940Y-94823338D01*
X90692211Y-94975566D01*
X81583600Y-94975566D01*
X81583600Y-93854305D01*
X102863800Y-93854305D01*
X102863800Y-94105695D01*
X102912844Y-94352254D01*
X103009046Y-94584507D01*
X103148711Y-94793530D01*
X103326470Y-94971289D01*
X103535493Y-95110954D01*
X103767746Y-95207156D01*
X104014305Y-95256200D01*
X104265695Y-95256200D01*
X104512254Y-95207156D01*
X104744507Y-95110954D01*
X104953530Y-94971289D01*
X105131289Y-94793530D01*
X105270954Y-94584507D01*
X105367156Y-94352254D01*
X105416200Y-94105695D01*
X105416200Y-93854305D01*
X105367156Y-93607746D01*
X105270954Y-93375493D01*
X105250580Y-93345000D01*
X110213800Y-93345000D01*
X110213800Y-109855000D01*
X110219107Y-109908884D01*
X110315780Y-110394892D01*
X110331497Y-110446705D01*
X110357021Y-110494456D01*
X110632322Y-110906474D01*
X110666671Y-110948329D01*
X110708526Y-110982678D01*
X111120544Y-111257979D01*
X111168295Y-111283503D01*
X111220108Y-111299220D01*
X111706116Y-111395893D01*
X111760000Y-111401200D01*
X120650000Y-111401200D01*
X120703884Y-111395893D01*
X121189892Y-111299220D01*
X121241705Y-111283503D01*
X121289456Y-111257979D01*
X121701474Y-110982678D01*
X121743329Y-110948329D01*
X121777678Y-110906474D01*
X122052979Y-110494456D01*
X122078503Y-110446705D01*
X122094220Y-110394892D01*
X122190893Y-109908884D01*
X122196200Y-109855000D01*
X122196200Y-109627408D01*
X122255119Y-109757948D01*
X122378031Y-109929998D01*
X122532147Y-110074763D01*
X122711543Y-110186680D01*
X122909326Y-110261448D01*
X123075700Y-110235383D01*
X123075700Y-109334300D01*
X123304300Y-109334300D01*
X123304300Y-110235383D01*
X123470674Y-110261448D01*
X123668457Y-110186680D01*
X123847853Y-110074763D01*
X124001969Y-109929998D01*
X124124881Y-109757948D01*
X124211866Y-109565225D01*
X124231442Y-109500673D01*
X124205035Y-109334300D01*
X123304300Y-109334300D01*
X123075700Y-109334300D01*
X123055700Y-109334300D01*
X123055700Y-109105700D01*
X123075700Y-109105700D01*
X123075700Y-108204617D01*
X123304300Y-108204617D01*
X123304300Y-109105700D01*
X124205035Y-109105700D01*
X124231442Y-108939327D01*
X124211866Y-108874775D01*
X124124881Y-108682052D01*
X124001969Y-108510002D01*
X123847853Y-108365237D01*
X123668457Y-108253320D01*
X123470674Y-108178552D01*
X123304300Y-108204617D01*
X123075700Y-108204617D01*
X122909326Y-108178552D01*
X122711543Y-108253320D01*
X122532147Y-108365237D01*
X122378031Y-108510002D01*
X122255119Y-108682052D01*
X122196200Y-108812592D01*
X122196200Y-107087408D01*
X122255119Y-107217948D01*
X122378031Y-107389998D01*
X122532147Y-107534763D01*
X122711543Y-107646680D01*
X122909326Y-107721448D01*
X123075700Y-107695383D01*
X123075700Y-106794300D01*
X123304300Y-106794300D01*
X123304300Y-107695383D01*
X123470674Y-107721448D01*
X123668457Y-107646680D01*
X123847853Y-107534763D01*
X124001969Y-107389998D01*
X124124881Y-107217948D01*
X124211866Y-107025225D01*
X124231442Y-106960673D01*
X124205035Y-106794300D01*
X123304300Y-106794300D01*
X123075700Y-106794300D01*
X123055700Y-106794300D01*
X123055700Y-106565700D01*
X123075700Y-106565700D01*
X123075700Y-105664617D01*
X123304300Y-105664617D01*
X123304300Y-106565700D01*
X124205035Y-106565700D01*
X124231442Y-106399327D01*
X124211866Y-106334775D01*
X124124881Y-106142052D01*
X124001969Y-105970002D01*
X123847853Y-105825237D01*
X123668457Y-105713320D01*
X123470674Y-105638552D01*
X123304300Y-105664617D01*
X123075700Y-105664617D01*
X122909326Y-105638552D01*
X122711543Y-105713320D01*
X122532147Y-105825237D01*
X122378031Y-105970002D01*
X122255119Y-106142052D01*
X122196200Y-106272592D01*
X122196200Y-104547408D01*
X122255119Y-104677948D01*
X122378031Y-104849998D01*
X122532147Y-104994763D01*
X122711543Y-105106680D01*
X122909326Y-105181448D01*
X123075700Y-105155383D01*
X123075700Y-104254300D01*
X123304300Y-104254300D01*
X123304300Y-105155383D01*
X123470674Y-105181448D01*
X123668457Y-105106680D01*
X123847853Y-104994763D01*
X124001969Y-104849998D01*
X124124881Y-104677948D01*
X124211866Y-104485225D01*
X124231442Y-104420673D01*
X124205035Y-104254300D01*
X123304300Y-104254300D01*
X123075700Y-104254300D01*
X123055700Y-104254300D01*
X123055700Y-104025700D01*
X123075700Y-104025700D01*
X123075700Y-103124617D01*
X123304300Y-103124617D01*
X123304300Y-104025700D01*
X124205035Y-104025700D01*
X124231442Y-103859327D01*
X124211866Y-103794775D01*
X124124881Y-103602052D01*
X124001969Y-103430002D01*
X123847853Y-103285237D01*
X123668457Y-103173320D01*
X123470674Y-103098552D01*
X123304300Y-103124617D01*
X123075700Y-103124617D01*
X122909326Y-103098552D01*
X122711543Y-103173320D01*
X122532147Y-103285237D01*
X122378031Y-103430002D01*
X122255119Y-103602052D01*
X122196200Y-103732592D01*
X122196200Y-102007408D01*
X122255119Y-102137948D01*
X122378031Y-102309998D01*
X122532147Y-102454763D01*
X122711543Y-102566680D01*
X122909326Y-102641448D01*
X123075700Y-102615383D01*
X123075700Y-101714300D01*
X123304300Y-101714300D01*
X123304300Y-102615383D01*
X123470674Y-102641448D01*
X123668457Y-102566680D01*
X123847853Y-102454763D01*
X124001969Y-102309998D01*
X124124881Y-102137948D01*
X124211866Y-101945225D01*
X124231442Y-101880673D01*
X124205035Y-101714300D01*
X123304300Y-101714300D01*
X123075700Y-101714300D01*
X123055700Y-101714300D01*
X123055700Y-101485700D01*
X123075700Y-101485700D01*
X123075700Y-100584617D01*
X123304300Y-100584617D01*
X123304300Y-101485700D01*
X124205035Y-101485700D01*
X124231442Y-101319327D01*
X124211866Y-101254775D01*
X124124881Y-101062052D01*
X124001969Y-100890002D01*
X123847853Y-100745237D01*
X123668457Y-100633320D01*
X123470674Y-100558552D01*
X123304300Y-100584617D01*
X123075700Y-100584617D01*
X122909326Y-100558552D01*
X122711543Y-100633320D01*
X122532147Y-100745237D01*
X122378031Y-100890002D01*
X122255119Y-101062052D01*
X122196200Y-101192592D01*
X122196200Y-99467408D01*
X122255119Y-99597948D01*
X122378031Y-99769998D01*
X122532147Y-99914763D01*
X122711543Y-100026680D01*
X122909326Y-100101448D01*
X123075700Y-100075383D01*
X123075700Y-99174300D01*
X123304300Y-99174300D01*
X123304300Y-100075383D01*
X123470674Y-100101448D01*
X123668457Y-100026680D01*
X123847853Y-99914763D01*
X124001969Y-99769998D01*
X124124881Y-99597948D01*
X124211866Y-99405225D01*
X124231442Y-99340673D01*
X124205035Y-99174300D01*
X123304300Y-99174300D01*
X123075700Y-99174300D01*
X123055700Y-99174300D01*
X123055700Y-98945700D01*
X123075700Y-98945700D01*
X123075700Y-98044617D01*
X123304300Y-98044617D01*
X123304300Y-98945700D01*
X124205035Y-98945700D01*
X124231442Y-98779327D01*
X124211866Y-98714775D01*
X124124881Y-98522052D01*
X124001969Y-98350002D01*
X123847853Y-98205237D01*
X123668457Y-98093320D01*
X123470674Y-98018552D01*
X123304300Y-98044617D01*
X123075700Y-98044617D01*
X122909326Y-98018552D01*
X122711543Y-98093320D01*
X122532147Y-98205237D01*
X122378031Y-98350002D01*
X122255119Y-98522052D01*
X122196200Y-98652592D01*
X122196200Y-96927408D01*
X122255119Y-97057948D01*
X122378031Y-97229998D01*
X122532147Y-97374763D01*
X122711543Y-97486680D01*
X122909326Y-97561448D01*
X123075700Y-97535383D01*
X123075700Y-96634300D01*
X123304300Y-96634300D01*
X123304300Y-97535383D01*
X123470674Y-97561448D01*
X123668457Y-97486680D01*
X123847853Y-97374763D01*
X124001969Y-97229998D01*
X124124881Y-97057948D01*
X124211866Y-96865225D01*
X124231442Y-96800673D01*
X124205035Y-96634300D01*
X123304300Y-96634300D01*
X123075700Y-96634300D01*
X123055700Y-96634300D01*
X123055700Y-96405700D01*
X123075700Y-96405700D01*
X123075700Y-95504617D01*
X123304300Y-95504617D01*
X123304300Y-96405700D01*
X124205035Y-96405700D01*
X124231442Y-96239327D01*
X124211866Y-96174775D01*
X124124881Y-95982052D01*
X124001969Y-95810002D01*
X123847853Y-95665237D01*
X123668457Y-95553320D01*
X123470674Y-95478552D01*
X123304300Y-95504617D01*
X123075700Y-95504617D01*
X122909326Y-95478552D01*
X122711543Y-95553320D01*
X122532147Y-95665237D01*
X122378031Y-95810002D01*
X122255119Y-95982052D01*
X122196200Y-96112592D01*
X122196200Y-94387408D01*
X122255119Y-94517948D01*
X122378031Y-94689998D01*
X122532147Y-94834763D01*
X122711543Y-94946680D01*
X122909326Y-95021448D01*
X123075700Y-94995383D01*
X123075700Y-94094300D01*
X123304300Y-94094300D01*
X123304300Y-94995383D01*
X123470674Y-95021448D01*
X123668457Y-94946680D01*
X123847853Y-94834763D01*
X124001969Y-94689998D01*
X124124881Y-94517948D01*
X124211866Y-94325225D01*
X124231442Y-94260673D01*
X124205035Y-94094300D01*
X123304300Y-94094300D01*
X123075700Y-94094300D01*
X123055700Y-94094300D01*
X123055700Y-93865700D01*
X123075700Y-93865700D01*
X123075700Y-92964617D01*
X123304300Y-92964617D01*
X123304300Y-93865700D01*
X124205035Y-93865700D01*
X124231442Y-93699327D01*
X124211866Y-93634775D01*
X124124881Y-93442052D01*
X124001969Y-93270002D01*
X123847853Y-93125237D01*
X123668457Y-93013320D01*
X123470674Y-92938552D01*
X123304300Y-92964617D01*
X123075700Y-92964617D01*
X122909326Y-92938552D01*
X122711543Y-93013320D01*
X122532147Y-93125237D01*
X122378031Y-93270002D01*
X122255119Y-93442052D01*
X122196200Y-93572592D01*
X122196200Y-93345000D01*
X122190893Y-93291116D01*
X122094220Y-92805108D01*
X122078503Y-92753295D01*
X122052979Y-92705544D01*
X121777678Y-92293526D01*
X121743329Y-92251671D01*
X121701474Y-92217322D01*
X121289456Y-91942021D01*
X121241705Y-91916497D01*
X121189892Y-91900780D01*
X120703884Y-91804107D01*
X120650000Y-91798800D01*
X111760000Y-91798800D01*
X111706116Y-91804107D01*
X111220108Y-91900780D01*
X111168295Y-91916497D01*
X111120544Y-91942021D01*
X110708526Y-92217322D01*
X110666671Y-92251671D01*
X110632322Y-92293526D01*
X110357021Y-92705544D01*
X110331497Y-92753295D01*
X110315780Y-92805108D01*
X110219107Y-93291116D01*
X110213800Y-93345000D01*
X105250580Y-93345000D01*
X105131289Y-93166470D01*
X104953530Y-92988711D01*
X104744507Y-92849046D01*
X104512254Y-92752844D01*
X104265695Y-92703800D01*
X104014305Y-92703800D01*
X103767746Y-92752844D01*
X103535493Y-92849046D01*
X103326470Y-92988711D01*
X103148711Y-93166470D01*
X103009046Y-93375493D01*
X102912844Y-93607746D01*
X102863800Y-93854305D01*
X81583600Y-93854305D01*
X81583600Y-91454848D01*
X81627620Y-91005896D01*
X81753690Y-90588332D01*
X81958469Y-90203198D01*
X82234147Y-89865183D01*
X82570236Y-89587147D01*
X82953926Y-89379687D01*
X83370600Y-89250705D01*
X83818711Y-89203606D01*
X83820489Y-89203600D01*
X125080152Y-89203600D01*
X125529104Y-89247620D01*
X125529104Y-89247620D01*
G37*
X125529104Y-89247620D02*
X125946668Y-89373690D01*
X126331802Y-89578469D01*
X126669817Y-89854147D01*
X126947853Y-90190236D01*
X127155313Y-90573926D01*
X127284295Y-90990600D01*
X127331394Y-91438711D01*
X127331400Y-91440489D01*
X127331401Y-111745142D01*
X127287380Y-112194104D01*
X127161309Y-112611671D01*
X126956531Y-112996802D01*
X126680853Y-113334817D01*
X126344762Y-113612854D01*
X125961078Y-113820311D01*
X125544400Y-113949295D01*
X125096289Y-113996394D01*
X125094510Y-113996400D01*
X83834848Y-113996400D01*
X83385896Y-113952380D01*
X82968329Y-113826309D01*
X82583198Y-113621531D01*
X82245183Y-113345853D01*
X81967146Y-113009762D01*
X81759689Y-112626078D01*
X81630705Y-112209400D01*
X81583606Y-111761289D01*
X81583600Y-111759510D01*
X81583600Y-110637434D01*
X103392211Y-110637434D01*
X103509940Y-110789662D01*
X103729167Y-110892181D01*
X103964181Y-110949960D01*
X104205952Y-110960781D01*
X104445188Y-110924227D01*
X104672696Y-110841703D01*
X104770060Y-110789662D01*
X104887789Y-110637434D01*
X104140000Y-109889645D01*
X103392211Y-110637434D01*
X81583600Y-110637434D01*
X81583600Y-109793952D01*
X102907219Y-109793952D01*
X102943773Y-110033188D01*
X103026297Y-110260696D01*
X103078338Y-110358060D01*
X103230566Y-110475789D01*
X103978355Y-109728000D01*
X104301645Y-109728000D01*
X105049434Y-110475789D01*
X105201662Y-110358060D01*
X105304181Y-110138833D01*
X105361960Y-109903819D01*
X105372781Y-109662048D01*
X105336227Y-109422812D01*
X105253703Y-109195304D01*
X105201662Y-109097940D01*
X105049434Y-108980211D01*
X104301645Y-109728000D01*
X103978355Y-109728000D01*
X103230566Y-108980211D01*
X103078338Y-109097940D01*
X102975819Y-109317167D01*
X102918040Y-109552181D01*
X102907219Y-109793952D01*
X81583600Y-109793952D01*
X81583600Y-108818566D01*
X103392211Y-108818566D01*
X104140000Y-109566355D01*
X104887789Y-108818566D01*
X104770060Y-108666338D01*
X104550833Y-108563819D01*
X104315819Y-108506040D01*
X104074048Y-108495219D01*
X103834812Y-108531773D01*
X103607304Y-108614297D01*
X103509940Y-108666338D01*
X103392211Y-108818566D01*
X81583600Y-108818566D01*
X81583600Y-107189305D01*
X90163800Y-107189305D01*
X90163800Y-107440695D01*
X90212844Y-107687254D01*
X90309046Y-107919507D01*
X90448711Y-108128530D01*
X90626470Y-108306289D01*
X90835493Y-108445954D01*
X91067746Y-108542156D01*
X91314305Y-108591200D01*
X91565695Y-108591200D01*
X91812254Y-108542156D01*
X92044507Y-108445954D01*
X92253530Y-108306289D01*
X92431289Y-108128530D01*
X92570954Y-107919507D01*
X92667156Y-107687254D01*
X92716200Y-107440695D01*
X92716200Y-107189305D01*
X92667156Y-106942746D01*
X92570954Y-106710493D01*
X92466593Y-106554305D01*
X102863800Y-106554305D01*
X102863800Y-106805695D01*
X102912844Y-107052254D01*
X103009046Y-107284507D01*
X103148711Y-107493530D01*
X103326470Y-107671289D01*
X103535493Y-107810954D01*
X103767746Y-107907156D01*
X104014305Y-107956200D01*
X104265695Y-107956200D01*
X104512254Y-107907156D01*
X104744507Y-107810954D01*
X104953530Y-107671289D01*
X105131289Y-107493530D01*
X105270954Y-107284507D01*
X105367156Y-107052254D01*
X105416200Y-106805695D01*
X105416200Y-106554305D01*
X105367156Y-106307746D01*
X105270954Y-106075493D01*
X105131289Y-105866470D01*
X104953530Y-105688711D01*
X104744507Y-105549046D01*
X104512254Y-105452844D01*
X104265695Y-105403800D01*
X104014305Y-105403800D01*
X103767746Y-105452844D01*
X103535493Y-105549046D01*
X103326470Y-105688711D01*
X103148711Y-105866470D01*
X103009046Y-106075493D01*
X102912844Y-106307746D01*
X102863800Y-106554305D01*
X92466593Y-106554305D01*
X92431289Y-106501470D01*
X92253530Y-106323711D01*
X92044507Y-106184046D01*
X91812254Y-106087844D01*
X91565695Y-106038800D01*
X91314305Y-106038800D01*
X91067746Y-106087844D01*
X90835493Y-106184046D01*
X90626470Y-106323711D01*
X90448711Y-106501470D01*
X90309046Y-106710493D01*
X90212844Y-106942746D01*
X90163800Y-107189305D01*
X81583600Y-107189305D01*
X81583600Y-105410000D01*
X86498351Y-105410000D01*
X86520095Y-105630774D01*
X86584493Y-105843063D01*
X86689068Y-106038710D01*
X86829803Y-106210197D01*
X87001290Y-106350932D01*
X87196937Y-106455507D01*
X87409226Y-106519905D01*
X87574675Y-106536200D01*
X87685325Y-106536200D01*
X87850774Y-106519905D01*
X88063063Y-106455507D01*
X88258710Y-106350932D01*
X88430197Y-106210197D01*
X88570932Y-106038710D01*
X88675507Y-105843063D01*
X88739905Y-105630774D01*
X88761649Y-105410000D01*
X88739905Y-105189226D01*
X88675507Y-104976937D01*
X88570932Y-104781290D01*
X88430197Y-104609803D01*
X88258710Y-104469068D01*
X88063063Y-104364493D01*
X87850774Y-104300095D01*
X87685325Y-104283800D01*
X87574675Y-104283800D01*
X87409226Y-104300095D01*
X87196937Y-104364493D01*
X87001290Y-104469068D01*
X86829803Y-104609803D01*
X86689068Y-104781290D01*
X86584493Y-104976937D01*
X86520095Y-105189226D01*
X86498351Y-105410000D01*
X81583600Y-105410000D01*
X81583600Y-103150673D01*
X86588558Y-103150673D01*
X86608134Y-103215225D01*
X86695119Y-103407948D01*
X86818031Y-103579998D01*
X86972147Y-103724763D01*
X87151543Y-103836680D01*
X87349326Y-103911448D01*
X87515700Y-103885383D01*
X87515700Y-102984300D01*
X87744300Y-102984300D01*
X87744300Y-103885383D01*
X87910674Y-103911448D01*
X88108457Y-103836680D01*
X88287853Y-103724763D01*
X88441969Y-103579998D01*
X88564881Y-103407948D01*
X88577808Y-103379305D01*
X90163800Y-103379305D01*
X90163800Y-103630695D01*
X90212844Y-103877254D01*
X90309046Y-104109507D01*
X90448711Y-104318530D01*
X90626470Y-104496289D01*
X90835493Y-104635954D01*
X91067746Y-104732156D01*
X91314305Y-104781200D01*
X91565695Y-104781200D01*
X91812254Y-104732156D01*
X92044507Y-104635954D01*
X92253530Y-104496289D01*
X92431289Y-104318530D01*
X92570954Y-104109507D01*
X92667156Y-103877254D01*
X92716200Y-103630695D01*
X92716200Y-103379305D01*
X92667156Y-103132746D01*
X92570954Y-102900493D01*
X92431289Y-102691470D01*
X92253530Y-102513711D01*
X92044507Y-102374046D01*
X91812254Y-102277844D01*
X91565695Y-102228800D01*
X91314305Y-102228800D01*
X91067746Y-102277844D01*
X90835493Y-102374046D01*
X90626470Y-102513711D01*
X90448711Y-102691470D01*
X90309046Y-102900493D01*
X90212844Y-103132746D01*
X90163800Y-103379305D01*
X88577808Y-103379305D01*
X88651866Y-103215225D01*
X88671442Y-103150673D01*
X88645035Y-102984300D01*
X87744300Y-102984300D01*
X87515700Y-102984300D01*
X86614965Y-102984300D01*
X86588558Y-103150673D01*
X81583600Y-103150673D01*
X81583600Y-102589327D01*
X86588558Y-102589327D01*
X86614965Y-102755700D01*
X87515700Y-102755700D01*
X87515700Y-101854617D01*
X87744300Y-101854617D01*
X87744300Y-102755700D01*
X88645035Y-102755700D01*
X88671442Y-102589327D01*
X88651866Y-102524775D01*
X88564881Y-102332052D01*
X88441969Y-102160002D01*
X88287853Y-102015237D01*
X88108457Y-101903320D01*
X87910674Y-101828552D01*
X87744300Y-101854617D01*
X87515700Y-101854617D01*
X87349326Y-101828552D01*
X87151543Y-101903320D01*
X86972147Y-102015237D01*
X86818031Y-102160002D01*
X86695119Y-102332052D01*
X86608134Y-102524775D01*
X86588558Y-102589327D01*
X81583600Y-102589327D01*
X81583600Y-100330000D01*
X86498351Y-100330000D01*
X86520095Y-100550774D01*
X86584493Y-100763063D01*
X86689068Y-100958710D01*
X86829803Y-101130197D01*
X87001290Y-101270932D01*
X87196937Y-101375507D01*
X87409226Y-101439905D01*
X87574675Y-101456200D01*
X87685325Y-101456200D01*
X87850774Y-101439905D01*
X88063063Y-101375507D01*
X88258710Y-101270932D01*
X88430197Y-101130197D01*
X88570932Y-100958710D01*
X88675507Y-100763063D01*
X88739905Y-100550774D01*
X88761649Y-100330000D01*
X88739905Y-100109226D01*
X88675507Y-99896937D01*
X88570932Y-99701290D01*
X88462616Y-99569305D01*
X90163800Y-99569305D01*
X90163800Y-99820695D01*
X90212844Y-100067254D01*
X90309046Y-100299507D01*
X90448711Y-100508530D01*
X90626470Y-100686289D01*
X90835493Y-100825954D01*
X91067746Y-100922156D01*
X91314305Y-100971200D01*
X91565695Y-100971200D01*
X91812254Y-100922156D01*
X92044507Y-100825954D01*
X92253530Y-100686289D01*
X92431289Y-100508530D01*
X92570954Y-100299507D01*
X92667156Y-100067254D01*
X92716200Y-99820695D01*
X92716200Y-99569305D01*
X92667156Y-99322746D01*
X92570954Y-99090493D01*
X92431289Y-98881470D01*
X92253530Y-98703711D01*
X92044507Y-98564046D01*
X91812254Y-98467844D01*
X91565695Y-98418800D01*
X91314305Y-98418800D01*
X91067746Y-98467844D01*
X90835493Y-98564046D01*
X90626470Y-98703711D01*
X90448711Y-98881470D01*
X90309046Y-99090493D01*
X90212844Y-99322746D01*
X90163800Y-99569305D01*
X88462616Y-99569305D01*
X88430197Y-99529803D01*
X88258710Y-99389068D01*
X88063063Y-99284493D01*
X87850774Y-99220095D01*
X87685325Y-99203800D01*
X87574675Y-99203800D01*
X87409226Y-99220095D01*
X87196937Y-99284493D01*
X87001290Y-99389068D01*
X86829803Y-99529803D01*
X86689068Y-99701290D01*
X86584493Y-99896937D01*
X86520095Y-100109226D01*
X86498351Y-100330000D01*
X81583600Y-100330000D01*
X81583600Y-98640000D01*
X86550294Y-98640000D01*
X86554708Y-98684813D01*
X86567779Y-98727905D01*
X86589006Y-98767618D01*
X86617573Y-98802427D01*
X86652382Y-98830994D01*
X86692095Y-98852221D01*
X86735187Y-98865292D01*
X86780000Y-98869706D01*
X87458550Y-98868600D01*
X87515700Y-98811450D01*
X87515700Y-97904300D01*
X87744300Y-97904300D01*
X87744300Y-98811450D01*
X87801450Y-98868600D01*
X88480000Y-98869706D01*
X88524813Y-98865292D01*
X88567905Y-98852221D01*
X88607618Y-98830994D01*
X88642427Y-98802427D01*
X88670994Y-98767618D01*
X88692221Y-98727905D01*
X88705292Y-98684813D01*
X88709706Y-98640000D01*
X88708600Y-97961450D01*
X88651450Y-97904300D01*
X87744300Y-97904300D01*
X87515700Y-97904300D01*
X86608550Y-97904300D01*
X86551400Y-97961450D01*
X86550294Y-98640000D01*
X81583600Y-98640000D01*
X81583600Y-96940000D01*
X86550294Y-96940000D01*
X86551400Y-97618550D01*
X86608550Y-97675700D01*
X87515700Y-97675700D01*
X87515700Y-96768550D01*
X87744300Y-96768550D01*
X87744300Y-97675700D01*
X88651450Y-97675700D01*
X88708600Y-97618550D01*
X88709706Y-96940000D01*
X88705292Y-96895187D01*
X88692221Y-96852095D01*
X88670994Y-96812382D01*
X88656265Y-96794434D01*
X90692211Y-96794434D01*
X90809940Y-96946662D01*
X91029167Y-97049181D01*
X91264181Y-97106960D01*
X91505952Y-97117781D01*
X91745188Y-97081227D01*
X91972696Y-96998703D01*
X92070060Y-96946662D01*
X92187789Y-96794434D01*
X91440000Y-96046645D01*
X90692211Y-96794434D01*
X88656265Y-96794434D01*
X88642427Y-96777573D01*
X88607618Y-96749006D01*
X88567905Y-96727779D01*
X88524813Y-96714708D01*
X88480000Y-96710294D01*
X87801450Y-96711400D01*
X87744300Y-96768550D01*
X87515700Y-96768550D01*
X87458550Y-96711400D01*
X86780000Y-96710294D01*
X86735187Y-96714708D01*
X86692095Y-96727779D01*
X86652382Y-96749006D01*
X86617573Y-96777573D01*
X86589006Y-96812382D01*
X86567779Y-96852095D01*
X86554708Y-96895187D01*
X86550294Y-96940000D01*
X81583600Y-96940000D01*
X81583600Y-95950952D01*
X90207219Y-95950952D01*
X90243773Y-96190188D01*
X90326297Y-96417696D01*
X90378338Y-96515060D01*
X90530566Y-96632789D01*
X91278355Y-95885000D01*
X91601645Y-95885000D01*
X92349434Y-96632789D01*
X92501662Y-96515060D01*
X92604181Y-96295833D01*
X92661960Y-96060819D01*
X92672781Y-95819048D01*
X92636227Y-95579812D01*
X92553703Y-95352304D01*
X92501662Y-95254940D01*
X92349434Y-95137211D01*
X91601645Y-95885000D01*
X91278355Y-95885000D01*
X90530566Y-95137211D01*
X90378338Y-95254940D01*
X90275819Y-95474167D01*
X90218040Y-95709181D01*
X90207219Y-95950952D01*
X81583600Y-95950952D01*
X81583600Y-94975566D01*
X90692211Y-94975566D01*
X91440000Y-95723355D01*
X92187789Y-94975566D01*
X92070060Y-94823338D01*
X91850833Y-94720819D01*
X91615819Y-94663040D01*
X91374048Y-94652219D01*
X91134812Y-94688773D01*
X90907304Y-94771297D01*
X90809940Y-94823338D01*
X90692211Y-94975566D01*
X81583600Y-94975566D01*
X81583600Y-93854305D01*
X102863800Y-93854305D01*
X102863800Y-94105695D01*
X102912844Y-94352254D01*
X103009046Y-94584507D01*
X103148711Y-94793530D01*
X103326470Y-94971289D01*
X103535493Y-95110954D01*
X103767746Y-95207156D01*
X104014305Y-95256200D01*
X104265695Y-95256200D01*
X104512254Y-95207156D01*
X104744507Y-95110954D01*
X104953530Y-94971289D01*
X105131289Y-94793530D01*
X105270954Y-94584507D01*
X105367156Y-94352254D01*
X105416200Y-94105695D01*
X105416200Y-93854305D01*
X105367156Y-93607746D01*
X105270954Y-93375493D01*
X105250580Y-93345000D01*
X110213800Y-93345000D01*
X110213800Y-109855000D01*
X110219107Y-109908884D01*
X110315780Y-110394892D01*
X110331497Y-110446705D01*
X110357021Y-110494456D01*
X110632322Y-110906474D01*
X110666671Y-110948329D01*
X110708526Y-110982678D01*
X111120544Y-111257979D01*
X111168295Y-111283503D01*
X111220108Y-111299220D01*
X111706116Y-111395893D01*
X111760000Y-111401200D01*
X120650000Y-111401200D01*
X120703884Y-111395893D01*
X121189892Y-111299220D01*
X121241705Y-111283503D01*
X121289456Y-111257979D01*
X121701474Y-110982678D01*
X121743329Y-110948329D01*
X121777678Y-110906474D01*
X122052979Y-110494456D01*
X122078503Y-110446705D01*
X122094220Y-110394892D01*
X122190893Y-109908884D01*
X122196200Y-109855000D01*
X122196200Y-109627408D01*
X122255119Y-109757948D01*
X122378031Y-109929998D01*
X122532147Y-110074763D01*
X122711543Y-110186680D01*
X122909326Y-110261448D01*
X123075700Y-110235383D01*
X123075700Y-109334300D01*
X123304300Y-109334300D01*
X123304300Y-110235383D01*
X123470674Y-110261448D01*
X123668457Y-110186680D01*
X123847853Y-110074763D01*
X124001969Y-109929998D01*
X124124881Y-109757948D01*
X124211866Y-109565225D01*
X124231442Y-109500673D01*
X124205035Y-109334300D01*
X123304300Y-109334300D01*
X123075700Y-109334300D01*
X123055700Y-109334300D01*
X123055700Y-109105700D01*
X123075700Y-109105700D01*
X123075700Y-108204617D01*
X123304300Y-108204617D01*
X123304300Y-109105700D01*
X124205035Y-109105700D01*
X124231442Y-108939327D01*
X124211866Y-108874775D01*
X124124881Y-108682052D01*
X124001969Y-108510002D01*
X123847853Y-108365237D01*
X123668457Y-108253320D01*
X123470674Y-108178552D01*
X123304300Y-108204617D01*
X123075700Y-108204617D01*
X122909326Y-108178552D01*
X122711543Y-108253320D01*
X122532147Y-108365237D01*
X122378031Y-108510002D01*
X122255119Y-108682052D01*
X122196200Y-108812592D01*
X122196200Y-107087408D01*
X122255119Y-107217948D01*
X122378031Y-107389998D01*
X122532147Y-107534763D01*
X122711543Y-107646680D01*
X122909326Y-107721448D01*
X123075700Y-107695383D01*
X123075700Y-106794300D01*
X123304300Y-106794300D01*
X123304300Y-107695383D01*
X123470674Y-107721448D01*
X123668457Y-107646680D01*
X123847853Y-107534763D01*
X124001969Y-107389998D01*
X124124881Y-107217948D01*
X124211866Y-107025225D01*
X124231442Y-106960673D01*
X124205035Y-106794300D01*
X123304300Y-106794300D01*
X123075700Y-106794300D01*
X123055700Y-106794300D01*
X123055700Y-106565700D01*
X123075700Y-106565700D01*
X123075700Y-105664617D01*
X123304300Y-105664617D01*
X123304300Y-106565700D01*
X124205035Y-106565700D01*
X124231442Y-106399327D01*
X124211866Y-106334775D01*
X124124881Y-106142052D01*
X124001969Y-105970002D01*
X123847853Y-105825237D01*
X123668457Y-105713320D01*
X123470674Y-105638552D01*
X123304300Y-105664617D01*
X123075700Y-105664617D01*
X122909326Y-105638552D01*
X122711543Y-105713320D01*
X122532147Y-105825237D01*
X122378031Y-105970002D01*
X122255119Y-106142052D01*
X122196200Y-106272592D01*
X122196200Y-104547408D01*
X122255119Y-104677948D01*
X122378031Y-104849998D01*
X122532147Y-104994763D01*
X122711543Y-105106680D01*
X122909326Y-105181448D01*
X123075700Y-105155383D01*
X123075700Y-104254300D01*
X123304300Y-104254300D01*
X123304300Y-105155383D01*
X123470674Y-105181448D01*
X123668457Y-105106680D01*
X123847853Y-104994763D01*
X124001969Y-104849998D01*
X124124881Y-104677948D01*
X124211866Y-104485225D01*
X124231442Y-104420673D01*
X124205035Y-104254300D01*
X123304300Y-104254300D01*
X123075700Y-104254300D01*
X123055700Y-104254300D01*
X123055700Y-104025700D01*
X123075700Y-104025700D01*
X123075700Y-103124617D01*
X123304300Y-103124617D01*
X123304300Y-104025700D01*
X124205035Y-104025700D01*
X124231442Y-103859327D01*
X124211866Y-103794775D01*
X124124881Y-103602052D01*
X124001969Y-103430002D01*
X123847853Y-103285237D01*
X123668457Y-103173320D01*
X123470674Y-103098552D01*
X123304300Y-103124617D01*
X123075700Y-103124617D01*
X122909326Y-103098552D01*
X122711543Y-103173320D01*
X122532147Y-103285237D01*
X122378031Y-103430002D01*
X122255119Y-103602052D01*
X122196200Y-103732592D01*
X122196200Y-102007408D01*
X122255119Y-102137948D01*
X122378031Y-102309998D01*
X122532147Y-102454763D01*
X122711543Y-102566680D01*
X122909326Y-102641448D01*
X123075700Y-102615383D01*
X123075700Y-101714300D01*
X123304300Y-101714300D01*
X123304300Y-102615383D01*
X123470674Y-102641448D01*
X123668457Y-102566680D01*
X123847853Y-102454763D01*
X124001969Y-102309998D01*
X124124881Y-102137948D01*
X124211866Y-101945225D01*
X124231442Y-101880673D01*
X124205035Y-101714300D01*
X123304300Y-101714300D01*
X123075700Y-101714300D01*
X123055700Y-101714300D01*
X123055700Y-101485700D01*
X123075700Y-101485700D01*
X123075700Y-100584617D01*
X123304300Y-100584617D01*
X123304300Y-101485700D01*
X124205035Y-101485700D01*
X124231442Y-101319327D01*
X124211866Y-101254775D01*
X124124881Y-101062052D01*
X124001969Y-100890002D01*
X123847853Y-100745237D01*
X123668457Y-100633320D01*
X123470674Y-100558552D01*
X123304300Y-100584617D01*
X123075700Y-100584617D01*
X122909326Y-100558552D01*
X122711543Y-100633320D01*
X122532147Y-100745237D01*
X122378031Y-100890002D01*
X122255119Y-101062052D01*
X122196200Y-101192592D01*
X122196200Y-99467408D01*
X122255119Y-99597948D01*
X122378031Y-99769998D01*
X122532147Y-99914763D01*
X122711543Y-100026680D01*
X122909326Y-100101448D01*
X123075700Y-100075383D01*
X123075700Y-99174300D01*
X123304300Y-99174300D01*
X123304300Y-100075383D01*
X123470674Y-100101448D01*
X123668457Y-100026680D01*
X123847853Y-99914763D01*
X124001969Y-99769998D01*
X124124881Y-99597948D01*
X124211866Y-99405225D01*
X124231442Y-99340673D01*
X124205035Y-99174300D01*
X123304300Y-99174300D01*
X123075700Y-99174300D01*
X123055700Y-99174300D01*
X123055700Y-98945700D01*
X123075700Y-98945700D01*
X123075700Y-98044617D01*
X123304300Y-98044617D01*
X123304300Y-98945700D01*
X124205035Y-98945700D01*
X124231442Y-98779327D01*
X124211866Y-98714775D01*
X124124881Y-98522052D01*
X124001969Y-98350002D01*
X123847853Y-98205237D01*
X123668457Y-98093320D01*
X123470674Y-98018552D01*
X123304300Y-98044617D01*
X123075700Y-98044617D01*
X122909326Y-98018552D01*
X122711543Y-98093320D01*
X122532147Y-98205237D01*
X122378031Y-98350002D01*
X122255119Y-98522052D01*
X122196200Y-98652592D01*
X122196200Y-96927408D01*
X122255119Y-97057948D01*
X122378031Y-97229998D01*
X122532147Y-97374763D01*
X122711543Y-97486680D01*
X122909326Y-97561448D01*
X123075700Y-97535383D01*
X123075700Y-96634300D01*
X123304300Y-96634300D01*
X123304300Y-97535383D01*
X123470674Y-97561448D01*
X123668457Y-97486680D01*
X123847853Y-97374763D01*
X124001969Y-97229998D01*
X124124881Y-97057948D01*
X124211866Y-96865225D01*
X124231442Y-96800673D01*
X124205035Y-96634300D01*
X123304300Y-96634300D01*
X123075700Y-96634300D01*
X123055700Y-96634300D01*
X123055700Y-96405700D01*
X123075700Y-96405700D01*
X123075700Y-95504617D01*
X123304300Y-95504617D01*
X123304300Y-96405700D01*
X124205035Y-96405700D01*
X124231442Y-96239327D01*
X124211866Y-96174775D01*
X124124881Y-95982052D01*
X124001969Y-95810002D01*
X123847853Y-95665237D01*
X123668457Y-95553320D01*
X123470674Y-95478552D01*
X123304300Y-95504617D01*
X123075700Y-95504617D01*
X122909326Y-95478552D01*
X122711543Y-95553320D01*
X122532147Y-95665237D01*
X122378031Y-95810002D01*
X122255119Y-95982052D01*
X122196200Y-96112592D01*
X122196200Y-94387408D01*
X122255119Y-94517948D01*
X122378031Y-94689998D01*
X122532147Y-94834763D01*
X122711543Y-94946680D01*
X122909326Y-95021448D01*
X123075700Y-94995383D01*
X123075700Y-94094300D01*
X123304300Y-94094300D01*
X123304300Y-94995383D01*
X123470674Y-95021448D01*
X123668457Y-94946680D01*
X123847853Y-94834763D01*
X124001969Y-94689998D01*
X124124881Y-94517948D01*
X124211866Y-94325225D01*
X124231442Y-94260673D01*
X124205035Y-94094300D01*
X123304300Y-94094300D01*
X123075700Y-94094300D01*
X123055700Y-94094300D01*
X123055700Y-93865700D01*
X123075700Y-93865700D01*
X123075700Y-92964617D01*
X123304300Y-92964617D01*
X123304300Y-93865700D01*
X124205035Y-93865700D01*
X124231442Y-93699327D01*
X124211866Y-93634775D01*
X124124881Y-93442052D01*
X124001969Y-93270002D01*
X123847853Y-93125237D01*
X123668457Y-93013320D01*
X123470674Y-92938552D01*
X123304300Y-92964617D01*
X123075700Y-92964617D01*
X122909326Y-92938552D01*
X122711543Y-93013320D01*
X122532147Y-93125237D01*
X122378031Y-93270002D01*
X122255119Y-93442052D01*
X122196200Y-93572592D01*
X122196200Y-93345000D01*
X122190893Y-93291116D01*
X122094220Y-92805108D01*
X122078503Y-92753295D01*
X122052979Y-92705544D01*
X121777678Y-92293526D01*
X121743329Y-92251671D01*
X121701474Y-92217322D01*
X121289456Y-91942021D01*
X121241705Y-91916497D01*
X121189892Y-91900780D01*
X120703884Y-91804107D01*
X120650000Y-91798800D01*
X111760000Y-91798800D01*
X111706116Y-91804107D01*
X111220108Y-91900780D01*
X111168295Y-91916497D01*
X111120544Y-91942021D01*
X110708526Y-92217322D01*
X110666671Y-92251671D01*
X110632322Y-92293526D01*
X110357021Y-92705544D01*
X110331497Y-92753295D01*
X110315780Y-92805108D01*
X110219107Y-93291116D01*
X110213800Y-93345000D01*
X105250580Y-93345000D01*
X105131289Y-93166470D01*
X104953530Y-92988711D01*
X104744507Y-92849046D01*
X104512254Y-92752844D01*
X104265695Y-92703800D01*
X104014305Y-92703800D01*
X103767746Y-92752844D01*
X103535493Y-92849046D01*
X103326470Y-92988711D01*
X103148711Y-93166470D01*
X103009046Y-93375493D01*
X102912844Y-93607746D01*
X102863800Y-93854305D01*
X81583600Y-93854305D01*
X81583600Y-91454848D01*
X81627620Y-91005896D01*
X81753690Y-90588332D01*
X81958469Y-90203198D01*
X82234147Y-89865183D01*
X82570236Y-89587147D01*
X82953926Y-89379687D01*
X83370600Y-89250705D01*
X83818711Y-89203606D01*
X83820489Y-89203600D01*
X125080152Y-89203600D01*
X125529104Y-89247620D01*
G36*
X121106277Y-92243452D02*
G01*
X121493089Y-92501911D01*
X121751548Y-92888723D01*
X121843800Y-93352506D01*
X121843800Y-109847494D01*
X121751548Y-110311277D01*
X121493089Y-110698089D01*
X121106277Y-110956548D01*
X120642494Y-111048800D01*
X111767506Y-111048800D01*
X111303723Y-110956548D01*
X110916911Y-110698089D01*
X110658452Y-110311277D01*
X110566200Y-109847494D01*
X110566200Y-109220000D01*
X119518351Y-109220000D01*
X119540095Y-109440774D01*
X119604493Y-109653063D01*
X119709068Y-109848710D01*
X119849803Y-110020197D01*
X120021290Y-110160932D01*
X120216937Y-110265507D01*
X120429226Y-110329905D01*
X120594675Y-110346200D01*
X120705325Y-110346200D01*
X120870774Y-110329905D01*
X121083063Y-110265507D01*
X121278710Y-110160932D01*
X121450197Y-110020197D01*
X121590932Y-109848710D01*
X121695507Y-109653063D01*
X121759905Y-109440774D01*
X121781649Y-109220000D01*
X121759905Y-108999226D01*
X121695507Y-108786937D01*
X121590932Y-108591290D01*
X121450197Y-108419803D01*
X121278710Y-108279068D01*
X121083063Y-108174493D01*
X120870774Y-108110095D01*
X120705325Y-108093800D01*
X120594675Y-108093800D01*
X120429226Y-108110095D01*
X120216937Y-108174493D01*
X120021290Y-108279068D01*
X119849803Y-108419803D01*
X119709068Y-108591290D01*
X119604493Y-108786937D01*
X119540095Y-108999226D01*
X119518351Y-109220000D01*
X110566200Y-109220000D01*
X110566200Y-106680000D01*
X119518351Y-106680000D01*
X119540095Y-106900774D01*
X119604493Y-107113063D01*
X119709068Y-107308710D01*
X119849803Y-107480197D01*
X120021290Y-107620932D01*
X120216937Y-107725507D01*
X120429226Y-107789905D01*
X120594675Y-107806200D01*
X120705325Y-107806200D01*
X120870774Y-107789905D01*
X121083063Y-107725507D01*
X121278710Y-107620932D01*
X121450197Y-107480197D01*
X121590932Y-107308710D01*
X121695507Y-107113063D01*
X121759905Y-106900774D01*
X121781649Y-106680000D01*
X121759905Y-106459226D01*
X121695507Y-106246937D01*
X121590932Y-106051290D01*
X121450197Y-105879803D01*
X121278710Y-105739068D01*
X121083063Y-105634493D01*
X120870774Y-105570095D01*
X120705325Y-105553800D01*
X120594675Y-105553800D01*
X120429226Y-105570095D01*
X120216937Y-105634493D01*
X120021290Y-105739068D01*
X119849803Y-105879803D01*
X119709068Y-106051290D01*
X119604493Y-106246937D01*
X119540095Y-106459226D01*
X119518351Y-106680000D01*
X110566200Y-106680000D01*
X110566200Y-104420673D01*
X119608558Y-104420673D01*
X119628134Y-104485225D01*
X119715119Y-104677948D01*
X119838031Y-104849998D01*
X119992147Y-104994763D01*
X120171543Y-105106680D01*
X120369326Y-105181448D01*
X120535700Y-105155383D01*
X120535700Y-104254300D01*
X120764300Y-104254300D01*
X120764300Y-105155383D01*
X120930674Y-105181448D01*
X121128457Y-105106680D01*
X121307853Y-104994763D01*
X121461969Y-104849998D01*
X121584881Y-104677948D01*
X121671866Y-104485225D01*
X121691442Y-104420673D01*
X121665035Y-104254300D01*
X120764300Y-104254300D01*
X120535700Y-104254300D01*
X119634965Y-104254300D01*
X119608558Y-104420673D01*
X110566200Y-104420673D01*
X110566200Y-103859327D01*
X119608558Y-103859327D01*
X119634965Y-104025700D01*
X120535700Y-104025700D01*
X120535700Y-103124617D01*
X120764300Y-103124617D01*
X120764300Y-104025700D01*
X121665035Y-104025700D01*
X121691442Y-103859327D01*
X121671866Y-103794775D01*
X121584881Y-103602052D01*
X121461969Y-103430002D01*
X121307853Y-103285237D01*
X121128457Y-103173320D01*
X120930674Y-103098552D01*
X120764300Y-103124617D01*
X120535700Y-103124617D01*
X120369326Y-103098552D01*
X120171543Y-103173320D01*
X119992147Y-103285237D01*
X119838031Y-103430002D01*
X119715119Y-103602052D01*
X119628134Y-103794775D01*
X119608558Y-103859327D01*
X110566200Y-103859327D01*
X110566200Y-101880673D01*
X119608558Y-101880673D01*
X119628134Y-101945225D01*
X119715119Y-102137948D01*
X119838031Y-102309998D01*
X119992147Y-102454763D01*
X120171543Y-102566680D01*
X120369326Y-102641448D01*
X120535700Y-102615383D01*
X120535700Y-101714300D01*
X120764300Y-101714300D01*
X120764300Y-102615383D01*
X120930674Y-102641448D01*
X121128457Y-102566680D01*
X121307853Y-102454763D01*
X121461969Y-102309998D01*
X121584881Y-102137948D01*
X121671866Y-101945225D01*
X121691442Y-101880673D01*
X121665035Y-101714300D01*
X120764300Y-101714300D01*
X120535700Y-101714300D01*
X119634965Y-101714300D01*
X119608558Y-101880673D01*
X110566200Y-101880673D01*
X110566200Y-101319327D01*
X119608558Y-101319327D01*
X119634965Y-101485700D01*
X120535700Y-101485700D01*
X120535700Y-100584617D01*
X120764300Y-100584617D01*
X120764300Y-101485700D01*
X121665035Y-101485700D01*
X121691442Y-101319327D01*
X121671866Y-101254775D01*
X121584881Y-101062052D01*
X121461969Y-100890002D01*
X121307853Y-100745237D01*
X121128457Y-100633320D01*
X120930674Y-100558552D01*
X120764300Y-100584617D01*
X120535700Y-100584617D01*
X120369326Y-100558552D01*
X120171543Y-100633320D01*
X119992147Y-100745237D01*
X119838031Y-100890002D01*
X119715119Y-101062052D01*
X119628134Y-101254775D01*
X119608558Y-101319327D01*
X110566200Y-101319327D01*
X110566200Y-99340673D01*
X119608558Y-99340673D01*
X119628134Y-99405225D01*
X119715119Y-99597948D01*
X119838031Y-99769998D01*
X119992147Y-99914763D01*
X120171543Y-100026680D01*
X120369326Y-100101448D01*
X120535700Y-100075383D01*
X120535700Y-99174300D01*
X120764300Y-99174300D01*
X120764300Y-100075383D01*
X120930674Y-100101448D01*
X121128457Y-100026680D01*
X121307853Y-99914763D01*
X121461969Y-99769998D01*
X121584881Y-99597948D01*
X121671866Y-99405225D01*
X121691442Y-99340673D01*
X121665035Y-99174300D01*
X120764300Y-99174300D01*
X120535700Y-99174300D01*
X119634965Y-99174300D01*
X119608558Y-99340673D01*
X110566200Y-99340673D01*
X110566200Y-98779327D01*
X119608558Y-98779327D01*
X119634965Y-98945700D01*
X120535700Y-98945700D01*
X120535700Y-98044617D01*
X120764300Y-98044617D01*
X120764300Y-98945700D01*
X121665035Y-98945700D01*
X121691442Y-98779327D01*
X121671866Y-98714775D01*
X121584881Y-98522052D01*
X121461969Y-98350002D01*
X121307853Y-98205237D01*
X121128457Y-98093320D01*
X120930674Y-98018552D01*
X120764300Y-98044617D01*
X120535700Y-98044617D01*
X120369326Y-98018552D01*
X120171543Y-98093320D01*
X119992147Y-98205237D01*
X119838031Y-98350002D01*
X119715119Y-98522052D01*
X119628134Y-98714775D01*
X119608558Y-98779327D01*
X110566200Y-98779327D01*
X110566200Y-97429434D01*
X114822211Y-97429434D01*
X114939940Y-97581662D01*
X115159167Y-97684181D01*
X115394181Y-97741960D01*
X115635952Y-97752781D01*
X115875188Y-97716227D01*
X116102696Y-97633703D01*
X116200060Y-97581662D01*
X116317789Y-97429434D01*
X115570000Y-96681645D01*
X114822211Y-97429434D01*
X110566200Y-97429434D01*
X110566200Y-96585952D01*
X114337219Y-96585952D01*
X114373773Y-96825188D01*
X114456297Y-97052696D01*
X114508338Y-97150060D01*
X114660566Y-97267789D01*
X115408355Y-96520000D01*
X115731645Y-96520000D01*
X116479434Y-97267789D01*
X116631662Y-97150060D01*
X116734181Y-96930833D01*
X116766181Y-96800673D01*
X119608558Y-96800673D01*
X119628134Y-96865225D01*
X119715119Y-97057948D01*
X119838031Y-97229998D01*
X119992147Y-97374763D01*
X120171543Y-97486680D01*
X120369326Y-97561448D01*
X120535700Y-97535383D01*
X120535700Y-96634300D01*
X120764300Y-96634300D01*
X120764300Y-97535383D01*
X120930674Y-97561448D01*
X121128457Y-97486680D01*
X121307853Y-97374763D01*
X121461969Y-97229998D01*
X121584881Y-97057948D01*
X121671866Y-96865225D01*
X121691442Y-96800673D01*
X121665035Y-96634300D01*
X120764300Y-96634300D01*
X120535700Y-96634300D01*
X119634965Y-96634300D01*
X119608558Y-96800673D01*
X116766181Y-96800673D01*
X116791960Y-96695819D01*
X116802781Y-96454048D01*
X116769973Y-96239327D01*
X119608558Y-96239327D01*
X119634965Y-96405700D01*
X120535700Y-96405700D01*
X120535700Y-95504617D01*
X120764300Y-95504617D01*
X120764300Y-96405700D01*
X121665035Y-96405700D01*
X121691442Y-96239327D01*
X121671866Y-96174775D01*
X121584881Y-95982052D01*
X121461969Y-95810002D01*
X121307853Y-95665237D01*
X121128457Y-95553320D01*
X120930674Y-95478552D01*
X120764300Y-95504617D01*
X120535700Y-95504617D01*
X120369326Y-95478552D01*
X120171543Y-95553320D01*
X119992147Y-95665237D01*
X119838031Y-95810002D01*
X119715119Y-95982052D01*
X119628134Y-96174775D01*
X119608558Y-96239327D01*
X116769973Y-96239327D01*
X116766227Y-96214812D01*
X116683703Y-95987304D01*
X116631662Y-95889940D01*
X116479434Y-95772211D01*
X115731645Y-96520000D01*
X115408355Y-96520000D01*
X114660566Y-95772211D01*
X114508338Y-95889940D01*
X114405819Y-96109167D01*
X114348040Y-96344181D01*
X114337219Y-96585952D01*
X110566200Y-96585952D01*
X110566200Y-95610566D01*
X114822211Y-95610566D01*
X115570000Y-96358355D01*
X116317789Y-95610566D01*
X116200060Y-95458338D01*
X115980833Y-95355819D01*
X115745819Y-95298040D01*
X115504048Y-95287219D01*
X115264812Y-95323773D01*
X115037304Y-95406297D01*
X114939940Y-95458338D01*
X114822211Y-95610566D01*
X110566200Y-95610566D01*
X110566200Y-94830000D01*
X119570294Y-94830000D01*
X119574708Y-94874813D01*
X119587779Y-94917905D01*
X119609006Y-94957618D01*
X119637573Y-94992427D01*
X119672382Y-95020994D01*
X119712095Y-95042221D01*
X119755187Y-95055292D01*
X119800000Y-95059706D01*
X120478550Y-95058600D01*
X120535700Y-95001450D01*
X120535700Y-94094300D01*
X120764300Y-94094300D01*
X120764300Y-95001450D01*
X120821450Y-95058600D01*
X121500000Y-95059706D01*
X121544813Y-95055292D01*
X121587905Y-95042221D01*
X121627618Y-95020994D01*
X121662427Y-94992427D01*
X121690994Y-94957618D01*
X121712221Y-94917905D01*
X121725292Y-94874813D01*
X121729706Y-94830000D01*
X121728600Y-94151450D01*
X121671450Y-94094300D01*
X120764300Y-94094300D01*
X120535700Y-94094300D01*
X119628550Y-94094300D01*
X119571400Y-94151450D01*
X119570294Y-94830000D01*
X110566200Y-94830000D01*
X110566200Y-93352506D01*
X110567433Y-93346305D01*
X114293800Y-93346305D01*
X114293800Y-93597695D01*
X114342844Y-93844254D01*
X114439046Y-94076507D01*
X114578711Y-94285530D01*
X114756470Y-94463289D01*
X114965493Y-94602954D01*
X115197746Y-94699156D01*
X115444305Y-94748200D01*
X115695695Y-94748200D01*
X115942254Y-94699156D01*
X116174507Y-94602954D01*
X116383530Y-94463289D01*
X116561289Y-94285530D01*
X116700954Y-94076507D01*
X116797156Y-93844254D01*
X116846200Y-93597695D01*
X116846200Y-93346305D01*
X116803174Y-93130000D01*
X119570294Y-93130000D01*
X119571400Y-93808550D01*
X119628550Y-93865700D01*
X120535700Y-93865700D01*
X120535700Y-92958550D01*
X120764300Y-92958550D01*
X120764300Y-93865700D01*
X121671450Y-93865700D01*
X121728600Y-93808550D01*
X121729706Y-93130000D01*
X121725292Y-93085187D01*
X121712221Y-93042095D01*
X121690994Y-93002382D01*
X121662427Y-92967573D01*
X121627618Y-92939006D01*
X121587905Y-92917779D01*
X121544813Y-92904708D01*
X121500000Y-92900294D01*
X120821450Y-92901400D01*
X120764300Y-92958550D01*
X120535700Y-92958550D01*
X120478550Y-92901400D01*
X119800000Y-92900294D01*
X119755187Y-92904708D01*
X119712095Y-92917779D01*
X119672382Y-92939006D01*
X119637573Y-92967573D01*
X119609006Y-93002382D01*
X119587779Y-93042095D01*
X119574708Y-93085187D01*
X119570294Y-93130000D01*
X116803174Y-93130000D01*
X116797156Y-93099746D01*
X116700954Y-92867493D01*
X116561289Y-92658470D01*
X116383530Y-92480711D01*
X116174507Y-92341046D01*
X115942254Y-92244844D01*
X115695695Y-92195800D01*
X115444305Y-92195800D01*
X115197746Y-92244844D01*
X114965493Y-92341046D01*
X114756470Y-92480711D01*
X114578711Y-92658470D01*
X114439046Y-92867493D01*
X114342844Y-93099746D01*
X114293800Y-93346305D01*
X110567433Y-93346305D01*
X110658452Y-92888723D01*
X110916911Y-92501911D01*
X111303723Y-92243452D01*
X111767506Y-92151200D01*
X120642494Y-92151200D01*
X121106277Y-92243452D01*
X121106277Y-92243452D01*
G37*
X121106277Y-92243452D02*
X121493089Y-92501911D01*
X121751548Y-92888723D01*
X121843800Y-93352506D01*
X121843800Y-109847494D01*
X121751548Y-110311277D01*
X121493089Y-110698089D01*
X121106277Y-110956548D01*
X120642494Y-111048800D01*
X111767506Y-111048800D01*
X111303723Y-110956548D01*
X110916911Y-110698089D01*
X110658452Y-110311277D01*
X110566200Y-109847494D01*
X110566200Y-109220000D01*
X119518351Y-109220000D01*
X119540095Y-109440774D01*
X119604493Y-109653063D01*
X119709068Y-109848710D01*
X119849803Y-110020197D01*
X120021290Y-110160932D01*
X120216937Y-110265507D01*
X120429226Y-110329905D01*
X120594675Y-110346200D01*
X120705325Y-110346200D01*
X120870774Y-110329905D01*
X121083063Y-110265507D01*
X121278710Y-110160932D01*
X121450197Y-110020197D01*
X121590932Y-109848710D01*
X121695507Y-109653063D01*
X121759905Y-109440774D01*
X121781649Y-109220000D01*
X121759905Y-108999226D01*
X121695507Y-108786937D01*
X121590932Y-108591290D01*
X121450197Y-108419803D01*
X121278710Y-108279068D01*
X121083063Y-108174493D01*
X120870774Y-108110095D01*
X120705325Y-108093800D01*
X120594675Y-108093800D01*
X120429226Y-108110095D01*
X120216937Y-108174493D01*
X120021290Y-108279068D01*
X119849803Y-108419803D01*
X119709068Y-108591290D01*
X119604493Y-108786937D01*
X119540095Y-108999226D01*
X119518351Y-109220000D01*
X110566200Y-109220000D01*
X110566200Y-106680000D01*
X119518351Y-106680000D01*
X119540095Y-106900774D01*
X119604493Y-107113063D01*
X119709068Y-107308710D01*
X119849803Y-107480197D01*
X120021290Y-107620932D01*
X120216937Y-107725507D01*
X120429226Y-107789905D01*
X120594675Y-107806200D01*
X120705325Y-107806200D01*
X120870774Y-107789905D01*
X121083063Y-107725507D01*
X121278710Y-107620932D01*
X121450197Y-107480197D01*
X121590932Y-107308710D01*
X121695507Y-107113063D01*
X121759905Y-106900774D01*
X121781649Y-106680000D01*
X121759905Y-106459226D01*
X121695507Y-106246937D01*
X121590932Y-106051290D01*
X121450197Y-105879803D01*
X121278710Y-105739068D01*
X121083063Y-105634493D01*
X120870774Y-105570095D01*
X120705325Y-105553800D01*
X120594675Y-105553800D01*
X120429226Y-105570095D01*
X120216937Y-105634493D01*
X120021290Y-105739068D01*
X119849803Y-105879803D01*
X119709068Y-106051290D01*
X119604493Y-106246937D01*
X119540095Y-106459226D01*
X119518351Y-106680000D01*
X110566200Y-106680000D01*
X110566200Y-104420673D01*
X119608558Y-104420673D01*
X119628134Y-104485225D01*
X119715119Y-104677948D01*
X119838031Y-104849998D01*
X119992147Y-104994763D01*
X120171543Y-105106680D01*
X120369326Y-105181448D01*
X120535700Y-105155383D01*
X120535700Y-104254300D01*
X120764300Y-104254300D01*
X120764300Y-105155383D01*
X120930674Y-105181448D01*
X121128457Y-105106680D01*
X121307853Y-104994763D01*
X121461969Y-104849998D01*
X121584881Y-104677948D01*
X121671866Y-104485225D01*
X121691442Y-104420673D01*
X121665035Y-104254300D01*
X120764300Y-104254300D01*
X120535700Y-104254300D01*
X119634965Y-104254300D01*
X119608558Y-104420673D01*
X110566200Y-104420673D01*
X110566200Y-103859327D01*
X119608558Y-103859327D01*
X119634965Y-104025700D01*
X120535700Y-104025700D01*
X120535700Y-103124617D01*
X120764300Y-103124617D01*
X120764300Y-104025700D01*
X121665035Y-104025700D01*
X121691442Y-103859327D01*
X121671866Y-103794775D01*
X121584881Y-103602052D01*
X121461969Y-103430002D01*
X121307853Y-103285237D01*
X121128457Y-103173320D01*
X120930674Y-103098552D01*
X120764300Y-103124617D01*
X120535700Y-103124617D01*
X120369326Y-103098552D01*
X120171543Y-103173320D01*
X119992147Y-103285237D01*
X119838031Y-103430002D01*
X119715119Y-103602052D01*
X119628134Y-103794775D01*
X119608558Y-103859327D01*
X110566200Y-103859327D01*
X110566200Y-101880673D01*
X119608558Y-101880673D01*
X119628134Y-101945225D01*
X119715119Y-102137948D01*
X119838031Y-102309998D01*
X119992147Y-102454763D01*
X120171543Y-102566680D01*
X120369326Y-102641448D01*
X120535700Y-102615383D01*
X120535700Y-101714300D01*
X120764300Y-101714300D01*
X120764300Y-102615383D01*
X120930674Y-102641448D01*
X121128457Y-102566680D01*
X121307853Y-102454763D01*
X121461969Y-102309998D01*
X121584881Y-102137948D01*
X121671866Y-101945225D01*
X121691442Y-101880673D01*
X121665035Y-101714300D01*
X120764300Y-101714300D01*
X120535700Y-101714300D01*
X119634965Y-101714300D01*
X119608558Y-101880673D01*
X110566200Y-101880673D01*
X110566200Y-101319327D01*
X119608558Y-101319327D01*
X119634965Y-101485700D01*
X120535700Y-101485700D01*
X120535700Y-100584617D01*
X120764300Y-100584617D01*
X120764300Y-101485700D01*
X121665035Y-101485700D01*
X121691442Y-101319327D01*
X121671866Y-101254775D01*
X121584881Y-101062052D01*
X121461969Y-100890002D01*
X121307853Y-100745237D01*
X121128457Y-100633320D01*
X120930674Y-100558552D01*
X120764300Y-100584617D01*
X120535700Y-100584617D01*
X120369326Y-100558552D01*
X120171543Y-100633320D01*
X119992147Y-100745237D01*
X119838031Y-100890002D01*
X119715119Y-101062052D01*
X119628134Y-101254775D01*
X119608558Y-101319327D01*
X110566200Y-101319327D01*
X110566200Y-99340673D01*
X119608558Y-99340673D01*
X119628134Y-99405225D01*
X119715119Y-99597948D01*
X119838031Y-99769998D01*
X119992147Y-99914763D01*
X120171543Y-100026680D01*
X120369326Y-100101448D01*
X120535700Y-100075383D01*
X120535700Y-99174300D01*
X120764300Y-99174300D01*
X120764300Y-100075383D01*
X120930674Y-100101448D01*
X121128457Y-100026680D01*
X121307853Y-99914763D01*
X121461969Y-99769998D01*
X121584881Y-99597948D01*
X121671866Y-99405225D01*
X121691442Y-99340673D01*
X121665035Y-99174300D01*
X120764300Y-99174300D01*
X120535700Y-99174300D01*
X119634965Y-99174300D01*
X119608558Y-99340673D01*
X110566200Y-99340673D01*
X110566200Y-98779327D01*
X119608558Y-98779327D01*
X119634965Y-98945700D01*
X120535700Y-98945700D01*
X120535700Y-98044617D01*
X120764300Y-98044617D01*
X120764300Y-98945700D01*
X121665035Y-98945700D01*
X121691442Y-98779327D01*
X121671866Y-98714775D01*
X121584881Y-98522052D01*
X121461969Y-98350002D01*
X121307853Y-98205237D01*
X121128457Y-98093320D01*
X120930674Y-98018552D01*
X120764300Y-98044617D01*
X120535700Y-98044617D01*
X120369326Y-98018552D01*
X120171543Y-98093320D01*
X119992147Y-98205237D01*
X119838031Y-98350002D01*
X119715119Y-98522052D01*
X119628134Y-98714775D01*
X119608558Y-98779327D01*
X110566200Y-98779327D01*
X110566200Y-97429434D01*
X114822211Y-97429434D01*
X114939940Y-97581662D01*
X115159167Y-97684181D01*
X115394181Y-97741960D01*
X115635952Y-97752781D01*
X115875188Y-97716227D01*
X116102696Y-97633703D01*
X116200060Y-97581662D01*
X116317789Y-97429434D01*
X115570000Y-96681645D01*
X114822211Y-97429434D01*
X110566200Y-97429434D01*
X110566200Y-96585952D01*
X114337219Y-96585952D01*
X114373773Y-96825188D01*
X114456297Y-97052696D01*
X114508338Y-97150060D01*
X114660566Y-97267789D01*
X115408355Y-96520000D01*
X115731645Y-96520000D01*
X116479434Y-97267789D01*
X116631662Y-97150060D01*
X116734181Y-96930833D01*
X116766181Y-96800673D01*
X119608558Y-96800673D01*
X119628134Y-96865225D01*
X119715119Y-97057948D01*
X119838031Y-97229998D01*
X119992147Y-97374763D01*
X120171543Y-97486680D01*
X120369326Y-97561448D01*
X120535700Y-97535383D01*
X120535700Y-96634300D01*
X120764300Y-96634300D01*
X120764300Y-97535383D01*
X120930674Y-97561448D01*
X121128457Y-97486680D01*
X121307853Y-97374763D01*
X121461969Y-97229998D01*
X121584881Y-97057948D01*
X121671866Y-96865225D01*
X121691442Y-96800673D01*
X121665035Y-96634300D01*
X120764300Y-96634300D01*
X120535700Y-96634300D01*
X119634965Y-96634300D01*
X119608558Y-96800673D01*
X116766181Y-96800673D01*
X116791960Y-96695819D01*
X116802781Y-96454048D01*
X116769973Y-96239327D01*
X119608558Y-96239327D01*
X119634965Y-96405700D01*
X120535700Y-96405700D01*
X120535700Y-95504617D01*
X120764300Y-95504617D01*
X120764300Y-96405700D01*
X121665035Y-96405700D01*
X121691442Y-96239327D01*
X121671866Y-96174775D01*
X121584881Y-95982052D01*
X121461969Y-95810002D01*
X121307853Y-95665237D01*
X121128457Y-95553320D01*
X120930674Y-95478552D01*
X120764300Y-95504617D01*
X120535700Y-95504617D01*
X120369326Y-95478552D01*
X120171543Y-95553320D01*
X119992147Y-95665237D01*
X119838031Y-95810002D01*
X119715119Y-95982052D01*
X119628134Y-96174775D01*
X119608558Y-96239327D01*
X116769973Y-96239327D01*
X116766227Y-96214812D01*
X116683703Y-95987304D01*
X116631662Y-95889940D01*
X116479434Y-95772211D01*
X115731645Y-96520000D01*
X115408355Y-96520000D01*
X114660566Y-95772211D01*
X114508338Y-95889940D01*
X114405819Y-96109167D01*
X114348040Y-96344181D01*
X114337219Y-96585952D01*
X110566200Y-96585952D01*
X110566200Y-95610566D01*
X114822211Y-95610566D01*
X115570000Y-96358355D01*
X116317789Y-95610566D01*
X116200060Y-95458338D01*
X115980833Y-95355819D01*
X115745819Y-95298040D01*
X115504048Y-95287219D01*
X115264812Y-95323773D01*
X115037304Y-95406297D01*
X114939940Y-95458338D01*
X114822211Y-95610566D01*
X110566200Y-95610566D01*
X110566200Y-94830000D01*
X119570294Y-94830000D01*
X119574708Y-94874813D01*
X119587779Y-94917905D01*
X119609006Y-94957618D01*
X119637573Y-94992427D01*
X119672382Y-95020994D01*
X119712095Y-95042221D01*
X119755187Y-95055292D01*
X119800000Y-95059706D01*
X120478550Y-95058600D01*
X120535700Y-95001450D01*
X120535700Y-94094300D01*
X120764300Y-94094300D01*
X120764300Y-95001450D01*
X120821450Y-95058600D01*
X121500000Y-95059706D01*
X121544813Y-95055292D01*
X121587905Y-95042221D01*
X121627618Y-95020994D01*
X121662427Y-94992427D01*
X121690994Y-94957618D01*
X121712221Y-94917905D01*
X121725292Y-94874813D01*
X121729706Y-94830000D01*
X121728600Y-94151450D01*
X121671450Y-94094300D01*
X120764300Y-94094300D01*
X120535700Y-94094300D01*
X119628550Y-94094300D01*
X119571400Y-94151450D01*
X119570294Y-94830000D01*
X110566200Y-94830000D01*
X110566200Y-93352506D01*
X110567433Y-93346305D01*
X114293800Y-93346305D01*
X114293800Y-93597695D01*
X114342844Y-93844254D01*
X114439046Y-94076507D01*
X114578711Y-94285530D01*
X114756470Y-94463289D01*
X114965493Y-94602954D01*
X115197746Y-94699156D01*
X115444305Y-94748200D01*
X115695695Y-94748200D01*
X115942254Y-94699156D01*
X116174507Y-94602954D01*
X116383530Y-94463289D01*
X116561289Y-94285530D01*
X116700954Y-94076507D01*
X116797156Y-93844254D01*
X116846200Y-93597695D01*
X116846200Y-93346305D01*
X116803174Y-93130000D01*
X119570294Y-93130000D01*
X119571400Y-93808550D01*
X119628550Y-93865700D01*
X120535700Y-93865700D01*
X120535700Y-92958550D01*
X120764300Y-92958550D01*
X120764300Y-93865700D01*
X121671450Y-93865700D01*
X121728600Y-93808550D01*
X121729706Y-93130000D01*
X121725292Y-93085187D01*
X121712221Y-93042095D01*
X121690994Y-93002382D01*
X121662427Y-92967573D01*
X121627618Y-92939006D01*
X121587905Y-92917779D01*
X121544813Y-92904708D01*
X121500000Y-92900294D01*
X120821450Y-92901400D01*
X120764300Y-92958550D01*
X120535700Y-92958550D01*
X120478550Y-92901400D01*
X119800000Y-92900294D01*
X119755187Y-92904708D01*
X119712095Y-92917779D01*
X119672382Y-92939006D01*
X119637573Y-92967573D01*
X119609006Y-93002382D01*
X119587779Y-93042095D01*
X119574708Y-93085187D01*
X119570294Y-93130000D01*
X116803174Y-93130000D01*
X116797156Y-93099746D01*
X116700954Y-92867493D01*
X116561289Y-92658470D01*
X116383530Y-92480711D01*
X116174507Y-92341046D01*
X115942254Y-92244844D01*
X115695695Y-92195800D01*
X115444305Y-92195800D01*
X115197746Y-92244844D01*
X114965493Y-92341046D01*
X114756470Y-92480711D01*
X114578711Y-92658470D01*
X114439046Y-92867493D01*
X114342844Y-93099746D01*
X114293800Y-93346305D01*
X110567433Y-93346305D01*
X110658452Y-92888723D01*
X110916911Y-92501911D01*
X111303723Y-92243452D01*
X111767506Y-92151200D01*
X120642494Y-92151200D01*
X121106277Y-92243452D01*
M02*
