M48
; DRILL file {KiCad (5.1.2-1)-1} date Saturday, June 22, 2019 at 01:14:21 PM
; FORMAT={-:-/ absolute / inch / decimal}
; #@! TF.CreationDate,2019-06-22T13:14:21-07:00
; #@! TF.GenerationSoftware,Kicad,Pcbnew,(5.1.2-1)-1
; #@! TF.FileFunction,Plated,1,2,PTH
FMAT,2
INCH
T1C0.0118
T2C0.0157
T3C0.0394
%
G90
G05
T1
X3.76Y-4.05
X3.8Y-4.05
X3.835Y-4.05
T2
X3.725Y-4.35
X3.775Y-4.35
X3.8Y-4.25
X3.825Y-4.35
X3.85Y-3.75
X3.875Y-4.35
X3.925Y-4.25
X3.975Y-4.25
X4.025Y-4.25
X4.025Y-4.3
X4.025Y-4.35
X4.15Y-3.8
X4.15Y-3.85
X4.15Y-3.9
X4.15Y-3.95
X4.2Y-3.75
X4.2Y-3.8
X4.2Y-3.85
X4.25Y-3.75
X4.25Y-3.8
X4.25Y-3.85
X4.425Y-3.875
X4.475Y-3.85
X4.475Y-4.15
X4.525Y-3.875
X4.525Y-4.175
X4.575Y-3.85
X4.575Y-4.15
X4.625Y-3.675
X4.625Y-3.725
X4.625Y-3.775
X4.625Y-3.825
X4.625Y-3.875
X4.625Y-3.925
X4.625Y-3.975
X4.625Y-4.025
X4.625Y-4.075
X4.625Y-4.125
X4.625Y-4.175
X4.675Y-3.65
X4.675Y-3.7
X4.675Y-3.75
X4.675Y-3.8
X4.675Y-3.85
X4.675Y-3.9
X4.675Y-3.95
X4.675Y-4.0
X4.675Y-4.05
X4.675Y-4.1
X4.675Y-4.15
T3
X3.6Y-3.925
X4.1Y-4.2
X3.6Y-4.075
X4.55Y-3.8
X3.6Y-4.225
X4.1Y-3.7
X4.75Y-3.7
X4.75Y-3.8
X4.75Y-3.9
X4.75Y-4.0
X4.75Y-4.1
X4.75Y-4.2
X4.75Y-4.3
X4.85Y-3.7
X4.85Y-3.8
X4.85Y-3.9
X4.85Y-4.0
X4.85Y-4.1
X4.85Y-4.2
X4.85Y-4.3
X3.45Y-3.85
X3.45Y-3.95
X3.45Y-4.05
X3.45Y-4.15
X4.1Y-4.32
X4.55Y-3.68
X3.6Y-3.775
T0
M30
