%TF.GenerationSoftware,KiCad,Pcbnew,(5.1.2-1)-1*%
%TF.CreationDate,2019-06-22T13:14:17-07:00*%
%TF.ProjectId,Buck Converter SubBoard 0-2,4275636b-2043-46f6-9e76-657274657220,rev?*%
%TF.SameCoordinates,Original*%
%TF.FileFunction,Legend,Bot*%
%TF.FilePolarity,Positive*%
%FSLAX46Y46*%
G04 Gerber Fmt 4.6, Leading zero omitted, Abs format (unit mm)*
G04 Created by KiCad (PCBNEW (5.1.2-1)-1) date 2019-06-22 13:14:17*
%MOMM*%
%LPD*%
G04 APERTURE LIST*
%ADD10C,0.285750*%
G04 APERTURE END LIST*
D10*
X93766594Y-91224553D02*
X93766594Y-89700553D01*
X93276737Y-91151982D02*
X93167880Y-91224553D01*
X92950166Y-91224553D01*
X92841308Y-91151982D01*
X92786880Y-91006839D01*
X92786880Y-90934267D01*
X92841308Y-90789125D01*
X92950166Y-90716553D01*
X93113451Y-90716553D01*
X93222308Y-90643982D01*
X93276737Y-90498839D01*
X93276737Y-90426267D01*
X93222308Y-90281125D01*
X93113451Y-90208553D01*
X92950166Y-90208553D01*
X92841308Y-90281125D01*
X92297023Y-91224553D02*
X92297023Y-89700553D01*
X91807166Y-91224553D02*
X91807166Y-90426267D01*
X91861594Y-90281125D01*
X91970451Y-90208553D01*
X92133737Y-90208553D01*
X92242594Y-90281125D01*
X92297023Y-90353696D01*
X90773023Y-91224553D02*
X90773023Y-90426267D01*
X90827451Y-90281125D01*
X90936308Y-90208553D01*
X91154023Y-90208553D01*
X91262880Y-90281125D01*
X90773023Y-91151982D02*
X90881880Y-91224553D01*
X91154023Y-91224553D01*
X91262880Y-91151982D01*
X91317308Y-91006839D01*
X91317308Y-90861696D01*
X91262880Y-90716553D01*
X91154023Y-90643982D01*
X90881880Y-90643982D01*
X90773023Y-90571410D01*
X89738880Y-91224553D02*
X89738880Y-90426267D01*
X89793308Y-90281125D01*
X89902166Y-90208553D01*
X90119880Y-90208553D01*
X90228737Y-90281125D01*
X89738880Y-91151982D02*
X89847737Y-91224553D01*
X90119880Y-91224553D01*
X90228737Y-91151982D01*
X90283166Y-91006839D01*
X90283166Y-90861696D01*
X90228737Y-90716553D01*
X90119880Y-90643982D01*
X89847737Y-90643982D01*
X89738880Y-90571410D01*
X89194594Y-90208553D02*
X89194594Y-91224553D01*
X89194594Y-90353696D02*
X89140166Y-90281125D01*
X89031308Y-90208553D01*
X88868023Y-90208553D01*
X88759166Y-90281125D01*
X88704737Y-90426267D01*
X88704737Y-91224553D01*
X86690880Y-89773125D02*
X86799737Y-89700553D01*
X86963023Y-89700553D01*
X87126308Y-89773125D01*
X87235166Y-89918267D01*
X87289594Y-90063410D01*
X87344023Y-90353696D01*
X87344023Y-90571410D01*
X87289594Y-90861696D01*
X87235166Y-91006839D01*
X87126308Y-91151982D01*
X86963023Y-91224553D01*
X86854166Y-91224553D01*
X86690880Y-91151982D01*
X86636451Y-91079410D01*
X86636451Y-90571410D01*
X86854166Y-90571410D01*
X85983308Y-91224553D02*
X86092166Y-91151982D01*
X86146594Y-91079410D01*
X86201023Y-90934267D01*
X86201023Y-90498839D01*
X86146594Y-90353696D01*
X86092166Y-90281125D01*
X85983308Y-90208553D01*
X85820023Y-90208553D01*
X85711166Y-90281125D01*
X85656737Y-90353696D01*
X85602308Y-90498839D01*
X85602308Y-90934267D01*
X85656737Y-91079410D01*
X85711166Y-91151982D01*
X85820023Y-91224553D01*
X85983308Y-91224553D01*
X85221308Y-90208553D02*
X84949166Y-91224553D01*
X84677023Y-90208553D01*
X93059023Y-92272303D02*
X93059023Y-93360875D01*
X93113451Y-93578589D01*
X93222308Y-93723732D01*
X93385594Y-93796303D01*
X93494451Y-93796303D01*
X92024880Y-92780303D02*
X92024880Y-93796303D01*
X92514737Y-92780303D02*
X92514737Y-93578589D01*
X92460308Y-93723732D01*
X92351451Y-93796303D01*
X92188166Y-93796303D01*
X92079308Y-93723732D01*
X92024880Y-93651160D01*
X91480594Y-92780303D02*
X91480594Y-93796303D01*
X91480594Y-92925446D02*
X91426166Y-92852875D01*
X91317308Y-92780303D01*
X91154023Y-92780303D01*
X91045166Y-92852875D01*
X90990737Y-92998017D01*
X90990737Y-93796303D01*
X90011023Y-93723732D02*
X90119880Y-93796303D01*
X90337594Y-93796303D01*
X90446451Y-93723732D01*
X90500880Y-93578589D01*
X90500880Y-92998017D01*
X90446451Y-92852875D01*
X90337594Y-92780303D01*
X90119880Y-92780303D01*
X90011023Y-92852875D01*
X89956594Y-92998017D01*
X89956594Y-93143160D01*
X90500880Y-93288303D01*
X88650308Y-92417446D02*
X88595880Y-92344875D01*
X88487023Y-92272303D01*
X88214880Y-92272303D01*
X88106023Y-92344875D01*
X88051594Y-92417446D01*
X87997166Y-92562589D01*
X87997166Y-92707732D01*
X88051594Y-92925446D01*
X88704737Y-93796303D01*
X87997166Y-93796303D01*
X87289594Y-92272303D02*
X87180737Y-92272303D01*
X87071880Y-92344875D01*
X87017451Y-92417446D01*
X86963023Y-92562589D01*
X86908594Y-92852875D01*
X86908594Y-93215732D01*
X86963023Y-93506017D01*
X87017451Y-93651160D01*
X87071880Y-93723732D01*
X87180737Y-93796303D01*
X87289594Y-93796303D01*
X87398451Y-93723732D01*
X87452880Y-93651160D01*
X87507308Y-93506017D01*
X87561737Y-93215732D01*
X87561737Y-92852875D01*
X87507308Y-92562589D01*
X87452880Y-92417446D01*
X87398451Y-92344875D01*
X87289594Y-92272303D01*
X85820023Y-93796303D02*
X86473166Y-93796303D01*
X86146594Y-93796303D02*
X86146594Y-92272303D01*
X86255451Y-92490017D01*
X86364308Y-92635160D01*
X86473166Y-92707732D01*
X85275737Y-93796303D02*
X85058023Y-93796303D01*
X84949166Y-93723732D01*
X84894737Y-93651160D01*
X84785880Y-93433446D01*
X84731451Y-93143160D01*
X84731451Y-92562589D01*
X84785880Y-92417446D01*
X84840308Y-92344875D01*
X84949166Y-92272303D01*
X85166880Y-92272303D01*
X85275737Y-92344875D01*
X85330166Y-92417446D01*
X85384594Y-92562589D01*
X85384594Y-92925446D01*
X85330166Y-93070589D01*
X85275737Y-93143160D01*
X85166880Y-93215732D01*
X84949166Y-93215732D01*
X84840308Y-93143160D01*
X84785880Y-93070589D01*
X84731451Y-92925446D01*
X124364976Y-91240428D02*
X124745976Y-90514714D01*
X125018119Y-91240428D02*
X125018119Y-89716428D01*
X124582691Y-89716428D01*
X124473833Y-89789000D01*
X124419405Y-89861571D01*
X124364976Y-90006714D01*
X124364976Y-90224428D01*
X124419405Y-90369571D01*
X124473833Y-90442142D01*
X124582691Y-90514714D01*
X125018119Y-90514714D01*
X123439691Y-91167857D02*
X123548548Y-91240428D01*
X123766262Y-91240428D01*
X123875119Y-91167857D01*
X123929548Y-91022714D01*
X123929548Y-90442142D01*
X123875119Y-90297000D01*
X123766262Y-90224428D01*
X123548548Y-90224428D01*
X123439691Y-90297000D01*
X123385262Y-90442142D01*
X123385262Y-90587285D01*
X123929548Y-90732428D01*
X122405548Y-90224428D02*
X122405548Y-91458142D01*
X122459976Y-91603285D01*
X122514405Y-91675857D01*
X122623262Y-91748428D01*
X122786548Y-91748428D01*
X122895405Y-91675857D01*
X122405548Y-91167857D02*
X122514405Y-91240428D01*
X122732119Y-91240428D01*
X122840976Y-91167857D01*
X122895405Y-91095285D01*
X122949833Y-90950142D01*
X122949833Y-90514714D01*
X122895405Y-90369571D01*
X122840976Y-90297000D01*
X122732119Y-90224428D01*
X122514405Y-90224428D01*
X122405548Y-90297000D01*
X121371405Y-90224428D02*
X121371405Y-91240428D01*
X121861262Y-90224428D02*
X121861262Y-91022714D01*
X121806833Y-91167857D01*
X121697976Y-91240428D01*
X121534691Y-91240428D01*
X121425833Y-91167857D01*
X121371405Y-91095285D01*
X120663833Y-91240428D02*
X120772691Y-91167857D01*
X120827119Y-91022714D01*
X120827119Y-89716428D01*
X119738548Y-91240428D02*
X119738548Y-90442142D01*
X119792976Y-90297000D01*
X119901833Y-90224428D01*
X120119548Y-90224428D01*
X120228405Y-90297000D01*
X119738548Y-91167857D02*
X119847405Y-91240428D01*
X120119548Y-91240428D01*
X120228405Y-91167857D01*
X120282833Y-91022714D01*
X120282833Y-90877571D01*
X120228405Y-90732428D01*
X120119548Y-90659857D01*
X119847405Y-90659857D01*
X119738548Y-90587285D01*
X119357548Y-90224428D02*
X118922119Y-90224428D01*
X119194262Y-89716428D02*
X119194262Y-91022714D01*
X119139833Y-91167857D01*
X119030976Y-91240428D01*
X118922119Y-91240428D01*
X118377833Y-91240428D02*
X118486691Y-91167857D01*
X118541119Y-91095285D01*
X118595548Y-90950142D01*
X118595548Y-90514714D01*
X118541119Y-90369571D01*
X118486691Y-90297000D01*
X118377833Y-90224428D01*
X118214548Y-90224428D01*
X118105691Y-90297000D01*
X118051262Y-90369571D01*
X117996833Y-90514714D01*
X117996833Y-90950142D01*
X118051262Y-91095285D01*
X118105691Y-91167857D01*
X118214548Y-91240428D01*
X118377833Y-91240428D01*
X117506976Y-91240428D02*
X117506976Y-90224428D01*
X117506976Y-90514714D02*
X117452548Y-90369571D01*
X117398119Y-90297000D01*
X117289262Y-90224428D01*
X117180405Y-90224428D01*
X115982976Y-91167857D02*
X115819691Y-91240428D01*
X115547548Y-91240428D01*
X115438691Y-91167857D01*
X115384262Y-91095285D01*
X115329833Y-90950142D01*
X115329833Y-90805000D01*
X115384262Y-90659857D01*
X115438691Y-90587285D01*
X115547548Y-90514714D01*
X115765262Y-90442142D01*
X115874119Y-90369571D01*
X115928548Y-90297000D01*
X115982976Y-90151857D01*
X115982976Y-90006714D01*
X115928548Y-89861571D01*
X115874119Y-89789000D01*
X115765262Y-89716428D01*
X115493119Y-89716428D01*
X115329833Y-89789000D01*
X114350119Y-90224428D02*
X114350119Y-91240428D01*
X114839976Y-90224428D02*
X114839976Y-91022714D01*
X114785548Y-91167857D01*
X114676691Y-91240428D01*
X114513405Y-91240428D01*
X114404548Y-91167857D01*
X114350119Y-91095285D01*
X113805833Y-91240428D02*
X113805833Y-89716428D01*
X113805833Y-90297000D02*
X113696976Y-90224428D01*
X113479262Y-90224428D01*
X113370405Y-90297000D01*
X113315976Y-90369571D01*
X113261548Y-90514714D01*
X113261548Y-90950142D01*
X113315976Y-91095285D01*
X113370405Y-91167857D01*
X113479262Y-91240428D01*
X113696976Y-91240428D01*
X113805833Y-91167857D01*
X112390691Y-90442142D02*
X112227405Y-90514714D01*
X112172976Y-90587285D01*
X112118548Y-90732428D01*
X112118548Y-90950142D01*
X112172976Y-91095285D01*
X112227405Y-91167857D01*
X112336262Y-91240428D01*
X112771691Y-91240428D01*
X112771691Y-89716428D01*
X112390691Y-89716428D01*
X112281833Y-89789000D01*
X112227405Y-89861571D01*
X112172976Y-90006714D01*
X112172976Y-90151857D01*
X112227405Y-90297000D01*
X112281833Y-90369571D01*
X112390691Y-90442142D01*
X112771691Y-90442142D01*
X111465405Y-91240428D02*
X111574262Y-91167857D01*
X111628691Y-91095285D01*
X111683119Y-90950142D01*
X111683119Y-90514714D01*
X111628691Y-90369571D01*
X111574262Y-90297000D01*
X111465405Y-90224428D01*
X111302119Y-90224428D01*
X111193262Y-90297000D01*
X111138833Y-90369571D01*
X111084405Y-90514714D01*
X111084405Y-90950142D01*
X111138833Y-91095285D01*
X111193262Y-91167857D01*
X111302119Y-91240428D01*
X111465405Y-91240428D01*
X110104691Y-91240428D02*
X110104691Y-90442142D01*
X110159119Y-90297000D01*
X110267976Y-90224428D01*
X110485691Y-90224428D01*
X110594548Y-90297000D01*
X110104691Y-91167857D02*
X110213548Y-91240428D01*
X110485691Y-91240428D01*
X110594548Y-91167857D01*
X110648976Y-91022714D01*
X110648976Y-90877571D01*
X110594548Y-90732428D01*
X110485691Y-90659857D01*
X110213548Y-90659857D01*
X110104691Y-90587285D01*
X109560405Y-91240428D02*
X109560405Y-90224428D01*
X109560405Y-90514714D02*
X109505976Y-90369571D01*
X109451548Y-90297000D01*
X109342691Y-90224428D01*
X109233833Y-90224428D01*
X108362976Y-91240428D02*
X108362976Y-89716428D01*
X108362976Y-91167857D02*
X108471833Y-91240428D01*
X108689548Y-91240428D01*
X108798405Y-91167857D01*
X108852833Y-91095285D01*
X108907262Y-90950142D01*
X108907262Y-90514714D01*
X108852833Y-90369571D01*
X108798405Y-90297000D01*
X108689548Y-90224428D01*
X108471833Y-90224428D01*
X108362976Y-90297000D01*
X106730119Y-89716428D02*
X106621262Y-89716428D01*
X106512405Y-89789000D01*
X106457976Y-89861571D01*
X106403548Y-90006714D01*
X106349119Y-90297000D01*
X106349119Y-90659857D01*
X106403548Y-90950142D01*
X106457976Y-91095285D01*
X106512405Y-91167857D01*
X106621262Y-91240428D01*
X106730119Y-91240428D01*
X106838976Y-91167857D01*
X106893405Y-91095285D01*
X106947833Y-90950142D01*
X107002262Y-90659857D01*
X107002262Y-90297000D01*
X106947833Y-90006714D01*
X106893405Y-89861571D01*
X106838976Y-89789000D01*
X106730119Y-89716428D01*
X105859262Y-91095285D02*
X105804833Y-91167857D01*
X105859262Y-91240428D01*
X105913691Y-91167857D01*
X105859262Y-91095285D01*
X105859262Y-91240428D01*
X104716262Y-91240428D02*
X105369405Y-91240428D01*
X105042833Y-91240428D02*
X105042833Y-89716428D01*
X105151691Y-89934142D01*
X105260548Y-90079285D01*
X105369405Y-90151857D01*
M02*
