%TF.GenerationSoftware,KiCad,Pcbnew,(5.1.2-1)-1*%
%TF.CreationDate,2019-06-22T13:14:17-07:00*%
%TF.ProjectId,Buck Converter SubBoard 0-2,4275636b-2043-46f6-9e76-657274657220,rev?*%
%TF.SameCoordinates,Original*%
%TF.FileFunction,Legend,Top*%
%TF.FilePolarity,Positive*%
%FSLAX46Y46*%
G04 Gerber Fmt 4.6, Leading zero omitted, Abs format (unit mm)*
G04 Created by KiCad (PCBNEW (5.1.2-1)-1) date 2019-06-22 13:14:17*
%MOMM*%
%LPD*%
G04 APERTURE LIST*
%ADD10C,0.254000*%
%ADD11C,0.152400*%
%ADD12C,0.285750*%
%ADD13C,0.190500*%
%ADD14C,0.508000*%
%ADD15C,0.120000*%
%ADD16C,0.150000*%
G04 APERTURE END LIST*
D10*
X112522000Y-93472000D02*
X114427000Y-95377000D01*
X112522000Y-91186000D02*
X115570000Y-91186000D01*
X115570000Y-89535000D02*
X112522000Y-89535000D01*
X112522000Y-89535000D02*
X112522000Y-93472000D01*
D11*
X112858368Y-89867619D02*
X113330082Y-89867619D01*
X113076082Y-90254666D01*
X113184940Y-90254666D01*
X113257511Y-90303047D01*
X113293797Y-90351428D01*
X113330082Y-90448190D01*
X113330082Y-90690095D01*
X113293797Y-90786857D01*
X113257511Y-90835238D01*
X113184940Y-90883619D01*
X112967225Y-90883619D01*
X112894654Y-90835238D01*
X112858368Y-90786857D01*
X113656654Y-90786857D02*
X113692940Y-90835238D01*
X113656654Y-90883619D01*
X113620368Y-90835238D01*
X113656654Y-90786857D01*
X113656654Y-90883619D01*
X113946940Y-89867619D02*
X114418654Y-89867619D01*
X114164654Y-90254666D01*
X114273511Y-90254666D01*
X114346082Y-90303047D01*
X114382368Y-90351428D01*
X114418654Y-90448190D01*
X114418654Y-90690095D01*
X114382368Y-90786857D01*
X114346082Y-90835238D01*
X114273511Y-90883619D01*
X114055797Y-90883619D01*
X113983225Y-90835238D01*
X113946940Y-90786857D01*
X114636368Y-89867619D02*
X114890368Y-90883619D01*
X115144368Y-89867619D01*
D10*
X115570000Y-91694000D02*
X115570000Y-89535000D01*
X118364000Y-89535000D02*
X115570000Y-89535000D01*
X115570000Y-91186000D02*
X118364000Y-91186000D01*
X118364000Y-89535000D02*
X118364000Y-91186000D01*
D11*
X116396225Y-89916000D02*
X116323654Y-89867619D01*
X116214797Y-89867619D01*
X116105940Y-89916000D01*
X116033368Y-90012761D01*
X115997082Y-90109523D01*
X115960797Y-90303047D01*
X115960797Y-90448190D01*
X115997082Y-90641714D01*
X116033368Y-90738476D01*
X116105940Y-90835238D01*
X116214797Y-90883619D01*
X116287368Y-90883619D01*
X116396225Y-90835238D01*
X116432511Y-90786857D01*
X116432511Y-90448190D01*
X116287368Y-90448190D01*
X116759082Y-90883619D02*
X116759082Y-89867619D01*
X117194511Y-90883619D01*
X117194511Y-89867619D01*
X117557368Y-90883619D02*
X117557368Y-89867619D01*
X117738797Y-89867619D01*
X117847654Y-89916000D01*
X117920225Y-90012761D01*
X117956511Y-90109523D01*
X117992797Y-90303047D01*
X117992797Y-90448190D01*
X117956511Y-90641714D01*
X117920225Y-90738476D01*
X117847654Y-90835238D01*
X117738797Y-90883619D01*
X117557368Y-90883619D01*
D12*
X107224285Y-111052428D02*
X106680000Y-111052428D01*
X106625571Y-111778142D01*
X106680000Y-111705571D01*
X106788857Y-111633000D01*
X107061000Y-111633000D01*
X107169857Y-111705571D01*
X107224285Y-111778142D01*
X107278714Y-111923285D01*
X107278714Y-112286142D01*
X107224285Y-112431285D01*
X107169857Y-112503857D01*
X107061000Y-112576428D01*
X106788857Y-112576428D01*
X106680000Y-112503857D01*
X106625571Y-112431285D01*
X107605285Y-111052428D02*
X107986285Y-112576428D01*
X108367285Y-111052428D01*
X105119714Y-90605428D02*
X105827285Y-90605428D01*
X105446285Y-91186000D01*
X105609571Y-91186000D01*
X105718428Y-91258571D01*
X105772857Y-91331142D01*
X105827285Y-91476285D01*
X105827285Y-91839142D01*
X105772857Y-91984285D01*
X105718428Y-92056857D01*
X105609571Y-92129428D01*
X105283000Y-92129428D01*
X105174142Y-92056857D01*
X105119714Y-91984285D01*
X106317142Y-91984285D02*
X106371571Y-92056857D01*
X106317142Y-92129428D01*
X106262714Y-92056857D01*
X106317142Y-91984285D01*
X106317142Y-92129428D01*
X106752571Y-90605428D02*
X107460142Y-90605428D01*
X107079142Y-91186000D01*
X107242428Y-91186000D01*
X107351285Y-91258571D01*
X107405714Y-91331142D01*
X107460142Y-91476285D01*
X107460142Y-91839142D01*
X107405714Y-91984285D01*
X107351285Y-92056857D01*
X107242428Y-92129428D01*
X106915857Y-92129428D01*
X106807000Y-92056857D01*
X106752571Y-91984285D01*
X107786714Y-90605428D02*
X108167714Y-92129428D01*
X108548714Y-90605428D01*
D13*
X126111000Y-102180571D02*
X126062619Y-102253142D01*
X126062619Y-102362000D01*
X126111000Y-102470857D01*
X126207761Y-102543428D01*
X126304523Y-102579714D01*
X126498047Y-102616000D01*
X126643190Y-102616000D01*
X126836714Y-102579714D01*
X126933476Y-102543428D01*
X127030238Y-102470857D01*
X127078619Y-102362000D01*
X127078619Y-102289428D01*
X127030238Y-102180571D01*
X126981857Y-102144285D01*
X126643190Y-102144285D01*
X126643190Y-102289428D01*
X127078619Y-101817714D02*
X126062619Y-101817714D01*
X127078619Y-101382285D01*
X126062619Y-101382285D01*
X127078619Y-101019428D02*
X126062619Y-101019428D01*
X126062619Y-100838000D01*
X126111000Y-100729142D01*
X126207761Y-100656571D01*
X126304523Y-100620285D01*
X126498047Y-100584000D01*
X126643190Y-100584000D01*
X126836714Y-100620285D01*
X126933476Y-100656571D01*
X127030238Y-100729142D01*
X127078619Y-100838000D01*
X127078619Y-101019428D01*
D14*
X125222000Y-92837000D02*
X125222000Y-110363000D01*
D13*
X120631857Y-111457619D02*
X120269000Y-111457619D01*
X120232714Y-111941428D01*
X120269000Y-111893047D01*
X120341571Y-111844666D01*
X120523000Y-111844666D01*
X120595571Y-111893047D01*
X120631857Y-111941428D01*
X120668142Y-112038190D01*
X120668142Y-112280095D01*
X120631857Y-112376857D01*
X120595571Y-112425238D01*
X120523000Y-112473619D01*
X120341571Y-112473619D01*
X120269000Y-112425238D01*
X120232714Y-112376857D01*
X120885857Y-111457619D02*
X121139857Y-112473619D01*
X121393857Y-111457619D01*
D14*
X118491000Y-110744000D02*
X119634000Y-111887000D01*
X118491000Y-105918000D02*
X118491000Y-110744000D01*
D13*
X121176142Y-89994619D02*
X121647857Y-89994619D01*
X121393857Y-90381666D01*
X121502714Y-90381666D01*
X121575285Y-90430047D01*
X121611571Y-90478428D01*
X121647857Y-90575190D01*
X121647857Y-90817095D01*
X121611571Y-90913857D01*
X121575285Y-90962238D01*
X121502714Y-91010619D01*
X121285000Y-91010619D01*
X121212428Y-90962238D01*
X121176142Y-90913857D01*
X121974428Y-90913857D02*
X122010714Y-90962238D01*
X121974428Y-91010619D01*
X121938142Y-90962238D01*
X121974428Y-90913857D01*
X121974428Y-91010619D01*
X122264714Y-89994619D02*
X122736428Y-89994619D01*
X122482428Y-90381666D01*
X122591285Y-90381666D01*
X122663857Y-90430047D01*
X122700142Y-90478428D01*
X122736428Y-90575190D01*
X122736428Y-90817095D01*
X122700142Y-90913857D01*
X122663857Y-90962238D01*
X122591285Y-91010619D01*
X122373571Y-91010619D01*
X122301000Y-90962238D01*
X122264714Y-90913857D01*
X122954142Y-89994619D02*
X123208142Y-91010619D01*
X123462142Y-89994619D01*
D14*
X118491000Y-92710000D02*
X120650000Y-90551000D01*
X118491000Y-104902000D02*
X118491000Y-92710000D01*
D10*
X104140000Y-105854500D02*
X107569000Y-105854500D01*
X107569000Y-107505500D02*
X104140000Y-107505500D01*
X107569000Y-105854500D02*
X107569000Y-107505500D01*
D11*
X105908202Y-107154738D02*
X106017060Y-107203119D01*
X106198488Y-107203119D01*
X106271060Y-107154738D01*
X106307345Y-107106357D01*
X106343631Y-107009595D01*
X106343631Y-106912833D01*
X106307345Y-106816071D01*
X106271060Y-106767690D01*
X106198488Y-106719309D01*
X106053345Y-106670928D01*
X105980774Y-106622547D01*
X105944488Y-106574166D01*
X105908202Y-106477404D01*
X105908202Y-106380642D01*
X105944488Y-106283880D01*
X105980774Y-106235500D01*
X106053345Y-106187119D01*
X106234774Y-106187119D01*
X106343631Y-106235500D01*
X106597631Y-106187119D02*
X106779060Y-107203119D01*
X106924202Y-106477404D01*
X107069345Y-107203119D01*
X107250774Y-106187119D01*
D10*
X101219000Y-111760000D02*
X104140000Y-111760000D01*
X104140000Y-113665000D02*
X101219000Y-113665000D01*
X101219000Y-113665000D02*
X101219000Y-111760000D01*
X104140000Y-111379000D02*
X104140000Y-113284000D01*
X104140000Y-113284000D02*
X104140000Y-113665000D01*
D11*
X102045225Y-112268000D02*
X101972654Y-112219619D01*
X101863797Y-112219619D01*
X101754940Y-112268000D01*
X101682368Y-112364761D01*
X101646082Y-112461523D01*
X101609797Y-112655047D01*
X101609797Y-112800190D01*
X101646082Y-112993714D01*
X101682368Y-113090476D01*
X101754940Y-113187238D01*
X101863797Y-113235619D01*
X101936368Y-113235619D01*
X102045225Y-113187238D01*
X102081511Y-113138857D01*
X102081511Y-112800190D01*
X101936368Y-112800190D01*
X102408082Y-113235619D02*
X102408082Y-112219619D01*
X102843511Y-113235619D01*
X102843511Y-112219619D01*
X103206368Y-113235619D02*
X103206368Y-112219619D01*
X103387797Y-112219619D01*
X103496654Y-112268000D01*
X103569225Y-112364761D01*
X103605511Y-112461523D01*
X103641797Y-112655047D01*
X103641797Y-112800190D01*
X103605511Y-112993714D01*
X103569225Y-113090476D01*
X103496654Y-113187238D01*
X103387797Y-113235619D01*
X103206368Y-113235619D01*
X99269368Y-91010619D02*
X98906511Y-91010619D01*
X98870225Y-91494428D01*
X98906511Y-91446047D01*
X98979082Y-91397666D01*
X99160511Y-91397666D01*
X99233082Y-91446047D01*
X99269368Y-91494428D01*
X99305654Y-91591190D01*
X99305654Y-91833095D01*
X99269368Y-91929857D01*
X99233082Y-91978238D01*
X99160511Y-92026619D01*
X98979082Y-92026619D01*
X98906511Y-91978238D01*
X98870225Y-91929857D01*
X99523368Y-91010619D02*
X99777368Y-92026619D01*
X100031368Y-91010619D01*
D10*
X98552000Y-92329000D02*
X100330000Y-92329000D01*
X98552000Y-90678000D02*
X98552000Y-92329000D01*
X100330000Y-90678000D02*
X98552000Y-90678000D01*
X100330000Y-93218000D02*
X100330000Y-90678000D01*
X101219000Y-94107000D02*
X100330000Y-93218000D01*
X102489000Y-94107000D02*
X101219000Y-94107000D01*
X88646000Y-92329000D02*
X91440000Y-92329000D01*
X88646000Y-90678000D02*
X88646000Y-92329000D01*
X91440000Y-90678000D02*
X88646000Y-90678000D01*
D11*
X89472225Y-91059000D02*
X89399654Y-91010619D01*
X89290797Y-91010619D01*
X89181940Y-91059000D01*
X89109368Y-91155761D01*
X89073082Y-91252523D01*
X89036797Y-91446047D01*
X89036797Y-91591190D01*
X89073082Y-91784714D01*
X89109368Y-91881476D01*
X89181940Y-91978238D01*
X89290797Y-92026619D01*
X89363368Y-92026619D01*
X89472225Y-91978238D01*
X89508511Y-91929857D01*
X89508511Y-91591190D01*
X89363368Y-91591190D01*
X89835082Y-92026619D02*
X89835082Y-91010619D01*
X90270511Y-92026619D01*
X90270511Y-91010619D01*
X90633368Y-92026619D02*
X90633368Y-91010619D01*
X90814797Y-91010619D01*
X90923654Y-91059000D01*
X90996225Y-91155761D01*
X91032511Y-91252523D01*
X91068797Y-91446047D01*
X91068797Y-91591190D01*
X91032511Y-91784714D01*
X90996225Y-91881476D01*
X90923654Y-91978238D01*
X90814797Y-92026619D01*
X90633368Y-92026619D01*
D10*
X91440000Y-94234000D02*
X91440000Y-90678000D01*
X95504000Y-92329000D02*
X93472000Y-92329000D01*
X95504000Y-90678000D02*
X95504000Y-92329000D01*
X93472000Y-90678000D02*
X95504000Y-90678000D01*
D11*
X94260488Y-91494428D02*
X94006488Y-91494428D01*
X94006488Y-92026619D02*
X94006488Y-91010619D01*
X94369345Y-91010619D01*
X94913631Y-91494428D02*
X95022488Y-91542809D01*
X95058774Y-91591190D01*
X95095060Y-91687952D01*
X95095060Y-91833095D01*
X95058774Y-91929857D01*
X95022488Y-91978238D01*
X94949917Y-92026619D01*
X94659631Y-92026619D01*
X94659631Y-91010619D01*
X94913631Y-91010619D01*
X94986202Y-91059000D01*
X95022488Y-91107380D01*
X95058774Y-91204142D01*
X95058774Y-91300904D01*
X95022488Y-91397666D01*
X94986202Y-91446047D01*
X94913631Y-91494428D01*
X94659631Y-91494428D01*
D10*
X93472000Y-97663000D02*
X93472000Y-90678000D01*
X92583000Y-98552000D02*
X93472000Y-97663000D01*
X97917000Y-110490000D02*
X93472000Y-110490000D01*
X97917000Y-112395000D02*
X97917000Y-110490000D01*
X93472000Y-112395000D02*
X97917000Y-112395000D01*
X87884000Y-110490000D02*
X91440000Y-110490000D01*
X87884000Y-112395000D02*
X87884000Y-110490000D01*
X91440000Y-112395000D02*
X87884000Y-112395000D01*
X91440000Y-112014000D02*
X91440000Y-112395000D01*
D11*
X88220368Y-110949619D02*
X88474368Y-111965619D01*
X88728368Y-110949619D01*
X89236368Y-111433428D02*
X89345225Y-111481809D01*
X89381511Y-111530190D01*
X89417797Y-111626952D01*
X89417797Y-111772095D01*
X89381511Y-111868857D01*
X89345225Y-111917238D01*
X89272654Y-111965619D01*
X88982368Y-111965619D01*
X88982368Y-110949619D01*
X89236368Y-110949619D01*
X89308940Y-110998000D01*
X89345225Y-111046380D01*
X89381511Y-111143142D01*
X89381511Y-111239904D01*
X89345225Y-111336666D01*
X89308940Y-111385047D01*
X89236368Y-111433428D01*
X88982368Y-111433428D01*
X89744368Y-110949619D02*
X89744368Y-111772095D01*
X89780654Y-111868857D01*
X89816940Y-111917238D01*
X89889511Y-111965619D01*
X90034654Y-111965619D01*
X90107225Y-111917238D01*
X90143511Y-111868857D01*
X90179797Y-111772095D01*
X90179797Y-110949619D01*
X90506368Y-111917238D02*
X90615225Y-111965619D01*
X90796654Y-111965619D01*
X90869225Y-111917238D01*
X90905511Y-111868857D01*
X90941797Y-111772095D01*
X90941797Y-111675333D01*
X90905511Y-111578571D01*
X90869225Y-111530190D01*
X90796654Y-111481809D01*
X90651511Y-111433428D01*
X90578940Y-111385047D01*
X90542654Y-111336666D01*
X90506368Y-111239904D01*
X90506368Y-111143142D01*
X90542654Y-111046380D01*
X90578940Y-110998000D01*
X90651511Y-110949619D01*
X90832940Y-110949619D01*
X90941797Y-110998000D01*
D10*
X91440000Y-108966000D02*
X91440000Y-112014000D01*
D11*
X94550774Y-110901238D02*
X93897631Y-112207523D01*
X94768488Y-111917238D02*
X94877345Y-111965619D01*
X95058774Y-111965619D01*
X95131345Y-111917238D01*
X95167631Y-111868857D01*
X95203917Y-111772095D01*
X95203917Y-111675333D01*
X95167631Y-111578571D01*
X95131345Y-111530190D01*
X95058774Y-111481809D01*
X94913631Y-111433428D01*
X94841060Y-111385047D01*
X94804774Y-111336666D01*
X94768488Y-111239904D01*
X94768488Y-111143142D01*
X94804774Y-111046380D01*
X94841060Y-110998000D01*
X94913631Y-110949619D01*
X95095060Y-110949619D01*
X95203917Y-110998000D01*
X95530488Y-111965619D02*
X95530488Y-110949619D01*
X95530488Y-111433428D02*
X95965917Y-111433428D01*
X95965917Y-111965619D02*
X95965917Y-110949619D01*
X96328774Y-111965619D02*
X96328774Y-110949619D01*
X96510202Y-110949619D01*
X96619060Y-110998000D01*
X96691631Y-111094761D01*
X96727917Y-111191523D01*
X96764202Y-111385047D01*
X96764202Y-111530190D01*
X96727917Y-111723714D01*
X96691631Y-111820476D01*
X96619060Y-111917238D01*
X96510202Y-111965619D01*
X96328774Y-111965619D01*
X97090774Y-111965619D02*
X97090774Y-110949619D01*
X97526202Y-111965619D01*
X97526202Y-110949619D01*
D10*
X93472000Y-105410000D02*
X93472000Y-112395000D01*
X92710000Y-104648000D02*
X93472000Y-105410000D01*
D13*
X82861603Y-104853619D02*
X83115603Y-105869619D01*
X83369603Y-104853619D01*
X83877603Y-105337428D02*
X83986460Y-105385809D01*
X84022746Y-105434190D01*
X84059032Y-105530952D01*
X84059032Y-105676095D01*
X84022746Y-105772857D01*
X83986460Y-105821238D01*
X83913889Y-105869619D01*
X83623603Y-105869619D01*
X83623603Y-104853619D01*
X83877603Y-104853619D01*
X83950175Y-104902000D01*
X83986460Y-104950380D01*
X84022746Y-105047142D01*
X84022746Y-105143904D01*
X83986460Y-105240666D01*
X83950175Y-105289047D01*
X83877603Y-105337428D01*
X83623603Y-105337428D01*
X84385603Y-104853619D02*
X84385603Y-105676095D01*
X84421889Y-105772857D01*
X84458175Y-105821238D01*
X84530746Y-105869619D01*
X84675889Y-105869619D01*
X84748460Y-105821238D01*
X84784746Y-105772857D01*
X84821032Y-105676095D01*
X84821032Y-104853619D01*
X85147603Y-105821238D02*
X85256460Y-105869619D01*
X85437889Y-105869619D01*
X85510460Y-105821238D01*
X85546746Y-105772857D01*
X85583032Y-105676095D01*
X85583032Y-105579333D01*
X85546746Y-105482571D01*
X85510460Y-105434190D01*
X85437889Y-105385809D01*
X85292746Y-105337428D01*
X85220175Y-105289047D01*
X85183889Y-105240666D01*
X85147603Y-105143904D01*
X85147603Y-105047142D01*
X85183889Y-104950380D01*
X85220175Y-104902000D01*
X85292746Y-104853619D01*
X85474175Y-104853619D01*
X85583032Y-104902000D01*
X83986460Y-102362000D02*
X83913889Y-102313619D01*
X83805032Y-102313619D01*
X83696175Y-102362000D01*
X83623603Y-102458761D01*
X83587317Y-102555523D01*
X83551032Y-102749047D01*
X83551032Y-102894190D01*
X83587317Y-103087714D01*
X83623603Y-103184476D01*
X83696175Y-103281238D01*
X83805032Y-103329619D01*
X83877603Y-103329619D01*
X83986460Y-103281238D01*
X84022746Y-103232857D01*
X84022746Y-102894190D01*
X83877603Y-102894190D01*
X84349317Y-103329619D02*
X84349317Y-102313619D01*
X84784746Y-103329619D01*
X84784746Y-102313619D01*
X85147603Y-103329619D02*
X85147603Y-102313619D01*
X85329032Y-102313619D01*
X85437889Y-102362000D01*
X85510460Y-102458761D01*
X85546746Y-102555523D01*
X85583032Y-102749047D01*
X85583032Y-102894190D01*
X85546746Y-103087714D01*
X85510460Y-103184476D01*
X85437889Y-103281238D01*
X85329032Y-103329619D01*
X85147603Y-103329619D01*
X83986460Y-97282000D02*
X83913889Y-97233619D01*
X83805032Y-97233619D01*
X83696175Y-97282000D01*
X83623603Y-97378761D01*
X83587317Y-97475523D01*
X83551032Y-97669047D01*
X83551032Y-97814190D01*
X83587317Y-98007714D01*
X83623603Y-98104476D01*
X83696175Y-98201238D01*
X83805032Y-98249619D01*
X83877603Y-98249619D01*
X83986460Y-98201238D01*
X84022746Y-98152857D01*
X84022746Y-97814190D01*
X83877603Y-97814190D01*
X84349317Y-98249619D02*
X84349317Y-97233619D01*
X84784746Y-98249619D01*
X84784746Y-97233619D01*
X85147603Y-98249619D02*
X85147603Y-97233619D01*
X85329032Y-97233619D01*
X85437889Y-97282000D01*
X85510460Y-97378761D01*
X85546746Y-97475523D01*
X85583032Y-97669047D01*
X85583032Y-97814190D01*
X85546746Y-98007714D01*
X85510460Y-98104476D01*
X85437889Y-98201238D01*
X85329032Y-98249619D01*
X85147603Y-98249619D01*
X82571317Y-99725238D02*
X81918175Y-101031523D01*
X82789032Y-100741238D02*
X82897889Y-100789619D01*
X83079317Y-100789619D01*
X83151889Y-100741238D01*
X83188175Y-100692857D01*
X83224460Y-100596095D01*
X83224460Y-100499333D01*
X83188175Y-100402571D01*
X83151889Y-100354190D01*
X83079317Y-100305809D01*
X82934175Y-100257428D01*
X82861603Y-100209047D01*
X82825317Y-100160666D01*
X82789032Y-100063904D01*
X82789032Y-99967142D01*
X82825317Y-99870380D01*
X82861603Y-99822000D01*
X82934175Y-99773619D01*
X83115603Y-99773619D01*
X83224460Y-99822000D01*
X83551032Y-100789619D02*
X83551032Y-99773619D01*
X83551032Y-100257428D02*
X83986460Y-100257428D01*
X83986460Y-100789619D02*
X83986460Y-99773619D01*
X84349317Y-100789619D02*
X84349317Y-99773619D01*
X84530746Y-99773619D01*
X84639603Y-99822000D01*
X84712175Y-99918761D01*
X84748460Y-100015523D01*
X84784746Y-100209047D01*
X84784746Y-100354190D01*
X84748460Y-100547714D01*
X84712175Y-100644476D01*
X84639603Y-100741238D01*
X84530746Y-100789619D01*
X84349317Y-100789619D01*
X85111317Y-100789619D02*
X85111317Y-99773619D01*
X85546746Y-100789619D01*
X85546746Y-99773619D01*
D15*
X98500000Y-107688748D02*
X98500000Y-108211252D01*
X97080000Y-107688748D02*
X97080000Y-108211252D01*
X95960000Y-107688748D02*
X95960000Y-108211252D01*
X94540000Y-107688748D02*
X94540000Y-108211252D01*
X98888733Y-98550000D02*
X99231267Y-98550000D01*
X98888733Y-99570000D02*
X99231267Y-99570000D01*
X102608748Y-97865000D02*
X103131252Y-97865000D01*
X102608748Y-96445000D02*
X103131252Y-96445000D01*
X102608748Y-98350000D02*
X103131252Y-98350000D01*
X102608748Y-99770000D02*
X103131252Y-99770000D01*
X110318733Y-108460000D02*
X110661267Y-108460000D01*
X110318733Y-107440000D02*
X110661267Y-107440000D01*
X110751252Y-94540000D02*
X110228748Y-94540000D01*
X110751252Y-95960000D02*
X110228748Y-95960000D01*
X110661267Y-97665000D02*
X110318733Y-97665000D01*
X110661267Y-96645000D02*
X110318733Y-96645000D01*
X101330000Y-105700000D02*
X99330000Y-105700000D01*
X99330000Y-105700000D02*
X99330000Y-109600000D01*
X101330000Y-105700000D02*
X101330000Y-109600000D01*
X112150000Y-111025000D02*
X109690000Y-111025000D01*
X112150000Y-112495000D02*
X112150000Y-111025000D01*
X109690000Y-112495000D02*
X112150000Y-112495000D01*
X109690000Y-92175000D02*
X112150000Y-92175000D01*
X112150000Y-92175000D02*
X112150000Y-90705000D01*
X112150000Y-90705000D02*
X109690000Y-90705000D01*
X86300000Y-106740000D02*
X88960000Y-106740000D01*
X86300000Y-99060000D02*
X86300000Y-106740000D01*
X88960000Y-99060000D02*
X88960000Y-106740000D01*
X86300000Y-99060000D02*
X88960000Y-99060000D01*
X86300000Y-97790000D02*
X86300000Y-96460000D01*
X86300000Y-96460000D02*
X87630000Y-96460000D01*
X119320000Y-110550000D02*
X124520000Y-110550000D01*
X119320000Y-95250000D02*
X119320000Y-110550000D01*
X124520000Y-92650000D02*
X124520000Y-110550000D01*
X119320000Y-95250000D02*
X121920000Y-95250000D01*
X121920000Y-95250000D02*
X121920000Y-92650000D01*
X121920000Y-92650000D02*
X124520000Y-92650000D01*
X119320000Y-93980000D02*
X119320000Y-92650000D01*
X119320000Y-92650000D02*
X120650000Y-92650000D01*
X99235000Y-100770000D02*
X105235000Y-100770000D01*
X99235000Y-104970000D02*
X105235000Y-104970000D01*
X93470000Y-102698733D02*
X93470000Y-103041267D01*
X94490000Y-102698733D02*
X94490000Y-103041267D01*
X95078733Y-96645000D02*
X95421267Y-96645000D01*
X95078733Y-97665000D02*
X95421267Y-97665000D01*
X98888733Y-96645000D02*
X99231267Y-96645000D01*
X98888733Y-97665000D02*
X99231267Y-97665000D01*
X95421267Y-94740000D02*
X95078733Y-94740000D01*
X95421267Y-95760000D02*
X95078733Y-95760000D01*
X95078733Y-98550000D02*
X95421267Y-98550000D01*
X95078733Y-99570000D02*
X95421267Y-99570000D01*
X110661267Y-110365000D02*
X110318733Y-110365000D01*
X110661267Y-109345000D02*
X110318733Y-109345000D01*
X110661267Y-92835000D02*
X110318733Y-92835000D01*
X110661267Y-93855000D02*
X110318733Y-93855000D01*
D16*
X92840000Y-107315000D02*
G75*
G03X92840000Y-107315000I-1400000J0D01*
G01*
X92840000Y-103505000D02*
G75*
G03X92840000Y-103505000I-1400000J0D01*
G01*
X105540000Y-106680000D02*
G75*
G03X105540000Y-106680000I-1400000J0D01*
G01*
X92840000Y-99695000D02*
G75*
G03X92840000Y-99695000I-1400000J0D01*
G01*
X105540000Y-93980000D02*
G75*
G03X105540000Y-93980000I-1400000J0D01*
G01*
X116970000Y-96520000D02*
G75*
G03X116970000Y-96520000I-1400000J0D01*
G01*
D15*
X94910000Y-101970000D02*
X94910000Y-103770000D01*
X98130000Y-103770000D02*
X98130000Y-100820000D01*
X110790000Y-98150000D02*
X109290000Y-98150000D01*
X109290000Y-98150000D02*
X109290000Y-98420000D01*
X109290000Y-98420000D02*
X106460000Y-98420000D01*
X110790000Y-105050000D02*
X109290000Y-105050000D01*
X109290000Y-105050000D02*
X109290000Y-104780000D01*
X109290000Y-104780000D02*
X108190000Y-104780000D01*
D16*
X92840000Y-95885000D02*
G75*
G03X92840000Y-95885000I-1400000J0D01*
G01*
X116970000Y-93472000D02*
G75*
G03X116970000Y-93472000I-1400000J0D01*
G01*
X105540000Y-109728000D02*
G75*
G03X105540000Y-109728000I-1400000J0D01*
G01*
D15*
X108240000Y-105045000D02*
X108240000Y-107045000D01*
X108240000Y-107045000D02*
X112140000Y-107045000D01*
X108240000Y-105045000D02*
X112140000Y-105045000D01*
M02*
