G04 #@! TF.GenerationSoftware,KiCad,Pcbnew,(5.1.2)-2*
G04 #@! TF.CreationDate,2019-08-30T17:03:03-04:00*
G04 #@! TF.ProjectId,Charger SubBoard 0-2,43686172-6765-4722-9053-7562426f6172,rev?*
G04 #@! TF.SameCoordinates,Original*
G04 #@! TF.FileFunction,Paste,Top*
G04 #@! TF.FilePolarity,Positive*
%FSLAX46Y46*%
G04 Gerber Fmt 4.6, Leading zero omitted, Abs format (unit mm)*
G04 Created by KiCad (PCBNEW (5.1.2)-2) date 2019-08-30 17:03:03*
%MOMM*%
%LPD*%
G04 APERTURE LIST*
%ADD10C,0.100000*%
%ADD11C,0.950000*%
%ADD12C,4.100000*%
%ADD13R,0.537000X0.882000*%
%ADD14R,0.450000X1.050000*%
%ADD15R,1.560000X0.650000*%
%ADD16C,1.525000*%
%ADD17C,1.725000*%
%ADD18R,0.990000X0.405000*%
%ADD19R,0.900000X0.800000*%
%ADD20R,3.050000X2.750000*%
%ADD21R,2.200000X1.200000*%
%ADD22R,0.800000X0.900000*%
%ADD23R,1.000000X1.000000*%
%ADD24R,1.800000X3.500000*%
%ADD25C,1.150000*%
%ADD26C,1.425000*%
G04 APERTURE END LIST*
D10*
G04 #@! TO.C,R21*
G36*
X164090779Y-69086144D02*
G01*
X164113834Y-69089563D01*
X164136443Y-69095227D01*
X164158387Y-69103079D01*
X164179457Y-69113044D01*
X164199448Y-69125026D01*
X164218168Y-69138910D01*
X164235438Y-69154562D01*
X164251090Y-69171832D01*
X164264974Y-69190552D01*
X164276956Y-69210543D01*
X164286921Y-69231613D01*
X164294773Y-69253557D01*
X164300437Y-69276166D01*
X164303856Y-69299221D01*
X164305000Y-69322500D01*
X164305000Y-69897500D01*
X164303856Y-69920779D01*
X164300437Y-69943834D01*
X164294773Y-69966443D01*
X164286921Y-69988387D01*
X164276956Y-70009457D01*
X164264974Y-70029448D01*
X164251090Y-70048168D01*
X164235438Y-70065438D01*
X164218168Y-70081090D01*
X164199448Y-70094974D01*
X164179457Y-70106956D01*
X164158387Y-70116921D01*
X164136443Y-70124773D01*
X164113834Y-70130437D01*
X164090779Y-70133856D01*
X164067500Y-70135000D01*
X163592500Y-70135000D01*
X163569221Y-70133856D01*
X163546166Y-70130437D01*
X163523557Y-70124773D01*
X163501613Y-70116921D01*
X163480543Y-70106956D01*
X163460552Y-70094974D01*
X163441832Y-70081090D01*
X163424562Y-70065438D01*
X163408910Y-70048168D01*
X163395026Y-70029448D01*
X163383044Y-70009457D01*
X163373079Y-69988387D01*
X163365227Y-69966443D01*
X163359563Y-69943834D01*
X163356144Y-69920779D01*
X163355000Y-69897500D01*
X163355000Y-69322500D01*
X163356144Y-69299221D01*
X163359563Y-69276166D01*
X163365227Y-69253557D01*
X163373079Y-69231613D01*
X163383044Y-69210543D01*
X163395026Y-69190552D01*
X163408910Y-69171832D01*
X163424562Y-69154562D01*
X163441832Y-69138910D01*
X163460552Y-69125026D01*
X163480543Y-69113044D01*
X163501613Y-69103079D01*
X163523557Y-69095227D01*
X163546166Y-69089563D01*
X163569221Y-69086144D01*
X163592500Y-69085000D01*
X164067500Y-69085000D01*
X164090779Y-69086144D01*
X164090779Y-69086144D01*
G37*
D11*
X163830000Y-69610000D03*
D10*
G36*
X164090779Y-70836144D02*
G01*
X164113834Y-70839563D01*
X164136443Y-70845227D01*
X164158387Y-70853079D01*
X164179457Y-70863044D01*
X164199448Y-70875026D01*
X164218168Y-70888910D01*
X164235438Y-70904562D01*
X164251090Y-70921832D01*
X164264974Y-70940552D01*
X164276956Y-70960543D01*
X164286921Y-70981613D01*
X164294773Y-71003557D01*
X164300437Y-71026166D01*
X164303856Y-71049221D01*
X164305000Y-71072500D01*
X164305000Y-71647500D01*
X164303856Y-71670779D01*
X164300437Y-71693834D01*
X164294773Y-71716443D01*
X164286921Y-71738387D01*
X164276956Y-71759457D01*
X164264974Y-71779448D01*
X164251090Y-71798168D01*
X164235438Y-71815438D01*
X164218168Y-71831090D01*
X164199448Y-71844974D01*
X164179457Y-71856956D01*
X164158387Y-71866921D01*
X164136443Y-71874773D01*
X164113834Y-71880437D01*
X164090779Y-71883856D01*
X164067500Y-71885000D01*
X163592500Y-71885000D01*
X163569221Y-71883856D01*
X163546166Y-71880437D01*
X163523557Y-71874773D01*
X163501613Y-71866921D01*
X163480543Y-71856956D01*
X163460552Y-71844974D01*
X163441832Y-71831090D01*
X163424562Y-71815438D01*
X163408910Y-71798168D01*
X163395026Y-71779448D01*
X163383044Y-71759457D01*
X163373079Y-71738387D01*
X163365227Y-71716443D01*
X163359563Y-71693834D01*
X163356144Y-71670779D01*
X163355000Y-71647500D01*
X163355000Y-71072500D01*
X163356144Y-71049221D01*
X163359563Y-71026166D01*
X163365227Y-71003557D01*
X163373079Y-70981613D01*
X163383044Y-70960543D01*
X163395026Y-70940552D01*
X163408910Y-70921832D01*
X163424562Y-70904562D01*
X163441832Y-70888910D01*
X163460552Y-70875026D01*
X163480543Y-70863044D01*
X163501613Y-70853079D01*
X163523557Y-70845227D01*
X163546166Y-70839563D01*
X163569221Y-70836144D01*
X163592500Y-70835000D01*
X164067500Y-70835000D01*
X164090779Y-70836144D01*
X164090779Y-70836144D01*
G37*
D11*
X163830000Y-71360000D03*
G04 #@! TD*
D10*
G04 #@! TO.C,C11*
G36*
X162185779Y-69086144D02*
G01*
X162208834Y-69089563D01*
X162231443Y-69095227D01*
X162253387Y-69103079D01*
X162274457Y-69113044D01*
X162294448Y-69125026D01*
X162313168Y-69138910D01*
X162330438Y-69154562D01*
X162346090Y-69171832D01*
X162359974Y-69190552D01*
X162371956Y-69210543D01*
X162381921Y-69231613D01*
X162389773Y-69253557D01*
X162395437Y-69276166D01*
X162398856Y-69299221D01*
X162400000Y-69322500D01*
X162400000Y-69897500D01*
X162398856Y-69920779D01*
X162395437Y-69943834D01*
X162389773Y-69966443D01*
X162381921Y-69988387D01*
X162371956Y-70009457D01*
X162359974Y-70029448D01*
X162346090Y-70048168D01*
X162330438Y-70065438D01*
X162313168Y-70081090D01*
X162294448Y-70094974D01*
X162274457Y-70106956D01*
X162253387Y-70116921D01*
X162231443Y-70124773D01*
X162208834Y-70130437D01*
X162185779Y-70133856D01*
X162162500Y-70135000D01*
X161687500Y-70135000D01*
X161664221Y-70133856D01*
X161641166Y-70130437D01*
X161618557Y-70124773D01*
X161596613Y-70116921D01*
X161575543Y-70106956D01*
X161555552Y-70094974D01*
X161536832Y-70081090D01*
X161519562Y-70065438D01*
X161503910Y-70048168D01*
X161490026Y-70029448D01*
X161478044Y-70009457D01*
X161468079Y-69988387D01*
X161460227Y-69966443D01*
X161454563Y-69943834D01*
X161451144Y-69920779D01*
X161450000Y-69897500D01*
X161450000Y-69322500D01*
X161451144Y-69299221D01*
X161454563Y-69276166D01*
X161460227Y-69253557D01*
X161468079Y-69231613D01*
X161478044Y-69210543D01*
X161490026Y-69190552D01*
X161503910Y-69171832D01*
X161519562Y-69154562D01*
X161536832Y-69138910D01*
X161555552Y-69125026D01*
X161575543Y-69113044D01*
X161596613Y-69103079D01*
X161618557Y-69095227D01*
X161641166Y-69089563D01*
X161664221Y-69086144D01*
X161687500Y-69085000D01*
X162162500Y-69085000D01*
X162185779Y-69086144D01*
X162185779Y-69086144D01*
G37*
D11*
X161925000Y-69610000D03*
D10*
G36*
X162185779Y-70836144D02*
G01*
X162208834Y-70839563D01*
X162231443Y-70845227D01*
X162253387Y-70853079D01*
X162274457Y-70863044D01*
X162294448Y-70875026D01*
X162313168Y-70888910D01*
X162330438Y-70904562D01*
X162346090Y-70921832D01*
X162359974Y-70940552D01*
X162371956Y-70960543D01*
X162381921Y-70981613D01*
X162389773Y-71003557D01*
X162395437Y-71026166D01*
X162398856Y-71049221D01*
X162400000Y-71072500D01*
X162400000Y-71647500D01*
X162398856Y-71670779D01*
X162395437Y-71693834D01*
X162389773Y-71716443D01*
X162381921Y-71738387D01*
X162371956Y-71759457D01*
X162359974Y-71779448D01*
X162346090Y-71798168D01*
X162330438Y-71815438D01*
X162313168Y-71831090D01*
X162294448Y-71844974D01*
X162274457Y-71856956D01*
X162253387Y-71866921D01*
X162231443Y-71874773D01*
X162208834Y-71880437D01*
X162185779Y-71883856D01*
X162162500Y-71885000D01*
X161687500Y-71885000D01*
X161664221Y-71883856D01*
X161641166Y-71880437D01*
X161618557Y-71874773D01*
X161596613Y-71866921D01*
X161575543Y-71856956D01*
X161555552Y-71844974D01*
X161536832Y-71831090D01*
X161519562Y-71815438D01*
X161503910Y-71798168D01*
X161490026Y-71779448D01*
X161478044Y-71759457D01*
X161468079Y-71738387D01*
X161460227Y-71716443D01*
X161454563Y-71693834D01*
X161451144Y-71670779D01*
X161450000Y-71647500D01*
X161450000Y-71072500D01*
X161451144Y-71049221D01*
X161454563Y-71026166D01*
X161460227Y-71003557D01*
X161468079Y-70981613D01*
X161478044Y-70960543D01*
X161490026Y-70940552D01*
X161503910Y-70921832D01*
X161519562Y-70904562D01*
X161536832Y-70888910D01*
X161555552Y-70875026D01*
X161575543Y-70863044D01*
X161596613Y-70853079D01*
X161618557Y-70845227D01*
X161641166Y-70839563D01*
X161664221Y-70836144D01*
X161687500Y-70835000D01*
X162162500Y-70835000D01*
X162185779Y-70836144D01*
X162185779Y-70836144D01*
G37*
D11*
X161925000Y-71360000D03*
G04 #@! TD*
D10*
G04 #@! TO.C,L1*
G36*
X144168828Y-74152409D02*
G01*
X144217384Y-74159611D01*
X144265000Y-74171538D01*
X144311218Y-74188075D01*
X144355593Y-74209063D01*
X144397696Y-74234299D01*
X144437124Y-74263540D01*
X144473495Y-74296505D01*
X144506460Y-74332876D01*
X144535701Y-74372304D01*
X144560937Y-74414407D01*
X144581925Y-74458782D01*
X144598462Y-74505000D01*
X144610389Y-74552616D01*
X144617591Y-74601172D01*
X144620000Y-74650200D01*
X144620000Y-77749800D01*
X144617591Y-77798828D01*
X144610389Y-77847384D01*
X144598462Y-77895000D01*
X144581925Y-77941218D01*
X144560937Y-77985593D01*
X144535701Y-78027696D01*
X144506460Y-78067124D01*
X144473495Y-78103495D01*
X144437124Y-78136460D01*
X144397696Y-78165701D01*
X144355593Y-78190937D01*
X144311218Y-78211925D01*
X144265000Y-78228462D01*
X144217384Y-78240389D01*
X144168828Y-78247591D01*
X144119800Y-78250000D01*
X139620200Y-78250000D01*
X139571172Y-78247591D01*
X139522616Y-78240389D01*
X139475000Y-78228462D01*
X139428782Y-78211925D01*
X139384407Y-78190937D01*
X139342304Y-78165701D01*
X139302876Y-78136460D01*
X139266505Y-78103495D01*
X139233540Y-78067124D01*
X139204299Y-78027696D01*
X139179063Y-77985593D01*
X139158075Y-77941218D01*
X139141538Y-77895000D01*
X139129611Y-77847384D01*
X139122409Y-77798828D01*
X139120000Y-77749800D01*
X139120000Y-74650200D01*
X139122409Y-74601172D01*
X139129611Y-74552616D01*
X139141538Y-74505000D01*
X139158075Y-74458782D01*
X139179063Y-74414407D01*
X139204299Y-74372304D01*
X139233540Y-74332876D01*
X139266505Y-74296505D01*
X139302876Y-74263540D01*
X139342304Y-74234299D01*
X139384407Y-74209063D01*
X139428782Y-74188075D01*
X139475000Y-74171538D01*
X139522616Y-74159611D01*
X139571172Y-74152409D01*
X139620200Y-74150000D01*
X144119800Y-74150000D01*
X144168828Y-74152409D01*
X144168828Y-74152409D01*
G37*
D12*
X141870000Y-76200000D03*
D10*
G36*
X155068828Y-74152409D02*
G01*
X155117384Y-74159611D01*
X155165000Y-74171538D01*
X155211218Y-74188075D01*
X155255593Y-74209063D01*
X155297696Y-74234299D01*
X155337124Y-74263540D01*
X155373495Y-74296505D01*
X155406460Y-74332876D01*
X155435701Y-74372304D01*
X155460937Y-74414407D01*
X155481925Y-74458782D01*
X155498462Y-74505000D01*
X155510389Y-74552616D01*
X155517591Y-74601172D01*
X155520000Y-74650200D01*
X155520000Y-77749800D01*
X155517591Y-77798828D01*
X155510389Y-77847384D01*
X155498462Y-77895000D01*
X155481925Y-77941218D01*
X155460937Y-77985593D01*
X155435701Y-78027696D01*
X155406460Y-78067124D01*
X155373495Y-78103495D01*
X155337124Y-78136460D01*
X155297696Y-78165701D01*
X155255593Y-78190937D01*
X155211218Y-78211925D01*
X155165000Y-78228462D01*
X155117384Y-78240389D01*
X155068828Y-78247591D01*
X155019800Y-78250000D01*
X150520200Y-78250000D01*
X150471172Y-78247591D01*
X150422616Y-78240389D01*
X150375000Y-78228462D01*
X150328782Y-78211925D01*
X150284407Y-78190937D01*
X150242304Y-78165701D01*
X150202876Y-78136460D01*
X150166505Y-78103495D01*
X150133540Y-78067124D01*
X150104299Y-78027696D01*
X150079063Y-77985593D01*
X150058075Y-77941218D01*
X150041538Y-77895000D01*
X150029611Y-77847384D01*
X150022409Y-77798828D01*
X150020000Y-77749800D01*
X150020000Y-74650200D01*
X150022409Y-74601172D01*
X150029611Y-74552616D01*
X150041538Y-74505000D01*
X150058075Y-74458782D01*
X150079063Y-74414407D01*
X150104299Y-74372304D01*
X150133540Y-74332876D01*
X150166505Y-74296505D01*
X150202876Y-74263540D01*
X150242304Y-74234299D01*
X150284407Y-74209063D01*
X150328782Y-74188075D01*
X150375000Y-74171538D01*
X150422616Y-74159611D01*
X150471172Y-74152409D01*
X150520200Y-74150000D01*
X155019800Y-74150000D01*
X155068828Y-74152409D01*
X155068828Y-74152409D01*
G37*
D12*
X152770000Y-76200000D03*
G04 #@! TD*
D13*
G04 #@! TO.C,U2*
X161997500Y-85625000D03*
X161102500Y-85625000D03*
X160207500Y-85625000D03*
X159312500Y-85625000D03*
X161997500Y-87095000D03*
X161102500Y-87095000D03*
X160207500Y-87095000D03*
X159312500Y-87095000D03*
D14*
X162930000Y-89135000D03*
X162280000Y-89135000D03*
X161630000Y-89135000D03*
X160980000Y-89135000D03*
X160330000Y-89135000D03*
X159680000Y-89135000D03*
X159030000Y-89135000D03*
X158380000Y-89135000D03*
X158380000Y-83585000D03*
X159030000Y-83585000D03*
X159680000Y-83585000D03*
X160330000Y-83585000D03*
X160980000Y-83585000D03*
X161630000Y-83585000D03*
X162280000Y-83585000D03*
X162930000Y-83585000D03*
G04 #@! TD*
D15*
G04 #@! TO.C,U1*
X162005000Y-65090000D03*
X162005000Y-66990000D03*
X159305000Y-66990000D03*
X159305000Y-66040000D03*
X159305000Y-65090000D03*
G04 #@! TD*
D10*
G04 #@! TO.C,R20*
G36*
X160090779Y-94776144D02*
G01*
X160113834Y-94779563D01*
X160136443Y-94785227D01*
X160158387Y-94793079D01*
X160179457Y-94803044D01*
X160199448Y-94815026D01*
X160218168Y-94828910D01*
X160235438Y-94844562D01*
X160251090Y-94861832D01*
X160264974Y-94880552D01*
X160276956Y-94900543D01*
X160286921Y-94921613D01*
X160294773Y-94943557D01*
X160300437Y-94966166D01*
X160303856Y-94989221D01*
X160305000Y-95012500D01*
X160305000Y-95487500D01*
X160303856Y-95510779D01*
X160300437Y-95533834D01*
X160294773Y-95556443D01*
X160286921Y-95578387D01*
X160276956Y-95599457D01*
X160264974Y-95619448D01*
X160251090Y-95638168D01*
X160235438Y-95655438D01*
X160218168Y-95671090D01*
X160199448Y-95684974D01*
X160179457Y-95696956D01*
X160158387Y-95706921D01*
X160136443Y-95714773D01*
X160113834Y-95720437D01*
X160090779Y-95723856D01*
X160067500Y-95725000D01*
X159492500Y-95725000D01*
X159469221Y-95723856D01*
X159446166Y-95720437D01*
X159423557Y-95714773D01*
X159401613Y-95706921D01*
X159380543Y-95696956D01*
X159360552Y-95684974D01*
X159341832Y-95671090D01*
X159324562Y-95655438D01*
X159308910Y-95638168D01*
X159295026Y-95619448D01*
X159283044Y-95599457D01*
X159273079Y-95578387D01*
X159265227Y-95556443D01*
X159259563Y-95533834D01*
X159256144Y-95510779D01*
X159255000Y-95487500D01*
X159255000Y-95012500D01*
X159256144Y-94989221D01*
X159259563Y-94966166D01*
X159265227Y-94943557D01*
X159273079Y-94921613D01*
X159283044Y-94900543D01*
X159295026Y-94880552D01*
X159308910Y-94861832D01*
X159324562Y-94844562D01*
X159341832Y-94828910D01*
X159360552Y-94815026D01*
X159380543Y-94803044D01*
X159401613Y-94793079D01*
X159423557Y-94785227D01*
X159446166Y-94779563D01*
X159469221Y-94776144D01*
X159492500Y-94775000D01*
X160067500Y-94775000D01*
X160090779Y-94776144D01*
X160090779Y-94776144D01*
G37*
D11*
X159780000Y-95250000D03*
D10*
G36*
X161840779Y-94776144D02*
G01*
X161863834Y-94779563D01*
X161886443Y-94785227D01*
X161908387Y-94793079D01*
X161929457Y-94803044D01*
X161949448Y-94815026D01*
X161968168Y-94828910D01*
X161985438Y-94844562D01*
X162001090Y-94861832D01*
X162014974Y-94880552D01*
X162026956Y-94900543D01*
X162036921Y-94921613D01*
X162044773Y-94943557D01*
X162050437Y-94966166D01*
X162053856Y-94989221D01*
X162055000Y-95012500D01*
X162055000Y-95487500D01*
X162053856Y-95510779D01*
X162050437Y-95533834D01*
X162044773Y-95556443D01*
X162036921Y-95578387D01*
X162026956Y-95599457D01*
X162014974Y-95619448D01*
X162001090Y-95638168D01*
X161985438Y-95655438D01*
X161968168Y-95671090D01*
X161949448Y-95684974D01*
X161929457Y-95696956D01*
X161908387Y-95706921D01*
X161886443Y-95714773D01*
X161863834Y-95720437D01*
X161840779Y-95723856D01*
X161817500Y-95725000D01*
X161242500Y-95725000D01*
X161219221Y-95723856D01*
X161196166Y-95720437D01*
X161173557Y-95714773D01*
X161151613Y-95706921D01*
X161130543Y-95696956D01*
X161110552Y-95684974D01*
X161091832Y-95671090D01*
X161074562Y-95655438D01*
X161058910Y-95638168D01*
X161045026Y-95619448D01*
X161033044Y-95599457D01*
X161023079Y-95578387D01*
X161015227Y-95556443D01*
X161009563Y-95533834D01*
X161006144Y-95510779D01*
X161005000Y-95487500D01*
X161005000Y-95012500D01*
X161006144Y-94989221D01*
X161009563Y-94966166D01*
X161015227Y-94943557D01*
X161023079Y-94921613D01*
X161033044Y-94900543D01*
X161045026Y-94880552D01*
X161058910Y-94861832D01*
X161074562Y-94844562D01*
X161091832Y-94828910D01*
X161110552Y-94815026D01*
X161130543Y-94803044D01*
X161151613Y-94793079D01*
X161173557Y-94785227D01*
X161196166Y-94779563D01*
X161219221Y-94776144D01*
X161242500Y-94775000D01*
X161817500Y-94775000D01*
X161840779Y-94776144D01*
X161840779Y-94776144D01*
G37*
D11*
X161530000Y-95250000D03*
G04 #@! TD*
D10*
G04 #@! TO.C,R19*
G36*
X150755779Y-102741144D02*
G01*
X150778834Y-102744563D01*
X150801443Y-102750227D01*
X150823387Y-102758079D01*
X150844457Y-102768044D01*
X150864448Y-102780026D01*
X150883168Y-102793910D01*
X150900438Y-102809562D01*
X150916090Y-102826832D01*
X150929974Y-102845552D01*
X150941956Y-102865543D01*
X150951921Y-102886613D01*
X150959773Y-102908557D01*
X150965437Y-102931166D01*
X150968856Y-102954221D01*
X150970000Y-102977500D01*
X150970000Y-103552500D01*
X150968856Y-103575779D01*
X150965437Y-103598834D01*
X150959773Y-103621443D01*
X150951921Y-103643387D01*
X150941956Y-103664457D01*
X150929974Y-103684448D01*
X150916090Y-103703168D01*
X150900438Y-103720438D01*
X150883168Y-103736090D01*
X150864448Y-103749974D01*
X150844457Y-103761956D01*
X150823387Y-103771921D01*
X150801443Y-103779773D01*
X150778834Y-103785437D01*
X150755779Y-103788856D01*
X150732500Y-103790000D01*
X150257500Y-103790000D01*
X150234221Y-103788856D01*
X150211166Y-103785437D01*
X150188557Y-103779773D01*
X150166613Y-103771921D01*
X150145543Y-103761956D01*
X150125552Y-103749974D01*
X150106832Y-103736090D01*
X150089562Y-103720438D01*
X150073910Y-103703168D01*
X150060026Y-103684448D01*
X150048044Y-103664457D01*
X150038079Y-103643387D01*
X150030227Y-103621443D01*
X150024563Y-103598834D01*
X150021144Y-103575779D01*
X150020000Y-103552500D01*
X150020000Y-102977500D01*
X150021144Y-102954221D01*
X150024563Y-102931166D01*
X150030227Y-102908557D01*
X150038079Y-102886613D01*
X150048044Y-102865543D01*
X150060026Y-102845552D01*
X150073910Y-102826832D01*
X150089562Y-102809562D01*
X150106832Y-102793910D01*
X150125552Y-102780026D01*
X150145543Y-102768044D01*
X150166613Y-102758079D01*
X150188557Y-102750227D01*
X150211166Y-102744563D01*
X150234221Y-102741144D01*
X150257500Y-102740000D01*
X150732500Y-102740000D01*
X150755779Y-102741144D01*
X150755779Y-102741144D01*
G37*
D11*
X150495000Y-103265000D03*
D10*
G36*
X150755779Y-104491144D02*
G01*
X150778834Y-104494563D01*
X150801443Y-104500227D01*
X150823387Y-104508079D01*
X150844457Y-104518044D01*
X150864448Y-104530026D01*
X150883168Y-104543910D01*
X150900438Y-104559562D01*
X150916090Y-104576832D01*
X150929974Y-104595552D01*
X150941956Y-104615543D01*
X150951921Y-104636613D01*
X150959773Y-104658557D01*
X150965437Y-104681166D01*
X150968856Y-104704221D01*
X150970000Y-104727500D01*
X150970000Y-105302500D01*
X150968856Y-105325779D01*
X150965437Y-105348834D01*
X150959773Y-105371443D01*
X150951921Y-105393387D01*
X150941956Y-105414457D01*
X150929974Y-105434448D01*
X150916090Y-105453168D01*
X150900438Y-105470438D01*
X150883168Y-105486090D01*
X150864448Y-105499974D01*
X150844457Y-105511956D01*
X150823387Y-105521921D01*
X150801443Y-105529773D01*
X150778834Y-105535437D01*
X150755779Y-105538856D01*
X150732500Y-105540000D01*
X150257500Y-105540000D01*
X150234221Y-105538856D01*
X150211166Y-105535437D01*
X150188557Y-105529773D01*
X150166613Y-105521921D01*
X150145543Y-105511956D01*
X150125552Y-105499974D01*
X150106832Y-105486090D01*
X150089562Y-105470438D01*
X150073910Y-105453168D01*
X150060026Y-105434448D01*
X150048044Y-105414457D01*
X150038079Y-105393387D01*
X150030227Y-105371443D01*
X150024563Y-105348834D01*
X150021144Y-105325779D01*
X150020000Y-105302500D01*
X150020000Y-104727500D01*
X150021144Y-104704221D01*
X150024563Y-104681166D01*
X150030227Y-104658557D01*
X150038079Y-104636613D01*
X150048044Y-104615543D01*
X150060026Y-104595552D01*
X150073910Y-104576832D01*
X150089562Y-104559562D01*
X150106832Y-104543910D01*
X150125552Y-104530026D01*
X150145543Y-104518044D01*
X150166613Y-104508079D01*
X150188557Y-104500227D01*
X150211166Y-104494563D01*
X150234221Y-104491144D01*
X150257500Y-104490000D01*
X150732500Y-104490000D01*
X150755779Y-104491144D01*
X150755779Y-104491144D01*
G37*
D11*
X150495000Y-105015000D03*
G04 #@! TD*
D10*
G04 #@! TO.C,R18*
G36*
X154565779Y-104491144D02*
G01*
X154588834Y-104494563D01*
X154611443Y-104500227D01*
X154633387Y-104508079D01*
X154654457Y-104518044D01*
X154674448Y-104530026D01*
X154693168Y-104543910D01*
X154710438Y-104559562D01*
X154726090Y-104576832D01*
X154739974Y-104595552D01*
X154751956Y-104615543D01*
X154761921Y-104636613D01*
X154769773Y-104658557D01*
X154775437Y-104681166D01*
X154778856Y-104704221D01*
X154780000Y-104727500D01*
X154780000Y-105302500D01*
X154778856Y-105325779D01*
X154775437Y-105348834D01*
X154769773Y-105371443D01*
X154761921Y-105393387D01*
X154751956Y-105414457D01*
X154739974Y-105434448D01*
X154726090Y-105453168D01*
X154710438Y-105470438D01*
X154693168Y-105486090D01*
X154674448Y-105499974D01*
X154654457Y-105511956D01*
X154633387Y-105521921D01*
X154611443Y-105529773D01*
X154588834Y-105535437D01*
X154565779Y-105538856D01*
X154542500Y-105540000D01*
X154067500Y-105540000D01*
X154044221Y-105538856D01*
X154021166Y-105535437D01*
X153998557Y-105529773D01*
X153976613Y-105521921D01*
X153955543Y-105511956D01*
X153935552Y-105499974D01*
X153916832Y-105486090D01*
X153899562Y-105470438D01*
X153883910Y-105453168D01*
X153870026Y-105434448D01*
X153858044Y-105414457D01*
X153848079Y-105393387D01*
X153840227Y-105371443D01*
X153834563Y-105348834D01*
X153831144Y-105325779D01*
X153830000Y-105302500D01*
X153830000Y-104727500D01*
X153831144Y-104704221D01*
X153834563Y-104681166D01*
X153840227Y-104658557D01*
X153848079Y-104636613D01*
X153858044Y-104615543D01*
X153870026Y-104595552D01*
X153883910Y-104576832D01*
X153899562Y-104559562D01*
X153916832Y-104543910D01*
X153935552Y-104530026D01*
X153955543Y-104518044D01*
X153976613Y-104508079D01*
X153998557Y-104500227D01*
X154021166Y-104494563D01*
X154044221Y-104491144D01*
X154067500Y-104490000D01*
X154542500Y-104490000D01*
X154565779Y-104491144D01*
X154565779Y-104491144D01*
G37*
D11*
X154305000Y-105015000D03*
D10*
G36*
X154565779Y-102741144D02*
G01*
X154588834Y-102744563D01*
X154611443Y-102750227D01*
X154633387Y-102758079D01*
X154654457Y-102768044D01*
X154674448Y-102780026D01*
X154693168Y-102793910D01*
X154710438Y-102809562D01*
X154726090Y-102826832D01*
X154739974Y-102845552D01*
X154751956Y-102865543D01*
X154761921Y-102886613D01*
X154769773Y-102908557D01*
X154775437Y-102931166D01*
X154778856Y-102954221D01*
X154780000Y-102977500D01*
X154780000Y-103552500D01*
X154778856Y-103575779D01*
X154775437Y-103598834D01*
X154769773Y-103621443D01*
X154761921Y-103643387D01*
X154751956Y-103664457D01*
X154739974Y-103684448D01*
X154726090Y-103703168D01*
X154710438Y-103720438D01*
X154693168Y-103736090D01*
X154674448Y-103749974D01*
X154654457Y-103761956D01*
X154633387Y-103771921D01*
X154611443Y-103779773D01*
X154588834Y-103785437D01*
X154565779Y-103788856D01*
X154542500Y-103790000D01*
X154067500Y-103790000D01*
X154044221Y-103788856D01*
X154021166Y-103785437D01*
X153998557Y-103779773D01*
X153976613Y-103771921D01*
X153955543Y-103761956D01*
X153935552Y-103749974D01*
X153916832Y-103736090D01*
X153899562Y-103720438D01*
X153883910Y-103703168D01*
X153870026Y-103684448D01*
X153858044Y-103664457D01*
X153848079Y-103643387D01*
X153840227Y-103621443D01*
X153834563Y-103598834D01*
X153831144Y-103575779D01*
X153830000Y-103552500D01*
X153830000Y-102977500D01*
X153831144Y-102954221D01*
X153834563Y-102931166D01*
X153840227Y-102908557D01*
X153848079Y-102886613D01*
X153858044Y-102865543D01*
X153870026Y-102845552D01*
X153883910Y-102826832D01*
X153899562Y-102809562D01*
X153916832Y-102793910D01*
X153935552Y-102780026D01*
X153955543Y-102768044D01*
X153976613Y-102758079D01*
X153998557Y-102750227D01*
X154021166Y-102744563D01*
X154044221Y-102741144D01*
X154067500Y-102740000D01*
X154542500Y-102740000D01*
X154565779Y-102741144D01*
X154565779Y-102741144D01*
G37*
D11*
X154305000Y-103265000D03*
G04 #@! TD*
D10*
G04 #@! TO.C,R17*
G36*
X159645779Y-104491144D02*
G01*
X159668834Y-104494563D01*
X159691443Y-104500227D01*
X159713387Y-104508079D01*
X159734457Y-104518044D01*
X159754448Y-104530026D01*
X159773168Y-104543910D01*
X159790438Y-104559562D01*
X159806090Y-104576832D01*
X159819974Y-104595552D01*
X159831956Y-104615543D01*
X159841921Y-104636613D01*
X159849773Y-104658557D01*
X159855437Y-104681166D01*
X159858856Y-104704221D01*
X159860000Y-104727500D01*
X159860000Y-105302500D01*
X159858856Y-105325779D01*
X159855437Y-105348834D01*
X159849773Y-105371443D01*
X159841921Y-105393387D01*
X159831956Y-105414457D01*
X159819974Y-105434448D01*
X159806090Y-105453168D01*
X159790438Y-105470438D01*
X159773168Y-105486090D01*
X159754448Y-105499974D01*
X159734457Y-105511956D01*
X159713387Y-105521921D01*
X159691443Y-105529773D01*
X159668834Y-105535437D01*
X159645779Y-105538856D01*
X159622500Y-105540000D01*
X159147500Y-105540000D01*
X159124221Y-105538856D01*
X159101166Y-105535437D01*
X159078557Y-105529773D01*
X159056613Y-105521921D01*
X159035543Y-105511956D01*
X159015552Y-105499974D01*
X158996832Y-105486090D01*
X158979562Y-105470438D01*
X158963910Y-105453168D01*
X158950026Y-105434448D01*
X158938044Y-105414457D01*
X158928079Y-105393387D01*
X158920227Y-105371443D01*
X158914563Y-105348834D01*
X158911144Y-105325779D01*
X158910000Y-105302500D01*
X158910000Y-104727500D01*
X158911144Y-104704221D01*
X158914563Y-104681166D01*
X158920227Y-104658557D01*
X158928079Y-104636613D01*
X158938044Y-104615543D01*
X158950026Y-104595552D01*
X158963910Y-104576832D01*
X158979562Y-104559562D01*
X158996832Y-104543910D01*
X159015552Y-104530026D01*
X159035543Y-104518044D01*
X159056613Y-104508079D01*
X159078557Y-104500227D01*
X159101166Y-104494563D01*
X159124221Y-104491144D01*
X159147500Y-104490000D01*
X159622500Y-104490000D01*
X159645779Y-104491144D01*
X159645779Y-104491144D01*
G37*
D11*
X159385000Y-105015000D03*
D10*
G36*
X159645779Y-102741144D02*
G01*
X159668834Y-102744563D01*
X159691443Y-102750227D01*
X159713387Y-102758079D01*
X159734457Y-102768044D01*
X159754448Y-102780026D01*
X159773168Y-102793910D01*
X159790438Y-102809562D01*
X159806090Y-102826832D01*
X159819974Y-102845552D01*
X159831956Y-102865543D01*
X159841921Y-102886613D01*
X159849773Y-102908557D01*
X159855437Y-102931166D01*
X159858856Y-102954221D01*
X159860000Y-102977500D01*
X159860000Y-103552500D01*
X159858856Y-103575779D01*
X159855437Y-103598834D01*
X159849773Y-103621443D01*
X159841921Y-103643387D01*
X159831956Y-103664457D01*
X159819974Y-103684448D01*
X159806090Y-103703168D01*
X159790438Y-103720438D01*
X159773168Y-103736090D01*
X159754448Y-103749974D01*
X159734457Y-103761956D01*
X159713387Y-103771921D01*
X159691443Y-103779773D01*
X159668834Y-103785437D01*
X159645779Y-103788856D01*
X159622500Y-103790000D01*
X159147500Y-103790000D01*
X159124221Y-103788856D01*
X159101166Y-103785437D01*
X159078557Y-103779773D01*
X159056613Y-103771921D01*
X159035543Y-103761956D01*
X159015552Y-103749974D01*
X158996832Y-103736090D01*
X158979562Y-103720438D01*
X158963910Y-103703168D01*
X158950026Y-103684448D01*
X158938044Y-103664457D01*
X158928079Y-103643387D01*
X158920227Y-103621443D01*
X158914563Y-103598834D01*
X158911144Y-103575779D01*
X158910000Y-103552500D01*
X158910000Y-102977500D01*
X158911144Y-102954221D01*
X158914563Y-102931166D01*
X158920227Y-102908557D01*
X158928079Y-102886613D01*
X158938044Y-102865543D01*
X158950026Y-102845552D01*
X158963910Y-102826832D01*
X158979562Y-102809562D01*
X158996832Y-102793910D01*
X159015552Y-102780026D01*
X159035543Y-102768044D01*
X159056613Y-102758079D01*
X159078557Y-102750227D01*
X159101166Y-102744563D01*
X159124221Y-102741144D01*
X159147500Y-102740000D01*
X159622500Y-102740000D01*
X159645779Y-102741144D01*
X159645779Y-102741144D01*
G37*
D11*
X159385000Y-103265000D03*
G04 #@! TD*
D10*
G04 #@! TO.C,R16*
G36*
X161550779Y-102741144D02*
G01*
X161573834Y-102744563D01*
X161596443Y-102750227D01*
X161618387Y-102758079D01*
X161639457Y-102768044D01*
X161659448Y-102780026D01*
X161678168Y-102793910D01*
X161695438Y-102809562D01*
X161711090Y-102826832D01*
X161724974Y-102845552D01*
X161736956Y-102865543D01*
X161746921Y-102886613D01*
X161754773Y-102908557D01*
X161760437Y-102931166D01*
X161763856Y-102954221D01*
X161765000Y-102977500D01*
X161765000Y-103552500D01*
X161763856Y-103575779D01*
X161760437Y-103598834D01*
X161754773Y-103621443D01*
X161746921Y-103643387D01*
X161736956Y-103664457D01*
X161724974Y-103684448D01*
X161711090Y-103703168D01*
X161695438Y-103720438D01*
X161678168Y-103736090D01*
X161659448Y-103749974D01*
X161639457Y-103761956D01*
X161618387Y-103771921D01*
X161596443Y-103779773D01*
X161573834Y-103785437D01*
X161550779Y-103788856D01*
X161527500Y-103790000D01*
X161052500Y-103790000D01*
X161029221Y-103788856D01*
X161006166Y-103785437D01*
X160983557Y-103779773D01*
X160961613Y-103771921D01*
X160940543Y-103761956D01*
X160920552Y-103749974D01*
X160901832Y-103736090D01*
X160884562Y-103720438D01*
X160868910Y-103703168D01*
X160855026Y-103684448D01*
X160843044Y-103664457D01*
X160833079Y-103643387D01*
X160825227Y-103621443D01*
X160819563Y-103598834D01*
X160816144Y-103575779D01*
X160815000Y-103552500D01*
X160815000Y-102977500D01*
X160816144Y-102954221D01*
X160819563Y-102931166D01*
X160825227Y-102908557D01*
X160833079Y-102886613D01*
X160843044Y-102865543D01*
X160855026Y-102845552D01*
X160868910Y-102826832D01*
X160884562Y-102809562D01*
X160901832Y-102793910D01*
X160920552Y-102780026D01*
X160940543Y-102768044D01*
X160961613Y-102758079D01*
X160983557Y-102750227D01*
X161006166Y-102744563D01*
X161029221Y-102741144D01*
X161052500Y-102740000D01*
X161527500Y-102740000D01*
X161550779Y-102741144D01*
X161550779Y-102741144D01*
G37*
D11*
X161290000Y-103265000D03*
D10*
G36*
X161550779Y-104491144D02*
G01*
X161573834Y-104494563D01*
X161596443Y-104500227D01*
X161618387Y-104508079D01*
X161639457Y-104518044D01*
X161659448Y-104530026D01*
X161678168Y-104543910D01*
X161695438Y-104559562D01*
X161711090Y-104576832D01*
X161724974Y-104595552D01*
X161736956Y-104615543D01*
X161746921Y-104636613D01*
X161754773Y-104658557D01*
X161760437Y-104681166D01*
X161763856Y-104704221D01*
X161765000Y-104727500D01*
X161765000Y-105302500D01*
X161763856Y-105325779D01*
X161760437Y-105348834D01*
X161754773Y-105371443D01*
X161746921Y-105393387D01*
X161736956Y-105414457D01*
X161724974Y-105434448D01*
X161711090Y-105453168D01*
X161695438Y-105470438D01*
X161678168Y-105486090D01*
X161659448Y-105499974D01*
X161639457Y-105511956D01*
X161618387Y-105521921D01*
X161596443Y-105529773D01*
X161573834Y-105535437D01*
X161550779Y-105538856D01*
X161527500Y-105540000D01*
X161052500Y-105540000D01*
X161029221Y-105538856D01*
X161006166Y-105535437D01*
X160983557Y-105529773D01*
X160961613Y-105521921D01*
X160940543Y-105511956D01*
X160920552Y-105499974D01*
X160901832Y-105486090D01*
X160884562Y-105470438D01*
X160868910Y-105453168D01*
X160855026Y-105434448D01*
X160843044Y-105414457D01*
X160833079Y-105393387D01*
X160825227Y-105371443D01*
X160819563Y-105348834D01*
X160816144Y-105325779D01*
X160815000Y-105302500D01*
X160815000Y-104727500D01*
X160816144Y-104704221D01*
X160819563Y-104681166D01*
X160825227Y-104658557D01*
X160833079Y-104636613D01*
X160843044Y-104615543D01*
X160855026Y-104595552D01*
X160868910Y-104576832D01*
X160884562Y-104559562D01*
X160901832Y-104543910D01*
X160920552Y-104530026D01*
X160940543Y-104518044D01*
X160961613Y-104508079D01*
X160983557Y-104500227D01*
X161006166Y-104494563D01*
X161029221Y-104491144D01*
X161052500Y-104490000D01*
X161527500Y-104490000D01*
X161550779Y-104491144D01*
X161550779Y-104491144D01*
G37*
D11*
X161290000Y-105015000D03*
G04 #@! TD*
D10*
G04 #@! TO.C,R15*
G36*
X164725779Y-83056144D02*
G01*
X164748834Y-83059563D01*
X164771443Y-83065227D01*
X164793387Y-83073079D01*
X164814457Y-83083044D01*
X164834448Y-83095026D01*
X164853168Y-83108910D01*
X164870438Y-83124562D01*
X164886090Y-83141832D01*
X164899974Y-83160552D01*
X164911956Y-83180543D01*
X164921921Y-83201613D01*
X164929773Y-83223557D01*
X164935437Y-83246166D01*
X164938856Y-83269221D01*
X164940000Y-83292500D01*
X164940000Y-83867500D01*
X164938856Y-83890779D01*
X164935437Y-83913834D01*
X164929773Y-83936443D01*
X164921921Y-83958387D01*
X164911956Y-83979457D01*
X164899974Y-83999448D01*
X164886090Y-84018168D01*
X164870438Y-84035438D01*
X164853168Y-84051090D01*
X164834448Y-84064974D01*
X164814457Y-84076956D01*
X164793387Y-84086921D01*
X164771443Y-84094773D01*
X164748834Y-84100437D01*
X164725779Y-84103856D01*
X164702500Y-84105000D01*
X164227500Y-84105000D01*
X164204221Y-84103856D01*
X164181166Y-84100437D01*
X164158557Y-84094773D01*
X164136613Y-84086921D01*
X164115543Y-84076956D01*
X164095552Y-84064974D01*
X164076832Y-84051090D01*
X164059562Y-84035438D01*
X164043910Y-84018168D01*
X164030026Y-83999448D01*
X164018044Y-83979457D01*
X164008079Y-83958387D01*
X164000227Y-83936443D01*
X163994563Y-83913834D01*
X163991144Y-83890779D01*
X163990000Y-83867500D01*
X163990000Y-83292500D01*
X163991144Y-83269221D01*
X163994563Y-83246166D01*
X164000227Y-83223557D01*
X164008079Y-83201613D01*
X164018044Y-83180543D01*
X164030026Y-83160552D01*
X164043910Y-83141832D01*
X164059562Y-83124562D01*
X164076832Y-83108910D01*
X164095552Y-83095026D01*
X164115543Y-83083044D01*
X164136613Y-83073079D01*
X164158557Y-83065227D01*
X164181166Y-83059563D01*
X164204221Y-83056144D01*
X164227500Y-83055000D01*
X164702500Y-83055000D01*
X164725779Y-83056144D01*
X164725779Y-83056144D01*
G37*
D11*
X164465000Y-83580000D03*
D10*
G36*
X164725779Y-84806144D02*
G01*
X164748834Y-84809563D01*
X164771443Y-84815227D01*
X164793387Y-84823079D01*
X164814457Y-84833044D01*
X164834448Y-84845026D01*
X164853168Y-84858910D01*
X164870438Y-84874562D01*
X164886090Y-84891832D01*
X164899974Y-84910552D01*
X164911956Y-84930543D01*
X164921921Y-84951613D01*
X164929773Y-84973557D01*
X164935437Y-84996166D01*
X164938856Y-85019221D01*
X164940000Y-85042500D01*
X164940000Y-85617500D01*
X164938856Y-85640779D01*
X164935437Y-85663834D01*
X164929773Y-85686443D01*
X164921921Y-85708387D01*
X164911956Y-85729457D01*
X164899974Y-85749448D01*
X164886090Y-85768168D01*
X164870438Y-85785438D01*
X164853168Y-85801090D01*
X164834448Y-85814974D01*
X164814457Y-85826956D01*
X164793387Y-85836921D01*
X164771443Y-85844773D01*
X164748834Y-85850437D01*
X164725779Y-85853856D01*
X164702500Y-85855000D01*
X164227500Y-85855000D01*
X164204221Y-85853856D01*
X164181166Y-85850437D01*
X164158557Y-85844773D01*
X164136613Y-85836921D01*
X164115543Y-85826956D01*
X164095552Y-85814974D01*
X164076832Y-85801090D01*
X164059562Y-85785438D01*
X164043910Y-85768168D01*
X164030026Y-85749448D01*
X164018044Y-85729457D01*
X164008079Y-85708387D01*
X164000227Y-85686443D01*
X163994563Y-85663834D01*
X163991144Y-85640779D01*
X163990000Y-85617500D01*
X163990000Y-85042500D01*
X163991144Y-85019221D01*
X163994563Y-84996166D01*
X164000227Y-84973557D01*
X164008079Y-84951613D01*
X164018044Y-84930543D01*
X164030026Y-84910552D01*
X164043910Y-84891832D01*
X164059562Y-84874562D01*
X164076832Y-84858910D01*
X164095552Y-84845026D01*
X164115543Y-84833044D01*
X164136613Y-84823079D01*
X164158557Y-84815227D01*
X164181166Y-84809563D01*
X164204221Y-84806144D01*
X164227500Y-84805000D01*
X164702500Y-84805000D01*
X164725779Y-84806144D01*
X164725779Y-84806144D01*
G37*
D11*
X164465000Y-85330000D03*
G04 #@! TD*
D10*
G04 #@! TO.C,R14*
G36*
X157740779Y-96871144D02*
G01*
X157763834Y-96874563D01*
X157786443Y-96880227D01*
X157808387Y-96888079D01*
X157829457Y-96898044D01*
X157849448Y-96910026D01*
X157868168Y-96923910D01*
X157885438Y-96939562D01*
X157901090Y-96956832D01*
X157914974Y-96975552D01*
X157926956Y-96995543D01*
X157936921Y-97016613D01*
X157944773Y-97038557D01*
X157950437Y-97061166D01*
X157953856Y-97084221D01*
X157955000Y-97107500D01*
X157955000Y-97682500D01*
X157953856Y-97705779D01*
X157950437Y-97728834D01*
X157944773Y-97751443D01*
X157936921Y-97773387D01*
X157926956Y-97794457D01*
X157914974Y-97814448D01*
X157901090Y-97833168D01*
X157885438Y-97850438D01*
X157868168Y-97866090D01*
X157849448Y-97879974D01*
X157829457Y-97891956D01*
X157808387Y-97901921D01*
X157786443Y-97909773D01*
X157763834Y-97915437D01*
X157740779Y-97918856D01*
X157717500Y-97920000D01*
X157242500Y-97920000D01*
X157219221Y-97918856D01*
X157196166Y-97915437D01*
X157173557Y-97909773D01*
X157151613Y-97901921D01*
X157130543Y-97891956D01*
X157110552Y-97879974D01*
X157091832Y-97866090D01*
X157074562Y-97850438D01*
X157058910Y-97833168D01*
X157045026Y-97814448D01*
X157033044Y-97794457D01*
X157023079Y-97773387D01*
X157015227Y-97751443D01*
X157009563Y-97728834D01*
X157006144Y-97705779D01*
X157005000Y-97682500D01*
X157005000Y-97107500D01*
X157006144Y-97084221D01*
X157009563Y-97061166D01*
X157015227Y-97038557D01*
X157023079Y-97016613D01*
X157033044Y-96995543D01*
X157045026Y-96975552D01*
X157058910Y-96956832D01*
X157074562Y-96939562D01*
X157091832Y-96923910D01*
X157110552Y-96910026D01*
X157130543Y-96898044D01*
X157151613Y-96888079D01*
X157173557Y-96880227D01*
X157196166Y-96874563D01*
X157219221Y-96871144D01*
X157242500Y-96870000D01*
X157717500Y-96870000D01*
X157740779Y-96871144D01*
X157740779Y-96871144D01*
G37*
D11*
X157480000Y-97395000D03*
D10*
G36*
X157740779Y-95121144D02*
G01*
X157763834Y-95124563D01*
X157786443Y-95130227D01*
X157808387Y-95138079D01*
X157829457Y-95148044D01*
X157849448Y-95160026D01*
X157868168Y-95173910D01*
X157885438Y-95189562D01*
X157901090Y-95206832D01*
X157914974Y-95225552D01*
X157926956Y-95245543D01*
X157936921Y-95266613D01*
X157944773Y-95288557D01*
X157950437Y-95311166D01*
X157953856Y-95334221D01*
X157955000Y-95357500D01*
X157955000Y-95932500D01*
X157953856Y-95955779D01*
X157950437Y-95978834D01*
X157944773Y-96001443D01*
X157936921Y-96023387D01*
X157926956Y-96044457D01*
X157914974Y-96064448D01*
X157901090Y-96083168D01*
X157885438Y-96100438D01*
X157868168Y-96116090D01*
X157849448Y-96129974D01*
X157829457Y-96141956D01*
X157808387Y-96151921D01*
X157786443Y-96159773D01*
X157763834Y-96165437D01*
X157740779Y-96168856D01*
X157717500Y-96170000D01*
X157242500Y-96170000D01*
X157219221Y-96168856D01*
X157196166Y-96165437D01*
X157173557Y-96159773D01*
X157151613Y-96151921D01*
X157130543Y-96141956D01*
X157110552Y-96129974D01*
X157091832Y-96116090D01*
X157074562Y-96100438D01*
X157058910Y-96083168D01*
X157045026Y-96064448D01*
X157033044Y-96044457D01*
X157023079Y-96023387D01*
X157015227Y-96001443D01*
X157009563Y-95978834D01*
X157006144Y-95955779D01*
X157005000Y-95932500D01*
X157005000Y-95357500D01*
X157006144Y-95334221D01*
X157009563Y-95311166D01*
X157015227Y-95288557D01*
X157023079Y-95266613D01*
X157033044Y-95245543D01*
X157045026Y-95225552D01*
X157058910Y-95206832D01*
X157074562Y-95189562D01*
X157091832Y-95173910D01*
X157110552Y-95160026D01*
X157130543Y-95148044D01*
X157151613Y-95138079D01*
X157173557Y-95130227D01*
X157196166Y-95124563D01*
X157219221Y-95121144D01*
X157242500Y-95120000D01*
X157717500Y-95120000D01*
X157740779Y-95121144D01*
X157740779Y-95121144D01*
G37*
D11*
X157480000Y-95645000D03*
G04 #@! TD*
D10*
G04 #@! TO.C,R13*
G36*
X155835779Y-95121144D02*
G01*
X155858834Y-95124563D01*
X155881443Y-95130227D01*
X155903387Y-95138079D01*
X155924457Y-95148044D01*
X155944448Y-95160026D01*
X155963168Y-95173910D01*
X155980438Y-95189562D01*
X155996090Y-95206832D01*
X156009974Y-95225552D01*
X156021956Y-95245543D01*
X156031921Y-95266613D01*
X156039773Y-95288557D01*
X156045437Y-95311166D01*
X156048856Y-95334221D01*
X156050000Y-95357500D01*
X156050000Y-95932500D01*
X156048856Y-95955779D01*
X156045437Y-95978834D01*
X156039773Y-96001443D01*
X156031921Y-96023387D01*
X156021956Y-96044457D01*
X156009974Y-96064448D01*
X155996090Y-96083168D01*
X155980438Y-96100438D01*
X155963168Y-96116090D01*
X155944448Y-96129974D01*
X155924457Y-96141956D01*
X155903387Y-96151921D01*
X155881443Y-96159773D01*
X155858834Y-96165437D01*
X155835779Y-96168856D01*
X155812500Y-96170000D01*
X155337500Y-96170000D01*
X155314221Y-96168856D01*
X155291166Y-96165437D01*
X155268557Y-96159773D01*
X155246613Y-96151921D01*
X155225543Y-96141956D01*
X155205552Y-96129974D01*
X155186832Y-96116090D01*
X155169562Y-96100438D01*
X155153910Y-96083168D01*
X155140026Y-96064448D01*
X155128044Y-96044457D01*
X155118079Y-96023387D01*
X155110227Y-96001443D01*
X155104563Y-95978834D01*
X155101144Y-95955779D01*
X155100000Y-95932500D01*
X155100000Y-95357500D01*
X155101144Y-95334221D01*
X155104563Y-95311166D01*
X155110227Y-95288557D01*
X155118079Y-95266613D01*
X155128044Y-95245543D01*
X155140026Y-95225552D01*
X155153910Y-95206832D01*
X155169562Y-95189562D01*
X155186832Y-95173910D01*
X155205552Y-95160026D01*
X155225543Y-95148044D01*
X155246613Y-95138079D01*
X155268557Y-95130227D01*
X155291166Y-95124563D01*
X155314221Y-95121144D01*
X155337500Y-95120000D01*
X155812500Y-95120000D01*
X155835779Y-95121144D01*
X155835779Y-95121144D01*
G37*
D11*
X155575000Y-95645000D03*
D10*
G36*
X155835779Y-96871144D02*
G01*
X155858834Y-96874563D01*
X155881443Y-96880227D01*
X155903387Y-96888079D01*
X155924457Y-96898044D01*
X155944448Y-96910026D01*
X155963168Y-96923910D01*
X155980438Y-96939562D01*
X155996090Y-96956832D01*
X156009974Y-96975552D01*
X156021956Y-96995543D01*
X156031921Y-97016613D01*
X156039773Y-97038557D01*
X156045437Y-97061166D01*
X156048856Y-97084221D01*
X156050000Y-97107500D01*
X156050000Y-97682500D01*
X156048856Y-97705779D01*
X156045437Y-97728834D01*
X156039773Y-97751443D01*
X156031921Y-97773387D01*
X156021956Y-97794457D01*
X156009974Y-97814448D01*
X155996090Y-97833168D01*
X155980438Y-97850438D01*
X155963168Y-97866090D01*
X155944448Y-97879974D01*
X155924457Y-97891956D01*
X155903387Y-97901921D01*
X155881443Y-97909773D01*
X155858834Y-97915437D01*
X155835779Y-97918856D01*
X155812500Y-97920000D01*
X155337500Y-97920000D01*
X155314221Y-97918856D01*
X155291166Y-97915437D01*
X155268557Y-97909773D01*
X155246613Y-97901921D01*
X155225543Y-97891956D01*
X155205552Y-97879974D01*
X155186832Y-97866090D01*
X155169562Y-97850438D01*
X155153910Y-97833168D01*
X155140026Y-97814448D01*
X155128044Y-97794457D01*
X155118079Y-97773387D01*
X155110227Y-97751443D01*
X155104563Y-97728834D01*
X155101144Y-97705779D01*
X155100000Y-97682500D01*
X155100000Y-97107500D01*
X155101144Y-97084221D01*
X155104563Y-97061166D01*
X155110227Y-97038557D01*
X155118079Y-97016613D01*
X155128044Y-96995543D01*
X155140026Y-96975552D01*
X155153910Y-96956832D01*
X155169562Y-96939562D01*
X155186832Y-96923910D01*
X155205552Y-96910026D01*
X155225543Y-96898044D01*
X155246613Y-96888079D01*
X155268557Y-96880227D01*
X155291166Y-96874563D01*
X155314221Y-96871144D01*
X155337500Y-96870000D01*
X155812500Y-96870000D01*
X155835779Y-96871144D01*
X155835779Y-96871144D01*
G37*
D11*
X155575000Y-97395000D03*
G04 #@! TD*
D10*
G04 #@! TO.C,R12*
G36*
X155119505Y-82611204D02*
G01*
X155143773Y-82614804D01*
X155167572Y-82620765D01*
X155190671Y-82629030D01*
X155212850Y-82639520D01*
X155233893Y-82652132D01*
X155253599Y-82666747D01*
X155271777Y-82683223D01*
X155288253Y-82701401D01*
X155302868Y-82721107D01*
X155315480Y-82742150D01*
X155325970Y-82764329D01*
X155334235Y-82787428D01*
X155340196Y-82811227D01*
X155343796Y-82835495D01*
X155345000Y-82859999D01*
X155345000Y-83885001D01*
X155343796Y-83909505D01*
X155340196Y-83933773D01*
X155334235Y-83957572D01*
X155325970Y-83980671D01*
X155315480Y-84002850D01*
X155302868Y-84023893D01*
X155288253Y-84043599D01*
X155271777Y-84061777D01*
X155253599Y-84078253D01*
X155233893Y-84092868D01*
X155212850Y-84105480D01*
X155190671Y-84115970D01*
X155167572Y-84124235D01*
X155143773Y-84130196D01*
X155119505Y-84133796D01*
X155095001Y-84135000D01*
X152244999Y-84135000D01*
X152220495Y-84133796D01*
X152196227Y-84130196D01*
X152172428Y-84124235D01*
X152149329Y-84115970D01*
X152127150Y-84105480D01*
X152106107Y-84092868D01*
X152086401Y-84078253D01*
X152068223Y-84061777D01*
X152051747Y-84043599D01*
X152037132Y-84023893D01*
X152024520Y-84002850D01*
X152014030Y-83980671D01*
X152005765Y-83957572D01*
X151999804Y-83933773D01*
X151996204Y-83909505D01*
X151995000Y-83885001D01*
X151995000Y-82859999D01*
X151996204Y-82835495D01*
X151999804Y-82811227D01*
X152005765Y-82787428D01*
X152014030Y-82764329D01*
X152024520Y-82742150D01*
X152037132Y-82721107D01*
X152051747Y-82701401D01*
X152068223Y-82683223D01*
X152086401Y-82666747D01*
X152106107Y-82652132D01*
X152127150Y-82639520D01*
X152149329Y-82629030D01*
X152172428Y-82620765D01*
X152196227Y-82614804D01*
X152220495Y-82611204D01*
X152244999Y-82610000D01*
X155095001Y-82610000D01*
X155119505Y-82611204D01*
X155119505Y-82611204D01*
G37*
D16*
X153670000Y-83372500D03*
D10*
G36*
X155119505Y-88586204D02*
G01*
X155143773Y-88589804D01*
X155167572Y-88595765D01*
X155190671Y-88604030D01*
X155212850Y-88614520D01*
X155233893Y-88627132D01*
X155253599Y-88641747D01*
X155271777Y-88658223D01*
X155288253Y-88676401D01*
X155302868Y-88696107D01*
X155315480Y-88717150D01*
X155325970Y-88739329D01*
X155334235Y-88762428D01*
X155340196Y-88786227D01*
X155343796Y-88810495D01*
X155345000Y-88834999D01*
X155345000Y-89860001D01*
X155343796Y-89884505D01*
X155340196Y-89908773D01*
X155334235Y-89932572D01*
X155325970Y-89955671D01*
X155315480Y-89977850D01*
X155302868Y-89998893D01*
X155288253Y-90018599D01*
X155271777Y-90036777D01*
X155253599Y-90053253D01*
X155233893Y-90067868D01*
X155212850Y-90080480D01*
X155190671Y-90090970D01*
X155167572Y-90099235D01*
X155143773Y-90105196D01*
X155119505Y-90108796D01*
X155095001Y-90110000D01*
X152244999Y-90110000D01*
X152220495Y-90108796D01*
X152196227Y-90105196D01*
X152172428Y-90099235D01*
X152149329Y-90090970D01*
X152127150Y-90080480D01*
X152106107Y-90067868D01*
X152086401Y-90053253D01*
X152068223Y-90036777D01*
X152051747Y-90018599D01*
X152037132Y-89998893D01*
X152024520Y-89977850D01*
X152014030Y-89955671D01*
X152005765Y-89932572D01*
X151999804Y-89908773D01*
X151996204Y-89884505D01*
X151995000Y-89860001D01*
X151995000Y-88834999D01*
X151996204Y-88810495D01*
X151999804Y-88786227D01*
X152005765Y-88762428D01*
X152014030Y-88739329D01*
X152024520Y-88717150D01*
X152037132Y-88696107D01*
X152051747Y-88676401D01*
X152068223Y-88658223D01*
X152086401Y-88641747D01*
X152106107Y-88627132D01*
X152127150Y-88614520D01*
X152149329Y-88604030D01*
X152172428Y-88595765D01*
X152196227Y-88589804D01*
X152220495Y-88586204D01*
X152244999Y-88585000D01*
X155095001Y-88585000D01*
X155119505Y-88586204D01*
X155119505Y-88586204D01*
G37*
D16*
X153670000Y-89347500D03*
G04 #@! TD*
D10*
G04 #@! TO.C,R11*
G36*
X164725779Y-88616144D02*
G01*
X164748834Y-88619563D01*
X164771443Y-88625227D01*
X164793387Y-88633079D01*
X164814457Y-88643044D01*
X164834448Y-88655026D01*
X164853168Y-88668910D01*
X164870438Y-88684562D01*
X164886090Y-88701832D01*
X164899974Y-88720552D01*
X164911956Y-88740543D01*
X164921921Y-88761613D01*
X164929773Y-88783557D01*
X164935437Y-88806166D01*
X164938856Y-88829221D01*
X164940000Y-88852500D01*
X164940000Y-89427500D01*
X164938856Y-89450779D01*
X164935437Y-89473834D01*
X164929773Y-89496443D01*
X164921921Y-89518387D01*
X164911956Y-89539457D01*
X164899974Y-89559448D01*
X164886090Y-89578168D01*
X164870438Y-89595438D01*
X164853168Y-89611090D01*
X164834448Y-89624974D01*
X164814457Y-89636956D01*
X164793387Y-89646921D01*
X164771443Y-89654773D01*
X164748834Y-89660437D01*
X164725779Y-89663856D01*
X164702500Y-89665000D01*
X164227500Y-89665000D01*
X164204221Y-89663856D01*
X164181166Y-89660437D01*
X164158557Y-89654773D01*
X164136613Y-89646921D01*
X164115543Y-89636956D01*
X164095552Y-89624974D01*
X164076832Y-89611090D01*
X164059562Y-89595438D01*
X164043910Y-89578168D01*
X164030026Y-89559448D01*
X164018044Y-89539457D01*
X164008079Y-89518387D01*
X164000227Y-89496443D01*
X163994563Y-89473834D01*
X163991144Y-89450779D01*
X163990000Y-89427500D01*
X163990000Y-88852500D01*
X163991144Y-88829221D01*
X163994563Y-88806166D01*
X164000227Y-88783557D01*
X164008079Y-88761613D01*
X164018044Y-88740543D01*
X164030026Y-88720552D01*
X164043910Y-88701832D01*
X164059562Y-88684562D01*
X164076832Y-88668910D01*
X164095552Y-88655026D01*
X164115543Y-88643044D01*
X164136613Y-88633079D01*
X164158557Y-88625227D01*
X164181166Y-88619563D01*
X164204221Y-88616144D01*
X164227500Y-88615000D01*
X164702500Y-88615000D01*
X164725779Y-88616144D01*
X164725779Y-88616144D01*
G37*
D11*
X164465000Y-89140000D03*
D10*
G36*
X164725779Y-86866144D02*
G01*
X164748834Y-86869563D01*
X164771443Y-86875227D01*
X164793387Y-86883079D01*
X164814457Y-86893044D01*
X164834448Y-86905026D01*
X164853168Y-86918910D01*
X164870438Y-86934562D01*
X164886090Y-86951832D01*
X164899974Y-86970552D01*
X164911956Y-86990543D01*
X164921921Y-87011613D01*
X164929773Y-87033557D01*
X164935437Y-87056166D01*
X164938856Y-87079221D01*
X164940000Y-87102500D01*
X164940000Y-87677500D01*
X164938856Y-87700779D01*
X164935437Y-87723834D01*
X164929773Y-87746443D01*
X164921921Y-87768387D01*
X164911956Y-87789457D01*
X164899974Y-87809448D01*
X164886090Y-87828168D01*
X164870438Y-87845438D01*
X164853168Y-87861090D01*
X164834448Y-87874974D01*
X164814457Y-87886956D01*
X164793387Y-87896921D01*
X164771443Y-87904773D01*
X164748834Y-87910437D01*
X164725779Y-87913856D01*
X164702500Y-87915000D01*
X164227500Y-87915000D01*
X164204221Y-87913856D01*
X164181166Y-87910437D01*
X164158557Y-87904773D01*
X164136613Y-87896921D01*
X164115543Y-87886956D01*
X164095552Y-87874974D01*
X164076832Y-87861090D01*
X164059562Y-87845438D01*
X164043910Y-87828168D01*
X164030026Y-87809448D01*
X164018044Y-87789457D01*
X164008079Y-87768387D01*
X164000227Y-87746443D01*
X163994563Y-87723834D01*
X163991144Y-87700779D01*
X163990000Y-87677500D01*
X163990000Y-87102500D01*
X163991144Y-87079221D01*
X163994563Y-87056166D01*
X164000227Y-87033557D01*
X164008079Y-87011613D01*
X164018044Y-86990543D01*
X164030026Y-86970552D01*
X164043910Y-86951832D01*
X164059562Y-86934562D01*
X164076832Y-86918910D01*
X164095552Y-86905026D01*
X164115543Y-86893044D01*
X164136613Y-86883079D01*
X164158557Y-86875227D01*
X164181166Y-86869563D01*
X164204221Y-86866144D01*
X164227500Y-86865000D01*
X164702500Y-86865000D01*
X164725779Y-86866144D01*
X164725779Y-86866144D01*
G37*
D11*
X164465000Y-87390000D03*
G04 #@! TD*
D10*
G04 #@! TO.C,R10*
G36*
X159010779Y-78611144D02*
G01*
X159033834Y-78614563D01*
X159056443Y-78620227D01*
X159078387Y-78628079D01*
X159099457Y-78638044D01*
X159119448Y-78650026D01*
X159138168Y-78663910D01*
X159155438Y-78679562D01*
X159171090Y-78696832D01*
X159184974Y-78715552D01*
X159196956Y-78735543D01*
X159206921Y-78756613D01*
X159214773Y-78778557D01*
X159220437Y-78801166D01*
X159223856Y-78824221D01*
X159225000Y-78847500D01*
X159225000Y-79422500D01*
X159223856Y-79445779D01*
X159220437Y-79468834D01*
X159214773Y-79491443D01*
X159206921Y-79513387D01*
X159196956Y-79534457D01*
X159184974Y-79554448D01*
X159171090Y-79573168D01*
X159155438Y-79590438D01*
X159138168Y-79606090D01*
X159119448Y-79619974D01*
X159099457Y-79631956D01*
X159078387Y-79641921D01*
X159056443Y-79649773D01*
X159033834Y-79655437D01*
X159010779Y-79658856D01*
X158987500Y-79660000D01*
X158512500Y-79660000D01*
X158489221Y-79658856D01*
X158466166Y-79655437D01*
X158443557Y-79649773D01*
X158421613Y-79641921D01*
X158400543Y-79631956D01*
X158380552Y-79619974D01*
X158361832Y-79606090D01*
X158344562Y-79590438D01*
X158328910Y-79573168D01*
X158315026Y-79554448D01*
X158303044Y-79534457D01*
X158293079Y-79513387D01*
X158285227Y-79491443D01*
X158279563Y-79468834D01*
X158276144Y-79445779D01*
X158275000Y-79422500D01*
X158275000Y-78847500D01*
X158276144Y-78824221D01*
X158279563Y-78801166D01*
X158285227Y-78778557D01*
X158293079Y-78756613D01*
X158303044Y-78735543D01*
X158315026Y-78715552D01*
X158328910Y-78696832D01*
X158344562Y-78679562D01*
X158361832Y-78663910D01*
X158380552Y-78650026D01*
X158400543Y-78638044D01*
X158421613Y-78628079D01*
X158443557Y-78620227D01*
X158466166Y-78614563D01*
X158489221Y-78611144D01*
X158512500Y-78610000D01*
X158987500Y-78610000D01*
X159010779Y-78611144D01*
X159010779Y-78611144D01*
G37*
D11*
X158750000Y-79135000D03*
D10*
G36*
X159010779Y-80361144D02*
G01*
X159033834Y-80364563D01*
X159056443Y-80370227D01*
X159078387Y-80378079D01*
X159099457Y-80388044D01*
X159119448Y-80400026D01*
X159138168Y-80413910D01*
X159155438Y-80429562D01*
X159171090Y-80446832D01*
X159184974Y-80465552D01*
X159196956Y-80485543D01*
X159206921Y-80506613D01*
X159214773Y-80528557D01*
X159220437Y-80551166D01*
X159223856Y-80574221D01*
X159225000Y-80597500D01*
X159225000Y-81172500D01*
X159223856Y-81195779D01*
X159220437Y-81218834D01*
X159214773Y-81241443D01*
X159206921Y-81263387D01*
X159196956Y-81284457D01*
X159184974Y-81304448D01*
X159171090Y-81323168D01*
X159155438Y-81340438D01*
X159138168Y-81356090D01*
X159119448Y-81369974D01*
X159099457Y-81381956D01*
X159078387Y-81391921D01*
X159056443Y-81399773D01*
X159033834Y-81405437D01*
X159010779Y-81408856D01*
X158987500Y-81410000D01*
X158512500Y-81410000D01*
X158489221Y-81408856D01*
X158466166Y-81405437D01*
X158443557Y-81399773D01*
X158421613Y-81391921D01*
X158400543Y-81381956D01*
X158380552Y-81369974D01*
X158361832Y-81356090D01*
X158344562Y-81340438D01*
X158328910Y-81323168D01*
X158315026Y-81304448D01*
X158303044Y-81284457D01*
X158293079Y-81263387D01*
X158285227Y-81241443D01*
X158279563Y-81218834D01*
X158276144Y-81195779D01*
X158275000Y-81172500D01*
X158275000Y-80597500D01*
X158276144Y-80574221D01*
X158279563Y-80551166D01*
X158285227Y-80528557D01*
X158293079Y-80506613D01*
X158303044Y-80485543D01*
X158315026Y-80465552D01*
X158328910Y-80446832D01*
X158344562Y-80429562D01*
X158361832Y-80413910D01*
X158380552Y-80400026D01*
X158400543Y-80388044D01*
X158421613Y-80378079D01*
X158443557Y-80370227D01*
X158466166Y-80364563D01*
X158489221Y-80361144D01*
X158512500Y-80360000D01*
X158987500Y-80360000D01*
X159010779Y-80361144D01*
X159010779Y-80361144D01*
G37*
D11*
X158750000Y-80885000D03*
G04 #@! TD*
D10*
G04 #@! TO.C,R9*
G36*
X153849505Y-62291204D02*
G01*
X153873773Y-62294804D01*
X153897572Y-62300765D01*
X153920671Y-62309030D01*
X153942850Y-62319520D01*
X153963893Y-62332132D01*
X153983599Y-62346747D01*
X154001777Y-62363223D01*
X154018253Y-62381401D01*
X154032868Y-62401107D01*
X154045480Y-62422150D01*
X154055970Y-62444329D01*
X154064235Y-62467428D01*
X154070196Y-62491227D01*
X154073796Y-62515495D01*
X154075000Y-62539999D01*
X154075000Y-63565001D01*
X154073796Y-63589505D01*
X154070196Y-63613773D01*
X154064235Y-63637572D01*
X154055970Y-63660671D01*
X154045480Y-63682850D01*
X154032868Y-63703893D01*
X154018253Y-63723599D01*
X154001777Y-63741777D01*
X153983599Y-63758253D01*
X153963893Y-63772868D01*
X153942850Y-63785480D01*
X153920671Y-63795970D01*
X153897572Y-63804235D01*
X153873773Y-63810196D01*
X153849505Y-63813796D01*
X153825001Y-63815000D01*
X150974999Y-63815000D01*
X150950495Y-63813796D01*
X150926227Y-63810196D01*
X150902428Y-63804235D01*
X150879329Y-63795970D01*
X150857150Y-63785480D01*
X150836107Y-63772868D01*
X150816401Y-63758253D01*
X150798223Y-63741777D01*
X150781747Y-63723599D01*
X150767132Y-63703893D01*
X150754520Y-63682850D01*
X150744030Y-63660671D01*
X150735765Y-63637572D01*
X150729804Y-63613773D01*
X150726204Y-63589505D01*
X150725000Y-63565001D01*
X150725000Y-62539999D01*
X150726204Y-62515495D01*
X150729804Y-62491227D01*
X150735765Y-62467428D01*
X150744030Y-62444329D01*
X150754520Y-62422150D01*
X150767132Y-62401107D01*
X150781747Y-62381401D01*
X150798223Y-62363223D01*
X150816401Y-62346747D01*
X150836107Y-62332132D01*
X150857150Y-62319520D01*
X150879329Y-62309030D01*
X150902428Y-62300765D01*
X150926227Y-62294804D01*
X150950495Y-62291204D01*
X150974999Y-62290000D01*
X153825001Y-62290000D01*
X153849505Y-62291204D01*
X153849505Y-62291204D01*
G37*
D16*
X152400000Y-63052500D03*
D10*
G36*
X153849505Y-68266204D02*
G01*
X153873773Y-68269804D01*
X153897572Y-68275765D01*
X153920671Y-68284030D01*
X153942850Y-68294520D01*
X153963893Y-68307132D01*
X153983599Y-68321747D01*
X154001777Y-68338223D01*
X154018253Y-68356401D01*
X154032868Y-68376107D01*
X154045480Y-68397150D01*
X154055970Y-68419329D01*
X154064235Y-68442428D01*
X154070196Y-68466227D01*
X154073796Y-68490495D01*
X154075000Y-68514999D01*
X154075000Y-69540001D01*
X154073796Y-69564505D01*
X154070196Y-69588773D01*
X154064235Y-69612572D01*
X154055970Y-69635671D01*
X154045480Y-69657850D01*
X154032868Y-69678893D01*
X154018253Y-69698599D01*
X154001777Y-69716777D01*
X153983599Y-69733253D01*
X153963893Y-69747868D01*
X153942850Y-69760480D01*
X153920671Y-69770970D01*
X153897572Y-69779235D01*
X153873773Y-69785196D01*
X153849505Y-69788796D01*
X153825001Y-69790000D01*
X150974999Y-69790000D01*
X150950495Y-69788796D01*
X150926227Y-69785196D01*
X150902428Y-69779235D01*
X150879329Y-69770970D01*
X150857150Y-69760480D01*
X150836107Y-69747868D01*
X150816401Y-69733253D01*
X150798223Y-69716777D01*
X150781747Y-69698599D01*
X150767132Y-69678893D01*
X150754520Y-69657850D01*
X150744030Y-69635671D01*
X150735765Y-69612572D01*
X150729804Y-69588773D01*
X150726204Y-69564505D01*
X150725000Y-69540001D01*
X150725000Y-68514999D01*
X150726204Y-68490495D01*
X150729804Y-68466227D01*
X150735765Y-68442428D01*
X150744030Y-68419329D01*
X150754520Y-68397150D01*
X150767132Y-68376107D01*
X150781747Y-68356401D01*
X150798223Y-68338223D01*
X150816401Y-68321747D01*
X150836107Y-68307132D01*
X150857150Y-68294520D01*
X150879329Y-68284030D01*
X150902428Y-68275765D01*
X150926227Y-68269804D01*
X150950495Y-68266204D01*
X150974999Y-68265000D01*
X153825001Y-68265000D01*
X153849505Y-68266204D01*
X153849505Y-68266204D01*
G37*
D16*
X152400000Y-69027500D03*
G04 #@! TD*
D10*
G04 #@! TO.C,R8*
G36*
X160915779Y-78611144D02*
G01*
X160938834Y-78614563D01*
X160961443Y-78620227D01*
X160983387Y-78628079D01*
X161004457Y-78638044D01*
X161024448Y-78650026D01*
X161043168Y-78663910D01*
X161060438Y-78679562D01*
X161076090Y-78696832D01*
X161089974Y-78715552D01*
X161101956Y-78735543D01*
X161111921Y-78756613D01*
X161119773Y-78778557D01*
X161125437Y-78801166D01*
X161128856Y-78824221D01*
X161130000Y-78847500D01*
X161130000Y-79422500D01*
X161128856Y-79445779D01*
X161125437Y-79468834D01*
X161119773Y-79491443D01*
X161111921Y-79513387D01*
X161101956Y-79534457D01*
X161089974Y-79554448D01*
X161076090Y-79573168D01*
X161060438Y-79590438D01*
X161043168Y-79606090D01*
X161024448Y-79619974D01*
X161004457Y-79631956D01*
X160983387Y-79641921D01*
X160961443Y-79649773D01*
X160938834Y-79655437D01*
X160915779Y-79658856D01*
X160892500Y-79660000D01*
X160417500Y-79660000D01*
X160394221Y-79658856D01*
X160371166Y-79655437D01*
X160348557Y-79649773D01*
X160326613Y-79641921D01*
X160305543Y-79631956D01*
X160285552Y-79619974D01*
X160266832Y-79606090D01*
X160249562Y-79590438D01*
X160233910Y-79573168D01*
X160220026Y-79554448D01*
X160208044Y-79534457D01*
X160198079Y-79513387D01*
X160190227Y-79491443D01*
X160184563Y-79468834D01*
X160181144Y-79445779D01*
X160180000Y-79422500D01*
X160180000Y-78847500D01*
X160181144Y-78824221D01*
X160184563Y-78801166D01*
X160190227Y-78778557D01*
X160198079Y-78756613D01*
X160208044Y-78735543D01*
X160220026Y-78715552D01*
X160233910Y-78696832D01*
X160249562Y-78679562D01*
X160266832Y-78663910D01*
X160285552Y-78650026D01*
X160305543Y-78638044D01*
X160326613Y-78628079D01*
X160348557Y-78620227D01*
X160371166Y-78614563D01*
X160394221Y-78611144D01*
X160417500Y-78610000D01*
X160892500Y-78610000D01*
X160915779Y-78611144D01*
X160915779Y-78611144D01*
G37*
D11*
X160655000Y-79135000D03*
D10*
G36*
X160915779Y-80361144D02*
G01*
X160938834Y-80364563D01*
X160961443Y-80370227D01*
X160983387Y-80378079D01*
X161004457Y-80388044D01*
X161024448Y-80400026D01*
X161043168Y-80413910D01*
X161060438Y-80429562D01*
X161076090Y-80446832D01*
X161089974Y-80465552D01*
X161101956Y-80485543D01*
X161111921Y-80506613D01*
X161119773Y-80528557D01*
X161125437Y-80551166D01*
X161128856Y-80574221D01*
X161130000Y-80597500D01*
X161130000Y-81172500D01*
X161128856Y-81195779D01*
X161125437Y-81218834D01*
X161119773Y-81241443D01*
X161111921Y-81263387D01*
X161101956Y-81284457D01*
X161089974Y-81304448D01*
X161076090Y-81323168D01*
X161060438Y-81340438D01*
X161043168Y-81356090D01*
X161024448Y-81369974D01*
X161004457Y-81381956D01*
X160983387Y-81391921D01*
X160961443Y-81399773D01*
X160938834Y-81405437D01*
X160915779Y-81408856D01*
X160892500Y-81410000D01*
X160417500Y-81410000D01*
X160394221Y-81408856D01*
X160371166Y-81405437D01*
X160348557Y-81399773D01*
X160326613Y-81391921D01*
X160305543Y-81381956D01*
X160285552Y-81369974D01*
X160266832Y-81356090D01*
X160249562Y-81340438D01*
X160233910Y-81323168D01*
X160220026Y-81304448D01*
X160208044Y-81284457D01*
X160198079Y-81263387D01*
X160190227Y-81241443D01*
X160184563Y-81218834D01*
X160181144Y-81195779D01*
X160180000Y-81172500D01*
X160180000Y-80597500D01*
X160181144Y-80574221D01*
X160184563Y-80551166D01*
X160190227Y-80528557D01*
X160198079Y-80506613D01*
X160208044Y-80485543D01*
X160220026Y-80465552D01*
X160233910Y-80446832D01*
X160249562Y-80429562D01*
X160266832Y-80413910D01*
X160285552Y-80400026D01*
X160305543Y-80388044D01*
X160326613Y-80378079D01*
X160348557Y-80370227D01*
X160371166Y-80364563D01*
X160394221Y-80361144D01*
X160417500Y-80360000D01*
X160892500Y-80360000D01*
X160915779Y-80361144D01*
X160915779Y-80361144D01*
G37*
D11*
X160655000Y-80885000D03*
G04 #@! TD*
D10*
G04 #@! TO.C,R7*
G36*
X162820779Y-78611144D02*
G01*
X162843834Y-78614563D01*
X162866443Y-78620227D01*
X162888387Y-78628079D01*
X162909457Y-78638044D01*
X162929448Y-78650026D01*
X162948168Y-78663910D01*
X162965438Y-78679562D01*
X162981090Y-78696832D01*
X162994974Y-78715552D01*
X163006956Y-78735543D01*
X163016921Y-78756613D01*
X163024773Y-78778557D01*
X163030437Y-78801166D01*
X163033856Y-78824221D01*
X163035000Y-78847500D01*
X163035000Y-79422500D01*
X163033856Y-79445779D01*
X163030437Y-79468834D01*
X163024773Y-79491443D01*
X163016921Y-79513387D01*
X163006956Y-79534457D01*
X162994974Y-79554448D01*
X162981090Y-79573168D01*
X162965438Y-79590438D01*
X162948168Y-79606090D01*
X162929448Y-79619974D01*
X162909457Y-79631956D01*
X162888387Y-79641921D01*
X162866443Y-79649773D01*
X162843834Y-79655437D01*
X162820779Y-79658856D01*
X162797500Y-79660000D01*
X162322500Y-79660000D01*
X162299221Y-79658856D01*
X162276166Y-79655437D01*
X162253557Y-79649773D01*
X162231613Y-79641921D01*
X162210543Y-79631956D01*
X162190552Y-79619974D01*
X162171832Y-79606090D01*
X162154562Y-79590438D01*
X162138910Y-79573168D01*
X162125026Y-79554448D01*
X162113044Y-79534457D01*
X162103079Y-79513387D01*
X162095227Y-79491443D01*
X162089563Y-79468834D01*
X162086144Y-79445779D01*
X162085000Y-79422500D01*
X162085000Y-78847500D01*
X162086144Y-78824221D01*
X162089563Y-78801166D01*
X162095227Y-78778557D01*
X162103079Y-78756613D01*
X162113044Y-78735543D01*
X162125026Y-78715552D01*
X162138910Y-78696832D01*
X162154562Y-78679562D01*
X162171832Y-78663910D01*
X162190552Y-78650026D01*
X162210543Y-78638044D01*
X162231613Y-78628079D01*
X162253557Y-78620227D01*
X162276166Y-78614563D01*
X162299221Y-78611144D01*
X162322500Y-78610000D01*
X162797500Y-78610000D01*
X162820779Y-78611144D01*
X162820779Y-78611144D01*
G37*
D11*
X162560000Y-79135000D03*
D10*
G36*
X162820779Y-80361144D02*
G01*
X162843834Y-80364563D01*
X162866443Y-80370227D01*
X162888387Y-80378079D01*
X162909457Y-80388044D01*
X162929448Y-80400026D01*
X162948168Y-80413910D01*
X162965438Y-80429562D01*
X162981090Y-80446832D01*
X162994974Y-80465552D01*
X163006956Y-80485543D01*
X163016921Y-80506613D01*
X163024773Y-80528557D01*
X163030437Y-80551166D01*
X163033856Y-80574221D01*
X163035000Y-80597500D01*
X163035000Y-81172500D01*
X163033856Y-81195779D01*
X163030437Y-81218834D01*
X163024773Y-81241443D01*
X163016921Y-81263387D01*
X163006956Y-81284457D01*
X162994974Y-81304448D01*
X162981090Y-81323168D01*
X162965438Y-81340438D01*
X162948168Y-81356090D01*
X162929448Y-81369974D01*
X162909457Y-81381956D01*
X162888387Y-81391921D01*
X162866443Y-81399773D01*
X162843834Y-81405437D01*
X162820779Y-81408856D01*
X162797500Y-81410000D01*
X162322500Y-81410000D01*
X162299221Y-81408856D01*
X162276166Y-81405437D01*
X162253557Y-81399773D01*
X162231613Y-81391921D01*
X162210543Y-81381956D01*
X162190552Y-81369974D01*
X162171832Y-81356090D01*
X162154562Y-81340438D01*
X162138910Y-81323168D01*
X162125026Y-81304448D01*
X162113044Y-81284457D01*
X162103079Y-81263387D01*
X162095227Y-81241443D01*
X162089563Y-81218834D01*
X162086144Y-81195779D01*
X162085000Y-81172500D01*
X162085000Y-80597500D01*
X162086144Y-80574221D01*
X162089563Y-80551166D01*
X162095227Y-80528557D01*
X162103079Y-80506613D01*
X162113044Y-80485543D01*
X162125026Y-80465552D01*
X162138910Y-80446832D01*
X162154562Y-80429562D01*
X162171832Y-80413910D01*
X162190552Y-80400026D01*
X162210543Y-80388044D01*
X162231613Y-80378079D01*
X162253557Y-80370227D01*
X162276166Y-80364563D01*
X162299221Y-80361144D01*
X162322500Y-80360000D01*
X162797500Y-80360000D01*
X162820779Y-80361144D01*
X162820779Y-80361144D01*
G37*
D11*
X162560000Y-80885000D03*
G04 #@! TD*
D10*
G04 #@! TO.C,R6*
G36*
X148769505Y-62291204D02*
G01*
X148793773Y-62294804D01*
X148817572Y-62300765D01*
X148840671Y-62309030D01*
X148862850Y-62319520D01*
X148883893Y-62332132D01*
X148903599Y-62346747D01*
X148921777Y-62363223D01*
X148938253Y-62381401D01*
X148952868Y-62401107D01*
X148965480Y-62422150D01*
X148975970Y-62444329D01*
X148984235Y-62467428D01*
X148990196Y-62491227D01*
X148993796Y-62515495D01*
X148995000Y-62539999D01*
X148995000Y-63565001D01*
X148993796Y-63589505D01*
X148990196Y-63613773D01*
X148984235Y-63637572D01*
X148975970Y-63660671D01*
X148965480Y-63682850D01*
X148952868Y-63703893D01*
X148938253Y-63723599D01*
X148921777Y-63741777D01*
X148903599Y-63758253D01*
X148883893Y-63772868D01*
X148862850Y-63785480D01*
X148840671Y-63795970D01*
X148817572Y-63804235D01*
X148793773Y-63810196D01*
X148769505Y-63813796D01*
X148745001Y-63815000D01*
X145894999Y-63815000D01*
X145870495Y-63813796D01*
X145846227Y-63810196D01*
X145822428Y-63804235D01*
X145799329Y-63795970D01*
X145777150Y-63785480D01*
X145756107Y-63772868D01*
X145736401Y-63758253D01*
X145718223Y-63741777D01*
X145701747Y-63723599D01*
X145687132Y-63703893D01*
X145674520Y-63682850D01*
X145664030Y-63660671D01*
X145655765Y-63637572D01*
X145649804Y-63613773D01*
X145646204Y-63589505D01*
X145645000Y-63565001D01*
X145645000Y-62539999D01*
X145646204Y-62515495D01*
X145649804Y-62491227D01*
X145655765Y-62467428D01*
X145664030Y-62444329D01*
X145674520Y-62422150D01*
X145687132Y-62401107D01*
X145701747Y-62381401D01*
X145718223Y-62363223D01*
X145736401Y-62346747D01*
X145756107Y-62332132D01*
X145777150Y-62319520D01*
X145799329Y-62309030D01*
X145822428Y-62300765D01*
X145846227Y-62294804D01*
X145870495Y-62291204D01*
X145894999Y-62290000D01*
X148745001Y-62290000D01*
X148769505Y-62291204D01*
X148769505Y-62291204D01*
G37*
D16*
X147320000Y-63052500D03*
D10*
G36*
X148769505Y-68266204D02*
G01*
X148793773Y-68269804D01*
X148817572Y-68275765D01*
X148840671Y-68284030D01*
X148862850Y-68294520D01*
X148883893Y-68307132D01*
X148903599Y-68321747D01*
X148921777Y-68338223D01*
X148938253Y-68356401D01*
X148952868Y-68376107D01*
X148965480Y-68397150D01*
X148975970Y-68419329D01*
X148984235Y-68442428D01*
X148990196Y-68466227D01*
X148993796Y-68490495D01*
X148995000Y-68514999D01*
X148995000Y-69540001D01*
X148993796Y-69564505D01*
X148990196Y-69588773D01*
X148984235Y-69612572D01*
X148975970Y-69635671D01*
X148965480Y-69657850D01*
X148952868Y-69678893D01*
X148938253Y-69698599D01*
X148921777Y-69716777D01*
X148903599Y-69733253D01*
X148883893Y-69747868D01*
X148862850Y-69760480D01*
X148840671Y-69770970D01*
X148817572Y-69779235D01*
X148793773Y-69785196D01*
X148769505Y-69788796D01*
X148745001Y-69790000D01*
X145894999Y-69790000D01*
X145870495Y-69788796D01*
X145846227Y-69785196D01*
X145822428Y-69779235D01*
X145799329Y-69770970D01*
X145777150Y-69760480D01*
X145756107Y-69747868D01*
X145736401Y-69733253D01*
X145718223Y-69716777D01*
X145701747Y-69698599D01*
X145687132Y-69678893D01*
X145674520Y-69657850D01*
X145664030Y-69635671D01*
X145655765Y-69612572D01*
X145649804Y-69588773D01*
X145646204Y-69564505D01*
X145645000Y-69540001D01*
X145645000Y-68514999D01*
X145646204Y-68490495D01*
X145649804Y-68466227D01*
X145655765Y-68442428D01*
X145664030Y-68419329D01*
X145674520Y-68397150D01*
X145687132Y-68376107D01*
X145701747Y-68356401D01*
X145718223Y-68338223D01*
X145736401Y-68321747D01*
X145756107Y-68307132D01*
X145777150Y-68294520D01*
X145799329Y-68284030D01*
X145822428Y-68275765D01*
X145846227Y-68269804D01*
X145870495Y-68266204D01*
X145894999Y-68265000D01*
X148745001Y-68265000D01*
X148769505Y-68266204D01*
X148769505Y-68266204D01*
G37*
D16*
X147320000Y-69027500D03*
G04 #@! TD*
D10*
G04 #@! TO.C,R5*
G36*
X152660779Y-58291144D02*
G01*
X152683834Y-58294563D01*
X152706443Y-58300227D01*
X152728387Y-58308079D01*
X152749457Y-58318044D01*
X152769448Y-58330026D01*
X152788168Y-58343910D01*
X152805438Y-58359562D01*
X152821090Y-58376832D01*
X152834974Y-58395552D01*
X152846956Y-58415543D01*
X152856921Y-58436613D01*
X152864773Y-58458557D01*
X152870437Y-58481166D01*
X152873856Y-58504221D01*
X152875000Y-58527500D01*
X152875000Y-59102500D01*
X152873856Y-59125779D01*
X152870437Y-59148834D01*
X152864773Y-59171443D01*
X152856921Y-59193387D01*
X152846956Y-59214457D01*
X152834974Y-59234448D01*
X152821090Y-59253168D01*
X152805438Y-59270438D01*
X152788168Y-59286090D01*
X152769448Y-59299974D01*
X152749457Y-59311956D01*
X152728387Y-59321921D01*
X152706443Y-59329773D01*
X152683834Y-59335437D01*
X152660779Y-59338856D01*
X152637500Y-59340000D01*
X152162500Y-59340000D01*
X152139221Y-59338856D01*
X152116166Y-59335437D01*
X152093557Y-59329773D01*
X152071613Y-59321921D01*
X152050543Y-59311956D01*
X152030552Y-59299974D01*
X152011832Y-59286090D01*
X151994562Y-59270438D01*
X151978910Y-59253168D01*
X151965026Y-59234448D01*
X151953044Y-59214457D01*
X151943079Y-59193387D01*
X151935227Y-59171443D01*
X151929563Y-59148834D01*
X151926144Y-59125779D01*
X151925000Y-59102500D01*
X151925000Y-58527500D01*
X151926144Y-58504221D01*
X151929563Y-58481166D01*
X151935227Y-58458557D01*
X151943079Y-58436613D01*
X151953044Y-58415543D01*
X151965026Y-58395552D01*
X151978910Y-58376832D01*
X151994562Y-58359562D01*
X152011832Y-58343910D01*
X152030552Y-58330026D01*
X152050543Y-58318044D01*
X152071613Y-58308079D01*
X152093557Y-58300227D01*
X152116166Y-58294563D01*
X152139221Y-58291144D01*
X152162500Y-58290000D01*
X152637500Y-58290000D01*
X152660779Y-58291144D01*
X152660779Y-58291144D01*
G37*
D11*
X152400000Y-58815000D03*
D10*
G36*
X152660779Y-60041144D02*
G01*
X152683834Y-60044563D01*
X152706443Y-60050227D01*
X152728387Y-60058079D01*
X152749457Y-60068044D01*
X152769448Y-60080026D01*
X152788168Y-60093910D01*
X152805438Y-60109562D01*
X152821090Y-60126832D01*
X152834974Y-60145552D01*
X152846956Y-60165543D01*
X152856921Y-60186613D01*
X152864773Y-60208557D01*
X152870437Y-60231166D01*
X152873856Y-60254221D01*
X152875000Y-60277500D01*
X152875000Y-60852500D01*
X152873856Y-60875779D01*
X152870437Y-60898834D01*
X152864773Y-60921443D01*
X152856921Y-60943387D01*
X152846956Y-60964457D01*
X152834974Y-60984448D01*
X152821090Y-61003168D01*
X152805438Y-61020438D01*
X152788168Y-61036090D01*
X152769448Y-61049974D01*
X152749457Y-61061956D01*
X152728387Y-61071921D01*
X152706443Y-61079773D01*
X152683834Y-61085437D01*
X152660779Y-61088856D01*
X152637500Y-61090000D01*
X152162500Y-61090000D01*
X152139221Y-61088856D01*
X152116166Y-61085437D01*
X152093557Y-61079773D01*
X152071613Y-61071921D01*
X152050543Y-61061956D01*
X152030552Y-61049974D01*
X152011832Y-61036090D01*
X151994562Y-61020438D01*
X151978910Y-61003168D01*
X151965026Y-60984448D01*
X151953044Y-60964457D01*
X151943079Y-60943387D01*
X151935227Y-60921443D01*
X151929563Y-60898834D01*
X151926144Y-60875779D01*
X151925000Y-60852500D01*
X151925000Y-60277500D01*
X151926144Y-60254221D01*
X151929563Y-60231166D01*
X151935227Y-60208557D01*
X151943079Y-60186613D01*
X151953044Y-60165543D01*
X151965026Y-60145552D01*
X151978910Y-60126832D01*
X151994562Y-60109562D01*
X152011832Y-60093910D01*
X152030552Y-60080026D01*
X152050543Y-60068044D01*
X152071613Y-60058079D01*
X152093557Y-60050227D01*
X152116166Y-60044563D01*
X152139221Y-60041144D01*
X152162500Y-60040000D01*
X152637500Y-60040000D01*
X152660779Y-60041144D01*
X152660779Y-60041144D01*
G37*
D11*
X152400000Y-60565000D03*
G04 #@! TD*
D10*
G04 #@! TO.C,R4*
G36*
X143689505Y-68266204D02*
G01*
X143713773Y-68269804D01*
X143737572Y-68275765D01*
X143760671Y-68284030D01*
X143782850Y-68294520D01*
X143803893Y-68307132D01*
X143823599Y-68321747D01*
X143841777Y-68338223D01*
X143858253Y-68356401D01*
X143872868Y-68376107D01*
X143885480Y-68397150D01*
X143895970Y-68419329D01*
X143904235Y-68442428D01*
X143910196Y-68466227D01*
X143913796Y-68490495D01*
X143915000Y-68514999D01*
X143915000Y-69540001D01*
X143913796Y-69564505D01*
X143910196Y-69588773D01*
X143904235Y-69612572D01*
X143895970Y-69635671D01*
X143885480Y-69657850D01*
X143872868Y-69678893D01*
X143858253Y-69698599D01*
X143841777Y-69716777D01*
X143823599Y-69733253D01*
X143803893Y-69747868D01*
X143782850Y-69760480D01*
X143760671Y-69770970D01*
X143737572Y-69779235D01*
X143713773Y-69785196D01*
X143689505Y-69788796D01*
X143665001Y-69790000D01*
X140814999Y-69790000D01*
X140790495Y-69788796D01*
X140766227Y-69785196D01*
X140742428Y-69779235D01*
X140719329Y-69770970D01*
X140697150Y-69760480D01*
X140676107Y-69747868D01*
X140656401Y-69733253D01*
X140638223Y-69716777D01*
X140621747Y-69698599D01*
X140607132Y-69678893D01*
X140594520Y-69657850D01*
X140584030Y-69635671D01*
X140575765Y-69612572D01*
X140569804Y-69588773D01*
X140566204Y-69564505D01*
X140565000Y-69540001D01*
X140565000Y-68514999D01*
X140566204Y-68490495D01*
X140569804Y-68466227D01*
X140575765Y-68442428D01*
X140584030Y-68419329D01*
X140594520Y-68397150D01*
X140607132Y-68376107D01*
X140621747Y-68356401D01*
X140638223Y-68338223D01*
X140656401Y-68321747D01*
X140676107Y-68307132D01*
X140697150Y-68294520D01*
X140719329Y-68284030D01*
X140742428Y-68275765D01*
X140766227Y-68269804D01*
X140790495Y-68266204D01*
X140814999Y-68265000D01*
X143665001Y-68265000D01*
X143689505Y-68266204D01*
X143689505Y-68266204D01*
G37*
D16*
X142240000Y-69027500D03*
D10*
G36*
X143689505Y-62291204D02*
G01*
X143713773Y-62294804D01*
X143737572Y-62300765D01*
X143760671Y-62309030D01*
X143782850Y-62319520D01*
X143803893Y-62332132D01*
X143823599Y-62346747D01*
X143841777Y-62363223D01*
X143858253Y-62381401D01*
X143872868Y-62401107D01*
X143885480Y-62422150D01*
X143895970Y-62444329D01*
X143904235Y-62467428D01*
X143910196Y-62491227D01*
X143913796Y-62515495D01*
X143915000Y-62539999D01*
X143915000Y-63565001D01*
X143913796Y-63589505D01*
X143910196Y-63613773D01*
X143904235Y-63637572D01*
X143895970Y-63660671D01*
X143885480Y-63682850D01*
X143872868Y-63703893D01*
X143858253Y-63723599D01*
X143841777Y-63741777D01*
X143823599Y-63758253D01*
X143803893Y-63772868D01*
X143782850Y-63785480D01*
X143760671Y-63795970D01*
X143737572Y-63804235D01*
X143713773Y-63810196D01*
X143689505Y-63813796D01*
X143665001Y-63815000D01*
X140814999Y-63815000D01*
X140790495Y-63813796D01*
X140766227Y-63810196D01*
X140742428Y-63804235D01*
X140719329Y-63795970D01*
X140697150Y-63785480D01*
X140676107Y-63772868D01*
X140656401Y-63758253D01*
X140638223Y-63741777D01*
X140621747Y-63723599D01*
X140607132Y-63703893D01*
X140594520Y-63682850D01*
X140584030Y-63660671D01*
X140575765Y-63637572D01*
X140569804Y-63613773D01*
X140566204Y-63589505D01*
X140565000Y-63565001D01*
X140565000Y-62539999D01*
X140566204Y-62515495D01*
X140569804Y-62491227D01*
X140575765Y-62467428D01*
X140584030Y-62444329D01*
X140594520Y-62422150D01*
X140607132Y-62401107D01*
X140621747Y-62381401D01*
X140638223Y-62363223D01*
X140656401Y-62346747D01*
X140676107Y-62332132D01*
X140697150Y-62319520D01*
X140719329Y-62309030D01*
X140742428Y-62300765D01*
X140766227Y-62294804D01*
X140790495Y-62291204D01*
X140814999Y-62290000D01*
X143665001Y-62290000D01*
X143689505Y-62291204D01*
X143689505Y-62291204D01*
G37*
D16*
X142240000Y-63052500D03*
G04 #@! TD*
D10*
G04 #@! TO.C,R3*
G36*
X159010779Y-60041144D02*
G01*
X159033834Y-60044563D01*
X159056443Y-60050227D01*
X159078387Y-60058079D01*
X159099457Y-60068044D01*
X159119448Y-60080026D01*
X159138168Y-60093910D01*
X159155438Y-60109562D01*
X159171090Y-60126832D01*
X159184974Y-60145552D01*
X159196956Y-60165543D01*
X159206921Y-60186613D01*
X159214773Y-60208557D01*
X159220437Y-60231166D01*
X159223856Y-60254221D01*
X159225000Y-60277500D01*
X159225000Y-60852500D01*
X159223856Y-60875779D01*
X159220437Y-60898834D01*
X159214773Y-60921443D01*
X159206921Y-60943387D01*
X159196956Y-60964457D01*
X159184974Y-60984448D01*
X159171090Y-61003168D01*
X159155438Y-61020438D01*
X159138168Y-61036090D01*
X159119448Y-61049974D01*
X159099457Y-61061956D01*
X159078387Y-61071921D01*
X159056443Y-61079773D01*
X159033834Y-61085437D01*
X159010779Y-61088856D01*
X158987500Y-61090000D01*
X158512500Y-61090000D01*
X158489221Y-61088856D01*
X158466166Y-61085437D01*
X158443557Y-61079773D01*
X158421613Y-61071921D01*
X158400543Y-61061956D01*
X158380552Y-61049974D01*
X158361832Y-61036090D01*
X158344562Y-61020438D01*
X158328910Y-61003168D01*
X158315026Y-60984448D01*
X158303044Y-60964457D01*
X158293079Y-60943387D01*
X158285227Y-60921443D01*
X158279563Y-60898834D01*
X158276144Y-60875779D01*
X158275000Y-60852500D01*
X158275000Y-60277500D01*
X158276144Y-60254221D01*
X158279563Y-60231166D01*
X158285227Y-60208557D01*
X158293079Y-60186613D01*
X158303044Y-60165543D01*
X158315026Y-60145552D01*
X158328910Y-60126832D01*
X158344562Y-60109562D01*
X158361832Y-60093910D01*
X158380552Y-60080026D01*
X158400543Y-60068044D01*
X158421613Y-60058079D01*
X158443557Y-60050227D01*
X158466166Y-60044563D01*
X158489221Y-60041144D01*
X158512500Y-60040000D01*
X158987500Y-60040000D01*
X159010779Y-60041144D01*
X159010779Y-60041144D01*
G37*
D11*
X158750000Y-60565000D03*
D10*
G36*
X159010779Y-58291144D02*
G01*
X159033834Y-58294563D01*
X159056443Y-58300227D01*
X159078387Y-58308079D01*
X159099457Y-58318044D01*
X159119448Y-58330026D01*
X159138168Y-58343910D01*
X159155438Y-58359562D01*
X159171090Y-58376832D01*
X159184974Y-58395552D01*
X159196956Y-58415543D01*
X159206921Y-58436613D01*
X159214773Y-58458557D01*
X159220437Y-58481166D01*
X159223856Y-58504221D01*
X159225000Y-58527500D01*
X159225000Y-59102500D01*
X159223856Y-59125779D01*
X159220437Y-59148834D01*
X159214773Y-59171443D01*
X159206921Y-59193387D01*
X159196956Y-59214457D01*
X159184974Y-59234448D01*
X159171090Y-59253168D01*
X159155438Y-59270438D01*
X159138168Y-59286090D01*
X159119448Y-59299974D01*
X159099457Y-59311956D01*
X159078387Y-59321921D01*
X159056443Y-59329773D01*
X159033834Y-59335437D01*
X159010779Y-59338856D01*
X158987500Y-59340000D01*
X158512500Y-59340000D01*
X158489221Y-59338856D01*
X158466166Y-59335437D01*
X158443557Y-59329773D01*
X158421613Y-59321921D01*
X158400543Y-59311956D01*
X158380552Y-59299974D01*
X158361832Y-59286090D01*
X158344562Y-59270438D01*
X158328910Y-59253168D01*
X158315026Y-59234448D01*
X158303044Y-59214457D01*
X158293079Y-59193387D01*
X158285227Y-59171443D01*
X158279563Y-59148834D01*
X158276144Y-59125779D01*
X158275000Y-59102500D01*
X158275000Y-58527500D01*
X158276144Y-58504221D01*
X158279563Y-58481166D01*
X158285227Y-58458557D01*
X158293079Y-58436613D01*
X158303044Y-58415543D01*
X158315026Y-58395552D01*
X158328910Y-58376832D01*
X158344562Y-58359562D01*
X158361832Y-58343910D01*
X158380552Y-58330026D01*
X158400543Y-58318044D01*
X158421613Y-58308079D01*
X158443557Y-58300227D01*
X158466166Y-58294563D01*
X158489221Y-58291144D01*
X158512500Y-58290000D01*
X158987500Y-58290000D01*
X159010779Y-58291144D01*
X159010779Y-58291144D01*
G37*
D11*
X158750000Y-58815000D03*
G04 #@! TD*
D10*
G04 #@! TO.C,R2*
G36*
X150755779Y-58291144D02*
G01*
X150778834Y-58294563D01*
X150801443Y-58300227D01*
X150823387Y-58308079D01*
X150844457Y-58318044D01*
X150864448Y-58330026D01*
X150883168Y-58343910D01*
X150900438Y-58359562D01*
X150916090Y-58376832D01*
X150929974Y-58395552D01*
X150941956Y-58415543D01*
X150951921Y-58436613D01*
X150959773Y-58458557D01*
X150965437Y-58481166D01*
X150968856Y-58504221D01*
X150970000Y-58527500D01*
X150970000Y-59102500D01*
X150968856Y-59125779D01*
X150965437Y-59148834D01*
X150959773Y-59171443D01*
X150951921Y-59193387D01*
X150941956Y-59214457D01*
X150929974Y-59234448D01*
X150916090Y-59253168D01*
X150900438Y-59270438D01*
X150883168Y-59286090D01*
X150864448Y-59299974D01*
X150844457Y-59311956D01*
X150823387Y-59321921D01*
X150801443Y-59329773D01*
X150778834Y-59335437D01*
X150755779Y-59338856D01*
X150732500Y-59340000D01*
X150257500Y-59340000D01*
X150234221Y-59338856D01*
X150211166Y-59335437D01*
X150188557Y-59329773D01*
X150166613Y-59321921D01*
X150145543Y-59311956D01*
X150125552Y-59299974D01*
X150106832Y-59286090D01*
X150089562Y-59270438D01*
X150073910Y-59253168D01*
X150060026Y-59234448D01*
X150048044Y-59214457D01*
X150038079Y-59193387D01*
X150030227Y-59171443D01*
X150024563Y-59148834D01*
X150021144Y-59125779D01*
X150020000Y-59102500D01*
X150020000Y-58527500D01*
X150021144Y-58504221D01*
X150024563Y-58481166D01*
X150030227Y-58458557D01*
X150038079Y-58436613D01*
X150048044Y-58415543D01*
X150060026Y-58395552D01*
X150073910Y-58376832D01*
X150089562Y-58359562D01*
X150106832Y-58343910D01*
X150125552Y-58330026D01*
X150145543Y-58318044D01*
X150166613Y-58308079D01*
X150188557Y-58300227D01*
X150211166Y-58294563D01*
X150234221Y-58291144D01*
X150257500Y-58290000D01*
X150732500Y-58290000D01*
X150755779Y-58291144D01*
X150755779Y-58291144D01*
G37*
D11*
X150495000Y-58815000D03*
D10*
G36*
X150755779Y-60041144D02*
G01*
X150778834Y-60044563D01*
X150801443Y-60050227D01*
X150823387Y-60058079D01*
X150844457Y-60068044D01*
X150864448Y-60080026D01*
X150883168Y-60093910D01*
X150900438Y-60109562D01*
X150916090Y-60126832D01*
X150929974Y-60145552D01*
X150941956Y-60165543D01*
X150951921Y-60186613D01*
X150959773Y-60208557D01*
X150965437Y-60231166D01*
X150968856Y-60254221D01*
X150970000Y-60277500D01*
X150970000Y-60852500D01*
X150968856Y-60875779D01*
X150965437Y-60898834D01*
X150959773Y-60921443D01*
X150951921Y-60943387D01*
X150941956Y-60964457D01*
X150929974Y-60984448D01*
X150916090Y-61003168D01*
X150900438Y-61020438D01*
X150883168Y-61036090D01*
X150864448Y-61049974D01*
X150844457Y-61061956D01*
X150823387Y-61071921D01*
X150801443Y-61079773D01*
X150778834Y-61085437D01*
X150755779Y-61088856D01*
X150732500Y-61090000D01*
X150257500Y-61090000D01*
X150234221Y-61088856D01*
X150211166Y-61085437D01*
X150188557Y-61079773D01*
X150166613Y-61071921D01*
X150145543Y-61061956D01*
X150125552Y-61049974D01*
X150106832Y-61036090D01*
X150089562Y-61020438D01*
X150073910Y-61003168D01*
X150060026Y-60984448D01*
X150048044Y-60964457D01*
X150038079Y-60943387D01*
X150030227Y-60921443D01*
X150024563Y-60898834D01*
X150021144Y-60875779D01*
X150020000Y-60852500D01*
X150020000Y-60277500D01*
X150021144Y-60254221D01*
X150024563Y-60231166D01*
X150030227Y-60208557D01*
X150038079Y-60186613D01*
X150048044Y-60165543D01*
X150060026Y-60145552D01*
X150073910Y-60126832D01*
X150089562Y-60109562D01*
X150106832Y-60093910D01*
X150125552Y-60080026D01*
X150145543Y-60068044D01*
X150166613Y-60058079D01*
X150188557Y-60050227D01*
X150211166Y-60044563D01*
X150234221Y-60041144D01*
X150257500Y-60040000D01*
X150732500Y-60040000D01*
X150755779Y-60041144D01*
X150755779Y-60041144D01*
G37*
D11*
X150495000Y-60565000D03*
G04 #@! TD*
D10*
G04 #@! TO.C,R1*
G36*
X160915779Y-58291144D02*
G01*
X160938834Y-58294563D01*
X160961443Y-58300227D01*
X160983387Y-58308079D01*
X161004457Y-58318044D01*
X161024448Y-58330026D01*
X161043168Y-58343910D01*
X161060438Y-58359562D01*
X161076090Y-58376832D01*
X161089974Y-58395552D01*
X161101956Y-58415543D01*
X161111921Y-58436613D01*
X161119773Y-58458557D01*
X161125437Y-58481166D01*
X161128856Y-58504221D01*
X161130000Y-58527500D01*
X161130000Y-59102500D01*
X161128856Y-59125779D01*
X161125437Y-59148834D01*
X161119773Y-59171443D01*
X161111921Y-59193387D01*
X161101956Y-59214457D01*
X161089974Y-59234448D01*
X161076090Y-59253168D01*
X161060438Y-59270438D01*
X161043168Y-59286090D01*
X161024448Y-59299974D01*
X161004457Y-59311956D01*
X160983387Y-59321921D01*
X160961443Y-59329773D01*
X160938834Y-59335437D01*
X160915779Y-59338856D01*
X160892500Y-59340000D01*
X160417500Y-59340000D01*
X160394221Y-59338856D01*
X160371166Y-59335437D01*
X160348557Y-59329773D01*
X160326613Y-59321921D01*
X160305543Y-59311956D01*
X160285552Y-59299974D01*
X160266832Y-59286090D01*
X160249562Y-59270438D01*
X160233910Y-59253168D01*
X160220026Y-59234448D01*
X160208044Y-59214457D01*
X160198079Y-59193387D01*
X160190227Y-59171443D01*
X160184563Y-59148834D01*
X160181144Y-59125779D01*
X160180000Y-59102500D01*
X160180000Y-58527500D01*
X160181144Y-58504221D01*
X160184563Y-58481166D01*
X160190227Y-58458557D01*
X160198079Y-58436613D01*
X160208044Y-58415543D01*
X160220026Y-58395552D01*
X160233910Y-58376832D01*
X160249562Y-58359562D01*
X160266832Y-58343910D01*
X160285552Y-58330026D01*
X160305543Y-58318044D01*
X160326613Y-58308079D01*
X160348557Y-58300227D01*
X160371166Y-58294563D01*
X160394221Y-58291144D01*
X160417500Y-58290000D01*
X160892500Y-58290000D01*
X160915779Y-58291144D01*
X160915779Y-58291144D01*
G37*
D11*
X160655000Y-58815000D03*
D10*
G36*
X160915779Y-60041144D02*
G01*
X160938834Y-60044563D01*
X160961443Y-60050227D01*
X160983387Y-60058079D01*
X161004457Y-60068044D01*
X161024448Y-60080026D01*
X161043168Y-60093910D01*
X161060438Y-60109562D01*
X161076090Y-60126832D01*
X161089974Y-60145552D01*
X161101956Y-60165543D01*
X161111921Y-60186613D01*
X161119773Y-60208557D01*
X161125437Y-60231166D01*
X161128856Y-60254221D01*
X161130000Y-60277500D01*
X161130000Y-60852500D01*
X161128856Y-60875779D01*
X161125437Y-60898834D01*
X161119773Y-60921443D01*
X161111921Y-60943387D01*
X161101956Y-60964457D01*
X161089974Y-60984448D01*
X161076090Y-61003168D01*
X161060438Y-61020438D01*
X161043168Y-61036090D01*
X161024448Y-61049974D01*
X161004457Y-61061956D01*
X160983387Y-61071921D01*
X160961443Y-61079773D01*
X160938834Y-61085437D01*
X160915779Y-61088856D01*
X160892500Y-61090000D01*
X160417500Y-61090000D01*
X160394221Y-61088856D01*
X160371166Y-61085437D01*
X160348557Y-61079773D01*
X160326613Y-61071921D01*
X160305543Y-61061956D01*
X160285552Y-61049974D01*
X160266832Y-61036090D01*
X160249562Y-61020438D01*
X160233910Y-61003168D01*
X160220026Y-60984448D01*
X160208044Y-60964457D01*
X160198079Y-60943387D01*
X160190227Y-60921443D01*
X160184563Y-60898834D01*
X160181144Y-60875779D01*
X160180000Y-60852500D01*
X160180000Y-60277500D01*
X160181144Y-60254221D01*
X160184563Y-60231166D01*
X160190227Y-60208557D01*
X160198079Y-60186613D01*
X160208044Y-60165543D01*
X160220026Y-60145552D01*
X160233910Y-60126832D01*
X160249562Y-60109562D01*
X160266832Y-60093910D01*
X160285552Y-60080026D01*
X160305543Y-60068044D01*
X160326613Y-60058079D01*
X160348557Y-60050227D01*
X160371166Y-60044563D01*
X160394221Y-60041144D01*
X160417500Y-60040000D01*
X160892500Y-60040000D01*
X160915779Y-60041144D01*
X160915779Y-60041144D01*
G37*
D11*
X160655000Y-60565000D03*
G04 #@! TD*
D17*
G04 #@! TO.C,Q5*
X146762500Y-104140000D03*
D10*
G36*
X145390000Y-104927500D02*
G01*
X145900000Y-104927500D01*
X145900000Y-104672500D01*
X145390000Y-104672500D01*
X145390000Y-104267500D01*
X145900000Y-104267500D01*
X145900000Y-104012500D01*
X145390000Y-104012500D01*
X145390000Y-103607500D01*
X145900000Y-103607500D01*
X145900000Y-103352500D01*
X145390000Y-103352500D01*
X145390000Y-102945000D01*
X146150000Y-102945000D01*
X146150000Y-103022500D01*
X147625000Y-103022500D01*
X147625000Y-105257500D01*
X146150000Y-105257500D01*
X146150000Y-105335000D01*
X145390000Y-105335000D01*
X145390000Y-104927500D01*
X145390000Y-104927500D01*
G37*
D18*
X148755000Y-103150000D03*
X148755000Y-103810000D03*
X148755000Y-104470000D03*
X148755000Y-105130000D03*
G04 #@! TD*
D19*
G04 #@! TO.C,Q4*
X155845000Y-104140000D03*
X157845000Y-103190000D03*
X157845000Y-105090000D03*
G04 #@! TD*
D20*
G04 #@! TO.C,Q3*
X144355000Y-84835000D03*
X141005000Y-87885000D03*
X144355000Y-87885000D03*
X141005000Y-84835000D03*
D21*
X148980000Y-84080000D03*
X148980000Y-88640000D03*
G04 #@! TD*
D17*
G04 #@! TO.C,Q2*
X145337500Y-59690000D03*
D10*
G36*
X146710000Y-58902500D02*
G01*
X146200000Y-58902500D01*
X146200000Y-59157500D01*
X146710000Y-59157500D01*
X146710000Y-59562500D01*
X146200000Y-59562500D01*
X146200000Y-59817500D01*
X146710000Y-59817500D01*
X146710000Y-60222500D01*
X146200000Y-60222500D01*
X146200000Y-60477500D01*
X146710000Y-60477500D01*
X146710000Y-60885000D01*
X145950000Y-60885000D01*
X145950000Y-60807500D01*
X144475000Y-60807500D01*
X144475000Y-58572500D01*
X145950000Y-58572500D01*
X145950000Y-58495000D01*
X146710000Y-58495000D01*
X146710000Y-58902500D01*
X146710000Y-58902500D01*
G37*
D18*
X143345000Y-60680000D03*
X143345000Y-60020000D03*
X143345000Y-59360000D03*
X143345000Y-58700000D03*
G04 #@! TD*
D22*
G04 #@! TO.C,Q1*
X155575000Y-60690000D03*
X154625000Y-58690000D03*
X156525000Y-58690000D03*
G04 #@! TD*
D23*
G04 #@! TO.C,D3*
X152400000Y-102890000D03*
X152400000Y-105390000D03*
G04 #@! TD*
D24*
G04 #@! TO.C,D2*
X140970000Y-94020000D03*
X140970000Y-99020000D03*
G04 #@! TD*
D23*
G04 #@! TO.C,D1*
X148590000Y-60940000D03*
X148590000Y-58440000D03*
G04 #@! TD*
D10*
G04 #@! TO.C,C10*
G36*
X161840779Y-96681144D02*
G01*
X161863834Y-96684563D01*
X161886443Y-96690227D01*
X161908387Y-96698079D01*
X161929457Y-96708044D01*
X161949448Y-96720026D01*
X161968168Y-96733910D01*
X161985438Y-96749562D01*
X162001090Y-96766832D01*
X162014974Y-96785552D01*
X162026956Y-96805543D01*
X162036921Y-96826613D01*
X162044773Y-96848557D01*
X162050437Y-96871166D01*
X162053856Y-96894221D01*
X162055000Y-96917500D01*
X162055000Y-97392500D01*
X162053856Y-97415779D01*
X162050437Y-97438834D01*
X162044773Y-97461443D01*
X162036921Y-97483387D01*
X162026956Y-97504457D01*
X162014974Y-97524448D01*
X162001090Y-97543168D01*
X161985438Y-97560438D01*
X161968168Y-97576090D01*
X161949448Y-97589974D01*
X161929457Y-97601956D01*
X161908387Y-97611921D01*
X161886443Y-97619773D01*
X161863834Y-97625437D01*
X161840779Y-97628856D01*
X161817500Y-97630000D01*
X161242500Y-97630000D01*
X161219221Y-97628856D01*
X161196166Y-97625437D01*
X161173557Y-97619773D01*
X161151613Y-97611921D01*
X161130543Y-97601956D01*
X161110552Y-97589974D01*
X161091832Y-97576090D01*
X161074562Y-97560438D01*
X161058910Y-97543168D01*
X161045026Y-97524448D01*
X161033044Y-97504457D01*
X161023079Y-97483387D01*
X161015227Y-97461443D01*
X161009563Y-97438834D01*
X161006144Y-97415779D01*
X161005000Y-97392500D01*
X161005000Y-96917500D01*
X161006144Y-96894221D01*
X161009563Y-96871166D01*
X161015227Y-96848557D01*
X161023079Y-96826613D01*
X161033044Y-96805543D01*
X161045026Y-96785552D01*
X161058910Y-96766832D01*
X161074562Y-96749562D01*
X161091832Y-96733910D01*
X161110552Y-96720026D01*
X161130543Y-96708044D01*
X161151613Y-96698079D01*
X161173557Y-96690227D01*
X161196166Y-96684563D01*
X161219221Y-96681144D01*
X161242500Y-96680000D01*
X161817500Y-96680000D01*
X161840779Y-96681144D01*
X161840779Y-96681144D01*
G37*
D11*
X161530000Y-97155000D03*
D10*
G36*
X160090779Y-96681144D02*
G01*
X160113834Y-96684563D01*
X160136443Y-96690227D01*
X160158387Y-96698079D01*
X160179457Y-96708044D01*
X160199448Y-96720026D01*
X160218168Y-96733910D01*
X160235438Y-96749562D01*
X160251090Y-96766832D01*
X160264974Y-96785552D01*
X160276956Y-96805543D01*
X160286921Y-96826613D01*
X160294773Y-96848557D01*
X160300437Y-96871166D01*
X160303856Y-96894221D01*
X160305000Y-96917500D01*
X160305000Y-97392500D01*
X160303856Y-97415779D01*
X160300437Y-97438834D01*
X160294773Y-97461443D01*
X160286921Y-97483387D01*
X160276956Y-97504457D01*
X160264974Y-97524448D01*
X160251090Y-97543168D01*
X160235438Y-97560438D01*
X160218168Y-97576090D01*
X160199448Y-97589974D01*
X160179457Y-97601956D01*
X160158387Y-97611921D01*
X160136443Y-97619773D01*
X160113834Y-97625437D01*
X160090779Y-97628856D01*
X160067500Y-97630000D01*
X159492500Y-97630000D01*
X159469221Y-97628856D01*
X159446166Y-97625437D01*
X159423557Y-97619773D01*
X159401613Y-97611921D01*
X159380543Y-97601956D01*
X159360552Y-97589974D01*
X159341832Y-97576090D01*
X159324562Y-97560438D01*
X159308910Y-97543168D01*
X159295026Y-97524448D01*
X159283044Y-97504457D01*
X159273079Y-97483387D01*
X159265227Y-97461443D01*
X159259563Y-97438834D01*
X159256144Y-97415779D01*
X159255000Y-97392500D01*
X159255000Y-96917500D01*
X159256144Y-96894221D01*
X159259563Y-96871166D01*
X159265227Y-96848557D01*
X159273079Y-96826613D01*
X159283044Y-96805543D01*
X159295026Y-96785552D01*
X159308910Y-96766832D01*
X159324562Y-96749562D01*
X159341832Y-96733910D01*
X159360552Y-96720026D01*
X159380543Y-96708044D01*
X159401613Y-96698079D01*
X159423557Y-96690227D01*
X159446166Y-96684563D01*
X159469221Y-96681144D01*
X159492500Y-96680000D01*
X160067500Y-96680000D01*
X160090779Y-96681144D01*
X160090779Y-96681144D01*
G37*
D11*
X159780000Y-97155000D03*
G04 #@! TD*
D10*
G04 #@! TO.C,C9*
G36*
X143770779Y-104491144D02*
G01*
X143793834Y-104494563D01*
X143816443Y-104500227D01*
X143838387Y-104508079D01*
X143859457Y-104518044D01*
X143879448Y-104530026D01*
X143898168Y-104543910D01*
X143915438Y-104559562D01*
X143931090Y-104576832D01*
X143944974Y-104595552D01*
X143956956Y-104615543D01*
X143966921Y-104636613D01*
X143974773Y-104658557D01*
X143980437Y-104681166D01*
X143983856Y-104704221D01*
X143985000Y-104727500D01*
X143985000Y-105302500D01*
X143983856Y-105325779D01*
X143980437Y-105348834D01*
X143974773Y-105371443D01*
X143966921Y-105393387D01*
X143956956Y-105414457D01*
X143944974Y-105434448D01*
X143931090Y-105453168D01*
X143915438Y-105470438D01*
X143898168Y-105486090D01*
X143879448Y-105499974D01*
X143859457Y-105511956D01*
X143838387Y-105521921D01*
X143816443Y-105529773D01*
X143793834Y-105535437D01*
X143770779Y-105538856D01*
X143747500Y-105540000D01*
X143272500Y-105540000D01*
X143249221Y-105538856D01*
X143226166Y-105535437D01*
X143203557Y-105529773D01*
X143181613Y-105521921D01*
X143160543Y-105511956D01*
X143140552Y-105499974D01*
X143121832Y-105486090D01*
X143104562Y-105470438D01*
X143088910Y-105453168D01*
X143075026Y-105434448D01*
X143063044Y-105414457D01*
X143053079Y-105393387D01*
X143045227Y-105371443D01*
X143039563Y-105348834D01*
X143036144Y-105325779D01*
X143035000Y-105302500D01*
X143035000Y-104727500D01*
X143036144Y-104704221D01*
X143039563Y-104681166D01*
X143045227Y-104658557D01*
X143053079Y-104636613D01*
X143063044Y-104615543D01*
X143075026Y-104595552D01*
X143088910Y-104576832D01*
X143104562Y-104559562D01*
X143121832Y-104543910D01*
X143140552Y-104530026D01*
X143160543Y-104518044D01*
X143181613Y-104508079D01*
X143203557Y-104500227D01*
X143226166Y-104494563D01*
X143249221Y-104491144D01*
X143272500Y-104490000D01*
X143747500Y-104490000D01*
X143770779Y-104491144D01*
X143770779Y-104491144D01*
G37*
D11*
X143510000Y-105015000D03*
D10*
G36*
X143770779Y-102741144D02*
G01*
X143793834Y-102744563D01*
X143816443Y-102750227D01*
X143838387Y-102758079D01*
X143859457Y-102768044D01*
X143879448Y-102780026D01*
X143898168Y-102793910D01*
X143915438Y-102809562D01*
X143931090Y-102826832D01*
X143944974Y-102845552D01*
X143956956Y-102865543D01*
X143966921Y-102886613D01*
X143974773Y-102908557D01*
X143980437Y-102931166D01*
X143983856Y-102954221D01*
X143985000Y-102977500D01*
X143985000Y-103552500D01*
X143983856Y-103575779D01*
X143980437Y-103598834D01*
X143974773Y-103621443D01*
X143966921Y-103643387D01*
X143956956Y-103664457D01*
X143944974Y-103684448D01*
X143931090Y-103703168D01*
X143915438Y-103720438D01*
X143898168Y-103736090D01*
X143879448Y-103749974D01*
X143859457Y-103761956D01*
X143838387Y-103771921D01*
X143816443Y-103779773D01*
X143793834Y-103785437D01*
X143770779Y-103788856D01*
X143747500Y-103790000D01*
X143272500Y-103790000D01*
X143249221Y-103788856D01*
X143226166Y-103785437D01*
X143203557Y-103779773D01*
X143181613Y-103771921D01*
X143160543Y-103761956D01*
X143140552Y-103749974D01*
X143121832Y-103736090D01*
X143104562Y-103720438D01*
X143088910Y-103703168D01*
X143075026Y-103684448D01*
X143063044Y-103664457D01*
X143053079Y-103643387D01*
X143045227Y-103621443D01*
X143039563Y-103598834D01*
X143036144Y-103575779D01*
X143035000Y-103552500D01*
X143035000Y-102977500D01*
X143036144Y-102954221D01*
X143039563Y-102931166D01*
X143045227Y-102908557D01*
X143053079Y-102886613D01*
X143063044Y-102865543D01*
X143075026Y-102845552D01*
X143088910Y-102826832D01*
X143104562Y-102809562D01*
X143121832Y-102793910D01*
X143140552Y-102780026D01*
X143160543Y-102768044D01*
X143181613Y-102758079D01*
X143203557Y-102750227D01*
X143226166Y-102744563D01*
X143249221Y-102741144D01*
X143272500Y-102740000D01*
X143747500Y-102740000D01*
X143770779Y-102741144D01*
X143770779Y-102741144D01*
G37*
D11*
X143510000Y-103265000D03*
G04 #@! TD*
D10*
G04 #@! TO.C,C8*
G36*
X141444505Y-104591204D02*
G01*
X141468773Y-104594804D01*
X141492572Y-104600765D01*
X141515671Y-104609030D01*
X141537850Y-104619520D01*
X141558893Y-104632132D01*
X141578599Y-104646747D01*
X141596777Y-104663223D01*
X141613253Y-104681401D01*
X141627868Y-104701107D01*
X141640480Y-104722150D01*
X141650970Y-104744329D01*
X141659235Y-104767428D01*
X141665196Y-104791227D01*
X141668796Y-104815495D01*
X141670000Y-104839999D01*
X141670000Y-105490001D01*
X141668796Y-105514505D01*
X141665196Y-105538773D01*
X141659235Y-105562572D01*
X141650970Y-105585671D01*
X141640480Y-105607850D01*
X141627868Y-105628893D01*
X141613253Y-105648599D01*
X141596777Y-105666777D01*
X141578599Y-105683253D01*
X141558893Y-105697868D01*
X141537850Y-105710480D01*
X141515671Y-105720970D01*
X141492572Y-105729235D01*
X141468773Y-105735196D01*
X141444505Y-105738796D01*
X141420001Y-105740000D01*
X140519999Y-105740000D01*
X140495495Y-105738796D01*
X140471227Y-105735196D01*
X140447428Y-105729235D01*
X140424329Y-105720970D01*
X140402150Y-105710480D01*
X140381107Y-105697868D01*
X140361401Y-105683253D01*
X140343223Y-105666777D01*
X140326747Y-105648599D01*
X140312132Y-105628893D01*
X140299520Y-105607850D01*
X140289030Y-105585671D01*
X140280765Y-105562572D01*
X140274804Y-105538773D01*
X140271204Y-105514505D01*
X140270000Y-105490001D01*
X140270000Y-104839999D01*
X140271204Y-104815495D01*
X140274804Y-104791227D01*
X140280765Y-104767428D01*
X140289030Y-104744329D01*
X140299520Y-104722150D01*
X140312132Y-104701107D01*
X140326747Y-104681401D01*
X140343223Y-104663223D01*
X140361401Y-104646747D01*
X140381107Y-104632132D01*
X140402150Y-104619520D01*
X140424329Y-104609030D01*
X140447428Y-104600765D01*
X140471227Y-104594804D01*
X140495495Y-104591204D01*
X140519999Y-104590000D01*
X141420001Y-104590000D01*
X141444505Y-104591204D01*
X141444505Y-104591204D01*
G37*
D25*
X140970000Y-105165000D03*
D10*
G36*
X141444505Y-102541204D02*
G01*
X141468773Y-102544804D01*
X141492572Y-102550765D01*
X141515671Y-102559030D01*
X141537850Y-102569520D01*
X141558893Y-102582132D01*
X141578599Y-102596747D01*
X141596777Y-102613223D01*
X141613253Y-102631401D01*
X141627868Y-102651107D01*
X141640480Y-102672150D01*
X141650970Y-102694329D01*
X141659235Y-102717428D01*
X141665196Y-102741227D01*
X141668796Y-102765495D01*
X141670000Y-102789999D01*
X141670000Y-103440001D01*
X141668796Y-103464505D01*
X141665196Y-103488773D01*
X141659235Y-103512572D01*
X141650970Y-103535671D01*
X141640480Y-103557850D01*
X141627868Y-103578893D01*
X141613253Y-103598599D01*
X141596777Y-103616777D01*
X141578599Y-103633253D01*
X141558893Y-103647868D01*
X141537850Y-103660480D01*
X141515671Y-103670970D01*
X141492572Y-103679235D01*
X141468773Y-103685196D01*
X141444505Y-103688796D01*
X141420001Y-103690000D01*
X140519999Y-103690000D01*
X140495495Y-103688796D01*
X140471227Y-103685196D01*
X140447428Y-103679235D01*
X140424329Y-103670970D01*
X140402150Y-103660480D01*
X140381107Y-103647868D01*
X140361401Y-103633253D01*
X140343223Y-103616777D01*
X140326747Y-103598599D01*
X140312132Y-103578893D01*
X140299520Y-103557850D01*
X140289030Y-103535671D01*
X140280765Y-103512572D01*
X140274804Y-103488773D01*
X140271204Y-103464505D01*
X140270000Y-103440001D01*
X140270000Y-102789999D01*
X140271204Y-102765495D01*
X140274804Y-102741227D01*
X140280765Y-102717428D01*
X140289030Y-102694329D01*
X140299520Y-102672150D01*
X140312132Y-102651107D01*
X140326747Y-102631401D01*
X140343223Y-102613223D01*
X140361401Y-102596747D01*
X140381107Y-102582132D01*
X140402150Y-102569520D01*
X140424329Y-102559030D01*
X140447428Y-102550765D01*
X140471227Y-102544804D01*
X140495495Y-102541204D01*
X140519999Y-102540000D01*
X141420001Y-102540000D01*
X141444505Y-102541204D01*
X141444505Y-102541204D01*
G37*
D25*
X140970000Y-103115000D03*
G04 #@! TD*
D10*
G04 #@! TO.C,C6*
G36*
X162029505Y-90741204D02*
G01*
X162053773Y-90744804D01*
X162077572Y-90750765D01*
X162100671Y-90759030D01*
X162122850Y-90769520D01*
X162143893Y-90782132D01*
X162163599Y-90796747D01*
X162181777Y-90813223D01*
X162198253Y-90831401D01*
X162212868Y-90851107D01*
X162225480Y-90872150D01*
X162235970Y-90894329D01*
X162244235Y-90917428D01*
X162250196Y-90941227D01*
X162253796Y-90965495D01*
X162255000Y-90989999D01*
X162255000Y-91890001D01*
X162253796Y-91914505D01*
X162250196Y-91938773D01*
X162244235Y-91962572D01*
X162235970Y-91985671D01*
X162225480Y-92007850D01*
X162212868Y-92028893D01*
X162198253Y-92048599D01*
X162181777Y-92066777D01*
X162163599Y-92083253D01*
X162143893Y-92097868D01*
X162122850Y-92110480D01*
X162100671Y-92120970D01*
X162077572Y-92129235D01*
X162053773Y-92135196D01*
X162029505Y-92138796D01*
X162005001Y-92140000D01*
X161354999Y-92140000D01*
X161330495Y-92138796D01*
X161306227Y-92135196D01*
X161282428Y-92129235D01*
X161259329Y-92120970D01*
X161237150Y-92110480D01*
X161216107Y-92097868D01*
X161196401Y-92083253D01*
X161178223Y-92066777D01*
X161161747Y-92048599D01*
X161147132Y-92028893D01*
X161134520Y-92007850D01*
X161124030Y-91985671D01*
X161115765Y-91962572D01*
X161109804Y-91938773D01*
X161106204Y-91914505D01*
X161105000Y-91890001D01*
X161105000Y-90989999D01*
X161106204Y-90965495D01*
X161109804Y-90941227D01*
X161115765Y-90917428D01*
X161124030Y-90894329D01*
X161134520Y-90872150D01*
X161147132Y-90851107D01*
X161161747Y-90831401D01*
X161178223Y-90813223D01*
X161196401Y-90796747D01*
X161216107Y-90782132D01*
X161237150Y-90769520D01*
X161259329Y-90759030D01*
X161282428Y-90750765D01*
X161306227Y-90744804D01*
X161330495Y-90741204D01*
X161354999Y-90740000D01*
X162005001Y-90740000D01*
X162029505Y-90741204D01*
X162029505Y-90741204D01*
G37*
D25*
X161680000Y-91440000D03*
D10*
G36*
X159979505Y-90741204D02*
G01*
X160003773Y-90744804D01*
X160027572Y-90750765D01*
X160050671Y-90759030D01*
X160072850Y-90769520D01*
X160093893Y-90782132D01*
X160113599Y-90796747D01*
X160131777Y-90813223D01*
X160148253Y-90831401D01*
X160162868Y-90851107D01*
X160175480Y-90872150D01*
X160185970Y-90894329D01*
X160194235Y-90917428D01*
X160200196Y-90941227D01*
X160203796Y-90965495D01*
X160205000Y-90989999D01*
X160205000Y-91890001D01*
X160203796Y-91914505D01*
X160200196Y-91938773D01*
X160194235Y-91962572D01*
X160185970Y-91985671D01*
X160175480Y-92007850D01*
X160162868Y-92028893D01*
X160148253Y-92048599D01*
X160131777Y-92066777D01*
X160113599Y-92083253D01*
X160093893Y-92097868D01*
X160072850Y-92110480D01*
X160050671Y-92120970D01*
X160027572Y-92129235D01*
X160003773Y-92135196D01*
X159979505Y-92138796D01*
X159955001Y-92140000D01*
X159304999Y-92140000D01*
X159280495Y-92138796D01*
X159256227Y-92135196D01*
X159232428Y-92129235D01*
X159209329Y-92120970D01*
X159187150Y-92110480D01*
X159166107Y-92097868D01*
X159146401Y-92083253D01*
X159128223Y-92066777D01*
X159111747Y-92048599D01*
X159097132Y-92028893D01*
X159084520Y-92007850D01*
X159074030Y-91985671D01*
X159065765Y-91962572D01*
X159059804Y-91938773D01*
X159056204Y-91914505D01*
X159055000Y-91890001D01*
X159055000Y-90989999D01*
X159056204Y-90965495D01*
X159059804Y-90941227D01*
X159065765Y-90917428D01*
X159074030Y-90894329D01*
X159084520Y-90872150D01*
X159097132Y-90851107D01*
X159111747Y-90831401D01*
X159128223Y-90813223D01*
X159146401Y-90796747D01*
X159166107Y-90782132D01*
X159187150Y-90769520D01*
X159209329Y-90759030D01*
X159232428Y-90750765D01*
X159256227Y-90744804D01*
X159280495Y-90741204D01*
X159304999Y-90740000D01*
X159955001Y-90740000D01*
X159979505Y-90741204D01*
X159979505Y-90741204D01*
G37*
D25*
X159630000Y-91440000D03*
G04 #@! TD*
D10*
G04 #@! TO.C,C5*
G36*
X160494505Y-76651204D02*
G01*
X160518773Y-76654804D01*
X160542572Y-76660765D01*
X160565671Y-76669030D01*
X160587850Y-76679520D01*
X160608893Y-76692132D01*
X160628599Y-76706747D01*
X160646777Y-76723223D01*
X160663253Y-76741401D01*
X160677868Y-76761107D01*
X160690480Y-76782150D01*
X160700970Y-76804329D01*
X160709235Y-76827428D01*
X160715196Y-76851227D01*
X160718796Y-76875495D01*
X160720000Y-76899999D01*
X160720000Y-77550001D01*
X160718796Y-77574505D01*
X160715196Y-77598773D01*
X160709235Y-77622572D01*
X160700970Y-77645671D01*
X160690480Y-77667850D01*
X160677868Y-77688893D01*
X160663253Y-77708599D01*
X160646777Y-77726777D01*
X160628599Y-77743253D01*
X160608893Y-77757868D01*
X160587850Y-77770480D01*
X160565671Y-77780970D01*
X160542572Y-77789235D01*
X160518773Y-77795196D01*
X160494505Y-77798796D01*
X160470001Y-77800000D01*
X159569999Y-77800000D01*
X159545495Y-77798796D01*
X159521227Y-77795196D01*
X159497428Y-77789235D01*
X159474329Y-77780970D01*
X159452150Y-77770480D01*
X159431107Y-77757868D01*
X159411401Y-77743253D01*
X159393223Y-77726777D01*
X159376747Y-77708599D01*
X159362132Y-77688893D01*
X159349520Y-77667850D01*
X159339030Y-77645671D01*
X159330765Y-77622572D01*
X159324804Y-77598773D01*
X159321204Y-77574505D01*
X159320000Y-77550001D01*
X159320000Y-76899999D01*
X159321204Y-76875495D01*
X159324804Y-76851227D01*
X159330765Y-76827428D01*
X159339030Y-76804329D01*
X159349520Y-76782150D01*
X159362132Y-76761107D01*
X159376747Y-76741401D01*
X159393223Y-76723223D01*
X159411401Y-76706747D01*
X159431107Y-76692132D01*
X159452150Y-76679520D01*
X159474329Y-76669030D01*
X159497428Y-76660765D01*
X159521227Y-76654804D01*
X159545495Y-76651204D01*
X159569999Y-76650000D01*
X160470001Y-76650000D01*
X160494505Y-76651204D01*
X160494505Y-76651204D01*
G37*
D25*
X160020000Y-77225000D03*
D10*
G36*
X160494505Y-74601204D02*
G01*
X160518773Y-74604804D01*
X160542572Y-74610765D01*
X160565671Y-74619030D01*
X160587850Y-74629520D01*
X160608893Y-74642132D01*
X160628599Y-74656747D01*
X160646777Y-74673223D01*
X160663253Y-74691401D01*
X160677868Y-74711107D01*
X160690480Y-74732150D01*
X160700970Y-74754329D01*
X160709235Y-74777428D01*
X160715196Y-74801227D01*
X160718796Y-74825495D01*
X160720000Y-74849999D01*
X160720000Y-75500001D01*
X160718796Y-75524505D01*
X160715196Y-75548773D01*
X160709235Y-75572572D01*
X160700970Y-75595671D01*
X160690480Y-75617850D01*
X160677868Y-75638893D01*
X160663253Y-75658599D01*
X160646777Y-75676777D01*
X160628599Y-75693253D01*
X160608893Y-75707868D01*
X160587850Y-75720480D01*
X160565671Y-75730970D01*
X160542572Y-75739235D01*
X160518773Y-75745196D01*
X160494505Y-75748796D01*
X160470001Y-75750000D01*
X159569999Y-75750000D01*
X159545495Y-75748796D01*
X159521227Y-75745196D01*
X159497428Y-75739235D01*
X159474329Y-75730970D01*
X159452150Y-75720480D01*
X159431107Y-75707868D01*
X159411401Y-75693253D01*
X159393223Y-75676777D01*
X159376747Y-75658599D01*
X159362132Y-75638893D01*
X159349520Y-75617850D01*
X159339030Y-75595671D01*
X159330765Y-75572572D01*
X159324804Y-75548773D01*
X159321204Y-75524505D01*
X159320000Y-75500001D01*
X159320000Y-74849999D01*
X159321204Y-74825495D01*
X159324804Y-74801227D01*
X159330765Y-74777428D01*
X159339030Y-74754329D01*
X159349520Y-74732150D01*
X159362132Y-74711107D01*
X159376747Y-74691401D01*
X159393223Y-74673223D01*
X159411401Y-74656747D01*
X159431107Y-74642132D01*
X159452150Y-74629520D01*
X159474329Y-74619030D01*
X159497428Y-74610765D01*
X159521227Y-74604804D01*
X159545495Y-74601204D01*
X159569999Y-74600000D01*
X160470001Y-74600000D01*
X160494505Y-74601204D01*
X160494505Y-74601204D01*
G37*
D25*
X160020000Y-75175000D03*
G04 #@! TD*
D10*
G04 #@! TO.C,C4*
G36*
X161840779Y-92871144D02*
G01*
X161863834Y-92874563D01*
X161886443Y-92880227D01*
X161908387Y-92888079D01*
X161929457Y-92898044D01*
X161949448Y-92910026D01*
X161968168Y-92923910D01*
X161985438Y-92939562D01*
X162001090Y-92956832D01*
X162014974Y-92975552D01*
X162026956Y-92995543D01*
X162036921Y-93016613D01*
X162044773Y-93038557D01*
X162050437Y-93061166D01*
X162053856Y-93084221D01*
X162055000Y-93107500D01*
X162055000Y-93582500D01*
X162053856Y-93605779D01*
X162050437Y-93628834D01*
X162044773Y-93651443D01*
X162036921Y-93673387D01*
X162026956Y-93694457D01*
X162014974Y-93714448D01*
X162001090Y-93733168D01*
X161985438Y-93750438D01*
X161968168Y-93766090D01*
X161949448Y-93779974D01*
X161929457Y-93791956D01*
X161908387Y-93801921D01*
X161886443Y-93809773D01*
X161863834Y-93815437D01*
X161840779Y-93818856D01*
X161817500Y-93820000D01*
X161242500Y-93820000D01*
X161219221Y-93818856D01*
X161196166Y-93815437D01*
X161173557Y-93809773D01*
X161151613Y-93801921D01*
X161130543Y-93791956D01*
X161110552Y-93779974D01*
X161091832Y-93766090D01*
X161074562Y-93750438D01*
X161058910Y-93733168D01*
X161045026Y-93714448D01*
X161033044Y-93694457D01*
X161023079Y-93673387D01*
X161015227Y-93651443D01*
X161009563Y-93628834D01*
X161006144Y-93605779D01*
X161005000Y-93582500D01*
X161005000Y-93107500D01*
X161006144Y-93084221D01*
X161009563Y-93061166D01*
X161015227Y-93038557D01*
X161023079Y-93016613D01*
X161033044Y-92995543D01*
X161045026Y-92975552D01*
X161058910Y-92956832D01*
X161074562Y-92939562D01*
X161091832Y-92923910D01*
X161110552Y-92910026D01*
X161130543Y-92898044D01*
X161151613Y-92888079D01*
X161173557Y-92880227D01*
X161196166Y-92874563D01*
X161219221Y-92871144D01*
X161242500Y-92870000D01*
X161817500Y-92870000D01*
X161840779Y-92871144D01*
X161840779Y-92871144D01*
G37*
D11*
X161530000Y-93345000D03*
D10*
G36*
X160090779Y-92871144D02*
G01*
X160113834Y-92874563D01*
X160136443Y-92880227D01*
X160158387Y-92888079D01*
X160179457Y-92898044D01*
X160199448Y-92910026D01*
X160218168Y-92923910D01*
X160235438Y-92939562D01*
X160251090Y-92956832D01*
X160264974Y-92975552D01*
X160276956Y-92995543D01*
X160286921Y-93016613D01*
X160294773Y-93038557D01*
X160300437Y-93061166D01*
X160303856Y-93084221D01*
X160305000Y-93107500D01*
X160305000Y-93582500D01*
X160303856Y-93605779D01*
X160300437Y-93628834D01*
X160294773Y-93651443D01*
X160286921Y-93673387D01*
X160276956Y-93694457D01*
X160264974Y-93714448D01*
X160251090Y-93733168D01*
X160235438Y-93750438D01*
X160218168Y-93766090D01*
X160199448Y-93779974D01*
X160179457Y-93791956D01*
X160158387Y-93801921D01*
X160136443Y-93809773D01*
X160113834Y-93815437D01*
X160090779Y-93818856D01*
X160067500Y-93820000D01*
X159492500Y-93820000D01*
X159469221Y-93818856D01*
X159446166Y-93815437D01*
X159423557Y-93809773D01*
X159401613Y-93801921D01*
X159380543Y-93791956D01*
X159360552Y-93779974D01*
X159341832Y-93766090D01*
X159324562Y-93750438D01*
X159308910Y-93733168D01*
X159295026Y-93714448D01*
X159283044Y-93694457D01*
X159273079Y-93673387D01*
X159265227Y-93651443D01*
X159259563Y-93628834D01*
X159256144Y-93605779D01*
X159255000Y-93582500D01*
X159255000Y-93107500D01*
X159256144Y-93084221D01*
X159259563Y-93061166D01*
X159265227Y-93038557D01*
X159273079Y-93016613D01*
X159283044Y-92995543D01*
X159295026Y-92975552D01*
X159308910Y-92956832D01*
X159324562Y-92939562D01*
X159341832Y-92923910D01*
X159360552Y-92910026D01*
X159380543Y-92898044D01*
X159401613Y-92888079D01*
X159423557Y-92880227D01*
X159446166Y-92874563D01*
X159469221Y-92871144D01*
X159492500Y-92870000D01*
X160067500Y-92870000D01*
X160090779Y-92871144D01*
X160090779Y-92871144D01*
G37*
D11*
X159780000Y-93345000D03*
G04 #@! TD*
D10*
G04 #@! TO.C,C3*
G36*
X158129504Y-76976204D02*
G01*
X158153773Y-76979804D01*
X158177571Y-76985765D01*
X158200671Y-76994030D01*
X158222849Y-77004520D01*
X158243893Y-77017133D01*
X158263598Y-77031747D01*
X158281777Y-77048223D01*
X158298253Y-77066402D01*
X158312867Y-77086107D01*
X158325480Y-77107151D01*
X158335970Y-77129329D01*
X158344235Y-77152429D01*
X158350196Y-77176227D01*
X158353796Y-77200496D01*
X158355000Y-77225000D01*
X158355000Y-78150000D01*
X158353796Y-78174504D01*
X158350196Y-78198773D01*
X158344235Y-78222571D01*
X158335970Y-78245671D01*
X158325480Y-78267849D01*
X158312867Y-78288893D01*
X158298253Y-78308598D01*
X158281777Y-78326777D01*
X158263598Y-78343253D01*
X158243893Y-78357867D01*
X158222849Y-78370480D01*
X158200671Y-78380970D01*
X158177571Y-78389235D01*
X158153773Y-78395196D01*
X158129504Y-78398796D01*
X158105000Y-78400000D01*
X156855000Y-78400000D01*
X156830496Y-78398796D01*
X156806227Y-78395196D01*
X156782429Y-78389235D01*
X156759329Y-78380970D01*
X156737151Y-78370480D01*
X156716107Y-78357867D01*
X156696402Y-78343253D01*
X156678223Y-78326777D01*
X156661747Y-78308598D01*
X156647133Y-78288893D01*
X156634520Y-78267849D01*
X156624030Y-78245671D01*
X156615765Y-78222571D01*
X156609804Y-78198773D01*
X156606204Y-78174504D01*
X156605000Y-78150000D01*
X156605000Y-77225000D01*
X156606204Y-77200496D01*
X156609804Y-77176227D01*
X156615765Y-77152429D01*
X156624030Y-77129329D01*
X156634520Y-77107151D01*
X156647133Y-77086107D01*
X156661747Y-77066402D01*
X156678223Y-77048223D01*
X156696402Y-77031747D01*
X156716107Y-77017133D01*
X156737151Y-77004520D01*
X156759329Y-76994030D01*
X156782429Y-76985765D01*
X156806227Y-76979804D01*
X156830496Y-76976204D01*
X156855000Y-76975000D01*
X158105000Y-76975000D01*
X158129504Y-76976204D01*
X158129504Y-76976204D01*
G37*
D26*
X157480000Y-77687500D03*
D10*
G36*
X158129504Y-74001204D02*
G01*
X158153773Y-74004804D01*
X158177571Y-74010765D01*
X158200671Y-74019030D01*
X158222849Y-74029520D01*
X158243893Y-74042133D01*
X158263598Y-74056747D01*
X158281777Y-74073223D01*
X158298253Y-74091402D01*
X158312867Y-74111107D01*
X158325480Y-74132151D01*
X158335970Y-74154329D01*
X158344235Y-74177429D01*
X158350196Y-74201227D01*
X158353796Y-74225496D01*
X158355000Y-74250000D01*
X158355000Y-75175000D01*
X158353796Y-75199504D01*
X158350196Y-75223773D01*
X158344235Y-75247571D01*
X158335970Y-75270671D01*
X158325480Y-75292849D01*
X158312867Y-75313893D01*
X158298253Y-75333598D01*
X158281777Y-75351777D01*
X158263598Y-75368253D01*
X158243893Y-75382867D01*
X158222849Y-75395480D01*
X158200671Y-75405970D01*
X158177571Y-75414235D01*
X158153773Y-75420196D01*
X158129504Y-75423796D01*
X158105000Y-75425000D01*
X156855000Y-75425000D01*
X156830496Y-75423796D01*
X156806227Y-75420196D01*
X156782429Y-75414235D01*
X156759329Y-75405970D01*
X156737151Y-75395480D01*
X156716107Y-75382867D01*
X156696402Y-75368253D01*
X156678223Y-75351777D01*
X156661747Y-75333598D01*
X156647133Y-75313893D01*
X156634520Y-75292849D01*
X156624030Y-75270671D01*
X156615765Y-75247571D01*
X156609804Y-75223773D01*
X156606204Y-75199504D01*
X156605000Y-75175000D01*
X156605000Y-74250000D01*
X156606204Y-74225496D01*
X156609804Y-74201227D01*
X156615765Y-74177429D01*
X156624030Y-74154329D01*
X156634520Y-74132151D01*
X156647133Y-74111107D01*
X156661747Y-74091402D01*
X156678223Y-74073223D01*
X156696402Y-74056747D01*
X156716107Y-74042133D01*
X156737151Y-74029520D01*
X156759329Y-74019030D01*
X156782429Y-74010765D01*
X156806227Y-74004804D01*
X156830496Y-74001204D01*
X156855000Y-74000000D01*
X158105000Y-74000000D01*
X158129504Y-74001204D01*
X158129504Y-74001204D01*
G37*
D26*
X157480000Y-74712500D03*
G04 #@! TD*
D10*
G04 #@! TO.C,C2*
G36*
X164090779Y-66391144D02*
G01*
X164113834Y-66394563D01*
X164136443Y-66400227D01*
X164158387Y-66408079D01*
X164179457Y-66418044D01*
X164199448Y-66430026D01*
X164218168Y-66443910D01*
X164235438Y-66459562D01*
X164251090Y-66476832D01*
X164264974Y-66495552D01*
X164276956Y-66515543D01*
X164286921Y-66536613D01*
X164294773Y-66558557D01*
X164300437Y-66581166D01*
X164303856Y-66604221D01*
X164305000Y-66627500D01*
X164305000Y-67202500D01*
X164303856Y-67225779D01*
X164300437Y-67248834D01*
X164294773Y-67271443D01*
X164286921Y-67293387D01*
X164276956Y-67314457D01*
X164264974Y-67334448D01*
X164251090Y-67353168D01*
X164235438Y-67370438D01*
X164218168Y-67386090D01*
X164199448Y-67399974D01*
X164179457Y-67411956D01*
X164158387Y-67421921D01*
X164136443Y-67429773D01*
X164113834Y-67435437D01*
X164090779Y-67438856D01*
X164067500Y-67440000D01*
X163592500Y-67440000D01*
X163569221Y-67438856D01*
X163546166Y-67435437D01*
X163523557Y-67429773D01*
X163501613Y-67421921D01*
X163480543Y-67411956D01*
X163460552Y-67399974D01*
X163441832Y-67386090D01*
X163424562Y-67370438D01*
X163408910Y-67353168D01*
X163395026Y-67334448D01*
X163383044Y-67314457D01*
X163373079Y-67293387D01*
X163365227Y-67271443D01*
X163359563Y-67248834D01*
X163356144Y-67225779D01*
X163355000Y-67202500D01*
X163355000Y-66627500D01*
X163356144Y-66604221D01*
X163359563Y-66581166D01*
X163365227Y-66558557D01*
X163373079Y-66536613D01*
X163383044Y-66515543D01*
X163395026Y-66495552D01*
X163408910Y-66476832D01*
X163424562Y-66459562D01*
X163441832Y-66443910D01*
X163460552Y-66430026D01*
X163480543Y-66418044D01*
X163501613Y-66408079D01*
X163523557Y-66400227D01*
X163546166Y-66394563D01*
X163569221Y-66391144D01*
X163592500Y-66390000D01*
X164067500Y-66390000D01*
X164090779Y-66391144D01*
X164090779Y-66391144D01*
G37*
D11*
X163830000Y-66915000D03*
D10*
G36*
X164090779Y-64641144D02*
G01*
X164113834Y-64644563D01*
X164136443Y-64650227D01*
X164158387Y-64658079D01*
X164179457Y-64668044D01*
X164199448Y-64680026D01*
X164218168Y-64693910D01*
X164235438Y-64709562D01*
X164251090Y-64726832D01*
X164264974Y-64745552D01*
X164276956Y-64765543D01*
X164286921Y-64786613D01*
X164294773Y-64808557D01*
X164300437Y-64831166D01*
X164303856Y-64854221D01*
X164305000Y-64877500D01*
X164305000Y-65452500D01*
X164303856Y-65475779D01*
X164300437Y-65498834D01*
X164294773Y-65521443D01*
X164286921Y-65543387D01*
X164276956Y-65564457D01*
X164264974Y-65584448D01*
X164251090Y-65603168D01*
X164235438Y-65620438D01*
X164218168Y-65636090D01*
X164199448Y-65649974D01*
X164179457Y-65661956D01*
X164158387Y-65671921D01*
X164136443Y-65679773D01*
X164113834Y-65685437D01*
X164090779Y-65688856D01*
X164067500Y-65690000D01*
X163592500Y-65690000D01*
X163569221Y-65688856D01*
X163546166Y-65685437D01*
X163523557Y-65679773D01*
X163501613Y-65671921D01*
X163480543Y-65661956D01*
X163460552Y-65649974D01*
X163441832Y-65636090D01*
X163424562Y-65620438D01*
X163408910Y-65603168D01*
X163395026Y-65584448D01*
X163383044Y-65564457D01*
X163373079Y-65543387D01*
X163365227Y-65521443D01*
X163359563Y-65498834D01*
X163356144Y-65475779D01*
X163355000Y-65452500D01*
X163355000Y-64877500D01*
X163356144Y-64854221D01*
X163359563Y-64831166D01*
X163365227Y-64808557D01*
X163373079Y-64786613D01*
X163383044Y-64765543D01*
X163395026Y-64745552D01*
X163408910Y-64726832D01*
X163424562Y-64709562D01*
X163441832Y-64693910D01*
X163460552Y-64680026D01*
X163480543Y-64668044D01*
X163501613Y-64658079D01*
X163523557Y-64650227D01*
X163546166Y-64644563D01*
X163569221Y-64641144D01*
X163592500Y-64640000D01*
X164067500Y-64640000D01*
X164090779Y-64641144D01*
X164090779Y-64641144D01*
G37*
D11*
X163830000Y-65165000D03*
G04 #@! TD*
D10*
G04 #@! TO.C,C1*
G36*
X162820779Y-60041144D02*
G01*
X162843834Y-60044563D01*
X162866443Y-60050227D01*
X162888387Y-60058079D01*
X162909457Y-60068044D01*
X162929448Y-60080026D01*
X162948168Y-60093910D01*
X162965438Y-60109562D01*
X162981090Y-60126832D01*
X162994974Y-60145552D01*
X163006956Y-60165543D01*
X163016921Y-60186613D01*
X163024773Y-60208557D01*
X163030437Y-60231166D01*
X163033856Y-60254221D01*
X163035000Y-60277500D01*
X163035000Y-60852500D01*
X163033856Y-60875779D01*
X163030437Y-60898834D01*
X163024773Y-60921443D01*
X163016921Y-60943387D01*
X163006956Y-60964457D01*
X162994974Y-60984448D01*
X162981090Y-61003168D01*
X162965438Y-61020438D01*
X162948168Y-61036090D01*
X162929448Y-61049974D01*
X162909457Y-61061956D01*
X162888387Y-61071921D01*
X162866443Y-61079773D01*
X162843834Y-61085437D01*
X162820779Y-61088856D01*
X162797500Y-61090000D01*
X162322500Y-61090000D01*
X162299221Y-61088856D01*
X162276166Y-61085437D01*
X162253557Y-61079773D01*
X162231613Y-61071921D01*
X162210543Y-61061956D01*
X162190552Y-61049974D01*
X162171832Y-61036090D01*
X162154562Y-61020438D01*
X162138910Y-61003168D01*
X162125026Y-60984448D01*
X162113044Y-60964457D01*
X162103079Y-60943387D01*
X162095227Y-60921443D01*
X162089563Y-60898834D01*
X162086144Y-60875779D01*
X162085000Y-60852500D01*
X162085000Y-60277500D01*
X162086144Y-60254221D01*
X162089563Y-60231166D01*
X162095227Y-60208557D01*
X162103079Y-60186613D01*
X162113044Y-60165543D01*
X162125026Y-60145552D01*
X162138910Y-60126832D01*
X162154562Y-60109562D01*
X162171832Y-60093910D01*
X162190552Y-60080026D01*
X162210543Y-60068044D01*
X162231613Y-60058079D01*
X162253557Y-60050227D01*
X162276166Y-60044563D01*
X162299221Y-60041144D01*
X162322500Y-60040000D01*
X162797500Y-60040000D01*
X162820779Y-60041144D01*
X162820779Y-60041144D01*
G37*
D11*
X162560000Y-60565000D03*
D10*
G36*
X162820779Y-58291144D02*
G01*
X162843834Y-58294563D01*
X162866443Y-58300227D01*
X162888387Y-58308079D01*
X162909457Y-58318044D01*
X162929448Y-58330026D01*
X162948168Y-58343910D01*
X162965438Y-58359562D01*
X162981090Y-58376832D01*
X162994974Y-58395552D01*
X163006956Y-58415543D01*
X163016921Y-58436613D01*
X163024773Y-58458557D01*
X163030437Y-58481166D01*
X163033856Y-58504221D01*
X163035000Y-58527500D01*
X163035000Y-59102500D01*
X163033856Y-59125779D01*
X163030437Y-59148834D01*
X163024773Y-59171443D01*
X163016921Y-59193387D01*
X163006956Y-59214457D01*
X162994974Y-59234448D01*
X162981090Y-59253168D01*
X162965438Y-59270438D01*
X162948168Y-59286090D01*
X162929448Y-59299974D01*
X162909457Y-59311956D01*
X162888387Y-59321921D01*
X162866443Y-59329773D01*
X162843834Y-59335437D01*
X162820779Y-59338856D01*
X162797500Y-59340000D01*
X162322500Y-59340000D01*
X162299221Y-59338856D01*
X162276166Y-59335437D01*
X162253557Y-59329773D01*
X162231613Y-59321921D01*
X162210543Y-59311956D01*
X162190552Y-59299974D01*
X162171832Y-59286090D01*
X162154562Y-59270438D01*
X162138910Y-59253168D01*
X162125026Y-59234448D01*
X162113044Y-59214457D01*
X162103079Y-59193387D01*
X162095227Y-59171443D01*
X162089563Y-59148834D01*
X162086144Y-59125779D01*
X162085000Y-59102500D01*
X162085000Y-58527500D01*
X162086144Y-58504221D01*
X162089563Y-58481166D01*
X162095227Y-58458557D01*
X162103079Y-58436613D01*
X162113044Y-58415543D01*
X162125026Y-58395552D01*
X162138910Y-58376832D01*
X162154562Y-58359562D01*
X162171832Y-58343910D01*
X162190552Y-58330026D01*
X162210543Y-58318044D01*
X162231613Y-58308079D01*
X162253557Y-58300227D01*
X162276166Y-58294563D01*
X162299221Y-58291144D01*
X162322500Y-58290000D01*
X162797500Y-58290000D01*
X162820779Y-58291144D01*
X162820779Y-58291144D01*
G37*
D11*
X162560000Y-58815000D03*
G04 #@! TD*
M02*
