G04 #@! TF.GenerationSoftware,KiCad,Pcbnew,(5.1.2)-2*
G04 #@! TF.CreationDate,2019-08-30T17:03:03-04:00*
G04 #@! TF.ProjectId,Charger SubBoard 0-2,43686172-6765-4722-9053-7562426f6172,rev?*
G04 #@! TF.SameCoordinates,Original*
G04 #@! TF.FileFunction,Soldermask,Top*
G04 #@! TF.FilePolarity,Negative*
%FSLAX46Y46*%
G04 Gerber Fmt 4.6, Leading zero omitted, Abs format (unit mm)*
G04 Created by KiCad (PCBNEW (5.1.2)-2) date 2019-08-30 17:03:03*
%MOMM*%
%LPD*%
G04 APERTURE LIST*
%ADD10C,0.100000*%
G04 APERTURE END LIST*
D10*
G36*
X144385400Y-108825400D02*
G01*
X142634600Y-108825400D01*
X142634600Y-107074600D01*
X144385400Y-107074600D01*
X144385400Y-108825400D01*
X144385400Y-108825400D01*
G37*
G36*
X161461611Y-107087267D02*
G01*
X161626619Y-107137322D01*
X161626622Y-107137323D01*
X161750392Y-107203480D01*
X161778703Y-107218612D01*
X161911996Y-107328004D01*
X162021388Y-107461297D01*
X162021390Y-107461301D01*
X162102677Y-107613378D01*
X162102678Y-107613381D01*
X162152733Y-107778389D01*
X162169635Y-107950000D01*
X162152733Y-108121611D01*
X162102678Y-108286619D01*
X162102677Y-108286622D01*
X162036520Y-108410392D01*
X162021388Y-108438703D01*
X161911996Y-108571996D01*
X161778703Y-108681388D01*
X161778699Y-108681390D01*
X161626622Y-108762677D01*
X161626619Y-108762678D01*
X161461611Y-108812733D01*
X161333003Y-108825400D01*
X161246997Y-108825400D01*
X161118389Y-108812733D01*
X160953381Y-108762678D01*
X160953378Y-108762677D01*
X160801301Y-108681390D01*
X160801297Y-108681388D01*
X160668004Y-108571996D01*
X160558612Y-108438703D01*
X160543480Y-108410392D01*
X160477323Y-108286622D01*
X160477322Y-108286619D01*
X160427267Y-108121611D01*
X160410365Y-107950000D01*
X160427267Y-107778389D01*
X160477322Y-107613381D01*
X160477323Y-107613378D01*
X160558610Y-107461301D01*
X160558612Y-107461297D01*
X160668004Y-107328004D01*
X160801297Y-107218612D01*
X160829608Y-107203480D01*
X160953378Y-107137323D01*
X160953381Y-107137322D01*
X161118389Y-107087267D01*
X161246997Y-107074600D01*
X161333003Y-107074600D01*
X161461611Y-107087267D01*
X161461611Y-107087267D01*
G37*
G36*
X164705400Y-108825400D02*
G01*
X162954600Y-108825400D01*
X162954600Y-107074600D01*
X164705400Y-107074600D01*
X164705400Y-108825400D01*
X164705400Y-108825400D01*
G37*
G36*
X141141611Y-107087267D02*
G01*
X141306619Y-107137322D01*
X141306622Y-107137323D01*
X141430392Y-107203480D01*
X141458703Y-107218612D01*
X141591996Y-107328004D01*
X141701388Y-107461297D01*
X141701390Y-107461301D01*
X141782677Y-107613378D01*
X141782678Y-107613381D01*
X141832733Y-107778389D01*
X141849635Y-107950000D01*
X141832733Y-108121611D01*
X141782678Y-108286619D01*
X141782677Y-108286622D01*
X141716520Y-108410392D01*
X141701388Y-108438703D01*
X141591996Y-108571996D01*
X141458703Y-108681388D01*
X141458699Y-108681390D01*
X141306622Y-108762677D01*
X141306619Y-108762678D01*
X141141611Y-108812733D01*
X141013003Y-108825400D01*
X140926997Y-108825400D01*
X140798389Y-108812733D01*
X140633381Y-108762678D01*
X140633378Y-108762677D01*
X140481301Y-108681390D01*
X140481297Y-108681388D01*
X140348004Y-108571996D01*
X140238612Y-108438703D01*
X140223480Y-108410392D01*
X140157323Y-108286622D01*
X140157322Y-108286619D01*
X140107267Y-108121611D01*
X140090365Y-107950000D01*
X140107267Y-107778389D01*
X140157322Y-107613381D01*
X140157323Y-107613378D01*
X140238610Y-107461301D01*
X140238612Y-107461297D01*
X140348004Y-107328004D01*
X140481297Y-107218612D01*
X140509608Y-107203480D01*
X140633378Y-107137323D01*
X140633381Y-107137322D01*
X140798389Y-107087267D01*
X140926997Y-107074600D01*
X141013003Y-107074600D01*
X141141611Y-107087267D01*
X141141611Y-107087267D01*
G37*
G36*
X152925400Y-105915400D02*
G01*
X151874600Y-105915400D01*
X151874600Y-104864600D01*
X152925400Y-104864600D01*
X152925400Y-105915400D01*
X152925400Y-105915400D01*
G37*
G36*
X141491052Y-104569539D02*
G01*
X141538659Y-104583980D01*
X141582544Y-104607437D01*
X141621001Y-104638999D01*
X141652563Y-104677456D01*
X141676020Y-104721341D01*
X141690461Y-104768948D01*
X141695400Y-104819091D01*
X141695400Y-105510909D01*
X141690461Y-105561052D01*
X141676020Y-105608659D01*
X141652563Y-105652544D01*
X141621001Y-105691001D01*
X141582544Y-105722563D01*
X141538659Y-105746020D01*
X141491052Y-105760461D01*
X141440909Y-105765400D01*
X140499091Y-105765400D01*
X140448948Y-105760461D01*
X140401341Y-105746020D01*
X140357456Y-105722563D01*
X140318999Y-105691001D01*
X140287437Y-105652544D01*
X140263980Y-105608659D01*
X140249539Y-105561052D01*
X140244600Y-105510909D01*
X140244600Y-104819091D01*
X140249539Y-104768948D01*
X140263980Y-104721341D01*
X140287437Y-104677456D01*
X140318999Y-104638999D01*
X140357456Y-104607437D01*
X140401341Y-104583980D01*
X140448948Y-104569539D01*
X140499091Y-104564600D01*
X141440909Y-104564600D01*
X141491052Y-104569539D01*
X141491052Y-104569539D01*
G37*
G36*
X154609113Y-104469347D02*
G01*
X154654841Y-104483218D01*
X154696992Y-104505747D01*
X154733935Y-104536065D01*
X154764253Y-104573008D01*
X154786782Y-104615159D01*
X154800653Y-104660887D01*
X154805400Y-104709076D01*
X154805400Y-105320924D01*
X154800653Y-105369113D01*
X154786782Y-105414841D01*
X154764253Y-105456992D01*
X154733935Y-105493935D01*
X154696992Y-105524253D01*
X154654841Y-105546782D01*
X154609113Y-105560653D01*
X154560924Y-105565400D01*
X154049076Y-105565400D01*
X154000887Y-105560653D01*
X153955159Y-105546782D01*
X153913008Y-105524253D01*
X153876065Y-105493935D01*
X153845747Y-105456992D01*
X153823218Y-105414841D01*
X153809347Y-105369113D01*
X153804600Y-105320924D01*
X153804600Y-104709076D01*
X153809347Y-104660887D01*
X153823218Y-104615159D01*
X153845747Y-104573008D01*
X153876065Y-104536065D01*
X153913008Y-104505747D01*
X153955159Y-104483218D01*
X154000887Y-104469347D01*
X154049076Y-104464600D01*
X154560924Y-104464600D01*
X154609113Y-104469347D01*
X154609113Y-104469347D01*
G37*
G36*
X159689113Y-104469347D02*
G01*
X159734841Y-104483218D01*
X159776992Y-104505747D01*
X159813935Y-104536065D01*
X159844253Y-104573008D01*
X159866782Y-104615159D01*
X159880653Y-104660887D01*
X159885400Y-104709076D01*
X159885400Y-105320924D01*
X159880653Y-105369113D01*
X159866782Y-105414841D01*
X159844253Y-105456992D01*
X159813935Y-105493935D01*
X159776992Y-105524253D01*
X159734841Y-105546782D01*
X159689113Y-105560653D01*
X159640924Y-105565400D01*
X159129076Y-105565400D01*
X159080887Y-105560653D01*
X159035159Y-105546782D01*
X158993008Y-105524253D01*
X158956065Y-105493935D01*
X158925747Y-105456992D01*
X158903218Y-105414841D01*
X158889347Y-105369113D01*
X158884600Y-105320924D01*
X158884600Y-104709076D01*
X158889347Y-104660887D01*
X158903218Y-104615159D01*
X158925747Y-104573008D01*
X158956065Y-104536065D01*
X158993008Y-104505747D01*
X159035159Y-104483218D01*
X159080887Y-104469347D01*
X159129076Y-104464600D01*
X159640924Y-104464600D01*
X159689113Y-104469347D01*
X159689113Y-104469347D01*
G37*
G36*
X161594113Y-104469347D02*
G01*
X161639841Y-104483218D01*
X161681992Y-104505747D01*
X161718935Y-104536065D01*
X161749253Y-104573008D01*
X161771782Y-104615159D01*
X161785653Y-104660887D01*
X161790400Y-104709076D01*
X161790400Y-105320924D01*
X161785653Y-105369113D01*
X161771782Y-105414841D01*
X161749253Y-105456992D01*
X161718935Y-105493935D01*
X161681992Y-105524253D01*
X161639841Y-105546782D01*
X161594113Y-105560653D01*
X161545924Y-105565400D01*
X161034076Y-105565400D01*
X160985887Y-105560653D01*
X160940159Y-105546782D01*
X160898008Y-105524253D01*
X160861065Y-105493935D01*
X160830747Y-105456992D01*
X160808218Y-105414841D01*
X160794347Y-105369113D01*
X160789600Y-105320924D01*
X160789600Y-104709076D01*
X160794347Y-104660887D01*
X160808218Y-104615159D01*
X160830747Y-104573008D01*
X160861065Y-104536065D01*
X160898008Y-104505747D01*
X160940159Y-104483218D01*
X160985887Y-104469347D01*
X161034076Y-104464600D01*
X161545924Y-104464600D01*
X161594113Y-104469347D01*
X161594113Y-104469347D01*
G37*
G36*
X150799113Y-104469347D02*
G01*
X150844841Y-104483218D01*
X150886992Y-104505747D01*
X150923935Y-104536065D01*
X150954253Y-104573008D01*
X150976782Y-104615159D01*
X150990653Y-104660887D01*
X150995400Y-104709076D01*
X150995400Y-105320924D01*
X150990653Y-105369113D01*
X150976782Y-105414841D01*
X150954253Y-105456992D01*
X150923935Y-105493935D01*
X150886992Y-105524253D01*
X150844841Y-105546782D01*
X150799113Y-105560653D01*
X150750924Y-105565400D01*
X150239076Y-105565400D01*
X150190887Y-105560653D01*
X150145159Y-105546782D01*
X150103008Y-105524253D01*
X150066065Y-105493935D01*
X150035747Y-105456992D01*
X150013218Y-105414841D01*
X149999347Y-105369113D01*
X149994600Y-105320924D01*
X149994600Y-104709076D01*
X149999347Y-104660887D01*
X150013218Y-104615159D01*
X150035747Y-104573008D01*
X150066065Y-104536065D01*
X150103008Y-104505747D01*
X150145159Y-104483218D01*
X150190887Y-104469347D01*
X150239076Y-104464600D01*
X150750924Y-104464600D01*
X150799113Y-104469347D01*
X150799113Y-104469347D01*
G37*
G36*
X143814113Y-104469347D02*
G01*
X143859841Y-104483218D01*
X143901992Y-104505747D01*
X143938935Y-104536065D01*
X143969253Y-104573008D01*
X143991782Y-104615159D01*
X144005653Y-104660887D01*
X144010400Y-104709076D01*
X144010400Y-105320924D01*
X144005653Y-105369113D01*
X143991782Y-105414841D01*
X143969253Y-105456992D01*
X143938935Y-105493935D01*
X143901992Y-105524253D01*
X143859841Y-105546782D01*
X143814113Y-105560653D01*
X143765924Y-105565400D01*
X143254076Y-105565400D01*
X143205887Y-105560653D01*
X143160159Y-105546782D01*
X143118008Y-105524253D01*
X143081065Y-105493935D01*
X143050747Y-105456992D01*
X143028218Y-105414841D01*
X143014347Y-105369113D01*
X143009600Y-105320924D01*
X143009600Y-104709076D01*
X143014347Y-104660887D01*
X143028218Y-104615159D01*
X143050747Y-104573008D01*
X143081065Y-104536065D01*
X143118008Y-104505747D01*
X143160159Y-104483218D01*
X143205887Y-104469347D01*
X143254076Y-104464600D01*
X143765924Y-104464600D01*
X143814113Y-104469347D01*
X143814113Y-104469347D01*
G37*
G36*
X158320400Y-105515400D02*
G01*
X157369600Y-105515400D01*
X157369600Y-104664600D01*
X158320400Y-104664600D01*
X158320400Y-105515400D01*
X158320400Y-105515400D01*
G37*
G36*
X146149993Y-102919477D02*
G01*
X146150000Y-102919477D01*
X146154979Y-102919967D01*
X146158056Y-102920901D01*
X146159769Y-102921420D01*
X146162709Y-102922992D01*
X146164180Y-102923778D01*
X146168047Y-102926953D01*
X146171222Y-102930820D01*
X146172008Y-102932291D01*
X146173580Y-102935231D01*
X146174099Y-102936944D01*
X146175033Y-102940021D01*
X146175523Y-102945000D01*
X146175523Y-102945007D01*
X146175584Y-102945626D01*
X146175584Y-102984217D01*
X146175828Y-102986694D01*
X146176551Y-102989077D01*
X146177724Y-102991272D01*
X146179303Y-102993197D01*
X146181228Y-102994776D01*
X146183423Y-102995949D01*
X146185806Y-102996672D01*
X146188283Y-102996916D01*
X147624374Y-102996916D01*
X147624993Y-102996977D01*
X147625000Y-102996977D01*
X147629979Y-102997467D01*
X147633056Y-102998401D01*
X147634769Y-102998920D01*
X147637709Y-103000492D01*
X147639180Y-103001278D01*
X147643047Y-103004453D01*
X147646222Y-103008320D01*
X147647008Y-103009791D01*
X147648580Y-103012731D01*
X147649099Y-103014444D01*
X147650033Y-103017521D01*
X147650523Y-103022500D01*
X147650523Y-103022507D01*
X147650584Y-103023126D01*
X147650584Y-105256874D01*
X147650523Y-105257493D01*
X147650523Y-105257500D01*
X147650033Y-105262479D01*
X147649099Y-105265556D01*
X147648580Y-105267269D01*
X147647008Y-105270209D01*
X147646222Y-105271680D01*
X147643047Y-105275547D01*
X147639180Y-105278722D01*
X147637709Y-105279508D01*
X147634769Y-105281080D01*
X147633056Y-105281599D01*
X147629979Y-105282533D01*
X147625000Y-105283023D01*
X147624993Y-105283023D01*
X147624374Y-105283084D01*
X146188283Y-105283084D01*
X146185806Y-105283328D01*
X146183423Y-105284051D01*
X146181228Y-105285224D01*
X146179303Y-105286803D01*
X146177724Y-105288728D01*
X146176551Y-105290923D01*
X146175828Y-105293306D01*
X146175584Y-105295783D01*
X146175584Y-105334374D01*
X146175523Y-105334993D01*
X146175523Y-105335000D01*
X146175033Y-105339979D01*
X146174099Y-105343056D01*
X146173580Y-105344769D01*
X146172008Y-105347709D01*
X146171222Y-105349180D01*
X146168047Y-105353047D01*
X146164180Y-105356222D01*
X146162709Y-105357008D01*
X146159769Y-105358580D01*
X146158056Y-105359099D01*
X146154979Y-105360033D01*
X146150000Y-105360523D01*
X146149993Y-105360523D01*
X146149374Y-105360584D01*
X145390626Y-105360584D01*
X145390007Y-105360523D01*
X145390000Y-105360523D01*
X145385021Y-105360033D01*
X145381944Y-105359099D01*
X145380231Y-105358580D01*
X145377291Y-105357008D01*
X145375820Y-105356222D01*
X145371953Y-105353047D01*
X145368778Y-105349180D01*
X145367992Y-105347709D01*
X145366420Y-105344769D01*
X145365901Y-105343056D01*
X145364967Y-105339979D01*
X145364477Y-105335000D01*
X145364477Y-105334993D01*
X145364416Y-105334374D01*
X145364416Y-104928126D01*
X145364477Y-104927507D01*
X145364477Y-104927500D01*
X145364967Y-104922521D01*
X145365901Y-104919444D01*
X145366420Y-104917731D01*
X145367992Y-104914791D01*
X145368778Y-104913320D01*
X145371953Y-104909453D01*
X145375820Y-104906278D01*
X145377291Y-104905492D01*
X145380231Y-104903920D01*
X145381944Y-104903401D01*
X145385021Y-104902467D01*
X145390000Y-104901977D01*
X145390007Y-104901977D01*
X145390626Y-104901916D01*
X145861717Y-104901916D01*
X145864194Y-104901672D01*
X145866577Y-104900949D01*
X145868772Y-104899776D01*
X145870697Y-104898197D01*
X145872276Y-104896272D01*
X145873449Y-104894077D01*
X145874172Y-104891694D01*
X145874416Y-104889217D01*
X145874416Y-104710783D01*
X145874172Y-104708306D01*
X145873449Y-104705923D01*
X145872276Y-104703728D01*
X145870697Y-104701803D01*
X145868772Y-104700224D01*
X145866577Y-104699051D01*
X145864194Y-104698328D01*
X145861717Y-104698084D01*
X145390626Y-104698084D01*
X145390007Y-104698023D01*
X145390000Y-104698023D01*
X145385021Y-104697533D01*
X145381944Y-104696599D01*
X145380231Y-104696080D01*
X145377291Y-104694508D01*
X145375820Y-104693722D01*
X145371953Y-104690547D01*
X145368778Y-104686680D01*
X145367992Y-104685209D01*
X145366420Y-104682269D01*
X145365901Y-104680556D01*
X145364967Y-104677479D01*
X145364477Y-104672500D01*
X145364477Y-104672493D01*
X145364416Y-104671874D01*
X145364416Y-104268126D01*
X145364477Y-104267507D01*
X145364477Y-104267500D01*
X145364967Y-104262521D01*
X145365901Y-104259444D01*
X145366420Y-104257731D01*
X145367992Y-104254791D01*
X145368778Y-104253320D01*
X145371953Y-104249453D01*
X145375820Y-104246278D01*
X145377291Y-104245492D01*
X145380231Y-104243920D01*
X145381944Y-104243401D01*
X145385021Y-104242467D01*
X145390000Y-104241977D01*
X145390007Y-104241977D01*
X145390626Y-104241916D01*
X145861717Y-104241916D01*
X145864194Y-104241672D01*
X145866577Y-104240949D01*
X145868772Y-104239776D01*
X145870697Y-104238197D01*
X145872276Y-104236272D01*
X145873449Y-104234077D01*
X145874172Y-104231694D01*
X145874416Y-104229217D01*
X145874416Y-104050783D01*
X145874172Y-104048306D01*
X145873449Y-104045923D01*
X145872276Y-104043728D01*
X145870697Y-104041803D01*
X145868772Y-104040224D01*
X145866577Y-104039051D01*
X145864194Y-104038328D01*
X145861717Y-104038084D01*
X145390626Y-104038084D01*
X145390007Y-104038023D01*
X145390000Y-104038023D01*
X145385021Y-104037533D01*
X145381944Y-104036599D01*
X145380231Y-104036080D01*
X145377291Y-104034508D01*
X145375820Y-104033722D01*
X145371953Y-104030547D01*
X145368778Y-104026680D01*
X145367992Y-104025209D01*
X145366420Y-104022269D01*
X145365901Y-104020556D01*
X145364967Y-104017479D01*
X145364477Y-104012500D01*
X145364477Y-104012493D01*
X145364416Y-104011874D01*
X145364416Y-103608126D01*
X145364477Y-103607507D01*
X145364477Y-103607500D01*
X145364967Y-103602521D01*
X145365919Y-103599385D01*
X145366420Y-103597731D01*
X145367992Y-103594791D01*
X145368778Y-103593320D01*
X145371953Y-103589453D01*
X145375820Y-103586278D01*
X145377291Y-103585492D01*
X145380231Y-103583920D01*
X145381944Y-103583401D01*
X145385021Y-103582467D01*
X145390000Y-103581977D01*
X145390007Y-103581977D01*
X145390626Y-103581916D01*
X145861717Y-103581916D01*
X145864194Y-103581672D01*
X145866577Y-103580949D01*
X145868772Y-103579776D01*
X145870697Y-103578197D01*
X145872276Y-103576272D01*
X145873449Y-103574077D01*
X145874172Y-103571694D01*
X145874416Y-103569217D01*
X145874416Y-103390783D01*
X145874172Y-103388306D01*
X145873449Y-103385923D01*
X145872276Y-103383728D01*
X145870697Y-103381803D01*
X145868772Y-103380224D01*
X145866577Y-103379051D01*
X145864194Y-103378328D01*
X145861717Y-103378084D01*
X145390626Y-103378084D01*
X145390007Y-103378023D01*
X145390000Y-103378023D01*
X145385021Y-103377533D01*
X145381944Y-103376599D01*
X145380231Y-103376080D01*
X145377291Y-103374508D01*
X145375820Y-103373722D01*
X145371953Y-103370547D01*
X145368778Y-103366680D01*
X145367992Y-103365209D01*
X145366420Y-103362269D01*
X145365901Y-103360556D01*
X145364967Y-103357479D01*
X145364477Y-103352500D01*
X145364477Y-103352493D01*
X145364416Y-103351874D01*
X145364416Y-102945626D01*
X145364477Y-102945007D01*
X145364477Y-102945000D01*
X145364967Y-102940021D01*
X145365901Y-102936944D01*
X145366420Y-102935231D01*
X145367992Y-102932291D01*
X145368778Y-102930820D01*
X145371953Y-102926953D01*
X145375820Y-102923778D01*
X145377291Y-102922992D01*
X145380231Y-102921420D01*
X145381944Y-102920901D01*
X145385021Y-102919967D01*
X145390000Y-102919477D01*
X145390007Y-102919477D01*
X145390626Y-102919416D01*
X146149374Y-102919416D01*
X146149993Y-102919477D01*
X146149993Y-102919477D01*
G37*
G36*
X149275400Y-105357900D02*
G01*
X148234600Y-105357900D01*
X148234600Y-104902100D01*
X149275400Y-104902100D01*
X149275400Y-105357900D01*
X149275400Y-105357900D01*
G37*
G36*
X149275400Y-104697900D02*
G01*
X148234600Y-104697900D01*
X148234600Y-104242100D01*
X149275400Y-104242100D01*
X149275400Y-104697900D01*
X149275400Y-104697900D01*
G37*
G36*
X156320400Y-104565400D02*
G01*
X155369600Y-104565400D01*
X155369600Y-103714600D01*
X156320400Y-103714600D01*
X156320400Y-104565400D01*
X156320400Y-104565400D01*
G37*
G36*
X149275400Y-104037900D02*
G01*
X148234600Y-104037900D01*
X148234600Y-103582100D01*
X149275400Y-103582100D01*
X149275400Y-104037900D01*
X149275400Y-104037900D01*
G37*
G36*
X161594113Y-102719347D02*
G01*
X161639841Y-102733218D01*
X161681992Y-102755747D01*
X161718935Y-102786065D01*
X161749253Y-102823008D01*
X161771782Y-102865159D01*
X161785653Y-102910887D01*
X161790400Y-102959076D01*
X161790400Y-103570924D01*
X161785653Y-103619113D01*
X161771782Y-103664841D01*
X161749253Y-103706992D01*
X161718935Y-103743935D01*
X161681992Y-103774253D01*
X161639841Y-103796782D01*
X161594113Y-103810653D01*
X161545924Y-103815400D01*
X161034076Y-103815400D01*
X160985887Y-103810653D01*
X160940159Y-103796782D01*
X160898008Y-103774253D01*
X160861065Y-103743935D01*
X160830747Y-103706992D01*
X160808218Y-103664841D01*
X160794347Y-103619113D01*
X160789600Y-103570924D01*
X160789600Y-102959076D01*
X160794347Y-102910887D01*
X160808218Y-102865159D01*
X160830747Y-102823008D01*
X160861065Y-102786065D01*
X160898008Y-102755747D01*
X160940159Y-102733218D01*
X160985887Y-102719347D01*
X161034076Y-102714600D01*
X161545924Y-102714600D01*
X161594113Y-102719347D01*
X161594113Y-102719347D01*
G37*
G36*
X143814113Y-102719347D02*
G01*
X143859841Y-102733218D01*
X143901992Y-102755747D01*
X143938935Y-102786065D01*
X143969253Y-102823008D01*
X143991782Y-102865159D01*
X144005653Y-102910887D01*
X144010400Y-102959076D01*
X144010400Y-103570924D01*
X144005653Y-103619113D01*
X143991782Y-103664841D01*
X143969253Y-103706992D01*
X143938935Y-103743935D01*
X143901992Y-103774253D01*
X143859841Y-103796782D01*
X143814113Y-103810653D01*
X143765924Y-103815400D01*
X143254076Y-103815400D01*
X143205887Y-103810653D01*
X143160159Y-103796782D01*
X143118008Y-103774253D01*
X143081065Y-103743935D01*
X143050747Y-103706992D01*
X143028218Y-103664841D01*
X143014347Y-103619113D01*
X143009600Y-103570924D01*
X143009600Y-102959076D01*
X143014347Y-102910887D01*
X143028218Y-102865159D01*
X143050747Y-102823008D01*
X143081065Y-102786065D01*
X143118008Y-102755747D01*
X143160159Y-102733218D01*
X143205887Y-102719347D01*
X143254076Y-102714600D01*
X143765924Y-102714600D01*
X143814113Y-102719347D01*
X143814113Y-102719347D01*
G37*
G36*
X154609113Y-102719347D02*
G01*
X154654841Y-102733218D01*
X154696992Y-102755747D01*
X154733935Y-102786065D01*
X154764253Y-102823008D01*
X154786782Y-102865159D01*
X154800653Y-102910887D01*
X154805400Y-102959076D01*
X154805400Y-103570924D01*
X154800653Y-103619113D01*
X154786782Y-103664841D01*
X154764253Y-103706992D01*
X154733935Y-103743935D01*
X154696992Y-103774253D01*
X154654841Y-103796782D01*
X154609113Y-103810653D01*
X154560924Y-103815400D01*
X154049076Y-103815400D01*
X154000887Y-103810653D01*
X153955159Y-103796782D01*
X153913008Y-103774253D01*
X153876065Y-103743935D01*
X153845747Y-103706992D01*
X153823218Y-103664841D01*
X153809347Y-103619113D01*
X153804600Y-103570924D01*
X153804600Y-102959076D01*
X153809347Y-102910887D01*
X153823218Y-102865159D01*
X153845747Y-102823008D01*
X153876065Y-102786065D01*
X153913008Y-102755747D01*
X153955159Y-102733218D01*
X154000887Y-102719347D01*
X154049076Y-102714600D01*
X154560924Y-102714600D01*
X154609113Y-102719347D01*
X154609113Y-102719347D01*
G37*
G36*
X150799113Y-102719347D02*
G01*
X150844841Y-102733218D01*
X150886992Y-102755747D01*
X150923935Y-102786065D01*
X150954253Y-102823008D01*
X150976782Y-102865159D01*
X150990653Y-102910887D01*
X150995400Y-102959076D01*
X150995400Y-103570924D01*
X150990653Y-103619113D01*
X150976782Y-103664841D01*
X150954253Y-103706992D01*
X150923935Y-103743935D01*
X150886992Y-103774253D01*
X150844841Y-103796782D01*
X150799113Y-103810653D01*
X150750924Y-103815400D01*
X150239076Y-103815400D01*
X150190887Y-103810653D01*
X150145159Y-103796782D01*
X150103008Y-103774253D01*
X150066065Y-103743935D01*
X150035747Y-103706992D01*
X150013218Y-103664841D01*
X149999347Y-103619113D01*
X149994600Y-103570924D01*
X149994600Y-102959076D01*
X149999347Y-102910887D01*
X150013218Y-102865159D01*
X150035747Y-102823008D01*
X150066065Y-102786065D01*
X150103008Y-102755747D01*
X150145159Y-102733218D01*
X150190887Y-102719347D01*
X150239076Y-102714600D01*
X150750924Y-102714600D01*
X150799113Y-102719347D01*
X150799113Y-102719347D01*
G37*
G36*
X159689113Y-102719347D02*
G01*
X159734841Y-102733218D01*
X159776992Y-102755747D01*
X159813935Y-102786065D01*
X159844253Y-102823008D01*
X159866782Y-102865159D01*
X159880653Y-102910887D01*
X159885400Y-102959076D01*
X159885400Y-103570924D01*
X159880653Y-103619113D01*
X159866782Y-103664841D01*
X159844253Y-103706992D01*
X159813935Y-103743935D01*
X159776992Y-103774253D01*
X159734841Y-103796782D01*
X159689113Y-103810653D01*
X159640924Y-103815400D01*
X159129076Y-103815400D01*
X159080887Y-103810653D01*
X159035159Y-103796782D01*
X158993008Y-103774253D01*
X158956065Y-103743935D01*
X158925747Y-103706992D01*
X158903218Y-103664841D01*
X158889347Y-103619113D01*
X158884600Y-103570924D01*
X158884600Y-102959076D01*
X158889347Y-102910887D01*
X158903218Y-102865159D01*
X158925747Y-102823008D01*
X158956065Y-102786065D01*
X158993008Y-102755747D01*
X159035159Y-102733218D01*
X159080887Y-102719347D01*
X159129076Y-102714600D01*
X159640924Y-102714600D01*
X159689113Y-102719347D01*
X159689113Y-102719347D01*
G37*
G36*
X141491052Y-102519539D02*
G01*
X141538659Y-102533980D01*
X141582544Y-102557437D01*
X141621001Y-102588999D01*
X141652563Y-102627456D01*
X141676020Y-102671341D01*
X141690461Y-102718948D01*
X141695400Y-102769091D01*
X141695400Y-103460909D01*
X141690461Y-103511052D01*
X141676020Y-103558659D01*
X141652563Y-103602544D01*
X141621001Y-103641001D01*
X141582544Y-103672563D01*
X141538659Y-103696020D01*
X141491052Y-103710461D01*
X141440909Y-103715400D01*
X140499091Y-103715400D01*
X140448948Y-103710461D01*
X140401341Y-103696020D01*
X140357456Y-103672563D01*
X140318999Y-103641001D01*
X140287437Y-103602544D01*
X140263980Y-103558659D01*
X140249539Y-103511052D01*
X140244600Y-103460909D01*
X140244600Y-102769091D01*
X140249539Y-102718948D01*
X140263980Y-102671341D01*
X140287437Y-102627456D01*
X140318999Y-102588999D01*
X140357456Y-102557437D01*
X140401341Y-102533980D01*
X140448948Y-102519539D01*
X140499091Y-102514600D01*
X141440909Y-102514600D01*
X141491052Y-102519539D01*
X141491052Y-102519539D01*
G37*
G36*
X158320400Y-103615400D02*
G01*
X157369600Y-103615400D01*
X157369600Y-102764600D01*
X158320400Y-102764600D01*
X158320400Y-103615400D01*
X158320400Y-103615400D01*
G37*
G36*
X152925400Y-103415400D02*
G01*
X151874600Y-103415400D01*
X151874600Y-102364600D01*
X152925400Y-102364600D01*
X152925400Y-103415400D01*
X152925400Y-103415400D01*
G37*
G36*
X149275400Y-103377900D02*
G01*
X148234600Y-103377900D01*
X148234600Y-102922100D01*
X149275400Y-102922100D01*
X149275400Y-103377900D01*
X149275400Y-103377900D01*
G37*
G36*
X159049098Y-99344005D02*
G01*
X159235708Y-99421302D01*
X159403652Y-99533518D01*
X159546482Y-99676348D01*
X159658698Y-99844292D01*
X159735995Y-100030902D01*
X159775400Y-100229006D01*
X159775400Y-100430994D01*
X159735995Y-100629098D01*
X159658698Y-100815708D01*
X159546482Y-100983652D01*
X159403652Y-101126482D01*
X159235708Y-101238698D01*
X159049098Y-101315995D01*
X158850994Y-101355400D01*
X158649006Y-101355400D01*
X158450902Y-101315995D01*
X158264292Y-101238698D01*
X158096348Y-101126482D01*
X157953518Y-100983652D01*
X157841302Y-100815708D01*
X157764005Y-100629098D01*
X157724600Y-100430994D01*
X157724600Y-100229006D01*
X157764005Y-100030902D01*
X157841302Y-99844292D01*
X157953518Y-99676348D01*
X158096348Y-99533518D01*
X158264292Y-99421302D01*
X158450902Y-99344005D01*
X158649006Y-99304600D01*
X158850994Y-99304600D01*
X159049098Y-99344005D01*
X159049098Y-99344005D01*
G37*
G36*
X155239098Y-99344005D02*
G01*
X155425708Y-99421302D01*
X155593652Y-99533518D01*
X155736482Y-99676348D01*
X155848698Y-99844292D01*
X155925995Y-100030902D01*
X155965400Y-100229006D01*
X155965400Y-100430994D01*
X155925995Y-100629098D01*
X155848698Y-100815708D01*
X155736482Y-100983652D01*
X155593652Y-101126482D01*
X155425708Y-101238698D01*
X155239098Y-101315995D01*
X155040994Y-101355400D01*
X154839006Y-101355400D01*
X154640902Y-101315995D01*
X154454292Y-101238698D01*
X154286348Y-101126482D01*
X154143518Y-100983652D01*
X154031302Y-100815708D01*
X153954005Y-100629098D01*
X153914600Y-100430994D01*
X153914600Y-100229006D01*
X153954005Y-100030902D01*
X154031302Y-99844292D01*
X154143518Y-99676348D01*
X154286348Y-99533518D01*
X154454292Y-99421302D01*
X154640902Y-99344005D01*
X154839006Y-99304600D01*
X155040994Y-99304600D01*
X155239098Y-99344005D01*
X155239098Y-99344005D01*
G37*
G36*
X162859098Y-99344005D02*
G01*
X163045708Y-99421302D01*
X163213652Y-99533518D01*
X163356482Y-99676348D01*
X163468698Y-99844292D01*
X163545995Y-100030902D01*
X163585400Y-100229006D01*
X163585400Y-100430994D01*
X163545995Y-100629098D01*
X163468698Y-100815708D01*
X163356482Y-100983652D01*
X163213652Y-101126482D01*
X163045708Y-101238698D01*
X162859098Y-101315995D01*
X162660994Y-101355400D01*
X162459006Y-101355400D01*
X162260902Y-101315995D01*
X162074292Y-101238698D01*
X161906348Y-101126482D01*
X161763518Y-100983652D01*
X161651302Y-100815708D01*
X161574005Y-100629098D01*
X161534600Y-100430994D01*
X161534600Y-100229006D01*
X161574005Y-100030902D01*
X161651302Y-99844292D01*
X161763518Y-99676348D01*
X161906348Y-99533518D01*
X162074292Y-99421302D01*
X162260902Y-99344005D01*
X162459006Y-99304600D01*
X162660994Y-99304600D01*
X162859098Y-99344005D01*
X162859098Y-99344005D01*
G37*
G36*
X141895400Y-100795400D02*
G01*
X140044600Y-100795400D01*
X140044600Y-97244600D01*
X141895400Y-97244600D01*
X141895400Y-100795400D01*
X141895400Y-100795400D01*
G37*
G36*
X149615400Y-100085400D02*
G01*
X147564600Y-100085400D01*
X147564600Y-98034600D01*
X149615400Y-98034600D01*
X149615400Y-100085400D01*
X149615400Y-100085400D01*
G37*
G36*
X155879113Y-96849347D02*
G01*
X155924841Y-96863218D01*
X155966992Y-96885747D01*
X156003935Y-96916065D01*
X156034253Y-96953008D01*
X156056782Y-96995159D01*
X156070653Y-97040887D01*
X156075400Y-97089076D01*
X156075400Y-97700924D01*
X156070653Y-97749113D01*
X156056782Y-97794841D01*
X156034253Y-97836992D01*
X156003935Y-97873935D01*
X155966992Y-97904253D01*
X155924841Y-97926782D01*
X155879113Y-97940653D01*
X155830924Y-97945400D01*
X155319076Y-97945400D01*
X155270887Y-97940653D01*
X155225159Y-97926782D01*
X155183008Y-97904253D01*
X155146065Y-97873935D01*
X155115747Y-97836992D01*
X155093218Y-97794841D01*
X155079347Y-97749113D01*
X155074600Y-97700924D01*
X155074600Y-97089076D01*
X155079347Y-97040887D01*
X155093218Y-96995159D01*
X155115747Y-96953008D01*
X155146065Y-96916065D01*
X155183008Y-96885747D01*
X155225159Y-96863218D01*
X155270887Y-96849347D01*
X155319076Y-96844600D01*
X155830924Y-96844600D01*
X155879113Y-96849347D01*
X155879113Y-96849347D01*
G37*
G36*
X157784113Y-96849347D02*
G01*
X157829841Y-96863218D01*
X157871992Y-96885747D01*
X157908935Y-96916065D01*
X157939253Y-96953008D01*
X157961782Y-96995159D01*
X157975653Y-97040887D01*
X157980400Y-97089076D01*
X157980400Y-97700924D01*
X157975653Y-97749113D01*
X157961782Y-97794841D01*
X157939253Y-97836992D01*
X157908935Y-97873935D01*
X157871992Y-97904253D01*
X157829841Y-97926782D01*
X157784113Y-97940653D01*
X157735924Y-97945400D01*
X157224076Y-97945400D01*
X157175887Y-97940653D01*
X157130159Y-97926782D01*
X157088008Y-97904253D01*
X157051065Y-97873935D01*
X157020747Y-97836992D01*
X156998218Y-97794841D01*
X156984347Y-97749113D01*
X156979600Y-97700924D01*
X156979600Y-97089076D01*
X156984347Y-97040887D01*
X156998218Y-96995159D01*
X157020747Y-96953008D01*
X157051065Y-96916065D01*
X157088008Y-96885747D01*
X157130159Y-96863218D01*
X157175887Y-96849347D01*
X157224076Y-96844600D01*
X157735924Y-96844600D01*
X157784113Y-96849347D01*
X157784113Y-96849347D01*
G37*
G36*
X161884113Y-96659347D02*
G01*
X161929841Y-96673218D01*
X161971992Y-96695747D01*
X162008935Y-96726065D01*
X162039253Y-96763008D01*
X162061782Y-96805159D01*
X162075653Y-96850887D01*
X162080400Y-96899076D01*
X162080400Y-97410924D01*
X162075653Y-97459113D01*
X162061782Y-97504841D01*
X162039253Y-97546992D01*
X162008935Y-97583935D01*
X161971992Y-97614253D01*
X161929841Y-97636782D01*
X161884113Y-97650653D01*
X161835924Y-97655400D01*
X161224076Y-97655400D01*
X161175887Y-97650653D01*
X161130159Y-97636782D01*
X161088008Y-97614253D01*
X161051065Y-97583935D01*
X161020747Y-97546992D01*
X160998218Y-97504841D01*
X160984347Y-97459113D01*
X160979600Y-97410924D01*
X160979600Y-96899076D01*
X160984347Y-96850887D01*
X160998218Y-96805159D01*
X161020747Y-96763008D01*
X161051065Y-96726065D01*
X161088008Y-96695747D01*
X161130159Y-96673218D01*
X161175887Y-96659347D01*
X161224076Y-96654600D01*
X161835924Y-96654600D01*
X161884113Y-96659347D01*
X161884113Y-96659347D01*
G37*
G36*
X160134113Y-96659347D02*
G01*
X160179841Y-96673218D01*
X160221992Y-96695747D01*
X160258935Y-96726065D01*
X160289253Y-96763008D01*
X160311782Y-96805159D01*
X160325653Y-96850887D01*
X160330400Y-96899076D01*
X160330400Y-97410924D01*
X160325653Y-97459113D01*
X160311782Y-97504841D01*
X160289253Y-97546992D01*
X160258935Y-97583935D01*
X160221992Y-97614253D01*
X160179841Y-97636782D01*
X160134113Y-97650653D01*
X160085924Y-97655400D01*
X159474076Y-97655400D01*
X159425887Y-97650653D01*
X159380159Y-97636782D01*
X159338008Y-97614253D01*
X159301065Y-97583935D01*
X159270747Y-97546992D01*
X159248218Y-97504841D01*
X159234347Y-97459113D01*
X159229600Y-97410924D01*
X159229600Y-96899076D01*
X159234347Y-96850887D01*
X159248218Y-96805159D01*
X159270747Y-96763008D01*
X159301065Y-96726065D01*
X159338008Y-96695747D01*
X159380159Y-96673218D01*
X159425887Y-96659347D01*
X159474076Y-96654600D01*
X160085924Y-96654600D01*
X160134113Y-96659347D01*
X160134113Y-96659347D01*
G37*
G36*
X157784113Y-95099347D02*
G01*
X157829841Y-95113218D01*
X157871992Y-95135747D01*
X157908935Y-95166065D01*
X157939253Y-95203008D01*
X157961782Y-95245159D01*
X157975653Y-95290887D01*
X157980400Y-95339076D01*
X157980400Y-95950924D01*
X157975653Y-95999113D01*
X157961782Y-96044841D01*
X157939253Y-96086992D01*
X157908935Y-96123935D01*
X157871992Y-96154253D01*
X157829841Y-96176782D01*
X157784113Y-96190653D01*
X157735924Y-96195400D01*
X157224076Y-96195400D01*
X157175887Y-96190653D01*
X157130159Y-96176782D01*
X157088008Y-96154253D01*
X157051065Y-96123935D01*
X157020747Y-96086992D01*
X156998218Y-96044841D01*
X156984347Y-95999113D01*
X156979600Y-95950924D01*
X156979600Y-95339076D01*
X156984347Y-95290887D01*
X156998218Y-95245159D01*
X157020747Y-95203008D01*
X157051065Y-95166065D01*
X157088008Y-95135747D01*
X157130159Y-95113218D01*
X157175887Y-95099347D01*
X157224076Y-95094600D01*
X157735924Y-95094600D01*
X157784113Y-95099347D01*
X157784113Y-95099347D01*
G37*
G36*
X155879113Y-95099347D02*
G01*
X155924841Y-95113218D01*
X155966992Y-95135747D01*
X156003935Y-95166065D01*
X156034253Y-95203008D01*
X156056782Y-95245159D01*
X156070653Y-95290887D01*
X156075400Y-95339076D01*
X156075400Y-95950924D01*
X156070653Y-95999113D01*
X156056782Y-96044841D01*
X156034253Y-96086992D01*
X156003935Y-96123935D01*
X155966992Y-96154253D01*
X155924841Y-96176782D01*
X155879113Y-96190653D01*
X155830924Y-96195400D01*
X155319076Y-96195400D01*
X155270887Y-96190653D01*
X155225159Y-96176782D01*
X155183008Y-96154253D01*
X155146065Y-96123935D01*
X155115747Y-96086992D01*
X155093218Y-96044841D01*
X155079347Y-95999113D01*
X155074600Y-95950924D01*
X155074600Y-95339076D01*
X155079347Y-95290887D01*
X155093218Y-95245159D01*
X155115747Y-95203008D01*
X155146065Y-95166065D01*
X155183008Y-95135747D01*
X155225159Y-95113218D01*
X155270887Y-95099347D01*
X155319076Y-95094600D01*
X155830924Y-95094600D01*
X155879113Y-95099347D01*
X155879113Y-95099347D01*
G37*
G36*
X141895400Y-95795400D02*
G01*
X140044600Y-95795400D01*
X140044600Y-92244600D01*
X141895400Y-92244600D01*
X141895400Y-95795400D01*
X141895400Y-95795400D01*
G37*
G36*
X161884113Y-94754347D02*
G01*
X161929841Y-94768218D01*
X161971992Y-94790747D01*
X162008935Y-94821065D01*
X162039253Y-94858008D01*
X162061782Y-94900159D01*
X162075653Y-94945887D01*
X162080400Y-94994076D01*
X162080400Y-95505924D01*
X162075653Y-95554113D01*
X162061782Y-95599841D01*
X162039253Y-95641992D01*
X162008935Y-95678935D01*
X161971992Y-95709253D01*
X161929841Y-95731782D01*
X161884113Y-95745653D01*
X161835924Y-95750400D01*
X161224076Y-95750400D01*
X161175887Y-95745653D01*
X161130159Y-95731782D01*
X161088008Y-95709253D01*
X161051065Y-95678935D01*
X161020747Y-95641992D01*
X160998218Y-95599841D01*
X160984347Y-95554113D01*
X160979600Y-95505924D01*
X160979600Y-94994076D01*
X160984347Y-94945887D01*
X160998218Y-94900159D01*
X161020747Y-94858008D01*
X161051065Y-94821065D01*
X161088008Y-94790747D01*
X161130159Y-94768218D01*
X161175887Y-94754347D01*
X161224076Y-94749600D01*
X161835924Y-94749600D01*
X161884113Y-94754347D01*
X161884113Y-94754347D01*
G37*
G36*
X160134113Y-94754347D02*
G01*
X160179841Y-94768218D01*
X160221992Y-94790747D01*
X160258935Y-94821065D01*
X160289253Y-94858008D01*
X160311782Y-94900159D01*
X160325653Y-94945887D01*
X160330400Y-94994076D01*
X160330400Y-95505924D01*
X160325653Y-95554113D01*
X160311782Y-95599841D01*
X160289253Y-95641992D01*
X160258935Y-95678935D01*
X160221992Y-95709253D01*
X160179841Y-95731782D01*
X160134113Y-95745653D01*
X160085924Y-95750400D01*
X159474076Y-95750400D01*
X159425887Y-95745653D01*
X159380159Y-95731782D01*
X159338008Y-95709253D01*
X159301065Y-95678935D01*
X159270747Y-95641992D01*
X159248218Y-95599841D01*
X159234347Y-95554113D01*
X159229600Y-95505924D01*
X159229600Y-94994076D01*
X159234347Y-94945887D01*
X159248218Y-94900159D01*
X159270747Y-94858008D01*
X159301065Y-94821065D01*
X159338008Y-94790747D01*
X159380159Y-94768218D01*
X159425887Y-94754347D01*
X159474076Y-94749600D01*
X160085924Y-94749600D01*
X160134113Y-94754347D01*
X160134113Y-94754347D01*
G37*
G36*
X148889098Y-93074005D02*
G01*
X149075708Y-93151302D01*
X149243652Y-93263518D01*
X149386482Y-93406348D01*
X149498698Y-93574292D01*
X149575995Y-93760902D01*
X149615400Y-93959006D01*
X149615400Y-94160994D01*
X149575995Y-94359098D01*
X149498698Y-94545708D01*
X149386482Y-94713652D01*
X149243652Y-94856482D01*
X149075708Y-94968698D01*
X148889098Y-95045995D01*
X148690994Y-95085400D01*
X148489006Y-95085400D01*
X148290902Y-95045995D01*
X148104292Y-94968698D01*
X147936348Y-94856482D01*
X147793518Y-94713652D01*
X147681302Y-94545708D01*
X147604005Y-94359098D01*
X147564600Y-94160994D01*
X147564600Y-93959006D01*
X147604005Y-93760902D01*
X147681302Y-93574292D01*
X147793518Y-93406348D01*
X147936348Y-93263518D01*
X148104292Y-93151302D01*
X148290902Y-93074005D01*
X148489006Y-93034600D01*
X148690994Y-93034600D01*
X148889098Y-93074005D01*
X148889098Y-93074005D01*
G37*
G36*
X161884113Y-92849347D02*
G01*
X161929841Y-92863218D01*
X161971992Y-92885747D01*
X162008935Y-92916065D01*
X162039253Y-92953008D01*
X162061782Y-92995159D01*
X162075653Y-93040887D01*
X162080400Y-93089076D01*
X162080400Y-93600924D01*
X162075653Y-93649113D01*
X162061782Y-93694841D01*
X162039253Y-93736992D01*
X162008935Y-93773935D01*
X161971992Y-93804253D01*
X161929841Y-93826782D01*
X161884113Y-93840653D01*
X161835924Y-93845400D01*
X161224076Y-93845400D01*
X161175887Y-93840653D01*
X161130159Y-93826782D01*
X161088008Y-93804253D01*
X161051065Y-93773935D01*
X161020747Y-93736992D01*
X160998218Y-93694841D01*
X160984347Y-93649113D01*
X160979600Y-93600924D01*
X160979600Y-93089076D01*
X160984347Y-93040887D01*
X160998218Y-92995159D01*
X161020747Y-92953008D01*
X161051065Y-92916065D01*
X161088008Y-92885747D01*
X161130159Y-92863218D01*
X161175887Y-92849347D01*
X161224076Y-92844600D01*
X161835924Y-92844600D01*
X161884113Y-92849347D01*
X161884113Y-92849347D01*
G37*
G36*
X160134113Y-92849347D02*
G01*
X160179841Y-92863218D01*
X160221992Y-92885747D01*
X160258935Y-92916065D01*
X160289253Y-92953008D01*
X160311782Y-92995159D01*
X160325653Y-93040887D01*
X160330400Y-93089076D01*
X160330400Y-93600924D01*
X160325653Y-93649113D01*
X160311782Y-93694841D01*
X160289253Y-93736992D01*
X160258935Y-93773935D01*
X160221992Y-93804253D01*
X160179841Y-93826782D01*
X160134113Y-93840653D01*
X160085924Y-93845400D01*
X159474076Y-93845400D01*
X159425887Y-93840653D01*
X159380159Y-93826782D01*
X159338008Y-93804253D01*
X159301065Y-93773935D01*
X159270747Y-93736992D01*
X159248218Y-93694841D01*
X159234347Y-93649113D01*
X159229600Y-93600924D01*
X159229600Y-93089076D01*
X159234347Y-93040887D01*
X159248218Y-92995159D01*
X159270747Y-92953008D01*
X159301065Y-92916065D01*
X159338008Y-92885747D01*
X159380159Y-92863218D01*
X159425887Y-92849347D01*
X159474076Y-92844600D01*
X160085924Y-92844600D01*
X160134113Y-92849347D01*
X160134113Y-92849347D01*
G37*
G36*
X155239098Y-91724005D02*
G01*
X155425708Y-91801302D01*
X155593652Y-91913518D01*
X155736482Y-92056348D01*
X155848698Y-92224292D01*
X155925995Y-92410902D01*
X155965400Y-92609006D01*
X155965400Y-92810994D01*
X155925995Y-93009098D01*
X155848698Y-93195708D01*
X155736482Y-93363652D01*
X155593652Y-93506482D01*
X155425708Y-93618698D01*
X155239098Y-93695995D01*
X155040994Y-93735400D01*
X154839006Y-93735400D01*
X154640902Y-93695995D01*
X154454292Y-93618698D01*
X154286348Y-93506482D01*
X154143518Y-93363652D01*
X154031302Y-93195708D01*
X153954005Y-93009098D01*
X153914600Y-92810994D01*
X153914600Y-92609006D01*
X153954005Y-92410902D01*
X154031302Y-92224292D01*
X154143518Y-92056348D01*
X154286348Y-91913518D01*
X154454292Y-91801302D01*
X154640902Y-91724005D01*
X154839006Y-91684600D01*
X155040994Y-91684600D01*
X155239098Y-91724005D01*
X155239098Y-91724005D01*
G37*
G36*
X144444098Y-90454005D02*
G01*
X144630708Y-90531302D01*
X144798652Y-90643518D01*
X144941482Y-90786348D01*
X145053698Y-90954292D01*
X145130995Y-91140902D01*
X145170400Y-91339006D01*
X145170400Y-91540994D01*
X145130995Y-91739098D01*
X145053698Y-91925708D01*
X144941482Y-92093652D01*
X144798652Y-92236482D01*
X144630708Y-92348698D01*
X144444098Y-92425995D01*
X144245994Y-92465400D01*
X144044006Y-92465400D01*
X143845902Y-92425995D01*
X143659292Y-92348698D01*
X143491348Y-92236482D01*
X143348518Y-92093652D01*
X143236302Y-91925708D01*
X143159005Y-91739098D01*
X143119600Y-91540994D01*
X143119600Y-91339006D01*
X143159005Y-91140902D01*
X143236302Y-90954292D01*
X143348518Y-90786348D01*
X143491348Y-90643518D01*
X143659292Y-90531302D01*
X143845902Y-90454005D01*
X144044006Y-90414600D01*
X144245994Y-90414600D01*
X144444098Y-90454005D01*
X144444098Y-90454005D01*
G37*
G36*
X160026052Y-90719539D02*
G01*
X160073659Y-90733980D01*
X160117544Y-90757437D01*
X160156001Y-90788999D01*
X160187563Y-90827456D01*
X160211020Y-90871341D01*
X160225461Y-90918948D01*
X160230400Y-90969091D01*
X160230400Y-91910909D01*
X160225461Y-91961052D01*
X160211020Y-92008659D01*
X160187563Y-92052544D01*
X160156001Y-92091001D01*
X160117544Y-92122563D01*
X160073659Y-92146020D01*
X160026052Y-92160461D01*
X159975909Y-92165400D01*
X159284091Y-92165400D01*
X159233948Y-92160461D01*
X159186341Y-92146020D01*
X159142456Y-92122563D01*
X159103999Y-92091001D01*
X159072437Y-92052544D01*
X159048980Y-92008659D01*
X159034539Y-91961052D01*
X159029600Y-91910909D01*
X159029600Y-90969091D01*
X159034539Y-90918948D01*
X159048980Y-90871341D01*
X159072437Y-90827456D01*
X159103999Y-90788999D01*
X159142456Y-90757437D01*
X159186341Y-90733980D01*
X159233948Y-90719539D01*
X159284091Y-90714600D01*
X159975909Y-90714600D01*
X160026052Y-90719539D01*
X160026052Y-90719539D01*
G37*
G36*
X162076052Y-90719539D02*
G01*
X162123659Y-90733980D01*
X162167544Y-90757437D01*
X162206001Y-90788999D01*
X162237563Y-90827456D01*
X162261020Y-90871341D01*
X162275461Y-90918948D01*
X162280400Y-90969091D01*
X162280400Y-91910909D01*
X162275461Y-91961052D01*
X162261020Y-92008659D01*
X162237563Y-92052544D01*
X162206001Y-92091001D01*
X162167544Y-92122563D01*
X162123659Y-92146020D01*
X162076052Y-92160461D01*
X162025909Y-92165400D01*
X161334091Y-92165400D01*
X161283948Y-92160461D01*
X161236341Y-92146020D01*
X161192456Y-92122563D01*
X161153999Y-92091001D01*
X161122437Y-92052544D01*
X161098980Y-92008659D01*
X161084539Y-91961052D01*
X161079600Y-91910909D01*
X161079600Y-90969091D01*
X161084539Y-90918948D01*
X161098980Y-90871341D01*
X161122437Y-90827456D01*
X161153999Y-90788999D01*
X161192456Y-90757437D01*
X161236341Y-90733980D01*
X161283948Y-90719539D01*
X161334091Y-90714600D01*
X162025909Y-90714600D01*
X162076052Y-90719539D01*
X162076052Y-90719539D01*
G37*
G36*
X155169331Y-88564461D02*
G01*
X155216178Y-88578671D01*
X155259351Y-88601748D01*
X155297194Y-88632806D01*
X155328252Y-88670649D01*
X155351329Y-88713822D01*
X155365539Y-88760669D01*
X155370400Y-88810017D01*
X155370400Y-89884983D01*
X155365539Y-89934331D01*
X155351329Y-89981178D01*
X155328252Y-90024351D01*
X155297194Y-90062194D01*
X155259351Y-90093252D01*
X155216178Y-90116329D01*
X155169331Y-90130539D01*
X155119983Y-90135400D01*
X152220017Y-90135400D01*
X152170669Y-90130539D01*
X152123822Y-90116329D01*
X152080649Y-90093252D01*
X152042806Y-90062194D01*
X152011748Y-90024351D01*
X151988671Y-89981178D01*
X151974461Y-89934331D01*
X151969600Y-89884983D01*
X151969600Y-88810017D01*
X151974461Y-88760669D01*
X151988671Y-88713822D01*
X152011748Y-88670649D01*
X152042806Y-88632806D01*
X152080649Y-88601748D01*
X152123822Y-88578671D01*
X152170669Y-88564461D01*
X152220017Y-88559600D01*
X155119983Y-88559600D01*
X155169331Y-88564461D01*
X155169331Y-88564461D01*
G37*
G36*
X164769113Y-88594347D02*
G01*
X164814841Y-88608218D01*
X164856992Y-88630747D01*
X164893935Y-88661065D01*
X164924253Y-88698008D01*
X164946782Y-88740159D01*
X164960653Y-88785887D01*
X164965400Y-88834076D01*
X164965400Y-89445924D01*
X164960653Y-89494113D01*
X164946782Y-89539841D01*
X164924253Y-89581992D01*
X164893935Y-89618935D01*
X164856992Y-89649253D01*
X164814841Y-89671782D01*
X164769113Y-89685653D01*
X164720924Y-89690400D01*
X164209076Y-89690400D01*
X164160887Y-89685653D01*
X164115159Y-89671782D01*
X164073008Y-89649253D01*
X164036065Y-89618935D01*
X164005747Y-89581992D01*
X163983218Y-89539841D01*
X163969347Y-89494113D01*
X163964600Y-89445924D01*
X163964600Y-88834076D01*
X163969347Y-88785887D01*
X163983218Y-88740159D01*
X164005747Y-88698008D01*
X164036065Y-88661065D01*
X164073008Y-88630747D01*
X164115159Y-88608218D01*
X164160887Y-88594347D01*
X164209076Y-88589600D01*
X164720924Y-88589600D01*
X164769113Y-88594347D01*
X164769113Y-88594347D01*
G37*
G36*
X158630400Y-89685400D02*
G01*
X158129600Y-89685400D01*
X158129600Y-88584600D01*
X158630400Y-88584600D01*
X158630400Y-89685400D01*
X158630400Y-89685400D01*
G37*
G36*
X162530400Y-89685400D02*
G01*
X162029600Y-89685400D01*
X162029600Y-88584600D01*
X162530400Y-88584600D01*
X162530400Y-89685400D01*
X162530400Y-89685400D01*
G37*
G36*
X159280400Y-89685400D02*
G01*
X158779600Y-89685400D01*
X158779600Y-88584600D01*
X159280400Y-88584600D01*
X159280400Y-89685400D01*
X159280400Y-89685400D01*
G37*
G36*
X160580400Y-89685400D02*
G01*
X160079600Y-89685400D01*
X160079600Y-88584600D01*
X160580400Y-88584600D01*
X160580400Y-89685400D01*
X160580400Y-89685400D01*
G37*
G36*
X159930400Y-89685400D02*
G01*
X159429600Y-89685400D01*
X159429600Y-88584600D01*
X159930400Y-88584600D01*
X159930400Y-89685400D01*
X159930400Y-89685400D01*
G37*
G36*
X161230400Y-89685400D02*
G01*
X160729600Y-89685400D01*
X160729600Y-88584600D01*
X161230400Y-88584600D01*
X161230400Y-89685400D01*
X161230400Y-89685400D01*
G37*
G36*
X161880400Y-89685400D02*
G01*
X161379600Y-89685400D01*
X161379600Y-88584600D01*
X161880400Y-88584600D01*
X161880400Y-89685400D01*
X161880400Y-89685400D01*
G37*
G36*
X163180400Y-89685400D02*
G01*
X162679600Y-89685400D01*
X162679600Y-88584600D01*
X163180400Y-88584600D01*
X163180400Y-89685400D01*
X163180400Y-89685400D01*
G37*
G36*
X145905400Y-89285400D02*
G01*
X139454600Y-89285400D01*
X139454600Y-83434600D01*
X145905400Y-83434600D01*
X145905400Y-89285400D01*
X145905400Y-89285400D01*
G37*
G36*
X150105400Y-89265400D02*
G01*
X147854600Y-89265400D01*
X147854600Y-88014600D01*
X150105400Y-88014600D01*
X150105400Y-89265400D01*
X150105400Y-89265400D01*
G37*
G36*
X164769113Y-86844347D02*
G01*
X164814841Y-86858218D01*
X164856992Y-86880747D01*
X164893935Y-86911065D01*
X164924253Y-86948008D01*
X164946782Y-86990159D01*
X164960653Y-87035887D01*
X164965400Y-87084076D01*
X164965400Y-87695924D01*
X164960653Y-87744113D01*
X164946782Y-87789841D01*
X164924253Y-87831992D01*
X164893935Y-87868935D01*
X164856992Y-87899253D01*
X164814841Y-87921782D01*
X164769113Y-87935653D01*
X164720924Y-87940400D01*
X164209076Y-87940400D01*
X164160887Y-87935653D01*
X164115159Y-87921782D01*
X164073008Y-87899253D01*
X164036065Y-87868935D01*
X164005747Y-87831992D01*
X163983218Y-87789841D01*
X163969347Y-87744113D01*
X163964600Y-87695924D01*
X163964600Y-87084076D01*
X163969347Y-87035887D01*
X163983218Y-86990159D01*
X164005747Y-86948008D01*
X164036065Y-86911065D01*
X164073008Y-86880747D01*
X164115159Y-86858218D01*
X164160887Y-86844347D01*
X164209076Y-86839600D01*
X164720924Y-86839600D01*
X164769113Y-86844347D01*
X164769113Y-86844347D01*
G37*
G36*
X162470400Y-87855400D02*
G01*
X158839600Y-87855400D01*
X158839600Y-84864600D01*
X162470400Y-84864600D01*
X162470400Y-87855400D01*
X162470400Y-87855400D01*
G37*
G36*
X164769113Y-84784347D02*
G01*
X164814841Y-84798218D01*
X164856992Y-84820747D01*
X164893935Y-84851065D01*
X164924253Y-84888008D01*
X164946782Y-84930159D01*
X164960653Y-84975887D01*
X164965400Y-85024076D01*
X164965400Y-85635924D01*
X164960653Y-85684113D01*
X164946782Y-85729841D01*
X164924253Y-85771992D01*
X164893935Y-85808935D01*
X164856992Y-85839253D01*
X164814841Y-85861782D01*
X164769113Y-85875653D01*
X164720924Y-85880400D01*
X164209076Y-85880400D01*
X164160887Y-85875653D01*
X164115159Y-85861782D01*
X164073008Y-85839253D01*
X164036065Y-85808935D01*
X164005747Y-85771992D01*
X163983218Y-85729841D01*
X163969347Y-85684113D01*
X163964600Y-85635924D01*
X163964600Y-85024076D01*
X163969347Y-84975887D01*
X163983218Y-84930159D01*
X164005747Y-84888008D01*
X164036065Y-84851065D01*
X164073008Y-84820747D01*
X164115159Y-84798218D01*
X164160887Y-84784347D01*
X164209076Y-84779600D01*
X164720924Y-84779600D01*
X164769113Y-84784347D01*
X164769113Y-84784347D01*
G37*
G36*
X150105400Y-84705400D02*
G01*
X147854600Y-84705400D01*
X147854600Y-83454600D01*
X150105400Y-83454600D01*
X150105400Y-84705400D01*
X150105400Y-84705400D01*
G37*
G36*
X155169331Y-82589461D02*
G01*
X155216178Y-82603671D01*
X155259351Y-82626748D01*
X155297194Y-82657806D01*
X155328252Y-82695649D01*
X155351329Y-82738822D01*
X155365539Y-82785669D01*
X155370400Y-82835017D01*
X155370400Y-83909983D01*
X155365539Y-83959331D01*
X155351329Y-84006178D01*
X155328252Y-84049351D01*
X155297194Y-84087194D01*
X155259351Y-84118252D01*
X155216178Y-84141329D01*
X155169331Y-84155539D01*
X155119983Y-84160400D01*
X152220017Y-84160400D01*
X152170669Y-84155539D01*
X152123822Y-84141329D01*
X152080649Y-84118252D01*
X152042806Y-84087194D01*
X152011748Y-84049351D01*
X151988671Y-84006178D01*
X151974461Y-83959331D01*
X151969600Y-83909983D01*
X151969600Y-82835017D01*
X151974461Y-82785669D01*
X151988671Y-82738822D01*
X152011748Y-82695649D01*
X152042806Y-82657806D01*
X152080649Y-82626748D01*
X152123822Y-82603671D01*
X152170669Y-82589461D01*
X152220017Y-82584600D01*
X155119983Y-82584600D01*
X155169331Y-82589461D01*
X155169331Y-82589461D01*
G37*
G36*
X163180400Y-84135400D02*
G01*
X162679600Y-84135400D01*
X162679600Y-83034600D01*
X163180400Y-83034600D01*
X163180400Y-84135400D01*
X163180400Y-84135400D01*
G37*
G36*
X162530400Y-84135400D02*
G01*
X162029600Y-84135400D01*
X162029600Y-83034600D01*
X162530400Y-83034600D01*
X162530400Y-84135400D01*
X162530400Y-84135400D01*
G37*
G36*
X161880400Y-84135400D02*
G01*
X161379600Y-84135400D01*
X161379600Y-83034600D01*
X161880400Y-83034600D01*
X161880400Y-84135400D01*
X161880400Y-84135400D01*
G37*
G36*
X159930400Y-84135400D02*
G01*
X159429600Y-84135400D01*
X159429600Y-83034600D01*
X159930400Y-83034600D01*
X159930400Y-84135400D01*
X159930400Y-84135400D01*
G37*
G36*
X159280400Y-84135400D02*
G01*
X158779600Y-84135400D01*
X158779600Y-83034600D01*
X159280400Y-83034600D01*
X159280400Y-84135400D01*
X159280400Y-84135400D01*
G37*
G36*
X161230400Y-84135400D02*
G01*
X160729600Y-84135400D01*
X160729600Y-83034600D01*
X161230400Y-83034600D01*
X161230400Y-84135400D01*
X161230400Y-84135400D01*
G37*
G36*
X160580400Y-84135400D02*
G01*
X160079600Y-84135400D01*
X160079600Y-83034600D01*
X160580400Y-83034600D01*
X160580400Y-84135400D01*
X160580400Y-84135400D01*
G37*
G36*
X158630400Y-84135400D02*
G01*
X158129600Y-84135400D01*
X158129600Y-83034600D01*
X158630400Y-83034600D01*
X158630400Y-84135400D01*
X158630400Y-84135400D01*
G37*
G36*
X164769113Y-83034347D02*
G01*
X164814841Y-83048218D01*
X164856992Y-83070747D01*
X164893935Y-83101065D01*
X164924253Y-83138008D01*
X164946782Y-83180159D01*
X164960653Y-83225887D01*
X164965400Y-83274076D01*
X164965400Y-83885924D01*
X164960653Y-83934113D01*
X164946782Y-83979841D01*
X164924253Y-84021992D01*
X164893935Y-84058935D01*
X164856992Y-84089253D01*
X164814841Y-84111782D01*
X164769113Y-84125653D01*
X164720924Y-84130400D01*
X164209076Y-84130400D01*
X164160887Y-84125653D01*
X164115159Y-84111782D01*
X164073008Y-84089253D01*
X164036065Y-84058935D01*
X164005747Y-84021992D01*
X163983218Y-83979841D01*
X163969347Y-83934113D01*
X163964600Y-83885924D01*
X163964600Y-83274076D01*
X163969347Y-83225887D01*
X163983218Y-83180159D01*
X164005747Y-83138008D01*
X164036065Y-83101065D01*
X164073008Y-83070747D01*
X164115159Y-83048218D01*
X164160887Y-83034347D01*
X164209076Y-83029600D01*
X164720924Y-83029600D01*
X164769113Y-83034347D01*
X164769113Y-83034347D01*
G37*
G36*
X155239098Y-79659005D02*
G01*
X155425708Y-79736302D01*
X155593652Y-79848518D01*
X155736482Y-79991348D01*
X155848698Y-80159292D01*
X155925995Y-80345902D01*
X155965400Y-80544006D01*
X155965400Y-80745994D01*
X155925995Y-80944098D01*
X155848698Y-81130708D01*
X155736482Y-81298652D01*
X155593652Y-81441482D01*
X155425708Y-81553698D01*
X155239098Y-81630995D01*
X155040994Y-81670400D01*
X154839006Y-81670400D01*
X154640902Y-81630995D01*
X154454292Y-81553698D01*
X154286348Y-81441482D01*
X154143518Y-81298652D01*
X154031302Y-81130708D01*
X153954005Y-80944098D01*
X153914600Y-80745994D01*
X153914600Y-80544006D01*
X153954005Y-80345902D01*
X154031302Y-80159292D01*
X154143518Y-79991348D01*
X154286348Y-79848518D01*
X154454292Y-79736302D01*
X154640902Y-79659005D01*
X154839006Y-79619600D01*
X155040994Y-79619600D01*
X155239098Y-79659005D01*
X155239098Y-79659005D01*
G37*
G36*
X162864113Y-80339347D02*
G01*
X162909841Y-80353218D01*
X162951992Y-80375747D01*
X162988935Y-80406065D01*
X163019253Y-80443008D01*
X163041782Y-80485159D01*
X163055653Y-80530887D01*
X163060400Y-80579076D01*
X163060400Y-81190924D01*
X163055653Y-81239113D01*
X163041782Y-81284841D01*
X163019253Y-81326992D01*
X162988935Y-81363935D01*
X162951992Y-81394253D01*
X162909841Y-81416782D01*
X162864113Y-81430653D01*
X162815924Y-81435400D01*
X162304076Y-81435400D01*
X162255887Y-81430653D01*
X162210159Y-81416782D01*
X162168008Y-81394253D01*
X162131065Y-81363935D01*
X162100747Y-81326992D01*
X162078218Y-81284841D01*
X162064347Y-81239113D01*
X162059600Y-81190924D01*
X162059600Y-80579076D01*
X162064347Y-80530887D01*
X162078218Y-80485159D01*
X162100747Y-80443008D01*
X162131065Y-80406065D01*
X162168008Y-80375747D01*
X162210159Y-80353218D01*
X162255887Y-80339347D01*
X162304076Y-80334600D01*
X162815924Y-80334600D01*
X162864113Y-80339347D01*
X162864113Y-80339347D01*
G37*
G36*
X160959113Y-80339347D02*
G01*
X161004841Y-80353218D01*
X161046992Y-80375747D01*
X161083935Y-80406065D01*
X161114253Y-80443008D01*
X161136782Y-80485159D01*
X161150653Y-80530887D01*
X161155400Y-80579076D01*
X161155400Y-81190924D01*
X161150653Y-81239113D01*
X161136782Y-81284841D01*
X161114253Y-81326992D01*
X161083935Y-81363935D01*
X161046992Y-81394253D01*
X161004841Y-81416782D01*
X160959113Y-81430653D01*
X160910924Y-81435400D01*
X160399076Y-81435400D01*
X160350887Y-81430653D01*
X160305159Y-81416782D01*
X160263008Y-81394253D01*
X160226065Y-81363935D01*
X160195747Y-81326992D01*
X160173218Y-81284841D01*
X160159347Y-81239113D01*
X160154600Y-81190924D01*
X160154600Y-80579076D01*
X160159347Y-80530887D01*
X160173218Y-80485159D01*
X160195747Y-80443008D01*
X160226065Y-80406065D01*
X160263008Y-80375747D01*
X160305159Y-80353218D01*
X160350887Y-80339347D01*
X160399076Y-80334600D01*
X160910924Y-80334600D01*
X160959113Y-80339347D01*
X160959113Y-80339347D01*
G37*
G36*
X159054113Y-80339347D02*
G01*
X159099841Y-80353218D01*
X159141992Y-80375747D01*
X159178935Y-80406065D01*
X159209253Y-80443008D01*
X159231782Y-80485159D01*
X159245653Y-80530887D01*
X159250400Y-80579076D01*
X159250400Y-81190924D01*
X159245653Y-81239113D01*
X159231782Y-81284841D01*
X159209253Y-81326992D01*
X159178935Y-81363935D01*
X159141992Y-81394253D01*
X159099841Y-81416782D01*
X159054113Y-81430653D01*
X159005924Y-81435400D01*
X158494076Y-81435400D01*
X158445887Y-81430653D01*
X158400159Y-81416782D01*
X158358008Y-81394253D01*
X158321065Y-81363935D01*
X158290747Y-81326992D01*
X158268218Y-81284841D01*
X158254347Y-81239113D01*
X158249600Y-81190924D01*
X158249600Y-80579076D01*
X158254347Y-80530887D01*
X158268218Y-80485159D01*
X158290747Y-80443008D01*
X158321065Y-80406065D01*
X158358008Y-80375747D01*
X158400159Y-80353218D01*
X158445887Y-80339347D01*
X158494076Y-80334600D01*
X159005924Y-80334600D01*
X159054113Y-80339347D01*
X159054113Y-80339347D01*
G37*
G36*
X159054113Y-78589347D02*
G01*
X159099841Y-78603218D01*
X159141992Y-78625747D01*
X159178935Y-78656065D01*
X159209253Y-78693008D01*
X159231782Y-78735159D01*
X159245653Y-78780887D01*
X159250400Y-78829076D01*
X159250400Y-79440924D01*
X159245653Y-79489113D01*
X159231782Y-79534841D01*
X159209253Y-79576992D01*
X159178935Y-79613935D01*
X159141992Y-79644253D01*
X159099841Y-79666782D01*
X159054113Y-79680653D01*
X159005924Y-79685400D01*
X158494076Y-79685400D01*
X158445887Y-79680653D01*
X158400159Y-79666782D01*
X158358008Y-79644253D01*
X158321065Y-79613935D01*
X158290747Y-79576992D01*
X158268218Y-79534841D01*
X158254347Y-79489113D01*
X158249600Y-79440924D01*
X158249600Y-78829076D01*
X158254347Y-78780887D01*
X158268218Y-78735159D01*
X158290747Y-78693008D01*
X158321065Y-78656065D01*
X158358008Y-78625747D01*
X158400159Y-78603218D01*
X158445887Y-78589347D01*
X158494076Y-78584600D01*
X159005924Y-78584600D01*
X159054113Y-78589347D01*
X159054113Y-78589347D01*
G37*
G36*
X160959113Y-78589347D02*
G01*
X161004841Y-78603218D01*
X161046992Y-78625747D01*
X161083935Y-78656065D01*
X161114253Y-78693008D01*
X161136782Y-78735159D01*
X161150653Y-78780887D01*
X161155400Y-78829076D01*
X161155400Y-79440924D01*
X161150653Y-79489113D01*
X161136782Y-79534841D01*
X161114253Y-79576992D01*
X161083935Y-79613935D01*
X161046992Y-79644253D01*
X161004841Y-79666782D01*
X160959113Y-79680653D01*
X160910924Y-79685400D01*
X160399076Y-79685400D01*
X160350887Y-79680653D01*
X160305159Y-79666782D01*
X160263008Y-79644253D01*
X160226065Y-79613935D01*
X160195747Y-79576992D01*
X160173218Y-79534841D01*
X160159347Y-79489113D01*
X160154600Y-79440924D01*
X160154600Y-78829076D01*
X160159347Y-78780887D01*
X160173218Y-78735159D01*
X160195747Y-78693008D01*
X160226065Y-78656065D01*
X160263008Y-78625747D01*
X160305159Y-78603218D01*
X160350887Y-78589347D01*
X160399076Y-78584600D01*
X160910924Y-78584600D01*
X160959113Y-78589347D01*
X160959113Y-78589347D01*
G37*
G36*
X162864113Y-78589347D02*
G01*
X162909841Y-78603218D01*
X162951992Y-78625747D01*
X162988935Y-78656065D01*
X163019253Y-78693008D01*
X163041782Y-78735159D01*
X163055653Y-78780887D01*
X163060400Y-78829076D01*
X163060400Y-79440924D01*
X163055653Y-79489113D01*
X163041782Y-79534841D01*
X163019253Y-79576992D01*
X162988935Y-79613935D01*
X162951992Y-79644253D01*
X162909841Y-79666782D01*
X162864113Y-79680653D01*
X162815924Y-79685400D01*
X162304076Y-79685400D01*
X162255887Y-79680653D01*
X162210159Y-79666782D01*
X162168008Y-79644253D01*
X162131065Y-79613935D01*
X162100747Y-79576992D01*
X162078218Y-79534841D01*
X162064347Y-79489113D01*
X162059600Y-79440924D01*
X162059600Y-78829076D01*
X162064347Y-78780887D01*
X162078218Y-78735159D01*
X162100747Y-78693008D01*
X162131065Y-78656065D01*
X162168008Y-78625747D01*
X162210159Y-78603218D01*
X162255887Y-78589347D01*
X162304076Y-78584600D01*
X162815924Y-78584600D01*
X162864113Y-78589347D01*
X162864113Y-78589347D01*
G37*
G36*
X158178625Y-76954478D02*
G01*
X158225636Y-76968738D01*
X158268960Y-76991896D01*
X158306937Y-77023063D01*
X158338104Y-77061040D01*
X158361262Y-77104364D01*
X158375522Y-77151375D01*
X158380400Y-77200895D01*
X158380400Y-78174105D01*
X158375522Y-78223625D01*
X158361262Y-78270636D01*
X158338104Y-78313960D01*
X158306937Y-78351937D01*
X158268960Y-78383104D01*
X158225636Y-78406262D01*
X158178625Y-78420522D01*
X158129105Y-78425400D01*
X156830895Y-78425400D01*
X156781375Y-78420522D01*
X156734364Y-78406262D01*
X156691040Y-78383104D01*
X156653063Y-78351937D01*
X156621896Y-78313960D01*
X156598738Y-78270636D01*
X156584478Y-78223625D01*
X156579600Y-78174105D01*
X156579600Y-77200895D01*
X156584478Y-77151375D01*
X156598738Y-77104364D01*
X156621896Y-77061040D01*
X156653063Y-77023063D01*
X156691040Y-76991896D01*
X156734364Y-76968738D01*
X156781375Y-76954478D01*
X156830895Y-76949600D01*
X158129105Y-76949600D01*
X158178625Y-76954478D01*
X158178625Y-76954478D01*
G37*
G36*
X144245514Y-74134207D02*
G01*
X144338697Y-74162473D01*
X144424574Y-74208376D01*
X144499848Y-74270152D01*
X144561624Y-74345426D01*
X144607527Y-74431303D01*
X144635793Y-74524486D01*
X144645400Y-74622023D01*
X144645400Y-77777977D01*
X144635793Y-77875514D01*
X144607527Y-77968697D01*
X144561624Y-78054574D01*
X144499848Y-78129848D01*
X144424574Y-78191624D01*
X144338697Y-78237527D01*
X144245514Y-78265793D01*
X144147977Y-78275400D01*
X139592023Y-78275400D01*
X139494486Y-78265793D01*
X139401303Y-78237527D01*
X139315426Y-78191624D01*
X139240152Y-78129848D01*
X139178376Y-78054574D01*
X139132473Y-77968697D01*
X139104207Y-77875514D01*
X139094600Y-77777977D01*
X139094600Y-74622023D01*
X139104207Y-74524486D01*
X139132473Y-74431303D01*
X139178376Y-74345426D01*
X139240152Y-74270152D01*
X139315426Y-74208376D01*
X139401303Y-74162473D01*
X139494486Y-74134207D01*
X139592023Y-74124600D01*
X144147977Y-74124600D01*
X144245514Y-74134207D01*
X144245514Y-74134207D01*
G37*
G36*
X155145514Y-74134207D02*
G01*
X155238697Y-74162473D01*
X155324574Y-74208376D01*
X155399848Y-74270152D01*
X155461624Y-74345426D01*
X155507527Y-74431303D01*
X155535793Y-74524486D01*
X155545400Y-74622023D01*
X155545400Y-77777977D01*
X155535793Y-77875514D01*
X155507527Y-77968697D01*
X155461624Y-78054574D01*
X155399848Y-78129848D01*
X155324574Y-78191624D01*
X155238697Y-78237527D01*
X155145514Y-78265793D01*
X155047977Y-78275400D01*
X150492023Y-78275400D01*
X150394486Y-78265793D01*
X150301303Y-78237527D01*
X150215426Y-78191624D01*
X150140152Y-78129848D01*
X150078376Y-78054574D01*
X150032473Y-77968697D01*
X150004207Y-77875514D01*
X149994600Y-77777977D01*
X149994600Y-74622023D01*
X150004207Y-74524486D01*
X150032473Y-74431303D01*
X150078376Y-74345426D01*
X150140152Y-74270152D01*
X150215426Y-74208376D01*
X150301303Y-74162473D01*
X150394486Y-74134207D01*
X150492023Y-74124600D01*
X155047977Y-74124600D01*
X155145514Y-74134207D01*
X155145514Y-74134207D01*
G37*
G36*
X160541052Y-76629539D02*
G01*
X160588659Y-76643980D01*
X160632544Y-76667437D01*
X160671001Y-76698999D01*
X160702563Y-76737456D01*
X160726020Y-76781341D01*
X160740461Y-76828948D01*
X160745400Y-76879091D01*
X160745400Y-77570909D01*
X160740461Y-77621052D01*
X160726020Y-77668659D01*
X160702563Y-77712544D01*
X160671001Y-77751001D01*
X160632544Y-77782563D01*
X160588659Y-77806020D01*
X160541052Y-77820461D01*
X160490909Y-77825400D01*
X159549091Y-77825400D01*
X159498948Y-77820461D01*
X159451341Y-77806020D01*
X159407456Y-77782563D01*
X159368999Y-77751001D01*
X159337437Y-77712544D01*
X159313980Y-77668659D01*
X159299539Y-77621052D01*
X159294600Y-77570909D01*
X159294600Y-76879091D01*
X159299539Y-76828948D01*
X159313980Y-76781341D01*
X159337437Y-76737456D01*
X159368999Y-76698999D01*
X159407456Y-76667437D01*
X159451341Y-76643980D01*
X159498948Y-76629539D01*
X159549091Y-76624600D01*
X160490909Y-76624600D01*
X160541052Y-76629539D01*
X160541052Y-76629539D01*
G37*
G36*
X163240098Y-74071005D02*
G01*
X163426708Y-74148302D01*
X163594652Y-74260518D01*
X163737482Y-74403348D01*
X163849698Y-74571292D01*
X163926995Y-74757902D01*
X163966400Y-74956006D01*
X163966400Y-75157994D01*
X163926995Y-75356098D01*
X163849698Y-75542708D01*
X163737482Y-75710652D01*
X163594652Y-75853482D01*
X163426708Y-75965698D01*
X163240098Y-76042995D01*
X163041994Y-76082400D01*
X162840006Y-76082400D01*
X162641902Y-76042995D01*
X162455292Y-75965698D01*
X162287348Y-75853482D01*
X162144518Y-75710652D01*
X162032302Y-75542708D01*
X161955005Y-75356098D01*
X161915600Y-75157994D01*
X161915600Y-74956006D01*
X161955005Y-74757902D01*
X162032302Y-74571292D01*
X162144518Y-74403348D01*
X162287348Y-74260518D01*
X162455292Y-74148302D01*
X162641902Y-74071005D01*
X162840006Y-74031600D01*
X163041994Y-74031600D01*
X163240098Y-74071005D01*
X163240098Y-74071005D01*
G37*
G36*
X160541052Y-74579539D02*
G01*
X160588659Y-74593980D01*
X160632544Y-74617437D01*
X160671001Y-74648999D01*
X160702563Y-74687456D01*
X160726020Y-74731341D01*
X160740461Y-74778948D01*
X160745400Y-74829091D01*
X160745400Y-75520909D01*
X160740461Y-75571052D01*
X160726020Y-75618659D01*
X160702563Y-75662544D01*
X160671001Y-75701001D01*
X160632544Y-75732563D01*
X160588659Y-75756020D01*
X160541052Y-75770461D01*
X160490909Y-75775400D01*
X159549091Y-75775400D01*
X159498948Y-75770461D01*
X159451341Y-75756020D01*
X159407456Y-75732563D01*
X159368999Y-75701001D01*
X159337437Y-75662544D01*
X159313980Y-75618659D01*
X159299539Y-75571052D01*
X159294600Y-75520909D01*
X159294600Y-74829091D01*
X159299539Y-74778948D01*
X159313980Y-74731341D01*
X159337437Y-74687456D01*
X159368999Y-74648999D01*
X159407456Y-74617437D01*
X159451341Y-74593980D01*
X159498948Y-74579539D01*
X159549091Y-74574600D01*
X160490909Y-74574600D01*
X160541052Y-74579539D01*
X160541052Y-74579539D01*
G37*
G36*
X158178625Y-73979478D02*
G01*
X158225636Y-73993738D01*
X158268960Y-74016896D01*
X158306937Y-74048063D01*
X158338104Y-74086040D01*
X158361262Y-74129364D01*
X158375522Y-74176375D01*
X158380400Y-74225895D01*
X158380400Y-75199105D01*
X158375522Y-75248625D01*
X158361262Y-75295636D01*
X158338104Y-75338960D01*
X158306937Y-75376937D01*
X158268960Y-75408104D01*
X158225636Y-75431262D01*
X158178625Y-75445522D01*
X158129105Y-75450400D01*
X156830895Y-75450400D01*
X156781375Y-75445522D01*
X156734364Y-75431262D01*
X156691040Y-75408104D01*
X156653063Y-75376937D01*
X156621896Y-75338960D01*
X156598738Y-75295636D01*
X156584478Y-75248625D01*
X156579600Y-75199105D01*
X156579600Y-74225895D01*
X156584478Y-74176375D01*
X156598738Y-74129364D01*
X156621896Y-74086040D01*
X156653063Y-74048063D01*
X156691040Y-74016896D01*
X156734364Y-73993738D01*
X156781375Y-73979478D01*
X156830895Y-73974600D01*
X158129105Y-73974600D01*
X158178625Y-73979478D01*
X158178625Y-73979478D01*
G37*
G36*
X162229113Y-70814347D02*
G01*
X162274841Y-70828218D01*
X162316992Y-70850747D01*
X162353935Y-70881065D01*
X162384253Y-70918008D01*
X162406782Y-70960159D01*
X162420653Y-71005887D01*
X162425400Y-71054076D01*
X162425400Y-71665924D01*
X162420653Y-71714113D01*
X162406782Y-71759841D01*
X162384253Y-71801992D01*
X162353935Y-71838935D01*
X162316992Y-71869253D01*
X162274841Y-71891782D01*
X162229113Y-71905653D01*
X162180924Y-71910400D01*
X161669076Y-71910400D01*
X161620887Y-71905653D01*
X161575159Y-71891782D01*
X161533008Y-71869253D01*
X161496065Y-71838935D01*
X161465747Y-71801992D01*
X161443218Y-71759841D01*
X161429347Y-71714113D01*
X161424600Y-71665924D01*
X161424600Y-71054076D01*
X161429347Y-71005887D01*
X161443218Y-70960159D01*
X161465747Y-70918008D01*
X161496065Y-70881065D01*
X161533008Y-70850747D01*
X161575159Y-70828218D01*
X161620887Y-70814347D01*
X161669076Y-70809600D01*
X162180924Y-70809600D01*
X162229113Y-70814347D01*
X162229113Y-70814347D01*
G37*
G36*
X164134113Y-70814347D02*
G01*
X164179841Y-70828218D01*
X164221992Y-70850747D01*
X164258935Y-70881065D01*
X164289253Y-70918008D01*
X164311782Y-70960159D01*
X164325653Y-71005887D01*
X164330400Y-71054076D01*
X164330400Y-71665924D01*
X164325653Y-71714113D01*
X164311782Y-71759841D01*
X164289253Y-71801992D01*
X164258935Y-71838935D01*
X164221992Y-71869253D01*
X164179841Y-71891782D01*
X164134113Y-71905653D01*
X164085924Y-71910400D01*
X163574076Y-71910400D01*
X163525887Y-71905653D01*
X163480159Y-71891782D01*
X163438008Y-71869253D01*
X163401065Y-71838935D01*
X163370747Y-71801992D01*
X163348218Y-71759841D01*
X163334347Y-71714113D01*
X163329600Y-71665924D01*
X163329600Y-71054076D01*
X163334347Y-71005887D01*
X163348218Y-70960159D01*
X163370747Y-70918008D01*
X163401065Y-70881065D01*
X163438008Y-70850747D01*
X163480159Y-70828218D01*
X163525887Y-70814347D01*
X163574076Y-70809600D01*
X164085924Y-70809600D01*
X164134113Y-70814347D01*
X164134113Y-70814347D01*
G37*
G36*
X162229113Y-69064347D02*
G01*
X162274841Y-69078218D01*
X162316992Y-69100747D01*
X162353935Y-69131065D01*
X162384253Y-69168008D01*
X162406782Y-69210159D01*
X162420653Y-69255887D01*
X162425400Y-69304076D01*
X162425400Y-69915924D01*
X162420653Y-69964113D01*
X162406782Y-70009841D01*
X162384253Y-70051992D01*
X162353935Y-70088935D01*
X162316992Y-70119253D01*
X162274841Y-70141782D01*
X162229113Y-70155653D01*
X162180924Y-70160400D01*
X161669076Y-70160400D01*
X161620887Y-70155653D01*
X161575159Y-70141782D01*
X161533008Y-70119253D01*
X161496065Y-70088935D01*
X161465747Y-70051992D01*
X161443218Y-70009841D01*
X161429347Y-69964113D01*
X161424600Y-69915924D01*
X161424600Y-69304076D01*
X161429347Y-69255887D01*
X161443218Y-69210159D01*
X161465747Y-69168008D01*
X161496065Y-69131065D01*
X161533008Y-69100747D01*
X161575159Y-69078218D01*
X161620887Y-69064347D01*
X161669076Y-69059600D01*
X162180924Y-69059600D01*
X162229113Y-69064347D01*
X162229113Y-69064347D01*
G37*
G36*
X164134113Y-69064347D02*
G01*
X164179841Y-69078218D01*
X164221992Y-69100747D01*
X164258935Y-69131065D01*
X164289253Y-69168008D01*
X164311782Y-69210159D01*
X164325653Y-69255887D01*
X164330400Y-69304076D01*
X164330400Y-69915924D01*
X164325653Y-69964113D01*
X164311782Y-70009841D01*
X164289253Y-70051992D01*
X164258935Y-70088935D01*
X164221992Y-70119253D01*
X164179841Y-70141782D01*
X164134113Y-70155653D01*
X164085924Y-70160400D01*
X163574076Y-70160400D01*
X163525887Y-70155653D01*
X163480159Y-70141782D01*
X163438008Y-70119253D01*
X163401065Y-70088935D01*
X163370747Y-70051992D01*
X163348218Y-70009841D01*
X163334347Y-69964113D01*
X163329600Y-69915924D01*
X163329600Y-69304076D01*
X163334347Y-69255887D01*
X163348218Y-69210159D01*
X163370747Y-69168008D01*
X163401065Y-69131065D01*
X163438008Y-69100747D01*
X163480159Y-69078218D01*
X163525887Y-69064347D01*
X163574076Y-69059600D01*
X164085924Y-69059600D01*
X164134113Y-69064347D01*
X164134113Y-69064347D01*
G37*
G36*
X148819331Y-68244461D02*
G01*
X148866178Y-68258671D01*
X148909351Y-68281748D01*
X148947194Y-68312806D01*
X148978252Y-68350649D01*
X149001329Y-68393822D01*
X149015539Y-68440669D01*
X149020400Y-68490017D01*
X149020400Y-69564983D01*
X149015539Y-69614331D01*
X149001329Y-69661178D01*
X148978252Y-69704351D01*
X148947194Y-69742194D01*
X148909351Y-69773252D01*
X148866178Y-69796329D01*
X148819331Y-69810539D01*
X148769983Y-69815400D01*
X145870017Y-69815400D01*
X145820669Y-69810539D01*
X145773822Y-69796329D01*
X145730649Y-69773252D01*
X145692806Y-69742194D01*
X145661748Y-69704351D01*
X145638671Y-69661178D01*
X145624461Y-69614331D01*
X145619600Y-69564983D01*
X145619600Y-68490017D01*
X145624461Y-68440669D01*
X145638671Y-68393822D01*
X145661748Y-68350649D01*
X145692806Y-68312806D01*
X145730649Y-68281748D01*
X145773822Y-68258671D01*
X145820669Y-68244461D01*
X145870017Y-68239600D01*
X148769983Y-68239600D01*
X148819331Y-68244461D01*
X148819331Y-68244461D01*
G37*
G36*
X153899331Y-68244461D02*
G01*
X153946178Y-68258671D01*
X153989351Y-68281748D01*
X154027194Y-68312806D01*
X154058252Y-68350649D01*
X154081329Y-68393822D01*
X154095539Y-68440669D01*
X154100400Y-68490017D01*
X154100400Y-69564983D01*
X154095539Y-69614331D01*
X154081329Y-69661178D01*
X154058252Y-69704351D01*
X154027194Y-69742194D01*
X153989351Y-69773252D01*
X153946178Y-69796329D01*
X153899331Y-69810539D01*
X153849983Y-69815400D01*
X150950017Y-69815400D01*
X150900669Y-69810539D01*
X150853822Y-69796329D01*
X150810649Y-69773252D01*
X150772806Y-69742194D01*
X150741748Y-69704351D01*
X150718671Y-69661178D01*
X150704461Y-69614331D01*
X150699600Y-69564983D01*
X150699600Y-68490017D01*
X150704461Y-68440669D01*
X150718671Y-68393822D01*
X150741748Y-68350649D01*
X150772806Y-68312806D01*
X150810649Y-68281748D01*
X150853822Y-68258671D01*
X150900669Y-68244461D01*
X150950017Y-68239600D01*
X153849983Y-68239600D01*
X153899331Y-68244461D01*
X153899331Y-68244461D01*
G37*
G36*
X143739331Y-68244461D02*
G01*
X143786178Y-68258671D01*
X143829351Y-68281748D01*
X143867194Y-68312806D01*
X143898252Y-68350649D01*
X143921329Y-68393822D01*
X143935539Y-68440669D01*
X143940400Y-68490017D01*
X143940400Y-69564983D01*
X143935539Y-69614331D01*
X143921329Y-69661178D01*
X143898252Y-69704351D01*
X143867194Y-69742194D01*
X143829351Y-69773252D01*
X143786178Y-69796329D01*
X143739331Y-69810539D01*
X143689983Y-69815400D01*
X140790017Y-69815400D01*
X140740669Y-69810539D01*
X140693822Y-69796329D01*
X140650649Y-69773252D01*
X140612806Y-69742194D01*
X140581748Y-69704351D01*
X140558671Y-69661178D01*
X140544461Y-69614331D01*
X140539600Y-69564983D01*
X140539600Y-68490017D01*
X140544461Y-68440669D01*
X140558671Y-68393822D01*
X140581748Y-68350649D01*
X140612806Y-68312806D01*
X140650649Y-68281748D01*
X140693822Y-68258671D01*
X140740669Y-68244461D01*
X140790017Y-68239600D01*
X143689983Y-68239600D01*
X143739331Y-68244461D01*
X143739331Y-68244461D01*
G37*
G36*
X156509098Y-66959005D02*
G01*
X156695708Y-67036302D01*
X156863652Y-67148518D01*
X157006482Y-67291348D01*
X157118698Y-67459292D01*
X157195995Y-67645902D01*
X157235400Y-67844006D01*
X157235400Y-68045994D01*
X157195995Y-68244098D01*
X157118698Y-68430708D01*
X157006482Y-68598652D01*
X156863652Y-68741482D01*
X156695708Y-68853698D01*
X156509098Y-68930995D01*
X156310994Y-68970400D01*
X156109006Y-68970400D01*
X155910902Y-68930995D01*
X155724292Y-68853698D01*
X155556348Y-68741482D01*
X155413518Y-68598652D01*
X155301302Y-68430708D01*
X155224005Y-68244098D01*
X155184600Y-68045994D01*
X155184600Y-67844006D01*
X155224005Y-67645902D01*
X155301302Y-67459292D01*
X155413518Y-67291348D01*
X155556348Y-67148518D01*
X155724292Y-67036302D01*
X155910902Y-66959005D01*
X156109006Y-66919600D01*
X156310994Y-66919600D01*
X156509098Y-66959005D01*
X156509098Y-66959005D01*
G37*
G36*
X164134113Y-66369347D02*
G01*
X164179841Y-66383218D01*
X164221992Y-66405747D01*
X164258935Y-66436065D01*
X164289253Y-66473008D01*
X164311782Y-66515159D01*
X164325653Y-66560887D01*
X164330400Y-66609076D01*
X164330400Y-67220924D01*
X164325653Y-67269113D01*
X164311782Y-67314841D01*
X164289253Y-67356992D01*
X164258935Y-67393935D01*
X164221992Y-67424253D01*
X164179841Y-67446782D01*
X164134113Y-67460653D01*
X164085924Y-67465400D01*
X163574076Y-67465400D01*
X163525887Y-67460653D01*
X163480159Y-67446782D01*
X163438008Y-67424253D01*
X163401065Y-67393935D01*
X163370747Y-67356992D01*
X163348218Y-67314841D01*
X163334347Y-67269113D01*
X163329600Y-67220924D01*
X163329600Y-66609076D01*
X163334347Y-66560887D01*
X163348218Y-66515159D01*
X163370747Y-66473008D01*
X163401065Y-66436065D01*
X163438008Y-66405747D01*
X163480159Y-66383218D01*
X163525887Y-66369347D01*
X163574076Y-66364600D01*
X164085924Y-66364600D01*
X164134113Y-66369347D01*
X164134113Y-66369347D01*
G37*
G36*
X162810400Y-67340400D02*
G01*
X161199600Y-67340400D01*
X161199600Y-66639600D01*
X162810400Y-66639600D01*
X162810400Y-67340400D01*
X162810400Y-67340400D01*
G37*
G36*
X160110400Y-67340400D02*
G01*
X158499600Y-67340400D01*
X158499600Y-66639600D01*
X160110400Y-66639600D01*
X160110400Y-67340400D01*
X160110400Y-67340400D01*
G37*
G36*
X160110400Y-66390400D02*
G01*
X158499600Y-66390400D01*
X158499600Y-65689600D01*
X160110400Y-65689600D01*
X160110400Y-66390400D01*
X160110400Y-66390400D01*
G37*
G36*
X164134113Y-64619347D02*
G01*
X164179841Y-64633218D01*
X164221992Y-64655747D01*
X164258935Y-64686065D01*
X164289253Y-64723008D01*
X164311782Y-64765159D01*
X164325653Y-64810887D01*
X164330400Y-64859076D01*
X164330400Y-65470924D01*
X164325653Y-65519113D01*
X164311782Y-65564841D01*
X164289253Y-65606992D01*
X164258935Y-65643935D01*
X164221992Y-65674253D01*
X164179841Y-65696782D01*
X164134113Y-65710653D01*
X164085924Y-65715400D01*
X163574076Y-65715400D01*
X163525887Y-65710653D01*
X163480159Y-65696782D01*
X163438008Y-65674253D01*
X163401065Y-65643935D01*
X163370747Y-65606992D01*
X163348218Y-65564841D01*
X163334347Y-65519113D01*
X163329600Y-65470924D01*
X163329600Y-64859076D01*
X163334347Y-64810887D01*
X163348218Y-64765159D01*
X163370747Y-64723008D01*
X163401065Y-64686065D01*
X163438008Y-64655747D01*
X163480159Y-64633218D01*
X163525887Y-64619347D01*
X163574076Y-64614600D01*
X164085924Y-64614600D01*
X164134113Y-64619347D01*
X164134113Y-64619347D01*
G37*
G36*
X162810400Y-65440400D02*
G01*
X161199600Y-65440400D01*
X161199600Y-64739600D01*
X162810400Y-64739600D01*
X162810400Y-65440400D01*
X162810400Y-65440400D01*
G37*
G36*
X160110400Y-65440400D02*
G01*
X158499600Y-65440400D01*
X158499600Y-64739600D01*
X160110400Y-64739600D01*
X160110400Y-65440400D01*
X160110400Y-65440400D01*
G37*
G36*
X156509098Y-63149005D02*
G01*
X156695708Y-63226302D01*
X156863652Y-63338518D01*
X157006482Y-63481348D01*
X157118698Y-63649292D01*
X157195995Y-63835902D01*
X157235400Y-64034006D01*
X157235400Y-64235994D01*
X157195995Y-64434098D01*
X157118698Y-64620708D01*
X157006482Y-64788652D01*
X156863652Y-64931482D01*
X156695708Y-65043698D01*
X156509098Y-65120995D01*
X156310994Y-65160400D01*
X156109006Y-65160400D01*
X155910902Y-65120995D01*
X155724292Y-65043698D01*
X155556348Y-64931482D01*
X155413518Y-64788652D01*
X155301302Y-64620708D01*
X155224005Y-64434098D01*
X155184600Y-64235994D01*
X155184600Y-64034006D01*
X155224005Y-63835902D01*
X155301302Y-63649292D01*
X155413518Y-63481348D01*
X155556348Y-63338518D01*
X155724292Y-63226302D01*
X155910902Y-63149005D01*
X156109006Y-63109600D01*
X156310994Y-63109600D01*
X156509098Y-63149005D01*
X156509098Y-63149005D01*
G37*
G36*
X148819331Y-62269461D02*
G01*
X148866178Y-62283671D01*
X148909351Y-62306748D01*
X148947194Y-62337806D01*
X148978252Y-62375649D01*
X149001329Y-62418822D01*
X149015539Y-62465669D01*
X149020400Y-62515017D01*
X149020400Y-63589983D01*
X149015539Y-63639331D01*
X149001329Y-63686178D01*
X148978252Y-63729351D01*
X148947194Y-63767194D01*
X148909351Y-63798252D01*
X148866178Y-63821329D01*
X148819331Y-63835539D01*
X148769983Y-63840400D01*
X145870017Y-63840400D01*
X145820669Y-63835539D01*
X145773822Y-63821329D01*
X145730649Y-63798252D01*
X145692806Y-63767194D01*
X145661748Y-63729351D01*
X145638671Y-63686178D01*
X145624461Y-63639331D01*
X145619600Y-63589983D01*
X145619600Y-62515017D01*
X145624461Y-62465669D01*
X145638671Y-62418822D01*
X145661748Y-62375649D01*
X145692806Y-62337806D01*
X145730649Y-62306748D01*
X145773822Y-62283671D01*
X145820669Y-62269461D01*
X145870017Y-62264600D01*
X148769983Y-62264600D01*
X148819331Y-62269461D01*
X148819331Y-62269461D01*
G37*
G36*
X153899331Y-62269461D02*
G01*
X153946178Y-62283671D01*
X153989351Y-62306748D01*
X154027194Y-62337806D01*
X154058252Y-62375649D01*
X154081329Y-62418822D01*
X154095539Y-62465669D01*
X154100400Y-62515017D01*
X154100400Y-63589983D01*
X154095539Y-63639331D01*
X154081329Y-63686178D01*
X154058252Y-63729351D01*
X154027194Y-63767194D01*
X153989351Y-63798252D01*
X153946178Y-63821329D01*
X153899331Y-63835539D01*
X153849983Y-63840400D01*
X150950017Y-63840400D01*
X150900669Y-63835539D01*
X150853822Y-63821329D01*
X150810649Y-63798252D01*
X150772806Y-63767194D01*
X150741748Y-63729351D01*
X150718671Y-63686178D01*
X150704461Y-63639331D01*
X150699600Y-63589983D01*
X150699600Y-62515017D01*
X150704461Y-62465669D01*
X150718671Y-62418822D01*
X150741748Y-62375649D01*
X150772806Y-62337806D01*
X150810649Y-62306748D01*
X150853822Y-62283671D01*
X150900669Y-62269461D01*
X150950017Y-62264600D01*
X153849983Y-62264600D01*
X153899331Y-62269461D01*
X153899331Y-62269461D01*
G37*
G36*
X143739331Y-62269461D02*
G01*
X143786178Y-62283671D01*
X143829351Y-62306748D01*
X143867194Y-62337806D01*
X143898252Y-62375649D01*
X143921329Y-62418822D01*
X143935539Y-62465669D01*
X143940400Y-62515017D01*
X143940400Y-63589983D01*
X143935539Y-63639331D01*
X143921329Y-63686178D01*
X143898252Y-63729351D01*
X143867194Y-63767194D01*
X143829351Y-63798252D01*
X143786178Y-63821329D01*
X143739331Y-63835539D01*
X143689983Y-63840400D01*
X140790017Y-63840400D01*
X140740669Y-63835539D01*
X140693822Y-63821329D01*
X140650649Y-63798252D01*
X140612806Y-63767194D01*
X140581748Y-63729351D01*
X140558671Y-63686178D01*
X140544461Y-63639331D01*
X140539600Y-63589983D01*
X140539600Y-62515017D01*
X140544461Y-62465669D01*
X140558671Y-62418822D01*
X140581748Y-62375649D01*
X140612806Y-62337806D01*
X140650649Y-62306748D01*
X140693822Y-62283671D01*
X140740669Y-62269461D01*
X140790017Y-62264600D01*
X143689983Y-62264600D01*
X143739331Y-62269461D01*
X143739331Y-62269461D01*
G37*
G36*
X149115400Y-61465400D02*
G01*
X148064600Y-61465400D01*
X148064600Y-60414600D01*
X149115400Y-60414600D01*
X149115400Y-61465400D01*
X149115400Y-61465400D01*
G37*
G36*
X156000400Y-61165400D02*
G01*
X155149600Y-61165400D01*
X155149600Y-60214600D01*
X156000400Y-60214600D01*
X156000400Y-61165400D01*
X156000400Y-61165400D01*
G37*
G36*
X160959113Y-60019347D02*
G01*
X161004841Y-60033218D01*
X161046992Y-60055747D01*
X161083935Y-60086065D01*
X161114253Y-60123008D01*
X161136782Y-60165159D01*
X161150653Y-60210887D01*
X161155400Y-60259076D01*
X161155400Y-60870924D01*
X161150653Y-60919113D01*
X161136782Y-60964841D01*
X161114253Y-61006992D01*
X161083935Y-61043935D01*
X161046992Y-61074253D01*
X161004841Y-61096782D01*
X160959113Y-61110653D01*
X160910924Y-61115400D01*
X160399076Y-61115400D01*
X160350887Y-61110653D01*
X160305159Y-61096782D01*
X160263008Y-61074253D01*
X160226065Y-61043935D01*
X160195747Y-61006992D01*
X160173218Y-60964841D01*
X160159347Y-60919113D01*
X160154600Y-60870924D01*
X160154600Y-60259076D01*
X160159347Y-60210887D01*
X160173218Y-60165159D01*
X160195747Y-60123008D01*
X160226065Y-60086065D01*
X160263008Y-60055747D01*
X160305159Y-60033218D01*
X160350887Y-60019347D01*
X160399076Y-60014600D01*
X160910924Y-60014600D01*
X160959113Y-60019347D01*
X160959113Y-60019347D01*
G37*
G36*
X152704113Y-60019347D02*
G01*
X152749841Y-60033218D01*
X152791992Y-60055747D01*
X152828935Y-60086065D01*
X152859253Y-60123008D01*
X152881782Y-60165159D01*
X152895653Y-60210887D01*
X152900400Y-60259076D01*
X152900400Y-60870924D01*
X152895653Y-60919113D01*
X152881782Y-60964841D01*
X152859253Y-61006992D01*
X152828935Y-61043935D01*
X152791992Y-61074253D01*
X152749841Y-61096782D01*
X152704113Y-61110653D01*
X152655924Y-61115400D01*
X152144076Y-61115400D01*
X152095887Y-61110653D01*
X152050159Y-61096782D01*
X152008008Y-61074253D01*
X151971065Y-61043935D01*
X151940747Y-61006992D01*
X151918218Y-60964841D01*
X151904347Y-60919113D01*
X151899600Y-60870924D01*
X151899600Y-60259076D01*
X151904347Y-60210887D01*
X151918218Y-60165159D01*
X151940747Y-60123008D01*
X151971065Y-60086065D01*
X152008008Y-60055747D01*
X152050159Y-60033218D01*
X152095887Y-60019347D01*
X152144076Y-60014600D01*
X152655924Y-60014600D01*
X152704113Y-60019347D01*
X152704113Y-60019347D01*
G37*
G36*
X159054113Y-60019347D02*
G01*
X159099841Y-60033218D01*
X159141992Y-60055747D01*
X159178935Y-60086065D01*
X159209253Y-60123008D01*
X159231782Y-60165159D01*
X159245653Y-60210887D01*
X159250400Y-60259076D01*
X159250400Y-60870924D01*
X159245653Y-60919113D01*
X159231782Y-60964841D01*
X159209253Y-61006992D01*
X159178935Y-61043935D01*
X159141992Y-61074253D01*
X159099841Y-61096782D01*
X159054113Y-61110653D01*
X159005924Y-61115400D01*
X158494076Y-61115400D01*
X158445887Y-61110653D01*
X158400159Y-61096782D01*
X158358008Y-61074253D01*
X158321065Y-61043935D01*
X158290747Y-61006992D01*
X158268218Y-60964841D01*
X158254347Y-60919113D01*
X158249600Y-60870924D01*
X158249600Y-60259076D01*
X158254347Y-60210887D01*
X158268218Y-60165159D01*
X158290747Y-60123008D01*
X158321065Y-60086065D01*
X158358008Y-60055747D01*
X158400159Y-60033218D01*
X158445887Y-60019347D01*
X158494076Y-60014600D01*
X159005924Y-60014600D01*
X159054113Y-60019347D01*
X159054113Y-60019347D01*
G37*
G36*
X150799113Y-60019347D02*
G01*
X150844841Y-60033218D01*
X150886992Y-60055747D01*
X150923935Y-60086065D01*
X150954253Y-60123008D01*
X150976782Y-60165159D01*
X150990653Y-60210887D01*
X150995400Y-60259076D01*
X150995400Y-60870924D01*
X150990653Y-60919113D01*
X150976782Y-60964841D01*
X150954253Y-61006992D01*
X150923935Y-61043935D01*
X150886992Y-61074253D01*
X150844841Y-61096782D01*
X150799113Y-61110653D01*
X150750924Y-61115400D01*
X150239076Y-61115400D01*
X150190887Y-61110653D01*
X150145159Y-61096782D01*
X150103008Y-61074253D01*
X150066065Y-61043935D01*
X150035747Y-61006992D01*
X150013218Y-60964841D01*
X149999347Y-60919113D01*
X149994600Y-60870924D01*
X149994600Y-60259076D01*
X149999347Y-60210887D01*
X150013218Y-60165159D01*
X150035747Y-60123008D01*
X150066065Y-60086065D01*
X150103008Y-60055747D01*
X150145159Y-60033218D01*
X150190887Y-60019347D01*
X150239076Y-60014600D01*
X150750924Y-60014600D01*
X150799113Y-60019347D01*
X150799113Y-60019347D01*
G37*
G36*
X162864113Y-60019347D02*
G01*
X162909841Y-60033218D01*
X162951992Y-60055747D01*
X162988935Y-60086065D01*
X163019253Y-60123008D01*
X163041782Y-60165159D01*
X163055653Y-60210887D01*
X163060400Y-60259076D01*
X163060400Y-60870924D01*
X163055653Y-60919113D01*
X163041782Y-60964841D01*
X163019253Y-61006992D01*
X162988935Y-61043935D01*
X162951992Y-61074253D01*
X162909841Y-61096782D01*
X162864113Y-61110653D01*
X162815924Y-61115400D01*
X162304076Y-61115400D01*
X162255887Y-61110653D01*
X162210159Y-61096782D01*
X162168008Y-61074253D01*
X162131065Y-61043935D01*
X162100747Y-61006992D01*
X162078218Y-60964841D01*
X162064347Y-60919113D01*
X162059600Y-60870924D01*
X162059600Y-60259076D01*
X162064347Y-60210887D01*
X162078218Y-60165159D01*
X162100747Y-60123008D01*
X162131065Y-60086065D01*
X162168008Y-60055747D01*
X162210159Y-60033218D01*
X162255887Y-60019347D01*
X162304076Y-60014600D01*
X162815924Y-60014600D01*
X162864113Y-60019347D01*
X162864113Y-60019347D01*
G37*
G36*
X146709993Y-58469477D02*
G01*
X146710000Y-58469477D01*
X146714979Y-58469967D01*
X146718056Y-58470901D01*
X146719769Y-58471420D01*
X146722709Y-58472992D01*
X146724180Y-58473778D01*
X146728047Y-58476953D01*
X146731222Y-58480820D01*
X146732008Y-58482291D01*
X146733580Y-58485231D01*
X146734099Y-58486944D01*
X146735033Y-58490021D01*
X146735523Y-58495000D01*
X146735523Y-58495007D01*
X146735584Y-58495626D01*
X146735584Y-58901874D01*
X146735523Y-58902493D01*
X146735523Y-58902500D01*
X146735033Y-58907479D01*
X146734099Y-58910556D01*
X146733580Y-58912269D01*
X146732008Y-58915209D01*
X146731222Y-58916680D01*
X146728047Y-58920547D01*
X146724180Y-58923722D01*
X146722709Y-58924508D01*
X146719769Y-58926080D01*
X146718056Y-58926599D01*
X146714979Y-58927533D01*
X146710000Y-58928023D01*
X146709993Y-58928023D01*
X146709374Y-58928084D01*
X146238283Y-58928084D01*
X146235806Y-58928328D01*
X146233423Y-58929051D01*
X146231228Y-58930224D01*
X146229303Y-58931803D01*
X146227724Y-58933728D01*
X146226551Y-58935923D01*
X146225828Y-58938306D01*
X146225584Y-58940783D01*
X146225584Y-59119217D01*
X146225828Y-59121694D01*
X146226551Y-59124077D01*
X146227724Y-59126272D01*
X146229303Y-59128197D01*
X146231228Y-59129776D01*
X146233423Y-59130949D01*
X146235806Y-59131672D01*
X146238283Y-59131916D01*
X146709374Y-59131916D01*
X146709993Y-59131977D01*
X146710000Y-59131977D01*
X146714979Y-59132467D01*
X146718056Y-59133401D01*
X146719769Y-59133920D01*
X146722709Y-59135492D01*
X146724180Y-59136278D01*
X146728047Y-59139453D01*
X146731222Y-59143320D01*
X146732008Y-59144791D01*
X146733580Y-59147731D01*
X146734099Y-59149444D01*
X146735033Y-59152521D01*
X146735523Y-59157500D01*
X146735523Y-59157507D01*
X146735584Y-59158126D01*
X146735584Y-59561874D01*
X146735523Y-59562493D01*
X146735523Y-59562500D01*
X146735033Y-59567479D01*
X146734099Y-59570556D01*
X146733580Y-59572269D01*
X146732008Y-59575209D01*
X146731222Y-59576680D01*
X146728047Y-59580547D01*
X146724180Y-59583722D01*
X146722709Y-59584508D01*
X146719769Y-59586080D01*
X146718056Y-59586599D01*
X146714979Y-59587533D01*
X146710000Y-59588023D01*
X146709993Y-59588023D01*
X146709374Y-59588084D01*
X146238283Y-59588084D01*
X146235806Y-59588328D01*
X146233423Y-59589051D01*
X146231228Y-59590224D01*
X146229303Y-59591803D01*
X146227724Y-59593728D01*
X146226551Y-59595923D01*
X146225828Y-59598306D01*
X146225584Y-59600783D01*
X146225584Y-59779217D01*
X146225828Y-59781694D01*
X146226551Y-59784077D01*
X146227724Y-59786272D01*
X146229303Y-59788197D01*
X146231228Y-59789776D01*
X146233423Y-59790949D01*
X146235806Y-59791672D01*
X146238283Y-59791916D01*
X146709374Y-59791916D01*
X146709993Y-59791977D01*
X146710000Y-59791977D01*
X146714979Y-59792467D01*
X146718056Y-59793401D01*
X146719769Y-59793920D01*
X146722709Y-59795492D01*
X146724180Y-59796278D01*
X146728047Y-59799453D01*
X146731222Y-59803320D01*
X146732008Y-59804791D01*
X146733580Y-59807731D01*
X146734099Y-59809444D01*
X146735033Y-59812521D01*
X146735523Y-59817500D01*
X146735523Y-59817507D01*
X146735584Y-59818126D01*
X146735584Y-60221874D01*
X146735523Y-60222493D01*
X146735523Y-60222500D01*
X146735033Y-60227479D01*
X146734099Y-60230556D01*
X146733580Y-60232269D01*
X146732008Y-60235209D01*
X146731222Y-60236680D01*
X146728047Y-60240547D01*
X146724180Y-60243722D01*
X146722709Y-60244508D01*
X146719769Y-60246080D01*
X146718056Y-60246599D01*
X146714979Y-60247533D01*
X146710000Y-60248023D01*
X146709993Y-60248023D01*
X146709374Y-60248084D01*
X146238283Y-60248084D01*
X146235806Y-60248328D01*
X146233423Y-60249051D01*
X146231228Y-60250224D01*
X146229303Y-60251803D01*
X146227724Y-60253728D01*
X146226551Y-60255923D01*
X146225828Y-60258306D01*
X146225584Y-60260783D01*
X146225584Y-60439217D01*
X146225828Y-60441694D01*
X146226551Y-60444077D01*
X146227724Y-60446272D01*
X146229303Y-60448197D01*
X146231228Y-60449776D01*
X146233423Y-60450949D01*
X146235806Y-60451672D01*
X146238283Y-60451916D01*
X146709374Y-60451916D01*
X146709993Y-60451977D01*
X146710000Y-60451977D01*
X146714979Y-60452467D01*
X146718056Y-60453401D01*
X146719769Y-60453920D01*
X146722709Y-60455492D01*
X146724180Y-60456278D01*
X146728047Y-60459453D01*
X146731222Y-60463320D01*
X146732008Y-60464791D01*
X146733580Y-60467731D01*
X146734099Y-60469444D01*
X146735033Y-60472521D01*
X146735523Y-60477500D01*
X146735523Y-60477507D01*
X146735584Y-60478126D01*
X146735584Y-60884374D01*
X146735523Y-60884993D01*
X146735523Y-60885000D01*
X146735033Y-60889979D01*
X146734099Y-60893056D01*
X146733580Y-60894769D01*
X146732008Y-60897709D01*
X146731222Y-60899180D01*
X146728047Y-60903047D01*
X146724180Y-60906222D01*
X146722709Y-60907008D01*
X146719769Y-60908580D01*
X146718056Y-60909099D01*
X146714979Y-60910033D01*
X146710000Y-60910523D01*
X146709993Y-60910523D01*
X146709374Y-60910584D01*
X145950626Y-60910584D01*
X145950007Y-60910523D01*
X145950000Y-60910523D01*
X145945021Y-60910033D01*
X145941944Y-60909099D01*
X145940231Y-60908580D01*
X145937291Y-60907008D01*
X145935820Y-60906222D01*
X145931953Y-60903047D01*
X145928778Y-60899180D01*
X145927992Y-60897709D01*
X145926420Y-60894769D01*
X145925901Y-60893056D01*
X145924967Y-60889979D01*
X145924477Y-60885000D01*
X145924477Y-60884993D01*
X145924416Y-60884374D01*
X145924416Y-60845783D01*
X145924172Y-60843306D01*
X145923449Y-60840923D01*
X145922276Y-60838728D01*
X145920697Y-60836803D01*
X145918772Y-60835224D01*
X145916577Y-60834051D01*
X145914194Y-60833328D01*
X145911717Y-60833084D01*
X144475626Y-60833084D01*
X144475007Y-60833023D01*
X144475000Y-60833023D01*
X144470021Y-60832533D01*
X144466944Y-60831599D01*
X144465231Y-60831080D01*
X144462291Y-60829508D01*
X144460820Y-60828722D01*
X144456953Y-60825547D01*
X144453778Y-60821680D01*
X144452992Y-60820209D01*
X144451420Y-60817269D01*
X144450901Y-60815556D01*
X144449967Y-60812479D01*
X144449477Y-60807500D01*
X144449477Y-60807493D01*
X144449416Y-60806874D01*
X144449416Y-58573126D01*
X144449477Y-58572507D01*
X144449477Y-58572500D01*
X144449967Y-58567521D01*
X144450901Y-58564444D01*
X144451420Y-58562731D01*
X144452992Y-58559791D01*
X144453778Y-58558320D01*
X144456953Y-58554453D01*
X144460820Y-58551278D01*
X144462291Y-58550492D01*
X144465231Y-58548920D01*
X144466944Y-58548401D01*
X144470021Y-58547467D01*
X144475000Y-58546977D01*
X144475007Y-58546977D01*
X144475626Y-58546916D01*
X145911717Y-58546916D01*
X145914194Y-58546672D01*
X145916577Y-58545949D01*
X145918772Y-58544776D01*
X145920697Y-58543197D01*
X145922276Y-58541272D01*
X145923449Y-58539077D01*
X145924172Y-58536694D01*
X145924416Y-58534217D01*
X145924416Y-58495626D01*
X145924477Y-58495007D01*
X145924477Y-58495000D01*
X145924967Y-58490021D01*
X145925901Y-58486944D01*
X145926420Y-58485231D01*
X145927992Y-58482291D01*
X145928778Y-58480820D01*
X145931953Y-58476953D01*
X145935820Y-58473778D01*
X145937291Y-58472992D01*
X145940231Y-58471420D01*
X145941944Y-58470901D01*
X145945021Y-58469967D01*
X145950000Y-58469477D01*
X145950007Y-58469477D01*
X145950626Y-58469416D01*
X146709374Y-58469416D01*
X146709993Y-58469477D01*
X146709993Y-58469477D01*
G37*
G36*
X143865400Y-60907900D02*
G01*
X142824600Y-60907900D01*
X142824600Y-60452100D01*
X143865400Y-60452100D01*
X143865400Y-60907900D01*
X143865400Y-60907900D01*
G37*
G36*
X143865400Y-60247900D02*
G01*
X142824600Y-60247900D01*
X142824600Y-59792100D01*
X143865400Y-59792100D01*
X143865400Y-60247900D01*
X143865400Y-60247900D01*
G37*
G36*
X143865400Y-59587900D02*
G01*
X142824600Y-59587900D01*
X142824600Y-59132100D01*
X143865400Y-59132100D01*
X143865400Y-59587900D01*
X143865400Y-59587900D01*
G37*
G36*
X162864113Y-58269347D02*
G01*
X162909841Y-58283218D01*
X162951992Y-58305747D01*
X162988935Y-58336065D01*
X163019253Y-58373008D01*
X163041782Y-58415159D01*
X163055653Y-58460887D01*
X163060400Y-58509076D01*
X163060400Y-59120924D01*
X163055653Y-59169113D01*
X163041782Y-59214841D01*
X163019253Y-59256992D01*
X162988935Y-59293935D01*
X162951992Y-59324253D01*
X162909841Y-59346782D01*
X162864113Y-59360653D01*
X162815924Y-59365400D01*
X162304076Y-59365400D01*
X162255887Y-59360653D01*
X162210159Y-59346782D01*
X162168008Y-59324253D01*
X162131065Y-59293935D01*
X162100747Y-59256992D01*
X162078218Y-59214841D01*
X162064347Y-59169113D01*
X162059600Y-59120924D01*
X162059600Y-58509076D01*
X162064347Y-58460887D01*
X162078218Y-58415159D01*
X162100747Y-58373008D01*
X162131065Y-58336065D01*
X162168008Y-58305747D01*
X162210159Y-58283218D01*
X162255887Y-58269347D01*
X162304076Y-58264600D01*
X162815924Y-58264600D01*
X162864113Y-58269347D01*
X162864113Y-58269347D01*
G37*
G36*
X160959113Y-58269347D02*
G01*
X161004841Y-58283218D01*
X161046992Y-58305747D01*
X161083935Y-58336065D01*
X161114253Y-58373008D01*
X161136782Y-58415159D01*
X161150653Y-58460887D01*
X161155400Y-58509076D01*
X161155400Y-59120924D01*
X161150653Y-59169113D01*
X161136782Y-59214841D01*
X161114253Y-59256992D01*
X161083935Y-59293935D01*
X161046992Y-59324253D01*
X161004841Y-59346782D01*
X160959113Y-59360653D01*
X160910924Y-59365400D01*
X160399076Y-59365400D01*
X160350887Y-59360653D01*
X160305159Y-59346782D01*
X160263008Y-59324253D01*
X160226065Y-59293935D01*
X160195747Y-59256992D01*
X160173218Y-59214841D01*
X160159347Y-59169113D01*
X160154600Y-59120924D01*
X160154600Y-58509076D01*
X160159347Y-58460887D01*
X160173218Y-58415159D01*
X160195747Y-58373008D01*
X160226065Y-58336065D01*
X160263008Y-58305747D01*
X160305159Y-58283218D01*
X160350887Y-58269347D01*
X160399076Y-58264600D01*
X160910924Y-58264600D01*
X160959113Y-58269347D01*
X160959113Y-58269347D01*
G37*
G36*
X150799113Y-58269347D02*
G01*
X150844841Y-58283218D01*
X150886992Y-58305747D01*
X150923935Y-58336065D01*
X150954253Y-58373008D01*
X150976782Y-58415159D01*
X150990653Y-58460887D01*
X150995400Y-58509076D01*
X150995400Y-59120924D01*
X150990653Y-59169113D01*
X150976782Y-59214841D01*
X150954253Y-59256992D01*
X150923935Y-59293935D01*
X150886992Y-59324253D01*
X150844841Y-59346782D01*
X150799113Y-59360653D01*
X150750924Y-59365400D01*
X150239076Y-59365400D01*
X150190887Y-59360653D01*
X150145159Y-59346782D01*
X150103008Y-59324253D01*
X150066065Y-59293935D01*
X150035747Y-59256992D01*
X150013218Y-59214841D01*
X149999347Y-59169113D01*
X149994600Y-59120924D01*
X149994600Y-58509076D01*
X149999347Y-58460887D01*
X150013218Y-58415159D01*
X150035747Y-58373008D01*
X150066065Y-58336065D01*
X150103008Y-58305747D01*
X150145159Y-58283218D01*
X150190887Y-58269347D01*
X150239076Y-58264600D01*
X150750924Y-58264600D01*
X150799113Y-58269347D01*
X150799113Y-58269347D01*
G37*
G36*
X159054113Y-58269347D02*
G01*
X159099841Y-58283218D01*
X159141992Y-58305747D01*
X159178935Y-58336065D01*
X159209253Y-58373008D01*
X159231782Y-58415159D01*
X159245653Y-58460887D01*
X159250400Y-58509076D01*
X159250400Y-59120924D01*
X159245653Y-59169113D01*
X159231782Y-59214841D01*
X159209253Y-59256992D01*
X159178935Y-59293935D01*
X159141992Y-59324253D01*
X159099841Y-59346782D01*
X159054113Y-59360653D01*
X159005924Y-59365400D01*
X158494076Y-59365400D01*
X158445887Y-59360653D01*
X158400159Y-59346782D01*
X158358008Y-59324253D01*
X158321065Y-59293935D01*
X158290747Y-59256992D01*
X158268218Y-59214841D01*
X158254347Y-59169113D01*
X158249600Y-59120924D01*
X158249600Y-58509076D01*
X158254347Y-58460887D01*
X158268218Y-58415159D01*
X158290747Y-58373008D01*
X158321065Y-58336065D01*
X158358008Y-58305747D01*
X158400159Y-58283218D01*
X158445887Y-58269347D01*
X158494076Y-58264600D01*
X159005924Y-58264600D01*
X159054113Y-58269347D01*
X159054113Y-58269347D01*
G37*
G36*
X152704113Y-58269347D02*
G01*
X152749841Y-58283218D01*
X152791992Y-58305747D01*
X152828935Y-58336065D01*
X152859253Y-58373008D01*
X152881782Y-58415159D01*
X152895653Y-58460887D01*
X152900400Y-58509076D01*
X152900400Y-59120924D01*
X152895653Y-59169113D01*
X152881782Y-59214841D01*
X152859253Y-59256992D01*
X152828935Y-59293935D01*
X152791992Y-59324253D01*
X152749841Y-59346782D01*
X152704113Y-59360653D01*
X152655924Y-59365400D01*
X152144076Y-59365400D01*
X152095887Y-59360653D01*
X152050159Y-59346782D01*
X152008008Y-59324253D01*
X151971065Y-59293935D01*
X151940747Y-59256992D01*
X151918218Y-59214841D01*
X151904347Y-59169113D01*
X151899600Y-59120924D01*
X151899600Y-58509076D01*
X151904347Y-58460887D01*
X151918218Y-58415159D01*
X151940747Y-58373008D01*
X151971065Y-58336065D01*
X152008008Y-58305747D01*
X152050159Y-58283218D01*
X152095887Y-58269347D01*
X152144076Y-58264600D01*
X152655924Y-58264600D01*
X152704113Y-58269347D01*
X152704113Y-58269347D01*
G37*
G36*
X155050400Y-59165400D02*
G01*
X154199600Y-59165400D01*
X154199600Y-58214600D01*
X155050400Y-58214600D01*
X155050400Y-59165400D01*
X155050400Y-59165400D01*
G37*
G36*
X156950400Y-59165400D02*
G01*
X156099600Y-59165400D01*
X156099600Y-58214600D01*
X156950400Y-58214600D01*
X156950400Y-59165400D01*
X156950400Y-59165400D01*
G37*
G36*
X149115400Y-58965400D02*
G01*
X148064600Y-58965400D01*
X148064600Y-57914600D01*
X149115400Y-57914600D01*
X149115400Y-58965400D01*
X149115400Y-58965400D01*
G37*
G36*
X143865400Y-58927900D02*
G01*
X142824600Y-58927900D01*
X142824600Y-58472100D01*
X143865400Y-58472100D01*
X143865400Y-58927900D01*
X143865400Y-58927900D01*
G37*
G36*
X147619098Y-54894005D02*
G01*
X147805708Y-54971302D01*
X147973652Y-55083518D01*
X148116482Y-55226348D01*
X148228698Y-55394292D01*
X148305995Y-55580902D01*
X148345400Y-55779006D01*
X148345400Y-55980994D01*
X148305995Y-56179098D01*
X148228698Y-56365708D01*
X148116482Y-56533652D01*
X147973652Y-56676482D01*
X147805708Y-56788698D01*
X147619098Y-56865995D01*
X147420994Y-56905400D01*
X147219006Y-56905400D01*
X147020902Y-56865995D01*
X146834292Y-56788698D01*
X146666348Y-56676482D01*
X146523518Y-56533652D01*
X146411302Y-56365708D01*
X146334005Y-56179098D01*
X146294600Y-55980994D01*
X146294600Y-55779006D01*
X146334005Y-55580902D01*
X146411302Y-55394292D01*
X146523518Y-55226348D01*
X146666348Y-55083518D01*
X146834292Y-54971302D01*
X147020902Y-54894005D01*
X147219006Y-54854600D01*
X147420994Y-54854600D01*
X147619098Y-54894005D01*
X147619098Y-54894005D01*
G37*
G36*
X151301611Y-55017267D02*
G01*
X151466619Y-55067322D01*
X151466622Y-55067323D01*
X151496924Y-55083520D01*
X151618703Y-55148612D01*
X151751996Y-55258004D01*
X151861388Y-55391297D01*
X151861390Y-55391301D01*
X151942677Y-55543378D01*
X151942678Y-55543381D01*
X151992733Y-55708389D01*
X152009635Y-55880000D01*
X151992733Y-56051611D01*
X151954060Y-56179098D01*
X151942677Y-56216622D01*
X151876520Y-56340392D01*
X151861388Y-56368703D01*
X151751996Y-56501996D01*
X151618703Y-56611388D01*
X151618699Y-56611390D01*
X151466622Y-56692677D01*
X151466619Y-56692678D01*
X151301611Y-56742733D01*
X151173003Y-56755400D01*
X151086997Y-56755400D01*
X150958389Y-56742733D01*
X150793381Y-56692678D01*
X150793378Y-56692677D01*
X150641301Y-56611390D01*
X150641297Y-56611388D01*
X150508004Y-56501996D01*
X150398612Y-56368703D01*
X150383480Y-56340392D01*
X150317323Y-56216622D01*
X150305940Y-56179098D01*
X150267267Y-56051611D01*
X150250365Y-55880000D01*
X150267267Y-55708389D01*
X150317322Y-55543381D01*
X150317323Y-55543378D01*
X150398610Y-55391301D01*
X150398612Y-55391297D01*
X150508004Y-55258004D01*
X150641297Y-55148612D01*
X150763076Y-55083520D01*
X150793378Y-55067323D01*
X150793381Y-55067322D01*
X150958389Y-55017267D01*
X151086997Y-55004600D01*
X151173003Y-55004600D01*
X151301611Y-55017267D01*
X151301611Y-55017267D01*
G37*
G36*
X153841611Y-55017267D02*
G01*
X154006619Y-55067322D01*
X154006622Y-55067323D01*
X154036924Y-55083520D01*
X154158703Y-55148612D01*
X154291996Y-55258004D01*
X154401388Y-55391297D01*
X154401390Y-55391301D01*
X154482677Y-55543378D01*
X154482678Y-55543381D01*
X154532733Y-55708389D01*
X154549635Y-55880000D01*
X154532733Y-56051611D01*
X154494060Y-56179098D01*
X154482677Y-56216622D01*
X154416520Y-56340392D01*
X154401388Y-56368703D01*
X154291996Y-56501996D01*
X154158703Y-56611388D01*
X154158699Y-56611390D01*
X154006622Y-56692677D01*
X154006619Y-56692678D01*
X153841611Y-56742733D01*
X153713003Y-56755400D01*
X153626997Y-56755400D01*
X153498389Y-56742733D01*
X153333381Y-56692678D01*
X153333378Y-56692677D01*
X153181301Y-56611390D01*
X153181297Y-56611388D01*
X153048004Y-56501996D01*
X152938612Y-56368703D01*
X152923480Y-56340392D01*
X152857323Y-56216622D01*
X152845940Y-56179098D01*
X152807267Y-56051611D01*
X152790365Y-55880000D01*
X152807267Y-55708389D01*
X152857322Y-55543381D01*
X152857323Y-55543378D01*
X152938610Y-55391301D01*
X152938612Y-55391297D01*
X153048004Y-55258004D01*
X153181297Y-55148612D01*
X153303076Y-55083520D01*
X153333378Y-55067323D01*
X153333381Y-55067322D01*
X153498389Y-55017267D01*
X153626997Y-55004600D01*
X153713003Y-55004600D01*
X153841611Y-55017267D01*
X153841611Y-55017267D01*
G37*
G36*
X156381611Y-55017267D02*
G01*
X156546619Y-55067322D01*
X156546622Y-55067323D01*
X156576924Y-55083520D01*
X156698703Y-55148612D01*
X156831996Y-55258004D01*
X156941388Y-55391297D01*
X156941390Y-55391301D01*
X157022677Y-55543378D01*
X157022678Y-55543381D01*
X157072733Y-55708389D01*
X157089635Y-55880000D01*
X157072733Y-56051611D01*
X157034060Y-56179098D01*
X157022677Y-56216622D01*
X156956520Y-56340392D01*
X156941388Y-56368703D01*
X156831996Y-56501996D01*
X156698703Y-56611388D01*
X156698699Y-56611390D01*
X156546622Y-56692677D01*
X156546619Y-56692678D01*
X156381611Y-56742733D01*
X156253003Y-56755400D01*
X156166997Y-56755400D01*
X156038389Y-56742733D01*
X155873381Y-56692678D01*
X155873378Y-56692677D01*
X155721301Y-56611390D01*
X155721297Y-56611388D01*
X155588004Y-56501996D01*
X155478612Y-56368703D01*
X155463480Y-56340392D01*
X155397323Y-56216622D01*
X155385940Y-56179098D01*
X155347267Y-56051611D01*
X155330365Y-55880000D01*
X155347267Y-55708389D01*
X155397322Y-55543381D01*
X155397323Y-55543378D01*
X155478610Y-55391301D01*
X155478612Y-55391297D01*
X155588004Y-55258004D01*
X155721297Y-55148612D01*
X155843076Y-55083520D01*
X155873378Y-55067323D01*
X155873381Y-55067322D01*
X156038389Y-55017267D01*
X156166997Y-55004600D01*
X156253003Y-55004600D01*
X156381611Y-55017267D01*
X156381611Y-55017267D01*
G37*
G36*
X164705400Y-56755400D02*
G01*
X162954600Y-56755400D01*
X162954600Y-55004600D01*
X164705400Y-55004600D01*
X164705400Y-56755400D01*
X164705400Y-56755400D01*
G37*
G36*
X161461611Y-55017267D02*
G01*
X161626619Y-55067322D01*
X161626622Y-55067323D01*
X161656924Y-55083520D01*
X161778703Y-55148612D01*
X161911996Y-55258004D01*
X162021388Y-55391297D01*
X162021390Y-55391301D01*
X162102677Y-55543378D01*
X162102678Y-55543381D01*
X162152733Y-55708389D01*
X162169635Y-55880000D01*
X162152733Y-56051611D01*
X162114060Y-56179098D01*
X162102677Y-56216622D01*
X162036520Y-56340392D01*
X162021388Y-56368703D01*
X161911996Y-56501996D01*
X161778703Y-56611388D01*
X161778699Y-56611390D01*
X161626622Y-56692677D01*
X161626619Y-56692678D01*
X161461611Y-56742733D01*
X161333003Y-56755400D01*
X161246997Y-56755400D01*
X161118389Y-56742733D01*
X160953381Y-56692678D01*
X160953378Y-56692677D01*
X160801301Y-56611390D01*
X160801297Y-56611388D01*
X160668004Y-56501996D01*
X160558612Y-56368703D01*
X160543480Y-56340392D01*
X160477323Y-56216622D01*
X160465940Y-56179098D01*
X160427267Y-56051611D01*
X160410365Y-55880000D01*
X160427267Y-55708389D01*
X160477322Y-55543381D01*
X160477323Y-55543378D01*
X160558610Y-55391301D01*
X160558612Y-55391297D01*
X160668004Y-55258004D01*
X160801297Y-55148612D01*
X160923076Y-55083520D01*
X160953378Y-55067323D01*
X160953381Y-55067322D01*
X161118389Y-55017267D01*
X161246997Y-55004600D01*
X161333003Y-55004600D01*
X161461611Y-55017267D01*
X161461611Y-55017267D01*
G37*
G36*
X144385400Y-56755400D02*
G01*
X142634600Y-56755400D01*
X142634600Y-55004600D01*
X144385400Y-55004600D01*
X144385400Y-56755400D01*
X144385400Y-56755400D01*
G37*
G36*
X141141611Y-55017267D02*
G01*
X141306619Y-55067322D01*
X141306622Y-55067323D01*
X141336924Y-55083520D01*
X141458703Y-55148612D01*
X141591996Y-55258004D01*
X141701388Y-55391297D01*
X141701390Y-55391301D01*
X141782677Y-55543378D01*
X141782678Y-55543381D01*
X141832733Y-55708389D01*
X141849635Y-55880000D01*
X141832733Y-56051611D01*
X141794060Y-56179098D01*
X141782677Y-56216622D01*
X141716520Y-56340392D01*
X141701388Y-56368703D01*
X141591996Y-56501996D01*
X141458703Y-56611388D01*
X141458699Y-56611390D01*
X141306622Y-56692677D01*
X141306619Y-56692678D01*
X141141611Y-56742733D01*
X141013003Y-56755400D01*
X140926997Y-56755400D01*
X140798389Y-56742733D01*
X140633381Y-56692678D01*
X140633378Y-56692677D01*
X140481301Y-56611390D01*
X140481297Y-56611388D01*
X140348004Y-56501996D01*
X140238612Y-56368703D01*
X140223480Y-56340392D01*
X140157323Y-56216622D01*
X140145940Y-56179098D01*
X140107267Y-56051611D01*
X140090365Y-55880000D01*
X140107267Y-55708389D01*
X140157322Y-55543381D01*
X140157323Y-55543378D01*
X140238610Y-55391301D01*
X140238612Y-55391297D01*
X140348004Y-55258004D01*
X140481297Y-55148612D01*
X140603076Y-55083520D01*
X140633378Y-55067323D01*
X140633381Y-55067322D01*
X140798389Y-55017267D01*
X140926997Y-55004600D01*
X141013003Y-55004600D01*
X141141611Y-55017267D01*
X141141611Y-55017267D01*
G37*
G36*
X159625400Y-56755400D02*
G01*
X157874600Y-56755400D01*
X157874600Y-55004600D01*
X159625400Y-55004600D01*
X159625400Y-56755400D01*
X159625400Y-56755400D01*
G37*
M02*
