G04 #@! TF.GenerationSoftware,KiCad,Pcbnew,(5.1.2)-2*
G04 #@! TF.CreationDate,2019-08-30T16:27:02-04:00*
G04 #@! TF.ProjectId,AFE SubBoard 0-2,41464520-5375-4624-926f-61726420302d,rev?*
G04 #@! TF.SameCoordinates,Original*
G04 #@! TF.FileFunction,Soldermask,Bot*
G04 #@! TF.FilePolarity,Negative*
%FSLAX46Y46*%
G04 Gerber Fmt 4.6, Leading zero omitted, Abs format (unit mm)*
G04 Created by KiCad (PCBNEW (5.1.2)-2) date 2019-08-30 16:27:02*
%MOMM*%
%LPD*%
G04 APERTURE LIST*
%ADD10C,0.100000*%
G04 APERTURE END LIST*
D10*
G36*
X164705400Y-73265400D02*
G01*
X162954600Y-73265400D01*
X162954600Y-71514600D01*
X164705400Y-71514600D01*
X164705400Y-73265400D01*
X164705400Y-73265400D01*
G37*
G36*
X164001611Y-68987267D02*
G01*
X164166621Y-69037322D01*
X164318698Y-69118609D01*
X164451996Y-69228004D01*
X164561391Y-69361302D01*
X164642678Y-69513379D01*
X164692733Y-69678389D01*
X164709635Y-69850000D01*
X164692733Y-70021611D01*
X164642678Y-70186621D01*
X164561391Y-70338698D01*
X164451996Y-70471996D01*
X164318698Y-70581391D01*
X164166621Y-70662678D01*
X164001611Y-70712733D01*
X163872998Y-70725400D01*
X163787002Y-70725400D01*
X163658389Y-70712733D01*
X163493379Y-70662678D01*
X163341302Y-70581391D01*
X163208004Y-70471996D01*
X163098609Y-70338698D01*
X163017322Y-70186621D01*
X162967267Y-70021611D01*
X162950365Y-69850000D01*
X162967267Y-69678389D01*
X163017322Y-69513379D01*
X163098609Y-69361302D01*
X163208004Y-69228004D01*
X163341302Y-69118609D01*
X163493379Y-69037322D01*
X163658389Y-68987267D01*
X163787002Y-68974600D01*
X163872998Y-68974600D01*
X164001611Y-68987267D01*
X164001611Y-68987267D01*
G37*
G36*
X164001611Y-66447267D02*
G01*
X164166621Y-66497322D01*
X164318698Y-66578609D01*
X164451996Y-66688004D01*
X164561391Y-66821302D01*
X164642678Y-66973379D01*
X164692733Y-67138389D01*
X164709635Y-67310000D01*
X164692733Y-67481611D01*
X164642678Y-67646621D01*
X164561391Y-67798698D01*
X164451996Y-67931996D01*
X164318698Y-68041391D01*
X164166621Y-68122678D01*
X164001611Y-68172733D01*
X163872998Y-68185400D01*
X163787002Y-68185400D01*
X163658389Y-68172733D01*
X163493379Y-68122678D01*
X163341302Y-68041391D01*
X163208004Y-67931996D01*
X163098609Y-67798698D01*
X163017322Y-67646621D01*
X162967267Y-67481611D01*
X162950365Y-67310000D01*
X162967267Y-67138389D01*
X163017322Y-66973379D01*
X163098609Y-66821302D01*
X163208004Y-66688004D01*
X163341302Y-66578609D01*
X163493379Y-66497322D01*
X163658389Y-66447267D01*
X163787002Y-66434600D01*
X163872998Y-66434600D01*
X164001611Y-66447267D01*
X164001611Y-66447267D01*
G37*
G36*
X164001611Y-63907267D02*
G01*
X164166621Y-63957322D01*
X164318698Y-64038609D01*
X164451996Y-64148004D01*
X164561391Y-64281302D01*
X164642678Y-64433379D01*
X164692733Y-64598389D01*
X164709635Y-64770000D01*
X164692733Y-64941611D01*
X164642678Y-65106621D01*
X164561391Y-65258698D01*
X164451996Y-65391996D01*
X164318698Y-65501391D01*
X164166621Y-65582678D01*
X164001611Y-65632733D01*
X163872998Y-65645400D01*
X163787002Y-65645400D01*
X163658389Y-65632733D01*
X163493379Y-65582678D01*
X163341302Y-65501391D01*
X163208004Y-65391996D01*
X163098609Y-65258698D01*
X163017322Y-65106621D01*
X162967267Y-64941611D01*
X162950365Y-64770000D01*
X162967267Y-64598389D01*
X163017322Y-64433379D01*
X163098609Y-64281302D01*
X163208004Y-64148004D01*
X163341302Y-64038609D01*
X163493379Y-63957322D01*
X163658389Y-63907267D01*
X163787002Y-63894600D01*
X163872998Y-63894600D01*
X164001611Y-63907267D01*
X164001611Y-63907267D01*
G37*
G36*
X124632569Y-57984324D02*
G01*
X124677478Y-57997946D01*
X124718871Y-58020072D01*
X124755153Y-58049847D01*
X124784928Y-58086129D01*
X124807054Y-58127522D01*
X124820676Y-58172431D01*
X124825400Y-58220393D01*
X124825400Y-59489607D01*
X124820676Y-59537569D01*
X124807054Y-59582478D01*
X124784928Y-59623871D01*
X124755153Y-59660153D01*
X124718871Y-59689928D01*
X124677478Y-59712054D01*
X124632569Y-59725676D01*
X124584607Y-59730400D01*
X123065393Y-59730400D01*
X123017431Y-59725676D01*
X122972522Y-59712054D01*
X122931129Y-59689928D01*
X122894847Y-59660153D01*
X122865072Y-59623871D01*
X122842946Y-59582478D01*
X122829324Y-59537569D01*
X122824600Y-59489607D01*
X122824600Y-58220393D01*
X122829324Y-58172431D01*
X122842946Y-58127522D01*
X122865072Y-58086129D01*
X122894847Y-58049847D01*
X122931129Y-58020072D01*
X122972522Y-57997946D01*
X123017431Y-57984324D01*
X123065393Y-57979600D01*
X124584607Y-57979600D01*
X124632569Y-57984324D01*
X124632569Y-57984324D01*
G37*
G36*
X164001611Y-56922267D02*
G01*
X164166621Y-56972322D01*
X164318698Y-57053609D01*
X164451996Y-57163004D01*
X164561391Y-57296302D01*
X164642678Y-57448379D01*
X164692733Y-57613389D01*
X164709635Y-57785000D01*
X164692733Y-57956611D01*
X164642678Y-58121621D01*
X164561391Y-58273698D01*
X164451996Y-58406996D01*
X164318698Y-58516391D01*
X164166621Y-58597678D01*
X164001611Y-58647733D01*
X163872998Y-58660400D01*
X163787002Y-58660400D01*
X163658389Y-58647733D01*
X163493379Y-58597678D01*
X163341302Y-58516391D01*
X163208004Y-58406996D01*
X163098609Y-58273698D01*
X163017322Y-58121621D01*
X162967267Y-57956611D01*
X162950365Y-57785000D01*
X162967267Y-57613389D01*
X163017322Y-57448379D01*
X163098609Y-57296302D01*
X163208004Y-57163004D01*
X163341302Y-57053609D01*
X163493379Y-56972322D01*
X163658389Y-56922267D01*
X163787002Y-56909600D01*
X163872998Y-56909600D01*
X164001611Y-56922267D01*
X164001611Y-56922267D01*
G37*
G36*
X124121611Y-55492267D02*
G01*
X124286621Y-55542322D01*
X124438698Y-55623609D01*
X124571996Y-55733004D01*
X124681391Y-55866302D01*
X124762678Y-56018379D01*
X124812733Y-56183389D01*
X124829635Y-56355000D01*
X124812733Y-56526611D01*
X124762678Y-56691621D01*
X124681391Y-56843698D01*
X124571996Y-56976996D01*
X124438698Y-57086391D01*
X124286621Y-57167678D01*
X124121611Y-57217733D01*
X123992998Y-57230400D01*
X123657002Y-57230400D01*
X123528389Y-57217733D01*
X123363379Y-57167678D01*
X123211302Y-57086391D01*
X123078004Y-56976996D01*
X122968609Y-56843698D01*
X122887322Y-56691621D01*
X122837267Y-56526611D01*
X122820365Y-56355000D01*
X122837267Y-56183389D01*
X122887322Y-56018379D01*
X122968609Y-55866302D01*
X123078004Y-55733004D01*
X123211302Y-55623609D01*
X123363379Y-55542322D01*
X123528389Y-55492267D01*
X123657002Y-55479600D01*
X123992998Y-55479600D01*
X124121611Y-55492267D01*
X124121611Y-55492267D01*
G37*
G36*
X164001611Y-54382267D02*
G01*
X164166621Y-54432322D01*
X164318698Y-54513609D01*
X164451996Y-54623004D01*
X164561391Y-54756302D01*
X164642678Y-54908379D01*
X164692733Y-55073389D01*
X164709635Y-55245000D01*
X164692733Y-55416611D01*
X164642678Y-55581621D01*
X164561391Y-55733698D01*
X164451996Y-55866996D01*
X164318698Y-55976391D01*
X164166621Y-56057678D01*
X164001611Y-56107733D01*
X163872998Y-56120400D01*
X163787002Y-56120400D01*
X163658389Y-56107733D01*
X163493379Y-56057678D01*
X163341302Y-55976391D01*
X163208004Y-55866996D01*
X163098609Y-55733698D01*
X163017322Y-55581621D01*
X162967267Y-55416611D01*
X162950365Y-55245000D01*
X162967267Y-55073389D01*
X163017322Y-54908379D01*
X163098609Y-54756302D01*
X163208004Y-54623004D01*
X163341302Y-54513609D01*
X163493379Y-54432322D01*
X163658389Y-54382267D01*
X163787002Y-54369600D01*
X163872998Y-54369600D01*
X164001611Y-54382267D01*
X164001611Y-54382267D01*
G37*
G36*
X124121611Y-52992267D02*
G01*
X124286621Y-53042322D01*
X124438698Y-53123609D01*
X124571996Y-53233004D01*
X124681391Y-53366302D01*
X124762678Y-53518379D01*
X124812733Y-53683389D01*
X124829635Y-53855000D01*
X124812733Y-54026611D01*
X124762678Y-54191621D01*
X124681391Y-54343698D01*
X124571996Y-54476996D01*
X124438698Y-54586391D01*
X124286621Y-54667678D01*
X124121611Y-54717733D01*
X123992998Y-54730400D01*
X123657002Y-54730400D01*
X123528389Y-54717733D01*
X123363379Y-54667678D01*
X123211302Y-54586391D01*
X123078004Y-54476996D01*
X122968609Y-54343698D01*
X122887322Y-54191621D01*
X122837267Y-54026611D01*
X122820365Y-53855000D01*
X122837267Y-53683389D01*
X122887322Y-53518379D01*
X122968609Y-53366302D01*
X123078004Y-53233004D01*
X123211302Y-53123609D01*
X123363379Y-53042322D01*
X123528389Y-52992267D01*
X123657002Y-52979600D01*
X123992998Y-52979600D01*
X124121611Y-52992267D01*
X124121611Y-52992267D01*
G37*
G36*
X164001611Y-51842267D02*
G01*
X164166621Y-51892322D01*
X164318698Y-51973609D01*
X164451996Y-52083004D01*
X164561391Y-52216302D01*
X164642678Y-52368379D01*
X164692733Y-52533389D01*
X164709635Y-52705000D01*
X164692733Y-52876611D01*
X164642678Y-53041621D01*
X164561391Y-53193698D01*
X164451996Y-53326996D01*
X164318698Y-53436391D01*
X164166621Y-53517678D01*
X164001611Y-53567733D01*
X163872998Y-53580400D01*
X163787002Y-53580400D01*
X163658389Y-53567733D01*
X163493379Y-53517678D01*
X163341302Y-53436391D01*
X163208004Y-53326996D01*
X163098609Y-53193698D01*
X163017322Y-53041621D01*
X162967267Y-52876611D01*
X162950365Y-52705000D01*
X162967267Y-52533389D01*
X163017322Y-52368379D01*
X163098609Y-52216302D01*
X163208004Y-52083004D01*
X163341302Y-51973609D01*
X163493379Y-51892322D01*
X163658389Y-51842267D01*
X163787002Y-51829600D01*
X163872998Y-51829600D01*
X164001611Y-51842267D01*
X164001611Y-51842267D01*
G37*
G36*
X124121611Y-50492267D02*
G01*
X124286621Y-50542322D01*
X124438698Y-50623609D01*
X124571996Y-50733004D01*
X124681391Y-50866302D01*
X124762678Y-51018379D01*
X124812733Y-51183389D01*
X124829635Y-51355000D01*
X124812733Y-51526611D01*
X124762678Y-51691621D01*
X124681391Y-51843698D01*
X124571996Y-51976996D01*
X124438698Y-52086391D01*
X124286621Y-52167678D01*
X124121611Y-52217733D01*
X123992998Y-52230400D01*
X123657002Y-52230400D01*
X123528389Y-52217733D01*
X123363379Y-52167678D01*
X123211302Y-52086391D01*
X123078004Y-51976996D01*
X122968609Y-51843698D01*
X122887322Y-51691621D01*
X122837267Y-51526611D01*
X122820365Y-51355000D01*
X122837267Y-51183389D01*
X122887322Y-51018379D01*
X122968609Y-50866302D01*
X123078004Y-50733004D01*
X123211302Y-50623609D01*
X123363379Y-50542322D01*
X123528389Y-50492267D01*
X123657002Y-50479600D01*
X123992998Y-50479600D01*
X124121611Y-50492267D01*
X124121611Y-50492267D01*
G37*
G36*
X164001611Y-49302267D02*
G01*
X164166621Y-49352322D01*
X164318698Y-49433609D01*
X164451996Y-49543004D01*
X164561391Y-49676302D01*
X164642678Y-49828379D01*
X164692733Y-49993389D01*
X164709635Y-50165000D01*
X164692733Y-50336611D01*
X164642678Y-50501621D01*
X164561391Y-50653698D01*
X164451996Y-50786996D01*
X164318698Y-50896391D01*
X164166621Y-50977678D01*
X164001611Y-51027733D01*
X163872998Y-51040400D01*
X163787002Y-51040400D01*
X163658389Y-51027733D01*
X163493379Y-50977678D01*
X163341302Y-50896391D01*
X163208004Y-50786996D01*
X163098609Y-50653698D01*
X163017322Y-50501621D01*
X162967267Y-50336611D01*
X162950365Y-50165000D01*
X162967267Y-49993389D01*
X163017322Y-49828379D01*
X163098609Y-49676302D01*
X163208004Y-49543004D01*
X163341302Y-49433609D01*
X163493379Y-49352322D01*
X163658389Y-49302267D01*
X163787002Y-49289600D01*
X163872998Y-49289600D01*
X164001611Y-49302267D01*
X164001611Y-49302267D01*
G37*
G36*
X124121611Y-47992267D02*
G01*
X124286621Y-48042322D01*
X124438698Y-48123609D01*
X124571996Y-48233004D01*
X124681391Y-48366302D01*
X124762678Y-48518379D01*
X124812733Y-48683389D01*
X124829635Y-48855000D01*
X124812733Y-49026611D01*
X124762678Y-49191621D01*
X124681391Y-49343698D01*
X124571996Y-49476996D01*
X124438698Y-49586391D01*
X124286621Y-49667678D01*
X124121611Y-49717733D01*
X123992998Y-49730400D01*
X123657002Y-49730400D01*
X123528389Y-49717733D01*
X123363379Y-49667678D01*
X123211302Y-49586391D01*
X123078004Y-49476996D01*
X122968609Y-49343698D01*
X122887322Y-49191621D01*
X122837267Y-49026611D01*
X122820365Y-48855000D01*
X122837267Y-48683389D01*
X122887322Y-48518379D01*
X122968609Y-48366302D01*
X123078004Y-48233004D01*
X123211302Y-48123609D01*
X123363379Y-48042322D01*
X123528389Y-47992267D01*
X123657002Y-47979600D01*
X123992998Y-47979600D01*
X124121611Y-47992267D01*
X124121611Y-47992267D01*
G37*
G36*
X164001611Y-46762267D02*
G01*
X164166621Y-46812322D01*
X164318698Y-46893609D01*
X164451996Y-47003004D01*
X164561391Y-47136302D01*
X164642678Y-47288379D01*
X164692733Y-47453389D01*
X164709635Y-47625000D01*
X164692733Y-47796611D01*
X164642678Y-47961621D01*
X164561391Y-48113698D01*
X164451996Y-48246996D01*
X164318698Y-48356391D01*
X164166621Y-48437678D01*
X164001611Y-48487733D01*
X163872998Y-48500400D01*
X163787002Y-48500400D01*
X163658389Y-48487733D01*
X163493379Y-48437678D01*
X163341302Y-48356391D01*
X163208004Y-48246996D01*
X163098609Y-48113698D01*
X163017322Y-47961621D01*
X162967267Y-47796611D01*
X162950365Y-47625000D01*
X162967267Y-47453389D01*
X163017322Y-47288379D01*
X163098609Y-47136302D01*
X163208004Y-47003004D01*
X163341302Y-46893609D01*
X163493379Y-46812322D01*
X163658389Y-46762267D01*
X163787002Y-46749600D01*
X163872998Y-46749600D01*
X164001611Y-46762267D01*
X164001611Y-46762267D01*
G37*
G36*
X124121611Y-45492267D02*
G01*
X124286621Y-45542322D01*
X124438698Y-45623609D01*
X124571996Y-45733004D01*
X124681391Y-45866302D01*
X124762678Y-46018379D01*
X124812733Y-46183389D01*
X124829635Y-46355000D01*
X124812733Y-46526611D01*
X124762678Y-46691621D01*
X124681391Y-46843698D01*
X124571996Y-46976996D01*
X124438698Y-47086391D01*
X124286621Y-47167678D01*
X124121611Y-47217733D01*
X123992998Y-47230400D01*
X123657002Y-47230400D01*
X123528389Y-47217733D01*
X123363379Y-47167678D01*
X123211302Y-47086391D01*
X123078004Y-46976996D01*
X122968609Y-46843698D01*
X122887322Y-46691621D01*
X122837267Y-46526611D01*
X122820365Y-46355000D01*
X122837267Y-46183389D01*
X122887322Y-46018379D01*
X122968609Y-45866302D01*
X123078004Y-45733004D01*
X123211302Y-45623609D01*
X123363379Y-45542322D01*
X123528389Y-45492267D01*
X123657002Y-45479600D01*
X123992998Y-45479600D01*
X124121611Y-45492267D01*
X124121611Y-45492267D01*
G37*
G36*
X164705400Y-45960400D02*
G01*
X162954600Y-45960400D01*
X162954600Y-44209600D01*
X164705400Y-44209600D01*
X164705400Y-45960400D01*
X164705400Y-45960400D01*
G37*
G36*
X124121611Y-42992267D02*
G01*
X124286621Y-43042322D01*
X124438698Y-43123609D01*
X124571996Y-43233004D01*
X124681391Y-43366302D01*
X124762678Y-43518379D01*
X124812733Y-43683389D01*
X124829635Y-43855000D01*
X124812733Y-44026611D01*
X124762678Y-44191621D01*
X124681391Y-44343698D01*
X124571996Y-44476996D01*
X124438698Y-44586391D01*
X124286621Y-44667678D01*
X124121611Y-44717733D01*
X123992998Y-44730400D01*
X123657002Y-44730400D01*
X123528389Y-44717733D01*
X123363379Y-44667678D01*
X123211302Y-44586391D01*
X123078004Y-44476996D01*
X122968609Y-44343698D01*
X122887322Y-44191621D01*
X122837267Y-44026611D01*
X122820365Y-43855000D01*
X122837267Y-43683389D01*
X122887322Y-43518379D01*
X122968609Y-43366302D01*
X123078004Y-43233004D01*
X123211302Y-43123609D01*
X123363379Y-43042322D01*
X123528389Y-42992267D01*
X123657002Y-42979600D01*
X123992998Y-42979600D01*
X124121611Y-42992267D01*
X124121611Y-42992267D01*
G37*
G36*
X124121611Y-40492267D02*
G01*
X124286621Y-40542322D01*
X124438698Y-40623609D01*
X124571996Y-40733004D01*
X124681391Y-40866302D01*
X124762678Y-41018379D01*
X124812733Y-41183389D01*
X124829635Y-41355000D01*
X124812733Y-41526611D01*
X124762678Y-41691621D01*
X124681391Y-41843698D01*
X124571996Y-41976996D01*
X124438698Y-42086391D01*
X124286621Y-42167678D01*
X124121611Y-42217733D01*
X123992998Y-42230400D01*
X123657002Y-42230400D01*
X123528389Y-42217733D01*
X123363379Y-42167678D01*
X123211302Y-42086391D01*
X123078004Y-41976996D01*
X122968609Y-41843698D01*
X122887322Y-41691621D01*
X122837267Y-41526611D01*
X122820365Y-41355000D01*
X122837267Y-41183389D01*
X122887322Y-41018379D01*
X122968609Y-40866302D01*
X123078004Y-40733004D01*
X123211302Y-40623609D01*
X123363379Y-40542322D01*
X123528389Y-40492267D01*
X123657002Y-40479600D01*
X123992998Y-40479600D01*
X124121611Y-40492267D01*
X124121611Y-40492267D01*
G37*
G36*
X124121611Y-37992267D02*
G01*
X124286621Y-38042322D01*
X124438698Y-38123609D01*
X124571996Y-38233004D01*
X124681391Y-38366302D01*
X124762678Y-38518379D01*
X124812733Y-38683389D01*
X124829635Y-38855000D01*
X124812733Y-39026611D01*
X124762678Y-39191621D01*
X124681391Y-39343698D01*
X124571996Y-39476996D01*
X124438698Y-39586391D01*
X124286621Y-39667678D01*
X124121611Y-39717733D01*
X123992998Y-39730400D01*
X123657002Y-39730400D01*
X123528389Y-39717733D01*
X123363379Y-39667678D01*
X123211302Y-39586391D01*
X123078004Y-39476996D01*
X122968609Y-39343698D01*
X122887322Y-39191621D01*
X122837267Y-39026611D01*
X122820365Y-38855000D01*
X122837267Y-38683389D01*
X122887322Y-38518379D01*
X122968609Y-38366302D01*
X123078004Y-38233004D01*
X123211302Y-38123609D01*
X123363379Y-38042322D01*
X123528389Y-37992267D01*
X123657002Y-37979600D01*
X123992998Y-37979600D01*
X124121611Y-37992267D01*
X124121611Y-37992267D01*
G37*
G36*
X124121611Y-35492267D02*
G01*
X124286621Y-35542322D01*
X124438698Y-35623609D01*
X124571996Y-35733004D01*
X124681391Y-35866302D01*
X124762678Y-36018379D01*
X124812733Y-36183389D01*
X124829635Y-36355000D01*
X124812733Y-36526611D01*
X124762678Y-36691621D01*
X124681391Y-36843698D01*
X124571996Y-36976996D01*
X124438698Y-37086391D01*
X124286621Y-37167678D01*
X124121611Y-37217733D01*
X123992998Y-37230400D01*
X123657002Y-37230400D01*
X123528389Y-37217733D01*
X123363379Y-37167678D01*
X123211302Y-37086391D01*
X123078004Y-36976996D01*
X122968609Y-36843698D01*
X122887322Y-36691621D01*
X122837267Y-36526611D01*
X122820365Y-36355000D01*
X122837267Y-36183389D01*
X122887322Y-36018379D01*
X122968609Y-35866302D01*
X123078004Y-35733004D01*
X123211302Y-35623609D01*
X123363379Y-35542322D01*
X123528389Y-35492267D01*
X123657002Y-35479600D01*
X123992998Y-35479600D01*
X124121611Y-35492267D01*
X124121611Y-35492267D01*
G37*
G36*
X124121611Y-32992267D02*
G01*
X124286621Y-33042322D01*
X124438698Y-33123609D01*
X124571996Y-33233004D01*
X124681391Y-33366302D01*
X124762678Y-33518379D01*
X124812733Y-33683389D01*
X124829635Y-33855000D01*
X124812733Y-34026611D01*
X124762678Y-34191621D01*
X124681391Y-34343698D01*
X124571996Y-34476996D01*
X124438698Y-34586391D01*
X124286621Y-34667678D01*
X124121611Y-34717733D01*
X123992998Y-34730400D01*
X123657002Y-34730400D01*
X123528389Y-34717733D01*
X123363379Y-34667678D01*
X123211302Y-34586391D01*
X123078004Y-34476996D01*
X122968609Y-34343698D01*
X122887322Y-34191621D01*
X122837267Y-34026611D01*
X122820365Y-33855000D01*
X122837267Y-33683389D01*
X122887322Y-33518379D01*
X122968609Y-33366302D01*
X123078004Y-33233004D01*
X123211302Y-33123609D01*
X123363379Y-33042322D01*
X123528389Y-32992267D01*
X123657002Y-32979600D01*
X123992998Y-32979600D01*
X124121611Y-32992267D01*
X124121611Y-32992267D01*
G37*
G36*
X164001611Y-26442267D02*
G01*
X164166621Y-26492322D01*
X164318698Y-26573609D01*
X164451996Y-26683004D01*
X164561391Y-26816302D01*
X164642678Y-26968379D01*
X164692733Y-27133389D01*
X164709635Y-27305000D01*
X164692733Y-27476611D01*
X164642678Y-27641621D01*
X164561391Y-27793698D01*
X164451996Y-27926996D01*
X164318698Y-28036391D01*
X164166621Y-28117678D01*
X164001611Y-28167733D01*
X163872998Y-28180400D01*
X163787002Y-28180400D01*
X163658389Y-28167733D01*
X163493379Y-28117678D01*
X163341302Y-28036391D01*
X163208004Y-27926996D01*
X163098609Y-27793698D01*
X163017322Y-27641621D01*
X162967267Y-27476611D01*
X162950365Y-27305000D01*
X162967267Y-27133389D01*
X163017322Y-26968379D01*
X163098609Y-26816302D01*
X163208004Y-26683004D01*
X163341302Y-26573609D01*
X163493379Y-26492322D01*
X163658389Y-26442267D01*
X163787002Y-26429600D01*
X163872998Y-26429600D01*
X164001611Y-26442267D01*
X164001611Y-26442267D01*
G37*
G36*
X164001611Y-23902267D02*
G01*
X164166621Y-23952322D01*
X164318698Y-24033609D01*
X164451996Y-24143004D01*
X164561391Y-24276302D01*
X164642678Y-24428379D01*
X164692733Y-24593389D01*
X164709635Y-24765000D01*
X164692733Y-24936611D01*
X164642678Y-25101621D01*
X164561391Y-25253698D01*
X164451996Y-25386996D01*
X164318698Y-25496391D01*
X164166621Y-25577678D01*
X164001611Y-25627733D01*
X163872998Y-25640400D01*
X163787002Y-25640400D01*
X163658389Y-25627733D01*
X163493379Y-25577678D01*
X163341302Y-25496391D01*
X163208004Y-25386996D01*
X163098609Y-25253698D01*
X163017322Y-25101621D01*
X162967267Y-24936611D01*
X162950365Y-24765000D01*
X162967267Y-24593389D01*
X163017322Y-24428379D01*
X163098609Y-24276302D01*
X163208004Y-24143004D01*
X163341302Y-24033609D01*
X163493379Y-23952322D01*
X163658389Y-23902267D01*
X163787002Y-23889600D01*
X163872998Y-23889600D01*
X164001611Y-23902267D01*
X164001611Y-23902267D01*
G37*
G36*
X164001611Y-21362267D02*
G01*
X164166621Y-21412322D01*
X164318698Y-21493609D01*
X164451996Y-21603004D01*
X164561391Y-21736302D01*
X164642678Y-21888379D01*
X164692733Y-22053389D01*
X164709635Y-22225000D01*
X164692733Y-22396611D01*
X164642678Y-22561621D01*
X164561391Y-22713698D01*
X164451996Y-22846996D01*
X164318698Y-22956391D01*
X164166621Y-23037678D01*
X164001611Y-23087733D01*
X163872998Y-23100400D01*
X163787002Y-23100400D01*
X163658389Y-23087733D01*
X163493379Y-23037678D01*
X163341302Y-22956391D01*
X163208004Y-22846996D01*
X163098609Y-22713698D01*
X163017322Y-22561621D01*
X162967267Y-22396611D01*
X162950365Y-22225000D01*
X162967267Y-22053389D01*
X163017322Y-21888379D01*
X163098609Y-21736302D01*
X163208004Y-21603004D01*
X163341302Y-21493609D01*
X163493379Y-21412322D01*
X163658389Y-21362267D01*
X163787002Y-21349600D01*
X163872998Y-21349600D01*
X164001611Y-21362267D01*
X164001611Y-21362267D01*
G37*
G36*
X164705400Y-20560400D02*
G01*
X162954600Y-20560400D01*
X162954600Y-18809600D01*
X164705400Y-18809600D01*
X164705400Y-20560400D01*
X164705400Y-20560400D01*
G37*
M02*
