%TF.GenerationSoftware,KiCad,Pcbnew,(5.1.2)-2*%
%TF.CreationDate,2019-07-04T00:25:09-07:00*%
%TF.ProjectId,PowerStage SubBoard 0-2,506f7765-7253-4746-9167-652053756242,rev?*%
%TF.SameCoordinates,Original*%
%TF.FileFunction,Soldermask,Top*%
%TF.FilePolarity,Negative*%
%FSLAX46Y46*%
G04 Gerber Fmt 4.6, Leading zero omitted, Abs format (unit mm)*
G04 Created by KiCad (PCBNEW (5.1.2)-2) date 2019-07-04 00:25:09*
%MOMM*%
%LPD*%
G04 APERTURE LIST*
%ADD10O,1.801600X1.801600*%
%ADD11R,1.801600X1.801600*%
%ADD12C,0.100000*%
%ADD13C,1.051600*%
%ADD14R,0.901600X1.001600*%
%ADD15R,5.901600X6.501600*%
%ADD16R,1.301600X2.301600*%
%ADD17R,1.101600X1.101600*%
%ADD18C,1.626600*%
%ADD19R,0.551600X1.601600*%
%ADD20R,0.751600X1.661600*%
%ADD21C,2.101600*%
%ADD22C,1.725000*%
%ADD23R,1.091600X0.506600*%
%ADD24C,3.901600*%
%ADD25R,4.601600X3.401600*%
%ADD26C,1.251600*%
%ADD27C,1.526600*%
G04 APERTURE END LIST*
D10*
X131445000Y-99060000D03*
X131445000Y-96520000D03*
X131445000Y-93980000D03*
X131445000Y-91440000D03*
X131445000Y-88900000D03*
X131445000Y-86360000D03*
D11*
X131445000Y-83820000D03*
D12*
G36*
X139008669Y-90597966D02*
G01*
X139034189Y-90601752D01*
X139059216Y-90608020D01*
X139083507Y-90616712D01*
X139106830Y-90627743D01*
X139128959Y-90641007D01*
X139149682Y-90656376D01*
X139168798Y-90673702D01*
X139186124Y-90692818D01*
X139201493Y-90713541D01*
X139214757Y-90735670D01*
X139225788Y-90758993D01*
X139234480Y-90783284D01*
X139240748Y-90808311D01*
X139244534Y-90833831D01*
X139245800Y-90859600D01*
X139245800Y-91385400D01*
X139244534Y-91411169D01*
X139240748Y-91436689D01*
X139234480Y-91461716D01*
X139225788Y-91486007D01*
X139214757Y-91509330D01*
X139201493Y-91531459D01*
X139186124Y-91552182D01*
X139168798Y-91571298D01*
X139149682Y-91588624D01*
X139128959Y-91603993D01*
X139106830Y-91617257D01*
X139083507Y-91628288D01*
X139059216Y-91636980D01*
X139034189Y-91643248D01*
X139008669Y-91647034D01*
X138982900Y-91648300D01*
X138357100Y-91648300D01*
X138331331Y-91647034D01*
X138305811Y-91643248D01*
X138280784Y-91636980D01*
X138256493Y-91628288D01*
X138233170Y-91617257D01*
X138211041Y-91603993D01*
X138190318Y-91588624D01*
X138171202Y-91571298D01*
X138153876Y-91552182D01*
X138138507Y-91531459D01*
X138125243Y-91509330D01*
X138114212Y-91486007D01*
X138105520Y-91461716D01*
X138099252Y-91436689D01*
X138095466Y-91411169D01*
X138094200Y-91385400D01*
X138094200Y-90859600D01*
X138095466Y-90833831D01*
X138099252Y-90808311D01*
X138105520Y-90783284D01*
X138114212Y-90758993D01*
X138125243Y-90735670D01*
X138138507Y-90713541D01*
X138153876Y-90692818D01*
X138171202Y-90673702D01*
X138190318Y-90656376D01*
X138211041Y-90641007D01*
X138233170Y-90627743D01*
X138256493Y-90616712D01*
X138280784Y-90608020D01*
X138305811Y-90601752D01*
X138331331Y-90597966D01*
X138357100Y-90596700D01*
X138982900Y-90596700D01*
X139008669Y-90597966D01*
X139008669Y-90597966D01*
G37*
D13*
X138670000Y-91122500D03*
D12*
G36*
X137258669Y-90597966D02*
G01*
X137284189Y-90601752D01*
X137309216Y-90608020D01*
X137333507Y-90616712D01*
X137356830Y-90627743D01*
X137378959Y-90641007D01*
X137399682Y-90656376D01*
X137418798Y-90673702D01*
X137436124Y-90692818D01*
X137451493Y-90713541D01*
X137464757Y-90735670D01*
X137475788Y-90758993D01*
X137484480Y-90783284D01*
X137490748Y-90808311D01*
X137494534Y-90833831D01*
X137495800Y-90859600D01*
X137495800Y-91385400D01*
X137494534Y-91411169D01*
X137490748Y-91436689D01*
X137484480Y-91461716D01*
X137475788Y-91486007D01*
X137464757Y-91509330D01*
X137451493Y-91531459D01*
X137436124Y-91552182D01*
X137418798Y-91571298D01*
X137399682Y-91588624D01*
X137378959Y-91603993D01*
X137356830Y-91617257D01*
X137333507Y-91628288D01*
X137309216Y-91636980D01*
X137284189Y-91643248D01*
X137258669Y-91647034D01*
X137232900Y-91648300D01*
X136607100Y-91648300D01*
X136581331Y-91647034D01*
X136555811Y-91643248D01*
X136530784Y-91636980D01*
X136506493Y-91628288D01*
X136483170Y-91617257D01*
X136461041Y-91603993D01*
X136440318Y-91588624D01*
X136421202Y-91571298D01*
X136403876Y-91552182D01*
X136388507Y-91531459D01*
X136375243Y-91509330D01*
X136364212Y-91486007D01*
X136355520Y-91461716D01*
X136349252Y-91436689D01*
X136345466Y-91411169D01*
X136344200Y-91385400D01*
X136344200Y-90859600D01*
X136345466Y-90833831D01*
X136349252Y-90808311D01*
X136355520Y-90783284D01*
X136364212Y-90758993D01*
X136375243Y-90735670D01*
X136388507Y-90713541D01*
X136403876Y-90692818D01*
X136421202Y-90673702D01*
X136440318Y-90656376D01*
X136461041Y-90641007D01*
X136483170Y-90627743D01*
X136506493Y-90616712D01*
X136530784Y-90608020D01*
X136555811Y-90601752D01*
X136581331Y-90597966D01*
X136607100Y-90596700D01*
X137232900Y-90596700D01*
X137258669Y-90597966D01*
X137258669Y-90597966D01*
G37*
D13*
X136920000Y-91122500D03*
D14*
X137795000Y-87646000D03*
X138745000Y-89646000D03*
X136845000Y-89646000D03*
D12*
G36*
X142183669Y-81390466D02*
G01*
X142209189Y-81394252D01*
X142234216Y-81400520D01*
X142258507Y-81409212D01*
X142281830Y-81420243D01*
X142303959Y-81433507D01*
X142324682Y-81448876D01*
X142343798Y-81466202D01*
X142361124Y-81485318D01*
X142376493Y-81506041D01*
X142389757Y-81528170D01*
X142400788Y-81551493D01*
X142409480Y-81575784D01*
X142415748Y-81600811D01*
X142419534Y-81626331D01*
X142420800Y-81652100D01*
X142420800Y-82177900D01*
X142419534Y-82203669D01*
X142415748Y-82229189D01*
X142409480Y-82254216D01*
X142400788Y-82278507D01*
X142389757Y-82301830D01*
X142376493Y-82323959D01*
X142361124Y-82344682D01*
X142343798Y-82363798D01*
X142324682Y-82381124D01*
X142303959Y-82396493D01*
X142281830Y-82409757D01*
X142258507Y-82420788D01*
X142234216Y-82429480D01*
X142209189Y-82435748D01*
X142183669Y-82439534D01*
X142157900Y-82440800D01*
X141532100Y-82440800D01*
X141506331Y-82439534D01*
X141480811Y-82435748D01*
X141455784Y-82429480D01*
X141431493Y-82420788D01*
X141408170Y-82409757D01*
X141386041Y-82396493D01*
X141365318Y-82381124D01*
X141346202Y-82363798D01*
X141328876Y-82344682D01*
X141313507Y-82323959D01*
X141300243Y-82301830D01*
X141289212Y-82278507D01*
X141280520Y-82254216D01*
X141274252Y-82229189D01*
X141270466Y-82203669D01*
X141269200Y-82177900D01*
X141269200Y-81652100D01*
X141270466Y-81626331D01*
X141274252Y-81600811D01*
X141280520Y-81575784D01*
X141289212Y-81551493D01*
X141300243Y-81528170D01*
X141313507Y-81506041D01*
X141328876Y-81485318D01*
X141346202Y-81466202D01*
X141365318Y-81448876D01*
X141386041Y-81433507D01*
X141408170Y-81420243D01*
X141431493Y-81409212D01*
X141455784Y-81400520D01*
X141480811Y-81394252D01*
X141506331Y-81390466D01*
X141532100Y-81389200D01*
X142157900Y-81389200D01*
X142183669Y-81390466D01*
X142183669Y-81390466D01*
G37*
D13*
X141845000Y-81915000D03*
D12*
G36*
X140433669Y-81390466D02*
G01*
X140459189Y-81394252D01*
X140484216Y-81400520D01*
X140508507Y-81409212D01*
X140531830Y-81420243D01*
X140553959Y-81433507D01*
X140574682Y-81448876D01*
X140593798Y-81466202D01*
X140611124Y-81485318D01*
X140626493Y-81506041D01*
X140639757Y-81528170D01*
X140650788Y-81551493D01*
X140659480Y-81575784D01*
X140665748Y-81600811D01*
X140669534Y-81626331D01*
X140670800Y-81652100D01*
X140670800Y-82177900D01*
X140669534Y-82203669D01*
X140665748Y-82229189D01*
X140659480Y-82254216D01*
X140650788Y-82278507D01*
X140639757Y-82301830D01*
X140626493Y-82323959D01*
X140611124Y-82344682D01*
X140593798Y-82363798D01*
X140574682Y-82381124D01*
X140553959Y-82396493D01*
X140531830Y-82409757D01*
X140508507Y-82420788D01*
X140484216Y-82429480D01*
X140459189Y-82435748D01*
X140433669Y-82439534D01*
X140407900Y-82440800D01*
X139782100Y-82440800D01*
X139756331Y-82439534D01*
X139730811Y-82435748D01*
X139705784Y-82429480D01*
X139681493Y-82420788D01*
X139658170Y-82409757D01*
X139636041Y-82396493D01*
X139615318Y-82381124D01*
X139596202Y-82363798D01*
X139578876Y-82344682D01*
X139563507Y-82323959D01*
X139550243Y-82301830D01*
X139539212Y-82278507D01*
X139530520Y-82254216D01*
X139524252Y-82229189D01*
X139520466Y-82203669D01*
X139519200Y-82177900D01*
X139519200Y-81652100D01*
X139520466Y-81626331D01*
X139524252Y-81600811D01*
X139530520Y-81575784D01*
X139539212Y-81551493D01*
X139550243Y-81528170D01*
X139563507Y-81506041D01*
X139578876Y-81485318D01*
X139596202Y-81466202D01*
X139615318Y-81448876D01*
X139636041Y-81433507D01*
X139658170Y-81420243D01*
X139681493Y-81409212D01*
X139705784Y-81400520D01*
X139730811Y-81394252D01*
X139756331Y-81390466D01*
X139782100Y-81389200D01*
X140407900Y-81389200D01*
X140433669Y-81390466D01*
X140433669Y-81390466D01*
G37*
D13*
X140095000Y-81915000D03*
D12*
G36*
X140433669Y-79485466D02*
G01*
X140459189Y-79489252D01*
X140484216Y-79495520D01*
X140508507Y-79504212D01*
X140531830Y-79515243D01*
X140553959Y-79528507D01*
X140574682Y-79543876D01*
X140593798Y-79561202D01*
X140611124Y-79580318D01*
X140626493Y-79601041D01*
X140639757Y-79623170D01*
X140650788Y-79646493D01*
X140659480Y-79670784D01*
X140665748Y-79695811D01*
X140669534Y-79721331D01*
X140670800Y-79747100D01*
X140670800Y-80272900D01*
X140669534Y-80298669D01*
X140665748Y-80324189D01*
X140659480Y-80349216D01*
X140650788Y-80373507D01*
X140639757Y-80396830D01*
X140626493Y-80418959D01*
X140611124Y-80439682D01*
X140593798Y-80458798D01*
X140574682Y-80476124D01*
X140553959Y-80491493D01*
X140531830Y-80504757D01*
X140508507Y-80515788D01*
X140484216Y-80524480D01*
X140459189Y-80530748D01*
X140433669Y-80534534D01*
X140407900Y-80535800D01*
X139782100Y-80535800D01*
X139756331Y-80534534D01*
X139730811Y-80530748D01*
X139705784Y-80524480D01*
X139681493Y-80515788D01*
X139658170Y-80504757D01*
X139636041Y-80491493D01*
X139615318Y-80476124D01*
X139596202Y-80458798D01*
X139578876Y-80439682D01*
X139563507Y-80418959D01*
X139550243Y-80396830D01*
X139539212Y-80373507D01*
X139530520Y-80349216D01*
X139524252Y-80324189D01*
X139520466Y-80298669D01*
X139519200Y-80272900D01*
X139519200Y-79747100D01*
X139520466Y-79721331D01*
X139524252Y-79695811D01*
X139530520Y-79670784D01*
X139539212Y-79646493D01*
X139550243Y-79623170D01*
X139563507Y-79601041D01*
X139578876Y-79580318D01*
X139596202Y-79561202D01*
X139615318Y-79543876D01*
X139636041Y-79528507D01*
X139658170Y-79515243D01*
X139681493Y-79504212D01*
X139705784Y-79495520D01*
X139730811Y-79489252D01*
X139756331Y-79485466D01*
X139782100Y-79484200D01*
X140407900Y-79484200D01*
X140433669Y-79485466D01*
X140433669Y-79485466D01*
G37*
D13*
X140095000Y-80010000D03*
D12*
G36*
X142183669Y-79485466D02*
G01*
X142209189Y-79489252D01*
X142234216Y-79495520D01*
X142258507Y-79504212D01*
X142281830Y-79515243D01*
X142303959Y-79528507D01*
X142324682Y-79543876D01*
X142343798Y-79561202D01*
X142361124Y-79580318D01*
X142376493Y-79601041D01*
X142389757Y-79623170D01*
X142400788Y-79646493D01*
X142409480Y-79670784D01*
X142415748Y-79695811D01*
X142419534Y-79721331D01*
X142420800Y-79747100D01*
X142420800Y-80272900D01*
X142419534Y-80298669D01*
X142415748Y-80324189D01*
X142409480Y-80349216D01*
X142400788Y-80373507D01*
X142389757Y-80396830D01*
X142376493Y-80418959D01*
X142361124Y-80439682D01*
X142343798Y-80458798D01*
X142324682Y-80476124D01*
X142303959Y-80491493D01*
X142281830Y-80504757D01*
X142258507Y-80515788D01*
X142234216Y-80524480D01*
X142209189Y-80530748D01*
X142183669Y-80534534D01*
X142157900Y-80535800D01*
X141532100Y-80535800D01*
X141506331Y-80534534D01*
X141480811Y-80530748D01*
X141455784Y-80524480D01*
X141431493Y-80515788D01*
X141408170Y-80504757D01*
X141386041Y-80491493D01*
X141365318Y-80476124D01*
X141346202Y-80458798D01*
X141328876Y-80439682D01*
X141313507Y-80418959D01*
X141300243Y-80396830D01*
X141289212Y-80373507D01*
X141280520Y-80349216D01*
X141274252Y-80324189D01*
X141270466Y-80298669D01*
X141269200Y-80272900D01*
X141269200Y-79747100D01*
X141270466Y-79721331D01*
X141274252Y-79695811D01*
X141280520Y-79670784D01*
X141289212Y-79646493D01*
X141300243Y-79623170D01*
X141313507Y-79601041D01*
X141328876Y-79580318D01*
X141346202Y-79561202D01*
X141365318Y-79543876D01*
X141386041Y-79528507D01*
X141408170Y-79515243D01*
X141431493Y-79504212D01*
X141455784Y-79495520D01*
X141480811Y-79489252D01*
X141506331Y-79485466D01*
X141532100Y-79484200D01*
X142157900Y-79484200D01*
X142183669Y-79485466D01*
X142183669Y-79485466D01*
G37*
D13*
X141845000Y-80010000D03*
D15*
X176530000Y-91880000D03*
D16*
X178810000Y-98180000D03*
X174250000Y-98180000D03*
D17*
X147975000Y-108585000D03*
X150475000Y-108585000D03*
D12*
G36*
X161415282Y-105590484D02*
G01*
X161441167Y-105594324D01*
X161466551Y-105600682D01*
X161491189Y-105609498D01*
X161514845Y-105620686D01*
X161537291Y-105634139D01*
X161558309Y-105649728D01*
X161577699Y-105667301D01*
X161595272Y-105686691D01*
X161610861Y-105707709D01*
X161624314Y-105730155D01*
X161635502Y-105753811D01*
X161644318Y-105778449D01*
X161650676Y-105803833D01*
X161654516Y-105829718D01*
X161655800Y-105855855D01*
X161655800Y-108774145D01*
X161654516Y-108800282D01*
X161650676Y-108826167D01*
X161644318Y-108851551D01*
X161635502Y-108876189D01*
X161624314Y-108899845D01*
X161610861Y-108922291D01*
X161595272Y-108943309D01*
X161577699Y-108962699D01*
X161558309Y-108980272D01*
X161537291Y-108995861D01*
X161514845Y-109009314D01*
X161491189Y-109020502D01*
X161466551Y-109029318D01*
X161441167Y-109035676D01*
X161415282Y-109039516D01*
X161389145Y-109040800D01*
X160295855Y-109040800D01*
X160269718Y-109039516D01*
X160243833Y-109035676D01*
X160218449Y-109029318D01*
X160193811Y-109020502D01*
X160170155Y-109009314D01*
X160147709Y-108995861D01*
X160126691Y-108980272D01*
X160107301Y-108962699D01*
X160089728Y-108943309D01*
X160074139Y-108922291D01*
X160060686Y-108899845D01*
X160049498Y-108876189D01*
X160040682Y-108851551D01*
X160034324Y-108826167D01*
X160030484Y-108800282D01*
X160029200Y-108774145D01*
X160029200Y-105855855D01*
X160030484Y-105829718D01*
X160034324Y-105803833D01*
X160040682Y-105778449D01*
X160049498Y-105753811D01*
X160060686Y-105730155D01*
X160074139Y-105707709D01*
X160089728Y-105686691D01*
X160107301Y-105667301D01*
X160126691Y-105649728D01*
X160147709Y-105634139D01*
X160170155Y-105620686D01*
X160193811Y-105609498D01*
X160218449Y-105600682D01*
X160243833Y-105594324D01*
X160269718Y-105590484D01*
X160295855Y-105589200D01*
X161389145Y-105589200D01*
X161415282Y-105590484D01*
X161415282Y-105590484D01*
G37*
D18*
X160842500Y-107315000D03*
D12*
G36*
X167390282Y-105590484D02*
G01*
X167416167Y-105594324D01*
X167441551Y-105600682D01*
X167466189Y-105609498D01*
X167489845Y-105620686D01*
X167512291Y-105634139D01*
X167533309Y-105649728D01*
X167552699Y-105667301D01*
X167570272Y-105686691D01*
X167585861Y-105707709D01*
X167599314Y-105730155D01*
X167610502Y-105753811D01*
X167619318Y-105778449D01*
X167625676Y-105803833D01*
X167629516Y-105829718D01*
X167630800Y-105855855D01*
X167630800Y-108774145D01*
X167629516Y-108800282D01*
X167625676Y-108826167D01*
X167619318Y-108851551D01*
X167610502Y-108876189D01*
X167599314Y-108899845D01*
X167585861Y-108922291D01*
X167570272Y-108943309D01*
X167552699Y-108962699D01*
X167533309Y-108980272D01*
X167512291Y-108995861D01*
X167489845Y-109009314D01*
X167466189Y-109020502D01*
X167441551Y-109029318D01*
X167416167Y-109035676D01*
X167390282Y-109039516D01*
X167364145Y-109040800D01*
X166270855Y-109040800D01*
X166244718Y-109039516D01*
X166218833Y-109035676D01*
X166193449Y-109029318D01*
X166168811Y-109020502D01*
X166145155Y-109009314D01*
X166122709Y-108995861D01*
X166101691Y-108980272D01*
X166082301Y-108962699D01*
X166064728Y-108943309D01*
X166049139Y-108922291D01*
X166035686Y-108899845D01*
X166024498Y-108876189D01*
X166015682Y-108851551D01*
X166009324Y-108826167D01*
X166005484Y-108800282D01*
X166004200Y-108774145D01*
X166004200Y-105855855D01*
X166005484Y-105829718D01*
X166009324Y-105803833D01*
X166015682Y-105778449D01*
X166024498Y-105753811D01*
X166035686Y-105730155D01*
X166049139Y-105707709D01*
X166064728Y-105686691D01*
X166082301Y-105667301D01*
X166101691Y-105649728D01*
X166122709Y-105634139D01*
X166145155Y-105620686D01*
X166168811Y-105609498D01*
X166193449Y-105600682D01*
X166218833Y-105594324D01*
X166244718Y-105590484D01*
X166270855Y-105589200D01*
X167364145Y-105589200D01*
X167390282Y-105590484D01*
X167390282Y-105590484D01*
G37*
D18*
X166817500Y-107315000D03*
D12*
G36*
X159135282Y-101145484D02*
G01*
X159161167Y-101149324D01*
X159186551Y-101155682D01*
X159211189Y-101164498D01*
X159234845Y-101175686D01*
X159257291Y-101189139D01*
X159278309Y-101204728D01*
X159297699Y-101222301D01*
X159315272Y-101241691D01*
X159330861Y-101262709D01*
X159344314Y-101285155D01*
X159355502Y-101308811D01*
X159364318Y-101333449D01*
X159370676Y-101358833D01*
X159374516Y-101384718D01*
X159375800Y-101410855D01*
X159375800Y-104329145D01*
X159374516Y-104355282D01*
X159370676Y-104381167D01*
X159364318Y-104406551D01*
X159355502Y-104431189D01*
X159344314Y-104454845D01*
X159330861Y-104477291D01*
X159315272Y-104498309D01*
X159297699Y-104517699D01*
X159278309Y-104535272D01*
X159257291Y-104550861D01*
X159234845Y-104564314D01*
X159211189Y-104575502D01*
X159186551Y-104584318D01*
X159161167Y-104590676D01*
X159135282Y-104594516D01*
X159109145Y-104595800D01*
X158015855Y-104595800D01*
X157989718Y-104594516D01*
X157963833Y-104590676D01*
X157938449Y-104584318D01*
X157913811Y-104575502D01*
X157890155Y-104564314D01*
X157867709Y-104550861D01*
X157846691Y-104535272D01*
X157827301Y-104517699D01*
X157809728Y-104498309D01*
X157794139Y-104477291D01*
X157780686Y-104454845D01*
X157769498Y-104431189D01*
X157760682Y-104406551D01*
X157754324Y-104381167D01*
X157750484Y-104355282D01*
X157749200Y-104329145D01*
X157749200Y-101410855D01*
X157750484Y-101384718D01*
X157754324Y-101358833D01*
X157760682Y-101333449D01*
X157769498Y-101308811D01*
X157780686Y-101285155D01*
X157794139Y-101262709D01*
X157809728Y-101241691D01*
X157827301Y-101222301D01*
X157846691Y-101204728D01*
X157867709Y-101189139D01*
X157890155Y-101175686D01*
X157913811Y-101164498D01*
X157938449Y-101155682D01*
X157963833Y-101149324D01*
X157989718Y-101145484D01*
X158015855Y-101144200D01*
X159109145Y-101144200D01*
X159135282Y-101145484D01*
X159135282Y-101145484D01*
G37*
D18*
X158562500Y-102870000D03*
D12*
G36*
X153160282Y-101145484D02*
G01*
X153186167Y-101149324D01*
X153211551Y-101155682D01*
X153236189Y-101164498D01*
X153259845Y-101175686D01*
X153282291Y-101189139D01*
X153303309Y-101204728D01*
X153322699Y-101222301D01*
X153340272Y-101241691D01*
X153355861Y-101262709D01*
X153369314Y-101285155D01*
X153380502Y-101308811D01*
X153389318Y-101333449D01*
X153395676Y-101358833D01*
X153399516Y-101384718D01*
X153400800Y-101410855D01*
X153400800Y-104329145D01*
X153399516Y-104355282D01*
X153395676Y-104381167D01*
X153389318Y-104406551D01*
X153380502Y-104431189D01*
X153369314Y-104454845D01*
X153355861Y-104477291D01*
X153340272Y-104498309D01*
X153322699Y-104517699D01*
X153303309Y-104535272D01*
X153282291Y-104550861D01*
X153259845Y-104564314D01*
X153236189Y-104575502D01*
X153211551Y-104584318D01*
X153186167Y-104590676D01*
X153160282Y-104594516D01*
X153134145Y-104595800D01*
X152040855Y-104595800D01*
X152014718Y-104594516D01*
X151988833Y-104590676D01*
X151963449Y-104584318D01*
X151938811Y-104575502D01*
X151915155Y-104564314D01*
X151892709Y-104550861D01*
X151871691Y-104535272D01*
X151852301Y-104517699D01*
X151834728Y-104498309D01*
X151819139Y-104477291D01*
X151805686Y-104454845D01*
X151794498Y-104431189D01*
X151785682Y-104406551D01*
X151779324Y-104381167D01*
X151775484Y-104355282D01*
X151774200Y-104329145D01*
X151774200Y-101410855D01*
X151775484Y-101384718D01*
X151779324Y-101358833D01*
X151785682Y-101333449D01*
X151794498Y-101308811D01*
X151805686Y-101285155D01*
X151819139Y-101262709D01*
X151834728Y-101241691D01*
X151852301Y-101222301D01*
X151871691Y-101204728D01*
X151892709Y-101189139D01*
X151915155Y-101175686D01*
X151938811Y-101164498D01*
X151963449Y-101155682D01*
X151988833Y-101149324D01*
X152014718Y-101145484D01*
X152040855Y-101144200D01*
X153134145Y-101144200D01*
X153160282Y-101145484D01*
X153160282Y-101145484D01*
G37*
D18*
X152587500Y-102870000D03*
D12*
G36*
X153160282Y-105590484D02*
G01*
X153186167Y-105594324D01*
X153211551Y-105600682D01*
X153236189Y-105609498D01*
X153259845Y-105620686D01*
X153282291Y-105634139D01*
X153303309Y-105649728D01*
X153322699Y-105667301D01*
X153340272Y-105686691D01*
X153355861Y-105707709D01*
X153369314Y-105730155D01*
X153380502Y-105753811D01*
X153389318Y-105778449D01*
X153395676Y-105803833D01*
X153399516Y-105829718D01*
X153400800Y-105855855D01*
X153400800Y-108774145D01*
X153399516Y-108800282D01*
X153395676Y-108826167D01*
X153389318Y-108851551D01*
X153380502Y-108876189D01*
X153369314Y-108899845D01*
X153355861Y-108922291D01*
X153340272Y-108943309D01*
X153322699Y-108962699D01*
X153303309Y-108980272D01*
X153282291Y-108995861D01*
X153259845Y-109009314D01*
X153236189Y-109020502D01*
X153211551Y-109029318D01*
X153186167Y-109035676D01*
X153160282Y-109039516D01*
X153134145Y-109040800D01*
X152040855Y-109040800D01*
X152014718Y-109039516D01*
X151988833Y-109035676D01*
X151963449Y-109029318D01*
X151938811Y-109020502D01*
X151915155Y-109009314D01*
X151892709Y-108995861D01*
X151871691Y-108980272D01*
X151852301Y-108962699D01*
X151834728Y-108943309D01*
X151819139Y-108922291D01*
X151805686Y-108899845D01*
X151794498Y-108876189D01*
X151785682Y-108851551D01*
X151779324Y-108826167D01*
X151775484Y-108800282D01*
X151774200Y-108774145D01*
X151774200Y-105855855D01*
X151775484Y-105829718D01*
X151779324Y-105803833D01*
X151785682Y-105778449D01*
X151794498Y-105753811D01*
X151805686Y-105730155D01*
X151819139Y-105707709D01*
X151834728Y-105686691D01*
X151852301Y-105667301D01*
X151871691Y-105649728D01*
X151892709Y-105634139D01*
X151915155Y-105620686D01*
X151938811Y-105609498D01*
X151963449Y-105600682D01*
X151988833Y-105594324D01*
X152014718Y-105590484D01*
X152040855Y-105589200D01*
X153134145Y-105589200D01*
X153160282Y-105590484D01*
X153160282Y-105590484D01*
G37*
D18*
X152587500Y-107315000D03*
D12*
G36*
X159135282Y-105590484D02*
G01*
X159161167Y-105594324D01*
X159186551Y-105600682D01*
X159211189Y-105609498D01*
X159234845Y-105620686D01*
X159257291Y-105634139D01*
X159278309Y-105649728D01*
X159297699Y-105667301D01*
X159315272Y-105686691D01*
X159330861Y-105707709D01*
X159344314Y-105730155D01*
X159355502Y-105753811D01*
X159364318Y-105778449D01*
X159370676Y-105803833D01*
X159374516Y-105829718D01*
X159375800Y-105855855D01*
X159375800Y-108774145D01*
X159374516Y-108800282D01*
X159370676Y-108826167D01*
X159364318Y-108851551D01*
X159355502Y-108876189D01*
X159344314Y-108899845D01*
X159330861Y-108922291D01*
X159315272Y-108943309D01*
X159297699Y-108962699D01*
X159278309Y-108980272D01*
X159257291Y-108995861D01*
X159234845Y-109009314D01*
X159211189Y-109020502D01*
X159186551Y-109029318D01*
X159161167Y-109035676D01*
X159135282Y-109039516D01*
X159109145Y-109040800D01*
X158015855Y-109040800D01*
X157989718Y-109039516D01*
X157963833Y-109035676D01*
X157938449Y-109029318D01*
X157913811Y-109020502D01*
X157890155Y-109009314D01*
X157867709Y-108995861D01*
X157846691Y-108980272D01*
X157827301Y-108962699D01*
X157809728Y-108943309D01*
X157794139Y-108922291D01*
X157780686Y-108899845D01*
X157769498Y-108876189D01*
X157760682Y-108851551D01*
X157754324Y-108826167D01*
X157750484Y-108800282D01*
X157749200Y-108774145D01*
X157749200Y-105855855D01*
X157750484Y-105829718D01*
X157754324Y-105803833D01*
X157760682Y-105778449D01*
X157769498Y-105753811D01*
X157780686Y-105730155D01*
X157794139Y-105707709D01*
X157809728Y-105686691D01*
X157827301Y-105667301D01*
X157846691Y-105649728D01*
X157867709Y-105634139D01*
X157890155Y-105620686D01*
X157913811Y-105609498D01*
X157938449Y-105600682D01*
X157963833Y-105594324D01*
X157989718Y-105590484D01*
X158015855Y-105589200D01*
X159109145Y-105589200D01*
X159135282Y-105590484D01*
X159135282Y-105590484D01*
G37*
D18*
X158562500Y-107315000D03*
D19*
X145150000Y-98835000D03*
X144500000Y-98835000D03*
X143850000Y-98835000D03*
X143200000Y-98835000D03*
X142550000Y-98835000D03*
X141900000Y-98835000D03*
X141250000Y-98835000D03*
X140600000Y-98835000D03*
X140600000Y-92935000D03*
X141250000Y-92935000D03*
X141900000Y-92935000D03*
X142550000Y-92935000D03*
X143200000Y-92935000D03*
X143850000Y-92935000D03*
X144500000Y-92935000D03*
X145150000Y-92935000D03*
D20*
X151130000Y-84375000D03*
X150180000Y-84375000D03*
X152080000Y-84375000D03*
X152080000Y-87075000D03*
X151130000Y-87075000D03*
X150180000Y-87075000D03*
X144780000Y-87075000D03*
X145730000Y-87075000D03*
X143830000Y-87075000D03*
X143830000Y-84375000D03*
X144780000Y-84375000D03*
X145730000Y-84375000D03*
D21*
X140970000Y-102235000D03*
X144780000Y-102235000D03*
X148590000Y-102235000D03*
X166370000Y-86360000D03*
X166370000Y-81280000D03*
X144526000Y-90297000D03*
X147955000Y-87630000D03*
X147955000Y-83820000D03*
D12*
G36*
X139008669Y-94407966D02*
G01*
X139034189Y-94411752D01*
X139059216Y-94418020D01*
X139083507Y-94426712D01*
X139106830Y-94437743D01*
X139128959Y-94451007D01*
X139149682Y-94466376D01*
X139168798Y-94483702D01*
X139186124Y-94502818D01*
X139201493Y-94523541D01*
X139214757Y-94545670D01*
X139225788Y-94568993D01*
X139234480Y-94593284D01*
X139240748Y-94618311D01*
X139244534Y-94643831D01*
X139245800Y-94669600D01*
X139245800Y-95195400D01*
X139244534Y-95221169D01*
X139240748Y-95246689D01*
X139234480Y-95271716D01*
X139225788Y-95296007D01*
X139214757Y-95319330D01*
X139201493Y-95341459D01*
X139186124Y-95362182D01*
X139168798Y-95381298D01*
X139149682Y-95398624D01*
X139128959Y-95413993D01*
X139106830Y-95427257D01*
X139083507Y-95438288D01*
X139059216Y-95446980D01*
X139034189Y-95453248D01*
X139008669Y-95457034D01*
X138982900Y-95458300D01*
X138357100Y-95458300D01*
X138331331Y-95457034D01*
X138305811Y-95453248D01*
X138280784Y-95446980D01*
X138256493Y-95438288D01*
X138233170Y-95427257D01*
X138211041Y-95413993D01*
X138190318Y-95398624D01*
X138171202Y-95381298D01*
X138153876Y-95362182D01*
X138138507Y-95341459D01*
X138125243Y-95319330D01*
X138114212Y-95296007D01*
X138105520Y-95271716D01*
X138099252Y-95246689D01*
X138095466Y-95221169D01*
X138094200Y-95195400D01*
X138094200Y-94669600D01*
X138095466Y-94643831D01*
X138099252Y-94618311D01*
X138105520Y-94593284D01*
X138114212Y-94568993D01*
X138125243Y-94545670D01*
X138138507Y-94523541D01*
X138153876Y-94502818D01*
X138171202Y-94483702D01*
X138190318Y-94466376D01*
X138211041Y-94451007D01*
X138233170Y-94437743D01*
X138256493Y-94426712D01*
X138280784Y-94418020D01*
X138305811Y-94411752D01*
X138331331Y-94407966D01*
X138357100Y-94406700D01*
X138982900Y-94406700D01*
X139008669Y-94407966D01*
X139008669Y-94407966D01*
G37*
D13*
X138670000Y-94932500D03*
D12*
G36*
X137258669Y-94407966D02*
G01*
X137284189Y-94411752D01*
X137309216Y-94418020D01*
X137333507Y-94426712D01*
X137356830Y-94437743D01*
X137378959Y-94451007D01*
X137399682Y-94466376D01*
X137418798Y-94483702D01*
X137436124Y-94502818D01*
X137451493Y-94523541D01*
X137464757Y-94545670D01*
X137475788Y-94568993D01*
X137484480Y-94593284D01*
X137490748Y-94618311D01*
X137494534Y-94643831D01*
X137495800Y-94669600D01*
X137495800Y-95195400D01*
X137494534Y-95221169D01*
X137490748Y-95246689D01*
X137484480Y-95271716D01*
X137475788Y-95296007D01*
X137464757Y-95319330D01*
X137451493Y-95341459D01*
X137436124Y-95362182D01*
X137418798Y-95381298D01*
X137399682Y-95398624D01*
X137378959Y-95413993D01*
X137356830Y-95427257D01*
X137333507Y-95438288D01*
X137309216Y-95446980D01*
X137284189Y-95453248D01*
X137258669Y-95457034D01*
X137232900Y-95458300D01*
X136607100Y-95458300D01*
X136581331Y-95457034D01*
X136555811Y-95453248D01*
X136530784Y-95446980D01*
X136506493Y-95438288D01*
X136483170Y-95427257D01*
X136461041Y-95413993D01*
X136440318Y-95398624D01*
X136421202Y-95381298D01*
X136403876Y-95362182D01*
X136388507Y-95341459D01*
X136375243Y-95319330D01*
X136364212Y-95296007D01*
X136355520Y-95271716D01*
X136349252Y-95246689D01*
X136345466Y-95221169D01*
X136344200Y-95195400D01*
X136344200Y-94669600D01*
X136345466Y-94643831D01*
X136349252Y-94618311D01*
X136355520Y-94593284D01*
X136364212Y-94568993D01*
X136375243Y-94545670D01*
X136388507Y-94523541D01*
X136403876Y-94502818D01*
X136421202Y-94483702D01*
X136440318Y-94466376D01*
X136461041Y-94451007D01*
X136483170Y-94437743D01*
X136506493Y-94426712D01*
X136530784Y-94418020D01*
X136555811Y-94411752D01*
X136581331Y-94407966D01*
X136607100Y-94406700D01*
X137232900Y-94406700D01*
X137258669Y-94407966D01*
X137258669Y-94407966D01*
G37*
D13*
X136920000Y-94932500D03*
D12*
G36*
X161415282Y-101145484D02*
G01*
X161441167Y-101149324D01*
X161466551Y-101155682D01*
X161491189Y-101164498D01*
X161514845Y-101175686D01*
X161537291Y-101189139D01*
X161558309Y-101204728D01*
X161577699Y-101222301D01*
X161595272Y-101241691D01*
X161610861Y-101262709D01*
X161624314Y-101285155D01*
X161635502Y-101308811D01*
X161644318Y-101333449D01*
X161650676Y-101358833D01*
X161654516Y-101384718D01*
X161655800Y-101410855D01*
X161655800Y-104329145D01*
X161654516Y-104355282D01*
X161650676Y-104381167D01*
X161644318Y-104406551D01*
X161635502Y-104431189D01*
X161624314Y-104454845D01*
X161610861Y-104477291D01*
X161595272Y-104498309D01*
X161577699Y-104517699D01*
X161558309Y-104535272D01*
X161537291Y-104550861D01*
X161514845Y-104564314D01*
X161491189Y-104575502D01*
X161466551Y-104584318D01*
X161441167Y-104590676D01*
X161415282Y-104594516D01*
X161389145Y-104595800D01*
X160295855Y-104595800D01*
X160269718Y-104594516D01*
X160243833Y-104590676D01*
X160218449Y-104584318D01*
X160193811Y-104575502D01*
X160170155Y-104564314D01*
X160147709Y-104550861D01*
X160126691Y-104535272D01*
X160107301Y-104517699D01*
X160089728Y-104498309D01*
X160074139Y-104477291D01*
X160060686Y-104454845D01*
X160049498Y-104431189D01*
X160040682Y-104406551D01*
X160034324Y-104381167D01*
X160030484Y-104355282D01*
X160029200Y-104329145D01*
X160029200Y-101410855D01*
X160030484Y-101384718D01*
X160034324Y-101358833D01*
X160040682Y-101333449D01*
X160049498Y-101308811D01*
X160060686Y-101285155D01*
X160074139Y-101262709D01*
X160089728Y-101241691D01*
X160107301Y-101222301D01*
X160126691Y-101204728D01*
X160147709Y-101189139D01*
X160170155Y-101175686D01*
X160193811Y-101164498D01*
X160218449Y-101155682D01*
X160243833Y-101149324D01*
X160269718Y-101145484D01*
X160295855Y-101144200D01*
X161389145Y-101144200D01*
X161415282Y-101145484D01*
X161415282Y-101145484D01*
G37*
D18*
X160842500Y-102870000D03*
D12*
G36*
X167390282Y-101145484D02*
G01*
X167416167Y-101149324D01*
X167441551Y-101155682D01*
X167466189Y-101164498D01*
X167489845Y-101175686D01*
X167512291Y-101189139D01*
X167533309Y-101204728D01*
X167552699Y-101222301D01*
X167570272Y-101241691D01*
X167585861Y-101262709D01*
X167599314Y-101285155D01*
X167610502Y-101308811D01*
X167619318Y-101333449D01*
X167625676Y-101358833D01*
X167629516Y-101384718D01*
X167630800Y-101410855D01*
X167630800Y-104329145D01*
X167629516Y-104355282D01*
X167625676Y-104381167D01*
X167619318Y-104406551D01*
X167610502Y-104431189D01*
X167599314Y-104454845D01*
X167585861Y-104477291D01*
X167570272Y-104498309D01*
X167552699Y-104517699D01*
X167533309Y-104535272D01*
X167512291Y-104550861D01*
X167489845Y-104564314D01*
X167466189Y-104575502D01*
X167441551Y-104584318D01*
X167416167Y-104590676D01*
X167390282Y-104594516D01*
X167364145Y-104595800D01*
X166270855Y-104595800D01*
X166244718Y-104594516D01*
X166218833Y-104590676D01*
X166193449Y-104584318D01*
X166168811Y-104575502D01*
X166145155Y-104564314D01*
X166122709Y-104550861D01*
X166101691Y-104535272D01*
X166082301Y-104517699D01*
X166064728Y-104498309D01*
X166049139Y-104477291D01*
X166035686Y-104454845D01*
X166024498Y-104431189D01*
X166015682Y-104406551D01*
X166009324Y-104381167D01*
X166005484Y-104355282D01*
X166004200Y-104329145D01*
X166004200Y-101410855D01*
X166005484Y-101384718D01*
X166009324Y-101358833D01*
X166015682Y-101333449D01*
X166024498Y-101308811D01*
X166035686Y-101285155D01*
X166049139Y-101262709D01*
X166064728Y-101241691D01*
X166082301Y-101222301D01*
X166101691Y-101204728D01*
X166122709Y-101189139D01*
X166145155Y-101175686D01*
X166168811Y-101164498D01*
X166193449Y-101155682D01*
X166218833Y-101149324D01*
X166244718Y-101145484D01*
X166270855Y-101144200D01*
X167364145Y-101144200D01*
X167390282Y-101145484D01*
X167390282Y-101145484D01*
G37*
D18*
X166817500Y-102870000D03*
D12*
G36*
X141548669Y-106155466D02*
G01*
X141574189Y-106159252D01*
X141599216Y-106165520D01*
X141623507Y-106174212D01*
X141646830Y-106185243D01*
X141668959Y-106198507D01*
X141689682Y-106213876D01*
X141708798Y-106231202D01*
X141726124Y-106250318D01*
X141741493Y-106271041D01*
X141754757Y-106293170D01*
X141765788Y-106316493D01*
X141774480Y-106340784D01*
X141780748Y-106365811D01*
X141784534Y-106391331D01*
X141785800Y-106417100D01*
X141785800Y-106942900D01*
X141784534Y-106968669D01*
X141780748Y-106994189D01*
X141774480Y-107019216D01*
X141765788Y-107043507D01*
X141754757Y-107066830D01*
X141741493Y-107088959D01*
X141726124Y-107109682D01*
X141708798Y-107128798D01*
X141689682Y-107146124D01*
X141668959Y-107161493D01*
X141646830Y-107174757D01*
X141623507Y-107185788D01*
X141599216Y-107194480D01*
X141574189Y-107200748D01*
X141548669Y-107204534D01*
X141522900Y-107205800D01*
X140897100Y-107205800D01*
X140871331Y-107204534D01*
X140845811Y-107200748D01*
X140820784Y-107194480D01*
X140796493Y-107185788D01*
X140773170Y-107174757D01*
X140751041Y-107161493D01*
X140730318Y-107146124D01*
X140711202Y-107128798D01*
X140693876Y-107109682D01*
X140678507Y-107088959D01*
X140665243Y-107066830D01*
X140654212Y-107043507D01*
X140645520Y-107019216D01*
X140639252Y-106994189D01*
X140635466Y-106968669D01*
X140634200Y-106942900D01*
X140634200Y-106417100D01*
X140635466Y-106391331D01*
X140639252Y-106365811D01*
X140645520Y-106340784D01*
X140654212Y-106316493D01*
X140665243Y-106293170D01*
X140678507Y-106271041D01*
X140693876Y-106250318D01*
X140711202Y-106231202D01*
X140730318Y-106213876D01*
X140751041Y-106198507D01*
X140773170Y-106185243D01*
X140796493Y-106174212D01*
X140820784Y-106165520D01*
X140845811Y-106159252D01*
X140871331Y-106155466D01*
X140897100Y-106154200D01*
X141522900Y-106154200D01*
X141548669Y-106155466D01*
X141548669Y-106155466D01*
G37*
D13*
X141210000Y-106680000D03*
D12*
G36*
X139798669Y-106155466D02*
G01*
X139824189Y-106159252D01*
X139849216Y-106165520D01*
X139873507Y-106174212D01*
X139896830Y-106185243D01*
X139918959Y-106198507D01*
X139939682Y-106213876D01*
X139958798Y-106231202D01*
X139976124Y-106250318D01*
X139991493Y-106271041D01*
X140004757Y-106293170D01*
X140015788Y-106316493D01*
X140024480Y-106340784D01*
X140030748Y-106365811D01*
X140034534Y-106391331D01*
X140035800Y-106417100D01*
X140035800Y-106942900D01*
X140034534Y-106968669D01*
X140030748Y-106994189D01*
X140024480Y-107019216D01*
X140015788Y-107043507D01*
X140004757Y-107066830D01*
X139991493Y-107088959D01*
X139976124Y-107109682D01*
X139958798Y-107128798D01*
X139939682Y-107146124D01*
X139918959Y-107161493D01*
X139896830Y-107174757D01*
X139873507Y-107185788D01*
X139849216Y-107194480D01*
X139824189Y-107200748D01*
X139798669Y-107204534D01*
X139772900Y-107205800D01*
X139147100Y-107205800D01*
X139121331Y-107204534D01*
X139095811Y-107200748D01*
X139070784Y-107194480D01*
X139046493Y-107185788D01*
X139023170Y-107174757D01*
X139001041Y-107161493D01*
X138980318Y-107146124D01*
X138961202Y-107128798D01*
X138943876Y-107109682D01*
X138928507Y-107088959D01*
X138915243Y-107066830D01*
X138904212Y-107043507D01*
X138895520Y-107019216D01*
X138889252Y-106994189D01*
X138885466Y-106968669D01*
X138884200Y-106942900D01*
X138884200Y-106417100D01*
X138885466Y-106391331D01*
X138889252Y-106365811D01*
X138895520Y-106340784D01*
X138904212Y-106316493D01*
X138915243Y-106293170D01*
X138928507Y-106271041D01*
X138943876Y-106250318D01*
X138961202Y-106231202D01*
X138980318Y-106213876D01*
X139001041Y-106198507D01*
X139023170Y-106185243D01*
X139046493Y-106174212D01*
X139070784Y-106165520D01*
X139095811Y-106159252D01*
X139121331Y-106155466D01*
X139147100Y-106154200D01*
X139772900Y-106154200D01*
X139798669Y-106155466D01*
X139798669Y-106155466D01*
G37*
D13*
X139460000Y-106680000D03*
D12*
G36*
X141548669Y-104250466D02*
G01*
X141574189Y-104254252D01*
X141599216Y-104260520D01*
X141623507Y-104269212D01*
X141646830Y-104280243D01*
X141668959Y-104293507D01*
X141689682Y-104308876D01*
X141708798Y-104326202D01*
X141726124Y-104345318D01*
X141741493Y-104366041D01*
X141754757Y-104388170D01*
X141765788Y-104411493D01*
X141774480Y-104435784D01*
X141780748Y-104460811D01*
X141784534Y-104486331D01*
X141785800Y-104512100D01*
X141785800Y-105037900D01*
X141784534Y-105063669D01*
X141780748Y-105089189D01*
X141774480Y-105114216D01*
X141765788Y-105138507D01*
X141754757Y-105161830D01*
X141741493Y-105183959D01*
X141726124Y-105204682D01*
X141708798Y-105223798D01*
X141689682Y-105241124D01*
X141668959Y-105256493D01*
X141646830Y-105269757D01*
X141623507Y-105280788D01*
X141599216Y-105289480D01*
X141574189Y-105295748D01*
X141548669Y-105299534D01*
X141522900Y-105300800D01*
X140897100Y-105300800D01*
X140871331Y-105299534D01*
X140845811Y-105295748D01*
X140820784Y-105289480D01*
X140796493Y-105280788D01*
X140773170Y-105269757D01*
X140751041Y-105256493D01*
X140730318Y-105241124D01*
X140711202Y-105223798D01*
X140693876Y-105204682D01*
X140678507Y-105183959D01*
X140665243Y-105161830D01*
X140654212Y-105138507D01*
X140645520Y-105114216D01*
X140639252Y-105089189D01*
X140635466Y-105063669D01*
X140634200Y-105037900D01*
X140634200Y-104512100D01*
X140635466Y-104486331D01*
X140639252Y-104460811D01*
X140645520Y-104435784D01*
X140654212Y-104411493D01*
X140665243Y-104388170D01*
X140678507Y-104366041D01*
X140693876Y-104345318D01*
X140711202Y-104326202D01*
X140730318Y-104308876D01*
X140751041Y-104293507D01*
X140773170Y-104280243D01*
X140796493Y-104269212D01*
X140820784Y-104260520D01*
X140845811Y-104254252D01*
X140871331Y-104250466D01*
X140897100Y-104249200D01*
X141522900Y-104249200D01*
X141548669Y-104250466D01*
X141548669Y-104250466D01*
G37*
D13*
X141210000Y-104775000D03*
D12*
G36*
X139798669Y-104250466D02*
G01*
X139824189Y-104254252D01*
X139849216Y-104260520D01*
X139873507Y-104269212D01*
X139896830Y-104280243D01*
X139918959Y-104293507D01*
X139939682Y-104308876D01*
X139958798Y-104326202D01*
X139976124Y-104345318D01*
X139991493Y-104366041D01*
X140004757Y-104388170D01*
X140015788Y-104411493D01*
X140024480Y-104435784D01*
X140030748Y-104460811D01*
X140034534Y-104486331D01*
X140035800Y-104512100D01*
X140035800Y-105037900D01*
X140034534Y-105063669D01*
X140030748Y-105089189D01*
X140024480Y-105114216D01*
X140015788Y-105138507D01*
X140004757Y-105161830D01*
X139991493Y-105183959D01*
X139976124Y-105204682D01*
X139958798Y-105223798D01*
X139939682Y-105241124D01*
X139918959Y-105256493D01*
X139896830Y-105269757D01*
X139873507Y-105280788D01*
X139849216Y-105289480D01*
X139824189Y-105295748D01*
X139798669Y-105299534D01*
X139772900Y-105300800D01*
X139147100Y-105300800D01*
X139121331Y-105299534D01*
X139095811Y-105295748D01*
X139070784Y-105289480D01*
X139046493Y-105280788D01*
X139023170Y-105269757D01*
X139001041Y-105256493D01*
X138980318Y-105241124D01*
X138961202Y-105223798D01*
X138943876Y-105204682D01*
X138928507Y-105183959D01*
X138915243Y-105161830D01*
X138904212Y-105138507D01*
X138895520Y-105114216D01*
X138889252Y-105089189D01*
X138885466Y-105063669D01*
X138884200Y-105037900D01*
X138884200Y-104512100D01*
X138885466Y-104486331D01*
X138889252Y-104460811D01*
X138895520Y-104435784D01*
X138904212Y-104411493D01*
X138915243Y-104388170D01*
X138928507Y-104366041D01*
X138943876Y-104345318D01*
X138961202Y-104326202D01*
X138980318Y-104308876D01*
X139001041Y-104293507D01*
X139023170Y-104280243D01*
X139046493Y-104269212D01*
X139070784Y-104260520D01*
X139095811Y-104254252D01*
X139121331Y-104250466D01*
X139147100Y-104249200D01*
X139772900Y-104249200D01*
X139798669Y-104250466D01*
X139798669Y-104250466D01*
G37*
D13*
X139460000Y-104775000D03*
D12*
G36*
X139008669Y-98217966D02*
G01*
X139034189Y-98221752D01*
X139059216Y-98228020D01*
X139083507Y-98236712D01*
X139106830Y-98247743D01*
X139128959Y-98261007D01*
X139149682Y-98276376D01*
X139168798Y-98293702D01*
X139186124Y-98312818D01*
X139201493Y-98333541D01*
X139214757Y-98355670D01*
X139225788Y-98378993D01*
X139234480Y-98403284D01*
X139240748Y-98428311D01*
X139244534Y-98453831D01*
X139245800Y-98479600D01*
X139245800Y-99005400D01*
X139244534Y-99031169D01*
X139240748Y-99056689D01*
X139234480Y-99081716D01*
X139225788Y-99106007D01*
X139214757Y-99129330D01*
X139201493Y-99151459D01*
X139186124Y-99172182D01*
X139168798Y-99191298D01*
X139149682Y-99208624D01*
X139128959Y-99223993D01*
X139106830Y-99237257D01*
X139083507Y-99248288D01*
X139059216Y-99256980D01*
X139034189Y-99263248D01*
X139008669Y-99267034D01*
X138982900Y-99268300D01*
X138357100Y-99268300D01*
X138331331Y-99267034D01*
X138305811Y-99263248D01*
X138280784Y-99256980D01*
X138256493Y-99248288D01*
X138233170Y-99237257D01*
X138211041Y-99223993D01*
X138190318Y-99208624D01*
X138171202Y-99191298D01*
X138153876Y-99172182D01*
X138138507Y-99151459D01*
X138125243Y-99129330D01*
X138114212Y-99106007D01*
X138105520Y-99081716D01*
X138099252Y-99056689D01*
X138095466Y-99031169D01*
X138094200Y-99005400D01*
X138094200Y-98479600D01*
X138095466Y-98453831D01*
X138099252Y-98428311D01*
X138105520Y-98403284D01*
X138114212Y-98378993D01*
X138125243Y-98355670D01*
X138138507Y-98333541D01*
X138153876Y-98312818D01*
X138171202Y-98293702D01*
X138190318Y-98276376D01*
X138211041Y-98261007D01*
X138233170Y-98247743D01*
X138256493Y-98236712D01*
X138280784Y-98228020D01*
X138305811Y-98221752D01*
X138331331Y-98217966D01*
X138357100Y-98216700D01*
X138982900Y-98216700D01*
X139008669Y-98217966D01*
X139008669Y-98217966D01*
G37*
D13*
X138670000Y-98742500D03*
D12*
G36*
X137258669Y-98217966D02*
G01*
X137284189Y-98221752D01*
X137309216Y-98228020D01*
X137333507Y-98236712D01*
X137356830Y-98247743D01*
X137378959Y-98261007D01*
X137399682Y-98276376D01*
X137418798Y-98293702D01*
X137436124Y-98312818D01*
X137451493Y-98333541D01*
X137464757Y-98355670D01*
X137475788Y-98378993D01*
X137484480Y-98403284D01*
X137490748Y-98428311D01*
X137494534Y-98453831D01*
X137495800Y-98479600D01*
X137495800Y-99005400D01*
X137494534Y-99031169D01*
X137490748Y-99056689D01*
X137484480Y-99081716D01*
X137475788Y-99106007D01*
X137464757Y-99129330D01*
X137451493Y-99151459D01*
X137436124Y-99172182D01*
X137418798Y-99191298D01*
X137399682Y-99208624D01*
X137378959Y-99223993D01*
X137356830Y-99237257D01*
X137333507Y-99248288D01*
X137309216Y-99256980D01*
X137284189Y-99263248D01*
X137258669Y-99267034D01*
X137232900Y-99268300D01*
X136607100Y-99268300D01*
X136581331Y-99267034D01*
X136555811Y-99263248D01*
X136530784Y-99256980D01*
X136506493Y-99248288D01*
X136483170Y-99237257D01*
X136461041Y-99223993D01*
X136440318Y-99208624D01*
X136421202Y-99191298D01*
X136403876Y-99172182D01*
X136388507Y-99151459D01*
X136375243Y-99129330D01*
X136364212Y-99106007D01*
X136355520Y-99081716D01*
X136349252Y-99056689D01*
X136345466Y-99031169D01*
X136344200Y-99005400D01*
X136344200Y-98479600D01*
X136345466Y-98453831D01*
X136349252Y-98428311D01*
X136355520Y-98403284D01*
X136364212Y-98378993D01*
X136375243Y-98355670D01*
X136388507Y-98333541D01*
X136403876Y-98312818D01*
X136421202Y-98293702D01*
X136440318Y-98276376D01*
X136461041Y-98261007D01*
X136483170Y-98247743D01*
X136506493Y-98236712D01*
X136530784Y-98228020D01*
X136555811Y-98221752D01*
X136581331Y-98217966D01*
X136607100Y-98216700D01*
X137232900Y-98216700D01*
X137258669Y-98217966D01*
X137258669Y-98217966D01*
G37*
D13*
X136920000Y-98742500D03*
D12*
G36*
X144243669Y-104250466D02*
G01*
X144269189Y-104254252D01*
X144294216Y-104260520D01*
X144318507Y-104269212D01*
X144341830Y-104280243D01*
X144363959Y-104293507D01*
X144384682Y-104308876D01*
X144403798Y-104326202D01*
X144421124Y-104345318D01*
X144436493Y-104366041D01*
X144449757Y-104388170D01*
X144460788Y-104411493D01*
X144469480Y-104435784D01*
X144475748Y-104460811D01*
X144479534Y-104486331D01*
X144480800Y-104512100D01*
X144480800Y-105037900D01*
X144479534Y-105063669D01*
X144475748Y-105089189D01*
X144469480Y-105114216D01*
X144460788Y-105138507D01*
X144449757Y-105161830D01*
X144436493Y-105183959D01*
X144421124Y-105204682D01*
X144403798Y-105223798D01*
X144384682Y-105241124D01*
X144363959Y-105256493D01*
X144341830Y-105269757D01*
X144318507Y-105280788D01*
X144294216Y-105289480D01*
X144269189Y-105295748D01*
X144243669Y-105299534D01*
X144217900Y-105300800D01*
X143592100Y-105300800D01*
X143566331Y-105299534D01*
X143540811Y-105295748D01*
X143515784Y-105289480D01*
X143491493Y-105280788D01*
X143468170Y-105269757D01*
X143446041Y-105256493D01*
X143425318Y-105241124D01*
X143406202Y-105223798D01*
X143388876Y-105204682D01*
X143373507Y-105183959D01*
X143360243Y-105161830D01*
X143349212Y-105138507D01*
X143340520Y-105114216D01*
X143334252Y-105089189D01*
X143330466Y-105063669D01*
X143329200Y-105037900D01*
X143329200Y-104512100D01*
X143330466Y-104486331D01*
X143334252Y-104460811D01*
X143340520Y-104435784D01*
X143349212Y-104411493D01*
X143360243Y-104388170D01*
X143373507Y-104366041D01*
X143388876Y-104345318D01*
X143406202Y-104326202D01*
X143425318Y-104308876D01*
X143446041Y-104293507D01*
X143468170Y-104280243D01*
X143491493Y-104269212D01*
X143515784Y-104260520D01*
X143540811Y-104254252D01*
X143566331Y-104250466D01*
X143592100Y-104249200D01*
X144217900Y-104249200D01*
X144243669Y-104250466D01*
X144243669Y-104250466D01*
G37*
D13*
X143905000Y-104775000D03*
D12*
G36*
X145993669Y-104250466D02*
G01*
X146019189Y-104254252D01*
X146044216Y-104260520D01*
X146068507Y-104269212D01*
X146091830Y-104280243D01*
X146113959Y-104293507D01*
X146134682Y-104308876D01*
X146153798Y-104326202D01*
X146171124Y-104345318D01*
X146186493Y-104366041D01*
X146199757Y-104388170D01*
X146210788Y-104411493D01*
X146219480Y-104435784D01*
X146225748Y-104460811D01*
X146229534Y-104486331D01*
X146230800Y-104512100D01*
X146230800Y-105037900D01*
X146229534Y-105063669D01*
X146225748Y-105089189D01*
X146219480Y-105114216D01*
X146210788Y-105138507D01*
X146199757Y-105161830D01*
X146186493Y-105183959D01*
X146171124Y-105204682D01*
X146153798Y-105223798D01*
X146134682Y-105241124D01*
X146113959Y-105256493D01*
X146091830Y-105269757D01*
X146068507Y-105280788D01*
X146044216Y-105289480D01*
X146019189Y-105295748D01*
X145993669Y-105299534D01*
X145967900Y-105300800D01*
X145342100Y-105300800D01*
X145316331Y-105299534D01*
X145290811Y-105295748D01*
X145265784Y-105289480D01*
X145241493Y-105280788D01*
X145218170Y-105269757D01*
X145196041Y-105256493D01*
X145175318Y-105241124D01*
X145156202Y-105223798D01*
X145138876Y-105204682D01*
X145123507Y-105183959D01*
X145110243Y-105161830D01*
X145099212Y-105138507D01*
X145090520Y-105114216D01*
X145084252Y-105089189D01*
X145080466Y-105063669D01*
X145079200Y-105037900D01*
X145079200Y-104512100D01*
X145080466Y-104486331D01*
X145084252Y-104460811D01*
X145090520Y-104435784D01*
X145099212Y-104411493D01*
X145110243Y-104388170D01*
X145123507Y-104366041D01*
X145138876Y-104345318D01*
X145156202Y-104326202D01*
X145175318Y-104308876D01*
X145196041Y-104293507D01*
X145218170Y-104280243D01*
X145241493Y-104269212D01*
X145265784Y-104260520D01*
X145290811Y-104254252D01*
X145316331Y-104250466D01*
X145342100Y-104249200D01*
X145967900Y-104249200D01*
X145993669Y-104250466D01*
X145993669Y-104250466D01*
G37*
D13*
X145655000Y-104775000D03*
D12*
G36*
X145993669Y-106155466D02*
G01*
X146019189Y-106159252D01*
X146044216Y-106165520D01*
X146068507Y-106174212D01*
X146091830Y-106185243D01*
X146113959Y-106198507D01*
X146134682Y-106213876D01*
X146153798Y-106231202D01*
X146171124Y-106250318D01*
X146186493Y-106271041D01*
X146199757Y-106293170D01*
X146210788Y-106316493D01*
X146219480Y-106340784D01*
X146225748Y-106365811D01*
X146229534Y-106391331D01*
X146230800Y-106417100D01*
X146230800Y-106942900D01*
X146229534Y-106968669D01*
X146225748Y-106994189D01*
X146219480Y-107019216D01*
X146210788Y-107043507D01*
X146199757Y-107066830D01*
X146186493Y-107088959D01*
X146171124Y-107109682D01*
X146153798Y-107128798D01*
X146134682Y-107146124D01*
X146113959Y-107161493D01*
X146091830Y-107174757D01*
X146068507Y-107185788D01*
X146044216Y-107194480D01*
X146019189Y-107200748D01*
X145993669Y-107204534D01*
X145967900Y-107205800D01*
X145342100Y-107205800D01*
X145316331Y-107204534D01*
X145290811Y-107200748D01*
X145265784Y-107194480D01*
X145241493Y-107185788D01*
X145218170Y-107174757D01*
X145196041Y-107161493D01*
X145175318Y-107146124D01*
X145156202Y-107128798D01*
X145138876Y-107109682D01*
X145123507Y-107088959D01*
X145110243Y-107066830D01*
X145099212Y-107043507D01*
X145090520Y-107019216D01*
X145084252Y-106994189D01*
X145080466Y-106968669D01*
X145079200Y-106942900D01*
X145079200Y-106417100D01*
X145080466Y-106391331D01*
X145084252Y-106365811D01*
X145090520Y-106340784D01*
X145099212Y-106316493D01*
X145110243Y-106293170D01*
X145123507Y-106271041D01*
X145138876Y-106250318D01*
X145156202Y-106231202D01*
X145175318Y-106213876D01*
X145196041Y-106198507D01*
X145218170Y-106185243D01*
X145241493Y-106174212D01*
X145265784Y-106165520D01*
X145290811Y-106159252D01*
X145316331Y-106155466D01*
X145342100Y-106154200D01*
X145967900Y-106154200D01*
X145993669Y-106155466D01*
X145993669Y-106155466D01*
G37*
D13*
X145655000Y-106680000D03*
D12*
G36*
X144243669Y-106155466D02*
G01*
X144269189Y-106159252D01*
X144294216Y-106165520D01*
X144318507Y-106174212D01*
X144341830Y-106185243D01*
X144363959Y-106198507D01*
X144384682Y-106213876D01*
X144403798Y-106231202D01*
X144421124Y-106250318D01*
X144436493Y-106271041D01*
X144449757Y-106293170D01*
X144460788Y-106316493D01*
X144469480Y-106340784D01*
X144475748Y-106365811D01*
X144479534Y-106391331D01*
X144480800Y-106417100D01*
X144480800Y-106942900D01*
X144479534Y-106968669D01*
X144475748Y-106994189D01*
X144469480Y-107019216D01*
X144460788Y-107043507D01*
X144449757Y-107066830D01*
X144436493Y-107088959D01*
X144421124Y-107109682D01*
X144403798Y-107128798D01*
X144384682Y-107146124D01*
X144363959Y-107161493D01*
X144341830Y-107174757D01*
X144318507Y-107185788D01*
X144294216Y-107194480D01*
X144269189Y-107200748D01*
X144243669Y-107204534D01*
X144217900Y-107205800D01*
X143592100Y-107205800D01*
X143566331Y-107204534D01*
X143540811Y-107200748D01*
X143515784Y-107194480D01*
X143491493Y-107185788D01*
X143468170Y-107174757D01*
X143446041Y-107161493D01*
X143425318Y-107146124D01*
X143406202Y-107128798D01*
X143388876Y-107109682D01*
X143373507Y-107088959D01*
X143360243Y-107066830D01*
X143349212Y-107043507D01*
X143340520Y-107019216D01*
X143334252Y-106994189D01*
X143330466Y-106968669D01*
X143329200Y-106942900D01*
X143329200Y-106417100D01*
X143330466Y-106391331D01*
X143334252Y-106365811D01*
X143340520Y-106340784D01*
X143349212Y-106316493D01*
X143360243Y-106293170D01*
X143373507Y-106271041D01*
X143388876Y-106250318D01*
X143406202Y-106231202D01*
X143425318Y-106213876D01*
X143446041Y-106198507D01*
X143468170Y-106185243D01*
X143491493Y-106174212D01*
X143515784Y-106165520D01*
X143540811Y-106159252D01*
X143566331Y-106155466D01*
X143592100Y-106154200D01*
X144217900Y-106154200D01*
X144243669Y-106155466D01*
X144243669Y-106155466D01*
G37*
D13*
X143905000Y-106680000D03*
D12*
G36*
X137258669Y-96312966D02*
G01*
X137284189Y-96316752D01*
X137309216Y-96323020D01*
X137333507Y-96331712D01*
X137356830Y-96342743D01*
X137378959Y-96356007D01*
X137399682Y-96371376D01*
X137418798Y-96388702D01*
X137436124Y-96407818D01*
X137451493Y-96428541D01*
X137464757Y-96450670D01*
X137475788Y-96473993D01*
X137484480Y-96498284D01*
X137490748Y-96523311D01*
X137494534Y-96548831D01*
X137495800Y-96574600D01*
X137495800Y-97100400D01*
X137494534Y-97126169D01*
X137490748Y-97151689D01*
X137484480Y-97176716D01*
X137475788Y-97201007D01*
X137464757Y-97224330D01*
X137451493Y-97246459D01*
X137436124Y-97267182D01*
X137418798Y-97286298D01*
X137399682Y-97303624D01*
X137378959Y-97318993D01*
X137356830Y-97332257D01*
X137333507Y-97343288D01*
X137309216Y-97351980D01*
X137284189Y-97358248D01*
X137258669Y-97362034D01*
X137232900Y-97363300D01*
X136607100Y-97363300D01*
X136581331Y-97362034D01*
X136555811Y-97358248D01*
X136530784Y-97351980D01*
X136506493Y-97343288D01*
X136483170Y-97332257D01*
X136461041Y-97318993D01*
X136440318Y-97303624D01*
X136421202Y-97286298D01*
X136403876Y-97267182D01*
X136388507Y-97246459D01*
X136375243Y-97224330D01*
X136364212Y-97201007D01*
X136355520Y-97176716D01*
X136349252Y-97151689D01*
X136345466Y-97126169D01*
X136344200Y-97100400D01*
X136344200Y-96574600D01*
X136345466Y-96548831D01*
X136349252Y-96523311D01*
X136355520Y-96498284D01*
X136364212Y-96473993D01*
X136375243Y-96450670D01*
X136388507Y-96428541D01*
X136403876Y-96407818D01*
X136421202Y-96388702D01*
X136440318Y-96371376D01*
X136461041Y-96356007D01*
X136483170Y-96342743D01*
X136506493Y-96331712D01*
X136530784Y-96323020D01*
X136555811Y-96316752D01*
X136581331Y-96312966D01*
X136607100Y-96311700D01*
X137232900Y-96311700D01*
X137258669Y-96312966D01*
X137258669Y-96312966D01*
G37*
D13*
X136920000Y-96837500D03*
D12*
G36*
X139008669Y-96312966D02*
G01*
X139034189Y-96316752D01*
X139059216Y-96323020D01*
X139083507Y-96331712D01*
X139106830Y-96342743D01*
X139128959Y-96356007D01*
X139149682Y-96371376D01*
X139168798Y-96388702D01*
X139186124Y-96407818D01*
X139201493Y-96428541D01*
X139214757Y-96450670D01*
X139225788Y-96473993D01*
X139234480Y-96498284D01*
X139240748Y-96523311D01*
X139244534Y-96548831D01*
X139245800Y-96574600D01*
X139245800Y-97100400D01*
X139244534Y-97126169D01*
X139240748Y-97151689D01*
X139234480Y-97176716D01*
X139225788Y-97201007D01*
X139214757Y-97224330D01*
X139201493Y-97246459D01*
X139186124Y-97267182D01*
X139168798Y-97286298D01*
X139149682Y-97303624D01*
X139128959Y-97318993D01*
X139106830Y-97332257D01*
X139083507Y-97343288D01*
X139059216Y-97351980D01*
X139034189Y-97358248D01*
X139008669Y-97362034D01*
X138982900Y-97363300D01*
X138357100Y-97363300D01*
X138331331Y-97362034D01*
X138305811Y-97358248D01*
X138280784Y-97351980D01*
X138256493Y-97343288D01*
X138233170Y-97332257D01*
X138211041Y-97318993D01*
X138190318Y-97303624D01*
X138171202Y-97286298D01*
X138153876Y-97267182D01*
X138138507Y-97246459D01*
X138125243Y-97224330D01*
X138114212Y-97201007D01*
X138105520Y-97176716D01*
X138099252Y-97151689D01*
X138095466Y-97126169D01*
X138094200Y-97100400D01*
X138094200Y-96574600D01*
X138095466Y-96548831D01*
X138099252Y-96523311D01*
X138105520Y-96498284D01*
X138114212Y-96473993D01*
X138125243Y-96450670D01*
X138138507Y-96428541D01*
X138153876Y-96407818D01*
X138171202Y-96388702D01*
X138190318Y-96371376D01*
X138211041Y-96356007D01*
X138233170Y-96342743D01*
X138256493Y-96331712D01*
X138280784Y-96323020D01*
X138305811Y-96316752D01*
X138331331Y-96312966D01*
X138357100Y-96311700D01*
X138982900Y-96311700D01*
X139008669Y-96312966D01*
X139008669Y-96312966D01*
G37*
D13*
X138670000Y-96837500D03*
D12*
G36*
X139008669Y-100122966D02*
G01*
X139034189Y-100126752D01*
X139059216Y-100133020D01*
X139083507Y-100141712D01*
X139106830Y-100152743D01*
X139128959Y-100166007D01*
X139149682Y-100181376D01*
X139168798Y-100198702D01*
X139186124Y-100217818D01*
X139201493Y-100238541D01*
X139214757Y-100260670D01*
X139225788Y-100283993D01*
X139234480Y-100308284D01*
X139240748Y-100333311D01*
X139244534Y-100358831D01*
X139245800Y-100384600D01*
X139245800Y-100910400D01*
X139244534Y-100936169D01*
X139240748Y-100961689D01*
X139234480Y-100986716D01*
X139225788Y-101011007D01*
X139214757Y-101034330D01*
X139201493Y-101056459D01*
X139186124Y-101077182D01*
X139168798Y-101096298D01*
X139149682Y-101113624D01*
X139128959Y-101128993D01*
X139106830Y-101142257D01*
X139083507Y-101153288D01*
X139059216Y-101161980D01*
X139034189Y-101168248D01*
X139008669Y-101172034D01*
X138982900Y-101173300D01*
X138357100Y-101173300D01*
X138331331Y-101172034D01*
X138305811Y-101168248D01*
X138280784Y-101161980D01*
X138256493Y-101153288D01*
X138233170Y-101142257D01*
X138211041Y-101128993D01*
X138190318Y-101113624D01*
X138171202Y-101096298D01*
X138153876Y-101077182D01*
X138138507Y-101056459D01*
X138125243Y-101034330D01*
X138114212Y-101011007D01*
X138105520Y-100986716D01*
X138099252Y-100961689D01*
X138095466Y-100936169D01*
X138094200Y-100910400D01*
X138094200Y-100384600D01*
X138095466Y-100358831D01*
X138099252Y-100333311D01*
X138105520Y-100308284D01*
X138114212Y-100283993D01*
X138125243Y-100260670D01*
X138138507Y-100238541D01*
X138153876Y-100217818D01*
X138171202Y-100198702D01*
X138190318Y-100181376D01*
X138211041Y-100166007D01*
X138233170Y-100152743D01*
X138256493Y-100141712D01*
X138280784Y-100133020D01*
X138305811Y-100126752D01*
X138331331Y-100122966D01*
X138357100Y-100121700D01*
X138982900Y-100121700D01*
X139008669Y-100122966D01*
X139008669Y-100122966D01*
G37*
D13*
X138670000Y-100647500D03*
D12*
G36*
X137258669Y-100122966D02*
G01*
X137284189Y-100126752D01*
X137309216Y-100133020D01*
X137333507Y-100141712D01*
X137356830Y-100152743D01*
X137378959Y-100166007D01*
X137399682Y-100181376D01*
X137418798Y-100198702D01*
X137436124Y-100217818D01*
X137451493Y-100238541D01*
X137464757Y-100260670D01*
X137475788Y-100283993D01*
X137484480Y-100308284D01*
X137490748Y-100333311D01*
X137494534Y-100358831D01*
X137495800Y-100384600D01*
X137495800Y-100910400D01*
X137494534Y-100936169D01*
X137490748Y-100961689D01*
X137484480Y-100986716D01*
X137475788Y-101011007D01*
X137464757Y-101034330D01*
X137451493Y-101056459D01*
X137436124Y-101077182D01*
X137418798Y-101096298D01*
X137399682Y-101113624D01*
X137378959Y-101128993D01*
X137356830Y-101142257D01*
X137333507Y-101153288D01*
X137309216Y-101161980D01*
X137284189Y-101168248D01*
X137258669Y-101172034D01*
X137232900Y-101173300D01*
X136607100Y-101173300D01*
X136581331Y-101172034D01*
X136555811Y-101168248D01*
X136530784Y-101161980D01*
X136506493Y-101153288D01*
X136483170Y-101142257D01*
X136461041Y-101128993D01*
X136440318Y-101113624D01*
X136421202Y-101096298D01*
X136403876Y-101077182D01*
X136388507Y-101056459D01*
X136375243Y-101034330D01*
X136364212Y-101011007D01*
X136355520Y-100986716D01*
X136349252Y-100961689D01*
X136345466Y-100936169D01*
X136344200Y-100910400D01*
X136344200Y-100384600D01*
X136345466Y-100358831D01*
X136349252Y-100333311D01*
X136355520Y-100308284D01*
X136364212Y-100283993D01*
X136375243Y-100260670D01*
X136388507Y-100238541D01*
X136403876Y-100217818D01*
X136421202Y-100198702D01*
X136440318Y-100181376D01*
X136461041Y-100166007D01*
X136483170Y-100152743D01*
X136506493Y-100141712D01*
X136530784Y-100133020D01*
X136555811Y-100126752D01*
X136581331Y-100122966D01*
X136607100Y-100121700D01*
X137232900Y-100121700D01*
X137258669Y-100122966D01*
X137258669Y-100122966D01*
G37*
D13*
X136920000Y-100647500D03*
D12*
G36*
X148688669Y-104250466D02*
G01*
X148714189Y-104254252D01*
X148739216Y-104260520D01*
X148763507Y-104269212D01*
X148786830Y-104280243D01*
X148808959Y-104293507D01*
X148829682Y-104308876D01*
X148848798Y-104326202D01*
X148866124Y-104345318D01*
X148881493Y-104366041D01*
X148894757Y-104388170D01*
X148905788Y-104411493D01*
X148914480Y-104435784D01*
X148920748Y-104460811D01*
X148924534Y-104486331D01*
X148925800Y-104512100D01*
X148925800Y-105037900D01*
X148924534Y-105063669D01*
X148920748Y-105089189D01*
X148914480Y-105114216D01*
X148905788Y-105138507D01*
X148894757Y-105161830D01*
X148881493Y-105183959D01*
X148866124Y-105204682D01*
X148848798Y-105223798D01*
X148829682Y-105241124D01*
X148808959Y-105256493D01*
X148786830Y-105269757D01*
X148763507Y-105280788D01*
X148739216Y-105289480D01*
X148714189Y-105295748D01*
X148688669Y-105299534D01*
X148662900Y-105300800D01*
X148037100Y-105300800D01*
X148011331Y-105299534D01*
X147985811Y-105295748D01*
X147960784Y-105289480D01*
X147936493Y-105280788D01*
X147913170Y-105269757D01*
X147891041Y-105256493D01*
X147870318Y-105241124D01*
X147851202Y-105223798D01*
X147833876Y-105204682D01*
X147818507Y-105183959D01*
X147805243Y-105161830D01*
X147794212Y-105138507D01*
X147785520Y-105114216D01*
X147779252Y-105089189D01*
X147775466Y-105063669D01*
X147774200Y-105037900D01*
X147774200Y-104512100D01*
X147775466Y-104486331D01*
X147779252Y-104460811D01*
X147785520Y-104435784D01*
X147794212Y-104411493D01*
X147805243Y-104388170D01*
X147818507Y-104366041D01*
X147833876Y-104345318D01*
X147851202Y-104326202D01*
X147870318Y-104308876D01*
X147891041Y-104293507D01*
X147913170Y-104280243D01*
X147936493Y-104269212D01*
X147960784Y-104260520D01*
X147985811Y-104254252D01*
X148011331Y-104250466D01*
X148037100Y-104249200D01*
X148662900Y-104249200D01*
X148688669Y-104250466D01*
X148688669Y-104250466D01*
G37*
D13*
X148350000Y-104775000D03*
D12*
G36*
X150438669Y-104250466D02*
G01*
X150464189Y-104254252D01*
X150489216Y-104260520D01*
X150513507Y-104269212D01*
X150536830Y-104280243D01*
X150558959Y-104293507D01*
X150579682Y-104308876D01*
X150598798Y-104326202D01*
X150616124Y-104345318D01*
X150631493Y-104366041D01*
X150644757Y-104388170D01*
X150655788Y-104411493D01*
X150664480Y-104435784D01*
X150670748Y-104460811D01*
X150674534Y-104486331D01*
X150675800Y-104512100D01*
X150675800Y-105037900D01*
X150674534Y-105063669D01*
X150670748Y-105089189D01*
X150664480Y-105114216D01*
X150655788Y-105138507D01*
X150644757Y-105161830D01*
X150631493Y-105183959D01*
X150616124Y-105204682D01*
X150598798Y-105223798D01*
X150579682Y-105241124D01*
X150558959Y-105256493D01*
X150536830Y-105269757D01*
X150513507Y-105280788D01*
X150489216Y-105289480D01*
X150464189Y-105295748D01*
X150438669Y-105299534D01*
X150412900Y-105300800D01*
X149787100Y-105300800D01*
X149761331Y-105299534D01*
X149735811Y-105295748D01*
X149710784Y-105289480D01*
X149686493Y-105280788D01*
X149663170Y-105269757D01*
X149641041Y-105256493D01*
X149620318Y-105241124D01*
X149601202Y-105223798D01*
X149583876Y-105204682D01*
X149568507Y-105183959D01*
X149555243Y-105161830D01*
X149544212Y-105138507D01*
X149535520Y-105114216D01*
X149529252Y-105089189D01*
X149525466Y-105063669D01*
X149524200Y-105037900D01*
X149524200Y-104512100D01*
X149525466Y-104486331D01*
X149529252Y-104460811D01*
X149535520Y-104435784D01*
X149544212Y-104411493D01*
X149555243Y-104388170D01*
X149568507Y-104366041D01*
X149583876Y-104345318D01*
X149601202Y-104326202D01*
X149620318Y-104308876D01*
X149641041Y-104293507D01*
X149663170Y-104280243D01*
X149686493Y-104269212D01*
X149710784Y-104260520D01*
X149735811Y-104254252D01*
X149761331Y-104250466D01*
X149787100Y-104249200D01*
X150412900Y-104249200D01*
X150438669Y-104250466D01*
X150438669Y-104250466D01*
G37*
D13*
X150100000Y-104775000D03*
D12*
G36*
X150438669Y-106155466D02*
G01*
X150464189Y-106159252D01*
X150489216Y-106165520D01*
X150513507Y-106174212D01*
X150536830Y-106185243D01*
X150558959Y-106198507D01*
X150579682Y-106213876D01*
X150598798Y-106231202D01*
X150616124Y-106250318D01*
X150631493Y-106271041D01*
X150644757Y-106293170D01*
X150655788Y-106316493D01*
X150664480Y-106340784D01*
X150670748Y-106365811D01*
X150674534Y-106391331D01*
X150675800Y-106417100D01*
X150675800Y-106942900D01*
X150674534Y-106968669D01*
X150670748Y-106994189D01*
X150664480Y-107019216D01*
X150655788Y-107043507D01*
X150644757Y-107066830D01*
X150631493Y-107088959D01*
X150616124Y-107109682D01*
X150598798Y-107128798D01*
X150579682Y-107146124D01*
X150558959Y-107161493D01*
X150536830Y-107174757D01*
X150513507Y-107185788D01*
X150489216Y-107194480D01*
X150464189Y-107200748D01*
X150438669Y-107204534D01*
X150412900Y-107205800D01*
X149787100Y-107205800D01*
X149761331Y-107204534D01*
X149735811Y-107200748D01*
X149710784Y-107194480D01*
X149686493Y-107185788D01*
X149663170Y-107174757D01*
X149641041Y-107161493D01*
X149620318Y-107146124D01*
X149601202Y-107128798D01*
X149583876Y-107109682D01*
X149568507Y-107088959D01*
X149555243Y-107066830D01*
X149544212Y-107043507D01*
X149535520Y-107019216D01*
X149529252Y-106994189D01*
X149525466Y-106968669D01*
X149524200Y-106942900D01*
X149524200Y-106417100D01*
X149525466Y-106391331D01*
X149529252Y-106365811D01*
X149535520Y-106340784D01*
X149544212Y-106316493D01*
X149555243Y-106293170D01*
X149568507Y-106271041D01*
X149583876Y-106250318D01*
X149601202Y-106231202D01*
X149620318Y-106213876D01*
X149641041Y-106198507D01*
X149663170Y-106185243D01*
X149686493Y-106174212D01*
X149710784Y-106165520D01*
X149735811Y-106159252D01*
X149761331Y-106155466D01*
X149787100Y-106154200D01*
X150412900Y-106154200D01*
X150438669Y-106155466D01*
X150438669Y-106155466D01*
G37*
D13*
X150100000Y-106680000D03*
D12*
G36*
X148688669Y-106155466D02*
G01*
X148714189Y-106159252D01*
X148739216Y-106165520D01*
X148763507Y-106174212D01*
X148786830Y-106185243D01*
X148808959Y-106198507D01*
X148829682Y-106213876D01*
X148848798Y-106231202D01*
X148866124Y-106250318D01*
X148881493Y-106271041D01*
X148894757Y-106293170D01*
X148905788Y-106316493D01*
X148914480Y-106340784D01*
X148920748Y-106365811D01*
X148924534Y-106391331D01*
X148925800Y-106417100D01*
X148925800Y-106942900D01*
X148924534Y-106968669D01*
X148920748Y-106994189D01*
X148914480Y-107019216D01*
X148905788Y-107043507D01*
X148894757Y-107066830D01*
X148881493Y-107088959D01*
X148866124Y-107109682D01*
X148848798Y-107128798D01*
X148829682Y-107146124D01*
X148808959Y-107161493D01*
X148786830Y-107174757D01*
X148763507Y-107185788D01*
X148739216Y-107194480D01*
X148714189Y-107200748D01*
X148688669Y-107204534D01*
X148662900Y-107205800D01*
X148037100Y-107205800D01*
X148011331Y-107204534D01*
X147985811Y-107200748D01*
X147960784Y-107194480D01*
X147936493Y-107185788D01*
X147913170Y-107174757D01*
X147891041Y-107161493D01*
X147870318Y-107146124D01*
X147851202Y-107128798D01*
X147833876Y-107109682D01*
X147818507Y-107088959D01*
X147805243Y-107066830D01*
X147794212Y-107043507D01*
X147785520Y-107019216D01*
X147779252Y-106994189D01*
X147775466Y-106968669D01*
X147774200Y-106942900D01*
X147774200Y-106417100D01*
X147775466Y-106391331D01*
X147779252Y-106365811D01*
X147785520Y-106340784D01*
X147794212Y-106316493D01*
X147805243Y-106293170D01*
X147818507Y-106271041D01*
X147833876Y-106250318D01*
X147851202Y-106231202D01*
X147870318Y-106213876D01*
X147891041Y-106198507D01*
X147913170Y-106185243D01*
X147936493Y-106174212D01*
X147960784Y-106165520D01*
X147985811Y-106159252D01*
X148011331Y-106155466D01*
X148037100Y-106154200D01*
X148662900Y-106154200D01*
X148688669Y-106155466D01*
X148688669Y-106155466D01*
G37*
D13*
X148350000Y-106680000D03*
D12*
G36*
X159673669Y-86025466D02*
G01*
X159699189Y-86029252D01*
X159724216Y-86035520D01*
X159748507Y-86044212D01*
X159771830Y-86055243D01*
X159793959Y-86068507D01*
X159814682Y-86083876D01*
X159833798Y-86101202D01*
X159851124Y-86120318D01*
X159866493Y-86141041D01*
X159879757Y-86163170D01*
X159890788Y-86186493D01*
X159899480Y-86210784D01*
X159905748Y-86235811D01*
X159909534Y-86261331D01*
X159910800Y-86287100D01*
X159910800Y-86912900D01*
X159909534Y-86938669D01*
X159905748Y-86964189D01*
X159899480Y-86989216D01*
X159890788Y-87013507D01*
X159879757Y-87036830D01*
X159866493Y-87058959D01*
X159851124Y-87079682D01*
X159833798Y-87098798D01*
X159814682Y-87116124D01*
X159793959Y-87131493D01*
X159771830Y-87144757D01*
X159748507Y-87155788D01*
X159724216Y-87164480D01*
X159699189Y-87170748D01*
X159673669Y-87174534D01*
X159647900Y-87175800D01*
X159122100Y-87175800D01*
X159096331Y-87174534D01*
X159070811Y-87170748D01*
X159045784Y-87164480D01*
X159021493Y-87155788D01*
X158998170Y-87144757D01*
X158976041Y-87131493D01*
X158955318Y-87116124D01*
X158936202Y-87098798D01*
X158918876Y-87079682D01*
X158903507Y-87058959D01*
X158890243Y-87036830D01*
X158879212Y-87013507D01*
X158870520Y-86989216D01*
X158864252Y-86964189D01*
X158860466Y-86938669D01*
X158859200Y-86912900D01*
X158859200Y-86287100D01*
X158860466Y-86261331D01*
X158864252Y-86235811D01*
X158870520Y-86210784D01*
X158879212Y-86186493D01*
X158890243Y-86163170D01*
X158903507Y-86141041D01*
X158918876Y-86120318D01*
X158936202Y-86101202D01*
X158955318Y-86083876D01*
X158976041Y-86068507D01*
X158998170Y-86055243D01*
X159021493Y-86044212D01*
X159045784Y-86035520D01*
X159070811Y-86029252D01*
X159096331Y-86025466D01*
X159122100Y-86024200D01*
X159647900Y-86024200D01*
X159673669Y-86025466D01*
X159673669Y-86025466D01*
G37*
D13*
X159385000Y-86600000D03*
D12*
G36*
X159673669Y-84275466D02*
G01*
X159699189Y-84279252D01*
X159724216Y-84285520D01*
X159748507Y-84294212D01*
X159771830Y-84305243D01*
X159793959Y-84318507D01*
X159814682Y-84333876D01*
X159833798Y-84351202D01*
X159851124Y-84370318D01*
X159866493Y-84391041D01*
X159879757Y-84413170D01*
X159890788Y-84436493D01*
X159899480Y-84460784D01*
X159905748Y-84485811D01*
X159909534Y-84511331D01*
X159910800Y-84537100D01*
X159910800Y-85162900D01*
X159909534Y-85188669D01*
X159905748Y-85214189D01*
X159899480Y-85239216D01*
X159890788Y-85263507D01*
X159879757Y-85286830D01*
X159866493Y-85308959D01*
X159851124Y-85329682D01*
X159833798Y-85348798D01*
X159814682Y-85366124D01*
X159793959Y-85381493D01*
X159771830Y-85394757D01*
X159748507Y-85405788D01*
X159724216Y-85414480D01*
X159699189Y-85420748D01*
X159673669Y-85424534D01*
X159647900Y-85425800D01*
X159122100Y-85425800D01*
X159096331Y-85424534D01*
X159070811Y-85420748D01*
X159045784Y-85414480D01*
X159021493Y-85405788D01*
X158998170Y-85394757D01*
X158976041Y-85381493D01*
X158955318Y-85366124D01*
X158936202Y-85348798D01*
X158918876Y-85329682D01*
X158903507Y-85308959D01*
X158890243Y-85286830D01*
X158879212Y-85263507D01*
X158870520Y-85239216D01*
X158864252Y-85214189D01*
X158860466Y-85188669D01*
X158859200Y-85162900D01*
X158859200Y-84537100D01*
X158860466Y-84511331D01*
X158864252Y-84485811D01*
X158870520Y-84460784D01*
X158879212Y-84436493D01*
X158890243Y-84413170D01*
X158903507Y-84391041D01*
X158918876Y-84370318D01*
X158936202Y-84351202D01*
X158955318Y-84333876D01*
X158976041Y-84318507D01*
X158998170Y-84305243D01*
X159021493Y-84294212D01*
X159045784Y-84285520D01*
X159070811Y-84279252D01*
X159096331Y-84275466D01*
X159122100Y-84274200D01*
X159647900Y-84274200D01*
X159673669Y-84275466D01*
X159673669Y-84275466D01*
G37*
D13*
X159385000Y-84850000D03*
D12*
G36*
X164045282Y-80020484D02*
G01*
X164071167Y-80024324D01*
X164096551Y-80030682D01*
X164121189Y-80039498D01*
X164144845Y-80050686D01*
X164167291Y-80064139D01*
X164188309Y-80079728D01*
X164207699Y-80097301D01*
X164225272Y-80116691D01*
X164240861Y-80137709D01*
X164254314Y-80160155D01*
X164265502Y-80183811D01*
X164274318Y-80208449D01*
X164280676Y-80233833D01*
X164284516Y-80259718D01*
X164285800Y-80285855D01*
X164285800Y-81379145D01*
X164284516Y-81405282D01*
X164280676Y-81431167D01*
X164274318Y-81456551D01*
X164265502Y-81481189D01*
X164254314Y-81504845D01*
X164240861Y-81527291D01*
X164225272Y-81548309D01*
X164207699Y-81567699D01*
X164188309Y-81585272D01*
X164167291Y-81600861D01*
X164144845Y-81614314D01*
X164121189Y-81625502D01*
X164096551Y-81634318D01*
X164071167Y-81640676D01*
X164045282Y-81644516D01*
X164019145Y-81645800D01*
X161100855Y-81645800D01*
X161074718Y-81644516D01*
X161048833Y-81640676D01*
X161023449Y-81634318D01*
X160998811Y-81625502D01*
X160975155Y-81614314D01*
X160952709Y-81600861D01*
X160931691Y-81585272D01*
X160912301Y-81567699D01*
X160894728Y-81548309D01*
X160879139Y-81527291D01*
X160865686Y-81504845D01*
X160854498Y-81481189D01*
X160845682Y-81456551D01*
X160839324Y-81431167D01*
X160835484Y-81405282D01*
X160834200Y-81379145D01*
X160834200Y-80285855D01*
X160835484Y-80259718D01*
X160839324Y-80233833D01*
X160845682Y-80208449D01*
X160854498Y-80183811D01*
X160865686Y-80160155D01*
X160879139Y-80137709D01*
X160894728Y-80116691D01*
X160912301Y-80097301D01*
X160931691Y-80079728D01*
X160952709Y-80064139D01*
X160975155Y-80050686D01*
X160998811Y-80039498D01*
X161023449Y-80030682D01*
X161048833Y-80024324D01*
X161074718Y-80020484D01*
X161100855Y-80019200D01*
X164019145Y-80019200D01*
X164045282Y-80020484D01*
X164045282Y-80020484D01*
G37*
D18*
X162560000Y-80832500D03*
D12*
G36*
X164045282Y-85995484D02*
G01*
X164071167Y-85999324D01*
X164096551Y-86005682D01*
X164121189Y-86014498D01*
X164144845Y-86025686D01*
X164167291Y-86039139D01*
X164188309Y-86054728D01*
X164207699Y-86072301D01*
X164225272Y-86091691D01*
X164240861Y-86112709D01*
X164254314Y-86135155D01*
X164265502Y-86158811D01*
X164274318Y-86183449D01*
X164280676Y-86208833D01*
X164284516Y-86234718D01*
X164285800Y-86260855D01*
X164285800Y-87354145D01*
X164284516Y-87380282D01*
X164280676Y-87406167D01*
X164274318Y-87431551D01*
X164265502Y-87456189D01*
X164254314Y-87479845D01*
X164240861Y-87502291D01*
X164225272Y-87523309D01*
X164207699Y-87542699D01*
X164188309Y-87560272D01*
X164167291Y-87575861D01*
X164144845Y-87589314D01*
X164121189Y-87600502D01*
X164096551Y-87609318D01*
X164071167Y-87615676D01*
X164045282Y-87619516D01*
X164019145Y-87620800D01*
X161100855Y-87620800D01*
X161074718Y-87619516D01*
X161048833Y-87615676D01*
X161023449Y-87609318D01*
X160998811Y-87600502D01*
X160975155Y-87589314D01*
X160952709Y-87575861D01*
X160931691Y-87560272D01*
X160912301Y-87542699D01*
X160894728Y-87523309D01*
X160879139Y-87502291D01*
X160865686Y-87479845D01*
X160854498Y-87456189D01*
X160845682Y-87431551D01*
X160839324Y-87406167D01*
X160835484Y-87380282D01*
X160834200Y-87354145D01*
X160834200Y-86260855D01*
X160835484Y-86234718D01*
X160839324Y-86208833D01*
X160845682Y-86183449D01*
X160854498Y-86158811D01*
X160865686Y-86135155D01*
X160879139Y-86112709D01*
X160894728Y-86091691D01*
X160912301Y-86072301D01*
X160931691Y-86054728D01*
X160952709Y-86039139D01*
X160975155Y-86025686D01*
X160998811Y-86014498D01*
X161023449Y-86005682D01*
X161048833Y-85999324D01*
X161074718Y-85995484D01*
X161100855Y-85994200D01*
X164019145Y-85994200D01*
X164045282Y-85995484D01*
X164045282Y-85995484D01*
G37*
D18*
X162560000Y-86807500D03*
D12*
G36*
X159673669Y-80465466D02*
G01*
X159699189Y-80469252D01*
X159724216Y-80475520D01*
X159748507Y-80484212D01*
X159771830Y-80495243D01*
X159793959Y-80508507D01*
X159814682Y-80523876D01*
X159833798Y-80541202D01*
X159851124Y-80560318D01*
X159866493Y-80581041D01*
X159879757Y-80603170D01*
X159890788Y-80626493D01*
X159899480Y-80650784D01*
X159905748Y-80675811D01*
X159909534Y-80701331D01*
X159910800Y-80727100D01*
X159910800Y-81352900D01*
X159909534Y-81378669D01*
X159905748Y-81404189D01*
X159899480Y-81429216D01*
X159890788Y-81453507D01*
X159879757Y-81476830D01*
X159866493Y-81498959D01*
X159851124Y-81519682D01*
X159833798Y-81538798D01*
X159814682Y-81556124D01*
X159793959Y-81571493D01*
X159771830Y-81584757D01*
X159748507Y-81595788D01*
X159724216Y-81604480D01*
X159699189Y-81610748D01*
X159673669Y-81614534D01*
X159647900Y-81615800D01*
X159122100Y-81615800D01*
X159096331Y-81614534D01*
X159070811Y-81610748D01*
X159045784Y-81604480D01*
X159021493Y-81595788D01*
X158998170Y-81584757D01*
X158976041Y-81571493D01*
X158955318Y-81556124D01*
X158936202Y-81538798D01*
X158918876Y-81519682D01*
X158903507Y-81498959D01*
X158890243Y-81476830D01*
X158879212Y-81453507D01*
X158870520Y-81429216D01*
X158864252Y-81404189D01*
X158860466Y-81378669D01*
X158859200Y-81352900D01*
X158859200Y-80727100D01*
X158860466Y-80701331D01*
X158864252Y-80675811D01*
X158870520Y-80650784D01*
X158879212Y-80626493D01*
X158890243Y-80603170D01*
X158903507Y-80581041D01*
X158918876Y-80560318D01*
X158936202Y-80541202D01*
X158955318Y-80523876D01*
X158976041Y-80508507D01*
X158998170Y-80495243D01*
X159021493Y-80484212D01*
X159045784Y-80475520D01*
X159070811Y-80469252D01*
X159096331Y-80465466D01*
X159122100Y-80464200D01*
X159647900Y-80464200D01*
X159673669Y-80465466D01*
X159673669Y-80465466D01*
G37*
D13*
X159385000Y-81040000D03*
D12*
G36*
X159673669Y-82215466D02*
G01*
X159699189Y-82219252D01*
X159724216Y-82225520D01*
X159748507Y-82234212D01*
X159771830Y-82245243D01*
X159793959Y-82258507D01*
X159814682Y-82273876D01*
X159833798Y-82291202D01*
X159851124Y-82310318D01*
X159866493Y-82331041D01*
X159879757Y-82353170D01*
X159890788Y-82376493D01*
X159899480Y-82400784D01*
X159905748Y-82425811D01*
X159909534Y-82451331D01*
X159910800Y-82477100D01*
X159910800Y-83102900D01*
X159909534Y-83128669D01*
X159905748Y-83154189D01*
X159899480Y-83179216D01*
X159890788Y-83203507D01*
X159879757Y-83226830D01*
X159866493Y-83248959D01*
X159851124Y-83269682D01*
X159833798Y-83288798D01*
X159814682Y-83306124D01*
X159793959Y-83321493D01*
X159771830Y-83334757D01*
X159748507Y-83345788D01*
X159724216Y-83354480D01*
X159699189Y-83360748D01*
X159673669Y-83364534D01*
X159647900Y-83365800D01*
X159122100Y-83365800D01*
X159096331Y-83364534D01*
X159070811Y-83360748D01*
X159045784Y-83354480D01*
X159021493Y-83345788D01*
X158998170Y-83334757D01*
X158976041Y-83321493D01*
X158955318Y-83306124D01*
X158936202Y-83288798D01*
X158918876Y-83269682D01*
X158903507Y-83248959D01*
X158890243Y-83226830D01*
X158879212Y-83203507D01*
X158870520Y-83179216D01*
X158864252Y-83154189D01*
X158860466Y-83128669D01*
X158859200Y-83102900D01*
X158859200Y-82477100D01*
X158860466Y-82451331D01*
X158864252Y-82425811D01*
X158870520Y-82400784D01*
X158879212Y-82376493D01*
X158890243Y-82353170D01*
X158903507Y-82331041D01*
X158918876Y-82310318D01*
X158936202Y-82291202D01*
X158955318Y-82273876D01*
X158976041Y-82258507D01*
X158998170Y-82245243D01*
X159021493Y-82234212D01*
X159045784Y-82225520D01*
X159070811Y-82219252D01*
X159096331Y-82215466D01*
X159122100Y-82214200D01*
X159647900Y-82214200D01*
X159673669Y-82215466D01*
X159673669Y-82215466D01*
G37*
D13*
X159385000Y-82790000D03*
D12*
G36*
X149513669Y-90470466D02*
G01*
X149539189Y-90474252D01*
X149564216Y-90480520D01*
X149588507Y-90489212D01*
X149611830Y-90500243D01*
X149633959Y-90513507D01*
X149654682Y-90528876D01*
X149673798Y-90546202D01*
X149691124Y-90565318D01*
X149706493Y-90586041D01*
X149719757Y-90608170D01*
X149730788Y-90631493D01*
X149739480Y-90655784D01*
X149745748Y-90680811D01*
X149749534Y-90706331D01*
X149750800Y-90732100D01*
X149750800Y-91357900D01*
X149749534Y-91383669D01*
X149745748Y-91409189D01*
X149739480Y-91434216D01*
X149730788Y-91458507D01*
X149719757Y-91481830D01*
X149706493Y-91503959D01*
X149691124Y-91524682D01*
X149673798Y-91543798D01*
X149654682Y-91561124D01*
X149633959Y-91576493D01*
X149611830Y-91589757D01*
X149588507Y-91600788D01*
X149564216Y-91609480D01*
X149539189Y-91615748D01*
X149513669Y-91619534D01*
X149487900Y-91620800D01*
X148962100Y-91620800D01*
X148936331Y-91619534D01*
X148910811Y-91615748D01*
X148885784Y-91609480D01*
X148861493Y-91600788D01*
X148838170Y-91589757D01*
X148816041Y-91576493D01*
X148795318Y-91561124D01*
X148776202Y-91543798D01*
X148758876Y-91524682D01*
X148743507Y-91503959D01*
X148730243Y-91481830D01*
X148719212Y-91458507D01*
X148710520Y-91434216D01*
X148704252Y-91409189D01*
X148700466Y-91383669D01*
X148699200Y-91357900D01*
X148699200Y-90732100D01*
X148700466Y-90706331D01*
X148704252Y-90680811D01*
X148710520Y-90655784D01*
X148719212Y-90631493D01*
X148730243Y-90608170D01*
X148743507Y-90586041D01*
X148758876Y-90565318D01*
X148776202Y-90546202D01*
X148795318Y-90528876D01*
X148816041Y-90513507D01*
X148838170Y-90500243D01*
X148861493Y-90489212D01*
X148885784Y-90480520D01*
X148910811Y-90474252D01*
X148936331Y-90470466D01*
X148962100Y-90469200D01*
X149487900Y-90469200D01*
X149513669Y-90470466D01*
X149513669Y-90470466D01*
G37*
D13*
X149225000Y-91045000D03*
D12*
G36*
X149513669Y-88720466D02*
G01*
X149539189Y-88724252D01*
X149564216Y-88730520D01*
X149588507Y-88739212D01*
X149611830Y-88750243D01*
X149633959Y-88763507D01*
X149654682Y-88778876D01*
X149673798Y-88796202D01*
X149691124Y-88815318D01*
X149706493Y-88836041D01*
X149719757Y-88858170D01*
X149730788Y-88881493D01*
X149739480Y-88905784D01*
X149745748Y-88930811D01*
X149749534Y-88956331D01*
X149750800Y-88982100D01*
X149750800Y-89607900D01*
X149749534Y-89633669D01*
X149745748Y-89659189D01*
X149739480Y-89684216D01*
X149730788Y-89708507D01*
X149719757Y-89731830D01*
X149706493Y-89753959D01*
X149691124Y-89774682D01*
X149673798Y-89793798D01*
X149654682Y-89811124D01*
X149633959Y-89826493D01*
X149611830Y-89839757D01*
X149588507Y-89850788D01*
X149564216Y-89859480D01*
X149539189Y-89865748D01*
X149513669Y-89869534D01*
X149487900Y-89870800D01*
X148962100Y-89870800D01*
X148936331Y-89869534D01*
X148910811Y-89865748D01*
X148885784Y-89859480D01*
X148861493Y-89850788D01*
X148838170Y-89839757D01*
X148816041Y-89826493D01*
X148795318Y-89811124D01*
X148776202Y-89793798D01*
X148758876Y-89774682D01*
X148743507Y-89753959D01*
X148730243Y-89731830D01*
X148719212Y-89708507D01*
X148710520Y-89684216D01*
X148704252Y-89659189D01*
X148700466Y-89633669D01*
X148699200Y-89607900D01*
X148699200Y-88982100D01*
X148700466Y-88956331D01*
X148704252Y-88930811D01*
X148710520Y-88905784D01*
X148719212Y-88881493D01*
X148730243Y-88858170D01*
X148743507Y-88836041D01*
X148758876Y-88815318D01*
X148776202Y-88796202D01*
X148795318Y-88778876D01*
X148816041Y-88763507D01*
X148838170Y-88750243D01*
X148861493Y-88739212D01*
X148885784Y-88730520D01*
X148910811Y-88724252D01*
X148936331Y-88720466D01*
X148962100Y-88719200D01*
X149487900Y-88719200D01*
X149513669Y-88720466D01*
X149513669Y-88720466D01*
G37*
D13*
X149225000Y-89295000D03*
D15*
X161290000Y-91880000D03*
D16*
X163570000Y-98180000D03*
X159010000Y-98180000D03*
D15*
X168910000Y-91880000D03*
D16*
X171190000Y-98180000D03*
X166630000Y-98180000D03*
D22*
X145337500Y-111760000D03*
D12*
G36*
X146719911Y-110515176D02*
G01*
X146729440Y-110518067D01*
X146738223Y-110522761D01*
X146745921Y-110529079D01*
X146752239Y-110536777D01*
X146756933Y-110545560D01*
X146759824Y-110555089D01*
X146760800Y-110565000D01*
X146760800Y-110972500D01*
X146759824Y-110982411D01*
X146756933Y-110991940D01*
X146752239Y-111000723D01*
X146745921Y-111008421D01*
X146738223Y-111014739D01*
X146729440Y-111019433D01*
X146719911Y-111022324D01*
X146710000Y-111023300D01*
X146250800Y-111023300D01*
X146250800Y-111176700D01*
X146710000Y-111176700D01*
X146719911Y-111177676D01*
X146729440Y-111180567D01*
X146738223Y-111185261D01*
X146745921Y-111191579D01*
X146752239Y-111199277D01*
X146756933Y-111208060D01*
X146759824Y-111217589D01*
X146760800Y-111227500D01*
X146760800Y-111632500D01*
X146759824Y-111642411D01*
X146756933Y-111651940D01*
X146752239Y-111660723D01*
X146745921Y-111668421D01*
X146738223Y-111674739D01*
X146729440Y-111679433D01*
X146719911Y-111682324D01*
X146710000Y-111683300D01*
X146250800Y-111683300D01*
X146250800Y-111836700D01*
X146710000Y-111836700D01*
X146719911Y-111837676D01*
X146729440Y-111840567D01*
X146738223Y-111845261D01*
X146745921Y-111851579D01*
X146752239Y-111859277D01*
X146756933Y-111868060D01*
X146759824Y-111877589D01*
X146760800Y-111887500D01*
X146760800Y-112292500D01*
X146759824Y-112302411D01*
X146756933Y-112311940D01*
X146752239Y-112320723D01*
X146745921Y-112328421D01*
X146738223Y-112334739D01*
X146729440Y-112339433D01*
X146719911Y-112342324D01*
X146710000Y-112343300D01*
X146250800Y-112343300D01*
X146250800Y-112496700D01*
X146710000Y-112496700D01*
X146719911Y-112497676D01*
X146729440Y-112500567D01*
X146738223Y-112505261D01*
X146745921Y-112511579D01*
X146752239Y-112519277D01*
X146756933Y-112528060D01*
X146759824Y-112537589D01*
X146760800Y-112547500D01*
X146760800Y-112955000D01*
X146759824Y-112964911D01*
X146756933Y-112974440D01*
X146752239Y-112983223D01*
X146745921Y-112990921D01*
X146738223Y-112997239D01*
X146729440Y-113001933D01*
X146719911Y-113004824D01*
X146710000Y-113005800D01*
X145950000Y-113005800D01*
X145940089Y-113004824D01*
X145930560Y-113001933D01*
X145921777Y-112997239D01*
X145914079Y-112990921D01*
X145907761Y-112983223D01*
X145903067Y-112974440D01*
X145900176Y-112964911D01*
X145899200Y-112955000D01*
X145899200Y-112928300D01*
X144475000Y-112928300D01*
X144465089Y-112927324D01*
X144455560Y-112924433D01*
X144446777Y-112919739D01*
X144439079Y-112913421D01*
X144432761Y-112905723D01*
X144428067Y-112896940D01*
X144425176Y-112887411D01*
X144424200Y-112877500D01*
X144424200Y-110642500D01*
X144425176Y-110632589D01*
X144428067Y-110623060D01*
X144432761Y-110614277D01*
X144439079Y-110606579D01*
X144446777Y-110600261D01*
X144455560Y-110595567D01*
X144465089Y-110592676D01*
X144475000Y-110591700D01*
X145899200Y-110591700D01*
X145899200Y-110565000D01*
X145900176Y-110555089D01*
X145903067Y-110545560D01*
X145907761Y-110536777D01*
X145914079Y-110529079D01*
X145921777Y-110522761D01*
X145930560Y-110518067D01*
X145940089Y-110515176D01*
X145950000Y-110514200D01*
X146710000Y-110514200D01*
X146719911Y-110515176D01*
X146719911Y-110515176D01*
G37*
D23*
X143345000Y-112750000D03*
X143345000Y-112090000D03*
X143345000Y-111430000D03*
X143345000Y-110770000D03*
D15*
X153670000Y-91880000D03*
D16*
X155950000Y-98180000D03*
X151390000Y-98180000D03*
D11*
X173990000Y-113030000D03*
D10*
X176530000Y-113030000D03*
X160972500Y-113030000D03*
D11*
X158432500Y-113030000D03*
D10*
X131445000Y-113030000D03*
X131445000Y-110490000D03*
X131445000Y-107950000D03*
D11*
X131445000Y-105410000D03*
D10*
X131445000Y-81280000D03*
D11*
X131445000Y-78740000D03*
D10*
X173990000Y-78740000D03*
D11*
X176530000Y-78740000D03*
D12*
G36*
X176818669Y-97610466D02*
G01*
X176844189Y-97614252D01*
X176869216Y-97620520D01*
X176893507Y-97629212D01*
X176916830Y-97640243D01*
X176938959Y-97653507D01*
X176959682Y-97668876D01*
X176978798Y-97686202D01*
X176996124Y-97705318D01*
X177011493Y-97726041D01*
X177024757Y-97748170D01*
X177035788Y-97771493D01*
X177044480Y-97795784D01*
X177050748Y-97820811D01*
X177054534Y-97846331D01*
X177055800Y-97872100D01*
X177055800Y-98497900D01*
X177054534Y-98523669D01*
X177050748Y-98549189D01*
X177044480Y-98574216D01*
X177035788Y-98598507D01*
X177024757Y-98621830D01*
X177011493Y-98643959D01*
X176996124Y-98664682D01*
X176978798Y-98683798D01*
X176959682Y-98701124D01*
X176938959Y-98716493D01*
X176916830Y-98729757D01*
X176893507Y-98740788D01*
X176869216Y-98749480D01*
X176844189Y-98755748D01*
X176818669Y-98759534D01*
X176792900Y-98760800D01*
X176267100Y-98760800D01*
X176241331Y-98759534D01*
X176215811Y-98755748D01*
X176190784Y-98749480D01*
X176166493Y-98740788D01*
X176143170Y-98729757D01*
X176121041Y-98716493D01*
X176100318Y-98701124D01*
X176081202Y-98683798D01*
X176063876Y-98664682D01*
X176048507Y-98643959D01*
X176035243Y-98621830D01*
X176024212Y-98598507D01*
X176015520Y-98574216D01*
X176009252Y-98549189D01*
X176005466Y-98523669D01*
X176004200Y-98497900D01*
X176004200Y-97872100D01*
X176005466Y-97846331D01*
X176009252Y-97820811D01*
X176015520Y-97795784D01*
X176024212Y-97771493D01*
X176035243Y-97748170D01*
X176048507Y-97726041D01*
X176063876Y-97705318D01*
X176081202Y-97686202D01*
X176100318Y-97668876D01*
X176121041Y-97653507D01*
X176143170Y-97640243D01*
X176166493Y-97629212D01*
X176190784Y-97620520D01*
X176215811Y-97614252D01*
X176241331Y-97610466D01*
X176267100Y-97609200D01*
X176792900Y-97609200D01*
X176818669Y-97610466D01*
X176818669Y-97610466D01*
G37*
D13*
X176530000Y-98185000D03*
D12*
G36*
X176818669Y-99360466D02*
G01*
X176844189Y-99364252D01*
X176869216Y-99370520D01*
X176893507Y-99379212D01*
X176916830Y-99390243D01*
X176938959Y-99403507D01*
X176959682Y-99418876D01*
X176978798Y-99436202D01*
X176996124Y-99455318D01*
X177011493Y-99476041D01*
X177024757Y-99498170D01*
X177035788Y-99521493D01*
X177044480Y-99545784D01*
X177050748Y-99570811D01*
X177054534Y-99596331D01*
X177055800Y-99622100D01*
X177055800Y-100247900D01*
X177054534Y-100273669D01*
X177050748Y-100299189D01*
X177044480Y-100324216D01*
X177035788Y-100348507D01*
X177024757Y-100371830D01*
X177011493Y-100393959D01*
X176996124Y-100414682D01*
X176978798Y-100433798D01*
X176959682Y-100451124D01*
X176938959Y-100466493D01*
X176916830Y-100479757D01*
X176893507Y-100490788D01*
X176869216Y-100499480D01*
X176844189Y-100505748D01*
X176818669Y-100509534D01*
X176792900Y-100510800D01*
X176267100Y-100510800D01*
X176241331Y-100509534D01*
X176215811Y-100505748D01*
X176190784Y-100499480D01*
X176166493Y-100490788D01*
X176143170Y-100479757D01*
X176121041Y-100466493D01*
X176100318Y-100451124D01*
X176081202Y-100433798D01*
X176063876Y-100414682D01*
X176048507Y-100393959D01*
X176035243Y-100371830D01*
X176024212Y-100348507D01*
X176015520Y-100324216D01*
X176009252Y-100299189D01*
X176005466Y-100273669D01*
X176004200Y-100247900D01*
X176004200Y-99622100D01*
X176005466Y-99596331D01*
X176009252Y-99570811D01*
X176015520Y-99545784D01*
X176024212Y-99521493D01*
X176035243Y-99498170D01*
X176048507Y-99476041D01*
X176063876Y-99455318D01*
X176081202Y-99436202D01*
X176100318Y-99418876D01*
X176121041Y-99403507D01*
X176143170Y-99390243D01*
X176166493Y-99379212D01*
X176190784Y-99370520D01*
X176215811Y-99364252D01*
X176241331Y-99360466D01*
X176267100Y-99359200D01*
X176792900Y-99359200D01*
X176818669Y-99360466D01*
X176818669Y-99360466D01*
G37*
D13*
X176530000Y-99935000D03*
D12*
G36*
X161578669Y-97610466D02*
G01*
X161604189Y-97614252D01*
X161629216Y-97620520D01*
X161653507Y-97629212D01*
X161676830Y-97640243D01*
X161698959Y-97653507D01*
X161719682Y-97668876D01*
X161738798Y-97686202D01*
X161756124Y-97705318D01*
X161771493Y-97726041D01*
X161784757Y-97748170D01*
X161795788Y-97771493D01*
X161804480Y-97795784D01*
X161810748Y-97820811D01*
X161814534Y-97846331D01*
X161815800Y-97872100D01*
X161815800Y-98497900D01*
X161814534Y-98523669D01*
X161810748Y-98549189D01*
X161804480Y-98574216D01*
X161795788Y-98598507D01*
X161784757Y-98621830D01*
X161771493Y-98643959D01*
X161756124Y-98664682D01*
X161738798Y-98683798D01*
X161719682Y-98701124D01*
X161698959Y-98716493D01*
X161676830Y-98729757D01*
X161653507Y-98740788D01*
X161629216Y-98749480D01*
X161604189Y-98755748D01*
X161578669Y-98759534D01*
X161552900Y-98760800D01*
X161027100Y-98760800D01*
X161001331Y-98759534D01*
X160975811Y-98755748D01*
X160950784Y-98749480D01*
X160926493Y-98740788D01*
X160903170Y-98729757D01*
X160881041Y-98716493D01*
X160860318Y-98701124D01*
X160841202Y-98683798D01*
X160823876Y-98664682D01*
X160808507Y-98643959D01*
X160795243Y-98621830D01*
X160784212Y-98598507D01*
X160775520Y-98574216D01*
X160769252Y-98549189D01*
X160765466Y-98523669D01*
X160764200Y-98497900D01*
X160764200Y-97872100D01*
X160765466Y-97846331D01*
X160769252Y-97820811D01*
X160775520Y-97795784D01*
X160784212Y-97771493D01*
X160795243Y-97748170D01*
X160808507Y-97726041D01*
X160823876Y-97705318D01*
X160841202Y-97686202D01*
X160860318Y-97668876D01*
X160881041Y-97653507D01*
X160903170Y-97640243D01*
X160926493Y-97629212D01*
X160950784Y-97620520D01*
X160975811Y-97614252D01*
X161001331Y-97610466D01*
X161027100Y-97609200D01*
X161552900Y-97609200D01*
X161578669Y-97610466D01*
X161578669Y-97610466D01*
G37*
D13*
X161290000Y-98185000D03*
D12*
G36*
X161578669Y-99360466D02*
G01*
X161604189Y-99364252D01*
X161629216Y-99370520D01*
X161653507Y-99379212D01*
X161676830Y-99390243D01*
X161698959Y-99403507D01*
X161719682Y-99418876D01*
X161738798Y-99436202D01*
X161756124Y-99455318D01*
X161771493Y-99476041D01*
X161784757Y-99498170D01*
X161795788Y-99521493D01*
X161804480Y-99545784D01*
X161810748Y-99570811D01*
X161814534Y-99596331D01*
X161815800Y-99622100D01*
X161815800Y-100247900D01*
X161814534Y-100273669D01*
X161810748Y-100299189D01*
X161804480Y-100324216D01*
X161795788Y-100348507D01*
X161784757Y-100371830D01*
X161771493Y-100393959D01*
X161756124Y-100414682D01*
X161738798Y-100433798D01*
X161719682Y-100451124D01*
X161698959Y-100466493D01*
X161676830Y-100479757D01*
X161653507Y-100490788D01*
X161629216Y-100499480D01*
X161604189Y-100505748D01*
X161578669Y-100509534D01*
X161552900Y-100510800D01*
X161027100Y-100510800D01*
X161001331Y-100509534D01*
X160975811Y-100505748D01*
X160950784Y-100499480D01*
X160926493Y-100490788D01*
X160903170Y-100479757D01*
X160881041Y-100466493D01*
X160860318Y-100451124D01*
X160841202Y-100433798D01*
X160823876Y-100414682D01*
X160808507Y-100393959D01*
X160795243Y-100371830D01*
X160784212Y-100348507D01*
X160775520Y-100324216D01*
X160769252Y-100299189D01*
X160765466Y-100273669D01*
X160764200Y-100247900D01*
X160764200Y-99622100D01*
X160765466Y-99596331D01*
X160769252Y-99570811D01*
X160775520Y-99545784D01*
X160784212Y-99521493D01*
X160795243Y-99498170D01*
X160808507Y-99476041D01*
X160823876Y-99455318D01*
X160841202Y-99436202D01*
X160860318Y-99418876D01*
X160881041Y-99403507D01*
X160903170Y-99390243D01*
X160926493Y-99379212D01*
X160950784Y-99370520D01*
X160975811Y-99364252D01*
X161001331Y-99360466D01*
X161027100Y-99359200D01*
X161552900Y-99359200D01*
X161578669Y-99360466D01*
X161578669Y-99360466D01*
G37*
D13*
X161290000Y-99935000D03*
D12*
G36*
X169198669Y-97610466D02*
G01*
X169224189Y-97614252D01*
X169249216Y-97620520D01*
X169273507Y-97629212D01*
X169296830Y-97640243D01*
X169318959Y-97653507D01*
X169339682Y-97668876D01*
X169358798Y-97686202D01*
X169376124Y-97705318D01*
X169391493Y-97726041D01*
X169404757Y-97748170D01*
X169415788Y-97771493D01*
X169424480Y-97795784D01*
X169430748Y-97820811D01*
X169434534Y-97846331D01*
X169435800Y-97872100D01*
X169435800Y-98497900D01*
X169434534Y-98523669D01*
X169430748Y-98549189D01*
X169424480Y-98574216D01*
X169415788Y-98598507D01*
X169404757Y-98621830D01*
X169391493Y-98643959D01*
X169376124Y-98664682D01*
X169358798Y-98683798D01*
X169339682Y-98701124D01*
X169318959Y-98716493D01*
X169296830Y-98729757D01*
X169273507Y-98740788D01*
X169249216Y-98749480D01*
X169224189Y-98755748D01*
X169198669Y-98759534D01*
X169172900Y-98760800D01*
X168647100Y-98760800D01*
X168621331Y-98759534D01*
X168595811Y-98755748D01*
X168570784Y-98749480D01*
X168546493Y-98740788D01*
X168523170Y-98729757D01*
X168501041Y-98716493D01*
X168480318Y-98701124D01*
X168461202Y-98683798D01*
X168443876Y-98664682D01*
X168428507Y-98643959D01*
X168415243Y-98621830D01*
X168404212Y-98598507D01*
X168395520Y-98574216D01*
X168389252Y-98549189D01*
X168385466Y-98523669D01*
X168384200Y-98497900D01*
X168384200Y-97872100D01*
X168385466Y-97846331D01*
X168389252Y-97820811D01*
X168395520Y-97795784D01*
X168404212Y-97771493D01*
X168415243Y-97748170D01*
X168428507Y-97726041D01*
X168443876Y-97705318D01*
X168461202Y-97686202D01*
X168480318Y-97668876D01*
X168501041Y-97653507D01*
X168523170Y-97640243D01*
X168546493Y-97629212D01*
X168570784Y-97620520D01*
X168595811Y-97614252D01*
X168621331Y-97610466D01*
X168647100Y-97609200D01*
X169172900Y-97609200D01*
X169198669Y-97610466D01*
X169198669Y-97610466D01*
G37*
D13*
X168910000Y-98185000D03*
D12*
G36*
X169198669Y-99360466D02*
G01*
X169224189Y-99364252D01*
X169249216Y-99370520D01*
X169273507Y-99379212D01*
X169296830Y-99390243D01*
X169318959Y-99403507D01*
X169339682Y-99418876D01*
X169358798Y-99436202D01*
X169376124Y-99455318D01*
X169391493Y-99476041D01*
X169404757Y-99498170D01*
X169415788Y-99521493D01*
X169424480Y-99545784D01*
X169430748Y-99570811D01*
X169434534Y-99596331D01*
X169435800Y-99622100D01*
X169435800Y-100247900D01*
X169434534Y-100273669D01*
X169430748Y-100299189D01*
X169424480Y-100324216D01*
X169415788Y-100348507D01*
X169404757Y-100371830D01*
X169391493Y-100393959D01*
X169376124Y-100414682D01*
X169358798Y-100433798D01*
X169339682Y-100451124D01*
X169318959Y-100466493D01*
X169296830Y-100479757D01*
X169273507Y-100490788D01*
X169249216Y-100499480D01*
X169224189Y-100505748D01*
X169198669Y-100509534D01*
X169172900Y-100510800D01*
X168647100Y-100510800D01*
X168621331Y-100509534D01*
X168595811Y-100505748D01*
X168570784Y-100499480D01*
X168546493Y-100490788D01*
X168523170Y-100479757D01*
X168501041Y-100466493D01*
X168480318Y-100451124D01*
X168461202Y-100433798D01*
X168443876Y-100414682D01*
X168428507Y-100393959D01*
X168415243Y-100371830D01*
X168404212Y-100348507D01*
X168395520Y-100324216D01*
X168389252Y-100299189D01*
X168385466Y-100273669D01*
X168384200Y-100247900D01*
X168384200Y-99622100D01*
X168385466Y-99596331D01*
X168389252Y-99570811D01*
X168395520Y-99545784D01*
X168404212Y-99521493D01*
X168415243Y-99498170D01*
X168428507Y-99476041D01*
X168443876Y-99455318D01*
X168461202Y-99436202D01*
X168480318Y-99418876D01*
X168501041Y-99403507D01*
X168523170Y-99390243D01*
X168546493Y-99379212D01*
X168570784Y-99370520D01*
X168595811Y-99364252D01*
X168621331Y-99360466D01*
X168647100Y-99359200D01*
X169172900Y-99359200D01*
X169198669Y-99360466D01*
X169198669Y-99360466D01*
G37*
D13*
X168910000Y-99935000D03*
D12*
G36*
X152343669Y-81390466D02*
G01*
X152369189Y-81394252D01*
X152394216Y-81400520D01*
X152418507Y-81409212D01*
X152441830Y-81420243D01*
X152463959Y-81433507D01*
X152484682Y-81448876D01*
X152503798Y-81466202D01*
X152521124Y-81485318D01*
X152536493Y-81506041D01*
X152549757Y-81528170D01*
X152560788Y-81551493D01*
X152569480Y-81575784D01*
X152575748Y-81600811D01*
X152579534Y-81626331D01*
X152580800Y-81652100D01*
X152580800Y-82177900D01*
X152579534Y-82203669D01*
X152575748Y-82229189D01*
X152569480Y-82254216D01*
X152560788Y-82278507D01*
X152549757Y-82301830D01*
X152536493Y-82323959D01*
X152521124Y-82344682D01*
X152503798Y-82363798D01*
X152484682Y-82381124D01*
X152463959Y-82396493D01*
X152441830Y-82409757D01*
X152418507Y-82420788D01*
X152394216Y-82429480D01*
X152369189Y-82435748D01*
X152343669Y-82439534D01*
X152317900Y-82440800D01*
X151692100Y-82440800D01*
X151666331Y-82439534D01*
X151640811Y-82435748D01*
X151615784Y-82429480D01*
X151591493Y-82420788D01*
X151568170Y-82409757D01*
X151546041Y-82396493D01*
X151525318Y-82381124D01*
X151506202Y-82363798D01*
X151488876Y-82344682D01*
X151473507Y-82323959D01*
X151460243Y-82301830D01*
X151449212Y-82278507D01*
X151440520Y-82254216D01*
X151434252Y-82229189D01*
X151430466Y-82203669D01*
X151429200Y-82177900D01*
X151429200Y-81652100D01*
X151430466Y-81626331D01*
X151434252Y-81600811D01*
X151440520Y-81575784D01*
X151449212Y-81551493D01*
X151460243Y-81528170D01*
X151473507Y-81506041D01*
X151488876Y-81485318D01*
X151506202Y-81466202D01*
X151525318Y-81448876D01*
X151546041Y-81433507D01*
X151568170Y-81420243D01*
X151591493Y-81409212D01*
X151615784Y-81400520D01*
X151640811Y-81394252D01*
X151666331Y-81390466D01*
X151692100Y-81389200D01*
X152317900Y-81389200D01*
X152343669Y-81390466D01*
X152343669Y-81390466D01*
G37*
D13*
X152005000Y-81915000D03*
D12*
G36*
X150593669Y-81390466D02*
G01*
X150619189Y-81394252D01*
X150644216Y-81400520D01*
X150668507Y-81409212D01*
X150691830Y-81420243D01*
X150713959Y-81433507D01*
X150734682Y-81448876D01*
X150753798Y-81466202D01*
X150771124Y-81485318D01*
X150786493Y-81506041D01*
X150799757Y-81528170D01*
X150810788Y-81551493D01*
X150819480Y-81575784D01*
X150825748Y-81600811D01*
X150829534Y-81626331D01*
X150830800Y-81652100D01*
X150830800Y-82177900D01*
X150829534Y-82203669D01*
X150825748Y-82229189D01*
X150819480Y-82254216D01*
X150810788Y-82278507D01*
X150799757Y-82301830D01*
X150786493Y-82323959D01*
X150771124Y-82344682D01*
X150753798Y-82363798D01*
X150734682Y-82381124D01*
X150713959Y-82396493D01*
X150691830Y-82409757D01*
X150668507Y-82420788D01*
X150644216Y-82429480D01*
X150619189Y-82435748D01*
X150593669Y-82439534D01*
X150567900Y-82440800D01*
X149942100Y-82440800D01*
X149916331Y-82439534D01*
X149890811Y-82435748D01*
X149865784Y-82429480D01*
X149841493Y-82420788D01*
X149818170Y-82409757D01*
X149796041Y-82396493D01*
X149775318Y-82381124D01*
X149756202Y-82363798D01*
X149738876Y-82344682D01*
X149723507Y-82323959D01*
X149710243Y-82301830D01*
X149699212Y-82278507D01*
X149690520Y-82254216D01*
X149684252Y-82229189D01*
X149680466Y-82203669D01*
X149679200Y-82177900D01*
X149679200Y-81652100D01*
X149680466Y-81626331D01*
X149684252Y-81600811D01*
X149690520Y-81575784D01*
X149699212Y-81551493D01*
X149710243Y-81528170D01*
X149723507Y-81506041D01*
X149738876Y-81485318D01*
X149756202Y-81466202D01*
X149775318Y-81448876D01*
X149796041Y-81433507D01*
X149818170Y-81420243D01*
X149841493Y-81409212D01*
X149865784Y-81400520D01*
X149890811Y-81394252D01*
X149916331Y-81390466D01*
X149942100Y-81389200D01*
X150567900Y-81389200D01*
X150593669Y-81390466D01*
X150593669Y-81390466D01*
G37*
D13*
X150255000Y-81915000D03*
D12*
G36*
X144243669Y-79485466D02*
G01*
X144269189Y-79489252D01*
X144294216Y-79495520D01*
X144318507Y-79504212D01*
X144341830Y-79515243D01*
X144363959Y-79528507D01*
X144384682Y-79543876D01*
X144403798Y-79561202D01*
X144421124Y-79580318D01*
X144436493Y-79601041D01*
X144449757Y-79623170D01*
X144460788Y-79646493D01*
X144469480Y-79670784D01*
X144475748Y-79695811D01*
X144479534Y-79721331D01*
X144480800Y-79747100D01*
X144480800Y-80272900D01*
X144479534Y-80298669D01*
X144475748Y-80324189D01*
X144469480Y-80349216D01*
X144460788Y-80373507D01*
X144449757Y-80396830D01*
X144436493Y-80418959D01*
X144421124Y-80439682D01*
X144403798Y-80458798D01*
X144384682Y-80476124D01*
X144363959Y-80491493D01*
X144341830Y-80504757D01*
X144318507Y-80515788D01*
X144294216Y-80524480D01*
X144269189Y-80530748D01*
X144243669Y-80534534D01*
X144217900Y-80535800D01*
X143592100Y-80535800D01*
X143566331Y-80534534D01*
X143540811Y-80530748D01*
X143515784Y-80524480D01*
X143491493Y-80515788D01*
X143468170Y-80504757D01*
X143446041Y-80491493D01*
X143425318Y-80476124D01*
X143406202Y-80458798D01*
X143388876Y-80439682D01*
X143373507Y-80418959D01*
X143360243Y-80396830D01*
X143349212Y-80373507D01*
X143340520Y-80349216D01*
X143334252Y-80324189D01*
X143330466Y-80298669D01*
X143329200Y-80272900D01*
X143329200Y-79747100D01*
X143330466Y-79721331D01*
X143334252Y-79695811D01*
X143340520Y-79670784D01*
X143349212Y-79646493D01*
X143360243Y-79623170D01*
X143373507Y-79601041D01*
X143388876Y-79580318D01*
X143406202Y-79561202D01*
X143425318Y-79543876D01*
X143446041Y-79528507D01*
X143468170Y-79515243D01*
X143491493Y-79504212D01*
X143515784Y-79495520D01*
X143540811Y-79489252D01*
X143566331Y-79485466D01*
X143592100Y-79484200D01*
X144217900Y-79484200D01*
X144243669Y-79485466D01*
X144243669Y-79485466D01*
G37*
D13*
X143905000Y-80010000D03*
D12*
G36*
X145993669Y-79485466D02*
G01*
X146019189Y-79489252D01*
X146044216Y-79495520D01*
X146068507Y-79504212D01*
X146091830Y-79515243D01*
X146113959Y-79528507D01*
X146134682Y-79543876D01*
X146153798Y-79561202D01*
X146171124Y-79580318D01*
X146186493Y-79601041D01*
X146199757Y-79623170D01*
X146210788Y-79646493D01*
X146219480Y-79670784D01*
X146225748Y-79695811D01*
X146229534Y-79721331D01*
X146230800Y-79747100D01*
X146230800Y-80272900D01*
X146229534Y-80298669D01*
X146225748Y-80324189D01*
X146219480Y-80349216D01*
X146210788Y-80373507D01*
X146199757Y-80396830D01*
X146186493Y-80418959D01*
X146171124Y-80439682D01*
X146153798Y-80458798D01*
X146134682Y-80476124D01*
X146113959Y-80491493D01*
X146091830Y-80504757D01*
X146068507Y-80515788D01*
X146044216Y-80524480D01*
X146019189Y-80530748D01*
X145993669Y-80534534D01*
X145967900Y-80535800D01*
X145342100Y-80535800D01*
X145316331Y-80534534D01*
X145290811Y-80530748D01*
X145265784Y-80524480D01*
X145241493Y-80515788D01*
X145218170Y-80504757D01*
X145196041Y-80491493D01*
X145175318Y-80476124D01*
X145156202Y-80458798D01*
X145138876Y-80439682D01*
X145123507Y-80418959D01*
X145110243Y-80396830D01*
X145099212Y-80373507D01*
X145090520Y-80349216D01*
X145084252Y-80324189D01*
X145080466Y-80298669D01*
X145079200Y-80272900D01*
X145079200Y-79747100D01*
X145080466Y-79721331D01*
X145084252Y-79695811D01*
X145090520Y-79670784D01*
X145099212Y-79646493D01*
X145110243Y-79623170D01*
X145123507Y-79601041D01*
X145138876Y-79580318D01*
X145156202Y-79561202D01*
X145175318Y-79543876D01*
X145196041Y-79528507D01*
X145218170Y-79515243D01*
X145241493Y-79504212D01*
X145265784Y-79495520D01*
X145290811Y-79489252D01*
X145316331Y-79485466D01*
X145342100Y-79484200D01*
X145967900Y-79484200D01*
X145993669Y-79485466D01*
X145993669Y-79485466D01*
G37*
D13*
X145655000Y-80010000D03*
D12*
G36*
X172015903Y-80946548D02*
G01*
X172063246Y-80953571D01*
X172109672Y-80965200D01*
X172154735Y-80981324D01*
X172198000Y-81001787D01*
X172239052Y-81026392D01*
X172277494Y-81054903D01*
X172312956Y-81087044D01*
X172345097Y-81122506D01*
X172373608Y-81160948D01*
X172398213Y-81202000D01*
X172418676Y-81245265D01*
X172434800Y-81290328D01*
X172446429Y-81336754D01*
X172453452Y-81384097D01*
X172455800Y-81431900D01*
X172455800Y-86208100D01*
X172453452Y-86255903D01*
X172446429Y-86303246D01*
X172434800Y-86349672D01*
X172418676Y-86394735D01*
X172398213Y-86438000D01*
X172373608Y-86479052D01*
X172345097Y-86517494D01*
X172312956Y-86552956D01*
X172277494Y-86585097D01*
X172239052Y-86613608D01*
X172198000Y-86638213D01*
X172154735Y-86658676D01*
X172109672Y-86674800D01*
X172063246Y-86686429D01*
X172015903Y-86693452D01*
X171968100Y-86695800D01*
X169041900Y-86695800D01*
X168994097Y-86693452D01*
X168946754Y-86686429D01*
X168900328Y-86674800D01*
X168855265Y-86658676D01*
X168812000Y-86638213D01*
X168770948Y-86613608D01*
X168732506Y-86585097D01*
X168697044Y-86552956D01*
X168664903Y-86517494D01*
X168636392Y-86479052D01*
X168611787Y-86438000D01*
X168591324Y-86394735D01*
X168575200Y-86349672D01*
X168563571Y-86303246D01*
X168556548Y-86255903D01*
X168554200Y-86208100D01*
X168554200Y-81431900D01*
X168556548Y-81384097D01*
X168563571Y-81336754D01*
X168575200Y-81290328D01*
X168591324Y-81245265D01*
X168611787Y-81202000D01*
X168636392Y-81160948D01*
X168664903Y-81122506D01*
X168697044Y-81087044D01*
X168732506Y-81054903D01*
X168770948Y-81026392D01*
X168812000Y-81001787D01*
X168855265Y-80981324D01*
X168900328Y-80965200D01*
X168946754Y-80953571D01*
X168994097Y-80946548D01*
X169041900Y-80944200D01*
X171968100Y-80944200D01*
X172015903Y-80946548D01*
X172015903Y-80946548D01*
G37*
D24*
X170505000Y-83820000D03*
D12*
G36*
X181525903Y-80946548D02*
G01*
X181573246Y-80953571D01*
X181619672Y-80965200D01*
X181664735Y-80981324D01*
X181708000Y-81001787D01*
X181749052Y-81026392D01*
X181787494Y-81054903D01*
X181822956Y-81087044D01*
X181855097Y-81122506D01*
X181883608Y-81160948D01*
X181908213Y-81202000D01*
X181928676Y-81245265D01*
X181944800Y-81290328D01*
X181956429Y-81336754D01*
X181963452Y-81384097D01*
X181965800Y-81431900D01*
X181965800Y-86208100D01*
X181963452Y-86255903D01*
X181956429Y-86303246D01*
X181944800Y-86349672D01*
X181928676Y-86394735D01*
X181908213Y-86438000D01*
X181883608Y-86479052D01*
X181855097Y-86517494D01*
X181822956Y-86552956D01*
X181787494Y-86585097D01*
X181749052Y-86613608D01*
X181708000Y-86638213D01*
X181664735Y-86658676D01*
X181619672Y-86674800D01*
X181573246Y-86686429D01*
X181525903Y-86693452D01*
X181478100Y-86695800D01*
X178551900Y-86695800D01*
X178504097Y-86693452D01*
X178456754Y-86686429D01*
X178410328Y-86674800D01*
X178365265Y-86658676D01*
X178322000Y-86638213D01*
X178280948Y-86613608D01*
X178242506Y-86585097D01*
X178207044Y-86552956D01*
X178174903Y-86517494D01*
X178146392Y-86479052D01*
X178121787Y-86438000D01*
X178101324Y-86394735D01*
X178085200Y-86349672D01*
X178073571Y-86303246D01*
X178066548Y-86255903D01*
X178064200Y-86208100D01*
X178064200Y-81431900D01*
X178066548Y-81384097D01*
X178073571Y-81336754D01*
X178085200Y-81290328D01*
X178101324Y-81245265D01*
X178121787Y-81202000D01*
X178146392Y-81160948D01*
X178174903Y-81122506D01*
X178207044Y-81087044D01*
X178242506Y-81054903D01*
X178280948Y-81026392D01*
X178322000Y-81001787D01*
X178365265Y-80981324D01*
X178410328Y-80965200D01*
X178456754Y-80953571D01*
X178504097Y-80946548D01*
X178551900Y-80944200D01*
X181478100Y-80944200D01*
X181525903Y-80946548D01*
X181525903Y-80946548D01*
G37*
D24*
X180015000Y-83820000D03*
D25*
X170860000Y-106045000D03*
X179660000Y-106045000D03*
D17*
X139085000Y-108585000D03*
X141585000Y-108585000D03*
X143530000Y-108585000D03*
X146030000Y-108585000D03*
D12*
G36*
X176628669Y-109965466D02*
G01*
X176654189Y-109969252D01*
X176679216Y-109975520D01*
X176703507Y-109984212D01*
X176726830Y-109995243D01*
X176748959Y-110008507D01*
X176769682Y-110023876D01*
X176788798Y-110041202D01*
X176806124Y-110060318D01*
X176821493Y-110081041D01*
X176834757Y-110103170D01*
X176845788Y-110126493D01*
X176854480Y-110150784D01*
X176860748Y-110175811D01*
X176864534Y-110201331D01*
X176865800Y-110227100D01*
X176865800Y-110752900D01*
X176864534Y-110778669D01*
X176860748Y-110804189D01*
X176854480Y-110829216D01*
X176845788Y-110853507D01*
X176834757Y-110876830D01*
X176821493Y-110898959D01*
X176806124Y-110919682D01*
X176788798Y-110938798D01*
X176769682Y-110956124D01*
X176748959Y-110971493D01*
X176726830Y-110984757D01*
X176703507Y-110995788D01*
X176679216Y-111004480D01*
X176654189Y-111010748D01*
X176628669Y-111014534D01*
X176602900Y-111015800D01*
X175977100Y-111015800D01*
X175951331Y-111014534D01*
X175925811Y-111010748D01*
X175900784Y-111004480D01*
X175876493Y-110995788D01*
X175853170Y-110984757D01*
X175831041Y-110971493D01*
X175810318Y-110956124D01*
X175791202Y-110938798D01*
X175773876Y-110919682D01*
X175758507Y-110898959D01*
X175745243Y-110876830D01*
X175734212Y-110853507D01*
X175725520Y-110829216D01*
X175719252Y-110804189D01*
X175715466Y-110778669D01*
X175714200Y-110752900D01*
X175714200Y-110227100D01*
X175715466Y-110201331D01*
X175719252Y-110175811D01*
X175725520Y-110150784D01*
X175734212Y-110126493D01*
X175745243Y-110103170D01*
X175758507Y-110081041D01*
X175773876Y-110060318D01*
X175791202Y-110041202D01*
X175810318Y-110023876D01*
X175831041Y-110008507D01*
X175853170Y-109995243D01*
X175876493Y-109984212D01*
X175900784Y-109975520D01*
X175925811Y-109969252D01*
X175951331Y-109965466D01*
X175977100Y-109964200D01*
X176602900Y-109964200D01*
X176628669Y-109965466D01*
X176628669Y-109965466D01*
G37*
D13*
X176290000Y-110490000D03*
D12*
G36*
X178378669Y-109965466D02*
G01*
X178404189Y-109969252D01*
X178429216Y-109975520D01*
X178453507Y-109984212D01*
X178476830Y-109995243D01*
X178498959Y-110008507D01*
X178519682Y-110023876D01*
X178538798Y-110041202D01*
X178556124Y-110060318D01*
X178571493Y-110081041D01*
X178584757Y-110103170D01*
X178595788Y-110126493D01*
X178604480Y-110150784D01*
X178610748Y-110175811D01*
X178614534Y-110201331D01*
X178615800Y-110227100D01*
X178615800Y-110752900D01*
X178614534Y-110778669D01*
X178610748Y-110804189D01*
X178604480Y-110829216D01*
X178595788Y-110853507D01*
X178584757Y-110876830D01*
X178571493Y-110898959D01*
X178556124Y-110919682D01*
X178538798Y-110938798D01*
X178519682Y-110956124D01*
X178498959Y-110971493D01*
X178476830Y-110984757D01*
X178453507Y-110995788D01*
X178429216Y-111004480D01*
X178404189Y-111010748D01*
X178378669Y-111014534D01*
X178352900Y-111015800D01*
X177727100Y-111015800D01*
X177701331Y-111014534D01*
X177675811Y-111010748D01*
X177650784Y-111004480D01*
X177626493Y-110995788D01*
X177603170Y-110984757D01*
X177581041Y-110971493D01*
X177560318Y-110956124D01*
X177541202Y-110938798D01*
X177523876Y-110919682D01*
X177508507Y-110898959D01*
X177495243Y-110876830D01*
X177484212Y-110853507D01*
X177475520Y-110829216D01*
X177469252Y-110804189D01*
X177465466Y-110778669D01*
X177464200Y-110752900D01*
X177464200Y-110227100D01*
X177465466Y-110201331D01*
X177469252Y-110175811D01*
X177475520Y-110150784D01*
X177484212Y-110126493D01*
X177495243Y-110103170D01*
X177508507Y-110081041D01*
X177523876Y-110060318D01*
X177541202Y-110041202D01*
X177560318Y-110023876D01*
X177581041Y-110008507D01*
X177603170Y-109995243D01*
X177626493Y-109984212D01*
X177650784Y-109975520D01*
X177675811Y-109969252D01*
X177701331Y-109965466D01*
X177727100Y-109964200D01*
X178352900Y-109964200D01*
X178378669Y-109965466D01*
X178378669Y-109965466D01*
G37*
D13*
X178040000Y-110490000D03*
D12*
G36*
X172818669Y-109965466D02*
G01*
X172844189Y-109969252D01*
X172869216Y-109975520D01*
X172893507Y-109984212D01*
X172916830Y-109995243D01*
X172938959Y-110008507D01*
X172959682Y-110023876D01*
X172978798Y-110041202D01*
X172996124Y-110060318D01*
X173011493Y-110081041D01*
X173024757Y-110103170D01*
X173035788Y-110126493D01*
X173044480Y-110150784D01*
X173050748Y-110175811D01*
X173054534Y-110201331D01*
X173055800Y-110227100D01*
X173055800Y-110752900D01*
X173054534Y-110778669D01*
X173050748Y-110804189D01*
X173044480Y-110829216D01*
X173035788Y-110853507D01*
X173024757Y-110876830D01*
X173011493Y-110898959D01*
X172996124Y-110919682D01*
X172978798Y-110938798D01*
X172959682Y-110956124D01*
X172938959Y-110971493D01*
X172916830Y-110984757D01*
X172893507Y-110995788D01*
X172869216Y-111004480D01*
X172844189Y-111010748D01*
X172818669Y-111014534D01*
X172792900Y-111015800D01*
X172167100Y-111015800D01*
X172141331Y-111014534D01*
X172115811Y-111010748D01*
X172090784Y-111004480D01*
X172066493Y-110995788D01*
X172043170Y-110984757D01*
X172021041Y-110971493D01*
X172000318Y-110956124D01*
X171981202Y-110938798D01*
X171963876Y-110919682D01*
X171948507Y-110898959D01*
X171935243Y-110876830D01*
X171924212Y-110853507D01*
X171915520Y-110829216D01*
X171909252Y-110804189D01*
X171905466Y-110778669D01*
X171904200Y-110752900D01*
X171904200Y-110227100D01*
X171905466Y-110201331D01*
X171909252Y-110175811D01*
X171915520Y-110150784D01*
X171924212Y-110126493D01*
X171935243Y-110103170D01*
X171948507Y-110081041D01*
X171963876Y-110060318D01*
X171981202Y-110041202D01*
X172000318Y-110023876D01*
X172021041Y-110008507D01*
X172043170Y-109995243D01*
X172066493Y-109984212D01*
X172090784Y-109975520D01*
X172115811Y-109969252D01*
X172141331Y-109965466D01*
X172167100Y-109964200D01*
X172792900Y-109964200D01*
X172818669Y-109965466D01*
X172818669Y-109965466D01*
G37*
D13*
X172480000Y-110490000D03*
D12*
G36*
X174568669Y-109965466D02*
G01*
X174594189Y-109969252D01*
X174619216Y-109975520D01*
X174643507Y-109984212D01*
X174666830Y-109995243D01*
X174688959Y-110008507D01*
X174709682Y-110023876D01*
X174728798Y-110041202D01*
X174746124Y-110060318D01*
X174761493Y-110081041D01*
X174774757Y-110103170D01*
X174785788Y-110126493D01*
X174794480Y-110150784D01*
X174800748Y-110175811D01*
X174804534Y-110201331D01*
X174805800Y-110227100D01*
X174805800Y-110752900D01*
X174804534Y-110778669D01*
X174800748Y-110804189D01*
X174794480Y-110829216D01*
X174785788Y-110853507D01*
X174774757Y-110876830D01*
X174761493Y-110898959D01*
X174746124Y-110919682D01*
X174728798Y-110938798D01*
X174709682Y-110956124D01*
X174688959Y-110971493D01*
X174666830Y-110984757D01*
X174643507Y-110995788D01*
X174619216Y-111004480D01*
X174594189Y-111010748D01*
X174568669Y-111014534D01*
X174542900Y-111015800D01*
X173917100Y-111015800D01*
X173891331Y-111014534D01*
X173865811Y-111010748D01*
X173840784Y-111004480D01*
X173816493Y-110995788D01*
X173793170Y-110984757D01*
X173771041Y-110971493D01*
X173750318Y-110956124D01*
X173731202Y-110938798D01*
X173713876Y-110919682D01*
X173698507Y-110898959D01*
X173685243Y-110876830D01*
X173674212Y-110853507D01*
X173665520Y-110829216D01*
X173659252Y-110804189D01*
X173655466Y-110778669D01*
X173654200Y-110752900D01*
X173654200Y-110227100D01*
X173655466Y-110201331D01*
X173659252Y-110175811D01*
X173665520Y-110150784D01*
X173674212Y-110126493D01*
X173685243Y-110103170D01*
X173698507Y-110081041D01*
X173713876Y-110060318D01*
X173731202Y-110041202D01*
X173750318Y-110023876D01*
X173771041Y-110008507D01*
X173793170Y-109995243D01*
X173816493Y-109984212D01*
X173840784Y-109975520D01*
X173865811Y-109969252D01*
X173891331Y-109965466D01*
X173917100Y-109964200D01*
X174542900Y-109964200D01*
X174568669Y-109965466D01*
X174568669Y-109965466D01*
G37*
D13*
X174230000Y-110490000D03*
D12*
G36*
X161071169Y-109965466D02*
G01*
X161096689Y-109969252D01*
X161121716Y-109975520D01*
X161146007Y-109984212D01*
X161169330Y-109995243D01*
X161191459Y-110008507D01*
X161212182Y-110023876D01*
X161231298Y-110041202D01*
X161248624Y-110060318D01*
X161263993Y-110081041D01*
X161277257Y-110103170D01*
X161288288Y-110126493D01*
X161296980Y-110150784D01*
X161303248Y-110175811D01*
X161307034Y-110201331D01*
X161308300Y-110227100D01*
X161308300Y-110752900D01*
X161307034Y-110778669D01*
X161303248Y-110804189D01*
X161296980Y-110829216D01*
X161288288Y-110853507D01*
X161277257Y-110876830D01*
X161263993Y-110898959D01*
X161248624Y-110919682D01*
X161231298Y-110938798D01*
X161212182Y-110956124D01*
X161191459Y-110971493D01*
X161169330Y-110984757D01*
X161146007Y-110995788D01*
X161121716Y-111004480D01*
X161096689Y-111010748D01*
X161071169Y-111014534D01*
X161045400Y-111015800D01*
X160419600Y-111015800D01*
X160393831Y-111014534D01*
X160368311Y-111010748D01*
X160343284Y-111004480D01*
X160318993Y-110995788D01*
X160295670Y-110984757D01*
X160273541Y-110971493D01*
X160252818Y-110956124D01*
X160233702Y-110938798D01*
X160216376Y-110919682D01*
X160201007Y-110898959D01*
X160187743Y-110876830D01*
X160176712Y-110853507D01*
X160168020Y-110829216D01*
X160161752Y-110804189D01*
X160157966Y-110778669D01*
X160156700Y-110752900D01*
X160156700Y-110227100D01*
X160157966Y-110201331D01*
X160161752Y-110175811D01*
X160168020Y-110150784D01*
X160176712Y-110126493D01*
X160187743Y-110103170D01*
X160201007Y-110081041D01*
X160216376Y-110060318D01*
X160233702Y-110041202D01*
X160252818Y-110023876D01*
X160273541Y-110008507D01*
X160295670Y-109995243D01*
X160318993Y-109984212D01*
X160343284Y-109975520D01*
X160368311Y-109969252D01*
X160393831Y-109965466D01*
X160419600Y-109964200D01*
X161045400Y-109964200D01*
X161071169Y-109965466D01*
X161071169Y-109965466D01*
G37*
D13*
X160732500Y-110490000D03*
D12*
G36*
X162821169Y-109965466D02*
G01*
X162846689Y-109969252D01*
X162871716Y-109975520D01*
X162896007Y-109984212D01*
X162919330Y-109995243D01*
X162941459Y-110008507D01*
X162962182Y-110023876D01*
X162981298Y-110041202D01*
X162998624Y-110060318D01*
X163013993Y-110081041D01*
X163027257Y-110103170D01*
X163038288Y-110126493D01*
X163046980Y-110150784D01*
X163053248Y-110175811D01*
X163057034Y-110201331D01*
X163058300Y-110227100D01*
X163058300Y-110752900D01*
X163057034Y-110778669D01*
X163053248Y-110804189D01*
X163046980Y-110829216D01*
X163038288Y-110853507D01*
X163027257Y-110876830D01*
X163013993Y-110898959D01*
X162998624Y-110919682D01*
X162981298Y-110938798D01*
X162962182Y-110956124D01*
X162941459Y-110971493D01*
X162919330Y-110984757D01*
X162896007Y-110995788D01*
X162871716Y-111004480D01*
X162846689Y-111010748D01*
X162821169Y-111014534D01*
X162795400Y-111015800D01*
X162169600Y-111015800D01*
X162143831Y-111014534D01*
X162118311Y-111010748D01*
X162093284Y-111004480D01*
X162068993Y-110995788D01*
X162045670Y-110984757D01*
X162023541Y-110971493D01*
X162002818Y-110956124D01*
X161983702Y-110938798D01*
X161966376Y-110919682D01*
X161951007Y-110898959D01*
X161937743Y-110876830D01*
X161926712Y-110853507D01*
X161918020Y-110829216D01*
X161911752Y-110804189D01*
X161907966Y-110778669D01*
X161906700Y-110752900D01*
X161906700Y-110227100D01*
X161907966Y-110201331D01*
X161911752Y-110175811D01*
X161918020Y-110150784D01*
X161926712Y-110126493D01*
X161937743Y-110103170D01*
X161951007Y-110081041D01*
X161966376Y-110060318D01*
X161983702Y-110041202D01*
X162002818Y-110023876D01*
X162023541Y-110008507D01*
X162045670Y-109995243D01*
X162068993Y-109984212D01*
X162093284Y-109975520D01*
X162118311Y-109969252D01*
X162143831Y-109965466D01*
X162169600Y-109964200D01*
X162795400Y-109964200D01*
X162821169Y-109965466D01*
X162821169Y-109965466D01*
G37*
D13*
X162482500Y-110490000D03*
D12*
G36*
X157261169Y-109965466D02*
G01*
X157286689Y-109969252D01*
X157311716Y-109975520D01*
X157336007Y-109984212D01*
X157359330Y-109995243D01*
X157381459Y-110008507D01*
X157402182Y-110023876D01*
X157421298Y-110041202D01*
X157438624Y-110060318D01*
X157453993Y-110081041D01*
X157467257Y-110103170D01*
X157478288Y-110126493D01*
X157486980Y-110150784D01*
X157493248Y-110175811D01*
X157497034Y-110201331D01*
X157498300Y-110227100D01*
X157498300Y-110752900D01*
X157497034Y-110778669D01*
X157493248Y-110804189D01*
X157486980Y-110829216D01*
X157478288Y-110853507D01*
X157467257Y-110876830D01*
X157453993Y-110898959D01*
X157438624Y-110919682D01*
X157421298Y-110938798D01*
X157402182Y-110956124D01*
X157381459Y-110971493D01*
X157359330Y-110984757D01*
X157336007Y-110995788D01*
X157311716Y-111004480D01*
X157286689Y-111010748D01*
X157261169Y-111014534D01*
X157235400Y-111015800D01*
X156609600Y-111015800D01*
X156583831Y-111014534D01*
X156558311Y-111010748D01*
X156533284Y-111004480D01*
X156508993Y-110995788D01*
X156485670Y-110984757D01*
X156463541Y-110971493D01*
X156442818Y-110956124D01*
X156423702Y-110938798D01*
X156406376Y-110919682D01*
X156391007Y-110898959D01*
X156377743Y-110876830D01*
X156366712Y-110853507D01*
X156358020Y-110829216D01*
X156351752Y-110804189D01*
X156347966Y-110778669D01*
X156346700Y-110752900D01*
X156346700Y-110227100D01*
X156347966Y-110201331D01*
X156351752Y-110175811D01*
X156358020Y-110150784D01*
X156366712Y-110126493D01*
X156377743Y-110103170D01*
X156391007Y-110081041D01*
X156406376Y-110060318D01*
X156423702Y-110041202D01*
X156442818Y-110023876D01*
X156463541Y-110008507D01*
X156485670Y-109995243D01*
X156508993Y-109984212D01*
X156533284Y-109975520D01*
X156558311Y-109969252D01*
X156583831Y-109965466D01*
X156609600Y-109964200D01*
X157235400Y-109964200D01*
X157261169Y-109965466D01*
X157261169Y-109965466D01*
G37*
D13*
X156922500Y-110490000D03*
D12*
G36*
X159011169Y-109965466D02*
G01*
X159036689Y-109969252D01*
X159061716Y-109975520D01*
X159086007Y-109984212D01*
X159109330Y-109995243D01*
X159131459Y-110008507D01*
X159152182Y-110023876D01*
X159171298Y-110041202D01*
X159188624Y-110060318D01*
X159203993Y-110081041D01*
X159217257Y-110103170D01*
X159228288Y-110126493D01*
X159236980Y-110150784D01*
X159243248Y-110175811D01*
X159247034Y-110201331D01*
X159248300Y-110227100D01*
X159248300Y-110752900D01*
X159247034Y-110778669D01*
X159243248Y-110804189D01*
X159236980Y-110829216D01*
X159228288Y-110853507D01*
X159217257Y-110876830D01*
X159203993Y-110898959D01*
X159188624Y-110919682D01*
X159171298Y-110938798D01*
X159152182Y-110956124D01*
X159131459Y-110971493D01*
X159109330Y-110984757D01*
X159086007Y-110995788D01*
X159061716Y-111004480D01*
X159036689Y-111010748D01*
X159011169Y-111014534D01*
X158985400Y-111015800D01*
X158359600Y-111015800D01*
X158333831Y-111014534D01*
X158308311Y-111010748D01*
X158283284Y-111004480D01*
X158258993Y-110995788D01*
X158235670Y-110984757D01*
X158213541Y-110971493D01*
X158192818Y-110956124D01*
X158173702Y-110938798D01*
X158156376Y-110919682D01*
X158141007Y-110898959D01*
X158127743Y-110876830D01*
X158116712Y-110853507D01*
X158108020Y-110829216D01*
X158101752Y-110804189D01*
X158097966Y-110778669D01*
X158096700Y-110752900D01*
X158096700Y-110227100D01*
X158097966Y-110201331D01*
X158101752Y-110175811D01*
X158108020Y-110150784D01*
X158116712Y-110126493D01*
X158127743Y-110103170D01*
X158141007Y-110081041D01*
X158156376Y-110060318D01*
X158173702Y-110041202D01*
X158192818Y-110023876D01*
X158213541Y-110008507D01*
X158235670Y-109995243D01*
X158258993Y-109984212D01*
X158283284Y-109975520D01*
X158308311Y-109969252D01*
X158333831Y-109965466D01*
X158359600Y-109964200D01*
X158985400Y-109964200D01*
X159011169Y-109965466D01*
X159011169Y-109965466D01*
G37*
D13*
X158672500Y-110490000D03*
D12*
G36*
X139008669Y-92502966D02*
G01*
X139034189Y-92506752D01*
X139059216Y-92513020D01*
X139083507Y-92521712D01*
X139106830Y-92532743D01*
X139128959Y-92546007D01*
X139149682Y-92561376D01*
X139168798Y-92578702D01*
X139186124Y-92597818D01*
X139201493Y-92618541D01*
X139214757Y-92640670D01*
X139225788Y-92663993D01*
X139234480Y-92688284D01*
X139240748Y-92713311D01*
X139244534Y-92738831D01*
X139245800Y-92764600D01*
X139245800Y-93290400D01*
X139244534Y-93316169D01*
X139240748Y-93341689D01*
X139234480Y-93366716D01*
X139225788Y-93391007D01*
X139214757Y-93414330D01*
X139201493Y-93436459D01*
X139186124Y-93457182D01*
X139168798Y-93476298D01*
X139149682Y-93493624D01*
X139128959Y-93508993D01*
X139106830Y-93522257D01*
X139083507Y-93533288D01*
X139059216Y-93541980D01*
X139034189Y-93548248D01*
X139008669Y-93552034D01*
X138982900Y-93553300D01*
X138357100Y-93553300D01*
X138331331Y-93552034D01*
X138305811Y-93548248D01*
X138280784Y-93541980D01*
X138256493Y-93533288D01*
X138233170Y-93522257D01*
X138211041Y-93508993D01*
X138190318Y-93493624D01*
X138171202Y-93476298D01*
X138153876Y-93457182D01*
X138138507Y-93436459D01*
X138125243Y-93414330D01*
X138114212Y-93391007D01*
X138105520Y-93366716D01*
X138099252Y-93341689D01*
X138095466Y-93316169D01*
X138094200Y-93290400D01*
X138094200Y-92764600D01*
X138095466Y-92738831D01*
X138099252Y-92713311D01*
X138105520Y-92688284D01*
X138114212Y-92663993D01*
X138125243Y-92640670D01*
X138138507Y-92618541D01*
X138153876Y-92597818D01*
X138171202Y-92578702D01*
X138190318Y-92561376D01*
X138211041Y-92546007D01*
X138233170Y-92532743D01*
X138256493Y-92521712D01*
X138280784Y-92513020D01*
X138305811Y-92506752D01*
X138331331Y-92502966D01*
X138357100Y-92501700D01*
X138982900Y-92501700D01*
X139008669Y-92502966D01*
X139008669Y-92502966D01*
G37*
D13*
X138670000Y-93027500D03*
D12*
G36*
X137258669Y-92502966D02*
G01*
X137284189Y-92506752D01*
X137309216Y-92513020D01*
X137333507Y-92521712D01*
X137356830Y-92532743D01*
X137378959Y-92546007D01*
X137399682Y-92561376D01*
X137418798Y-92578702D01*
X137436124Y-92597818D01*
X137451493Y-92618541D01*
X137464757Y-92640670D01*
X137475788Y-92663993D01*
X137484480Y-92688284D01*
X137490748Y-92713311D01*
X137494534Y-92738831D01*
X137495800Y-92764600D01*
X137495800Y-93290400D01*
X137494534Y-93316169D01*
X137490748Y-93341689D01*
X137484480Y-93366716D01*
X137475788Y-93391007D01*
X137464757Y-93414330D01*
X137451493Y-93436459D01*
X137436124Y-93457182D01*
X137418798Y-93476298D01*
X137399682Y-93493624D01*
X137378959Y-93508993D01*
X137356830Y-93522257D01*
X137333507Y-93533288D01*
X137309216Y-93541980D01*
X137284189Y-93548248D01*
X137258669Y-93552034D01*
X137232900Y-93553300D01*
X136607100Y-93553300D01*
X136581331Y-93552034D01*
X136555811Y-93548248D01*
X136530784Y-93541980D01*
X136506493Y-93533288D01*
X136483170Y-93522257D01*
X136461041Y-93508993D01*
X136440318Y-93493624D01*
X136421202Y-93476298D01*
X136403876Y-93457182D01*
X136388507Y-93436459D01*
X136375243Y-93414330D01*
X136364212Y-93391007D01*
X136355520Y-93366716D01*
X136349252Y-93341689D01*
X136345466Y-93316169D01*
X136344200Y-93290400D01*
X136344200Y-92764600D01*
X136345466Y-92738831D01*
X136349252Y-92713311D01*
X136355520Y-92688284D01*
X136364212Y-92663993D01*
X136375243Y-92640670D01*
X136388507Y-92618541D01*
X136403876Y-92597818D01*
X136421202Y-92578702D01*
X136440318Y-92561376D01*
X136461041Y-92546007D01*
X136483170Y-92532743D01*
X136506493Y-92521712D01*
X136530784Y-92513020D01*
X136555811Y-92506752D01*
X136581331Y-92502966D01*
X136607100Y-92501700D01*
X137232900Y-92501700D01*
X137258669Y-92502966D01*
X137258669Y-92502966D01*
G37*
D13*
X136920000Y-93027500D03*
D12*
G36*
X181263669Y-98090466D02*
G01*
X181289189Y-98094252D01*
X181314216Y-98100520D01*
X181338507Y-98109212D01*
X181361830Y-98120243D01*
X181383959Y-98133507D01*
X181404682Y-98148876D01*
X181423798Y-98166202D01*
X181441124Y-98185318D01*
X181456493Y-98206041D01*
X181469757Y-98228170D01*
X181480788Y-98251493D01*
X181489480Y-98275784D01*
X181495748Y-98300811D01*
X181499534Y-98326331D01*
X181500800Y-98352100D01*
X181500800Y-98977900D01*
X181499534Y-99003669D01*
X181495748Y-99029189D01*
X181489480Y-99054216D01*
X181480788Y-99078507D01*
X181469757Y-99101830D01*
X181456493Y-99123959D01*
X181441124Y-99144682D01*
X181423798Y-99163798D01*
X181404682Y-99181124D01*
X181383959Y-99196493D01*
X181361830Y-99209757D01*
X181338507Y-99220788D01*
X181314216Y-99229480D01*
X181289189Y-99235748D01*
X181263669Y-99239534D01*
X181237900Y-99240800D01*
X180712100Y-99240800D01*
X180686331Y-99239534D01*
X180660811Y-99235748D01*
X180635784Y-99229480D01*
X180611493Y-99220788D01*
X180588170Y-99209757D01*
X180566041Y-99196493D01*
X180545318Y-99181124D01*
X180526202Y-99163798D01*
X180508876Y-99144682D01*
X180493507Y-99123959D01*
X180480243Y-99101830D01*
X180469212Y-99078507D01*
X180460520Y-99054216D01*
X180454252Y-99029189D01*
X180450466Y-99003669D01*
X180449200Y-98977900D01*
X180449200Y-98352100D01*
X180450466Y-98326331D01*
X180454252Y-98300811D01*
X180460520Y-98275784D01*
X180469212Y-98251493D01*
X180480243Y-98228170D01*
X180493507Y-98206041D01*
X180508876Y-98185318D01*
X180526202Y-98166202D01*
X180545318Y-98148876D01*
X180566041Y-98133507D01*
X180588170Y-98120243D01*
X180611493Y-98109212D01*
X180635784Y-98100520D01*
X180660811Y-98094252D01*
X180686331Y-98090466D01*
X180712100Y-98089200D01*
X181237900Y-98089200D01*
X181263669Y-98090466D01*
X181263669Y-98090466D01*
G37*
D13*
X180975000Y-98665000D03*
D12*
G36*
X181263669Y-96340466D02*
G01*
X181289189Y-96344252D01*
X181314216Y-96350520D01*
X181338507Y-96359212D01*
X181361830Y-96370243D01*
X181383959Y-96383507D01*
X181404682Y-96398876D01*
X181423798Y-96416202D01*
X181441124Y-96435318D01*
X181456493Y-96456041D01*
X181469757Y-96478170D01*
X181480788Y-96501493D01*
X181489480Y-96525784D01*
X181495748Y-96550811D01*
X181499534Y-96576331D01*
X181500800Y-96602100D01*
X181500800Y-97227900D01*
X181499534Y-97253669D01*
X181495748Y-97279189D01*
X181489480Y-97304216D01*
X181480788Y-97328507D01*
X181469757Y-97351830D01*
X181456493Y-97373959D01*
X181441124Y-97394682D01*
X181423798Y-97413798D01*
X181404682Y-97431124D01*
X181383959Y-97446493D01*
X181361830Y-97459757D01*
X181338507Y-97470788D01*
X181314216Y-97479480D01*
X181289189Y-97485748D01*
X181263669Y-97489534D01*
X181237900Y-97490800D01*
X180712100Y-97490800D01*
X180686331Y-97489534D01*
X180660811Y-97485748D01*
X180635784Y-97479480D01*
X180611493Y-97470788D01*
X180588170Y-97459757D01*
X180566041Y-97446493D01*
X180545318Y-97431124D01*
X180526202Y-97413798D01*
X180508876Y-97394682D01*
X180493507Y-97373959D01*
X180480243Y-97351830D01*
X180469212Y-97328507D01*
X180460520Y-97304216D01*
X180454252Y-97279189D01*
X180450466Y-97253669D01*
X180449200Y-97227900D01*
X180449200Y-96602100D01*
X180450466Y-96576331D01*
X180454252Y-96550811D01*
X180460520Y-96525784D01*
X180469212Y-96501493D01*
X180480243Y-96478170D01*
X180493507Y-96456041D01*
X180508876Y-96435318D01*
X180526202Y-96416202D01*
X180545318Y-96398876D01*
X180566041Y-96383507D01*
X180588170Y-96370243D01*
X180611493Y-96359212D01*
X180635784Y-96350520D01*
X180660811Y-96344252D01*
X180686331Y-96340466D01*
X180712100Y-96339200D01*
X181237900Y-96339200D01*
X181263669Y-96340466D01*
X181263669Y-96340466D01*
G37*
D13*
X180975000Y-96915000D03*
D12*
G36*
X181263669Y-94280466D02*
G01*
X181289189Y-94284252D01*
X181314216Y-94290520D01*
X181338507Y-94299212D01*
X181361830Y-94310243D01*
X181383959Y-94323507D01*
X181404682Y-94338876D01*
X181423798Y-94356202D01*
X181441124Y-94375318D01*
X181456493Y-94396041D01*
X181469757Y-94418170D01*
X181480788Y-94441493D01*
X181489480Y-94465784D01*
X181495748Y-94490811D01*
X181499534Y-94516331D01*
X181500800Y-94542100D01*
X181500800Y-95167900D01*
X181499534Y-95193669D01*
X181495748Y-95219189D01*
X181489480Y-95244216D01*
X181480788Y-95268507D01*
X181469757Y-95291830D01*
X181456493Y-95313959D01*
X181441124Y-95334682D01*
X181423798Y-95353798D01*
X181404682Y-95371124D01*
X181383959Y-95386493D01*
X181361830Y-95399757D01*
X181338507Y-95410788D01*
X181314216Y-95419480D01*
X181289189Y-95425748D01*
X181263669Y-95429534D01*
X181237900Y-95430800D01*
X180712100Y-95430800D01*
X180686331Y-95429534D01*
X180660811Y-95425748D01*
X180635784Y-95419480D01*
X180611493Y-95410788D01*
X180588170Y-95399757D01*
X180566041Y-95386493D01*
X180545318Y-95371124D01*
X180526202Y-95353798D01*
X180508876Y-95334682D01*
X180493507Y-95313959D01*
X180480243Y-95291830D01*
X180469212Y-95268507D01*
X180460520Y-95244216D01*
X180454252Y-95219189D01*
X180450466Y-95193669D01*
X180449200Y-95167900D01*
X180449200Y-94542100D01*
X180450466Y-94516331D01*
X180454252Y-94490811D01*
X180460520Y-94465784D01*
X180469212Y-94441493D01*
X180480243Y-94418170D01*
X180493507Y-94396041D01*
X180508876Y-94375318D01*
X180526202Y-94356202D01*
X180545318Y-94338876D01*
X180566041Y-94323507D01*
X180588170Y-94310243D01*
X180611493Y-94299212D01*
X180635784Y-94290520D01*
X180660811Y-94284252D01*
X180686331Y-94280466D01*
X180712100Y-94279200D01*
X181237900Y-94279200D01*
X181263669Y-94280466D01*
X181263669Y-94280466D01*
G37*
D13*
X180975000Y-94855000D03*
D12*
G36*
X181263669Y-92530466D02*
G01*
X181289189Y-92534252D01*
X181314216Y-92540520D01*
X181338507Y-92549212D01*
X181361830Y-92560243D01*
X181383959Y-92573507D01*
X181404682Y-92588876D01*
X181423798Y-92606202D01*
X181441124Y-92625318D01*
X181456493Y-92646041D01*
X181469757Y-92668170D01*
X181480788Y-92691493D01*
X181489480Y-92715784D01*
X181495748Y-92740811D01*
X181499534Y-92766331D01*
X181500800Y-92792100D01*
X181500800Y-93417900D01*
X181499534Y-93443669D01*
X181495748Y-93469189D01*
X181489480Y-93494216D01*
X181480788Y-93518507D01*
X181469757Y-93541830D01*
X181456493Y-93563959D01*
X181441124Y-93584682D01*
X181423798Y-93603798D01*
X181404682Y-93621124D01*
X181383959Y-93636493D01*
X181361830Y-93649757D01*
X181338507Y-93660788D01*
X181314216Y-93669480D01*
X181289189Y-93675748D01*
X181263669Y-93679534D01*
X181237900Y-93680800D01*
X180712100Y-93680800D01*
X180686331Y-93679534D01*
X180660811Y-93675748D01*
X180635784Y-93669480D01*
X180611493Y-93660788D01*
X180588170Y-93649757D01*
X180566041Y-93636493D01*
X180545318Y-93621124D01*
X180526202Y-93603798D01*
X180508876Y-93584682D01*
X180493507Y-93563959D01*
X180480243Y-93541830D01*
X180469212Y-93518507D01*
X180460520Y-93494216D01*
X180454252Y-93469189D01*
X180450466Y-93443669D01*
X180449200Y-93417900D01*
X180449200Y-92792100D01*
X180450466Y-92766331D01*
X180454252Y-92740811D01*
X180460520Y-92715784D01*
X180469212Y-92691493D01*
X180480243Y-92668170D01*
X180493507Y-92646041D01*
X180508876Y-92625318D01*
X180526202Y-92606202D01*
X180545318Y-92588876D01*
X180566041Y-92573507D01*
X180588170Y-92560243D01*
X180611493Y-92549212D01*
X180635784Y-92540520D01*
X180660811Y-92534252D01*
X180686331Y-92530466D01*
X180712100Y-92529200D01*
X181237900Y-92529200D01*
X181263669Y-92530466D01*
X181263669Y-92530466D01*
G37*
D13*
X180975000Y-93105000D03*
D12*
G36*
X149513669Y-98090466D02*
G01*
X149539189Y-98094252D01*
X149564216Y-98100520D01*
X149588507Y-98109212D01*
X149611830Y-98120243D01*
X149633959Y-98133507D01*
X149654682Y-98148876D01*
X149673798Y-98166202D01*
X149691124Y-98185318D01*
X149706493Y-98206041D01*
X149719757Y-98228170D01*
X149730788Y-98251493D01*
X149739480Y-98275784D01*
X149745748Y-98300811D01*
X149749534Y-98326331D01*
X149750800Y-98352100D01*
X149750800Y-98977900D01*
X149749534Y-99003669D01*
X149745748Y-99029189D01*
X149739480Y-99054216D01*
X149730788Y-99078507D01*
X149719757Y-99101830D01*
X149706493Y-99123959D01*
X149691124Y-99144682D01*
X149673798Y-99163798D01*
X149654682Y-99181124D01*
X149633959Y-99196493D01*
X149611830Y-99209757D01*
X149588507Y-99220788D01*
X149564216Y-99229480D01*
X149539189Y-99235748D01*
X149513669Y-99239534D01*
X149487900Y-99240800D01*
X148962100Y-99240800D01*
X148936331Y-99239534D01*
X148910811Y-99235748D01*
X148885784Y-99229480D01*
X148861493Y-99220788D01*
X148838170Y-99209757D01*
X148816041Y-99196493D01*
X148795318Y-99181124D01*
X148776202Y-99163798D01*
X148758876Y-99144682D01*
X148743507Y-99123959D01*
X148730243Y-99101830D01*
X148719212Y-99078507D01*
X148710520Y-99054216D01*
X148704252Y-99029189D01*
X148700466Y-99003669D01*
X148699200Y-98977900D01*
X148699200Y-98352100D01*
X148700466Y-98326331D01*
X148704252Y-98300811D01*
X148710520Y-98275784D01*
X148719212Y-98251493D01*
X148730243Y-98228170D01*
X148743507Y-98206041D01*
X148758876Y-98185318D01*
X148776202Y-98166202D01*
X148795318Y-98148876D01*
X148816041Y-98133507D01*
X148838170Y-98120243D01*
X148861493Y-98109212D01*
X148885784Y-98100520D01*
X148910811Y-98094252D01*
X148936331Y-98090466D01*
X148962100Y-98089200D01*
X149487900Y-98089200D01*
X149513669Y-98090466D01*
X149513669Y-98090466D01*
G37*
D13*
X149225000Y-98665000D03*
D12*
G36*
X149513669Y-96340466D02*
G01*
X149539189Y-96344252D01*
X149564216Y-96350520D01*
X149588507Y-96359212D01*
X149611830Y-96370243D01*
X149633959Y-96383507D01*
X149654682Y-96398876D01*
X149673798Y-96416202D01*
X149691124Y-96435318D01*
X149706493Y-96456041D01*
X149719757Y-96478170D01*
X149730788Y-96501493D01*
X149739480Y-96525784D01*
X149745748Y-96550811D01*
X149749534Y-96576331D01*
X149750800Y-96602100D01*
X149750800Y-97227900D01*
X149749534Y-97253669D01*
X149745748Y-97279189D01*
X149739480Y-97304216D01*
X149730788Y-97328507D01*
X149719757Y-97351830D01*
X149706493Y-97373959D01*
X149691124Y-97394682D01*
X149673798Y-97413798D01*
X149654682Y-97431124D01*
X149633959Y-97446493D01*
X149611830Y-97459757D01*
X149588507Y-97470788D01*
X149564216Y-97479480D01*
X149539189Y-97485748D01*
X149513669Y-97489534D01*
X149487900Y-97490800D01*
X148962100Y-97490800D01*
X148936331Y-97489534D01*
X148910811Y-97485748D01*
X148885784Y-97479480D01*
X148861493Y-97470788D01*
X148838170Y-97459757D01*
X148816041Y-97446493D01*
X148795318Y-97431124D01*
X148776202Y-97413798D01*
X148758876Y-97394682D01*
X148743507Y-97373959D01*
X148730243Y-97351830D01*
X148719212Y-97328507D01*
X148710520Y-97304216D01*
X148704252Y-97279189D01*
X148700466Y-97253669D01*
X148699200Y-97227900D01*
X148699200Y-96602100D01*
X148700466Y-96576331D01*
X148704252Y-96550811D01*
X148710520Y-96525784D01*
X148719212Y-96501493D01*
X148730243Y-96478170D01*
X148743507Y-96456041D01*
X148758876Y-96435318D01*
X148776202Y-96416202D01*
X148795318Y-96398876D01*
X148816041Y-96383507D01*
X148838170Y-96370243D01*
X148861493Y-96359212D01*
X148885784Y-96350520D01*
X148910811Y-96344252D01*
X148936331Y-96340466D01*
X148962100Y-96339200D01*
X149487900Y-96339200D01*
X149513669Y-96340466D01*
X149513669Y-96340466D01*
G37*
D13*
X149225000Y-96915000D03*
D12*
G36*
X149513669Y-94280466D02*
G01*
X149539189Y-94284252D01*
X149564216Y-94290520D01*
X149588507Y-94299212D01*
X149611830Y-94310243D01*
X149633959Y-94323507D01*
X149654682Y-94338876D01*
X149673798Y-94356202D01*
X149691124Y-94375318D01*
X149706493Y-94396041D01*
X149719757Y-94418170D01*
X149730788Y-94441493D01*
X149739480Y-94465784D01*
X149745748Y-94490811D01*
X149749534Y-94516331D01*
X149750800Y-94542100D01*
X149750800Y-95167900D01*
X149749534Y-95193669D01*
X149745748Y-95219189D01*
X149739480Y-95244216D01*
X149730788Y-95268507D01*
X149719757Y-95291830D01*
X149706493Y-95313959D01*
X149691124Y-95334682D01*
X149673798Y-95353798D01*
X149654682Y-95371124D01*
X149633959Y-95386493D01*
X149611830Y-95399757D01*
X149588507Y-95410788D01*
X149564216Y-95419480D01*
X149539189Y-95425748D01*
X149513669Y-95429534D01*
X149487900Y-95430800D01*
X148962100Y-95430800D01*
X148936331Y-95429534D01*
X148910811Y-95425748D01*
X148885784Y-95419480D01*
X148861493Y-95410788D01*
X148838170Y-95399757D01*
X148816041Y-95386493D01*
X148795318Y-95371124D01*
X148776202Y-95353798D01*
X148758876Y-95334682D01*
X148743507Y-95313959D01*
X148730243Y-95291830D01*
X148719212Y-95268507D01*
X148710520Y-95244216D01*
X148704252Y-95219189D01*
X148700466Y-95193669D01*
X148699200Y-95167900D01*
X148699200Y-94542100D01*
X148700466Y-94516331D01*
X148704252Y-94490811D01*
X148710520Y-94465784D01*
X148719212Y-94441493D01*
X148730243Y-94418170D01*
X148743507Y-94396041D01*
X148758876Y-94375318D01*
X148776202Y-94356202D01*
X148795318Y-94338876D01*
X148816041Y-94323507D01*
X148838170Y-94310243D01*
X148861493Y-94299212D01*
X148885784Y-94290520D01*
X148910811Y-94284252D01*
X148936331Y-94280466D01*
X148962100Y-94279200D01*
X149487900Y-94279200D01*
X149513669Y-94280466D01*
X149513669Y-94280466D01*
G37*
D13*
X149225000Y-94855000D03*
D12*
G36*
X149513669Y-92530466D02*
G01*
X149539189Y-92534252D01*
X149564216Y-92540520D01*
X149588507Y-92549212D01*
X149611830Y-92560243D01*
X149633959Y-92573507D01*
X149654682Y-92588876D01*
X149673798Y-92606202D01*
X149691124Y-92625318D01*
X149706493Y-92646041D01*
X149719757Y-92668170D01*
X149730788Y-92691493D01*
X149739480Y-92715784D01*
X149745748Y-92740811D01*
X149749534Y-92766331D01*
X149750800Y-92792100D01*
X149750800Y-93417900D01*
X149749534Y-93443669D01*
X149745748Y-93469189D01*
X149739480Y-93494216D01*
X149730788Y-93518507D01*
X149719757Y-93541830D01*
X149706493Y-93563959D01*
X149691124Y-93584682D01*
X149673798Y-93603798D01*
X149654682Y-93621124D01*
X149633959Y-93636493D01*
X149611830Y-93649757D01*
X149588507Y-93660788D01*
X149564216Y-93669480D01*
X149539189Y-93675748D01*
X149513669Y-93679534D01*
X149487900Y-93680800D01*
X148962100Y-93680800D01*
X148936331Y-93679534D01*
X148910811Y-93675748D01*
X148885784Y-93669480D01*
X148861493Y-93660788D01*
X148838170Y-93649757D01*
X148816041Y-93636493D01*
X148795318Y-93621124D01*
X148776202Y-93603798D01*
X148758876Y-93584682D01*
X148743507Y-93563959D01*
X148730243Y-93541830D01*
X148719212Y-93518507D01*
X148710520Y-93494216D01*
X148704252Y-93469189D01*
X148700466Y-93443669D01*
X148699200Y-93417900D01*
X148699200Y-92792100D01*
X148700466Y-92766331D01*
X148704252Y-92740811D01*
X148710520Y-92715784D01*
X148719212Y-92691493D01*
X148730243Y-92668170D01*
X148743507Y-92646041D01*
X148758876Y-92625318D01*
X148776202Y-92606202D01*
X148795318Y-92588876D01*
X148816041Y-92573507D01*
X148838170Y-92560243D01*
X148861493Y-92549212D01*
X148885784Y-92540520D01*
X148910811Y-92534252D01*
X148936331Y-92530466D01*
X148962100Y-92529200D01*
X149487900Y-92529200D01*
X149513669Y-92530466D01*
X149513669Y-92530466D01*
G37*
D13*
X149225000Y-93105000D03*
D12*
G36*
X157985383Y-86125510D02*
G01*
X158011795Y-86129428D01*
X158037696Y-86135916D01*
X158062837Y-86144911D01*
X158086974Y-86156328D01*
X158109877Y-86170055D01*
X158131324Y-86185961D01*
X158151108Y-86203892D01*
X158169039Y-86223676D01*
X158184945Y-86245123D01*
X158198672Y-86268026D01*
X158210089Y-86292163D01*
X158219084Y-86317304D01*
X158225572Y-86343205D01*
X158229490Y-86369617D01*
X158230800Y-86396286D01*
X158230800Y-87103714D01*
X158229490Y-87130383D01*
X158225572Y-87156795D01*
X158219084Y-87182696D01*
X158210089Y-87207837D01*
X158198672Y-87231974D01*
X158184945Y-87254877D01*
X158169039Y-87276324D01*
X158151108Y-87296108D01*
X158131324Y-87314039D01*
X158109877Y-87329945D01*
X158086974Y-87343672D01*
X158062837Y-87355089D01*
X158037696Y-87364084D01*
X158011795Y-87370572D01*
X157985383Y-87374490D01*
X157958714Y-87375800D01*
X157001286Y-87375800D01*
X156974617Y-87374490D01*
X156948205Y-87370572D01*
X156922304Y-87364084D01*
X156897163Y-87355089D01*
X156873026Y-87343672D01*
X156850123Y-87329945D01*
X156828676Y-87314039D01*
X156808892Y-87296108D01*
X156790961Y-87276324D01*
X156775055Y-87254877D01*
X156761328Y-87231974D01*
X156749911Y-87207837D01*
X156740916Y-87182696D01*
X156734428Y-87156795D01*
X156730510Y-87130383D01*
X156729200Y-87103714D01*
X156729200Y-86396286D01*
X156730510Y-86369617D01*
X156734428Y-86343205D01*
X156740916Y-86317304D01*
X156749911Y-86292163D01*
X156761328Y-86268026D01*
X156775055Y-86245123D01*
X156790961Y-86223676D01*
X156808892Y-86203892D01*
X156828676Y-86185961D01*
X156850123Y-86170055D01*
X156873026Y-86156328D01*
X156897163Y-86144911D01*
X156922304Y-86135916D01*
X156948205Y-86129428D01*
X156974617Y-86125510D01*
X157001286Y-86124200D01*
X157958714Y-86124200D01*
X157985383Y-86125510D01*
X157985383Y-86125510D01*
G37*
D26*
X157480000Y-86750000D03*
D12*
G36*
X157985383Y-84075510D02*
G01*
X158011795Y-84079428D01*
X158037696Y-84085916D01*
X158062837Y-84094911D01*
X158086974Y-84106328D01*
X158109877Y-84120055D01*
X158131324Y-84135961D01*
X158151108Y-84153892D01*
X158169039Y-84173676D01*
X158184945Y-84195123D01*
X158198672Y-84218026D01*
X158210089Y-84242163D01*
X158219084Y-84267304D01*
X158225572Y-84293205D01*
X158229490Y-84319617D01*
X158230800Y-84346286D01*
X158230800Y-85053714D01*
X158229490Y-85080383D01*
X158225572Y-85106795D01*
X158219084Y-85132696D01*
X158210089Y-85157837D01*
X158198672Y-85181974D01*
X158184945Y-85204877D01*
X158169039Y-85226324D01*
X158151108Y-85246108D01*
X158131324Y-85264039D01*
X158109877Y-85279945D01*
X158086974Y-85293672D01*
X158062837Y-85305089D01*
X158037696Y-85314084D01*
X158011795Y-85320572D01*
X157985383Y-85324490D01*
X157958714Y-85325800D01*
X157001286Y-85325800D01*
X156974617Y-85324490D01*
X156948205Y-85320572D01*
X156922304Y-85314084D01*
X156897163Y-85305089D01*
X156873026Y-85293672D01*
X156850123Y-85279945D01*
X156828676Y-85264039D01*
X156808892Y-85246108D01*
X156790961Y-85226324D01*
X156775055Y-85204877D01*
X156761328Y-85181974D01*
X156749911Y-85157837D01*
X156740916Y-85132696D01*
X156734428Y-85106795D01*
X156730510Y-85080383D01*
X156729200Y-85053714D01*
X156729200Y-84346286D01*
X156730510Y-84319617D01*
X156734428Y-84293205D01*
X156740916Y-84267304D01*
X156749911Y-84242163D01*
X156761328Y-84218026D01*
X156775055Y-84195123D01*
X156790961Y-84173676D01*
X156808892Y-84153892D01*
X156828676Y-84135961D01*
X156850123Y-84120055D01*
X156873026Y-84106328D01*
X156897163Y-84094911D01*
X156922304Y-84085916D01*
X156948205Y-84079428D01*
X156974617Y-84075510D01*
X157001286Y-84074200D01*
X157958714Y-84074200D01*
X157985383Y-84075510D01*
X157985383Y-84075510D01*
G37*
D26*
X157480000Y-84700000D03*
D12*
G36*
X155624226Y-84545490D02*
G01*
X155650225Y-84549346D01*
X155675720Y-84555732D01*
X155700467Y-84564587D01*
X155724227Y-84575824D01*
X155746771Y-84589337D01*
X155767881Y-84604993D01*
X155787356Y-84622644D01*
X155805007Y-84642119D01*
X155820663Y-84663229D01*
X155834176Y-84685773D01*
X155845413Y-84709533D01*
X155854268Y-84734280D01*
X155860654Y-84759775D01*
X155864510Y-84785774D01*
X155865800Y-84812025D01*
X155865800Y-85802975D01*
X155864510Y-85829226D01*
X155860654Y-85855225D01*
X155854268Y-85880720D01*
X155845413Y-85905467D01*
X155834176Y-85929227D01*
X155820663Y-85951771D01*
X155805007Y-85972881D01*
X155787356Y-85992356D01*
X155767881Y-86010007D01*
X155746771Y-86025663D01*
X155724227Y-86039176D01*
X155700467Y-86050413D01*
X155675720Y-86059268D01*
X155650225Y-86065654D01*
X155624226Y-86069510D01*
X155597975Y-86070800D01*
X154282025Y-86070800D01*
X154255774Y-86069510D01*
X154229775Y-86065654D01*
X154204280Y-86059268D01*
X154179533Y-86050413D01*
X154155773Y-86039176D01*
X154133229Y-86025663D01*
X154112119Y-86010007D01*
X154092644Y-85992356D01*
X154074993Y-85972881D01*
X154059337Y-85951771D01*
X154045824Y-85929227D01*
X154034587Y-85905467D01*
X154025732Y-85880720D01*
X154019346Y-85855225D01*
X154015490Y-85829226D01*
X154014200Y-85802975D01*
X154014200Y-84812025D01*
X154015490Y-84785774D01*
X154019346Y-84759775D01*
X154025732Y-84734280D01*
X154034587Y-84709533D01*
X154045824Y-84685773D01*
X154059337Y-84663229D01*
X154074993Y-84642119D01*
X154092644Y-84622644D01*
X154112119Y-84604993D01*
X154133229Y-84589337D01*
X154155773Y-84575824D01*
X154179533Y-84564587D01*
X154204280Y-84555732D01*
X154229775Y-84549346D01*
X154255774Y-84545490D01*
X154282025Y-84544200D01*
X155597975Y-84544200D01*
X155624226Y-84545490D01*
X155624226Y-84545490D01*
G37*
D27*
X154940000Y-85307500D03*
D12*
G36*
X155624226Y-81570490D02*
G01*
X155650225Y-81574346D01*
X155675720Y-81580732D01*
X155700467Y-81589587D01*
X155724227Y-81600824D01*
X155746771Y-81614337D01*
X155767881Y-81629993D01*
X155787356Y-81647644D01*
X155805007Y-81667119D01*
X155820663Y-81688229D01*
X155834176Y-81710773D01*
X155845413Y-81734533D01*
X155854268Y-81759280D01*
X155860654Y-81784775D01*
X155864510Y-81810774D01*
X155865800Y-81837025D01*
X155865800Y-82827975D01*
X155864510Y-82854226D01*
X155860654Y-82880225D01*
X155854268Y-82905720D01*
X155845413Y-82930467D01*
X155834176Y-82954227D01*
X155820663Y-82976771D01*
X155805007Y-82997881D01*
X155787356Y-83017356D01*
X155767881Y-83035007D01*
X155746771Y-83050663D01*
X155724227Y-83064176D01*
X155700467Y-83075413D01*
X155675720Y-83084268D01*
X155650225Y-83090654D01*
X155624226Y-83094510D01*
X155597975Y-83095800D01*
X154282025Y-83095800D01*
X154255774Y-83094510D01*
X154229775Y-83090654D01*
X154204280Y-83084268D01*
X154179533Y-83075413D01*
X154155773Y-83064176D01*
X154133229Y-83050663D01*
X154112119Y-83035007D01*
X154092644Y-83017356D01*
X154074993Y-82997881D01*
X154059337Y-82976771D01*
X154045824Y-82954227D01*
X154034587Y-82930467D01*
X154025732Y-82905720D01*
X154019346Y-82880225D01*
X154015490Y-82854226D01*
X154014200Y-82827975D01*
X154014200Y-81837025D01*
X154015490Y-81810774D01*
X154019346Y-81784775D01*
X154025732Y-81759280D01*
X154034587Y-81734533D01*
X154045824Y-81710773D01*
X154059337Y-81688229D01*
X154074993Y-81667119D01*
X154092644Y-81647644D01*
X154112119Y-81629993D01*
X154133229Y-81614337D01*
X154155773Y-81600824D01*
X154179533Y-81589587D01*
X154204280Y-81580732D01*
X154229775Y-81574346D01*
X154255774Y-81570490D01*
X154282025Y-81569200D01*
X155597975Y-81569200D01*
X155624226Y-81570490D01*
X155624226Y-81570490D01*
G37*
D27*
X154940000Y-82332500D03*
D12*
G36*
X157985383Y-80265510D02*
G01*
X158011795Y-80269428D01*
X158037696Y-80275916D01*
X158062837Y-80284911D01*
X158086974Y-80296328D01*
X158109877Y-80310055D01*
X158131324Y-80325961D01*
X158151108Y-80343892D01*
X158169039Y-80363676D01*
X158184945Y-80385123D01*
X158198672Y-80408026D01*
X158210089Y-80432163D01*
X158219084Y-80457304D01*
X158225572Y-80483205D01*
X158229490Y-80509617D01*
X158230800Y-80536286D01*
X158230800Y-81243714D01*
X158229490Y-81270383D01*
X158225572Y-81296795D01*
X158219084Y-81322696D01*
X158210089Y-81347837D01*
X158198672Y-81371974D01*
X158184945Y-81394877D01*
X158169039Y-81416324D01*
X158151108Y-81436108D01*
X158131324Y-81454039D01*
X158109877Y-81469945D01*
X158086974Y-81483672D01*
X158062837Y-81495089D01*
X158037696Y-81504084D01*
X158011795Y-81510572D01*
X157985383Y-81514490D01*
X157958714Y-81515800D01*
X157001286Y-81515800D01*
X156974617Y-81514490D01*
X156948205Y-81510572D01*
X156922304Y-81504084D01*
X156897163Y-81495089D01*
X156873026Y-81483672D01*
X156850123Y-81469945D01*
X156828676Y-81454039D01*
X156808892Y-81436108D01*
X156790961Y-81416324D01*
X156775055Y-81394877D01*
X156761328Y-81371974D01*
X156749911Y-81347837D01*
X156740916Y-81322696D01*
X156734428Y-81296795D01*
X156730510Y-81270383D01*
X156729200Y-81243714D01*
X156729200Y-80536286D01*
X156730510Y-80509617D01*
X156734428Y-80483205D01*
X156740916Y-80457304D01*
X156749911Y-80432163D01*
X156761328Y-80408026D01*
X156775055Y-80385123D01*
X156790961Y-80363676D01*
X156808892Y-80343892D01*
X156828676Y-80325961D01*
X156850123Y-80310055D01*
X156873026Y-80296328D01*
X156897163Y-80284911D01*
X156922304Y-80275916D01*
X156948205Y-80269428D01*
X156974617Y-80265510D01*
X157001286Y-80264200D01*
X157958714Y-80264200D01*
X157985383Y-80265510D01*
X157985383Y-80265510D01*
G37*
D26*
X157480000Y-80890000D03*
D12*
G36*
X157985383Y-82315510D02*
G01*
X158011795Y-82319428D01*
X158037696Y-82325916D01*
X158062837Y-82334911D01*
X158086974Y-82346328D01*
X158109877Y-82360055D01*
X158131324Y-82375961D01*
X158151108Y-82393892D01*
X158169039Y-82413676D01*
X158184945Y-82435123D01*
X158198672Y-82458026D01*
X158210089Y-82482163D01*
X158219084Y-82507304D01*
X158225572Y-82533205D01*
X158229490Y-82559617D01*
X158230800Y-82586286D01*
X158230800Y-83293714D01*
X158229490Y-83320383D01*
X158225572Y-83346795D01*
X158219084Y-83372696D01*
X158210089Y-83397837D01*
X158198672Y-83421974D01*
X158184945Y-83444877D01*
X158169039Y-83466324D01*
X158151108Y-83486108D01*
X158131324Y-83504039D01*
X158109877Y-83519945D01*
X158086974Y-83533672D01*
X158062837Y-83545089D01*
X158037696Y-83554084D01*
X158011795Y-83560572D01*
X157985383Y-83564490D01*
X157958714Y-83565800D01*
X157001286Y-83565800D01*
X156974617Y-83564490D01*
X156948205Y-83560572D01*
X156922304Y-83554084D01*
X156897163Y-83545089D01*
X156873026Y-83533672D01*
X156850123Y-83519945D01*
X156828676Y-83504039D01*
X156808892Y-83486108D01*
X156790961Y-83466324D01*
X156775055Y-83444877D01*
X156761328Y-83421974D01*
X156749911Y-83397837D01*
X156740916Y-83372696D01*
X156734428Y-83346795D01*
X156730510Y-83320383D01*
X156729200Y-83293714D01*
X156729200Y-82586286D01*
X156730510Y-82559617D01*
X156734428Y-82533205D01*
X156740916Y-82507304D01*
X156749911Y-82482163D01*
X156761328Y-82458026D01*
X156775055Y-82435123D01*
X156790961Y-82413676D01*
X156808892Y-82393892D01*
X156828676Y-82375961D01*
X156850123Y-82360055D01*
X156873026Y-82346328D01*
X156897163Y-82334911D01*
X156922304Y-82325916D01*
X156948205Y-82319428D01*
X156974617Y-82315510D01*
X157001286Y-82314200D01*
X157958714Y-82314200D01*
X157985383Y-82315510D01*
X157985383Y-82315510D01*
G37*
D26*
X157480000Y-82940000D03*
D12*
G36*
X147825383Y-92330510D02*
G01*
X147851795Y-92334428D01*
X147877696Y-92340916D01*
X147902837Y-92349911D01*
X147926974Y-92361328D01*
X147949877Y-92375055D01*
X147971324Y-92390961D01*
X147991108Y-92408892D01*
X148009039Y-92428676D01*
X148024945Y-92450123D01*
X148038672Y-92473026D01*
X148050089Y-92497163D01*
X148059084Y-92522304D01*
X148065572Y-92548205D01*
X148069490Y-92574617D01*
X148070800Y-92601286D01*
X148070800Y-93308714D01*
X148069490Y-93335383D01*
X148065572Y-93361795D01*
X148059084Y-93387696D01*
X148050089Y-93412837D01*
X148038672Y-93436974D01*
X148024945Y-93459877D01*
X148009039Y-93481324D01*
X147991108Y-93501108D01*
X147971324Y-93519039D01*
X147949877Y-93534945D01*
X147926974Y-93548672D01*
X147902837Y-93560089D01*
X147877696Y-93569084D01*
X147851795Y-93575572D01*
X147825383Y-93579490D01*
X147798714Y-93580800D01*
X146841286Y-93580800D01*
X146814617Y-93579490D01*
X146788205Y-93575572D01*
X146762304Y-93569084D01*
X146737163Y-93560089D01*
X146713026Y-93548672D01*
X146690123Y-93534945D01*
X146668676Y-93519039D01*
X146648892Y-93501108D01*
X146630961Y-93481324D01*
X146615055Y-93459877D01*
X146601328Y-93436974D01*
X146589911Y-93412837D01*
X146580916Y-93387696D01*
X146574428Y-93361795D01*
X146570510Y-93335383D01*
X146569200Y-93308714D01*
X146569200Y-92601286D01*
X146570510Y-92574617D01*
X146574428Y-92548205D01*
X146580916Y-92522304D01*
X146589911Y-92497163D01*
X146601328Y-92473026D01*
X146615055Y-92450123D01*
X146630961Y-92428676D01*
X146648892Y-92408892D01*
X146668676Y-92390961D01*
X146690123Y-92375055D01*
X146713026Y-92361328D01*
X146737163Y-92349911D01*
X146762304Y-92340916D01*
X146788205Y-92334428D01*
X146814617Y-92330510D01*
X146841286Y-92329200D01*
X147798714Y-92329200D01*
X147825383Y-92330510D01*
X147825383Y-92330510D01*
G37*
D26*
X147320000Y-92955000D03*
D12*
G36*
X147825383Y-94380510D02*
G01*
X147851795Y-94384428D01*
X147877696Y-94390916D01*
X147902837Y-94399911D01*
X147926974Y-94411328D01*
X147949877Y-94425055D01*
X147971324Y-94440961D01*
X147991108Y-94458892D01*
X148009039Y-94478676D01*
X148024945Y-94500123D01*
X148038672Y-94523026D01*
X148050089Y-94547163D01*
X148059084Y-94572304D01*
X148065572Y-94598205D01*
X148069490Y-94624617D01*
X148070800Y-94651286D01*
X148070800Y-95358714D01*
X148069490Y-95385383D01*
X148065572Y-95411795D01*
X148059084Y-95437696D01*
X148050089Y-95462837D01*
X148038672Y-95486974D01*
X148024945Y-95509877D01*
X148009039Y-95531324D01*
X147991108Y-95551108D01*
X147971324Y-95569039D01*
X147949877Y-95584945D01*
X147926974Y-95598672D01*
X147902837Y-95610089D01*
X147877696Y-95619084D01*
X147851795Y-95625572D01*
X147825383Y-95629490D01*
X147798714Y-95630800D01*
X146841286Y-95630800D01*
X146814617Y-95629490D01*
X146788205Y-95625572D01*
X146762304Y-95619084D01*
X146737163Y-95610089D01*
X146713026Y-95598672D01*
X146690123Y-95584945D01*
X146668676Y-95569039D01*
X146648892Y-95551108D01*
X146630961Y-95531324D01*
X146615055Y-95509877D01*
X146601328Y-95486974D01*
X146589911Y-95462837D01*
X146580916Y-95437696D01*
X146574428Y-95411795D01*
X146570510Y-95385383D01*
X146569200Y-95358714D01*
X146569200Y-94651286D01*
X146570510Y-94624617D01*
X146574428Y-94598205D01*
X146580916Y-94572304D01*
X146589911Y-94547163D01*
X146601328Y-94523026D01*
X146615055Y-94500123D01*
X146630961Y-94478676D01*
X146648892Y-94458892D01*
X146668676Y-94440961D01*
X146690123Y-94425055D01*
X146713026Y-94411328D01*
X146737163Y-94399911D01*
X146762304Y-94390916D01*
X146788205Y-94384428D01*
X146814617Y-94380510D01*
X146841286Y-94379200D01*
X147798714Y-94379200D01*
X147825383Y-94380510D01*
X147825383Y-94380510D01*
G37*
D26*
X147320000Y-95005000D03*
D12*
G36*
X147608669Y-98090466D02*
G01*
X147634189Y-98094252D01*
X147659216Y-98100520D01*
X147683507Y-98109212D01*
X147706830Y-98120243D01*
X147728959Y-98133507D01*
X147749682Y-98148876D01*
X147768798Y-98166202D01*
X147786124Y-98185318D01*
X147801493Y-98206041D01*
X147814757Y-98228170D01*
X147825788Y-98251493D01*
X147834480Y-98275784D01*
X147840748Y-98300811D01*
X147844534Y-98326331D01*
X147845800Y-98352100D01*
X147845800Y-98977900D01*
X147844534Y-99003669D01*
X147840748Y-99029189D01*
X147834480Y-99054216D01*
X147825788Y-99078507D01*
X147814757Y-99101830D01*
X147801493Y-99123959D01*
X147786124Y-99144682D01*
X147768798Y-99163798D01*
X147749682Y-99181124D01*
X147728959Y-99196493D01*
X147706830Y-99209757D01*
X147683507Y-99220788D01*
X147659216Y-99229480D01*
X147634189Y-99235748D01*
X147608669Y-99239534D01*
X147582900Y-99240800D01*
X147057100Y-99240800D01*
X147031331Y-99239534D01*
X147005811Y-99235748D01*
X146980784Y-99229480D01*
X146956493Y-99220788D01*
X146933170Y-99209757D01*
X146911041Y-99196493D01*
X146890318Y-99181124D01*
X146871202Y-99163798D01*
X146853876Y-99144682D01*
X146838507Y-99123959D01*
X146825243Y-99101830D01*
X146814212Y-99078507D01*
X146805520Y-99054216D01*
X146799252Y-99029189D01*
X146795466Y-99003669D01*
X146794200Y-98977900D01*
X146794200Y-98352100D01*
X146795466Y-98326331D01*
X146799252Y-98300811D01*
X146805520Y-98275784D01*
X146814212Y-98251493D01*
X146825243Y-98228170D01*
X146838507Y-98206041D01*
X146853876Y-98185318D01*
X146871202Y-98166202D01*
X146890318Y-98148876D01*
X146911041Y-98133507D01*
X146933170Y-98120243D01*
X146956493Y-98109212D01*
X146980784Y-98100520D01*
X147005811Y-98094252D01*
X147031331Y-98090466D01*
X147057100Y-98089200D01*
X147582900Y-98089200D01*
X147608669Y-98090466D01*
X147608669Y-98090466D01*
G37*
D13*
X147320000Y-98665000D03*
D12*
G36*
X147608669Y-96340466D02*
G01*
X147634189Y-96344252D01*
X147659216Y-96350520D01*
X147683507Y-96359212D01*
X147706830Y-96370243D01*
X147728959Y-96383507D01*
X147749682Y-96398876D01*
X147768798Y-96416202D01*
X147786124Y-96435318D01*
X147801493Y-96456041D01*
X147814757Y-96478170D01*
X147825788Y-96501493D01*
X147834480Y-96525784D01*
X147840748Y-96550811D01*
X147844534Y-96576331D01*
X147845800Y-96602100D01*
X147845800Y-97227900D01*
X147844534Y-97253669D01*
X147840748Y-97279189D01*
X147834480Y-97304216D01*
X147825788Y-97328507D01*
X147814757Y-97351830D01*
X147801493Y-97373959D01*
X147786124Y-97394682D01*
X147768798Y-97413798D01*
X147749682Y-97431124D01*
X147728959Y-97446493D01*
X147706830Y-97459757D01*
X147683507Y-97470788D01*
X147659216Y-97479480D01*
X147634189Y-97485748D01*
X147608669Y-97489534D01*
X147582900Y-97490800D01*
X147057100Y-97490800D01*
X147031331Y-97489534D01*
X147005811Y-97485748D01*
X146980784Y-97479480D01*
X146956493Y-97470788D01*
X146933170Y-97459757D01*
X146911041Y-97446493D01*
X146890318Y-97431124D01*
X146871202Y-97413798D01*
X146853876Y-97394682D01*
X146838507Y-97373959D01*
X146825243Y-97351830D01*
X146814212Y-97328507D01*
X146805520Y-97304216D01*
X146799252Y-97279189D01*
X146795466Y-97253669D01*
X146794200Y-97227900D01*
X146794200Y-96602100D01*
X146795466Y-96576331D01*
X146799252Y-96550811D01*
X146805520Y-96525784D01*
X146814212Y-96501493D01*
X146825243Y-96478170D01*
X146838507Y-96456041D01*
X146853876Y-96435318D01*
X146871202Y-96416202D01*
X146890318Y-96398876D01*
X146911041Y-96383507D01*
X146933170Y-96370243D01*
X146956493Y-96359212D01*
X146980784Y-96350520D01*
X147005811Y-96344252D01*
X147031331Y-96340466D01*
X147057100Y-96339200D01*
X147582900Y-96339200D01*
X147608669Y-96340466D01*
X147608669Y-96340466D01*
G37*
D13*
X147320000Y-96915000D03*
D12*
G36*
X150593669Y-79485466D02*
G01*
X150619189Y-79489252D01*
X150644216Y-79495520D01*
X150668507Y-79504212D01*
X150691830Y-79515243D01*
X150713959Y-79528507D01*
X150734682Y-79543876D01*
X150753798Y-79561202D01*
X150771124Y-79580318D01*
X150786493Y-79601041D01*
X150799757Y-79623170D01*
X150810788Y-79646493D01*
X150819480Y-79670784D01*
X150825748Y-79695811D01*
X150829534Y-79721331D01*
X150830800Y-79747100D01*
X150830800Y-80272900D01*
X150829534Y-80298669D01*
X150825748Y-80324189D01*
X150819480Y-80349216D01*
X150810788Y-80373507D01*
X150799757Y-80396830D01*
X150786493Y-80418959D01*
X150771124Y-80439682D01*
X150753798Y-80458798D01*
X150734682Y-80476124D01*
X150713959Y-80491493D01*
X150691830Y-80504757D01*
X150668507Y-80515788D01*
X150644216Y-80524480D01*
X150619189Y-80530748D01*
X150593669Y-80534534D01*
X150567900Y-80535800D01*
X149942100Y-80535800D01*
X149916331Y-80534534D01*
X149890811Y-80530748D01*
X149865784Y-80524480D01*
X149841493Y-80515788D01*
X149818170Y-80504757D01*
X149796041Y-80491493D01*
X149775318Y-80476124D01*
X149756202Y-80458798D01*
X149738876Y-80439682D01*
X149723507Y-80418959D01*
X149710243Y-80396830D01*
X149699212Y-80373507D01*
X149690520Y-80349216D01*
X149684252Y-80324189D01*
X149680466Y-80298669D01*
X149679200Y-80272900D01*
X149679200Y-79747100D01*
X149680466Y-79721331D01*
X149684252Y-79695811D01*
X149690520Y-79670784D01*
X149699212Y-79646493D01*
X149710243Y-79623170D01*
X149723507Y-79601041D01*
X149738876Y-79580318D01*
X149756202Y-79561202D01*
X149775318Y-79543876D01*
X149796041Y-79528507D01*
X149818170Y-79515243D01*
X149841493Y-79504212D01*
X149865784Y-79495520D01*
X149890811Y-79489252D01*
X149916331Y-79485466D01*
X149942100Y-79484200D01*
X150567900Y-79484200D01*
X150593669Y-79485466D01*
X150593669Y-79485466D01*
G37*
D13*
X150255000Y-80010000D03*
D12*
G36*
X152343669Y-79485466D02*
G01*
X152369189Y-79489252D01*
X152394216Y-79495520D01*
X152418507Y-79504212D01*
X152441830Y-79515243D01*
X152463959Y-79528507D01*
X152484682Y-79543876D01*
X152503798Y-79561202D01*
X152521124Y-79580318D01*
X152536493Y-79601041D01*
X152549757Y-79623170D01*
X152560788Y-79646493D01*
X152569480Y-79670784D01*
X152575748Y-79695811D01*
X152579534Y-79721331D01*
X152580800Y-79747100D01*
X152580800Y-80272900D01*
X152579534Y-80298669D01*
X152575748Y-80324189D01*
X152569480Y-80349216D01*
X152560788Y-80373507D01*
X152549757Y-80396830D01*
X152536493Y-80418959D01*
X152521124Y-80439682D01*
X152503798Y-80458798D01*
X152484682Y-80476124D01*
X152463959Y-80491493D01*
X152441830Y-80504757D01*
X152418507Y-80515788D01*
X152394216Y-80524480D01*
X152369189Y-80530748D01*
X152343669Y-80534534D01*
X152317900Y-80535800D01*
X151692100Y-80535800D01*
X151666331Y-80534534D01*
X151640811Y-80530748D01*
X151615784Y-80524480D01*
X151591493Y-80515788D01*
X151568170Y-80504757D01*
X151546041Y-80491493D01*
X151525318Y-80476124D01*
X151506202Y-80458798D01*
X151488876Y-80439682D01*
X151473507Y-80418959D01*
X151460243Y-80396830D01*
X151449212Y-80373507D01*
X151440520Y-80349216D01*
X151434252Y-80324189D01*
X151430466Y-80298669D01*
X151429200Y-80272900D01*
X151429200Y-79747100D01*
X151430466Y-79721331D01*
X151434252Y-79695811D01*
X151440520Y-79670784D01*
X151449212Y-79646493D01*
X151460243Y-79623170D01*
X151473507Y-79601041D01*
X151488876Y-79580318D01*
X151506202Y-79561202D01*
X151525318Y-79543876D01*
X151546041Y-79528507D01*
X151568170Y-79515243D01*
X151591493Y-79504212D01*
X151615784Y-79495520D01*
X151640811Y-79489252D01*
X151666331Y-79485466D01*
X151692100Y-79484200D01*
X152317900Y-79484200D01*
X152343669Y-79485466D01*
X152343669Y-79485466D01*
G37*
D13*
X152005000Y-80010000D03*
D12*
G36*
X144243669Y-77580466D02*
G01*
X144269189Y-77584252D01*
X144294216Y-77590520D01*
X144318507Y-77599212D01*
X144341830Y-77610243D01*
X144363959Y-77623507D01*
X144384682Y-77638876D01*
X144403798Y-77656202D01*
X144421124Y-77675318D01*
X144436493Y-77696041D01*
X144449757Y-77718170D01*
X144460788Y-77741493D01*
X144469480Y-77765784D01*
X144475748Y-77790811D01*
X144479534Y-77816331D01*
X144480800Y-77842100D01*
X144480800Y-78367900D01*
X144479534Y-78393669D01*
X144475748Y-78419189D01*
X144469480Y-78444216D01*
X144460788Y-78468507D01*
X144449757Y-78491830D01*
X144436493Y-78513959D01*
X144421124Y-78534682D01*
X144403798Y-78553798D01*
X144384682Y-78571124D01*
X144363959Y-78586493D01*
X144341830Y-78599757D01*
X144318507Y-78610788D01*
X144294216Y-78619480D01*
X144269189Y-78625748D01*
X144243669Y-78629534D01*
X144217900Y-78630800D01*
X143592100Y-78630800D01*
X143566331Y-78629534D01*
X143540811Y-78625748D01*
X143515784Y-78619480D01*
X143491493Y-78610788D01*
X143468170Y-78599757D01*
X143446041Y-78586493D01*
X143425318Y-78571124D01*
X143406202Y-78553798D01*
X143388876Y-78534682D01*
X143373507Y-78513959D01*
X143360243Y-78491830D01*
X143349212Y-78468507D01*
X143340520Y-78444216D01*
X143334252Y-78419189D01*
X143330466Y-78393669D01*
X143329200Y-78367900D01*
X143329200Y-77842100D01*
X143330466Y-77816331D01*
X143334252Y-77790811D01*
X143340520Y-77765784D01*
X143349212Y-77741493D01*
X143360243Y-77718170D01*
X143373507Y-77696041D01*
X143388876Y-77675318D01*
X143406202Y-77656202D01*
X143425318Y-77638876D01*
X143446041Y-77623507D01*
X143468170Y-77610243D01*
X143491493Y-77599212D01*
X143515784Y-77590520D01*
X143540811Y-77584252D01*
X143566331Y-77580466D01*
X143592100Y-77579200D01*
X144217900Y-77579200D01*
X144243669Y-77580466D01*
X144243669Y-77580466D01*
G37*
D13*
X143905000Y-78105000D03*
D12*
G36*
X145993669Y-77580466D02*
G01*
X146019189Y-77584252D01*
X146044216Y-77590520D01*
X146068507Y-77599212D01*
X146091830Y-77610243D01*
X146113959Y-77623507D01*
X146134682Y-77638876D01*
X146153798Y-77656202D01*
X146171124Y-77675318D01*
X146186493Y-77696041D01*
X146199757Y-77718170D01*
X146210788Y-77741493D01*
X146219480Y-77765784D01*
X146225748Y-77790811D01*
X146229534Y-77816331D01*
X146230800Y-77842100D01*
X146230800Y-78367900D01*
X146229534Y-78393669D01*
X146225748Y-78419189D01*
X146219480Y-78444216D01*
X146210788Y-78468507D01*
X146199757Y-78491830D01*
X146186493Y-78513959D01*
X146171124Y-78534682D01*
X146153798Y-78553798D01*
X146134682Y-78571124D01*
X146113959Y-78586493D01*
X146091830Y-78599757D01*
X146068507Y-78610788D01*
X146044216Y-78619480D01*
X146019189Y-78625748D01*
X145993669Y-78629534D01*
X145967900Y-78630800D01*
X145342100Y-78630800D01*
X145316331Y-78629534D01*
X145290811Y-78625748D01*
X145265784Y-78619480D01*
X145241493Y-78610788D01*
X145218170Y-78599757D01*
X145196041Y-78586493D01*
X145175318Y-78571124D01*
X145156202Y-78553798D01*
X145138876Y-78534682D01*
X145123507Y-78513959D01*
X145110243Y-78491830D01*
X145099212Y-78468507D01*
X145090520Y-78444216D01*
X145084252Y-78419189D01*
X145080466Y-78393669D01*
X145079200Y-78367900D01*
X145079200Y-77842100D01*
X145080466Y-77816331D01*
X145084252Y-77790811D01*
X145090520Y-77765784D01*
X145099212Y-77741493D01*
X145110243Y-77718170D01*
X145123507Y-77696041D01*
X145138876Y-77675318D01*
X145156202Y-77656202D01*
X145175318Y-77638876D01*
X145196041Y-77623507D01*
X145218170Y-77610243D01*
X145241493Y-77599212D01*
X145265784Y-77590520D01*
X145290811Y-77584252D01*
X145316331Y-77580466D01*
X145342100Y-77579200D01*
X145967900Y-77579200D01*
X145993669Y-77580466D01*
X145993669Y-77580466D01*
G37*
D13*
X145655000Y-78105000D03*
D12*
G36*
X144243669Y-81390466D02*
G01*
X144269189Y-81394252D01*
X144294216Y-81400520D01*
X144318507Y-81409212D01*
X144341830Y-81420243D01*
X144363959Y-81433507D01*
X144384682Y-81448876D01*
X144403798Y-81466202D01*
X144421124Y-81485318D01*
X144436493Y-81506041D01*
X144449757Y-81528170D01*
X144460788Y-81551493D01*
X144469480Y-81575784D01*
X144475748Y-81600811D01*
X144479534Y-81626331D01*
X144480800Y-81652100D01*
X144480800Y-82177900D01*
X144479534Y-82203669D01*
X144475748Y-82229189D01*
X144469480Y-82254216D01*
X144460788Y-82278507D01*
X144449757Y-82301830D01*
X144436493Y-82323959D01*
X144421124Y-82344682D01*
X144403798Y-82363798D01*
X144384682Y-82381124D01*
X144363959Y-82396493D01*
X144341830Y-82409757D01*
X144318507Y-82420788D01*
X144294216Y-82429480D01*
X144269189Y-82435748D01*
X144243669Y-82439534D01*
X144217900Y-82440800D01*
X143592100Y-82440800D01*
X143566331Y-82439534D01*
X143540811Y-82435748D01*
X143515784Y-82429480D01*
X143491493Y-82420788D01*
X143468170Y-82409757D01*
X143446041Y-82396493D01*
X143425318Y-82381124D01*
X143406202Y-82363798D01*
X143388876Y-82344682D01*
X143373507Y-82323959D01*
X143360243Y-82301830D01*
X143349212Y-82278507D01*
X143340520Y-82254216D01*
X143334252Y-82229189D01*
X143330466Y-82203669D01*
X143329200Y-82177900D01*
X143329200Y-81652100D01*
X143330466Y-81626331D01*
X143334252Y-81600811D01*
X143340520Y-81575784D01*
X143349212Y-81551493D01*
X143360243Y-81528170D01*
X143373507Y-81506041D01*
X143388876Y-81485318D01*
X143406202Y-81466202D01*
X143425318Y-81448876D01*
X143446041Y-81433507D01*
X143468170Y-81420243D01*
X143491493Y-81409212D01*
X143515784Y-81400520D01*
X143540811Y-81394252D01*
X143566331Y-81390466D01*
X143592100Y-81389200D01*
X144217900Y-81389200D01*
X144243669Y-81390466D01*
X144243669Y-81390466D01*
G37*
D13*
X143905000Y-81915000D03*
D12*
G36*
X145993669Y-81390466D02*
G01*
X146019189Y-81394252D01*
X146044216Y-81400520D01*
X146068507Y-81409212D01*
X146091830Y-81420243D01*
X146113959Y-81433507D01*
X146134682Y-81448876D01*
X146153798Y-81466202D01*
X146171124Y-81485318D01*
X146186493Y-81506041D01*
X146199757Y-81528170D01*
X146210788Y-81551493D01*
X146219480Y-81575784D01*
X146225748Y-81600811D01*
X146229534Y-81626331D01*
X146230800Y-81652100D01*
X146230800Y-82177900D01*
X146229534Y-82203669D01*
X146225748Y-82229189D01*
X146219480Y-82254216D01*
X146210788Y-82278507D01*
X146199757Y-82301830D01*
X146186493Y-82323959D01*
X146171124Y-82344682D01*
X146153798Y-82363798D01*
X146134682Y-82381124D01*
X146113959Y-82396493D01*
X146091830Y-82409757D01*
X146068507Y-82420788D01*
X146044216Y-82429480D01*
X146019189Y-82435748D01*
X145993669Y-82439534D01*
X145967900Y-82440800D01*
X145342100Y-82440800D01*
X145316331Y-82439534D01*
X145290811Y-82435748D01*
X145265784Y-82429480D01*
X145241493Y-82420788D01*
X145218170Y-82409757D01*
X145196041Y-82396493D01*
X145175318Y-82381124D01*
X145156202Y-82363798D01*
X145138876Y-82344682D01*
X145123507Y-82323959D01*
X145110243Y-82301830D01*
X145099212Y-82278507D01*
X145090520Y-82254216D01*
X145084252Y-82229189D01*
X145080466Y-82203669D01*
X145079200Y-82177900D01*
X145079200Y-81652100D01*
X145080466Y-81626331D01*
X145084252Y-81600811D01*
X145090520Y-81575784D01*
X145099212Y-81551493D01*
X145110243Y-81528170D01*
X145123507Y-81506041D01*
X145138876Y-81485318D01*
X145156202Y-81466202D01*
X145175318Y-81448876D01*
X145196041Y-81433507D01*
X145218170Y-81420243D01*
X145241493Y-81409212D01*
X145265784Y-81400520D01*
X145290811Y-81394252D01*
X145316331Y-81390466D01*
X145342100Y-81389200D01*
X145967900Y-81389200D01*
X145993669Y-81390466D01*
X145993669Y-81390466D01*
G37*
D13*
X145655000Y-81915000D03*
M02*
