M48
; DRILL file {KiCad (5.1.2)-2} date 7/4/2019 12:25:21 AM
; FORMAT={-:-/ absolute / inch / decimal}
; #@! TF.CreationDate,2019-07-04T00:25:21-07:00
; #@! TF.GenerationSoftware,Kicad,Pcbnew,(5.1.2)-2
; #@! TF.FileFunction,Plated,1,2,PTH
FMAT,2
INCH
T1C0.0157
T2C0.0394
%
G90
G05
T1
X5.3575Y-3.6625
X5.5025Y-3.8125
X5.525Y-4.1625
X5.54Y-3.74
X5.54Y-3.95
X5.575Y-3.565
X5.575Y-3.74
X5.575Y-3.775
X5.575Y-3.95
X5.61Y-3.74
X5.61Y-3.775
X5.61Y-3.81
X5.6175Y-4.065
X5.63Y-3.075
X5.63Y-3.15
X5.645Y-3.74
X5.645Y-3.775
X5.645Y-3.81
X5.665Y-3.2575
X5.68Y-3.74
X5.68Y-3.775
X5.68Y-3.81
X5.7Y-3.3762
X5.715Y-3.775
X5.715Y-3.81
X5.7775Y-4.065
X5.785Y-3.2025
X5.785Y-3.2475
X5.815Y-3.225
X5.8425Y-4.346
X5.86Y-4.316
X5.8775Y-4.346
X5.878Y-4.286
X5.8875Y-3.4275
X5.896Y-4.316
X5.914Y-4.346
X5.95Y-3.265
X5.985Y-3.115
X6.006Y-3.374
X6.01Y-3.825
X6.0325Y-3.4275
X6.1Y-3.2925
X6.1725Y-3.836
X6.1725Y-3.87
X6.1725Y-3.905
X6.2Y-3.215
X6.2Y-3.38
X6.2075Y-3.836
X6.2075Y-3.87
X6.2075Y-3.905
X6.35Y-3.785
X6.39Y-4.455
X6.4Y-3.865
X6.41Y-4.42
X6.41Y-4.49
X6.43Y-4.315
X6.43Y-4.385
X6.43Y-4.455
X6.45Y-4.28
X6.45Y-4.35
X6.45Y-4.42
X6.45Y-4.49
X6.47Y-4.315
X6.47Y-4.385
X6.47Y-4.455
X6.49Y-4.28
X6.49Y-4.35
X6.49Y-4.42
X6.49Y-4.49
X6.625Y-3.06
X6.625Y-3.1
X6.665Y-3.06
X6.665Y-3.1
X6.705Y-3.06
X6.705Y-3.1
X6.745Y-3.06
X6.745Y-3.1
X6.785Y-3.06
X6.785Y-3.1
X6.99Y-4.275
X7.03Y-4.275
X7.03Y-4.42
X7.03Y-4.49
X7.05Y-4.31
X7.05Y-4.38
X7.05Y-4.455
X7.07Y-4.275
X7.07Y-4.345
X7.07Y-4.42
X7.07Y-4.49
X7.09Y-4.31
X7.09Y-4.38
X7.09Y-4.455
X7.11Y-4.275
X7.11Y-4.345
X7.11Y-4.42
X7.11Y-4.49
X7.13Y-4.31
X7.13Y-4.38
X7.13Y-4.455
X7.15Y-4.275
X7.15Y-4.345
X7.15Y-4.415
X7.15Y-4.49
X7.17Y-4.31
X7.17Y-4.38
X7.17Y-4.455
T2
X5.175Y-4.15
X5.175Y-4.25
X5.175Y-4.35
X5.175Y-4.45
X5.85Y-4.025
X6.85Y-4.45
X6.95Y-4.45
X6.55Y-3.4
X6.85Y-3.1
X6.95Y-3.1
X5.175Y-3.1
X5.175Y-3.2
X5.175Y-3.3
X5.175Y-3.4
X5.175Y-3.5
X5.175Y-3.6
X5.175Y-3.7
X5.175Y-3.8
X5.175Y-3.9
X6.2375Y-4.45
X6.3375Y-4.45
X5.825Y-3.45
X5.69Y-3.555
X5.7Y-4.025
X6.55Y-3.2
X5.55Y-4.025
X5.825Y-3.3
T0
M30
