G04 #@! TF.GenerationSoftware,KiCad,Pcbnew,(5.1.2)-2*
G04 #@! TF.CreationDate,2019-08-30T17:07:24-04:00*
G04 #@! TF.ProjectId,PowerStage SubBoard 0-2,506f7765-7253-4746-9167-652053756242,rev?*
G04 #@! TF.SameCoordinates,Original*
G04 #@! TF.FileFunction,Legend,Top*
G04 #@! TF.FilePolarity,Positive*
%FSLAX46Y46*%
G04 Gerber Fmt 4.6, Leading zero omitted, Abs format (unit mm)*
G04 Created by KiCad (PCBNEW (5.1.2)-2) date 2019-08-30 17:07:24*
%MOMM*%
%LPD*%
G04 APERTURE LIST*
%ADD10C,0.254000*%
%ADD11C,0.190500*%
%ADD12C,0.381000*%
%ADD13C,0.120000*%
%ADD14C,0.150000*%
G04 APERTURE END LIST*
D10*
X138430000Y-102870000D02*
X139573000Y-102616000D01*
D11*
X136089571Y-103514071D02*
X136089571Y-102371071D01*
X136271000Y-102371071D01*
X136379857Y-102425500D01*
X136452428Y-102534357D01*
X136488714Y-102643214D01*
X136525000Y-102860928D01*
X136525000Y-103024214D01*
X136488714Y-103241928D01*
X136452428Y-103350785D01*
X136379857Y-103459642D01*
X136271000Y-103514071D01*
X136089571Y-103514071D01*
X136815285Y-103459642D02*
X136924142Y-103514071D01*
X137105571Y-103514071D01*
X137178142Y-103459642D01*
X137214428Y-103405214D01*
X137250714Y-103296357D01*
X137250714Y-103187500D01*
X137214428Y-103078642D01*
X137178142Y-103024214D01*
X137105571Y-102969785D01*
X136960428Y-102915357D01*
X136887857Y-102860928D01*
X136851571Y-102806500D01*
X136815285Y-102697642D01*
X136815285Y-102588785D01*
X136851571Y-102479928D01*
X136887857Y-102425500D01*
X136960428Y-102371071D01*
X137141857Y-102371071D01*
X137250714Y-102425500D01*
X137976428Y-102425500D02*
X137903857Y-102371071D01*
X137795000Y-102371071D01*
X137686142Y-102425500D01*
X137613571Y-102534357D01*
X137577285Y-102643214D01*
X137541000Y-102860928D01*
X137541000Y-103024214D01*
X137577285Y-103241928D01*
X137613571Y-103350785D01*
X137686142Y-103459642D01*
X137795000Y-103514071D01*
X137867571Y-103514071D01*
X137976428Y-103459642D01*
X138012714Y-103405214D01*
X138012714Y-103024214D01*
X137867571Y-103024214D01*
D10*
X145161000Y-100838000D02*
X145415000Y-100203000D01*
D11*
X145850428Y-100847071D02*
X145850428Y-99704071D01*
X146140714Y-99704071D01*
X146213285Y-99758500D01*
X146249571Y-99812928D01*
X146285857Y-99921785D01*
X146285857Y-100085071D01*
X146249571Y-100193928D01*
X146213285Y-100248357D01*
X146140714Y-100302785D01*
X145850428Y-100302785D01*
X147047857Y-100738214D02*
X147011571Y-100792642D01*
X146902714Y-100847071D01*
X146830142Y-100847071D01*
X146721285Y-100792642D01*
X146648714Y-100683785D01*
X146612428Y-100574928D01*
X146576142Y-100357214D01*
X146576142Y-100193928D01*
X146612428Y-99976214D01*
X146648714Y-99867357D01*
X146721285Y-99758500D01*
X146830142Y-99704071D01*
X146902714Y-99704071D01*
X147011571Y-99758500D01*
X147047857Y-99812928D01*
X147773571Y-99758500D02*
X147701000Y-99704071D01*
X147592142Y-99704071D01*
X147483285Y-99758500D01*
X147410714Y-99867357D01*
X147374428Y-99976214D01*
X147338142Y-100193928D01*
X147338142Y-100357214D01*
X147374428Y-100574928D01*
X147410714Y-100683785D01*
X147483285Y-100792642D01*
X147592142Y-100847071D01*
X147664714Y-100847071D01*
X147773571Y-100792642D01*
X147809857Y-100738214D01*
X147809857Y-100357214D01*
X147664714Y-100357214D01*
D10*
X149225000Y-100965000D02*
X149606000Y-100203000D01*
D11*
X150458714Y-100738214D02*
X150422428Y-100792642D01*
X150313571Y-100847071D01*
X150241000Y-100847071D01*
X150132142Y-100792642D01*
X150059571Y-100683785D01*
X150023285Y-100574928D01*
X149987000Y-100357214D01*
X149987000Y-100193928D01*
X150023285Y-99976214D01*
X150059571Y-99867357D01*
X150132142Y-99758500D01*
X150241000Y-99704071D01*
X150313571Y-99704071D01*
X150422428Y-99758500D01*
X150458714Y-99812928D01*
X150785285Y-100847071D02*
X150785285Y-99704071D01*
X150785285Y-100248357D02*
X151220714Y-100248357D01*
X151220714Y-100847071D02*
X151220714Y-99704071D01*
X151982714Y-99758500D02*
X151910142Y-99704071D01*
X151801285Y-99704071D01*
X151692428Y-99758500D01*
X151619857Y-99867357D01*
X151583571Y-99976214D01*
X151547285Y-100193928D01*
X151547285Y-100357214D01*
X151583571Y-100574928D01*
X151619857Y-100683785D01*
X151692428Y-100792642D01*
X151801285Y-100847071D01*
X151873857Y-100847071D01*
X151982714Y-100792642D01*
X152019000Y-100738214D01*
X152019000Y-100357214D01*
X151873857Y-100357214D01*
D10*
X167132000Y-84328000D02*
X166878000Y-84963000D01*
D11*
X166569571Y-84028642D02*
X166678428Y-84083071D01*
X166859857Y-84083071D01*
X166932428Y-84028642D01*
X166968714Y-83974214D01*
X167005000Y-83865357D01*
X167005000Y-83756500D01*
X166968714Y-83647642D01*
X166932428Y-83593214D01*
X166859857Y-83538785D01*
X166714714Y-83484357D01*
X166642142Y-83429928D01*
X166605857Y-83375500D01*
X166569571Y-83266642D01*
X166569571Y-83157785D01*
X166605857Y-83048928D01*
X166642142Y-82994500D01*
X166714714Y-82940071D01*
X166896142Y-82940071D01*
X167005000Y-82994500D01*
X167331571Y-83647642D02*
X167912142Y-83647642D01*
D10*
X165354000Y-79121000D02*
X165735000Y-80010000D01*
D11*
X164664571Y-78821642D02*
X164773428Y-78876071D01*
X164954857Y-78876071D01*
X165027428Y-78821642D01*
X165063714Y-78767214D01*
X165100000Y-78658357D01*
X165100000Y-78549500D01*
X165063714Y-78440642D01*
X165027428Y-78386214D01*
X164954857Y-78331785D01*
X164809714Y-78277357D01*
X164737142Y-78222928D01*
X164700857Y-78168500D01*
X164664571Y-78059642D01*
X164664571Y-77950785D01*
X164700857Y-77841928D01*
X164737142Y-77787500D01*
X164809714Y-77733071D01*
X164991142Y-77733071D01*
X165100000Y-77787500D01*
X165426571Y-78440642D02*
X166007142Y-78440642D01*
X165716857Y-78876071D02*
X165716857Y-78005214D01*
D10*
X142367000Y-89154000D02*
X143256000Y-89662000D01*
D11*
X140661571Y-89072357D02*
X140770428Y-89126785D01*
X140806714Y-89181214D01*
X140843000Y-89290071D01*
X140843000Y-89453357D01*
X140806714Y-89562214D01*
X140770428Y-89616642D01*
X140697857Y-89671071D01*
X140407571Y-89671071D01*
X140407571Y-88528071D01*
X140661571Y-88528071D01*
X140734142Y-88582500D01*
X140770428Y-88636928D01*
X140806714Y-88745785D01*
X140806714Y-88854642D01*
X140770428Y-88963500D01*
X140734142Y-89017928D01*
X140661571Y-89072357D01*
X140407571Y-89072357D01*
X141133285Y-89344500D02*
X141496142Y-89344500D01*
X141060714Y-89671071D02*
X141314714Y-88528071D01*
X141568714Y-89671071D01*
X141713857Y-88528071D02*
X142149285Y-88528071D01*
X141931571Y-89671071D02*
X141931571Y-88528071D01*
D10*
X147955000Y-81280000D02*
X147955000Y-82420000D01*
D11*
X147329071Y-80772000D02*
X147329071Y-80626857D01*
X147383500Y-80554285D01*
X147492357Y-80481714D01*
X147710071Y-80445428D01*
X148091071Y-80445428D01*
X148308785Y-80481714D01*
X148417642Y-80554285D01*
X148472071Y-80626857D01*
X148472071Y-80772000D01*
X148417642Y-80844571D01*
X148308785Y-80917142D01*
X148091071Y-80953428D01*
X147710071Y-80953428D01*
X147492357Y-80917142D01*
X147383500Y-80844571D01*
X147329071Y-80772000D01*
X147329071Y-80118857D02*
X148254357Y-80118857D01*
X148363214Y-80082571D01*
X148417642Y-80046285D01*
X148472071Y-79973714D01*
X148472071Y-79828571D01*
X148417642Y-79756000D01*
X148363214Y-79719714D01*
X148254357Y-79683428D01*
X147329071Y-79683428D01*
X147329071Y-79429428D02*
X147329071Y-78994000D01*
X148472071Y-79211714D02*
X147329071Y-79211714D01*
D10*
X147320000Y-89662000D02*
X147574000Y-89027000D01*
D11*
X147837071Y-91367428D02*
X147292785Y-91621428D01*
X147837071Y-91802857D02*
X146694071Y-91802857D01*
X146694071Y-91512571D01*
X146748500Y-91440000D01*
X146802928Y-91403714D01*
X146911785Y-91367428D01*
X147075071Y-91367428D01*
X147183928Y-91403714D01*
X147238357Y-91440000D01*
X147292785Y-91512571D01*
X147292785Y-91802857D01*
X147238357Y-91040857D02*
X147238357Y-90786857D01*
X147837071Y-90678000D02*
X147837071Y-91040857D01*
X146694071Y-91040857D01*
X146694071Y-90678000D01*
X147238357Y-90097428D02*
X147238357Y-90351428D01*
X147837071Y-90351428D02*
X146694071Y-90351428D01*
X146694071Y-89988571D01*
D10*
X134168242Y-99078142D02*
X134331528Y-99150714D01*
X134385957Y-99223285D01*
X134440385Y-99368428D01*
X134440385Y-99586142D01*
X134385957Y-99731285D01*
X134331528Y-99803857D01*
X134222671Y-99876428D01*
X133787242Y-99876428D01*
X133787242Y-98352428D01*
X134168242Y-98352428D01*
X134277100Y-98425000D01*
X134331528Y-98497571D01*
X134385957Y-98642714D01*
X134385957Y-98787857D01*
X134331528Y-98933000D01*
X134277100Y-99005571D01*
X134168242Y-99078142D01*
X133787242Y-99078142D01*
X134766957Y-98352428D02*
X135420100Y-98352428D01*
X135093528Y-99876428D02*
X135093528Y-98352428D01*
X133787242Y-97336428D02*
X133787242Y-95812428D01*
X134222671Y-95812428D01*
X134331528Y-95885000D01*
X134385957Y-95957571D01*
X134440385Y-96102714D01*
X134440385Y-96320428D01*
X134385957Y-96465571D01*
X134331528Y-96538142D01*
X134222671Y-96610714D01*
X133787242Y-96610714D01*
X135528957Y-95885000D02*
X135420100Y-95812428D01*
X135256814Y-95812428D01*
X135093528Y-95885000D01*
X134984671Y-96030142D01*
X134930242Y-96175285D01*
X134875814Y-96465571D01*
X134875814Y-96683285D01*
X134930242Y-96973571D01*
X134984671Y-97118714D01*
X135093528Y-97263857D01*
X135256814Y-97336428D01*
X135365671Y-97336428D01*
X135528957Y-97263857D01*
X135583385Y-97191285D01*
X135583385Y-96683285D01*
X135365671Y-96683285D01*
X133787242Y-94796428D02*
X133787242Y-93272428D01*
X134222671Y-93272428D01*
X134331528Y-93345000D01*
X134385957Y-93417571D01*
X134440385Y-93562714D01*
X134440385Y-93780428D01*
X134385957Y-93925571D01*
X134331528Y-93998142D01*
X134222671Y-94070714D01*
X133787242Y-94070714D01*
X134930242Y-94796428D02*
X134930242Y-93272428D01*
X135311242Y-94361000D01*
X135692242Y-93272428D01*
X135692242Y-94796428D01*
X133787242Y-92256428D02*
X133787242Y-90732428D01*
X134059385Y-90732428D01*
X134222671Y-90805000D01*
X134331528Y-90950142D01*
X134385957Y-91095285D01*
X134440385Y-91385571D01*
X134440385Y-91603285D01*
X134385957Y-91893571D01*
X134331528Y-92038714D01*
X134222671Y-92183857D01*
X134059385Y-92256428D01*
X133787242Y-92256428D01*
X135528957Y-90805000D02*
X135420100Y-90732428D01*
X135256814Y-90732428D01*
X135093528Y-90805000D01*
X134984671Y-90950142D01*
X134930242Y-91095285D01*
X134875814Y-91385571D01*
X134875814Y-91603285D01*
X134930242Y-91893571D01*
X134984671Y-92038714D01*
X135093528Y-92183857D01*
X135256814Y-92256428D01*
X135365671Y-92256428D01*
X135528957Y-92183857D01*
X135583385Y-92111285D01*
X135583385Y-91603285D01*
X135365671Y-91603285D01*
X133787242Y-89589428D02*
X133787242Y-88065428D01*
X134059385Y-88065428D01*
X134222671Y-88138000D01*
X134331528Y-88283142D01*
X134385957Y-88428285D01*
X134440385Y-88718571D01*
X134440385Y-88936285D01*
X134385957Y-89226571D01*
X134331528Y-89371714D01*
X134222671Y-89516857D01*
X134059385Y-89589428D01*
X133787242Y-89589428D01*
X135311242Y-88791142D02*
X135474528Y-88863714D01*
X135528957Y-88936285D01*
X135583385Y-89081428D01*
X135583385Y-89299142D01*
X135528957Y-89444285D01*
X135474528Y-89516857D01*
X135365671Y-89589428D01*
X134930242Y-89589428D01*
X134930242Y-88065428D01*
X135311242Y-88065428D01*
X135420100Y-88138000D01*
X135474528Y-88210571D01*
X135528957Y-88355714D01*
X135528957Y-88500857D01*
X135474528Y-88646000D01*
X135420100Y-88718571D01*
X135311242Y-88791142D01*
X134930242Y-88791142D01*
X134440385Y-86904285D02*
X134385957Y-86976857D01*
X134222671Y-87049428D01*
X134113814Y-87049428D01*
X133950528Y-86976857D01*
X133841671Y-86831714D01*
X133787242Y-86686571D01*
X133732814Y-86396285D01*
X133732814Y-86178571D01*
X133787242Y-85888285D01*
X133841671Y-85743142D01*
X133950528Y-85598000D01*
X134113814Y-85525428D01*
X134222671Y-85525428D01*
X134385957Y-85598000D01*
X134440385Y-85670571D01*
X134930242Y-87049428D02*
X134930242Y-85525428D01*
X135365671Y-85525428D01*
X135474528Y-85598000D01*
X135528957Y-85670571D01*
X135583385Y-85815714D01*
X135583385Y-86033428D01*
X135528957Y-86178571D01*
X135474528Y-86251142D01*
X135365671Y-86323714D01*
X134930242Y-86323714D01*
X135801100Y-87194571D02*
X136671957Y-87194571D01*
X136944100Y-86251142D02*
X137325100Y-86251142D01*
X137488385Y-87049428D02*
X136944100Y-87049428D01*
X136944100Y-85525428D01*
X137488385Y-85525428D01*
X137978242Y-87049428D02*
X137978242Y-85525428D01*
X138631385Y-87049428D01*
X138631385Y-85525428D01*
X134440385Y-84364285D02*
X134385957Y-84436857D01*
X134222671Y-84509428D01*
X134113814Y-84509428D01*
X133950528Y-84436857D01*
X133841671Y-84291714D01*
X133787242Y-84146571D01*
X133732814Y-83856285D01*
X133732814Y-83638571D01*
X133787242Y-83348285D01*
X133841671Y-83203142D01*
X133950528Y-83058000D01*
X134113814Y-82985428D01*
X134222671Y-82985428D01*
X134385957Y-83058000D01*
X134440385Y-83130571D01*
X134930242Y-84509428D02*
X134930242Y-82985428D01*
X134930242Y-83711142D02*
X135583385Y-83711142D01*
X135583385Y-84509428D02*
X135583385Y-82985428D01*
X136726385Y-83058000D02*
X136617528Y-82985428D01*
X136454242Y-82985428D01*
X136290957Y-83058000D01*
X136182100Y-83203142D01*
X136127671Y-83348285D01*
X136073242Y-83638571D01*
X136073242Y-83856285D01*
X136127671Y-84146571D01*
X136182100Y-84291714D01*
X136290957Y-84436857D01*
X136454242Y-84509428D01*
X136563100Y-84509428D01*
X136726385Y-84436857D01*
X136780814Y-84364285D01*
X136780814Y-83856285D01*
X136563100Y-83856285D01*
X136998528Y-84654571D02*
X137869385Y-84654571D01*
X138141528Y-83711142D02*
X138522528Y-83711142D01*
X138685814Y-84509428D02*
X138141528Y-84509428D01*
X138141528Y-82985428D01*
X138685814Y-82985428D01*
X139175671Y-84509428D02*
X139175671Y-82985428D01*
X139828814Y-84509428D01*
X139828814Y-82985428D01*
X133732814Y-81896857D02*
X133896100Y-81969428D01*
X134168242Y-81969428D01*
X134277100Y-81896857D01*
X134331528Y-81824285D01*
X134385957Y-81679142D01*
X134385957Y-81534000D01*
X134331528Y-81388857D01*
X134277100Y-81316285D01*
X134168242Y-81243714D01*
X133950528Y-81171142D01*
X133841671Y-81098571D01*
X133787242Y-81026000D01*
X133732814Y-80880857D01*
X133732814Y-80735714D01*
X133787242Y-80590571D01*
X133841671Y-80518000D01*
X133950528Y-80445428D01*
X134222671Y-80445428D01*
X134385957Y-80518000D01*
X134875814Y-81969428D02*
X134875814Y-80445428D01*
X135147957Y-80445428D01*
X135311242Y-80518000D01*
X135420100Y-80663142D01*
X135474528Y-80808285D01*
X135528957Y-81098571D01*
X135528957Y-81316285D01*
X135474528Y-81606571D01*
X135420100Y-81751714D01*
X135311242Y-81896857D01*
X135147957Y-81969428D01*
X134875814Y-81969428D01*
X135964385Y-81534000D02*
X136508671Y-81534000D01*
X135855528Y-81969428D02*
X136236528Y-80445428D01*
X136617528Y-81969428D01*
X133732814Y-79356857D02*
X133896100Y-79429428D01*
X134168242Y-79429428D01*
X134277100Y-79356857D01*
X134331528Y-79284285D01*
X134385957Y-79139142D01*
X134385957Y-78994000D01*
X134331528Y-78848857D01*
X134277100Y-78776285D01*
X134168242Y-78703714D01*
X133950528Y-78631142D01*
X133841671Y-78558571D01*
X133787242Y-78486000D01*
X133732814Y-78340857D01*
X133732814Y-78195714D01*
X133787242Y-78050571D01*
X133841671Y-77978000D01*
X133950528Y-77905428D01*
X134222671Y-77905428D01*
X134385957Y-77978000D01*
X135528957Y-79284285D02*
X135474528Y-79356857D01*
X135311242Y-79429428D01*
X135202385Y-79429428D01*
X135039100Y-79356857D01*
X134930242Y-79211714D01*
X134875814Y-79066571D01*
X134821385Y-78776285D01*
X134821385Y-78558571D01*
X134875814Y-78268285D01*
X134930242Y-78123142D01*
X135039100Y-77978000D01*
X135202385Y-77905428D01*
X135311242Y-77905428D01*
X135474528Y-77978000D01*
X135528957Y-78050571D01*
X136563100Y-79429428D02*
X136018814Y-79429428D01*
X136018814Y-77905428D01*
D11*
X139845142Y-77733071D02*
X140316857Y-77733071D01*
X140062857Y-78168500D01*
X140171714Y-78168500D01*
X140244285Y-78222928D01*
X140280571Y-78277357D01*
X140316857Y-78386214D01*
X140316857Y-78658357D01*
X140280571Y-78767214D01*
X140244285Y-78821642D01*
X140171714Y-78876071D01*
X139954000Y-78876071D01*
X139881428Y-78821642D01*
X139845142Y-78767214D01*
X140643428Y-78767214D02*
X140679714Y-78821642D01*
X140643428Y-78876071D01*
X140607142Y-78821642D01*
X140643428Y-78767214D01*
X140643428Y-78876071D01*
X140933714Y-77733071D02*
X141405428Y-77733071D01*
X141151428Y-78168500D01*
X141260285Y-78168500D01*
X141332857Y-78222928D01*
X141369142Y-78277357D01*
X141405428Y-78386214D01*
X141405428Y-78658357D01*
X141369142Y-78767214D01*
X141332857Y-78821642D01*
X141260285Y-78876071D01*
X141042571Y-78876071D01*
X140970000Y-78821642D01*
X140933714Y-78767214D01*
X141623142Y-77733071D02*
X141877142Y-78876071D01*
X142131142Y-77733071D01*
D10*
X133678385Y-104575428D02*
X134385957Y-104575428D01*
X134004957Y-105156000D01*
X134168242Y-105156000D01*
X134277100Y-105228571D01*
X134331528Y-105301142D01*
X134385957Y-105446285D01*
X134385957Y-105809142D01*
X134331528Y-105954285D01*
X134277100Y-106026857D01*
X134168242Y-106099428D01*
X133841671Y-106099428D01*
X133732814Y-106026857D01*
X133678385Y-105954285D01*
X134875814Y-105954285D02*
X134930242Y-106026857D01*
X134875814Y-106099428D01*
X134821385Y-106026857D01*
X134875814Y-105954285D01*
X134875814Y-106099428D01*
X135311242Y-104575428D02*
X136018814Y-104575428D01*
X135637814Y-105156000D01*
X135801100Y-105156000D01*
X135909957Y-105228571D01*
X135964385Y-105301142D01*
X136018814Y-105446285D01*
X136018814Y-105809142D01*
X135964385Y-105954285D01*
X135909957Y-106026857D01*
X135801100Y-106099428D01*
X135474528Y-106099428D01*
X135365671Y-106026857D01*
X135311242Y-105954285D01*
X136345385Y-104575428D02*
X136726385Y-106099428D01*
X137107385Y-104575428D01*
X133623957Y-107115428D02*
X134004957Y-108639428D01*
X134385957Y-107115428D01*
X134494814Y-108784571D02*
X135365671Y-108784571D01*
X136290957Y-108639428D02*
X135909957Y-107913714D01*
X135637814Y-108639428D02*
X135637814Y-107115428D01*
X136073242Y-107115428D01*
X136182100Y-107188000D01*
X136236528Y-107260571D01*
X136290957Y-107405714D01*
X136290957Y-107623428D01*
X136236528Y-107768571D01*
X136182100Y-107841142D01*
X136073242Y-107913714D01*
X135637814Y-107913714D01*
X136780814Y-107841142D02*
X137161814Y-107841142D01*
X137325100Y-108639428D02*
X136780814Y-108639428D01*
X136780814Y-107115428D01*
X137325100Y-107115428D01*
X138195957Y-107841142D02*
X137814957Y-107841142D01*
X137814957Y-108639428D02*
X137814957Y-107115428D01*
X138359242Y-107115428D01*
X133623957Y-109655428D02*
X134004957Y-111179428D01*
X134385957Y-109655428D01*
X134494814Y-111324571D02*
X135365671Y-111324571D01*
X135583385Y-110744000D02*
X136127671Y-110744000D01*
X135474528Y-111179428D02*
X135855528Y-109655428D01*
X136236528Y-111179428D01*
X136617528Y-111179428D02*
X136617528Y-109655428D01*
X136998528Y-110744000D01*
X137379528Y-109655428D01*
X137379528Y-111179428D01*
X137923814Y-111179428D02*
X137923814Y-109655428D01*
X138359242Y-109655428D01*
X138468100Y-109728000D01*
X138522528Y-109800571D01*
X138576957Y-109945714D01*
X138576957Y-110163428D01*
X138522528Y-110308571D01*
X138468100Y-110381142D01*
X138359242Y-110453714D01*
X137923814Y-110453714D01*
D12*
X134874000Y-112776000D02*
X134874000Y-113284000D01*
X134239000Y-112522000D02*
X134239000Y-113538000D01*
X133604000Y-112141000D02*
X133604000Y-113919000D01*
D10*
X178788785Y-78631142D02*
X178952071Y-78703714D01*
X179006500Y-78776285D01*
X179060928Y-78921428D01*
X179060928Y-79139142D01*
X179006500Y-79284285D01*
X178952071Y-79356857D01*
X178843214Y-79429428D01*
X178407785Y-79429428D01*
X178407785Y-77905428D01*
X178788785Y-77905428D01*
X178897642Y-77978000D01*
X178952071Y-78050571D01*
X179006500Y-78195714D01*
X179006500Y-78340857D01*
X178952071Y-78486000D01*
X178897642Y-78558571D01*
X178788785Y-78631142D01*
X178407785Y-78631142D01*
X179496357Y-78994000D02*
X180040642Y-78994000D01*
X179387500Y-79429428D02*
X179768500Y-77905428D01*
X180149500Y-79429428D01*
X180367214Y-77905428D02*
X181020357Y-77905428D01*
X180693785Y-79429428D02*
X180693785Y-77905428D01*
X181401357Y-78848857D02*
X182272214Y-78848857D01*
X181836785Y-79429428D02*
X181836785Y-78268285D01*
D12*
X170942000Y-78994000D02*
X170942000Y-78486000D01*
X171577000Y-79248000D02*
X171577000Y-78232000D01*
X172212000Y-79629000D02*
X172212000Y-77851000D01*
D10*
X152127857Y-113138857D02*
X152998714Y-113138857D01*
X152563285Y-113719428D02*
X152563285Y-112558285D01*
X154196142Y-113574285D02*
X154141714Y-113646857D01*
X153978428Y-113719428D01*
X153869571Y-113719428D01*
X153706285Y-113646857D01*
X153597428Y-113501714D01*
X153543000Y-113356571D01*
X153488571Y-113066285D01*
X153488571Y-112848571D01*
X153543000Y-112558285D01*
X153597428Y-112413142D01*
X153706285Y-112268000D01*
X153869571Y-112195428D01*
X153978428Y-112195428D01*
X154141714Y-112268000D01*
X154196142Y-112340571D01*
X154686000Y-113719428D02*
X154686000Y-112195428D01*
X154686000Y-112921142D02*
X155339142Y-112921142D01*
X155339142Y-113719428D02*
X155339142Y-112195428D01*
X156482142Y-112268000D02*
X156373285Y-112195428D01*
X156210000Y-112195428D01*
X156046714Y-112268000D01*
X155937857Y-112413142D01*
X155883428Y-112558285D01*
X155829000Y-112848571D01*
X155829000Y-113066285D01*
X155883428Y-113356571D01*
X155937857Y-113501714D01*
X156046714Y-113646857D01*
X156210000Y-113719428D01*
X156318857Y-113719428D01*
X156482142Y-113646857D01*
X156536571Y-113574285D01*
X156536571Y-113066285D01*
X156318857Y-113066285D01*
X167803285Y-113138857D02*
X168674142Y-113138857D01*
X168238714Y-113719428D02*
X168238714Y-112558285D01*
X169218428Y-113719428D02*
X169218428Y-112195428D01*
X169490571Y-112195428D01*
X169653857Y-112268000D01*
X169762714Y-112413142D01*
X169817142Y-112558285D01*
X169871571Y-112848571D01*
X169871571Y-113066285D01*
X169817142Y-113356571D01*
X169762714Y-113501714D01*
X169653857Y-113646857D01*
X169490571Y-113719428D01*
X169218428Y-113719428D01*
X170307000Y-113646857D02*
X170470285Y-113719428D01*
X170742428Y-113719428D01*
X170851285Y-113646857D01*
X170905714Y-113574285D01*
X170960142Y-113429142D01*
X170960142Y-113284000D01*
X170905714Y-113138857D01*
X170851285Y-113066285D01*
X170742428Y-112993714D01*
X170524714Y-112921142D01*
X170415857Y-112848571D01*
X170361428Y-112776000D01*
X170307000Y-112630857D01*
X170307000Y-112485714D01*
X170361428Y-112340571D01*
X170415857Y-112268000D01*
X170524714Y-112195428D01*
X170796857Y-112195428D01*
X170960142Y-112268000D01*
X172048714Y-112268000D02*
X171939857Y-112195428D01*
X171776571Y-112195428D01*
X171613285Y-112268000D01*
X171504428Y-112413142D01*
X171450000Y-112558285D01*
X171395571Y-112848571D01*
X171395571Y-113066285D01*
X171450000Y-113356571D01*
X171504428Y-113501714D01*
X171613285Y-113646857D01*
X171776571Y-113719428D01*
X171885428Y-113719428D01*
X172048714Y-113646857D01*
X172103142Y-113574285D01*
X172103142Y-113066285D01*
X171885428Y-113066285D01*
D12*
X164084000Y-112776000D02*
X164084000Y-113284000D01*
X163449000Y-112522000D02*
X163449000Y-113538000D01*
X162814000Y-112141000D02*
X162814000Y-113919000D01*
X179578000Y-112776000D02*
X179578000Y-113284000D01*
X178943000Y-112522000D02*
X178943000Y-113538000D01*
X178308000Y-112141000D02*
X178308000Y-113919000D01*
D13*
G04 #@! TO.C,J4*
X130115000Y-82490000D02*
X131445000Y-82490000D01*
X130115000Y-83820000D02*
X130115000Y-82490000D01*
X130115000Y-85090000D02*
X132775000Y-85090000D01*
X132775000Y-85090000D02*
X132775000Y-100390000D01*
X130115000Y-85090000D02*
X130115000Y-100390000D01*
X130115000Y-100390000D02*
X132775000Y-100390000D01*
G04 #@! TO.C,R20*
X137623733Y-91632500D02*
X137966267Y-91632500D01*
X137623733Y-90612500D02*
X137966267Y-90612500D01*
G04 #@! TO.C,Q6*
X139375000Y-87886000D02*
X139375000Y-89346000D01*
X136215000Y-87886000D02*
X136215000Y-90046000D01*
X136215000Y-87886000D02*
X137145000Y-87886000D01*
X139375000Y-87886000D02*
X138445000Y-87886000D01*
G04 #@! TO.C,R19*
X140798733Y-82425000D02*
X141141267Y-82425000D01*
X140798733Y-81405000D02*
X141141267Y-81405000D01*
G04 #@! TO.C,D5*
X142630000Y-79275000D02*
X140170000Y-79275000D01*
X142630000Y-80745000D02*
X142630000Y-79275000D01*
X140170000Y-80745000D02*
X142630000Y-80745000D01*
G04 #@! TO.C,Q5*
X179710000Y-96450000D02*
X179710000Y-97550000D01*
X179980000Y-96450000D02*
X179710000Y-96450000D01*
X179980000Y-94950000D02*
X179980000Y-96450000D01*
X173350000Y-96450000D02*
X173350000Y-99280000D01*
X173080000Y-96450000D02*
X173350000Y-96450000D01*
X173080000Y-94950000D02*
X173080000Y-96450000D01*
G04 #@! TO.C,D1*
X151125000Y-109435000D02*
X147975000Y-109435000D01*
X151125000Y-107735000D02*
X147975000Y-107735000D01*
X151125000Y-109435000D02*
X151125000Y-107735000D01*
G04 #@! TO.C,R16*
X165882064Y-105605000D02*
X161777936Y-105605000D01*
X165882064Y-109025000D02*
X161777936Y-109025000D01*
G04 #@! TO.C,R15*
X157627064Y-101160000D02*
X153522936Y-101160000D01*
X157627064Y-104580000D02*
X153522936Y-104580000D01*
G04 #@! TO.C,R14*
X157627064Y-105605000D02*
X153522936Y-105605000D01*
X157627064Y-109025000D02*
X153522936Y-109025000D01*
D14*
G04 #@! TO.C,U3*
X145675000Y-92110000D02*
X145675000Y-98085000D01*
X140150000Y-93685000D02*
X140150000Y-98085000D01*
D13*
G04 #@! TO.C,U2*
X149520000Y-84825000D02*
X149520000Y-87775000D01*
X152740000Y-86625000D02*
X152740000Y-84825000D01*
G04 #@! TO.C,U1*
X146390000Y-86625000D02*
X146390000Y-83675000D01*
X143170000Y-84825000D02*
X143170000Y-86625000D01*
D14*
G04 #@! TO.C,TP8*
X142370000Y-102235000D02*
G75*
G03X142370000Y-102235000I-1400000J0D01*
G01*
G04 #@! TO.C,TP7*
X146180000Y-102235000D02*
G75*
G03X146180000Y-102235000I-1400000J0D01*
G01*
G04 #@! TO.C,TP6*
X149990000Y-102235000D02*
G75*
G03X149990000Y-102235000I-1400000J0D01*
G01*
G04 #@! TO.C,TP5*
X167770000Y-86360000D02*
G75*
G03X167770000Y-86360000I-1400000J0D01*
G01*
G04 #@! TO.C,TP4*
X167770000Y-81280000D02*
G75*
G03X167770000Y-81280000I-1400000J0D01*
G01*
G04 #@! TO.C,TP3*
X145926000Y-90297000D02*
G75*
G03X145926000Y-90297000I-1400000J0D01*
G01*
G04 #@! TO.C,TP2*
X149355000Y-87630000D02*
G75*
G03X149355000Y-87630000I-1400000J0D01*
G01*
G04 #@! TO.C,TP1*
X149355000Y-83820000D02*
G75*
G03X149355000Y-83820000I-1400000J0D01*
G01*
D13*
G04 #@! TO.C,R18*
X137966267Y-94422500D02*
X137623733Y-94422500D01*
X137966267Y-95442500D02*
X137623733Y-95442500D01*
G04 #@! TO.C,R17*
X165882064Y-101160000D02*
X161777936Y-101160000D01*
X165882064Y-104580000D02*
X161777936Y-104580000D01*
G04 #@! TO.C,R13*
X140163733Y-107190000D02*
X140506267Y-107190000D01*
X140163733Y-106170000D02*
X140506267Y-106170000D01*
G04 #@! TO.C,R12*
X140163733Y-105285000D02*
X140506267Y-105285000D01*
X140163733Y-104265000D02*
X140506267Y-104265000D01*
G04 #@! TO.C,R11*
X137623733Y-99252500D02*
X137966267Y-99252500D01*
X137623733Y-98232500D02*
X137966267Y-98232500D01*
G04 #@! TO.C,R10*
X144951267Y-104265000D02*
X144608733Y-104265000D01*
X144951267Y-105285000D02*
X144608733Y-105285000D01*
G04 #@! TO.C,R9*
X144608733Y-107190000D02*
X144951267Y-107190000D01*
X144608733Y-106170000D02*
X144951267Y-106170000D01*
G04 #@! TO.C,R8*
X137966267Y-96327500D02*
X137623733Y-96327500D01*
X137966267Y-97347500D02*
X137623733Y-97347500D01*
G04 #@! TO.C,R7*
X137623733Y-101157500D02*
X137966267Y-101157500D01*
X137623733Y-100137500D02*
X137966267Y-100137500D01*
G04 #@! TO.C,R6*
X149396267Y-104265000D02*
X149053733Y-104265000D01*
X149396267Y-105285000D02*
X149053733Y-105285000D01*
G04 #@! TO.C,R5*
X149053733Y-107190000D02*
X149396267Y-107190000D01*
X149053733Y-106170000D02*
X149396267Y-106170000D01*
G04 #@! TO.C,R4*
X158875000Y-85553733D02*
X158875000Y-85896267D01*
X159895000Y-85553733D02*
X159895000Y-85896267D01*
G04 #@! TO.C,R3*
X164270000Y-85872064D02*
X164270000Y-81767936D01*
X160850000Y-85872064D02*
X160850000Y-81767936D01*
G04 #@! TO.C,R2*
X159895000Y-82086267D02*
X159895000Y-81743733D01*
X158875000Y-82086267D02*
X158875000Y-81743733D01*
G04 #@! TO.C,R1*
X148715000Y-89998733D02*
X148715000Y-90341267D01*
X149735000Y-89998733D02*
X149735000Y-90341267D01*
G04 #@! TO.C,Q4*
X164470000Y-96450000D02*
X164470000Y-97550000D01*
X164740000Y-96450000D02*
X164470000Y-96450000D01*
X164740000Y-94950000D02*
X164740000Y-96450000D01*
X158110000Y-96450000D02*
X158110000Y-99280000D01*
X157840000Y-96450000D02*
X158110000Y-96450000D01*
X157840000Y-94950000D02*
X157840000Y-96450000D01*
G04 #@! TO.C,Q3*
X172090000Y-96450000D02*
X172090000Y-97550000D01*
X172360000Y-96450000D02*
X172090000Y-96450000D01*
X172360000Y-94950000D02*
X172360000Y-96450000D01*
X165730000Y-96450000D02*
X165730000Y-99280000D01*
X165460000Y-96450000D02*
X165730000Y-96450000D01*
X165460000Y-94950000D02*
X165460000Y-96450000D01*
G04 #@! TO.C,Q2*
X146415000Y-110125000D02*
X146415000Y-110460000D01*
X146415000Y-113060000D02*
X146415000Y-113395000D01*
X143145000Y-113060000D02*
X143145000Y-113395000D01*
X143145000Y-113395000D02*
X146415000Y-113395000D01*
X142910000Y-110125000D02*
X146415000Y-110125000D01*
G04 #@! TO.C,Q1*
X156850000Y-96450000D02*
X156850000Y-97550000D01*
X157120000Y-96450000D02*
X156850000Y-96450000D01*
X157120000Y-94950000D02*
X157120000Y-96450000D01*
X150490000Y-96450000D02*
X150490000Y-99280000D01*
X150220000Y-96450000D02*
X150490000Y-96450000D01*
X150220000Y-94950000D02*
X150220000Y-96450000D01*
G04 #@! TO.C,J6*
X172660000Y-114360000D02*
X172660000Y-113030000D01*
X173990000Y-114360000D02*
X172660000Y-114360000D01*
X175260000Y-114360000D02*
X175260000Y-111700000D01*
X175260000Y-111700000D02*
X177860000Y-111700000D01*
X175260000Y-114360000D02*
X177860000Y-114360000D01*
X177860000Y-114360000D02*
X177860000Y-111700000D01*
G04 #@! TO.C,J5*
X157102500Y-114360000D02*
X157102500Y-113030000D01*
X158432500Y-114360000D02*
X157102500Y-114360000D01*
X159702500Y-114360000D02*
X159702500Y-111700000D01*
X159702500Y-111700000D02*
X162302500Y-111700000D01*
X159702500Y-114360000D02*
X162302500Y-114360000D01*
X162302500Y-114360000D02*
X162302500Y-111700000D01*
G04 #@! TO.C,J3*
X130115000Y-104080000D02*
X131445000Y-104080000D01*
X130115000Y-105410000D02*
X130115000Y-104080000D01*
X130115000Y-106680000D02*
X132775000Y-106680000D01*
X132775000Y-106680000D02*
X132775000Y-114360000D01*
X130115000Y-106680000D02*
X130115000Y-114360000D01*
X130115000Y-114360000D02*
X132775000Y-114360000D01*
G04 #@! TO.C,J2*
X130115000Y-77410000D02*
X131445000Y-77410000D01*
X130115000Y-78740000D02*
X130115000Y-77410000D01*
X130115000Y-80010000D02*
X132775000Y-80010000D01*
X132775000Y-80010000D02*
X132775000Y-82610000D01*
X130115000Y-80010000D02*
X130115000Y-82610000D01*
X130115000Y-82610000D02*
X132775000Y-82610000D01*
G04 #@! TO.C,J1*
X177860000Y-77410000D02*
X177860000Y-78740000D01*
X176530000Y-77410000D02*
X177860000Y-77410000D01*
X175260000Y-77410000D02*
X175260000Y-80070000D01*
X175260000Y-80070000D02*
X172660000Y-80070000D01*
X175260000Y-77410000D02*
X172660000Y-77410000D01*
X172660000Y-77410000D02*
X172660000Y-80070000D01*
G04 #@! TO.C,FB5*
X177040000Y-99231267D02*
X177040000Y-98888733D01*
X176020000Y-99231267D02*
X176020000Y-98888733D01*
G04 #@! TO.C,FB4*
X161800000Y-99231267D02*
X161800000Y-98888733D01*
X160780000Y-99231267D02*
X160780000Y-98888733D01*
G04 #@! TO.C,FB3*
X169420000Y-99231267D02*
X169420000Y-98888733D01*
X168400000Y-99231267D02*
X168400000Y-98888733D01*
G04 #@! TO.C,FB2*
X150958733Y-82425000D02*
X151301267Y-82425000D01*
X150958733Y-81405000D02*
X151301267Y-81405000D01*
G04 #@! TO.C,FB1*
X144951267Y-79500000D02*
X144608733Y-79500000D01*
X144951267Y-80520000D02*
X144608733Y-80520000D01*
D12*
G04 #@! TO.C,F1*
X172720000Y-81534000D02*
X177800000Y-81534000D01*
X177800000Y-86106000D02*
X172720000Y-86106000D01*
D10*
X173372619Y-83493080D02*
G75*
G02X175260000Y-83820000I871381J-580920D01*
G01*
X177147381Y-84146920D02*
G75*
G02X175260000Y-83820000I-871381J580920D01*
G01*
X177651210Y-83820000D02*
G75*
G03X177651210Y-83820000I-359210J0D01*
G01*
X173587210Y-83820000D02*
G75*
G03X173587210Y-83820000I-359210J0D01*
G01*
D13*
G04 #@! TO.C,D4*
X168460000Y-102795000D02*
X179660000Y-102795000D01*
X168460000Y-109295000D02*
X179660000Y-109295000D01*
X168460000Y-109295000D02*
X168460000Y-102795000D01*
G04 #@! TO.C,D3*
X142235000Y-109435000D02*
X139085000Y-109435000D01*
X142235000Y-107735000D02*
X139085000Y-107735000D01*
X142235000Y-109435000D02*
X142235000Y-107735000D01*
G04 #@! TO.C,D2*
X146680000Y-109435000D02*
X143530000Y-109435000D01*
X146680000Y-107735000D02*
X143530000Y-107735000D01*
X146680000Y-109435000D02*
X146680000Y-107735000D01*
G04 #@! TO.C,C17*
X176993733Y-111000000D02*
X177336267Y-111000000D01*
X176993733Y-109980000D02*
X177336267Y-109980000D01*
G04 #@! TO.C,C16*
X173183733Y-111000000D02*
X173526267Y-111000000D01*
X173183733Y-109980000D02*
X173526267Y-109980000D01*
G04 #@! TO.C,C15*
X161436233Y-111000000D02*
X161778767Y-111000000D01*
X161436233Y-109980000D02*
X161778767Y-109980000D01*
G04 #@! TO.C,C14*
X157626233Y-111000000D02*
X157968767Y-111000000D01*
X157626233Y-109980000D02*
X157968767Y-109980000D01*
G04 #@! TO.C,C13*
X137966267Y-92517500D02*
X137623733Y-92517500D01*
X137966267Y-93537500D02*
X137623733Y-93537500D01*
G04 #@! TO.C,C12*
X180465000Y-97618733D02*
X180465000Y-97961267D01*
X181485000Y-97618733D02*
X181485000Y-97961267D01*
G04 #@! TO.C,C11*
X180465000Y-93808733D02*
X180465000Y-94151267D01*
X181485000Y-93808733D02*
X181485000Y-94151267D01*
G04 #@! TO.C,C10*
X148715000Y-97618733D02*
X148715000Y-97961267D01*
X149735000Y-97618733D02*
X149735000Y-97961267D01*
G04 #@! TO.C,C9*
X148715000Y-93808733D02*
X148715000Y-94151267D01*
X149735000Y-93808733D02*
X149735000Y-94151267D01*
G04 #@! TO.C,C8*
X156770000Y-85463748D02*
X156770000Y-85986252D01*
X158190000Y-85463748D02*
X158190000Y-85986252D01*
G04 #@! TO.C,C7*
X154030000Y-83217936D02*
X154030000Y-84422064D01*
X155850000Y-83217936D02*
X155850000Y-84422064D01*
G04 #@! TO.C,C6*
X158190000Y-82176252D02*
X158190000Y-81653748D01*
X156770000Y-82176252D02*
X156770000Y-81653748D01*
G04 #@! TO.C,C5*
X148030000Y-94241252D02*
X148030000Y-93718748D01*
X146610000Y-94241252D02*
X146610000Y-93718748D01*
G04 #@! TO.C,C4*
X146810000Y-97618733D02*
X146810000Y-97961267D01*
X147830000Y-97618733D02*
X147830000Y-97961267D01*
G04 #@! TO.C,C3*
X151301267Y-79500000D02*
X150958733Y-79500000D01*
X151301267Y-80520000D02*
X150958733Y-80520000D01*
G04 #@! TO.C,C2*
X144951267Y-77595000D02*
X144608733Y-77595000D01*
X144951267Y-78615000D02*
X144608733Y-78615000D01*
G04 #@! TO.C,C1*
X144951267Y-81405000D02*
X144608733Y-81405000D01*
X144951267Y-82425000D02*
X144608733Y-82425000D01*
G04 #@! TD*
M02*
