G04 #@! TF.GenerationSoftware,KiCad,Pcbnew,(5.1.2)-2*
G04 #@! TF.CreationDate,2019-08-30T17:07:24-04:00*
G04 #@! TF.ProjectId,PowerStage SubBoard 0-2,506f7765-7253-4746-9167-652053756242,rev?*
G04 #@! TF.SameCoordinates,Original*
G04 #@! TF.FileFunction,Legend,Bot*
G04 #@! TF.FilePolarity,Positive*
%FSLAX46Y46*%
G04 Gerber Fmt 4.6, Leading zero omitted, Abs format (unit mm)*
G04 Created by KiCad (PCBNEW (5.1.2)-2) date 2019-08-30 17:07:24*
%MOMM*%
%LPD*%
G04 APERTURE LIST*
%ADD10C,0.190500*%
%ADD11C,0.254000*%
G04 APERTURE END LIST*
D10*
X141024428Y-80019071D02*
X141024428Y-80835500D01*
X141060714Y-80998785D01*
X141133285Y-81107642D01*
X141242142Y-81162071D01*
X141314714Y-81162071D01*
X140335000Y-80400071D02*
X140335000Y-81162071D01*
X140661571Y-80400071D02*
X140661571Y-80998785D01*
X140625285Y-81107642D01*
X140552714Y-81162071D01*
X140443857Y-81162071D01*
X140371285Y-81107642D01*
X140335000Y-81053214D01*
X139863285Y-81162071D02*
X139935857Y-81107642D01*
X139972142Y-80998785D01*
X139972142Y-80019071D01*
X139645571Y-80400071D02*
X139464142Y-81162071D01*
X139282714Y-80400071D02*
X139464142Y-81162071D01*
X139536714Y-81434214D01*
X139573000Y-81488642D01*
X139645571Y-81543071D01*
X138448142Y-80127928D02*
X138411857Y-80073500D01*
X138339285Y-80019071D01*
X138157857Y-80019071D01*
X138085285Y-80073500D01*
X138049000Y-80127928D01*
X138012714Y-80236785D01*
X138012714Y-80345642D01*
X138049000Y-80508928D01*
X138484428Y-81162071D01*
X138012714Y-81162071D01*
X137541000Y-80019071D02*
X137468428Y-80019071D01*
X137395857Y-80073500D01*
X137359571Y-80127928D01*
X137323285Y-80236785D01*
X137287000Y-80454500D01*
X137287000Y-80726642D01*
X137323285Y-80944357D01*
X137359571Y-81053214D01*
X137395857Y-81107642D01*
X137468428Y-81162071D01*
X137541000Y-81162071D01*
X137613571Y-81107642D01*
X137649857Y-81053214D01*
X137686142Y-80944357D01*
X137722428Y-80726642D01*
X137722428Y-80454500D01*
X137686142Y-80236785D01*
X137649857Y-80127928D01*
X137613571Y-80073500D01*
X137541000Y-80019071D01*
X136561285Y-81162071D02*
X136996714Y-81162071D01*
X136779000Y-81162071D02*
X136779000Y-80019071D01*
X136851571Y-80182357D01*
X136924142Y-80291214D01*
X136996714Y-80345642D01*
X136198428Y-81162071D02*
X136053285Y-81162071D01*
X135980714Y-81107642D01*
X135944428Y-81053214D01*
X135871857Y-80889928D01*
X135835571Y-80672214D01*
X135835571Y-80236785D01*
X135871857Y-80127928D01*
X135908142Y-80073500D01*
X135980714Y-80019071D01*
X136125857Y-80019071D01*
X136198428Y-80073500D01*
X136234714Y-80127928D01*
X136271000Y-80236785D01*
X136271000Y-80508928D01*
X136234714Y-80617785D01*
X136198428Y-80672214D01*
X136125857Y-80726642D01*
X135980714Y-80726642D01*
X135908142Y-80672214D01*
X135871857Y-80617785D01*
X135835571Y-80508928D01*
X162378571Y-81035071D02*
X162378571Y-79892071D01*
X162052000Y-80980642D02*
X161979428Y-81035071D01*
X161834285Y-81035071D01*
X161761714Y-80980642D01*
X161725428Y-80871785D01*
X161725428Y-80817357D01*
X161761714Y-80708500D01*
X161834285Y-80654071D01*
X161943142Y-80654071D01*
X162015714Y-80599642D01*
X162052000Y-80490785D01*
X162052000Y-80436357D01*
X162015714Y-80327500D01*
X161943142Y-80273071D01*
X161834285Y-80273071D01*
X161761714Y-80327500D01*
X161398857Y-81035071D02*
X161398857Y-79892071D01*
X161072285Y-81035071D02*
X161072285Y-80436357D01*
X161108571Y-80327500D01*
X161181142Y-80273071D01*
X161290000Y-80273071D01*
X161362571Y-80327500D01*
X161398857Y-80381928D01*
X160382857Y-81035071D02*
X160382857Y-80436357D01*
X160419142Y-80327500D01*
X160491714Y-80273071D01*
X160636857Y-80273071D01*
X160709428Y-80327500D01*
X160382857Y-80980642D02*
X160455428Y-81035071D01*
X160636857Y-81035071D01*
X160709428Y-80980642D01*
X160745714Y-80871785D01*
X160745714Y-80762928D01*
X160709428Y-80654071D01*
X160636857Y-80599642D01*
X160455428Y-80599642D01*
X160382857Y-80545214D01*
X159693428Y-81035071D02*
X159693428Y-80436357D01*
X159729714Y-80327500D01*
X159802285Y-80273071D01*
X159947428Y-80273071D01*
X160020000Y-80327500D01*
X159693428Y-80980642D02*
X159766000Y-81035071D01*
X159947428Y-81035071D01*
X160020000Y-80980642D01*
X160056285Y-80871785D01*
X160056285Y-80762928D01*
X160020000Y-80654071D01*
X159947428Y-80599642D01*
X159766000Y-80599642D01*
X159693428Y-80545214D01*
X159330571Y-80273071D02*
X159330571Y-81035071D01*
X159330571Y-80381928D02*
X159294285Y-80327500D01*
X159221714Y-80273071D01*
X159112857Y-80273071D01*
X159040285Y-80327500D01*
X159004000Y-80436357D01*
X159004000Y-81035071D01*
X157661428Y-79946500D02*
X157734000Y-79892071D01*
X157842857Y-79892071D01*
X157951714Y-79946500D01*
X158024285Y-80055357D01*
X158060571Y-80164214D01*
X158096857Y-80381928D01*
X158096857Y-80545214D01*
X158060571Y-80762928D01*
X158024285Y-80871785D01*
X157951714Y-80980642D01*
X157842857Y-81035071D01*
X157770285Y-81035071D01*
X157661428Y-80980642D01*
X157625142Y-80926214D01*
X157625142Y-80545214D01*
X157770285Y-80545214D01*
X157189714Y-81035071D02*
X157262285Y-80980642D01*
X157298571Y-80926214D01*
X157334857Y-80817357D01*
X157334857Y-80490785D01*
X157298571Y-80381928D01*
X157262285Y-80327500D01*
X157189714Y-80273071D01*
X157080857Y-80273071D01*
X157008285Y-80327500D01*
X156972000Y-80381928D01*
X156935714Y-80490785D01*
X156935714Y-80817357D01*
X156972000Y-80926214D01*
X157008285Y-80980642D01*
X157080857Y-81035071D01*
X157189714Y-81035071D01*
X156681714Y-80273071D02*
X156500285Y-81035071D01*
X156318857Y-80273071D01*
D11*
X162405785Y-79302428D02*
X162405785Y-77778428D01*
X161970357Y-77778428D01*
X161861500Y-77851000D01*
X161807071Y-77923571D01*
X161752642Y-78068714D01*
X161752642Y-78286428D01*
X161807071Y-78431571D01*
X161861500Y-78504142D01*
X161970357Y-78576714D01*
X162405785Y-78576714D01*
X161099500Y-79302428D02*
X161208357Y-79229857D01*
X161262785Y-79157285D01*
X161317214Y-79012142D01*
X161317214Y-78576714D01*
X161262785Y-78431571D01*
X161208357Y-78359000D01*
X161099500Y-78286428D01*
X160936214Y-78286428D01*
X160827357Y-78359000D01*
X160772928Y-78431571D01*
X160718500Y-78576714D01*
X160718500Y-79012142D01*
X160772928Y-79157285D01*
X160827357Y-79229857D01*
X160936214Y-79302428D01*
X161099500Y-79302428D01*
X160337500Y-78286428D02*
X160119785Y-79302428D01*
X159902071Y-78576714D01*
X159684357Y-79302428D01*
X159466642Y-78286428D01*
X158595785Y-79229857D02*
X158704642Y-79302428D01*
X158922357Y-79302428D01*
X159031214Y-79229857D01*
X159085642Y-79084714D01*
X159085642Y-78504142D01*
X159031214Y-78359000D01*
X158922357Y-78286428D01*
X158704642Y-78286428D01*
X158595785Y-78359000D01*
X158541357Y-78504142D01*
X158541357Y-78649285D01*
X159085642Y-78794428D01*
X158051500Y-79302428D02*
X158051500Y-78286428D01*
X158051500Y-78576714D02*
X157997071Y-78431571D01*
X157942642Y-78359000D01*
X157833785Y-78286428D01*
X157724928Y-78286428D01*
X156527500Y-79229857D02*
X156364214Y-79302428D01*
X156092071Y-79302428D01*
X155983214Y-79229857D01*
X155928785Y-79157285D01*
X155874357Y-79012142D01*
X155874357Y-78867000D01*
X155928785Y-78721857D01*
X155983214Y-78649285D01*
X156092071Y-78576714D01*
X156309785Y-78504142D01*
X156418642Y-78431571D01*
X156473071Y-78359000D01*
X156527500Y-78213857D01*
X156527500Y-78068714D01*
X156473071Y-77923571D01*
X156418642Y-77851000D01*
X156309785Y-77778428D01*
X156037642Y-77778428D01*
X155874357Y-77851000D01*
X155547785Y-78286428D02*
X155112357Y-78286428D01*
X155384500Y-77778428D02*
X155384500Y-79084714D01*
X155330071Y-79229857D01*
X155221214Y-79302428D01*
X155112357Y-79302428D01*
X154241500Y-79302428D02*
X154241500Y-78504142D01*
X154295928Y-78359000D01*
X154404785Y-78286428D01*
X154622500Y-78286428D01*
X154731357Y-78359000D01*
X154241500Y-79229857D02*
X154350357Y-79302428D01*
X154622500Y-79302428D01*
X154731357Y-79229857D01*
X154785785Y-79084714D01*
X154785785Y-78939571D01*
X154731357Y-78794428D01*
X154622500Y-78721857D01*
X154350357Y-78721857D01*
X154241500Y-78649285D01*
X153207357Y-78286428D02*
X153207357Y-79520142D01*
X153261785Y-79665285D01*
X153316214Y-79737857D01*
X153425071Y-79810428D01*
X153588357Y-79810428D01*
X153697214Y-79737857D01*
X153207357Y-79229857D02*
X153316214Y-79302428D01*
X153533928Y-79302428D01*
X153642785Y-79229857D01*
X153697214Y-79157285D01*
X153751642Y-79012142D01*
X153751642Y-78576714D01*
X153697214Y-78431571D01*
X153642785Y-78359000D01*
X153533928Y-78286428D01*
X153316214Y-78286428D01*
X153207357Y-78359000D01*
X152227642Y-79229857D02*
X152336500Y-79302428D01*
X152554214Y-79302428D01*
X152663071Y-79229857D01*
X152717500Y-79084714D01*
X152717500Y-78504142D01*
X152663071Y-78359000D01*
X152554214Y-78286428D01*
X152336500Y-78286428D01*
X152227642Y-78359000D01*
X152173214Y-78504142D01*
X152173214Y-78649285D01*
X152717500Y-78794428D01*
X150866928Y-79229857D02*
X150703642Y-79302428D01*
X150431500Y-79302428D01*
X150322642Y-79229857D01*
X150268214Y-79157285D01*
X150213785Y-79012142D01*
X150213785Y-78867000D01*
X150268214Y-78721857D01*
X150322642Y-78649285D01*
X150431500Y-78576714D01*
X150649214Y-78504142D01*
X150758071Y-78431571D01*
X150812500Y-78359000D01*
X150866928Y-78213857D01*
X150866928Y-78068714D01*
X150812500Y-77923571D01*
X150758071Y-77851000D01*
X150649214Y-77778428D01*
X150377071Y-77778428D01*
X150213785Y-77851000D01*
X149234071Y-78286428D02*
X149234071Y-79302428D01*
X149723928Y-78286428D02*
X149723928Y-79084714D01*
X149669500Y-79229857D01*
X149560642Y-79302428D01*
X149397357Y-79302428D01*
X149288500Y-79229857D01*
X149234071Y-79157285D01*
X148689785Y-79302428D02*
X148689785Y-77778428D01*
X148689785Y-78359000D02*
X148580928Y-78286428D01*
X148363214Y-78286428D01*
X148254357Y-78359000D01*
X148199928Y-78431571D01*
X148145500Y-78576714D01*
X148145500Y-79012142D01*
X148199928Y-79157285D01*
X148254357Y-79229857D01*
X148363214Y-79302428D01*
X148580928Y-79302428D01*
X148689785Y-79229857D01*
X147274642Y-78504142D02*
X147111357Y-78576714D01*
X147056928Y-78649285D01*
X147002500Y-78794428D01*
X147002500Y-79012142D01*
X147056928Y-79157285D01*
X147111357Y-79229857D01*
X147220214Y-79302428D01*
X147655642Y-79302428D01*
X147655642Y-77778428D01*
X147274642Y-77778428D01*
X147165785Y-77851000D01*
X147111357Y-77923571D01*
X147056928Y-78068714D01*
X147056928Y-78213857D01*
X147111357Y-78359000D01*
X147165785Y-78431571D01*
X147274642Y-78504142D01*
X147655642Y-78504142D01*
X146349357Y-79302428D02*
X146458214Y-79229857D01*
X146512642Y-79157285D01*
X146567071Y-79012142D01*
X146567071Y-78576714D01*
X146512642Y-78431571D01*
X146458214Y-78359000D01*
X146349357Y-78286428D01*
X146186071Y-78286428D01*
X146077214Y-78359000D01*
X146022785Y-78431571D01*
X145968357Y-78576714D01*
X145968357Y-79012142D01*
X146022785Y-79157285D01*
X146077214Y-79229857D01*
X146186071Y-79302428D01*
X146349357Y-79302428D01*
X144988642Y-79302428D02*
X144988642Y-78504142D01*
X145043071Y-78359000D01*
X145151928Y-78286428D01*
X145369642Y-78286428D01*
X145478500Y-78359000D01*
X144988642Y-79229857D02*
X145097500Y-79302428D01*
X145369642Y-79302428D01*
X145478500Y-79229857D01*
X145532928Y-79084714D01*
X145532928Y-78939571D01*
X145478500Y-78794428D01*
X145369642Y-78721857D01*
X145097500Y-78721857D01*
X144988642Y-78649285D01*
X144444357Y-79302428D02*
X144444357Y-78286428D01*
X144444357Y-78576714D02*
X144389928Y-78431571D01*
X144335500Y-78359000D01*
X144226642Y-78286428D01*
X144117785Y-78286428D01*
X143246928Y-79302428D02*
X143246928Y-77778428D01*
X143246928Y-79229857D02*
X143355785Y-79302428D01*
X143573500Y-79302428D01*
X143682357Y-79229857D01*
X143736785Y-79157285D01*
X143791214Y-79012142D01*
X143791214Y-78576714D01*
X143736785Y-78431571D01*
X143682357Y-78359000D01*
X143573500Y-78286428D01*
X143355785Y-78286428D01*
X143246928Y-78359000D01*
X141178642Y-79302428D02*
X141559642Y-78576714D01*
X141831785Y-79302428D02*
X141831785Y-77778428D01*
X141396357Y-77778428D01*
X141287500Y-77851000D01*
X141233071Y-77923571D01*
X141178642Y-78068714D01*
X141178642Y-78286428D01*
X141233071Y-78431571D01*
X141287500Y-78504142D01*
X141396357Y-78576714D01*
X141831785Y-78576714D01*
X140253357Y-79229857D02*
X140362214Y-79302428D01*
X140579928Y-79302428D01*
X140688785Y-79229857D01*
X140743214Y-79084714D01*
X140743214Y-78504142D01*
X140688785Y-78359000D01*
X140579928Y-78286428D01*
X140362214Y-78286428D01*
X140253357Y-78359000D01*
X140198928Y-78504142D01*
X140198928Y-78649285D01*
X140743214Y-78794428D01*
X139817928Y-78286428D02*
X139545785Y-79302428D01*
X139273642Y-78286428D01*
X137749642Y-77778428D02*
X137640785Y-77778428D01*
X137531928Y-77851000D01*
X137477500Y-77923571D01*
X137423071Y-78068714D01*
X137368642Y-78359000D01*
X137368642Y-78721857D01*
X137423071Y-79012142D01*
X137477500Y-79157285D01*
X137531928Y-79229857D01*
X137640785Y-79302428D01*
X137749642Y-79302428D01*
X137858500Y-79229857D01*
X137912928Y-79157285D01*
X137967357Y-79012142D01*
X138021785Y-78721857D01*
X138021785Y-78359000D01*
X137967357Y-78068714D01*
X137912928Y-77923571D01*
X137858500Y-77851000D01*
X137749642Y-77778428D01*
X136878785Y-79157285D02*
X136824357Y-79229857D01*
X136878785Y-79302428D01*
X136933214Y-79229857D01*
X136878785Y-79157285D01*
X136878785Y-79302428D01*
X135735785Y-79302428D02*
X136388928Y-79302428D01*
X136062357Y-79302428D02*
X136062357Y-77778428D01*
X136171214Y-77996142D01*
X136280071Y-78141285D01*
X136388928Y-78213857D01*
M02*
